  0
SECTION
  2
HEADER
  9
$ANGBASE
  50
0.0
  9
$ANGDIR
  70
1
  9
$MEASUREMENT
  70
0
  0
ENDSEC
  0
SECTION
  2
TABLES
  0
TABLE
  2
LTYPE
  70
4
  0
LTYPE
  5
40F
  2
CONTINUOUS
  70
0
  3
Solid line
  72
65
  73
0
  40
0.0
  0
LTYPE
  5
410
  2
DASHDOT
 70
0
  3
Dash Dot ____ _ ____ _
 72
65
 73
4
 40
2.0
 49
1.25
 49
-0.25
 49
0.25
 49
-0.25
  0
LTYPE
  5
411
  2
DASHED
 70
0
  3
Dashed __ __ __ __ __
 72
65
 73
2
 40
0.75
 49
0.5
 49
-0.25
  0
LTYPE
  5
43B
  2
DOTTED
 70
0
  3
Dotted .  .  .  .
 72
65
 73
2
 40
0.2
 49
0.0
 49
-0.2
  0
ENDTAB
  0
TABLE
  2
STYLE
  70
4
  0
STYLE
  2
KICAD
  70
0
  40
0
  41
1
  42
1
  50
0
  71
0
  3
isocp.shx
  0
STYLE
  2
KICADB
  70
0
  40
0
  41
1
  42
1
  50
0
  71
0
  3
isocp.shx
  0
STYLE
  2
KICADI
  70
0
  40
0
  41
1
  42
1
  50
15
  71
0
  3
isocp.shx
  0
STYLE
  2
KICADBI
  70
0
  40
0
  41
1
  42
1
  50
15
  71
0
  3
isocp.shx
  0
ENDTAB
  0
TABLE
  2
LAYER
  70
1
  0
LAYER
  2
BLACK
  70
0
  62
7
  6
CONTINUOUS
  0
ENDTAB
  0
ENDSEC
  0
SECTION
  2
ENTITIES
0
LINE
8
BLACK
6
CONTINUOUS
10
13.4306722834645669
20
-5.5567192913385828
11
13.435873110236221
21
-5.5585391338582673
0
LINE
8
BLACK
6
CONTINUOUS
10
13.435873110236221
20
-5.5585391338582673
11
13.440538622047244
21
-5.5614706692913387
0
LINE
8
BLACK
6
CONTINUOUS
10
13.440538622047244
20
-5.5614706692913387
11
13.4444348425196853
21
-5.5653668897637791
0
LINE
8
BLACK
6
CONTINUOUS
10
13.4444348425196853
20
-5.5653668897637791
11
13.4473663779527559
21
-5.5700324015748031
0
LINE
8
BLACK
6
CONTINUOUS
10
13.4473663779527559
20
-5.5700324015748031
11
13.4491862204724413
21
-5.5752332283464563
0
LINE
8
BLACK
6
CONTINUOUS
10
13.4491862204724413
20
-5.5752332283464563
11
13.4498031496062982
21
-5.5807086614173231
0
LINE
8
BLACK
6
CONTINUOUS
10
13.4498031496062982
20
-5.5807086614173231
11
13.449728346456693
21
-5.5809387795275587
0
LINE
8
BLACK
6
CONTINUOUS
10
13.449728346456693
20
-5.5809387795275587
11
13.4498031496062982
21
-5.9192913385826769
0
LINE
8
BLACK
6
CONTINUOUS
10
13.4498031496062982
20
-5.9192913385826769
11
13.4491862204724413
21
-5.9247667716535428
0
LINE
8
BLACK
6
CONTINUOUS
10
13.4491862204724413
20
-5.9247667716535428
11
13.4473663779527559
21
-5.9299675984251969
0
LINE
8
BLACK
6
CONTINUOUS
10
13.4473663779527559
20
-5.9299675984251969
11
13.4444348425196853
21
-5.93463311023622
0
LINE
8
BLACK
6
CONTINUOUS
10
13.4444348425196853
20
-5.93463311023622
11
13.440538622047244
21
-5.9385293307086613
0
LINE
8
BLACK
6
CONTINUOUS
10
13.440538622047244
20
-5.9385293307086613
11
13.435873110236221
21
-5.9414608661417319
0
LINE
8
BLACK
6
CONTINUOUS
10
13.435873110236221
20
-5.9414608661417319
11
13.4306722834645669
21
-5.9432807086614172
0
LINE
8
BLACK
6
CONTINUOUS
10
13.4306722834645669
20
-5.9432807086614172
11
13.4251968503937
21
-5.943897637795275
0
LINE
8
BLACK
6
CONTINUOUS
10
13.4251968503937
20
-5.943897637795275
11
13.419721417322835
21
-5.9432807086614172
0
LINE
8
BLACK
6
CONTINUOUS
10
13.419721417322835
20
-5.9432807086614172
11
13.4145205905511808
21
-5.9414608661417319
0
LINE
8
BLACK
6
CONTINUOUS
10
13.4145205905511808
20
-5.9414608661417319
11
13.4098550787401578
21
-5.9385293307086613
0
LINE
8
BLACK
6
CONTINUOUS
10
13.4098550787401578
20
-5.9385293307086613
11
13.4059588582677165
21
-5.93463311023622
0
LINE
8
BLACK
6
CONTINUOUS
10
13.4059588582677165
20
-5.93463311023622
11
13.4030273228346459
21
-5.9299675984251969
0
LINE
8
BLACK
6
CONTINUOUS
10
13.4030273228346459
20
-5.9299675984251969
11
13.4012074803149606
21
-5.9247667716535428
0
LINE
8
BLACK
6
CONTINUOUS
10
13.4012074803149606
20
-5.9247667716535428
11
13.4005905511811019
21
-5.9192913385826769
0
LINE
8
BLACK
6
CONTINUOUS
10
13.4005905511811019
20
-5.9192913385826769
11
13.4006653149606301
21
-5.9190611811023617
0
LINE
8
BLACK
6
CONTINUOUS
10
13.4006653149606301
20
-5.9190611811023617
11
13.4005905511811019
21
-5.5807086614173231
0
LINE
8
BLACK
6
CONTINUOUS
10
13.4005905511811019
20
-5.5807086614173231
11
13.4012074803149606
21
-5.5752332283464563
0
LINE
8
BLACK
6
CONTINUOUS
10
13.4012074803149606
20
-5.5752332283464563
11
13.4030273228346459
21
-5.5700324015748031
0
LINE
8
BLACK
6
CONTINUOUS
10
13.4030273228346459
20
-5.5700324015748031
11
13.4059588582677165
21
-5.5653668897637791
0
LINE
8
BLACK
6
CONTINUOUS
10
13.4059588582677165
20
-5.5653668897637791
11
13.4098550787401578
21
-5.5614706692913387
0
LINE
8
BLACK
6
CONTINUOUS
10
13.4098550787401578
20
-5.5614706692913387
11
13.4145205905511808
21
-5.5585391338582673
0
LINE
8
BLACK
6
CONTINUOUS
10
13.4145205905511808
20
-5.5585391338582673
11
13.419721417322835
21
-5.5567192913385828
0
LINE
8
BLACK
6
CONTINUOUS
10
13.419721417322835
20
-5.5567192913385828
11
13.4251968503937
21
-5.5561023622047241
0
LINE
8
BLACK
6
CONTINUOUS
10
13.4251968503937
20
-5.5561023622047241
11
13.4306722834645669
21
-5.5567192913385828
0
LINE
8
BLACK
6
CONTINUOUS
10
13.4226461811023619
20
-5.5580708661417324
11
13.417672755905512
21
-5.5592060236220471
0
LINE
8
BLACK
6
CONTINUOUS
10
13.417672755905512
20
-5.5592060236220471
11
13.4130766141732281
21
-5.5614194094488187
0
LINE
8
BLACK
6
CONTINUOUS
10
13.4130766141732281
20
-5.5614194094488187
11
13.409088228346457
21
-5.5646000393700783
0
LINE
8
BLACK
6
CONTINUOUS
10
13.409088228346457
20
-5.5646000393700783
11
13.4059075984251965
21
-5.5685884251968503
0
LINE
8
BLACK
6
CONTINUOUS
10
13.4059075984251965
20
-5.5685884251968503
11
13.4036942125984258
21
-5.5731845669291333
0
LINE
8
BLACK
6
CONTINUOUS
10
13.4036942125984258
20
-5.5731845669291333
11
13.4025590551181093
21
-5.5781579921259841
0
LINE
8
BLACK
6
CONTINUOUS
10
13.4025590551181093
20
-5.5781579921259841
11
13.4025590551181093
21
-5.5807086614173231
0
LINE
8
BLACK
6
CONTINUOUS
10
13.4025590551181093
20
-5.5807086614173231
11
13.4024842519685041
21
-5.5809387795275587
0
LINE
8
BLACK
6
CONTINUOUS
10
13.4024842519685041
20
-5.5809387795275587
11
13.4025590551181093
21
-5.9192913385826769
0
LINE
8
BLACK
6
CONTINUOUS
10
13.4025590551181093
20
-5.9192913385826769
11
13.4025590551181093
21
-5.9218420078740159
0
LINE
8
BLACK
6
CONTINUOUS
10
13.4025590551181093
20
-5.9218420078740159
11
13.4036942125984258
21
-5.9268154330708658
0
LINE
8
BLACK
6
CONTINUOUS
10
13.4036942125984258
20
-5.9268154330708658
11
13.4059075984251965
21
-5.9314115748031497
0
LINE
8
BLACK
6
CONTINUOUS
10
13.4059075984251965
20
-5.9314115748031497
11
13.409088228346457
21
-5.9353999606299208
0
LINE
8
BLACK
6
CONTINUOUS
10
13.409088228346457
20
-5.9353999606299208
11
13.4130766141732281
21
-5.9385805905511813
0
LINE
8
BLACK
6
CONTINUOUS
10
13.4130766141732281
20
-5.9385805905511813
11
13.417672755905512
21
-5.9407939763779529
0
LINE
8
BLACK
6
CONTINUOUS
10
13.417672755905512
20
-5.9407939763779529
11
13.4226461811023619
21
-5.9419291338582676
0
LINE
8
BLACK
6
CONTINUOUS
10
13.4226461811023619
20
-5.9419291338582676
11
13.4251968503937
21
-5.9419291338582676
0
LINE
8
BLACK
6
CONTINUOUS
10
13.4251968503937
20
-5.9419291338582676
11
13.4277475196850382
21
-5.9419291338582676
0
LINE
8
BLACK
6
CONTINUOUS
10
13.4277475196850382
20
-5.9419291338582676
11
13.4327209448818898
21
-5.9407939763779529
0
LINE
8
BLACK
6
CONTINUOUS
10
13.4327209448818898
20
-5.9407939763779529
11
13.4373170866141738
21
-5.9385805905511813
0
LINE
8
BLACK
6
CONTINUOUS
10
13.4373170866141738
20
-5.9385805905511813
11
13.4413054724409449
21
-5.9353999606299208
0
LINE
8
BLACK
6
CONTINUOUS
10
13.4413054724409449
20
-5.9353999606299208
11
13.4444861023622035
21
-5.9314115748031497
0
LINE
8
BLACK
6
CONTINUOUS
10
13.4444861023622035
20
-5.9314115748031497
11
13.4466994881889761
21
-5.9268154330708658
0
LINE
8
BLACK
6
CONTINUOUS
10
13.4466994881889761
20
-5.9268154330708658
11
13.4478346456692908
21
-5.9218420078740159
0
LINE
8
BLACK
6
CONTINUOUS
10
13.4478346456692908
20
-5.9218420078740159
11
13.4478346456692908
21
-5.9192913385826769
0
LINE
8
BLACK
6
CONTINUOUS
10
13.4478346456692908
20
-5.9192913385826769
11
13.447909409448819
21
-5.9190611811023617
0
LINE
8
BLACK
6
CONTINUOUS
10
13.447909409448819
20
-5.9190611811023617
11
13.4478346456692908
21
-5.5807086614173231
0
LINE
8
BLACK
6
CONTINUOUS
10
13.4478346456692908
20
-5.5807086614173231
11
13.4478346456692908
21
-5.5781579921259841
0
LINE
8
BLACK
6
CONTINUOUS
10
13.4478346456692908
20
-5.5781579921259841
11
13.4466994881889761
21
-5.5731845669291333
0
LINE
8
BLACK
6
CONTINUOUS
10
13.4466994881889761
20
-5.5731845669291333
11
13.4444861023622035
21
-5.5685884251968503
0
LINE
8
BLACK
6
CONTINUOUS
10
13.4444861023622035
20
-5.5685884251968503
11
13.4413054724409449
21
-5.5646000393700783
0
LINE
8
BLACK
6
CONTINUOUS
10
13.4413054724409449
20
-5.5646000393700783
11
13.4373170866141738
21
-5.5614194094488187
0
LINE
8
BLACK
6
CONTINUOUS
10
13.4373170866141738
20
-5.5614194094488187
11
13.4327209448818898
21
-5.5592060236220471
0
LINE
8
BLACK
6
CONTINUOUS
10
13.4327209448818898
20
-5.5592060236220471
11
13.4277475196850382
21
-5.5580708661417324
0
LINE
8
BLACK
6
CONTINUOUS
10
13.4277475196850382
20
-5.5580708661417324
11
13.4251968503937
21
-5.5580708661417324
0
LINE
8
BLACK
6
CONTINUOUS
10
13.4251968503937
20
-5.5580708661417324
11
13.4226461811023619
21
-5.5580708661417324
0
LINE
8
BLACK
6
CONTINUOUS
10
11.4692742913385821
20
-5.6333426377952751
11
11.4698069685039368
21
-5.6338753149606298
0
LINE
8
BLACK
6
CONTINUOUS
10
11.4698069685039368
20
-5.6338753149606298
11
11.46988188976378
21
-5.7562992125984254
0
LINE
8
BLACK
6
CONTINUOUS
10
11.46988188976378
20
-5.7562992125984254
11
11.4698069685039368
21
-5.7566758661417321
0
LINE
8
BLACK
6
CONTINUOUS
10
11.4698069685039368
20
-5.7566758661417321
11
11.4692742913385821
21
-5.7572085433070868
0
LINE
8
BLACK
6
CONTINUOUS
10
11.4692742913385821
20
-5.7572085433070868
11
11.3311023622047244
21
-5.7572834645669291
0
LINE
8
BLACK
6
CONTINUOUS
10
11.3311023622047244
20
-5.7572834645669291
11
11.3307257086614168
21
-5.7572085433070868
0
LINE
8
BLACK
6
CONTINUOUS
10
11.3307257086614168
20
-5.7572085433070868
11
11.3301930314960622
21
-5.7566758661417321
0
LINE
8
BLACK
6
CONTINUOUS
10
11.3301930314960622
20
-5.7566758661417321
11
11.3301181102362207
21
-5.6342519685039365
0
LINE
8
BLACK
6
CONTINUOUS
10
11.3301181102362207
20
-5.6342519685039365
11
11.3301930314960622
21
-5.6338753149606298
0
LINE
8
BLACK
6
CONTINUOUS
10
11.3301930314960622
20
-5.6338753149606298
11
11.3307257086614168
21
-5.6333426377952751
0
LINE
8
BLACK
6
CONTINUOUS
10
11.3307257086614168
20
-5.6333426377952751
11
11.4688976377952745
21
-5.6332677165354328
0
LINE
8
BLACK
6
CONTINUOUS
10
11.4688976377952745
20
-5.6332677165354328
11
11.4692742913385821
21
-5.6333426377952751
0
LINE
8
BLACK
6
CONTINUOUS
10
11.3320125196850388
20
-5.6352357086614173
11
11.3320860236220469
21
-5.7553891338582677
0
LINE
8
BLACK
6
CONTINUOUS
10
11.3320860236220469
20
-5.7553891338582677
11
11.4679874409448814
21
-5.7553154330708658
0
LINE
8
BLACK
6
CONTINUOUS
10
11.4679874409448814
20
-5.7553154330708658
11
11.4679139370078733
21
-5.6351620078740154
0
LINE
8
BLACK
6
CONTINUOUS
10
11.4679139370078733
20
-5.6351620078740154
11
11.3320125196850388
21
-5.6352357086614173
0
LINE
8
BLACK
6
CONTINUOUS
10
12.2192742913385821
20
-5.6333426377952751
11
12.2198069685039368
21
-5.6338753149606298
0
LINE
8
BLACK
6
CONTINUOUS
10
12.2198069685039368
20
-5.6338753149606298
11
12.21988188976378
21
-5.7562992125984254
0
LINE
8
BLACK
6
CONTINUOUS
10
12.21988188976378
20
-5.7562992125984254
11
12.2198069685039368
21
-5.7566758661417321
0
LINE
8
BLACK
6
CONTINUOUS
10
12.2198069685039368
20
-5.7566758661417321
11
12.2192742913385821
21
-5.7572085433070868
0
LINE
8
BLACK
6
CONTINUOUS
10
12.2192742913385821
20
-5.7572085433070868
11
12.0811023622047244
21
-5.7572834645669291
0
LINE
8
BLACK
6
CONTINUOUS
10
12.0811023622047244
20
-5.7572834645669291
11
12.0807257086614168
21
-5.7572085433070868
0
LINE
8
BLACK
6
CONTINUOUS
10
12.0807257086614168
20
-5.7572085433070868
11
12.0801930314960622
21
-5.7566758661417321
0
LINE
8
BLACK
6
CONTINUOUS
10
12.0801930314960622
20
-5.7566758661417321
11
12.0801181102362207
21
-5.6342519685039365
0
LINE
8
BLACK
6
CONTINUOUS
10
12.0801181102362207
20
-5.6342519685039365
11
12.0801930314960622
21
-5.6338753149606298
0
LINE
8
BLACK
6
CONTINUOUS
10
12.0801930314960622
20
-5.6338753149606298
11
12.0807257086614168
21
-5.6333426377952751
0
LINE
8
BLACK
6
CONTINUOUS
10
12.0807257086614168
20
-5.6333426377952751
11
12.2188976377952745
21
-5.6332677165354328
0
LINE
8
BLACK
6
CONTINUOUS
10
12.2188976377952745
20
-5.6332677165354328
11
12.2192742913385821
21
-5.6333426377952751
0
LINE
8
BLACK
6
CONTINUOUS
10
12.0820125196850388
20
-5.6352357086614173
11
12.0820860236220469
21
-5.7553891338582677
0
LINE
8
BLACK
6
CONTINUOUS
10
12.0820860236220469
20
-5.7553891338582677
11
12.2179874409448814
21
-5.7553154330708658
0
LINE
8
BLACK
6
CONTINUOUS
10
12.2179874409448814
20
-5.7553154330708658
11
12.2179139370078733
21
-5.6351620078740154
0
LINE
8
BLACK
6
CONTINUOUS
10
12.2179139370078733
20
-5.6351620078740154
11
12.0820125196850388
21
-5.6352357086614173
0
LINE
8
BLACK
6
CONTINUOUS
10
12.9692742913385821
20
-5.6333426377952751
11
12.9698069685039368
21
-5.6338753149606298
0
LINE
8
BLACK
6
CONTINUOUS
10
12.9698069685039368
20
-5.6338753149606298
11
12.96988188976378
21
-5.7562992125984254
0
LINE
8
BLACK
6
CONTINUOUS
10
12.96988188976378
20
-5.7562992125984254
11
12.9698069685039368
21
-5.7566758661417321
0
LINE
8
BLACK
6
CONTINUOUS
10
12.9698069685039368
20
-5.7566758661417321
11
12.9692742913385821
21
-5.7572085433070868
0
LINE
8
BLACK
6
CONTINUOUS
10
12.9692742913385821
20
-5.7572085433070868
11
12.8311023622047244
21
-5.7572834645669291
0
LINE
8
BLACK
6
CONTINUOUS
10
12.8311023622047244
20
-5.7572834645669291
11
12.8307257086614168
21
-5.7572085433070868
0
LINE
8
BLACK
6
CONTINUOUS
10
12.8307257086614168
20
-5.7572085433070868
11
12.8301930314960622
21
-5.7566758661417321
0
LINE
8
BLACK
6
CONTINUOUS
10
12.8301930314960622
20
-5.7566758661417321
11
12.8301181102362207
21
-5.6342519685039365
0
LINE
8
BLACK
6
CONTINUOUS
10
12.8301181102362207
20
-5.6342519685039365
11
12.8301930314960622
21
-5.6338753149606298
0
LINE
8
BLACK
6
CONTINUOUS
10
12.8301930314960622
20
-5.6338753149606298
11
12.8307257086614168
21
-5.6333426377952751
0
LINE
8
BLACK
6
CONTINUOUS
10
12.8307257086614168
20
-5.6333426377952751
11
12.9688976377952745
21
-5.6332677165354328
0
LINE
8
BLACK
6
CONTINUOUS
10
12.9688976377952745
20
-5.6332677165354328
11
12.9692742913385821
21
-5.6333426377952751
0
LINE
8
BLACK
6
CONTINUOUS
10
12.8320125196850388
20
-5.6352357086614173
11
12.8320860236220469
21
-5.7553891338582677
0
LINE
8
BLACK
6
CONTINUOUS
10
12.8320860236220469
20
-5.7553891338582677
11
12.9679874409448814
21
-5.7553154330708658
0
LINE
8
BLACK
6
CONTINUOUS
10
12.9679874409448814
20
-5.7553154330708658
11
12.9679139370078733
21
-5.6351620078740154
0
LINE
8
BLACK
6
CONTINUOUS
10
12.9679139370078733
20
-5.6351620078740154
11
12.8320125196850388
21
-5.6352357086614173
0
LINE
8
BLACK
6
CONTINUOUS
10
3.1630242913385826
20
-5.4833426377952756
11
3.1635569685039369
21
-5.4838753149606294
0
LINE
8
BLACK
6
CONTINUOUS
10
3.1635569685039369
20
-5.4838753149606294
11
3.1636318897637796
21
-5.606299212598425
0
LINE
8
BLACK
6
CONTINUOUS
10
3.1636318897637796
20
-5.606299212598425
11
3.1635569685039369
21
-5.6066758661417317
0
LINE
8
BLACK
6
CONTINUOUS
10
3.1635569685039369
20
-5.6066758661417317
11
3.1630242913385826
21
-5.6072085433070864
0
LINE
8
BLACK
6
CONTINUOUS
10
3.1630242913385826
20
-5.6072085433070864
11
3.0248523622047245
21
-5.6072834645669287
0
LINE
8
BLACK
6
CONTINUOUS
10
3.0248523622047245
20
-5.6072834645669287
11
3.0244757086614174
21
-5.6072085433070864
0
LINE
8
BLACK
6
CONTINUOUS
10
3.0244757086614174
20
-5.6072085433070864
11
3.0239430314960631
21
-5.6066758661417317
0
LINE
8
BLACK
6
CONTINUOUS
10
3.0239430314960631
20
-5.6066758661417317
11
3.0238681102362204
21
-5.484251968503937
0
LINE
8
BLACK
6
CONTINUOUS
10
3.0238681102362204
20
-5.484251968503937
11
3.0239430314960631
21
-5.4838753149606294
0
LINE
8
BLACK
6
CONTINUOUS
10
3.0239430314960631
20
-5.4838753149606294
11
3.0244757086614174
21
-5.4833426377952756
0
LINE
8
BLACK
6
CONTINUOUS
10
3.0244757086614174
20
-5.4833426377952756
11
3.1626476377952755
21
-5.4832677165354333
0
LINE
8
BLACK
6
CONTINUOUS
10
3.1626476377952755
20
-5.4832677165354333
11
3.1630242913385826
21
-5.4833426377952756
0
LINE
8
BLACK
6
CONTINUOUS
10
3.0257625196850393
20
-5.485235708661417
11
3.025836023622047
21
-5.6053891338582673
0
LINE
8
BLACK
6
CONTINUOUS
10
3.025836023622047
20
-5.6053891338582673
11
3.161737440944882
21
-5.6053154330708663
0
LINE
8
BLACK
6
CONTINUOUS
10
3.161737440944882
20
-5.6053154330708663
11
3.1616639370078738
21
-5.485162007874016
0
LINE
8
BLACK
6
CONTINUOUS
10
3.1616639370078738
20
-5.485162007874016
11
3.0257625196850393
21
-5.485235708661417
0
LINE
8
BLACK
6
CONTINUOUS
10
4.1005242913385826
20
-5.4833426377952756
11
4.1010569685039373
21
-5.4838753149606294
0
LINE
8
BLACK
6
CONTINUOUS
10
4.1010569685039373
20
-5.4838753149606294
11
4.1011318897637796
21
-5.606299212598425
0
LINE
8
BLACK
6
CONTINUOUS
10
4.1011318897637796
20
-5.606299212598425
11
4.1010569685039373
21
-5.6066758661417317
0
LINE
8
BLACK
6
CONTINUOUS
10
4.1010569685039373
20
-5.6066758661417317
11
4.1005242913385826
21
-5.6072085433070864
0
LINE
8
BLACK
6
CONTINUOUS
10
4.1005242913385826
20
-5.6072085433070864
11
3.9623523622047245
21
-5.6072834645669287
0
LINE
8
BLACK
6
CONTINUOUS
10
3.9623523622047245
20
-5.6072834645669287
11
3.9619757086614174
21
-5.6072085433070864
0
LINE
8
BLACK
6
CONTINUOUS
10
3.9619757086614174
20
-5.6072085433070864
11
3.9614430314960627
21
-5.6066758661417317
0
LINE
8
BLACK
6
CONTINUOUS
10
3.9614430314960627
20
-5.6066758661417317
11
3.9613681102362204
21
-5.484251968503937
0
LINE
8
BLACK
6
CONTINUOUS
10
3.9613681102362204
20
-5.484251968503937
11
3.9614430314960627
21
-5.4838753149606294
0
LINE
8
BLACK
6
CONTINUOUS
10
3.9614430314960627
20
-5.4838753149606294
11
3.9619757086614174
21
-5.4833426377952756
0
LINE
8
BLACK
6
CONTINUOUS
10
3.9619757086614174
20
-5.4833426377952756
11
4.1001476377952759
21
-5.4832677165354333
0
LINE
8
BLACK
6
CONTINUOUS
10
4.1001476377952759
20
-5.4832677165354333
11
4.1005242913385826
21
-5.4833426377952756
0
LINE
8
BLACK
6
CONTINUOUS
10
3.9632625196850393
20
-5.485235708661417
11
3.963336023622047
21
-5.6053891338582673
0
LINE
8
BLACK
6
CONTINUOUS
10
3.963336023622047
20
-5.6053891338582673
11
4.099237440944882
21
-5.6053154330708663
0
LINE
8
BLACK
6
CONTINUOUS
10
4.099237440944882
20
-5.6053154330708663
11
4.0991639370078738
21
-5.485162007874016
0
LINE
8
BLACK
6
CONTINUOUS
10
4.0991639370078738
20
-5.485162007874016
11
3.9632625196850393
21
-5.485235708661417
0
LINE
8
BLACK
6
CONTINUOUS
10
5.0380242913385826
20
-5.4833426377952756
11
5.0385569685039373
21
-5.4838753149606294
0
LINE
8
BLACK
6
CONTINUOUS
10
5.0385569685039373
20
-5.4838753149606294
11
5.0386318897637796
21
-5.606299212598425
0
LINE
8
BLACK
6
CONTINUOUS
10
5.0386318897637796
20
-5.606299212598425
11
5.0385569685039373
21
-5.6066758661417317
0
LINE
8
BLACK
6
CONTINUOUS
10
5.0385569685039373
20
-5.6066758661417317
11
5.0380242913385826
21
-5.6072085433070864
0
LINE
8
BLACK
6
CONTINUOUS
10
5.0380242913385826
20
-5.6072085433070864
11
4.8998523622047241
21
-5.6072834645669287
0
LINE
8
BLACK
6
CONTINUOUS
10
4.8998523622047241
20
-5.6072834645669287
11
4.8994757086614174
21
-5.6072085433070864
0
LINE
8
BLACK
6
CONTINUOUS
10
4.8994757086614174
20
-5.6072085433070864
11
4.8989430314960627
21
-5.6066758661417317
0
LINE
8
BLACK
6
CONTINUOUS
10
4.8989430314960627
20
-5.6066758661417317
11
4.8988681102362204
21
-5.484251968503937
0
LINE
8
BLACK
6
CONTINUOUS
10
4.8988681102362204
20
-5.484251968503937
11
4.8989430314960627
21
-5.4838753149606294
0
LINE
8
BLACK
6
CONTINUOUS
10
4.8989430314960627
20
-5.4838753149606294
11
4.8994757086614174
21
-5.4833426377952756
0
LINE
8
BLACK
6
CONTINUOUS
10
4.8994757086614174
20
-5.4833426377952756
11
5.0376476377952759
21
-5.4832677165354333
0
LINE
8
BLACK
6
CONTINUOUS
10
5.0376476377952759
20
-5.4832677165354333
11
5.0380242913385826
21
-5.4833426377952756
0
LINE
8
BLACK
6
CONTINUOUS
10
4.9007625196850393
20
-5.485235708661417
11
4.9008360236220474
21
-5.6053891338582673
0
LINE
8
BLACK
6
CONTINUOUS
10
4.9008360236220474
20
-5.6053891338582673
11
5.036737440944882
21
-5.6053154330708663
0
LINE
8
BLACK
6
CONTINUOUS
10
5.036737440944882
20
-5.6053154330708663
11
5.0366639370078738
21
-5.485162007874016
0
LINE
8
BLACK
6
CONTINUOUS
10
5.0366639370078738
20
-5.485162007874016
11
4.9007625196850393
21
-5.485235708661417
0
LINE
8
BLACK
6
CONTINUOUS
10
5.9755242913385826
20
-5.4833426377952756
11
5.9760569685039373
21
-5.4838753149606294
0
LINE
8
BLACK
6
CONTINUOUS
10
5.9760569685039373
20
-5.4838753149606294
11
5.9761318897637796
21
-5.606299212598425
0
LINE
8
BLACK
6
CONTINUOUS
10
5.9761318897637796
20
-5.606299212598425
11
5.9760569685039373
21
-5.6066758661417317
0
LINE
8
BLACK
6
CONTINUOUS
10
5.9760569685039373
20
-5.6066758661417317
11
5.9755242913385826
21
-5.6072085433070864
0
LINE
8
BLACK
6
CONTINUOUS
10
5.9755242913385826
20
-5.6072085433070864
11
5.8373523622047241
21
-5.6072834645669287
0
LINE
8
BLACK
6
CONTINUOUS
10
5.8373523622047241
20
-5.6072834645669287
11
5.8369757086614174
21
-5.6072085433070864
0
LINE
8
BLACK
6
CONTINUOUS
10
5.8369757086614174
20
-5.6072085433070864
11
5.8364430314960627
21
-5.6066758661417317
0
LINE
8
BLACK
6
CONTINUOUS
10
5.8364430314960627
20
-5.6066758661417317
11
5.8363681102362204
21
-5.484251968503937
0
LINE
8
BLACK
6
CONTINUOUS
10
5.8363681102362204
20
-5.484251968503937
11
5.8364430314960627
21
-5.4838753149606294
0
LINE
8
BLACK
6
CONTINUOUS
10
5.8364430314960627
20
-5.4838753149606294
11
5.8369757086614174
21
-5.4833426377952756
0
LINE
8
BLACK
6
CONTINUOUS
10
5.8369757086614174
20
-5.4833426377952756
11
5.975147637795275
21
-5.4832677165354333
0
LINE
8
BLACK
6
CONTINUOUS
10
5.975147637795275
20
-5.4832677165354333
11
5.9755242913385826
21
-5.4833426377952756
0
LINE
8
BLACK
6
CONTINUOUS
10
5.8382625196850393
20
-5.485235708661417
11
5.8383360236220474
21
-5.6053891338582673
0
LINE
8
BLACK
6
CONTINUOUS
10
5.8383360236220474
20
-5.6053891338582673
11
5.974237440944882
21
-5.6053154330708663
0
LINE
8
BLACK
6
CONTINUOUS
10
5.974237440944882
20
-5.6053154330708663
11
5.9741639370078738
21
-5.485162007874016
0
LINE
8
BLACK
6
CONTINUOUS
10
5.9741639370078738
20
-5.485162007874016
11
5.8382625196850393
21
-5.485235708661417
0
LINE
8
BLACK
6
CONTINUOUS
10
7.1942742913385826
20
-5.4833426377952756
11
7.1948069685039364
21
-5.4838753149606294
0
LINE
8
BLACK
6
CONTINUOUS
10
7.1948069685039364
20
-5.4838753149606294
11
7.1948818897637796
21
-5.606299212598425
0
LINE
8
BLACK
6
CONTINUOUS
10
7.1948818897637796
20
-5.606299212598425
11
7.1948069685039364
21
-5.6066758661417317
0
LINE
8
BLACK
6
CONTINUOUS
10
7.1948069685039364
20
-5.6066758661417317
11
7.1942742913385826
21
-5.6072085433070864
0
LINE
8
BLACK
6
CONTINUOUS
10
7.1942742913385826
20
-5.6072085433070864
11
7.0561023622047241
21
-5.6072834645669287
0
LINE
8
BLACK
6
CONTINUOUS
10
7.0561023622047241
20
-5.6072834645669287
11
7.0557257086614174
21
-5.6072085433070864
0
LINE
8
BLACK
6
CONTINUOUS
10
7.0557257086614174
20
-5.6072085433070864
11
7.0551930314960627
21
-5.6066758661417317
0
LINE
8
BLACK
6
CONTINUOUS
10
7.0551930314960627
20
-5.6066758661417317
11
7.0551181102362204
21
-5.484251968503937
0
LINE
8
BLACK
6
CONTINUOUS
10
7.0551181102362204
20
-5.484251968503937
11
7.0551930314960627
21
-5.4838753149606294
0
LINE
8
BLACK
6
CONTINUOUS
10
7.0551930314960627
20
-5.4838753149606294
11
7.0557257086614174
21
-5.4833426377952756
0
LINE
8
BLACK
6
CONTINUOUS
10
7.0557257086614174
20
-5.4833426377952756
11
7.193897637795275
21
-5.4832677165354333
0
LINE
8
BLACK
6
CONTINUOUS
10
7.193897637795275
20
-5.4832677165354333
11
7.1942742913385826
21
-5.4833426377952756
0
LINE
8
BLACK
6
CONTINUOUS
10
7.0570125196850393
20
-5.485235708661417
11
7.0570860236220474
21
-5.6053891338582673
0
LINE
8
BLACK
6
CONTINUOUS
10
7.0570860236220474
20
-5.6053891338582673
11
7.192987440944882
21
-5.6053154330708663
0
LINE
8
BLACK
6
CONTINUOUS
10
7.192987440944882
20
-5.6053154330708663
11
7.1929139370078738
21
-5.485162007874016
0
LINE
8
BLACK
6
CONTINUOUS
10
7.1929139370078738
20
-5.485162007874016
11
7.0570125196850393
21
-5.485235708661417
0
LINE
8
BLACK
6
CONTINUOUS
10
8.4130242913385818
20
-5.4833426377952756
11
8.4135569685039364
21
-5.4838753149606294
0
LINE
8
BLACK
6
CONTINUOUS
10
8.4135569685039364
20
-5.4838753149606294
11
8.4136318897637796
21
-5.606299212598425
0
LINE
8
BLACK
6
CONTINUOUS
10
8.4136318897637796
20
-5.606299212598425
11
8.4135569685039364
21
-5.6066758661417317
0
LINE
8
BLACK
6
CONTINUOUS
10
8.4135569685039364
20
-5.6066758661417317
11
8.4130242913385818
21
-5.6072085433070864
0
LINE
8
BLACK
6
CONTINUOUS
10
8.4130242913385818
20
-5.6072085433070864
11
8.2748523622047241
21
-5.6072834645669287
0
LINE
8
BLACK
6
CONTINUOUS
10
8.2748523622047241
20
-5.6072834645669287
11
8.2744757086614165
21
-5.6072085433070864
0
LINE
8
BLACK
6
CONTINUOUS
10
8.2744757086614165
20
-5.6072085433070864
11
8.2739430314960636
21
-5.6066758661417317
0
LINE
8
BLACK
6
CONTINUOUS
10
8.2739430314960636
20
-5.6066758661417317
11
8.2738681102362204
21
-5.484251968503937
0
LINE
8
BLACK
6
CONTINUOUS
10
8.2738681102362204
20
-5.484251968503937
11
8.2739430314960636
21
-5.4838753149606294
0
LINE
8
BLACK
6
CONTINUOUS
10
8.2739430314960636
20
-5.4838753149606294
11
8.2744757086614165
21
-5.4833426377952756
0
LINE
8
BLACK
6
CONTINUOUS
10
8.2744757086614165
20
-5.4833426377952756
11
8.4126476377952759
21
-5.4832677165354333
0
LINE
8
BLACK
6
CONTINUOUS
10
8.4126476377952759
20
-5.4832677165354333
11
8.4130242913385818
21
-5.4833426377952756
0
LINE
8
BLACK
6
CONTINUOUS
10
8.2757625196850384
20
-5.485235708661417
11
8.2758360236220465
21
-5.6053891338582673
0
LINE
8
BLACK
6
CONTINUOUS
10
8.2758360236220465
20
-5.6053891338582673
11
8.4117374409448811
21
-5.6053154330708663
0
LINE
8
BLACK
6
CONTINUOUS
10
8.4117374409448811
20
-5.6053154330708663
11
8.411663937007873
21
-5.485162007874016
0
LINE
8
BLACK
6
CONTINUOUS
10
8.411663937007873
20
-5.485162007874016
11
8.2757625196850384
21
-5.485235708661417
0
LINE
8
BLACK
6
CONTINUOUS
10
9.3505242913385818
20
-5.4833426377952756
11
9.3510569685039364
21
-5.4838753149606294
0
LINE
8
BLACK
6
CONTINUOUS
10
9.3510569685039364
20
-5.4838753149606294
11
9.3511318897637796
21
-5.606299212598425
0
LINE
8
BLACK
6
CONTINUOUS
10
9.3511318897637796
20
-5.606299212598425
11
9.3510569685039364
21
-5.6066758661417317
0
LINE
8
BLACK
6
CONTINUOUS
10
9.3510569685039364
20
-5.6066758661417317
11
9.3505242913385818
21
-5.6072085433070864
0
LINE
8
BLACK
6
CONTINUOUS
10
9.3505242913385818
20
-5.6072085433070864
11
9.2123523622047241
21
-5.6072834645669287
0
LINE
8
BLACK
6
CONTINUOUS
10
9.2123523622047241
20
-5.6072834645669287
11
9.2119757086614165
21
-5.6072085433070864
0
LINE
8
BLACK
6
CONTINUOUS
10
9.2119757086614165
20
-5.6072085433070864
11
9.2114430314960636
21
-5.6066758661417317
0
LINE
8
BLACK
6
CONTINUOUS
10
9.2114430314960636
20
-5.6066758661417317
11
9.2113681102362204
21
-5.484251968503937
0
LINE
8
BLACK
6
CONTINUOUS
10
9.2113681102362204
20
-5.484251968503937
11
9.2114430314960636
21
-5.4838753149606294
0
LINE
8
BLACK
6
CONTINUOUS
10
9.2114430314960636
20
-5.4838753149606294
11
9.2119757086614165
21
-5.4833426377952756
0
LINE
8
BLACK
6
CONTINUOUS
10
9.2119757086614165
20
-5.4833426377952756
11
9.3501476377952759
21
-5.4832677165354333
0
LINE
8
BLACK
6
CONTINUOUS
10
9.3501476377952759
20
-5.4832677165354333
11
9.3505242913385818
21
-5.4833426377952756
0
LINE
8
BLACK
6
CONTINUOUS
10
9.2132625196850384
20
-5.485235708661417
11
9.2133360236220465
21
-5.6053891338582673
0
LINE
8
BLACK
6
CONTINUOUS
10
9.2133360236220465
20
-5.6053891338582673
11
9.3492374409448811
21
-5.6053154330708663
0
LINE
8
BLACK
6
CONTINUOUS
10
9.3492374409448811
20
-5.6053154330708663
11
9.349163937007873
21
-5.485162007874016
0
LINE
8
BLACK
6
CONTINUOUS
10
9.349163937007873
20
-5.485162007874016
11
9.2132625196850384
21
-5.485235708661417
0
LINE
8
BLACK
6
CONTINUOUS
10
10.2880242913385818
20
-5.4833426377952756
11
10.2885569685039364
21
-5.4838753149606294
0
LINE
8
BLACK
6
CONTINUOUS
10
10.2885569685039364
20
-5.4838753149606294
11
10.2886318897637796
21
-5.606299212598425
0
LINE
8
BLACK
6
CONTINUOUS
10
10.2886318897637796
20
-5.606299212598425
11
10.2885569685039364
21
-5.6066758661417317
0
LINE
8
BLACK
6
CONTINUOUS
10
10.2885569685039364
20
-5.6066758661417317
11
10.2880242913385818
21
-5.6072085433070864
0
LINE
8
BLACK
6
CONTINUOUS
10
10.2880242913385818
20
-5.6072085433070864
11
10.1498523622047241
21
-5.6072834645669287
0
LINE
8
BLACK
6
CONTINUOUS
10
10.1498523622047241
20
-5.6072834645669287
11
10.1494757086614165
21
-5.6072085433070864
0
LINE
8
BLACK
6
CONTINUOUS
10
10.1494757086614165
20
-5.6072085433070864
11
10.1489430314960636
21
-5.6066758661417317
0
LINE
8
BLACK
6
CONTINUOUS
10
10.1489430314960636
20
-5.6066758661417317
11
10.1488681102362204
21
-5.484251968503937
0
LINE
8
BLACK
6
CONTINUOUS
10
10.1488681102362204
20
-5.484251968503937
11
10.1489430314960636
21
-5.4838753149606294
0
LINE
8
BLACK
6
CONTINUOUS
10
10.1489430314960636
20
-5.4838753149606294
11
10.1494757086614165
21
-5.4833426377952756
0
LINE
8
BLACK
6
CONTINUOUS
10
10.1494757086614165
20
-5.4833426377952756
11
10.2876476377952759
21
-5.4832677165354333
0
LINE
8
BLACK
6
CONTINUOUS
10
10.2876476377952759
20
-5.4832677165354333
11
10.2880242913385818
21
-5.4833426377952756
0
LINE
8
BLACK
6
CONTINUOUS
10
10.1507625196850384
20
-5.485235708661417
11
10.1508360236220465
21
-5.6053891338582673
0
LINE
8
BLACK
6
CONTINUOUS
10
10.1508360236220465
20
-5.6053891338582673
11
10.2867374409448811
21
-5.6053154330708663
0
LINE
8
BLACK
6
CONTINUOUS
10
10.2867374409448811
20
-5.6053154330708663
11
10.286663937007873
21
-5.485162007874016
0
LINE
8
BLACK
6
CONTINUOUS
10
10.286663937007873
20
-5.485162007874016
11
10.1507625196850384
21
-5.485235708661417
0
LINE
8
BLACK
6
CONTINUOUS
10
13.8692742913385825
20
-5.4833426377952756
11
13.8698069685039371
21
-5.4838753149606294
0
LINE
8
BLACK
6
CONTINUOUS
10
13.8698069685039371
20
-5.4838753149606294
11
13.8698818897637786
21
-5.606299212598425
0
LINE
8
BLACK
6
CONTINUOUS
10
13.8698818897637786
20
-5.606299212598425
11
13.8698069685039371
21
-5.6066758661417317
0
LINE
8
BLACK
6
CONTINUOUS
10
13.8698069685039371
20
-5.6066758661417317
11
13.8692742913385825
21
-5.6072085433070864
0
LINE
8
BLACK
6
CONTINUOUS
10
13.8692742913385825
20
-5.6072085433070864
11
13.7311023622047248
21
-5.6072834645669287
0
LINE
8
BLACK
6
CONTINUOUS
10
13.7311023622047248
20
-5.6072834645669287
11
13.7307257086614172
21
-5.6072085433070864
0
LINE
8
BLACK
6
CONTINUOUS
10
13.7307257086614172
20
-5.6072085433070864
11
13.7301930314960625
21
-5.6066758661417317
0
LINE
8
BLACK
6
CONTINUOUS
10
13.7301930314960625
20
-5.6066758661417317
11
13.7301181102362193
21
-5.484251968503937
0
LINE
8
BLACK
6
CONTINUOUS
10
13.7301181102362193
20
-5.484251968503937
11
13.7301930314960625
21
-5.4838753149606294
0
LINE
8
BLACK
6
CONTINUOUS
10
13.7301930314960625
20
-5.4838753149606294
11
13.7307257086614172
21
-5.4833426377952756
0
LINE
8
BLACK
6
CONTINUOUS
10
13.7307257086614172
20
-5.4833426377952756
11
13.8688976377952748
21
-5.4832677165354333
0
LINE
8
BLACK
6
CONTINUOUS
10
13.8688976377952748
20
-5.4832677165354333
11
13.8692742913385825
21
-5.4833426377952756
0
LINE
8
BLACK
6
CONTINUOUS
10
13.7320125196850391
20
-5.485235708661417
11
13.7320860236220472
21
-5.6053891338582673
0
LINE
8
BLACK
6
CONTINUOUS
10
13.7320860236220472
20
-5.6053891338582673
11
13.8679874409448818
21
-5.6053154330708663
0
LINE
8
BLACK
6
CONTINUOUS
10
13.8679874409448818
20
-5.6053154330708663
11
13.8679139370078737
21
-5.485162007874016
0
LINE
8
BLACK
6
CONTINUOUS
10
13.8679139370078737
20
-5.485162007874016
11
13.7320125196850391
21
-5.485235708661417
0
LINE
8
BLACK
6
CONTINUOUS
10
14.6192742913385825
20
-5.4833426377952756
11
14.6198069685039371
21
-5.4838753149606294
0
LINE
8
BLACK
6
CONTINUOUS
10
14.6198069685039371
20
-5.4838753149606294
11
14.6198818897637786
21
-5.606299212598425
0
LINE
8
BLACK
6
CONTINUOUS
10
14.6198818897637786
20
-5.606299212598425
11
14.6198069685039371
21
-5.6066758661417317
0
LINE
8
BLACK
6
CONTINUOUS
10
14.6198069685039371
20
-5.6066758661417317
11
14.6192742913385825
21
-5.6072085433070864
0
LINE
8
BLACK
6
CONTINUOUS
10
14.6192742913385825
20
-5.6072085433070864
11
14.4811023622047248
21
-5.6072834645669287
0
LINE
8
BLACK
6
CONTINUOUS
10
14.4811023622047248
20
-5.6072834645669287
11
14.4807257086614172
21
-5.6072085433070864
0
LINE
8
BLACK
6
CONTINUOUS
10
14.4807257086614172
20
-5.6072085433070864
11
14.4801930314960625
21
-5.6066758661417317
0
LINE
8
BLACK
6
CONTINUOUS
10
14.4801930314960625
20
-5.6066758661417317
11
14.4801181102362193
21
-5.484251968503937
0
LINE
8
BLACK
6
CONTINUOUS
10
14.4801181102362193
20
-5.484251968503937
11
14.4801930314960625
21
-5.4838753149606294
0
LINE
8
BLACK
6
CONTINUOUS
10
14.4801930314960625
20
-5.4838753149606294
11
14.4807257086614172
21
-5.4833426377952756
0
LINE
8
BLACK
6
CONTINUOUS
10
14.4807257086614172
20
-5.4833426377952756
11
14.6188976377952748
21
-5.4832677165354333
0
LINE
8
BLACK
6
CONTINUOUS
10
14.6188976377952748
20
-5.4832677165354333
11
14.6192742913385825
21
-5.4833426377952756
0
LINE
8
BLACK
6
CONTINUOUS
10
14.4820125196850391
20
-5.485235708661417
11
14.4820860236220472
21
-5.6053891338582673
0
LINE
8
BLACK
6
CONTINUOUS
10
14.4820860236220472
20
-5.6053891338582673
11
14.6179874409448818
21
-5.6053154330708663
0
LINE
8
BLACK
6
CONTINUOUS
10
14.6179874409448818
20
-5.6053154330708663
11
14.6179139370078737
21
-5.485162007874016
0
LINE
8
BLACK
6
CONTINUOUS
10
14.6179139370078737
20
-5.485162007874016
11
14.4820125196850391
21
-5.485235708661417
0
LINE
8
BLACK
6
CONTINUOUS
10
13.4306722834645669
20
-4.8067192913385828
11
13.435873110236221
21
-4.8085391338582673
0
LINE
8
BLACK
6
CONTINUOUS
10
13.435873110236221
20
-4.8085391338582673
11
13.440538622047244
21
-4.8114706692913387
0
LINE
8
BLACK
6
CONTINUOUS
10
13.440538622047244
20
-4.8114706692913387
11
13.4444348425196853
21
-4.8153668897637791
0
LINE
8
BLACK
6
CONTINUOUS
10
13.4444348425196853
20
-4.8153668897637791
11
13.4473663779527559
21
-4.8200324015748031
0
LINE
8
BLACK
6
CONTINUOUS
10
13.4473663779527559
20
-4.8200324015748031
11
13.4491862204724413
21
-4.8252332283464563
0
LINE
8
BLACK
6
CONTINUOUS
10
13.4491862204724413
20
-4.8252332283464563
11
13.4498031496062982
21
-4.8307086614173231
0
LINE
8
BLACK
6
CONTINUOUS
10
13.4498031496062982
20
-4.8307086614173231
11
13.449728346456693
21
-4.8309387795275587
0
LINE
8
BLACK
6
CONTINUOUS
10
13.449728346456693
20
-4.8309387795275587
11
13.4498031496062982
21
-5.1692913385826769
0
LINE
8
BLACK
6
CONTINUOUS
10
13.4498031496062982
20
-5.1692913385826769
11
13.4491862204724413
21
-5.1747667716535428
0
LINE
8
BLACK
6
CONTINUOUS
10
13.4491862204724413
20
-5.1747667716535428
11
13.4473663779527559
21
-5.1799675984251969
0
LINE
8
BLACK
6
CONTINUOUS
10
13.4473663779527559
20
-5.1799675984251969
11
13.4444348425196853
21
-5.18463311023622
0
LINE
8
BLACK
6
CONTINUOUS
10
13.4444348425196853
20
-5.18463311023622
11
13.440538622047244
21
-5.1885293307086613
0
LINE
8
BLACK
6
CONTINUOUS
10
13.440538622047244
20
-5.1885293307086613
11
13.435873110236221
21
-5.1914608661417319
0
LINE
8
BLACK
6
CONTINUOUS
10
13.435873110236221
20
-5.1914608661417319
11
13.4306722834645669
21
-5.1932807086614172
0
LINE
8
BLACK
6
CONTINUOUS
10
13.4306722834645669
20
-5.1932807086614172
11
13.4251968503937
21
-5.1938976377952759
0
LINE
8
BLACK
6
CONTINUOUS
10
13.4251968503937
20
-5.1938976377952759
11
13.419721417322835
21
-5.1932807086614172
0
LINE
8
BLACK
6
CONTINUOUS
10
13.419721417322835
20
-5.1932807086614172
11
13.4145205905511808
21
-5.1914608661417319
0
LINE
8
BLACK
6
CONTINUOUS
10
13.4145205905511808
20
-5.1914608661417319
11
13.4098550787401578
21
-5.1885293307086613
0
LINE
8
BLACK
6
CONTINUOUS
10
13.4098550787401578
20
-5.1885293307086613
11
13.4059588582677165
21
-5.18463311023622
0
LINE
8
BLACK
6
CONTINUOUS
10
13.4059588582677165
20
-5.18463311023622
11
13.4030273228346459
21
-5.1799675984251969
0
LINE
8
BLACK
6
CONTINUOUS
10
13.4030273228346459
20
-5.1799675984251969
11
13.4012074803149606
21
-5.1747667716535428
0
LINE
8
BLACK
6
CONTINUOUS
10
13.4012074803149606
20
-5.1747667716535428
11
13.4005905511811019
21
-5.1692913385826769
0
LINE
8
BLACK
6
CONTINUOUS
10
13.4005905511811019
20
-5.1692913385826769
11
13.4006653149606301
21
-5.1690611811023617
0
LINE
8
BLACK
6
CONTINUOUS
10
13.4006653149606301
20
-5.1690611811023617
11
13.4005905511811019
21
-4.8307086614173231
0
LINE
8
BLACK
6
CONTINUOUS
10
13.4005905511811019
20
-4.8307086614173231
11
13.4012074803149606
21
-4.8252332283464563
0
LINE
8
BLACK
6
CONTINUOUS
10
13.4012074803149606
20
-4.8252332283464563
11
13.4030273228346459
21
-4.8200324015748031
0
LINE
8
BLACK
6
CONTINUOUS
10
13.4030273228346459
20
-4.8200324015748031
11
13.4059588582677165
21
-4.8153668897637791
0
LINE
8
BLACK
6
CONTINUOUS
10
13.4059588582677165
20
-4.8153668897637791
11
13.4098550787401578
21
-4.8114706692913387
0
LINE
8
BLACK
6
CONTINUOUS
10
13.4098550787401578
20
-4.8114706692913387
11
13.4145205905511808
21
-4.8085391338582673
0
LINE
8
BLACK
6
CONTINUOUS
10
13.4145205905511808
20
-4.8085391338582673
11
13.419721417322835
21
-4.8067192913385828
0
LINE
8
BLACK
6
CONTINUOUS
10
13.419721417322835
20
-4.8067192913385828
11
13.4251968503937
21
-4.8061023622047241
0
LINE
8
BLACK
6
CONTINUOUS
10
13.4251968503937
20
-4.8061023622047241
11
13.4306722834645669
21
-4.8067192913385828
0
LINE
8
BLACK
6
CONTINUOUS
10
13.4226461811023619
20
-4.8080708661417324
11
13.417672755905512
21
-4.8092060236220471
0
LINE
8
BLACK
6
CONTINUOUS
10
13.417672755905512
20
-4.8092060236220471
11
13.4130766141732281
21
-4.8114194094488187
0
LINE
8
BLACK
6
CONTINUOUS
10
13.4130766141732281
20
-4.8114194094488187
11
13.409088228346457
21
-4.8146000393700783
0
LINE
8
BLACK
6
CONTINUOUS
10
13.409088228346457
20
-4.8146000393700783
11
13.4059075984251965
21
-4.8185884251968503
0
LINE
8
BLACK
6
CONTINUOUS
10
13.4059075984251965
20
-4.8185884251968503
11
13.4036942125984258
21
-4.8231845669291333
0
LINE
8
BLACK
6
CONTINUOUS
10
13.4036942125984258
20
-4.8231845669291333
11
13.4025590551181093
21
-4.8281579921259841
0
LINE
8
BLACK
6
CONTINUOUS
10
13.4025590551181093
20
-4.8281579921259841
11
13.4025590551181093
21
-4.8307086614173231
0
LINE
8
BLACK
6
CONTINUOUS
10
13.4025590551181093
20
-4.8307086614173231
11
13.4024842519685041
21
-4.8309387795275587
0
LINE
8
BLACK
6
CONTINUOUS
10
13.4024842519685041
20
-4.8309387795275587
11
13.4025590551181093
21
-5.1692913385826769
0
LINE
8
BLACK
6
CONTINUOUS
10
13.4025590551181093
20
-5.1692913385826769
11
13.4025590551181093
21
-5.1718420078740159
0
LINE
8
BLACK
6
CONTINUOUS
10
13.4025590551181093
20
-5.1718420078740159
11
13.4036942125984258
21
-5.1768154330708658
0
LINE
8
BLACK
6
CONTINUOUS
10
13.4036942125984258
20
-5.1768154330708658
11
13.4059075984251965
21
-5.1814115748031497
0
LINE
8
BLACK
6
CONTINUOUS
10
13.4059075984251965
20
-5.1814115748031497
11
13.409088228346457
21
-5.1853999606299208
0
LINE
8
BLACK
6
CONTINUOUS
10
13.409088228346457
20
-5.1853999606299208
11
13.4130766141732281
21
-5.1885805905511813
0
LINE
8
BLACK
6
CONTINUOUS
10
13.4130766141732281
20
-5.1885805905511813
11
13.417672755905512
21
-5.1907939763779529
0
LINE
8
BLACK
6
CONTINUOUS
10
13.417672755905512
20
-5.1907939763779529
11
13.4226461811023619
21
-5.1919291338582676
0
LINE
8
BLACK
6
CONTINUOUS
10
13.4226461811023619
20
-5.1919291338582676
11
13.4251968503937
21
-5.1919291338582676
0
LINE
8
BLACK
6
CONTINUOUS
10
13.4251968503937
20
-5.1919291338582676
11
13.4277475196850382
21
-5.1919291338582676
0
LINE
8
BLACK
6
CONTINUOUS
10
13.4277475196850382
20
-5.1919291338582676
11
13.4327209448818898
21
-5.1907939763779529
0
LINE
8
BLACK
6
CONTINUOUS
10
13.4327209448818898
20
-5.1907939763779529
11
13.4373170866141738
21
-5.1885805905511813
0
LINE
8
BLACK
6
CONTINUOUS
10
13.4373170866141738
20
-5.1885805905511813
11
13.4413054724409449
21
-5.1853999606299208
0
LINE
8
BLACK
6
CONTINUOUS
10
13.4413054724409449
20
-5.1853999606299208
11
13.4444861023622035
21
-5.1814115748031497
0
LINE
8
BLACK
6
CONTINUOUS
10
13.4444861023622035
20
-5.1814115748031497
11
13.4466994881889761
21
-5.1768154330708658
0
LINE
8
BLACK
6
CONTINUOUS
10
13.4466994881889761
20
-5.1768154330708658
11
13.4478346456692908
21
-5.1718420078740159
0
LINE
8
BLACK
6
CONTINUOUS
10
13.4478346456692908
20
-5.1718420078740159
11
13.4478346456692908
21
-5.1692913385826769
0
LINE
8
BLACK
6
CONTINUOUS
10
13.4478346456692908
20
-5.1692913385826769
11
13.447909409448819
21
-5.1690611811023617
0
LINE
8
BLACK
6
CONTINUOUS
10
13.447909409448819
20
-5.1690611811023617
11
13.4478346456692908
21
-4.8307086614173231
0
LINE
8
BLACK
6
CONTINUOUS
10
13.4478346456692908
20
-4.8307086614173231
11
13.4478346456692908
21
-4.8281579921259841
0
LINE
8
BLACK
6
CONTINUOUS
10
13.4478346456692908
20
-4.8281579921259841
11
13.4466994881889761
21
-4.8231845669291333
0
LINE
8
BLACK
6
CONTINUOUS
10
13.4466994881889761
20
-4.8231845669291333
11
13.4444861023622035
21
-4.8185884251968503
0
LINE
8
BLACK
6
CONTINUOUS
10
13.4444861023622035
20
-4.8185884251968503
11
13.4413054724409449
21
-4.8146000393700783
0
LINE
8
BLACK
6
CONTINUOUS
10
13.4413054724409449
20
-4.8146000393700783
11
13.4373170866141738
21
-4.8114194094488187
0
LINE
8
BLACK
6
CONTINUOUS
10
13.4373170866141738
20
-4.8114194094488187
11
13.4327209448818898
21
-4.8092060236220471
0
LINE
8
BLACK
6
CONTINUOUS
10
13.4327209448818898
20
-4.8092060236220471
11
13.4277475196850382
21
-4.8080708661417324
0
LINE
8
BLACK
6
CONTINUOUS
10
13.4277475196850382
20
-4.8080708661417324
11
13.4251968503937
21
-4.8080708661417324
0
LINE
8
BLACK
6
CONTINUOUS
10
13.4251968503937
20
-4.8080708661417324
11
13.4226461811023619
21
-4.8080708661417324
0
LINE
8
BLACK
6
CONTINUOUS
10
12.2192742913385821
20
-4.8833426377952751
11
12.2198069685039368
21
-4.8838753149606298
0
LINE
8
BLACK
6
CONTINUOUS
10
12.2198069685039368
20
-4.8838753149606298
11
12.21988188976378
21
-5.0062992125984254
0
LINE
8
BLACK
6
CONTINUOUS
10
12.21988188976378
20
-5.0062992125984254
11
12.2198069685039368
21
-5.0066758661417321
0
LINE
8
BLACK
6
CONTINUOUS
10
12.2198069685039368
20
-5.0066758661417321
11
12.2192742913385821
21
-5.0072085433070868
0
LINE
8
BLACK
6
CONTINUOUS
10
12.2192742913385821
20
-5.0072085433070868
11
12.0811023622047244
21
-5.0072834645669291
0
LINE
8
BLACK
6
CONTINUOUS
10
12.0811023622047244
20
-5.0072834645669291
11
12.0807257086614168
21
-5.0072085433070868
0
LINE
8
BLACK
6
CONTINUOUS
10
12.0807257086614168
20
-5.0072085433070868
11
12.0801930314960622
21
-5.0066758661417321
0
LINE
8
BLACK
6
CONTINUOUS
10
12.0801930314960622
20
-5.0066758661417321
11
12.0801181102362207
21
-4.8842519685039365
0
LINE
8
BLACK
6
CONTINUOUS
10
12.0801181102362207
20
-4.8842519685039365
11
12.0801930314960622
21
-4.8838753149606298
0
LINE
8
BLACK
6
CONTINUOUS
10
12.0801930314960622
20
-4.8838753149606298
11
12.0807257086614168
21
-4.8833426377952751
0
LINE
8
BLACK
6
CONTINUOUS
10
12.0807257086614168
20
-4.8833426377952751
11
12.2188976377952745
21
-4.8832677165354328
0
LINE
8
BLACK
6
CONTINUOUS
10
12.2188976377952745
20
-4.8832677165354328
11
12.2192742913385821
21
-4.8833426377952751
0
LINE
8
BLACK
6
CONTINUOUS
10
12.0820125196850388
20
-4.8852357086614173
11
12.0820860236220469
21
-5.0053891338582677
0
LINE
8
BLACK
6
CONTINUOUS
10
12.0820860236220469
20
-5.0053891338582677
11
12.2179874409448814
21
-5.0053154330708658
0
LINE
8
BLACK
6
CONTINUOUS
10
12.2179874409448814
20
-5.0053154330708658
11
12.2179139370078733
21
-4.8851620078740154
0
LINE
8
BLACK
6
CONTINUOUS
10
12.2179139370078733
20
-4.8851620078740154
11
12.0820125196850388
21
-4.8852357086614173
0
LINE
8
BLACK
6
CONTINUOUS
10
3.0692742913385826
20
-4.7333426377952756
11
3.0698069685039369
21
-4.7338753149606294
0
LINE
8
BLACK
6
CONTINUOUS
10
3.0698069685039369
20
-4.7338753149606294
11
3.0698818897637796
21
-4.856299212598425
0
LINE
8
BLACK
6
CONTINUOUS
10
3.0698818897637796
20
-4.856299212598425
11
3.0698069685039369
21
-4.8566758661417317
0
LINE
8
BLACK
6
CONTINUOUS
10
3.0698069685039369
20
-4.8566758661417317
11
3.0692742913385826
21
-4.8572085433070864
0
LINE
8
BLACK
6
CONTINUOUS
10
3.0692742913385826
20
-4.8572085433070864
11
2.9311023622047245
21
-4.8572834645669287
0
LINE
8
BLACK
6
CONTINUOUS
10
2.9311023622047245
20
-4.8572834645669287
11
2.9307257086614174
21
-4.8572085433070864
0
LINE
8
BLACK
6
CONTINUOUS
10
2.9307257086614174
20
-4.8572085433070864
11
2.9301930314960631
21
-4.8566758661417317
0
LINE
8
BLACK
6
CONTINUOUS
10
2.9301930314960631
20
-4.8566758661417317
11
2.9301181102362204
21
-4.734251968503937
0
LINE
8
BLACK
6
CONTINUOUS
10
2.9301181102362204
20
-4.734251968503937
11
2.9301930314960631
21
-4.7338753149606294
0
LINE
8
BLACK
6
CONTINUOUS
10
2.9301930314960631
20
-4.7338753149606294
11
2.9307257086614174
21
-4.7333426377952756
0
LINE
8
BLACK
6
CONTINUOUS
10
2.9307257086614174
20
-4.7333426377952756
11
3.0688976377952755
21
-4.7332677165354333
0
LINE
8
BLACK
6
CONTINUOUS
10
3.0688976377952755
20
-4.7332677165354333
11
3.0692742913385826
21
-4.7333426377952756
0
LINE
8
BLACK
6
CONTINUOUS
10
2.9320125196850393
20
-4.735235708661417
11
2.9320860236220474
21
-4.8553891338582673
0
LINE
8
BLACK
6
CONTINUOUS
10
2.9320860236220474
20
-4.8553891338582673
11
3.067987440944882
21
-4.8553154330708663
0
LINE
8
BLACK
6
CONTINUOUS
10
3.067987440944882
20
-4.8553154330708663
11
3.0679139370078738
21
-4.735162007874016
0
LINE
8
BLACK
6
CONTINUOUS
10
3.0679139370078738
20
-4.735162007874016
11
2.9320125196850393
21
-4.735235708661417
0
LINE
8
BLACK
6
CONTINUOUS
10
3.8192742913385826
20
-4.7333426377952756
11
3.8198069685039369
21
-4.7338753149606294
0
LINE
8
BLACK
6
CONTINUOUS
10
3.8198069685039369
20
-4.7338753149606294
11
3.8198818897637796
21
-4.856299212598425
0
LINE
8
BLACK
6
CONTINUOUS
10
3.8198818897637796
20
-4.856299212598425
11
3.8198069685039369
21
-4.8566758661417317
0
LINE
8
BLACK
6
CONTINUOUS
10
3.8198069685039369
20
-4.8566758661417317
11
3.8192742913385826
21
-4.8572085433070864
0
LINE
8
BLACK
6
CONTINUOUS
10
3.8192742913385826
20
-4.8572085433070864
11
3.6811023622047245
21
-4.8572834645669287
0
LINE
8
BLACK
6
CONTINUOUS
10
3.6811023622047245
20
-4.8572834645669287
11
3.6807257086614174
21
-4.8572085433070864
0
LINE
8
BLACK
6
CONTINUOUS
10
3.6807257086614174
20
-4.8572085433070864
11
3.6801930314960627
21
-4.8566758661417317
0
LINE
8
BLACK
6
CONTINUOUS
10
3.6801930314960627
20
-4.8566758661417317
11
3.6801181102362204
21
-4.734251968503937
0
LINE
8
BLACK
6
CONTINUOUS
10
3.6801181102362204
20
-4.734251968503937
11
3.6801930314960627
21
-4.7338753149606294
0
LINE
8
BLACK
6
CONTINUOUS
10
3.6801930314960627
20
-4.7338753149606294
11
3.6807257086614174
21
-4.7333426377952756
0
LINE
8
BLACK
6
CONTINUOUS
10
3.6807257086614174
20
-4.7333426377952756
11
3.8188976377952755
21
-4.7332677165354333
0
LINE
8
BLACK
6
CONTINUOUS
10
3.8188976377952755
20
-4.7332677165354333
11
3.8192742913385826
21
-4.7333426377952756
0
LINE
8
BLACK
6
CONTINUOUS
10
3.6820125196850393
20
-4.735235708661417
11
3.682086023622047
21
-4.8553891338582673
0
LINE
8
BLACK
6
CONTINUOUS
10
3.682086023622047
20
-4.8553891338582673
11
3.817987440944882
21
-4.8553154330708663
0
LINE
8
BLACK
6
CONTINUOUS
10
3.817987440944882
20
-4.8553154330708663
11
3.8179139370078738
21
-4.735162007874016
0
LINE
8
BLACK
6
CONTINUOUS
10
3.8179139370078738
20
-4.735162007874016
11
3.6820125196850393
21
-4.735235708661417
0
LINE
8
BLACK
6
CONTINUOUS
10
4.5692742913385826
20
-4.7333426377952756
11
4.5698069685039373
21
-4.7338753149606294
0
LINE
8
BLACK
6
CONTINUOUS
10
4.5698069685039373
20
-4.7338753149606294
11
4.5698818897637796
21
-4.856299212598425
0
LINE
8
BLACK
6
CONTINUOUS
10
4.5698818897637796
20
-4.856299212598425
11
4.5698069685039373
21
-4.8566758661417317
0
LINE
8
BLACK
6
CONTINUOUS
10
4.5698069685039373
20
-4.8566758661417317
11
4.5692742913385826
21
-4.8572085433070864
0
LINE
8
BLACK
6
CONTINUOUS
10
4.5692742913385826
20
-4.8572085433070864
11
4.4311023622047241
21
-4.8572834645669287
0
LINE
8
BLACK
6
CONTINUOUS
10
4.4311023622047241
20
-4.8572834645669287
11
4.4307257086614174
21
-4.8572085433070864
0
LINE
8
BLACK
6
CONTINUOUS
10
4.4307257086614174
20
-4.8572085433070864
11
4.4301930314960627
21
-4.8566758661417317
0
LINE
8
BLACK
6
CONTINUOUS
10
4.4301930314960627
20
-4.8566758661417317
11
4.4301181102362204
21
-4.734251968503937
0
LINE
8
BLACK
6
CONTINUOUS
10
4.4301181102362204
20
-4.734251968503937
11
4.4301930314960627
21
-4.7338753149606294
0
LINE
8
BLACK
6
CONTINUOUS
10
4.4301930314960627
20
-4.7338753149606294
11
4.4307257086614174
21
-4.7333426377952756
0
LINE
8
BLACK
6
CONTINUOUS
10
4.4307257086614174
20
-4.7333426377952756
11
4.5688976377952759
21
-4.7332677165354333
0
LINE
8
BLACK
6
CONTINUOUS
10
4.5688976377952759
20
-4.7332677165354333
11
4.5692742913385826
21
-4.7333426377952756
0
LINE
8
BLACK
6
CONTINUOUS
10
4.4320125196850393
20
-4.735235708661417
11
4.4320860236220474
21
-4.8553891338582673
0
LINE
8
BLACK
6
CONTINUOUS
10
4.4320860236220474
20
-4.8553891338582673
11
4.567987440944882
21
-4.8553154330708663
0
LINE
8
BLACK
6
CONTINUOUS
10
4.567987440944882
20
-4.8553154330708663
11
4.5679139370078738
21
-4.735162007874016
0
LINE
8
BLACK
6
CONTINUOUS
10
4.5679139370078738
20
-4.735162007874016
11
4.4320125196850393
21
-4.735235708661417
0
LINE
8
BLACK
6
CONTINUOUS
10
5.3192742913385826
20
-4.7333426377952756
11
5.3198069685039373
21
-4.7338753149606294
0
LINE
8
BLACK
6
CONTINUOUS
10
5.3198069685039373
20
-4.7338753149606294
11
5.3198818897637796
21
-4.856299212598425
0
LINE
8
BLACK
6
CONTINUOUS
10
5.3198818897637796
20
-4.856299212598425
11
5.3198069685039373
21
-4.8566758661417317
0
LINE
8
BLACK
6
CONTINUOUS
10
5.3198069685039373
20
-4.8566758661417317
11
5.3192742913385826
21
-4.8572085433070864
0
LINE
8
BLACK
6
CONTINUOUS
10
5.3192742913385826
20
-4.8572085433070864
11
5.1811023622047241
21
-4.8572834645669287
0
LINE
8
BLACK
6
CONTINUOUS
10
5.1811023622047241
20
-4.8572834645669287
11
5.1807257086614174
21
-4.8572085433070864
0
LINE
8
BLACK
6
CONTINUOUS
10
5.1807257086614174
20
-4.8572085433070864
11
5.1801930314960627
21
-4.8566758661417317
0
LINE
8
BLACK
6
CONTINUOUS
10
5.1801930314960627
20
-4.8566758661417317
11
5.1801181102362204
21
-4.734251968503937
0
LINE
8
BLACK
6
CONTINUOUS
10
5.1801181102362204
20
-4.734251968503937
11
5.1801930314960627
21
-4.7338753149606294
0
LINE
8
BLACK
6
CONTINUOUS
10
5.1801930314960627
20
-4.7338753149606294
11
5.1807257086614174
21
-4.7333426377952756
0
LINE
8
BLACK
6
CONTINUOUS
10
5.1807257086614174
20
-4.7333426377952756
11
5.3188976377952759
21
-4.7332677165354333
0
LINE
8
BLACK
6
CONTINUOUS
10
5.3188976377952759
20
-4.7332677165354333
11
5.3192742913385826
21
-4.7333426377952756
0
LINE
8
BLACK
6
CONTINUOUS
10
5.1820125196850393
20
-4.735235708661417
11
5.1820860236220474
21
-4.8553891338582673
0
LINE
8
BLACK
6
CONTINUOUS
10
5.1820860236220474
20
-4.8553891338582673
11
5.317987440944882
21
-4.8553154330708663
0
LINE
8
BLACK
6
CONTINUOUS
10
5.317987440944882
20
-4.8553154330708663
11
5.3179139370078738
21
-4.735162007874016
0
LINE
8
BLACK
6
CONTINUOUS
10
5.3179139370078738
20
-4.735162007874016
11
5.1820125196850393
21
-4.735235708661417
0
LINE
8
BLACK
6
CONTINUOUS
10
6.0692742913385826
20
-4.7333426377952756
11
6.0698069685039373
21
-4.7338753149606294
0
LINE
8
BLACK
6
CONTINUOUS
10
6.0698069685039373
20
-4.7338753149606294
11
6.0698818897637796
21
-4.856299212598425
0
LINE
8
BLACK
6
CONTINUOUS
10
6.0698818897637796
20
-4.856299212598425
11
6.0698069685039373
21
-4.8566758661417317
0
LINE
8
BLACK
6
CONTINUOUS
10
6.0698069685039373
20
-4.8566758661417317
11
6.0692742913385826
21
-4.8572085433070864
0
LINE
8
BLACK
6
CONTINUOUS
10
6.0692742913385826
20
-4.8572085433070864
11
5.9311023622047241
21
-4.8572834645669287
0
LINE
8
BLACK
6
CONTINUOUS
10
5.9311023622047241
20
-4.8572834645669287
11
5.9307257086614174
21
-4.8572085433070864
0
LINE
8
BLACK
6
CONTINUOUS
10
5.9307257086614174
20
-4.8572085433070864
11
5.9301930314960627
21
-4.8566758661417317
0
LINE
8
BLACK
6
CONTINUOUS
10
5.9301930314960627
20
-4.8566758661417317
11
5.9301181102362204
21
-4.734251968503937
0
LINE
8
BLACK
6
CONTINUOUS
10
5.9301181102362204
20
-4.734251968503937
11
5.9301930314960627
21
-4.7338753149606294
0
LINE
8
BLACK
6
CONTINUOUS
10
5.9301930314960627
20
-4.7338753149606294
11
5.9307257086614174
21
-4.7333426377952756
0
LINE
8
BLACK
6
CONTINUOUS
10
5.9307257086614174
20
-4.7333426377952756
11
6.068897637795275
21
-4.7332677165354333
0
LINE
8
BLACK
6
CONTINUOUS
10
6.068897637795275
20
-4.7332677165354333
11
6.0692742913385826
21
-4.7333426377952756
0
LINE
8
BLACK
6
CONTINUOUS
10
5.9320125196850393
20
-4.735235708661417
11
5.9320860236220474
21
-4.8553891338582673
0
LINE
8
BLACK
6
CONTINUOUS
10
5.9320860236220474
20
-4.8553891338582673
11
6.067987440944882
21
-4.8553154330708663
0
LINE
8
BLACK
6
CONTINUOUS
10
6.067987440944882
20
-4.8553154330708663
11
6.0679139370078738
21
-4.735162007874016
0
LINE
8
BLACK
6
CONTINUOUS
10
6.0679139370078738
20
-4.735162007874016
11
5.9320125196850393
21
-4.735235708661417
0
LINE
8
BLACK
6
CONTINUOUS
10
6.8192742913385826
20
-4.7333426377952756
11
6.8198069685039364
21
-4.7338753149606294
0
LINE
8
BLACK
6
CONTINUOUS
10
6.8198069685039364
20
-4.7338753149606294
11
6.8198818897637796
21
-4.856299212598425
0
LINE
8
BLACK
6
CONTINUOUS
10
6.8198818897637796
20
-4.856299212598425
11
6.8198069685039364
21
-4.8566758661417317
0
LINE
8
BLACK
6
CONTINUOUS
10
6.8198069685039364
20
-4.8566758661417317
11
6.8192742913385826
21
-4.8572085433070864
0
LINE
8
BLACK
6
CONTINUOUS
10
6.8192742913385826
20
-4.8572085433070864
11
6.6811023622047241
21
-4.8572834645669287
0
LINE
8
BLACK
6
CONTINUOUS
10
6.6811023622047241
20
-4.8572834645669287
11
6.6807257086614174
21
-4.8572085433070864
0
LINE
8
BLACK
6
CONTINUOUS
10
6.6807257086614174
20
-4.8572085433070864
11
6.6801930314960627
21
-4.8566758661417317
0
LINE
8
BLACK
6
CONTINUOUS
10
6.6801930314960627
20
-4.8566758661417317
11
6.6801181102362204
21
-4.734251968503937
0
LINE
8
BLACK
6
CONTINUOUS
10
6.6801181102362204
20
-4.734251968503937
11
6.6801930314960627
21
-4.7338753149606294
0
LINE
8
BLACK
6
CONTINUOUS
10
6.6801930314960627
20
-4.7338753149606294
11
6.6807257086614174
21
-4.7333426377952756
0
LINE
8
BLACK
6
CONTINUOUS
10
6.6807257086614174
20
-4.7333426377952756
11
6.818897637795275
21
-4.7332677165354333
0
LINE
8
BLACK
6
CONTINUOUS
10
6.818897637795275
20
-4.7332677165354333
11
6.8192742913385826
21
-4.7333426377952756
0
LINE
8
BLACK
6
CONTINUOUS
10
6.6820125196850393
20
-4.735235708661417
11
6.6820860236220474
21
-4.8553891338582673
0
LINE
8
BLACK
6
CONTINUOUS
10
6.6820860236220474
20
-4.8553891338582673
11
6.817987440944882
21
-4.8553154330708663
0
LINE
8
BLACK
6
CONTINUOUS
10
6.817987440944882
20
-4.8553154330708663
11
6.8179139370078738
21
-4.735162007874016
0
LINE
8
BLACK
6
CONTINUOUS
10
6.8179139370078738
20
-4.735162007874016
11
6.6820125196850393
21
-4.735235708661417
0
LINE
8
BLACK
6
CONTINUOUS
10
7.5692742913385826
20
-4.7333426377952756
11
7.5698069685039364
21
-4.7338753149606294
0
LINE
8
BLACK
6
CONTINUOUS
10
7.5698069685039364
20
-4.7338753149606294
11
7.5698818897637796
21
-4.856299212598425
0
LINE
8
BLACK
6
CONTINUOUS
10
7.5698818897637796
20
-4.856299212598425
11
7.5698069685039364
21
-4.8566758661417317
0
LINE
8
BLACK
6
CONTINUOUS
10
7.5698069685039364
20
-4.8566758661417317
11
7.5692742913385826
21
-4.8572085433070864
0
LINE
8
BLACK
6
CONTINUOUS
10
7.5692742913385826
20
-4.8572085433070864
11
7.4311023622047241
21
-4.8572834645669287
0
LINE
8
BLACK
6
CONTINUOUS
10
7.4311023622047241
20
-4.8572834645669287
11
7.4307257086614174
21
-4.8572085433070864
0
LINE
8
BLACK
6
CONTINUOUS
10
7.4307257086614174
20
-4.8572085433070864
11
7.4301930314960627
21
-4.8566758661417317
0
LINE
8
BLACK
6
CONTINUOUS
10
7.4301930314960627
20
-4.8566758661417317
11
7.4301181102362204
21
-4.734251968503937
0
LINE
8
BLACK
6
CONTINUOUS
10
7.4301181102362204
20
-4.734251968503937
11
7.4301930314960627
21
-4.7338753149606294
0
LINE
8
BLACK
6
CONTINUOUS
10
7.4301930314960627
20
-4.7338753149606294
11
7.4307257086614174
21
-4.7333426377952756
0
LINE
8
BLACK
6
CONTINUOUS
10
7.4307257086614174
20
-4.7333426377952756
11
7.568897637795275
21
-4.7332677165354333
0
LINE
8
BLACK
6
CONTINUOUS
10
7.568897637795275
20
-4.7332677165354333
11
7.5692742913385826
21
-4.7333426377952756
0
LINE
8
BLACK
6
CONTINUOUS
10
7.4320125196850393
20
-4.735235708661417
11
7.4320860236220474
21
-4.8553891338582673
0
LINE
8
BLACK
6
CONTINUOUS
10
7.4320860236220474
20
-4.8553891338582673
11
7.567987440944882
21
-4.8553154330708663
0
LINE
8
BLACK
6
CONTINUOUS
10
7.567987440944882
20
-4.8553154330708663
11
7.5679139370078738
21
-4.735162007874016
0
LINE
8
BLACK
6
CONTINUOUS
10
7.5679139370078738
20
-4.735162007874016
11
7.4320125196850393
21
-4.735235708661417
0
LINE
8
BLACK
6
CONTINUOUS
10
8.3192742913385818
20
-4.7333426377952756
11
8.3198069685039364
21
-4.7338753149606294
0
LINE
8
BLACK
6
CONTINUOUS
10
8.3198069685039364
20
-4.7338753149606294
11
8.3198818897637796
21
-4.856299212598425
0
LINE
8
BLACK
6
CONTINUOUS
10
8.3198818897637796
20
-4.856299212598425
11
8.3198069685039364
21
-4.8566758661417317
0
LINE
8
BLACK
6
CONTINUOUS
10
8.3198069685039364
20
-4.8566758661417317
11
8.3192742913385818
21
-4.8572085433070864
0
LINE
8
BLACK
6
CONTINUOUS
10
8.3192742913385818
20
-4.8572085433070864
11
8.1811023622047241
21
-4.8572834645669287
0
LINE
8
BLACK
6
CONTINUOUS
10
8.1811023622047241
20
-4.8572834645669287
11
8.1807257086614165
21
-4.8572085433070864
0
LINE
8
BLACK
6
CONTINUOUS
10
8.1807257086614165
20
-4.8572085433070864
11
8.1801930314960636
21
-4.8566758661417317
0
LINE
8
BLACK
6
CONTINUOUS
10
8.1801930314960636
20
-4.8566758661417317
11
8.1801181102362204
21
-4.734251968503937
0
LINE
8
BLACK
6
CONTINUOUS
10
8.1801181102362204
20
-4.734251968503937
11
8.1801930314960636
21
-4.7338753149606294
0
LINE
8
BLACK
6
CONTINUOUS
10
8.1801930314960636
20
-4.7338753149606294
11
8.1807257086614165
21
-4.7333426377952756
0
LINE
8
BLACK
6
CONTINUOUS
10
8.1807257086614165
20
-4.7333426377952756
11
8.3188976377952759
21
-4.7332677165354333
0
LINE
8
BLACK
6
CONTINUOUS
10
8.3188976377952759
20
-4.7332677165354333
11
8.3192742913385818
21
-4.7333426377952756
0
LINE
8
BLACK
6
CONTINUOUS
10
8.1820125196850384
20
-4.735235708661417
11
8.1820860236220465
21
-4.8553891338582673
0
LINE
8
BLACK
6
CONTINUOUS
10
8.1820860236220465
20
-4.8553891338582673
11
8.3179874409448811
21
-4.8553154330708663
0
LINE
8
BLACK
6
CONTINUOUS
10
8.3179874409448811
20
-4.8553154330708663
11
8.317913937007873
21
-4.735162007874016
0
LINE
8
BLACK
6
CONTINUOUS
10
8.317913937007873
20
-4.735162007874016
11
8.1820125196850384
21
-4.735235708661417
0
LINE
8
BLACK
6
CONTINUOUS
10
9.0692742913385818
20
-4.7333426377952756
11
9.0698069685039364
21
-4.7338753149606294
0
LINE
8
BLACK
6
CONTINUOUS
10
9.0698069685039364
20
-4.7338753149606294
11
9.0698818897637796
21
-4.856299212598425
0
LINE
8
BLACK
6
CONTINUOUS
10
9.0698818897637796
20
-4.856299212598425
11
9.0698069685039364
21
-4.8566758661417317
0
LINE
8
BLACK
6
CONTINUOUS
10
9.0698069685039364
20
-4.8566758661417317
11
9.0692742913385818
21
-4.8572085433070864
0
LINE
8
BLACK
6
CONTINUOUS
10
9.0692742913385818
20
-4.8572085433070864
11
8.9311023622047241
21
-4.8572834645669287
0
LINE
8
BLACK
6
CONTINUOUS
10
8.9311023622047241
20
-4.8572834645669287
11
8.9307257086614165
21
-4.8572085433070864
0
LINE
8
BLACK
6
CONTINUOUS
10
8.9307257086614165
20
-4.8572085433070864
11
8.9301930314960636
21
-4.8566758661417317
0
LINE
8
BLACK
6
CONTINUOUS
10
8.9301930314960636
20
-4.8566758661417317
11
8.9301181102362204
21
-4.734251968503937
0
LINE
8
BLACK
6
CONTINUOUS
10
8.9301181102362204
20
-4.734251968503937
11
8.9301930314960636
21
-4.7338753149606294
0
LINE
8
BLACK
6
CONTINUOUS
10
8.9301930314960636
20
-4.7338753149606294
11
8.9307257086614165
21
-4.7333426377952756
0
LINE
8
BLACK
6
CONTINUOUS
10
8.9307257086614165
20
-4.7333426377952756
11
9.0688976377952759
21
-4.7332677165354333
0
LINE
8
BLACK
6
CONTINUOUS
10
9.0688976377952759
20
-4.7332677165354333
11
9.0692742913385818
21
-4.7333426377952756
0
LINE
8
BLACK
6
CONTINUOUS
10
8.9320125196850384
20
-4.735235708661417
11
8.9320860236220465
21
-4.8553891338582673
0
LINE
8
BLACK
6
CONTINUOUS
10
8.9320860236220465
20
-4.8553891338582673
11
9.0679874409448811
21
-4.8553154330708663
0
LINE
8
BLACK
6
CONTINUOUS
10
9.0679874409448811
20
-4.8553154330708663
11
9.067913937007873
21
-4.735162007874016
0
LINE
8
BLACK
6
CONTINUOUS
10
9.067913937007873
20
-4.735162007874016
11
8.9320125196850384
21
-4.735235708661417
0
LINE
8
BLACK
6
CONTINUOUS
10
9.8192742913385818
20
-4.7333426377952756
11
9.8198069685039364
21
-4.7338753149606294
0
LINE
8
BLACK
6
CONTINUOUS
10
9.8198069685039364
20
-4.7338753149606294
11
9.8198818897637796
21
-4.856299212598425
0
LINE
8
BLACK
6
CONTINUOUS
10
9.8198818897637796
20
-4.856299212598425
11
9.8198069685039364
21
-4.8566758661417317
0
LINE
8
BLACK
6
CONTINUOUS
10
9.8198069685039364
20
-4.8566758661417317
11
9.8192742913385818
21
-4.8572085433070864
0
LINE
8
BLACK
6
CONTINUOUS
10
9.8192742913385818
20
-4.8572085433070864
11
9.6811023622047241
21
-4.8572834645669287
0
LINE
8
BLACK
6
CONTINUOUS
10
9.6811023622047241
20
-4.8572834645669287
11
9.6807257086614165
21
-4.8572085433070864
0
LINE
8
BLACK
6
CONTINUOUS
10
9.6807257086614165
20
-4.8572085433070864
11
9.6801930314960636
21
-4.8566758661417317
0
LINE
8
BLACK
6
CONTINUOUS
10
9.6801930314960636
20
-4.8566758661417317
11
9.6801181102362204
21
-4.734251968503937
0
LINE
8
BLACK
6
CONTINUOUS
10
9.6801181102362204
20
-4.734251968503937
11
9.6801930314960636
21
-4.7338753149606294
0
LINE
8
BLACK
6
CONTINUOUS
10
9.6801930314960636
20
-4.7338753149606294
11
9.6807257086614165
21
-4.7333426377952756
0
LINE
8
BLACK
6
CONTINUOUS
10
9.6807257086614165
20
-4.7333426377952756
11
9.8188976377952759
21
-4.7332677165354333
0
LINE
8
BLACK
6
CONTINUOUS
10
9.8188976377952759
20
-4.7332677165354333
11
9.8192742913385818
21
-4.7333426377952756
0
LINE
8
BLACK
6
CONTINUOUS
10
9.6820125196850384
20
-4.735235708661417
11
9.6820860236220465
21
-4.8553891338582673
0
LINE
8
BLACK
6
CONTINUOUS
10
9.6820860236220465
20
-4.8553891338582673
11
9.8179874409448811
21
-4.8553154330708663
0
LINE
8
BLACK
6
CONTINUOUS
10
9.8179874409448811
20
-4.8553154330708663
11
9.817913937007873
21
-4.735162007874016
0
LINE
8
BLACK
6
CONTINUOUS
10
9.817913937007873
20
-4.735162007874016
11
9.6820125196850384
21
-4.735235708661417
0
LINE
8
BLACK
6
CONTINUOUS
10
10.5692742913385818
20
-4.7333426377952756
11
10.5698069685039364
21
-4.7338753149606294
0
LINE
8
BLACK
6
CONTINUOUS
10
10.5698069685039364
20
-4.7338753149606294
11
10.5698818897637796
21
-4.856299212598425
0
LINE
8
BLACK
6
CONTINUOUS
10
10.5698818897637796
20
-4.856299212598425
11
10.5698069685039364
21
-4.8566758661417317
0
LINE
8
BLACK
6
CONTINUOUS
10
10.5698069685039364
20
-4.8566758661417317
11
10.5692742913385818
21
-4.8572085433070864
0
LINE
8
BLACK
6
CONTINUOUS
10
10.5692742913385818
20
-4.8572085433070864
11
10.4311023622047241
21
-4.8572834645669287
0
LINE
8
BLACK
6
CONTINUOUS
10
10.4311023622047241
20
-4.8572834645669287
11
10.4307257086614165
21
-4.8572085433070864
0
LINE
8
BLACK
6
CONTINUOUS
10
10.4307257086614165
20
-4.8572085433070864
11
10.4301930314960636
21
-4.8566758661417317
0
LINE
8
BLACK
6
CONTINUOUS
10
10.4301930314960636
20
-4.8566758661417317
11
10.4301181102362204
21
-4.734251968503937
0
LINE
8
BLACK
6
CONTINUOUS
10
10.4301181102362204
20
-4.734251968503937
11
10.4301930314960636
21
-4.7338753149606294
0
LINE
8
BLACK
6
CONTINUOUS
10
10.4301930314960636
20
-4.7338753149606294
11
10.4307257086614165
21
-4.7333426377952756
0
LINE
8
BLACK
6
CONTINUOUS
10
10.4307257086614165
20
-4.7333426377952756
11
10.5688976377952759
21
-4.7332677165354333
0
LINE
8
BLACK
6
CONTINUOUS
10
10.5688976377952759
20
-4.7332677165354333
11
10.5692742913385818
21
-4.7333426377952756
0
LINE
8
BLACK
6
CONTINUOUS
10
10.4320125196850384
20
-4.735235708661417
11
10.4320860236220465
21
-4.8553891338582673
0
LINE
8
BLACK
6
CONTINUOUS
10
10.4320860236220465
20
-4.8553891338582673
11
10.5679874409448811
21
-4.8553154330708663
0
LINE
8
BLACK
6
CONTINUOUS
10
10.5679874409448811
20
-4.8553154330708663
11
10.567913937007873
21
-4.735162007874016
0
LINE
8
BLACK
6
CONTINUOUS
10
10.567913937007873
20
-4.735162007874016
11
10.4320125196850384
21
-4.735235708661417
0
LINE
8
BLACK
6
CONTINUOUS
10
11.3192742913385818
20
-4.7333426377952756
11
11.3198069685039364
21
-4.7338753149606294
0
LINE
8
BLACK
6
CONTINUOUS
10
11.3198069685039364
20
-4.7338753149606294
11
11.3198818897637796
21
-4.856299212598425
0
LINE
8
BLACK
6
CONTINUOUS
10
11.3198818897637796
20
-4.856299212598425
11
11.3198069685039364
21
-4.8566758661417317
0
LINE
8
BLACK
6
CONTINUOUS
10
11.3198069685039364
20
-4.8566758661417317
11
11.3192742913385818
21
-4.8572085433070864
0
LINE
8
BLACK
6
CONTINUOUS
10
11.3192742913385818
20
-4.8572085433070864
11
11.1811023622047241
21
-4.8572834645669287
0
LINE
8
BLACK
6
CONTINUOUS
10
11.1811023622047241
20
-4.8572834645669287
11
11.1807257086614165
21
-4.8572085433070864
0
LINE
8
BLACK
6
CONTINUOUS
10
11.1807257086614165
20
-4.8572085433070864
11
11.1801930314960636
21
-4.8566758661417317
0
LINE
8
BLACK
6
CONTINUOUS
10
11.1801930314960636
20
-4.8566758661417317
11
11.1801181102362204
21
-4.734251968503937
0
LINE
8
BLACK
6
CONTINUOUS
10
11.1801181102362204
20
-4.734251968503937
11
11.1801930314960636
21
-4.7338753149606294
0
LINE
8
BLACK
6
CONTINUOUS
10
11.1801930314960636
20
-4.7338753149606294
11
11.1807257086614165
21
-4.7333426377952756
0
LINE
8
BLACK
6
CONTINUOUS
10
11.1807257086614165
20
-4.7333426377952756
11
11.3188976377952759
21
-4.7332677165354333
0
LINE
8
BLACK
6
CONTINUOUS
10
11.3188976377952759
20
-4.7332677165354333
11
11.3192742913385818
21
-4.7333426377952756
0
LINE
8
BLACK
6
CONTINUOUS
10
11.1820125196850384
20
-4.735235708661417
11
11.1820860236220465
21
-4.8553891338582673
0
LINE
8
BLACK
6
CONTINUOUS
10
11.1820860236220465
20
-4.8553891338582673
11
11.3179874409448811
21
-4.8553154330708663
0
LINE
8
BLACK
6
CONTINUOUS
10
11.3179874409448811
20
-4.8553154330708663
11
11.317913937007873
21
-4.735162007874016
0
LINE
8
BLACK
6
CONTINUOUS
10
11.317913937007873
20
-4.735162007874016
11
11.1820125196850384
21
-4.735235708661417
0
LINE
8
BLACK
6
CONTINUOUS
10
13.1192742913385825
20
-4.7333426377952756
11
13.1198069685039371
21
-4.7338753149606294
0
LINE
8
BLACK
6
CONTINUOUS
10
13.1198069685039371
20
-4.7338753149606294
11
13.1198818897637786
21
-4.856299212598425
0
LINE
8
BLACK
6
CONTINUOUS
10
13.1198818897637786
20
-4.856299212598425
11
13.1198069685039371
21
-4.8566758661417317
0
LINE
8
BLACK
6
CONTINUOUS
10
13.1198069685039371
20
-4.8566758661417317
11
13.1192742913385825
21
-4.8572085433070864
0
LINE
8
BLACK
6
CONTINUOUS
10
13.1192742913385825
20
-4.8572085433070864
11
12.9811023622047248
21
-4.8572834645669287
0
LINE
8
BLACK
6
CONTINUOUS
10
12.9811023622047248
20
-4.8572834645669287
11
12.9807257086614172
21
-4.8572085433070864
0
LINE
8
BLACK
6
CONTINUOUS
10
12.9807257086614172
20
-4.8572085433070864
11
12.9801930314960625
21
-4.8566758661417317
0
LINE
8
BLACK
6
CONTINUOUS
10
12.9801930314960625
20
-4.8566758661417317
11
12.9801181102362193
21
-4.734251968503937
0
LINE
8
BLACK
6
CONTINUOUS
10
12.9801181102362193
20
-4.734251968503937
11
12.9801930314960625
21
-4.7338753149606294
0
LINE
8
BLACK
6
CONTINUOUS
10
12.9801930314960625
20
-4.7338753149606294
11
12.9807257086614172
21
-4.7333426377952756
0
LINE
8
BLACK
6
CONTINUOUS
10
12.9807257086614172
20
-4.7333426377952756
11
13.1188976377952748
21
-4.7332677165354333
0
LINE
8
BLACK
6
CONTINUOUS
10
13.1188976377952748
20
-4.7332677165354333
11
13.1192742913385825
21
-4.7333426377952756
0
LINE
8
BLACK
6
CONTINUOUS
10
12.9820125196850391
20
-4.735235708661417
11
12.9820860236220472
21
-4.8553891338582673
0
LINE
8
BLACK
6
CONTINUOUS
10
12.9820860236220472
20
-4.8553891338582673
11
13.1179874409448818
21
-4.8553154330708663
0
LINE
8
BLACK
6
CONTINUOUS
10
13.1179874409448818
20
-4.8553154330708663
11
13.1179139370078737
21
-4.735162007874016
0
LINE
8
BLACK
6
CONTINUOUS
10
13.1179139370078737
20
-4.735162007874016
11
12.9820125196850391
21
-4.735235708661417
0
LINE
8
BLACK
6
CONTINUOUS
10
13.8692742913385825
20
-4.7333426377952756
11
13.8698069685039371
21
-4.7338753149606294
0
LINE
8
BLACK
6
CONTINUOUS
10
13.8698069685039371
20
-4.7338753149606294
11
13.8698818897637786
21
-4.856299212598425
0
LINE
8
BLACK
6
CONTINUOUS
10
13.8698818897637786
20
-4.856299212598425
11
13.8698069685039371
21
-4.8566758661417317
0
LINE
8
BLACK
6
CONTINUOUS
10
13.8698069685039371
20
-4.8566758661417317
11
13.8692742913385825
21
-4.8572085433070864
0
LINE
8
BLACK
6
CONTINUOUS
10
13.8692742913385825
20
-4.8572085433070864
11
13.7311023622047248
21
-4.8572834645669287
0
LINE
8
BLACK
6
CONTINUOUS
10
13.7311023622047248
20
-4.8572834645669287
11
13.7307257086614172
21
-4.8572085433070864
0
LINE
8
BLACK
6
CONTINUOUS
10
13.7307257086614172
20
-4.8572085433070864
11
13.7301930314960625
21
-4.8566758661417317
0
LINE
8
BLACK
6
CONTINUOUS
10
13.7301930314960625
20
-4.8566758661417317
11
13.7301181102362193
21
-4.734251968503937
0
LINE
8
BLACK
6
CONTINUOUS
10
13.7301181102362193
20
-4.734251968503937
11
13.7301930314960625
21
-4.7338753149606294
0
LINE
8
BLACK
6
CONTINUOUS
10
13.7301930314960625
20
-4.7338753149606294
11
13.7307257086614172
21
-4.7333426377952756
0
LINE
8
BLACK
6
CONTINUOUS
10
13.7307257086614172
20
-4.7333426377952756
11
13.8688976377952748
21
-4.7332677165354333
0
LINE
8
BLACK
6
CONTINUOUS
10
13.8688976377952748
20
-4.7332677165354333
11
13.8692742913385825
21
-4.7333426377952756
0
LINE
8
BLACK
6
CONTINUOUS
10
13.7320125196850391
20
-4.735235708661417
11
13.7320860236220472
21
-4.8553891338582673
0
LINE
8
BLACK
6
CONTINUOUS
10
13.7320860236220472
20
-4.8553891338582673
11
13.8679874409448818
21
-4.8553154330708663
0
LINE
8
BLACK
6
CONTINUOUS
10
13.8679874409448818
20
-4.8553154330708663
11
13.8679139370078737
21
-4.735162007874016
0
LINE
8
BLACK
6
CONTINUOUS
10
13.8679139370078737
20
-4.735162007874016
11
13.7320125196850391
21
-4.735235708661417
0
LINE
8
BLACK
6
CONTINUOUS
10
14.6192742913385825
20
-4.7333426377952756
11
14.6198069685039371
21
-4.7338753149606294
0
LINE
8
BLACK
6
CONTINUOUS
10
14.6198069685039371
20
-4.7338753149606294
11
14.6198818897637786
21
-4.856299212598425
0
LINE
8
BLACK
6
CONTINUOUS
10
14.6198818897637786
20
-4.856299212598425
11
14.6198069685039371
21
-4.8566758661417317
0
LINE
8
BLACK
6
CONTINUOUS
10
14.6198069685039371
20
-4.8566758661417317
11
14.6192742913385825
21
-4.8572085433070864
0
LINE
8
BLACK
6
CONTINUOUS
10
14.6192742913385825
20
-4.8572085433070864
11
14.4811023622047248
21
-4.8572834645669287
0
LINE
8
BLACK
6
CONTINUOUS
10
14.4811023622047248
20
-4.8572834645669287
11
14.4807257086614172
21
-4.8572085433070864
0
LINE
8
BLACK
6
CONTINUOUS
10
14.4807257086614172
20
-4.8572085433070864
11
14.4801930314960625
21
-4.8566758661417317
0
LINE
8
BLACK
6
CONTINUOUS
10
14.4801930314960625
20
-4.8566758661417317
11
14.4801181102362193
21
-4.734251968503937
0
LINE
8
BLACK
6
CONTINUOUS
10
14.4801181102362193
20
-4.734251968503937
11
14.4801930314960625
21
-4.7338753149606294
0
LINE
8
BLACK
6
CONTINUOUS
10
14.4801930314960625
20
-4.7338753149606294
11
14.4807257086614172
21
-4.7333426377952756
0
LINE
8
BLACK
6
CONTINUOUS
10
14.4807257086614172
20
-4.7333426377952756
11
14.6188976377952748
21
-4.7332677165354333
0
LINE
8
BLACK
6
CONTINUOUS
10
14.6188976377952748
20
-4.7332677165354333
11
14.6192742913385825
21
-4.7333426377952756
0
LINE
8
BLACK
6
CONTINUOUS
10
14.4820125196850391
20
-4.735235708661417
11
14.4820860236220472
21
-4.8553891338582673
0
LINE
8
BLACK
6
CONTINUOUS
10
14.4820860236220472
20
-4.8553891338582673
11
14.6179874409448818
21
-4.8553154330708663
0
LINE
8
BLACK
6
CONTINUOUS
10
14.6179874409448818
20
-4.8553154330708663
11
14.6179139370078737
21
-4.735162007874016
0
LINE
8
BLACK
6
CONTINUOUS
10
14.6179139370078737
20
-4.735162007874016
11
14.4820125196850391
21
-4.735235708661417
0
LINE
8
BLACK
6
CONTINUOUS
10
13.4306722834645669
20
-4.0567192913385828
11
13.435873110236221
21
-4.0585391338582673
0
LINE
8
BLACK
6
CONTINUOUS
10
13.435873110236221
20
-4.0585391338582673
11
13.440538622047244
21
-4.0614706692913387
0
LINE
8
BLACK
6
CONTINUOUS
10
13.440538622047244
20
-4.0614706692913387
11
13.4444348425196853
21
-4.0653668897637791
0
LINE
8
BLACK
6
CONTINUOUS
10
13.4444348425196853
20
-4.0653668897637791
11
13.4473663779527559
21
-4.0700324015748031
0
LINE
8
BLACK
6
CONTINUOUS
10
13.4473663779527559
20
-4.0700324015748031
11
13.4491862204724413
21
-4.0752332283464563
0
LINE
8
BLACK
6
CONTINUOUS
10
13.4491862204724413
20
-4.0752332283464563
11
13.4498031496062982
21
-4.0807086614173231
0
LINE
8
BLACK
6
CONTINUOUS
10
13.4498031496062982
20
-4.0807086614173231
11
13.449728346456693
21
-4.0809387795275587
0
LINE
8
BLACK
6
CONTINUOUS
10
13.449728346456693
20
-4.0809387795275587
11
13.4498031496062982
21
-4.4192913385826769
0
LINE
8
BLACK
6
CONTINUOUS
10
13.4498031496062982
20
-4.4192913385826769
11
13.4491862204724413
21
-4.4247667716535428
0
LINE
8
BLACK
6
CONTINUOUS
10
13.4491862204724413
20
-4.4247667716535428
11
13.4473663779527559
21
-4.4299675984251969
0
LINE
8
BLACK
6
CONTINUOUS
10
13.4473663779527559
20
-4.4299675984251969
11
13.4444348425196853
21
-4.43463311023622
0
LINE
8
BLACK
6
CONTINUOUS
10
13.4444348425196853
20
-4.43463311023622
11
13.440538622047244
21
-4.4385293307086613
0
LINE
8
BLACK
6
CONTINUOUS
10
13.440538622047244
20
-4.4385293307086613
11
13.435873110236221
21
-4.4414608661417319
0
LINE
8
BLACK
6
CONTINUOUS
10
13.435873110236221
20
-4.4414608661417319
11
13.4306722834645669
21
-4.4432807086614172
0
LINE
8
BLACK
6
CONTINUOUS
10
13.4306722834645669
20
-4.4432807086614172
11
13.4251968503937
21
-4.4438976377952759
0
LINE
8
BLACK
6
CONTINUOUS
10
13.4251968503937
20
-4.4438976377952759
11
13.419721417322835
21
-4.4432807086614172
0
LINE
8
BLACK
6
CONTINUOUS
10
13.419721417322835
20
-4.4432807086614172
11
13.4145205905511808
21
-4.4414608661417319
0
LINE
8
BLACK
6
CONTINUOUS
10
13.4145205905511808
20
-4.4414608661417319
11
13.4098550787401578
21
-4.4385293307086613
0
LINE
8
BLACK
6
CONTINUOUS
10
13.4098550787401578
20
-4.4385293307086613
11
13.4059588582677165
21
-4.43463311023622
0
LINE
8
BLACK
6
CONTINUOUS
10
13.4059588582677165
20
-4.43463311023622
11
13.4030273228346459
21
-4.4299675984251969
0
LINE
8
BLACK
6
CONTINUOUS
10
13.4030273228346459
20
-4.4299675984251969
11
13.4012074803149606
21
-4.4247667716535428
0
LINE
8
BLACK
6
CONTINUOUS
10
13.4012074803149606
20
-4.4247667716535428
11
13.4005905511811019
21
-4.4192913385826769
0
LINE
8
BLACK
6
CONTINUOUS
10
13.4005905511811019
20
-4.4192913385826769
11
13.4006653149606301
21
-4.4190611811023617
0
LINE
8
BLACK
6
CONTINUOUS
10
13.4006653149606301
20
-4.4190611811023617
11
13.4005905511811019
21
-4.0807086614173231
0
LINE
8
BLACK
6
CONTINUOUS
10
13.4005905511811019
20
-4.0807086614173231
11
13.4012074803149606
21
-4.0752332283464563
0
LINE
8
BLACK
6
CONTINUOUS
10
13.4012074803149606
20
-4.0752332283464563
11
13.4030273228346459
21
-4.0700324015748031
0
LINE
8
BLACK
6
CONTINUOUS
10
13.4030273228346459
20
-4.0700324015748031
11
13.4059588582677165
21
-4.0653668897637791
0
LINE
8
BLACK
6
CONTINUOUS
10
13.4059588582677165
20
-4.0653668897637791
11
13.4098550787401578
21
-4.0614706692913387
0
LINE
8
BLACK
6
CONTINUOUS
10
13.4098550787401578
20
-4.0614706692913387
11
13.4145205905511808
21
-4.0585391338582673
0
LINE
8
BLACK
6
CONTINUOUS
10
13.4145205905511808
20
-4.0585391338582673
11
13.419721417322835
21
-4.0567192913385828
0
LINE
8
BLACK
6
CONTINUOUS
10
13.419721417322835
20
-4.0567192913385828
11
13.4251968503937
21
-4.0561023622047241
0
LINE
8
BLACK
6
CONTINUOUS
10
13.4251968503937
20
-4.0561023622047241
11
13.4306722834645669
21
-4.0567192913385828
0
LINE
8
BLACK
6
CONTINUOUS
10
13.4226461811023619
20
-4.0580708661417324
11
13.417672755905512
21
-4.0592060236220471
0
LINE
8
BLACK
6
CONTINUOUS
10
13.417672755905512
20
-4.0592060236220471
11
13.4130766141732281
21
-4.0614194094488187
0
LINE
8
BLACK
6
CONTINUOUS
10
13.4130766141732281
20
-4.0614194094488187
11
13.409088228346457
21
-4.0646000393700783
0
LINE
8
BLACK
6
CONTINUOUS
10
13.409088228346457
20
-4.0646000393700783
11
13.4059075984251965
21
-4.0685884251968503
0
LINE
8
BLACK
6
CONTINUOUS
10
13.4059075984251965
20
-4.0685884251968503
11
13.4036942125984258
21
-4.0731845669291333
0
LINE
8
BLACK
6
CONTINUOUS
10
13.4036942125984258
20
-4.0731845669291333
11
13.4025590551181093
21
-4.0781579921259841
0
LINE
8
BLACK
6
CONTINUOUS
10
13.4025590551181093
20
-4.0781579921259841
11
13.4025590551181093
21
-4.0807086614173231
0
LINE
8
BLACK
6
CONTINUOUS
10
13.4025590551181093
20
-4.0807086614173231
11
13.4024842519685041
21
-4.0809387795275587
0
LINE
8
BLACK
6
CONTINUOUS
10
13.4024842519685041
20
-4.0809387795275587
11
13.4025590551181093
21
-4.4192913385826769
0
LINE
8
BLACK
6
CONTINUOUS
10
13.4025590551181093
20
-4.4192913385826769
11
13.4025590551181093
21
-4.4218420078740159
0
LINE
8
BLACK
6
CONTINUOUS
10
13.4025590551181093
20
-4.4218420078740159
11
13.4036942125984258
21
-4.4268154330708658
0
LINE
8
BLACK
6
CONTINUOUS
10
13.4036942125984258
20
-4.4268154330708658
11
13.4059075984251965
21
-4.4314115748031497
0
LINE
8
BLACK
6
CONTINUOUS
10
13.4059075984251965
20
-4.4314115748031497
11
13.409088228346457
21
-4.4353999606299208
0
LINE
8
BLACK
6
CONTINUOUS
10
13.409088228346457
20
-4.4353999606299208
11
13.4130766141732281
21
-4.4385805905511813
0
LINE
8
BLACK
6
CONTINUOUS
10
13.4130766141732281
20
-4.4385805905511813
11
13.417672755905512
21
-4.4407939763779529
0
LINE
8
BLACK
6
CONTINUOUS
10
13.417672755905512
20
-4.4407939763779529
11
13.4226461811023619
21
-4.4419291338582676
0
LINE
8
BLACK
6
CONTINUOUS
10
13.4226461811023619
20
-4.4419291338582676
11
13.4251968503937
21
-4.4419291338582676
0
LINE
8
BLACK
6
CONTINUOUS
10
13.4251968503937
20
-4.4419291338582676
11
13.4277475196850382
21
-4.4419291338582676
0
LINE
8
BLACK
6
CONTINUOUS
10
13.4277475196850382
20
-4.4419291338582676
11
13.4327209448818898
21
-4.4407939763779529
0
LINE
8
BLACK
6
CONTINUOUS
10
13.4327209448818898
20
-4.4407939763779529
11
13.4373170866141738
21
-4.4385805905511813
0
LINE
8
BLACK
6
CONTINUOUS
10
13.4373170866141738
20
-4.4385805905511813
11
13.4413054724409449
21
-4.4353999606299208
0
LINE
8
BLACK
6
CONTINUOUS
10
13.4413054724409449
20
-4.4353999606299208
11
13.4444861023622035
21
-4.4314115748031497
0
LINE
8
BLACK
6
CONTINUOUS
10
13.4444861023622035
20
-4.4314115748031497
11
13.4466994881889761
21
-4.4268154330708658
0
LINE
8
BLACK
6
CONTINUOUS
10
13.4466994881889761
20
-4.4268154330708658
11
13.4478346456692908
21
-4.4218420078740159
0
LINE
8
BLACK
6
CONTINUOUS
10
13.4478346456692908
20
-4.4218420078740159
11
13.4478346456692908
21
-4.4192913385826769
0
LINE
8
BLACK
6
CONTINUOUS
10
13.4478346456692908
20
-4.4192913385826769
11
13.447909409448819
21
-4.4190611811023617
0
LINE
8
BLACK
6
CONTINUOUS
10
13.447909409448819
20
-4.4190611811023617
11
13.4478346456692908
21
-4.0807086614173231
0
LINE
8
BLACK
6
CONTINUOUS
10
13.4478346456692908
20
-4.0807086614173231
11
13.4478346456692908
21
-4.0781579921259841
0
LINE
8
BLACK
6
CONTINUOUS
10
13.4478346456692908
20
-4.0781579921259841
11
13.4466994881889761
21
-4.0731845669291333
0
LINE
8
BLACK
6
CONTINUOUS
10
13.4466994881889761
20
-4.0731845669291333
11
13.4444861023622035
21
-4.0685884251968503
0
LINE
8
BLACK
6
CONTINUOUS
10
13.4444861023622035
20
-4.0685884251968503
11
13.4413054724409449
21
-4.0646000393700783
0
LINE
8
BLACK
6
CONTINUOUS
10
13.4413054724409449
20
-4.0646000393700783
11
13.4373170866141738
21
-4.0614194094488187
0
LINE
8
BLACK
6
CONTINUOUS
10
13.4373170866141738
20
-4.0614194094488187
11
13.4327209448818898
21
-4.0592060236220471
0
LINE
8
BLACK
6
CONTINUOUS
10
13.4327209448818898
20
-4.0592060236220471
11
13.4277475196850382
21
-4.0580708661417324
0
LINE
8
BLACK
6
CONTINUOUS
10
13.4277475196850382
20
-4.0580708661417324
11
13.4251968503937
21
-4.0580708661417324
0
LINE
8
BLACK
6
CONTINUOUS
10
13.4251968503937
20
-4.0580708661417324
11
13.4226461811023619
21
-4.0580708661417324
0
LINE
8
BLACK
6
CONTINUOUS
10
3.0692742913385826
20
-3.9833426377952756
11
3.0698069685039369
21
-3.9838753149606299
0
LINE
8
BLACK
6
CONTINUOUS
10
3.0698069685039369
20
-3.9838753149606299
11
3.0698818897637796
21
-4.106299212598425
0
LINE
8
BLACK
6
CONTINUOUS
10
3.0698818897637796
20
-4.106299212598425
11
3.0698069685039369
21
-4.1066758661417326
0
LINE
8
BLACK
6
CONTINUOUS
10
3.0698069685039369
20
-4.1066758661417326
11
3.0692742913385826
21
-4.1072085433070864
0
LINE
8
BLACK
6
CONTINUOUS
10
3.0692742913385826
20
-4.1072085433070864
11
2.9311023622047245
21
-4.1072834645669287
0
LINE
8
BLACK
6
CONTINUOUS
10
2.9311023622047245
20
-4.1072834645669287
11
2.9307257086614174
21
-4.1072085433070864
0
LINE
8
BLACK
6
CONTINUOUS
10
2.9307257086614174
20
-4.1072085433070864
11
2.9301930314960631
21
-4.1066758661417326
0
LINE
8
BLACK
6
CONTINUOUS
10
2.9301930314960631
20
-4.1066758661417326
11
2.9301181102362204
21
-3.984251968503937
0
LINE
8
BLACK
6
CONTINUOUS
10
2.9301181102362204
20
-3.984251968503937
11
2.9301930314960631
21
-3.9838753149606299
0
LINE
8
BLACK
6
CONTINUOUS
10
2.9301930314960631
20
-3.9838753149606299
11
2.9307257086614174
21
-3.9833426377952756
0
LINE
8
BLACK
6
CONTINUOUS
10
2.9307257086614174
20
-3.9833426377952756
11
3.0688976377952755
21
-3.9832677165354329
0
LINE
8
BLACK
6
CONTINUOUS
10
3.0688976377952755
20
-3.9832677165354329
11
3.0692742913385826
21
-3.9833426377952756
0
LINE
8
BLACK
6
CONTINUOUS
10
2.9320125196850393
20
-3.9852357086614174
11
2.9320860236220474
21
-4.1053891338582673
0
LINE
8
BLACK
6
CONTINUOUS
10
2.9320860236220474
20
-4.1053891338582673
11
3.067987440944882
21
-4.1053154330708663
0
LINE
8
BLACK
6
CONTINUOUS
10
3.067987440944882
20
-4.1053154330708663
11
3.0679139370078738
21
-3.9851620078740155
0
LINE
8
BLACK
6
CONTINUOUS
10
3.0679139370078738
20
-3.9851620078740155
11
2.9320125196850393
21
-3.9852357086614174
0
LINE
8
BLACK
6
CONTINUOUS
10
3.8192742913385826
20
-3.9833426377952756
11
3.8198069685039369
21
-3.9838753149606299
0
LINE
8
BLACK
6
CONTINUOUS
10
3.8198069685039369
20
-3.9838753149606299
11
3.8198818897637796
21
-4.106299212598425
0
LINE
8
BLACK
6
CONTINUOUS
10
3.8198818897637796
20
-4.106299212598425
11
3.8198069685039369
21
-4.1066758661417326
0
LINE
8
BLACK
6
CONTINUOUS
10
3.8198069685039369
20
-4.1066758661417326
11
3.8192742913385826
21
-4.1072085433070864
0
LINE
8
BLACK
6
CONTINUOUS
10
3.8192742913385826
20
-4.1072085433070864
11
3.6811023622047245
21
-4.1072834645669287
0
LINE
8
BLACK
6
CONTINUOUS
10
3.6811023622047245
20
-4.1072834645669287
11
3.6807257086614174
21
-4.1072085433070864
0
LINE
8
BLACK
6
CONTINUOUS
10
3.6807257086614174
20
-4.1072085433070864
11
3.6801930314960627
21
-4.1066758661417326
0
LINE
8
BLACK
6
CONTINUOUS
10
3.6801930314960627
20
-4.1066758661417326
11
3.6801181102362204
21
-3.984251968503937
0
LINE
8
BLACK
6
CONTINUOUS
10
3.6801181102362204
20
-3.984251968503937
11
3.6801930314960627
21
-3.9838753149606299
0
LINE
8
BLACK
6
CONTINUOUS
10
3.6801930314960627
20
-3.9838753149606299
11
3.6807257086614174
21
-3.9833426377952756
0
LINE
8
BLACK
6
CONTINUOUS
10
3.6807257086614174
20
-3.9833426377952756
11
3.8188976377952755
21
-3.9832677165354329
0
LINE
8
BLACK
6
CONTINUOUS
10
3.8188976377952755
20
-3.9832677165354329
11
3.8192742913385826
21
-3.9833426377952756
0
LINE
8
BLACK
6
CONTINUOUS
10
3.6820125196850393
20
-3.9852357086614174
11
3.682086023622047
21
-4.1053891338582673
0
LINE
8
BLACK
6
CONTINUOUS
10
3.682086023622047
20
-4.1053891338582673
11
3.817987440944882
21
-4.1053154330708663
0
LINE
8
BLACK
6
CONTINUOUS
10
3.817987440944882
20
-4.1053154330708663
11
3.8179139370078738
21
-3.9851620078740155
0
LINE
8
BLACK
6
CONTINUOUS
10
3.8179139370078738
20
-3.9851620078740155
11
3.6820125196850393
21
-3.9852357086614174
0
LINE
8
BLACK
6
CONTINUOUS
10
4.5692742913385826
20
-3.9833426377952756
11
4.5698069685039373
21
-3.9838753149606299
0
LINE
8
BLACK
6
CONTINUOUS
10
4.5698069685039373
20
-3.9838753149606299
11
4.5698818897637796
21
-4.106299212598425
0
LINE
8
BLACK
6
CONTINUOUS
10
4.5698818897637796
20
-4.106299212598425
11
4.5698069685039373
21
-4.1066758661417326
0
LINE
8
BLACK
6
CONTINUOUS
10
4.5698069685039373
20
-4.1066758661417326
11
4.5692742913385826
21
-4.1072085433070864
0
LINE
8
BLACK
6
CONTINUOUS
10
4.5692742913385826
20
-4.1072085433070864
11
4.4311023622047241
21
-4.1072834645669287
0
LINE
8
BLACK
6
CONTINUOUS
10
4.4311023622047241
20
-4.1072834645669287
11
4.4307257086614174
21
-4.1072085433070864
0
LINE
8
BLACK
6
CONTINUOUS
10
4.4307257086614174
20
-4.1072085433070864
11
4.4301930314960627
21
-4.1066758661417326
0
LINE
8
BLACK
6
CONTINUOUS
10
4.4301930314960627
20
-4.1066758661417326
11
4.4301181102362204
21
-3.984251968503937
0
LINE
8
BLACK
6
CONTINUOUS
10
4.4301181102362204
20
-3.984251968503937
11
4.4301930314960627
21
-3.9838753149606299
0
LINE
8
BLACK
6
CONTINUOUS
10
4.4301930314960627
20
-3.9838753149606299
11
4.4307257086614174
21
-3.9833426377952756
0
LINE
8
BLACK
6
CONTINUOUS
10
4.4307257086614174
20
-3.9833426377952756
11
4.5688976377952759
21
-3.9832677165354329
0
LINE
8
BLACK
6
CONTINUOUS
10
4.5688976377952759
20
-3.9832677165354329
11
4.5692742913385826
21
-3.9833426377952756
0
LINE
8
BLACK
6
CONTINUOUS
10
4.4320125196850393
20
-3.9852357086614174
11
4.4320860236220474
21
-4.1053891338582673
0
LINE
8
BLACK
6
CONTINUOUS
10
4.4320860236220474
20
-4.1053891338582673
11
4.567987440944882
21
-4.1053154330708663
0
LINE
8
BLACK
6
CONTINUOUS
10
4.567987440944882
20
-4.1053154330708663
11
4.5679139370078738
21
-3.9851620078740155
0
LINE
8
BLACK
6
CONTINUOUS
10
4.5679139370078738
20
-3.9851620078740155
11
4.4320125196850393
21
-3.9852357086614174
0
LINE
8
BLACK
6
CONTINUOUS
10
5.3192742913385826
20
-3.9833426377952756
11
5.3198069685039373
21
-3.9838753149606299
0
LINE
8
BLACK
6
CONTINUOUS
10
5.3198069685039373
20
-3.9838753149606299
11
5.3198818897637796
21
-4.106299212598425
0
LINE
8
BLACK
6
CONTINUOUS
10
5.3198818897637796
20
-4.106299212598425
11
5.3198069685039373
21
-4.1066758661417326
0
LINE
8
BLACK
6
CONTINUOUS
10
5.3198069685039373
20
-4.1066758661417326
11
5.3192742913385826
21
-4.1072085433070864
0
LINE
8
BLACK
6
CONTINUOUS
10
5.3192742913385826
20
-4.1072085433070864
11
5.1811023622047241
21
-4.1072834645669287
0
LINE
8
BLACK
6
CONTINUOUS
10
5.1811023622047241
20
-4.1072834645669287
11
5.1807257086614174
21
-4.1072085433070864
0
LINE
8
BLACK
6
CONTINUOUS
10
5.1807257086614174
20
-4.1072085433070864
11
5.1801930314960627
21
-4.1066758661417326
0
LINE
8
BLACK
6
CONTINUOUS
10
5.1801930314960627
20
-4.1066758661417326
11
5.1801181102362204
21
-3.984251968503937
0
LINE
8
BLACK
6
CONTINUOUS
10
5.1801181102362204
20
-3.984251968503937
11
5.1801930314960627
21
-3.9838753149606299
0
LINE
8
BLACK
6
CONTINUOUS
10
5.1801930314960627
20
-3.9838753149606299
11
5.1807257086614174
21
-3.9833426377952756
0
LINE
8
BLACK
6
CONTINUOUS
10
5.1807257086614174
20
-3.9833426377952756
11
5.3188976377952759
21
-3.9832677165354329
0
LINE
8
BLACK
6
CONTINUOUS
10
5.3188976377952759
20
-3.9832677165354329
11
5.3192742913385826
21
-3.9833426377952756
0
LINE
8
BLACK
6
CONTINUOUS
10
5.1820125196850393
20
-3.9852357086614174
11
5.1820860236220474
21
-4.1053891338582673
0
LINE
8
BLACK
6
CONTINUOUS
10
5.1820860236220474
20
-4.1053891338582673
11
5.317987440944882
21
-4.1053154330708663
0
LINE
8
BLACK
6
CONTINUOUS
10
5.317987440944882
20
-4.1053154330708663
11
5.3179139370078738
21
-3.9851620078740155
0
LINE
8
BLACK
6
CONTINUOUS
10
5.3179139370078738
20
-3.9851620078740155
11
5.1820125196850393
21
-3.9852357086614174
0
LINE
8
BLACK
6
CONTINUOUS
10
6.0692742913385826
20
-3.9833426377952756
11
6.0698069685039373
21
-3.9838753149606299
0
LINE
8
BLACK
6
CONTINUOUS
10
6.0698069685039373
20
-3.9838753149606299
11
6.0698818897637796
21
-4.106299212598425
0
LINE
8
BLACK
6
CONTINUOUS
10
6.0698818897637796
20
-4.106299212598425
11
6.0698069685039373
21
-4.1066758661417326
0
LINE
8
BLACK
6
CONTINUOUS
10
6.0698069685039373
20
-4.1066758661417326
11
6.0692742913385826
21
-4.1072085433070864
0
LINE
8
BLACK
6
CONTINUOUS
10
6.0692742913385826
20
-4.1072085433070864
11
5.9311023622047241
21
-4.1072834645669287
0
LINE
8
BLACK
6
CONTINUOUS
10
5.9311023622047241
20
-4.1072834645669287
11
5.9307257086614174
21
-4.1072085433070864
0
LINE
8
BLACK
6
CONTINUOUS
10
5.9307257086614174
20
-4.1072085433070864
11
5.9301930314960627
21
-4.1066758661417326
0
LINE
8
BLACK
6
CONTINUOUS
10
5.9301930314960627
20
-4.1066758661417326
11
5.9301181102362204
21
-3.984251968503937
0
LINE
8
BLACK
6
CONTINUOUS
10
5.9301181102362204
20
-3.984251968503937
11
5.9301930314960627
21
-3.9838753149606299
0
LINE
8
BLACK
6
CONTINUOUS
10
5.9301930314960627
20
-3.9838753149606299
11
5.9307257086614174
21
-3.9833426377952756
0
LINE
8
BLACK
6
CONTINUOUS
10
5.9307257086614174
20
-3.9833426377952756
11
6.068897637795275
21
-3.9832677165354329
0
LINE
8
BLACK
6
CONTINUOUS
10
6.068897637795275
20
-3.9832677165354329
11
6.0692742913385826
21
-3.9833426377952756
0
LINE
8
BLACK
6
CONTINUOUS
10
5.9320125196850393
20
-3.9852357086614174
11
5.9320860236220474
21
-4.1053891338582673
0
LINE
8
BLACK
6
CONTINUOUS
10
5.9320860236220474
20
-4.1053891338582673
11
6.067987440944882
21
-4.1053154330708663
0
LINE
8
BLACK
6
CONTINUOUS
10
6.067987440944882
20
-4.1053154330708663
11
6.0679139370078738
21
-3.9851620078740155
0
LINE
8
BLACK
6
CONTINUOUS
10
6.0679139370078738
20
-3.9851620078740155
11
5.9320125196850393
21
-3.9852357086614174
0
LINE
8
BLACK
6
CONTINUOUS
10
6.8192742913385826
20
-3.9833426377952756
11
6.8198069685039364
21
-3.9838753149606299
0
LINE
8
BLACK
6
CONTINUOUS
10
6.8198069685039364
20
-3.9838753149606299
11
6.8198818897637796
21
-4.106299212598425
0
LINE
8
BLACK
6
CONTINUOUS
10
6.8198818897637796
20
-4.106299212598425
11
6.8198069685039364
21
-4.1066758661417326
0
LINE
8
BLACK
6
CONTINUOUS
10
6.8198069685039364
20
-4.1066758661417326
11
6.8192742913385826
21
-4.1072085433070864
0
LINE
8
BLACK
6
CONTINUOUS
10
6.8192742913385826
20
-4.1072085433070864
11
6.6811023622047241
21
-4.1072834645669287
0
LINE
8
BLACK
6
CONTINUOUS
10
6.6811023622047241
20
-4.1072834645669287
11
6.6807257086614174
21
-4.1072085433070864
0
LINE
8
BLACK
6
CONTINUOUS
10
6.6807257086614174
20
-4.1072085433070864
11
6.6801930314960627
21
-4.1066758661417326
0
LINE
8
BLACK
6
CONTINUOUS
10
6.6801930314960627
20
-4.1066758661417326
11
6.6801181102362204
21
-3.984251968503937
0
LINE
8
BLACK
6
CONTINUOUS
10
6.6801181102362204
20
-3.984251968503937
11
6.6801930314960627
21
-3.9838753149606299
0
LINE
8
BLACK
6
CONTINUOUS
10
6.6801930314960627
20
-3.9838753149606299
11
6.6807257086614174
21
-3.9833426377952756
0
LINE
8
BLACK
6
CONTINUOUS
10
6.6807257086614174
20
-3.9833426377952756
11
6.818897637795275
21
-3.9832677165354329
0
LINE
8
BLACK
6
CONTINUOUS
10
6.818897637795275
20
-3.9832677165354329
11
6.8192742913385826
21
-3.9833426377952756
0
LINE
8
BLACK
6
CONTINUOUS
10
6.6820125196850393
20
-3.9852357086614174
11
6.6820860236220474
21
-4.1053891338582673
0
LINE
8
BLACK
6
CONTINUOUS
10
6.6820860236220474
20
-4.1053891338582673
11
6.817987440944882
21
-4.1053154330708663
0
LINE
8
BLACK
6
CONTINUOUS
10
6.817987440944882
20
-4.1053154330708663
11
6.8179139370078738
21
-3.9851620078740155
0
LINE
8
BLACK
6
CONTINUOUS
10
6.8179139370078738
20
-3.9851620078740155
11
6.6820125196850393
21
-3.9852357086614174
0
LINE
8
BLACK
6
CONTINUOUS
10
7.5692742913385826
20
-3.9833426377952756
11
7.5698069685039364
21
-3.9838753149606299
0
LINE
8
BLACK
6
CONTINUOUS
10
7.5698069685039364
20
-3.9838753149606299
11
7.5698818897637796
21
-4.106299212598425
0
LINE
8
BLACK
6
CONTINUOUS
10
7.5698818897637796
20
-4.106299212598425
11
7.5698069685039364
21
-4.1066758661417326
0
LINE
8
BLACK
6
CONTINUOUS
10
7.5698069685039364
20
-4.1066758661417326
11
7.5692742913385826
21
-4.1072085433070864
0
LINE
8
BLACK
6
CONTINUOUS
10
7.5692742913385826
20
-4.1072085433070864
11
7.4311023622047241
21
-4.1072834645669287
0
LINE
8
BLACK
6
CONTINUOUS
10
7.4311023622047241
20
-4.1072834645669287
11
7.4307257086614174
21
-4.1072085433070864
0
LINE
8
BLACK
6
CONTINUOUS
10
7.4307257086614174
20
-4.1072085433070864
11
7.4301930314960627
21
-4.1066758661417326
0
LINE
8
BLACK
6
CONTINUOUS
10
7.4301930314960627
20
-4.1066758661417326
11
7.4301181102362204
21
-3.984251968503937
0
LINE
8
BLACK
6
CONTINUOUS
10
7.4301181102362204
20
-3.984251968503937
11
7.4301930314960627
21
-3.9838753149606299
0
LINE
8
BLACK
6
CONTINUOUS
10
7.4301930314960627
20
-3.9838753149606299
11
7.4307257086614174
21
-3.9833426377952756
0
LINE
8
BLACK
6
CONTINUOUS
10
7.4307257086614174
20
-3.9833426377952756
11
7.568897637795275
21
-3.9832677165354329
0
LINE
8
BLACK
6
CONTINUOUS
10
7.568897637795275
20
-3.9832677165354329
11
7.5692742913385826
21
-3.9833426377952756
0
LINE
8
BLACK
6
CONTINUOUS
10
7.4320125196850393
20
-3.9852357086614174
11
7.4320860236220474
21
-4.1053891338582673
0
LINE
8
BLACK
6
CONTINUOUS
10
7.4320860236220474
20
-4.1053891338582673
11
7.567987440944882
21
-4.1053154330708663
0
LINE
8
BLACK
6
CONTINUOUS
10
7.567987440944882
20
-4.1053154330708663
11
7.5679139370078738
21
-3.9851620078740155
0
LINE
8
BLACK
6
CONTINUOUS
10
7.5679139370078738
20
-3.9851620078740155
11
7.4320125196850393
21
-3.9852357086614174
0
LINE
8
BLACK
6
CONTINUOUS
10
8.3192742913385818
20
-3.9833426377952756
11
8.3198069685039364
21
-3.9838753149606299
0
LINE
8
BLACK
6
CONTINUOUS
10
8.3198069685039364
20
-3.9838753149606299
11
8.3198818897637796
21
-4.106299212598425
0
LINE
8
BLACK
6
CONTINUOUS
10
8.3198818897637796
20
-4.106299212598425
11
8.3198069685039364
21
-4.1066758661417326
0
LINE
8
BLACK
6
CONTINUOUS
10
8.3198069685039364
20
-4.1066758661417326
11
8.3192742913385818
21
-4.1072085433070864
0
LINE
8
BLACK
6
CONTINUOUS
10
8.3192742913385818
20
-4.1072085433070864
11
8.1811023622047241
21
-4.1072834645669287
0
LINE
8
BLACK
6
CONTINUOUS
10
8.1811023622047241
20
-4.1072834645669287
11
8.1807257086614165
21
-4.1072085433070864
0
LINE
8
BLACK
6
CONTINUOUS
10
8.1807257086614165
20
-4.1072085433070864
11
8.1801930314960636
21
-4.1066758661417326
0
LINE
8
BLACK
6
CONTINUOUS
10
8.1801930314960636
20
-4.1066758661417326
11
8.1801181102362204
21
-3.984251968503937
0
LINE
8
BLACK
6
CONTINUOUS
10
8.1801181102362204
20
-3.984251968503937
11
8.1801930314960636
21
-3.9838753149606299
0
LINE
8
BLACK
6
CONTINUOUS
10
8.1801930314960636
20
-3.9838753149606299
11
8.1807257086614165
21
-3.9833426377952756
0
LINE
8
BLACK
6
CONTINUOUS
10
8.1807257086614165
20
-3.9833426377952756
11
8.3188976377952759
21
-3.9832677165354329
0
LINE
8
BLACK
6
CONTINUOUS
10
8.3188976377952759
20
-3.9832677165354329
11
8.3192742913385818
21
-3.9833426377952756
0
LINE
8
BLACK
6
CONTINUOUS
10
8.1820125196850384
20
-3.9852357086614174
11
8.1820860236220465
21
-4.1053891338582673
0
LINE
8
BLACK
6
CONTINUOUS
10
8.1820860236220465
20
-4.1053891338582673
11
8.3179874409448811
21
-4.1053154330708663
0
LINE
8
BLACK
6
CONTINUOUS
10
8.3179874409448811
20
-4.1053154330708663
11
8.317913937007873
21
-3.9851620078740155
0
LINE
8
BLACK
6
CONTINUOUS
10
8.317913937007873
20
-3.9851620078740155
11
8.1820125196850384
21
-3.9852357086614174
0
LINE
8
BLACK
6
CONTINUOUS
10
9.0692742913385818
20
-3.9833426377952756
11
9.0698069685039364
21
-3.9838753149606299
0
LINE
8
BLACK
6
CONTINUOUS
10
9.0698069685039364
20
-3.9838753149606299
11
9.0698818897637796
21
-4.106299212598425
0
LINE
8
BLACK
6
CONTINUOUS
10
9.0698818897637796
20
-4.106299212598425
11
9.0698069685039364
21
-4.1066758661417326
0
LINE
8
BLACK
6
CONTINUOUS
10
9.0698069685039364
20
-4.1066758661417326
11
9.0692742913385818
21
-4.1072085433070864
0
LINE
8
BLACK
6
CONTINUOUS
10
9.0692742913385818
20
-4.1072085433070864
11
8.9311023622047241
21
-4.1072834645669287
0
LINE
8
BLACK
6
CONTINUOUS
10
8.9311023622047241
20
-4.1072834645669287
11
8.9307257086614165
21
-4.1072085433070864
0
LINE
8
BLACK
6
CONTINUOUS
10
8.9307257086614165
20
-4.1072085433070864
11
8.9301930314960636
21
-4.1066758661417326
0
LINE
8
BLACK
6
CONTINUOUS
10
8.9301930314960636
20
-4.1066758661417326
11
8.9301181102362204
21
-3.984251968503937
0
LINE
8
BLACK
6
CONTINUOUS
10
8.9301181102362204
20
-3.984251968503937
11
8.9301930314960636
21
-3.9838753149606299
0
LINE
8
BLACK
6
CONTINUOUS
10
8.9301930314960636
20
-3.9838753149606299
11
8.9307257086614165
21
-3.9833426377952756
0
LINE
8
BLACK
6
CONTINUOUS
10
8.9307257086614165
20
-3.9833426377952756
11
9.0688976377952759
21
-3.9832677165354329
0
LINE
8
BLACK
6
CONTINUOUS
10
9.0688976377952759
20
-3.9832677165354329
11
9.0692742913385818
21
-3.9833426377952756
0
LINE
8
BLACK
6
CONTINUOUS
10
8.9320125196850384
20
-3.9852357086614174
11
8.9320860236220465
21
-4.1053891338582673
0
LINE
8
BLACK
6
CONTINUOUS
10
8.9320860236220465
20
-4.1053891338582673
11
9.0679874409448811
21
-4.1053154330708663
0
LINE
8
BLACK
6
CONTINUOUS
10
9.0679874409448811
20
-4.1053154330708663
11
9.067913937007873
21
-3.9851620078740155
0
LINE
8
BLACK
6
CONTINUOUS
10
9.067913937007873
20
-3.9851620078740155
11
8.9320125196850384
21
-3.9852357086614174
0
LINE
8
BLACK
6
CONTINUOUS
10
9.8192742913385818
20
-3.9833426377952756
11
9.8198069685039364
21
-3.9838753149606299
0
LINE
8
BLACK
6
CONTINUOUS
10
9.8198069685039364
20
-3.9838753149606299
11
9.8198818897637796
21
-4.106299212598425
0
LINE
8
BLACK
6
CONTINUOUS
10
9.8198818897637796
20
-4.106299212598425
11
9.8198069685039364
21
-4.1066758661417326
0
LINE
8
BLACK
6
CONTINUOUS
10
9.8198069685039364
20
-4.1066758661417326
11
9.8192742913385818
21
-4.1072085433070864
0
LINE
8
BLACK
6
CONTINUOUS
10
9.8192742913385818
20
-4.1072085433070864
11
9.6811023622047241
21
-4.1072834645669287
0
LINE
8
BLACK
6
CONTINUOUS
10
9.6811023622047241
20
-4.1072834645669287
11
9.6807257086614165
21
-4.1072085433070864
0
LINE
8
BLACK
6
CONTINUOUS
10
9.6807257086614165
20
-4.1072085433070864
11
9.6801930314960636
21
-4.1066758661417326
0
LINE
8
BLACK
6
CONTINUOUS
10
9.6801930314960636
20
-4.1066758661417326
11
9.6801181102362204
21
-3.984251968503937
0
LINE
8
BLACK
6
CONTINUOUS
10
9.6801181102362204
20
-3.984251968503937
11
9.6801930314960636
21
-3.9838753149606299
0
LINE
8
BLACK
6
CONTINUOUS
10
9.6801930314960636
20
-3.9838753149606299
11
9.6807257086614165
21
-3.9833426377952756
0
LINE
8
BLACK
6
CONTINUOUS
10
9.6807257086614165
20
-3.9833426377952756
11
9.8188976377952759
21
-3.9832677165354329
0
LINE
8
BLACK
6
CONTINUOUS
10
9.8188976377952759
20
-3.9832677165354329
11
9.8192742913385818
21
-3.9833426377952756
0
LINE
8
BLACK
6
CONTINUOUS
10
9.6820125196850384
20
-3.9852357086614174
11
9.6820860236220465
21
-4.1053891338582673
0
LINE
8
BLACK
6
CONTINUOUS
10
9.6820860236220465
20
-4.1053891338582673
11
9.8179874409448811
21
-4.1053154330708663
0
LINE
8
BLACK
6
CONTINUOUS
10
9.8179874409448811
20
-4.1053154330708663
11
9.817913937007873
21
-3.9851620078740155
0
LINE
8
BLACK
6
CONTINUOUS
10
9.817913937007873
20
-3.9851620078740155
11
9.6820125196850384
21
-3.9852357086614174
0
LINE
8
BLACK
6
CONTINUOUS
10
10.5692742913385818
20
-3.9833426377952756
11
10.5698069685039364
21
-3.9838753149606299
0
LINE
8
BLACK
6
CONTINUOUS
10
10.5698069685039364
20
-3.9838753149606299
11
10.5698818897637796
21
-4.106299212598425
0
LINE
8
BLACK
6
CONTINUOUS
10
10.5698818897637796
20
-4.106299212598425
11
10.5698069685039364
21
-4.1066758661417326
0
LINE
8
BLACK
6
CONTINUOUS
10
10.5698069685039364
20
-4.1066758661417326
11
10.5692742913385818
21
-4.1072085433070864
0
LINE
8
BLACK
6
CONTINUOUS
10
10.5692742913385818
20
-4.1072085433070864
11
10.4311023622047241
21
-4.1072834645669287
0
LINE
8
BLACK
6
CONTINUOUS
10
10.4311023622047241
20
-4.1072834645669287
11
10.4307257086614165
21
-4.1072085433070864
0
LINE
8
BLACK
6
CONTINUOUS
10
10.4307257086614165
20
-4.1072085433070864
11
10.4301930314960636
21
-4.1066758661417326
0
LINE
8
BLACK
6
CONTINUOUS
10
10.4301930314960636
20
-4.1066758661417326
11
10.4301181102362204
21
-3.984251968503937
0
LINE
8
BLACK
6
CONTINUOUS
10
10.4301181102362204
20
-3.984251968503937
11
10.4301930314960636
21
-3.9838753149606299
0
LINE
8
BLACK
6
CONTINUOUS
10
10.4301930314960636
20
-3.9838753149606299
11
10.4307257086614165
21
-3.9833426377952756
0
LINE
8
BLACK
6
CONTINUOUS
10
10.4307257086614165
20
-3.9833426377952756
11
10.5688976377952759
21
-3.9832677165354329
0
LINE
8
BLACK
6
CONTINUOUS
10
10.5688976377952759
20
-3.9832677165354329
11
10.5692742913385818
21
-3.9833426377952756
0
LINE
8
BLACK
6
CONTINUOUS
10
10.4320125196850384
20
-3.9852357086614174
11
10.4320860236220465
21
-4.1053891338582673
0
LINE
8
BLACK
6
CONTINUOUS
10
10.4320860236220465
20
-4.1053891338582673
11
10.5679874409448811
21
-4.1053154330708663
0
LINE
8
BLACK
6
CONTINUOUS
10
10.5679874409448811
20
-4.1053154330708663
11
10.567913937007873
21
-3.9851620078740155
0
LINE
8
BLACK
6
CONTINUOUS
10
10.567913937007873
20
-3.9851620078740155
11
10.4320125196850384
21
-3.9852357086614174
0
LINE
8
BLACK
6
CONTINUOUS
10
11.3192742913385818
20
-3.9833426377952756
11
11.3198069685039364
21
-3.9838753149606299
0
LINE
8
BLACK
6
CONTINUOUS
10
11.3198069685039364
20
-3.9838753149606299
11
11.3198818897637796
21
-4.106299212598425
0
LINE
8
BLACK
6
CONTINUOUS
10
11.3198818897637796
20
-4.106299212598425
11
11.3198069685039364
21
-4.1066758661417326
0
LINE
8
BLACK
6
CONTINUOUS
10
11.3198069685039364
20
-4.1066758661417326
11
11.3192742913385818
21
-4.1072085433070864
0
LINE
8
BLACK
6
CONTINUOUS
10
11.3192742913385818
20
-4.1072085433070864
11
11.1811023622047241
21
-4.1072834645669287
0
LINE
8
BLACK
6
CONTINUOUS
10
11.1811023622047241
20
-4.1072834645669287
11
11.1807257086614165
21
-4.1072085433070864
0
LINE
8
BLACK
6
CONTINUOUS
10
11.1807257086614165
20
-4.1072085433070864
11
11.1801930314960636
21
-4.1066758661417326
0
LINE
8
BLACK
6
CONTINUOUS
10
11.1801930314960636
20
-4.1066758661417326
11
11.1801181102362204
21
-3.984251968503937
0
LINE
8
BLACK
6
CONTINUOUS
10
11.1801181102362204
20
-3.984251968503937
11
11.1801930314960636
21
-3.9838753149606299
0
LINE
8
BLACK
6
CONTINUOUS
10
11.1801930314960636
20
-3.9838753149606299
11
11.1807257086614165
21
-3.9833426377952756
0
LINE
8
BLACK
6
CONTINUOUS
10
11.1807257086614165
20
-3.9833426377952756
11
11.3188976377952759
21
-3.9832677165354329
0
LINE
8
BLACK
6
CONTINUOUS
10
11.3188976377952759
20
-3.9832677165354329
11
11.3192742913385818
21
-3.9833426377952756
0
LINE
8
BLACK
6
CONTINUOUS
10
11.1820125196850384
20
-3.9852357086614174
11
11.1820860236220465
21
-4.1053891338582673
0
LINE
8
BLACK
6
CONTINUOUS
10
11.1820860236220465
20
-4.1053891338582673
11
11.3179874409448811
21
-4.1053154330708663
0
LINE
8
BLACK
6
CONTINUOUS
10
11.3179874409448811
20
-4.1053154330708663
11
11.317913937007873
21
-3.9851620078740155
0
LINE
8
BLACK
6
CONTINUOUS
10
11.317913937007873
20
-3.9851620078740155
11
11.1820125196850384
21
-3.9852357086614174
0
LINE
8
BLACK
6
CONTINUOUS
10
12.0692742913385818
20
-3.9833426377952756
11
12.0698069685039364
21
-3.9838753149606299
0
LINE
8
BLACK
6
CONTINUOUS
10
12.0698069685039364
20
-3.9838753149606299
11
12.0698818897637796
21
-4.106299212598425
0
LINE
8
BLACK
6
CONTINUOUS
10
12.0698818897637796
20
-4.106299212598425
11
12.0698069685039364
21
-4.1066758661417326
0
LINE
8
BLACK
6
CONTINUOUS
10
12.0698069685039364
20
-4.1066758661417326
11
12.0692742913385818
21
-4.1072085433070864
0
LINE
8
BLACK
6
CONTINUOUS
10
12.0692742913385818
20
-4.1072085433070864
11
11.9311023622047241
21
-4.1072834645669287
0
LINE
8
BLACK
6
CONTINUOUS
10
11.9311023622047241
20
-4.1072834645669287
11
11.9307257086614165
21
-4.1072085433070864
0
LINE
8
BLACK
6
CONTINUOUS
10
11.9307257086614165
20
-4.1072085433070864
11
11.9301930314960636
21
-4.1066758661417326
0
LINE
8
BLACK
6
CONTINUOUS
10
11.9301930314960636
20
-4.1066758661417326
11
11.9301181102362204
21
-3.984251968503937
0
LINE
8
BLACK
6
CONTINUOUS
10
11.9301181102362204
20
-3.984251968503937
11
11.9301930314960636
21
-3.9838753149606299
0
LINE
8
BLACK
6
CONTINUOUS
10
11.9301930314960636
20
-3.9838753149606299
11
11.9307257086614165
21
-3.9833426377952756
0
LINE
8
BLACK
6
CONTINUOUS
10
11.9307257086614165
20
-3.9833426377952756
11
12.0688976377952759
21
-3.9832677165354329
0
LINE
8
BLACK
6
CONTINUOUS
10
12.0688976377952759
20
-3.9832677165354329
11
12.0692742913385818
21
-3.9833426377952756
0
LINE
8
BLACK
6
CONTINUOUS
10
11.9320125196850384
20
-3.9852357086614174
11
11.9320860236220465
21
-4.1053891338582673
0
LINE
8
BLACK
6
CONTINUOUS
10
11.9320860236220465
20
-4.1053891338582673
11
12.0679874409448811
21
-4.1053154330708663
0
LINE
8
BLACK
6
CONTINUOUS
10
12.0679874409448811
20
-4.1053154330708663
11
12.067913937007873
21
-3.9851620078740155
0
LINE
8
BLACK
6
CONTINUOUS
10
12.067913937007873
20
-3.9851620078740155
11
11.9320125196850384
21
-3.9852357086614174
0
LINE
8
BLACK
6
CONTINUOUS
10
13.1192742913385825
20
-3.9833426377952756
11
13.1198069685039371
21
-3.9838753149606299
0
LINE
8
BLACK
6
CONTINUOUS
10
13.1198069685039371
20
-3.9838753149606299
11
13.1198818897637786
21
-4.106299212598425
0
LINE
8
BLACK
6
CONTINUOUS
10
13.1198818897637786
20
-4.106299212598425
11
13.1198069685039371
21
-4.1066758661417326
0
LINE
8
BLACK
6
CONTINUOUS
10
13.1198069685039371
20
-4.1066758661417326
11
13.1192742913385825
21
-4.1072085433070864
0
LINE
8
BLACK
6
CONTINUOUS
10
13.1192742913385825
20
-4.1072085433070864
11
12.9811023622047248
21
-4.1072834645669287
0
LINE
8
BLACK
6
CONTINUOUS
10
12.9811023622047248
20
-4.1072834645669287
11
12.9807257086614172
21
-4.1072085433070864
0
LINE
8
BLACK
6
CONTINUOUS
10
12.9807257086614172
20
-4.1072085433070864
11
12.9801930314960625
21
-4.1066758661417326
0
LINE
8
BLACK
6
CONTINUOUS
10
12.9801930314960625
20
-4.1066758661417326
11
12.9801181102362193
21
-3.984251968503937
0
LINE
8
BLACK
6
CONTINUOUS
10
12.9801181102362193
20
-3.984251968503937
11
12.9801930314960625
21
-3.9838753149606299
0
LINE
8
BLACK
6
CONTINUOUS
10
12.9801930314960625
20
-3.9838753149606299
11
12.9807257086614172
21
-3.9833426377952756
0
LINE
8
BLACK
6
CONTINUOUS
10
12.9807257086614172
20
-3.9833426377952756
11
13.1188976377952748
21
-3.9832677165354329
0
LINE
8
BLACK
6
CONTINUOUS
10
13.1188976377952748
20
-3.9832677165354329
11
13.1192742913385825
21
-3.9833426377952756
0
LINE
8
BLACK
6
CONTINUOUS
10
12.9820125196850391
20
-3.9852357086614174
11
12.9820860236220472
21
-4.1053891338582673
0
LINE
8
BLACK
6
CONTINUOUS
10
12.9820860236220472
20
-4.1053891338582673
11
13.1179874409448818
21
-4.1053154330708663
0
LINE
8
BLACK
6
CONTINUOUS
10
13.1179874409448818
20
-4.1053154330708663
11
13.1179139370078737
21
-3.9851620078740155
0
LINE
8
BLACK
6
CONTINUOUS
10
13.1179139370078737
20
-3.9851620078740155
11
12.9820125196850391
21
-3.9852357086614174
0
LINE
8
BLACK
6
CONTINUOUS
10
13.8692742913385825
20
-3.9833426377952756
11
13.8698069685039371
21
-3.9838753149606299
0
LINE
8
BLACK
6
CONTINUOUS
10
13.8698069685039371
20
-3.9838753149606299
11
13.8698818897637786
21
-4.106299212598425
0
LINE
8
BLACK
6
CONTINUOUS
10
13.8698818897637786
20
-4.106299212598425
11
13.8698069685039371
21
-4.1066758661417326
0
LINE
8
BLACK
6
CONTINUOUS
10
13.8698069685039371
20
-4.1066758661417326
11
13.8692742913385825
21
-4.1072085433070864
0
LINE
8
BLACK
6
CONTINUOUS
10
13.8692742913385825
20
-4.1072085433070864
11
13.7311023622047248
21
-4.1072834645669287
0
LINE
8
BLACK
6
CONTINUOUS
10
13.7311023622047248
20
-4.1072834645669287
11
13.7307257086614172
21
-4.1072085433070864
0
LINE
8
BLACK
6
CONTINUOUS
10
13.7307257086614172
20
-4.1072085433070864
11
13.7301930314960625
21
-4.1066758661417326
0
LINE
8
BLACK
6
CONTINUOUS
10
13.7301930314960625
20
-4.1066758661417326
11
13.7301181102362193
21
-3.984251968503937
0
LINE
8
BLACK
6
CONTINUOUS
10
13.7301181102362193
20
-3.984251968503937
11
13.7301930314960625
21
-3.9838753149606299
0
LINE
8
BLACK
6
CONTINUOUS
10
13.7301930314960625
20
-3.9838753149606299
11
13.7307257086614172
21
-3.9833426377952756
0
LINE
8
BLACK
6
CONTINUOUS
10
13.7307257086614172
20
-3.9833426377952756
11
13.8688976377952748
21
-3.9832677165354329
0
LINE
8
BLACK
6
CONTINUOUS
10
13.8688976377952748
20
-3.9832677165354329
11
13.8692742913385825
21
-3.9833426377952756
0
LINE
8
BLACK
6
CONTINUOUS
10
13.7320125196850391
20
-3.9852357086614174
11
13.7320860236220472
21
-4.1053891338582673
0
LINE
8
BLACK
6
CONTINUOUS
10
13.7320860236220472
20
-4.1053891338582673
11
13.8679874409448818
21
-4.1053154330708663
0
LINE
8
BLACK
6
CONTINUOUS
10
13.8679874409448818
20
-4.1053154330708663
11
13.8679139370078737
21
-3.9851620078740155
0
LINE
8
BLACK
6
CONTINUOUS
10
13.8679139370078737
20
-3.9851620078740155
11
13.7320125196850391
21
-3.9852357086614174
0
LINE
8
BLACK
6
CONTINUOUS
10
14.6192742913385825
20
-3.9833426377952756
11
14.6198069685039371
21
-3.9838753149606299
0
LINE
8
BLACK
6
CONTINUOUS
10
14.6198069685039371
20
-3.9838753149606299
11
14.6198818897637786
21
-4.106299212598425
0
LINE
8
BLACK
6
CONTINUOUS
10
14.6198818897637786
20
-4.106299212598425
11
14.6198069685039371
21
-4.1066758661417326
0
LINE
8
BLACK
6
CONTINUOUS
10
14.6198069685039371
20
-4.1066758661417326
11
14.6192742913385825
21
-4.1072085433070864
0
LINE
8
BLACK
6
CONTINUOUS
10
14.6192742913385825
20
-4.1072085433070864
11
14.4811023622047248
21
-4.1072834645669287
0
LINE
8
BLACK
6
CONTINUOUS
10
14.4811023622047248
20
-4.1072834645669287
11
14.4807257086614172
21
-4.1072085433070864
0
LINE
8
BLACK
6
CONTINUOUS
10
14.4807257086614172
20
-4.1072085433070864
11
14.4801930314960625
21
-4.1066758661417326
0
LINE
8
BLACK
6
CONTINUOUS
10
14.4801930314960625
20
-4.1066758661417326
11
14.4801181102362193
21
-3.984251968503937
0
LINE
8
BLACK
6
CONTINUOUS
10
14.4801181102362193
20
-3.984251968503937
11
14.4801930314960625
21
-3.9838753149606299
0
LINE
8
BLACK
6
CONTINUOUS
10
14.4801930314960625
20
-3.9838753149606299
11
14.4807257086614172
21
-3.9833426377952756
0
LINE
8
BLACK
6
CONTINUOUS
10
14.4807257086614172
20
-3.9833426377952756
11
14.6188976377952748
21
-3.9832677165354329
0
LINE
8
BLACK
6
CONTINUOUS
10
14.6188976377952748
20
-3.9832677165354329
11
14.6192742913385825
21
-3.9833426377952756
0
LINE
8
BLACK
6
CONTINUOUS
10
14.4820125196850391
20
-3.9852357086614174
11
14.4820860236220472
21
-4.1053891338582673
0
LINE
8
BLACK
6
CONTINUOUS
10
14.4820860236220472
20
-4.1053891338582673
11
14.6179874409448818
21
-4.1053154330708663
0
LINE
8
BLACK
6
CONTINUOUS
10
14.6179874409448818
20
-4.1053154330708663
11
14.6179139370078737
21
-3.9851620078740155
0
LINE
8
BLACK
6
CONTINUOUS
10
14.6179139370078737
20
-3.9851620078740155
11
14.4820125196850391
21
-3.9852357086614174
0
LINE
8
BLACK
6
CONTINUOUS
10
13.4306722834645669
20
-3.3067192913385828
11
13.435873110236221
21
-3.3085391338582677
0
LINE
8
BLACK
6
CONTINUOUS
10
13.435873110236221
20
-3.3085391338582677
11
13.440538622047244
21
-3.3114706692913387
0
LINE
8
BLACK
6
CONTINUOUS
10
13.440538622047244
20
-3.3114706692913387
11
13.4444348425196853
21
-3.3153668897637796
0
LINE
8
BLACK
6
CONTINUOUS
10
13.4444348425196853
20
-3.3153668897637796
11
13.4473663779527559
21
-3.3200324015748031
0
LINE
8
BLACK
6
CONTINUOUS
10
13.4473663779527559
20
-3.3200324015748031
11
13.4491862204724413
21
-3.3252332283464567
0
LINE
8
BLACK
6
CONTINUOUS
10
13.4491862204724413
20
-3.3252332283464567
11
13.4498031496062982
21
-3.3307086614173227
0
LINE
8
BLACK
6
CONTINUOUS
10
13.4498031496062982
20
-3.3307086614173227
11
13.449728346456693
21
-3.3309387795275591
0
LINE
8
BLACK
6
CONTINUOUS
10
13.449728346456693
20
-3.3309387795275591
11
13.4498031496062982
21
-3.6692913385826769
0
LINE
8
BLACK
6
CONTINUOUS
10
13.4498031496062982
20
-3.6692913385826769
11
13.4491862204724413
21
-3.6747667716535433
0
LINE
8
BLACK
6
CONTINUOUS
10
13.4491862204724413
20
-3.6747667716535433
11
13.4473663779527559
21
-3.6799675984251969
0
LINE
8
BLACK
6
CONTINUOUS
10
13.4473663779527559
20
-3.6799675984251969
11
13.4444348425196853
21
-3.6846331102362204
0
LINE
8
BLACK
6
CONTINUOUS
10
13.4444348425196853
20
-3.6846331102362204
11
13.440538622047244
21
-3.6885293307086613
0
LINE
8
BLACK
6
CONTINUOUS
10
13.440538622047244
20
-3.6885293307086613
11
13.435873110236221
21
-3.6914608661417323
0
LINE
8
BLACK
6
CONTINUOUS
10
13.435873110236221
20
-3.6914608661417323
11
13.4306722834645669
21
-3.6932807086614172
0
LINE
8
BLACK
6
CONTINUOUS
10
13.4306722834645669
20
-3.6932807086614172
11
13.4251968503937
21
-3.6938976377952755
0
LINE
8
BLACK
6
CONTINUOUS
10
13.4251968503937
20
-3.6938976377952755
11
13.419721417322835
21
-3.6932807086614172
0
LINE
8
BLACK
6
CONTINUOUS
10
13.419721417322835
20
-3.6932807086614172
11
13.4145205905511808
21
-3.6914608661417323
0
LINE
8
BLACK
6
CONTINUOUS
10
13.4145205905511808
20
-3.6914608661417323
11
13.4098550787401578
21
-3.6885293307086613
0
LINE
8
BLACK
6
CONTINUOUS
10
13.4098550787401578
20
-3.6885293307086613
11
13.4059588582677165
21
-3.6846331102362204
0
LINE
8
BLACK
6
CONTINUOUS
10
13.4059588582677165
20
-3.6846331102362204
11
13.4030273228346459
21
-3.6799675984251969
0
LINE
8
BLACK
6
CONTINUOUS
10
13.4030273228346459
20
-3.6799675984251969
11
13.4012074803149606
21
-3.6747667716535433
0
LINE
8
BLACK
6
CONTINUOUS
10
13.4012074803149606
20
-3.6747667716535433
11
13.4005905511811019
21
-3.6692913385826769
0
LINE
8
BLACK
6
CONTINUOUS
10
13.4005905511811019
20
-3.6692913385826769
11
13.4006653149606301
21
-3.6690611811023621
0
LINE
8
BLACK
6
CONTINUOUS
10
13.4006653149606301
20
-3.6690611811023621
11
13.4005905511811019
21
-3.3307086614173227
0
LINE
8
BLACK
6
CONTINUOUS
10
13.4005905511811019
20
-3.3307086614173227
11
13.4012074803149606
21
-3.3252332283464567
0
LINE
8
BLACK
6
CONTINUOUS
10
13.4012074803149606
20
-3.3252332283464567
11
13.4030273228346459
21
-3.3200324015748031
0
LINE
8
BLACK
6
CONTINUOUS
10
13.4030273228346459
20
-3.3200324015748031
11
13.4059588582677165
21
-3.3153668897637796
0
LINE
8
BLACK
6
CONTINUOUS
10
13.4059588582677165
20
-3.3153668897637796
11
13.4098550787401578
21
-3.3114706692913387
0
LINE
8
BLACK
6
CONTINUOUS
10
13.4098550787401578
20
-3.3114706692913387
11
13.4145205905511808
21
-3.3085391338582677
0
LINE
8
BLACK
6
CONTINUOUS
10
13.4145205905511808
20
-3.3085391338582677
11
13.419721417322835
21
-3.3067192913385828
0
LINE
8
BLACK
6
CONTINUOUS
10
13.419721417322835
20
-3.3067192913385828
11
13.4251968503937
21
-3.3061023622047245
0
LINE
8
BLACK
6
CONTINUOUS
10
13.4251968503937
20
-3.3061023622047245
11
13.4306722834645669
21
-3.3067192913385828
0
LINE
8
BLACK
6
CONTINUOUS
10
13.4226461811023619
20
-3.3080708661417324
11
13.417672755905512
21
-3.3092060236220471
0
LINE
8
BLACK
6
CONTINUOUS
10
13.417672755905512
20
-3.3092060236220471
11
13.4130766141732281
21
-3.3114194094488187
0
LINE
8
BLACK
6
CONTINUOUS
10
13.4130766141732281
20
-3.3114194094488187
11
13.409088228346457
21
-3.3146000393700787
0
LINE
8
BLACK
6
CONTINUOUS
10
13.409088228346457
20
-3.3146000393700787
11
13.4059075984251965
21
-3.3185884251968503
0
LINE
8
BLACK
6
CONTINUOUS
10
13.4059075984251965
20
-3.3185884251968503
11
13.4036942125984258
21
-3.3231845669291338
0
LINE
8
BLACK
6
CONTINUOUS
10
13.4036942125984258
20
-3.3231845669291338
11
13.4025590551181093
21
-3.3281579921259841
0
LINE
8
BLACK
6
CONTINUOUS
10
13.4025590551181093
20
-3.3281579921259841
11
13.4025590551181093
21
-3.3307086614173227
0
LINE
8
BLACK
6
CONTINUOUS
10
13.4025590551181093
20
-3.3307086614173227
11
13.4024842519685041
21
-3.3309387795275591
0
LINE
8
BLACK
6
CONTINUOUS
10
13.4024842519685041
20
-3.3309387795275591
11
13.4025590551181093
21
-3.6692913385826769
0
LINE
8
BLACK
6
CONTINUOUS
10
13.4025590551181093
20
-3.6692913385826769
11
13.4025590551181093
21
-3.6718420078740155
0
LINE
8
BLACK
6
CONTINUOUS
10
13.4025590551181093
20
-3.6718420078740155
11
13.4036942125984258
21
-3.6768154330708662
0
LINE
8
BLACK
6
CONTINUOUS
10
13.4036942125984258
20
-3.6768154330708662
11
13.4059075984251965
21
-3.6814115748031497
0
LINE
8
BLACK
6
CONTINUOUS
10
13.4059075984251965
20
-3.6814115748031497
11
13.409088228346457
21
-3.6853999606299213
0
LINE
8
BLACK
6
CONTINUOUS
10
13.409088228346457
20
-3.6853999606299213
11
13.4130766141732281
21
-3.6885805905511808
0
LINE
8
BLACK
6
CONTINUOUS
10
13.4130766141732281
20
-3.6885805905511808
11
13.417672755905512
21
-3.6907939763779525
0
LINE
8
BLACK
6
CONTINUOUS
10
13.417672755905512
20
-3.6907939763779525
11
13.4226461811023619
21
-3.6919291338582676
0
LINE
8
BLACK
6
CONTINUOUS
10
13.4226461811023619
20
-3.6919291338582676
11
13.4251968503937
21
-3.6919291338582676
0
LINE
8
BLACK
6
CONTINUOUS
10
13.4251968503937
20
-3.6919291338582676
11
13.4277475196850382
21
-3.6919291338582676
0
LINE
8
BLACK
6
CONTINUOUS
10
13.4277475196850382
20
-3.6919291338582676
11
13.4327209448818898
21
-3.6907939763779525
0
LINE
8
BLACK
6
CONTINUOUS
10
13.4327209448818898
20
-3.6907939763779525
11
13.4373170866141738
21
-3.6885805905511808
0
LINE
8
BLACK
6
CONTINUOUS
10
13.4373170866141738
20
-3.6885805905511808
11
13.4413054724409449
21
-3.6853999606299213
0
LINE
8
BLACK
6
CONTINUOUS
10
13.4413054724409449
20
-3.6853999606299213
11
13.4444861023622035
21
-3.6814115748031497
0
LINE
8
BLACK
6
CONTINUOUS
10
13.4444861023622035
20
-3.6814115748031497
11
13.4466994881889761
21
-3.6768154330708662
0
LINE
8
BLACK
6
CONTINUOUS
10
13.4466994881889761
20
-3.6768154330708662
11
13.4478346456692908
21
-3.6718420078740155
0
LINE
8
BLACK
6
CONTINUOUS
10
13.4478346456692908
20
-3.6718420078740155
11
13.4478346456692908
21
-3.6692913385826769
0
LINE
8
BLACK
6
CONTINUOUS
10
13.4478346456692908
20
-3.6692913385826769
11
13.447909409448819
21
-3.6690611811023621
0
LINE
8
BLACK
6
CONTINUOUS
10
13.447909409448819
20
-3.6690611811023621
11
13.4478346456692908
21
-3.3307086614173227
0
LINE
8
BLACK
6
CONTINUOUS
10
13.4478346456692908
20
-3.3307086614173227
11
13.4478346456692908
21
-3.3281579921259841
0
LINE
8
BLACK
6
CONTINUOUS
10
13.4478346456692908
20
-3.3281579921259841
11
13.4466994881889761
21
-3.3231845669291338
0
LINE
8
BLACK
6
CONTINUOUS
10
13.4466994881889761
20
-3.3231845669291338
11
13.4444861023622035
21
-3.3185884251968503
0
LINE
8
BLACK
6
CONTINUOUS
10
13.4444861023622035
20
-3.3185884251968503
11
13.4413054724409449
21
-3.3146000393700787
0
LINE
8
BLACK
6
CONTINUOUS
10
13.4413054724409449
20
-3.3146000393700787
11
13.4373170866141738
21
-3.3114194094488187
0
LINE
8
BLACK
6
CONTINUOUS
10
13.4373170866141738
20
-3.3114194094488187
11
13.4327209448818898
21
-3.3092060236220471
0
LINE
8
BLACK
6
CONTINUOUS
10
13.4327209448818898
20
-3.3092060236220471
11
13.4277475196850382
21
-3.3080708661417324
0
LINE
8
BLACK
6
CONTINUOUS
10
13.4277475196850382
20
-3.3080708661417324
11
13.4251968503937
21
-3.3080708661417324
0
LINE
8
BLACK
6
CONTINUOUS
10
13.4251968503937
20
-3.3080708661417324
11
13.4226461811023619
21
-3.3080708661417324
0
LINE
8
BLACK
6
CONTINUOUS
10
3.8192742913385826
20
-3.2333426377952756
11
3.8198069685039369
21
-3.2338753149606299
0
LINE
8
BLACK
6
CONTINUOUS
10
3.8198069685039369
20
-3.2338753149606299
11
3.8198818897637796
21
-3.356299212598425
0
LINE
8
BLACK
6
CONTINUOUS
10
3.8198818897637796
20
-3.356299212598425
11
3.8198069685039369
21
-3.3566758267716534
0
LINE
8
BLACK
6
CONTINUOUS
10
3.8198069685039369
20
-3.3566758267716534
11
3.8198069685039369
21
-3.3566758661417322
0
LINE
8
BLACK
6
CONTINUOUS
10
3.8198069685039369
20
-3.3566758661417322
11
3.8192742913385826
21
-3.3572085433070864
0
LINE
8
BLACK
6
CONTINUOUS
10
3.8192742913385826
20
-3.3572085433070864
11
3.6811023622047245
21
-3.3572834645669292
0
LINE
8
BLACK
6
CONTINUOUS
10
3.6811023622047245
20
-3.3572834645669292
11
3.6807257086614174
21
-3.3572085433070864
0
LINE
8
BLACK
6
CONTINUOUS
10
3.6807257086614174
20
-3.3572085433070864
11
3.6801930314960627
21
-3.3566758661417322
0
LINE
8
BLACK
6
CONTINUOUS
10
3.6801930314960627
20
-3.3566758661417322
11
3.6801930314960627
21
-3.3566758267716534
0
LINE
8
BLACK
6
CONTINUOUS
10
3.6801930314960627
20
-3.3566758267716534
11
3.6801181102362204
21
-3.234251968503937
0
LINE
8
BLACK
6
CONTINUOUS
10
3.6801181102362204
20
-3.234251968503937
11
3.6801930314960627
21
-3.2338753149606299
0
LINE
8
BLACK
6
CONTINUOUS
10
3.6801930314960627
20
-3.2338753149606299
11
3.6807257086614174
21
-3.2333426377952756
0
LINE
8
BLACK
6
CONTINUOUS
10
3.6807257086614174
20
-3.2333426377952756
11
3.8188976377952755
21
-3.2332677165354329
0
LINE
8
BLACK
6
CONTINUOUS
10
3.8188976377952755
20
-3.2332677165354329
11
3.8192742913385826
21
-3.2333426377952756
0
LINE
8
BLACK
6
CONTINUOUS
10
3.6820125196850393
20
-3.2352357086614174
11
3.682086023622047
21
-3.3553891338582678
0
LINE
8
BLACK
6
CONTINUOUS
10
3.682086023622047
20
-3.3553891338582678
11
3.817987440944882
21
-3.3553154330708659
0
LINE
8
BLACK
6
CONTINUOUS
10
3.817987440944882
20
-3.3553154330708659
11
3.8179139370078738
21
-3.2351620078740155
0
LINE
8
BLACK
6
CONTINUOUS
10
3.8179139370078738
20
-3.2351620078740155
11
3.6820125196850393
21
-3.2352357086614174
0
LINE
8
BLACK
6
CONTINUOUS
10
4.5692742913385826
20
-3.2333426377952756
11
4.5698069685039373
21
-3.2338753149606299
0
LINE
8
BLACK
6
CONTINUOUS
10
4.5698069685039373
20
-3.2338753149606299
11
4.5698818897637796
21
-3.356299212598425
0
LINE
8
BLACK
6
CONTINUOUS
10
4.5698818897637796
20
-3.356299212598425
11
4.5698069685039373
21
-3.3566758267716534
0
LINE
8
BLACK
6
CONTINUOUS
10
4.5698069685039373
20
-3.3566758267716534
11
4.5698069685039373
21
-3.3566758661417322
0
LINE
8
BLACK
6
CONTINUOUS
10
4.5698069685039373
20
-3.3566758661417322
11
4.5692742913385826
21
-3.3572085433070864
0
LINE
8
BLACK
6
CONTINUOUS
10
4.5692742913385826
20
-3.3572085433070864
11
4.4311023622047241
21
-3.3572834645669292
0
LINE
8
BLACK
6
CONTINUOUS
10
4.4311023622047241
20
-3.3572834645669292
11
4.4307257086614174
21
-3.3572085433070864
0
LINE
8
BLACK
6
CONTINUOUS
10
4.4307257086614174
20
-3.3572085433070864
11
4.4301930314960627
21
-3.3566758661417322
0
LINE
8
BLACK
6
CONTINUOUS
10
4.4301930314960627
20
-3.3566758661417322
11
4.4301930314960627
21
-3.3566758267716534
0
LINE
8
BLACK
6
CONTINUOUS
10
4.4301930314960627
20
-3.3566758267716534
11
4.4301181102362204
21
-3.234251968503937
0
LINE
8
BLACK
6
CONTINUOUS
10
4.4301181102362204
20
-3.234251968503937
11
4.4301930314960627
21
-3.2338753149606299
0
LINE
8
BLACK
6
CONTINUOUS
10
4.4301930314960627
20
-3.2338753149606299
11
4.4307257086614174
21
-3.2333426377952756
0
LINE
8
BLACK
6
CONTINUOUS
10
4.4307257086614174
20
-3.2333426377952756
11
4.5688976377952759
21
-3.2332677165354329
0
LINE
8
BLACK
6
CONTINUOUS
10
4.5688976377952759
20
-3.2332677165354329
11
4.5692742913385826
21
-3.2333426377952756
0
LINE
8
BLACK
6
CONTINUOUS
10
4.4320125196850393
20
-3.2352357086614174
11
4.4320860236220474
21
-3.3553891338582678
0
LINE
8
BLACK
6
CONTINUOUS
10
4.4320860236220474
20
-3.3553891338582678
11
4.567987440944882
21
-3.3553154330708659
0
LINE
8
BLACK
6
CONTINUOUS
10
4.567987440944882
20
-3.3553154330708659
11
4.5679139370078738
21
-3.2351620078740155
0
LINE
8
BLACK
6
CONTINUOUS
10
4.5679139370078738
20
-3.2351620078740155
11
4.4320125196850393
21
-3.2352357086614174
0
LINE
8
BLACK
6
CONTINUOUS
10
5.3192742913385826
20
-3.2333426377952756
11
5.3198069685039373
21
-3.2338753149606299
0
LINE
8
BLACK
6
CONTINUOUS
10
5.3198069685039373
20
-3.2338753149606299
11
5.3198818897637796
21
-3.356299212598425
0
LINE
8
BLACK
6
CONTINUOUS
10
5.3198818897637796
20
-3.356299212598425
11
5.3198069685039373
21
-3.3566758267716534
0
LINE
8
BLACK
6
CONTINUOUS
10
5.3198069685039373
20
-3.3566758267716534
11
5.3198069685039373
21
-3.3566758661417322
0
LINE
8
BLACK
6
CONTINUOUS
10
5.3198069685039373
20
-3.3566758661417322
11
5.3192742913385826
21
-3.3572085433070864
0
LINE
8
BLACK
6
CONTINUOUS
10
5.3192742913385826
20
-3.3572085433070864
11
5.1811023622047241
21
-3.3572834645669292
0
LINE
8
BLACK
6
CONTINUOUS
10
5.1811023622047241
20
-3.3572834645669292
11
5.1807257086614174
21
-3.3572085433070864
0
LINE
8
BLACK
6
CONTINUOUS
10
5.1807257086614174
20
-3.3572085433070864
11
5.1801930314960627
21
-3.3566758661417322
0
LINE
8
BLACK
6
CONTINUOUS
10
5.1801930314960627
20
-3.3566758661417322
11
5.1801930314960627
21
-3.3566758267716534
0
LINE
8
BLACK
6
CONTINUOUS
10
5.1801930314960627
20
-3.3566758267716534
11
5.1801181102362204
21
-3.234251968503937
0
LINE
8
BLACK
6
CONTINUOUS
10
5.1801181102362204
20
-3.234251968503937
11
5.1801930314960627
21
-3.2338753149606299
0
LINE
8
BLACK
6
CONTINUOUS
10
5.1801930314960627
20
-3.2338753149606299
11
5.1807257086614174
21
-3.2333426377952756
0
LINE
8
BLACK
6
CONTINUOUS
10
5.1807257086614174
20
-3.2333426377952756
11
5.3188976377952759
21
-3.2332677165354329
0
LINE
8
BLACK
6
CONTINUOUS
10
5.3188976377952759
20
-3.2332677165354329
11
5.3192742913385826
21
-3.2333426377952756
0
LINE
8
BLACK
6
CONTINUOUS
10
5.1820125196850393
20
-3.2352357086614174
11
5.1820860236220474
21
-3.3553891338582678
0
LINE
8
BLACK
6
CONTINUOUS
10
5.1820860236220474
20
-3.3553891338582678
11
5.317987440944882
21
-3.3553154330708659
0
LINE
8
BLACK
6
CONTINUOUS
10
5.317987440944882
20
-3.3553154330708659
11
5.3179139370078738
21
-3.2351620078740155
0
LINE
8
BLACK
6
CONTINUOUS
10
5.3179139370078738
20
-3.2351620078740155
11
5.1820125196850393
21
-3.2352357086614174
0
LINE
8
BLACK
6
CONTINUOUS
10
6.0692742913385826
20
-3.2333426377952756
11
6.0698069685039373
21
-3.2338753149606299
0
LINE
8
BLACK
6
CONTINUOUS
10
6.0698069685039373
20
-3.2338753149606299
11
6.0698818897637796
21
-3.356299212598425
0
LINE
8
BLACK
6
CONTINUOUS
10
6.0698818897637796
20
-3.356299212598425
11
6.0698069685039373
21
-3.3566758267716534
0
LINE
8
BLACK
6
CONTINUOUS
10
6.0698069685039373
20
-3.3566758267716534
11
6.0698069685039373
21
-3.3566758661417322
0
LINE
8
BLACK
6
CONTINUOUS
10
6.0698069685039373
20
-3.3566758661417322
11
6.0692742913385826
21
-3.3572085433070864
0
LINE
8
BLACK
6
CONTINUOUS
10
6.0692742913385826
20
-3.3572085433070864
11
5.9311023622047241
21
-3.3572834645669292
0
LINE
8
BLACK
6
CONTINUOUS
10
5.9311023622047241
20
-3.3572834645669292
11
5.9307257086614174
21
-3.3572085433070864
0
LINE
8
BLACK
6
CONTINUOUS
10
5.9307257086614174
20
-3.3572085433070864
11
5.9301930314960627
21
-3.3566758661417322
0
LINE
8
BLACK
6
CONTINUOUS
10
5.9301930314960627
20
-3.3566758661417322
11
5.9301930314960627
21
-3.3566758267716534
0
LINE
8
BLACK
6
CONTINUOUS
10
5.9301930314960627
20
-3.3566758267716534
11
5.9301181102362204
21
-3.234251968503937
0
LINE
8
BLACK
6
CONTINUOUS
10
5.9301181102362204
20
-3.234251968503937
11
5.9301930314960627
21
-3.2338753149606299
0
LINE
8
BLACK
6
CONTINUOUS
10
5.9301930314960627
20
-3.2338753149606299
11
5.9307257086614174
21
-3.2333426377952756
0
LINE
8
BLACK
6
CONTINUOUS
10
5.9307257086614174
20
-3.2333426377952756
11
6.068897637795275
21
-3.2332677165354329
0
LINE
8
BLACK
6
CONTINUOUS
10
6.068897637795275
20
-3.2332677165354329
11
6.0692742913385826
21
-3.2333426377952756
0
LINE
8
BLACK
6
CONTINUOUS
10
5.9320125196850393
20
-3.2352357086614174
11
5.9320860236220474
21
-3.3553891338582678
0
LINE
8
BLACK
6
CONTINUOUS
10
5.9320860236220474
20
-3.3553891338582678
11
6.067987440944882
21
-3.3553154330708659
0
LINE
8
BLACK
6
CONTINUOUS
10
6.067987440944882
20
-3.3553154330708659
11
6.0679139370078738
21
-3.2351620078740155
0
LINE
8
BLACK
6
CONTINUOUS
10
6.0679139370078738
20
-3.2351620078740155
11
5.9320125196850393
21
-3.2352357086614174
0
LINE
8
BLACK
6
CONTINUOUS
10
6.8192742913385826
20
-3.2333426377952756
11
6.8198069685039364
21
-3.2338753149606299
0
LINE
8
BLACK
6
CONTINUOUS
10
6.8198069685039364
20
-3.2338753149606299
11
6.8198818897637796
21
-3.356299212598425
0
LINE
8
BLACK
6
CONTINUOUS
10
6.8198818897637796
20
-3.356299212598425
11
6.8198069685039364
21
-3.3566758267716534
0
LINE
8
BLACK
6
CONTINUOUS
10
6.8198069685039364
20
-3.3566758267716534
11
6.8198069685039364
21
-3.3566758661417322
0
LINE
8
BLACK
6
CONTINUOUS
10
6.8198069685039364
20
-3.3566758661417322
11
6.8192742913385826
21
-3.3572085433070864
0
LINE
8
BLACK
6
CONTINUOUS
10
6.8192742913385826
20
-3.3572085433070864
11
6.6811023622047241
21
-3.3572834645669292
0
LINE
8
BLACK
6
CONTINUOUS
10
6.6811023622047241
20
-3.3572834645669292
11
6.6807257086614174
21
-3.3572085433070864
0
LINE
8
BLACK
6
CONTINUOUS
10
6.6807257086614174
20
-3.3572085433070864
11
6.6801930314960627
21
-3.3566758661417322
0
LINE
8
BLACK
6
CONTINUOUS
10
6.6801930314960627
20
-3.3566758661417322
11
6.6801930314960627
21
-3.3566758267716534
0
LINE
8
BLACK
6
CONTINUOUS
10
6.6801930314960627
20
-3.3566758267716534
11
6.6801181102362204
21
-3.234251968503937
0
LINE
8
BLACK
6
CONTINUOUS
10
6.6801181102362204
20
-3.234251968503937
11
6.6801930314960627
21
-3.2338753149606299
0
LINE
8
BLACK
6
CONTINUOUS
10
6.6801930314960627
20
-3.2338753149606299
11
6.6807257086614174
21
-3.2333426377952756
0
LINE
8
BLACK
6
CONTINUOUS
10
6.6807257086614174
20
-3.2333426377952756
11
6.818897637795275
21
-3.2332677165354329
0
LINE
8
BLACK
6
CONTINUOUS
10
6.818897637795275
20
-3.2332677165354329
11
6.8192742913385826
21
-3.2333426377952756
0
LINE
8
BLACK
6
CONTINUOUS
10
6.6820125196850393
20
-3.2352357086614174
11
6.6820860236220474
21
-3.3553891338582678
0
LINE
8
BLACK
6
CONTINUOUS
10
6.6820860236220474
20
-3.3553891338582678
11
6.817987440944882
21
-3.3553154330708659
0
LINE
8
BLACK
6
CONTINUOUS
10
6.817987440944882
20
-3.3553154330708659
11
6.8179139370078738
21
-3.2351620078740155
0
LINE
8
BLACK
6
CONTINUOUS
10
6.8179139370078738
20
-3.2351620078740155
11
6.6820125196850393
21
-3.2352357086614174
0
LINE
8
BLACK
6
CONTINUOUS
10
7.5692742913385826
20
-3.2333426377952756
11
7.5698069685039364
21
-3.2338753149606299
0
LINE
8
BLACK
6
CONTINUOUS
10
7.5698069685039364
20
-3.2338753149606299
11
7.5698818897637796
21
-3.356299212598425
0
LINE
8
BLACK
6
CONTINUOUS
10
7.5698818897637796
20
-3.356299212598425
11
7.5698069685039364
21
-3.3566758267716534
0
LINE
8
BLACK
6
CONTINUOUS
10
7.5698069685039364
20
-3.3566758267716534
11
7.5698069685039364
21
-3.3566758661417322
0
LINE
8
BLACK
6
CONTINUOUS
10
7.5698069685039364
20
-3.3566758661417322
11
7.5692742913385826
21
-3.3572085433070864
0
LINE
8
BLACK
6
CONTINUOUS
10
7.5692742913385826
20
-3.3572085433070864
11
7.4311023622047241
21
-3.3572834645669292
0
LINE
8
BLACK
6
CONTINUOUS
10
7.4311023622047241
20
-3.3572834645669292
11
7.4307257086614174
21
-3.3572085433070864
0
LINE
8
BLACK
6
CONTINUOUS
10
7.4307257086614174
20
-3.3572085433070864
11
7.4301930314960627
21
-3.3566758661417322
0
LINE
8
BLACK
6
CONTINUOUS
10
7.4301930314960627
20
-3.3566758661417322
11
7.4301930314960627
21
-3.3566758267716534
0
LINE
8
BLACK
6
CONTINUOUS
10
7.4301930314960627
20
-3.3566758267716534
11
7.4301181102362204
21
-3.234251968503937
0
LINE
8
BLACK
6
CONTINUOUS
10
7.4301181102362204
20
-3.234251968503937
11
7.4301930314960627
21
-3.2338753149606299
0
LINE
8
BLACK
6
CONTINUOUS
10
7.4301930314960627
20
-3.2338753149606299
11
7.4307257086614174
21
-3.2333426377952756
0
LINE
8
BLACK
6
CONTINUOUS
10
7.4307257086614174
20
-3.2333426377952756
11
7.568897637795275
21
-3.2332677165354329
0
LINE
8
BLACK
6
CONTINUOUS
10
7.568897637795275
20
-3.2332677165354329
11
7.5692742913385826
21
-3.2333426377952756
0
LINE
8
BLACK
6
CONTINUOUS
10
7.4320125196850393
20
-3.2352357086614174
11
7.4320860236220474
21
-3.3553891338582678
0
LINE
8
BLACK
6
CONTINUOUS
10
7.4320860236220474
20
-3.3553891338582678
11
7.567987440944882
21
-3.3553154330708659
0
LINE
8
BLACK
6
CONTINUOUS
10
7.567987440944882
20
-3.3553154330708659
11
7.5679139370078738
21
-3.2351620078740155
0
LINE
8
BLACK
6
CONTINUOUS
10
7.5679139370078738
20
-3.2351620078740155
11
7.4320125196850393
21
-3.2352357086614174
0
LINE
8
BLACK
6
CONTINUOUS
10
8.3192742913385818
20
-3.2333426377952756
11
8.3198069685039364
21
-3.2338753149606299
0
LINE
8
BLACK
6
CONTINUOUS
10
8.3198069685039364
20
-3.2338753149606299
11
8.3198818897637796
21
-3.356299212598425
0
LINE
8
BLACK
6
CONTINUOUS
10
8.3198818897637796
20
-3.356299212598425
11
8.3198069685039364
21
-3.3566758267716534
0
LINE
8
BLACK
6
CONTINUOUS
10
8.3198069685039364
20
-3.3566758267716534
11
8.3198069685039364
21
-3.3566758661417322
0
LINE
8
BLACK
6
CONTINUOUS
10
8.3198069685039364
20
-3.3566758661417322
11
8.3192742913385818
21
-3.3572085433070864
0
LINE
8
BLACK
6
CONTINUOUS
10
8.3192742913385818
20
-3.3572085433070864
11
8.1811023622047241
21
-3.3572834645669292
0
LINE
8
BLACK
6
CONTINUOUS
10
8.1811023622047241
20
-3.3572834645669292
11
8.1807257086614165
21
-3.3572085433070864
0
LINE
8
BLACK
6
CONTINUOUS
10
8.1807257086614165
20
-3.3572085433070864
11
8.1801930314960636
21
-3.3566758661417322
0
LINE
8
BLACK
6
CONTINUOUS
10
8.1801930314960636
20
-3.3566758661417322
11
8.1801930314960636
21
-3.3566758267716534
0
LINE
8
BLACK
6
CONTINUOUS
10
8.1801930314960636
20
-3.3566758267716534
11
8.1801181102362204
21
-3.234251968503937
0
LINE
8
BLACK
6
CONTINUOUS
10
8.1801181102362204
20
-3.234251968503937
11
8.1801930314960636
21
-3.2338753149606299
0
LINE
8
BLACK
6
CONTINUOUS
10
8.1801930314960636
20
-3.2338753149606299
11
8.1807257086614165
21
-3.2333426377952756
0
LINE
8
BLACK
6
CONTINUOUS
10
8.1807257086614165
20
-3.2333426377952756
11
8.3188976377952759
21
-3.2332677165354329
0
LINE
8
BLACK
6
CONTINUOUS
10
8.3188976377952759
20
-3.2332677165354329
11
8.3192742913385818
21
-3.2333426377952756
0
LINE
8
BLACK
6
CONTINUOUS
10
8.1820125196850384
20
-3.2352357086614174
11
8.1820860236220465
21
-3.3553891338582678
0
LINE
8
BLACK
6
CONTINUOUS
10
8.1820860236220465
20
-3.3553891338582678
11
8.3179874409448811
21
-3.3553154330708659
0
LINE
8
BLACK
6
CONTINUOUS
10
8.3179874409448811
20
-3.3553154330708659
11
8.317913937007873
21
-3.2351620078740155
0
LINE
8
BLACK
6
CONTINUOUS
10
8.317913937007873
20
-3.2351620078740155
11
8.1820125196850384
21
-3.2352357086614174
0
LINE
8
BLACK
6
CONTINUOUS
10
9.0692742913385818
20
-3.2333426377952756
11
9.0698069685039364
21
-3.2338753149606299
0
LINE
8
BLACK
6
CONTINUOUS
10
9.0698069685039364
20
-3.2338753149606299
11
9.0698818897637796
21
-3.356299212598425
0
LINE
8
BLACK
6
CONTINUOUS
10
9.0698818897637796
20
-3.356299212598425
11
9.0698069685039364
21
-3.3566758267716534
0
LINE
8
BLACK
6
CONTINUOUS
10
9.0698069685039364
20
-3.3566758267716534
11
9.0698069685039364
21
-3.3566758661417322
0
LINE
8
BLACK
6
CONTINUOUS
10
9.0698069685039364
20
-3.3566758661417322
11
9.0692742913385818
21
-3.3572085433070864
0
LINE
8
BLACK
6
CONTINUOUS
10
9.0692742913385818
20
-3.3572085433070864
11
8.9311023622047241
21
-3.3572834645669292
0
LINE
8
BLACK
6
CONTINUOUS
10
8.9311023622047241
20
-3.3572834645669292
11
8.9307257086614165
21
-3.3572085433070864
0
LINE
8
BLACK
6
CONTINUOUS
10
8.9307257086614165
20
-3.3572085433070864
11
8.9301930314960636
21
-3.3566758661417322
0
LINE
8
BLACK
6
CONTINUOUS
10
8.9301930314960636
20
-3.3566758661417322
11
8.9301930314960636
21
-3.3566758267716534
0
LINE
8
BLACK
6
CONTINUOUS
10
8.9301930314960636
20
-3.3566758267716534
11
8.9301181102362204
21
-3.234251968503937
0
LINE
8
BLACK
6
CONTINUOUS
10
8.9301181102362204
20
-3.234251968503937
11
8.9301930314960636
21
-3.2338753149606299
0
LINE
8
BLACK
6
CONTINUOUS
10
8.9301930314960636
20
-3.2338753149606299
11
8.9307257086614165
21
-3.2333426377952756
0
LINE
8
BLACK
6
CONTINUOUS
10
8.9307257086614165
20
-3.2333426377952756
11
9.0688976377952759
21
-3.2332677165354329
0
LINE
8
BLACK
6
CONTINUOUS
10
9.0688976377952759
20
-3.2332677165354329
11
9.0692742913385818
21
-3.2333426377952756
0
LINE
8
BLACK
6
CONTINUOUS
10
8.9320125196850384
20
-3.2352357086614174
11
8.9320860236220465
21
-3.3553891338582678
0
LINE
8
BLACK
6
CONTINUOUS
10
8.9320860236220465
20
-3.3553891338582678
11
9.0679874409448811
21
-3.3553154330708659
0
LINE
8
BLACK
6
CONTINUOUS
10
9.0679874409448811
20
-3.3553154330708659
11
9.067913937007873
21
-3.2351620078740155
0
LINE
8
BLACK
6
CONTINUOUS
10
9.067913937007873
20
-3.2351620078740155
11
8.9320125196850384
21
-3.2352357086614174
0
LINE
8
BLACK
6
CONTINUOUS
10
9.8192742913385818
20
-3.2333426377952756
11
9.8198069685039364
21
-3.2338753149606299
0
LINE
8
BLACK
6
CONTINUOUS
10
9.8198069685039364
20
-3.2338753149606299
11
9.8198818897637796
21
-3.356299212598425
0
LINE
8
BLACK
6
CONTINUOUS
10
9.8198818897637796
20
-3.356299212598425
11
9.8198069685039364
21
-3.3566758267716534
0
LINE
8
BLACK
6
CONTINUOUS
10
9.8198069685039364
20
-3.3566758267716534
11
9.8198069685039364
21
-3.3566758661417322
0
LINE
8
BLACK
6
CONTINUOUS
10
9.8198069685039364
20
-3.3566758661417322
11
9.8192742913385818
21
-3.3572085433070864
0
LINE
8
BLACK
6
CONTINUOUS
10
9.8192742913385818
20
-3.3572085433070864
11
9.6811023622047241
21
-3.3572834645669292
0
LINE
8
BLACK
6
CONTINUOUS
10
9.6811023622047241
20
-3.3572834645669292
11
9.6807257086614165
21
-3.3572085433070864
0
LINE
8
BLACK
6
CONTINUOUS
10
9.6807257086614165
20
-3.3572085433070864
11
9.6801930314960636
21
-3.3566758661417322
0
LINE
8
BLACK
6
CONTINUOUS
10
9.6801930314960636
20
-3.3566758661417322
11
9.6801930314960636
21
-3.3566758267716534
0
LINE
8
BLACK
6
CONTINUOUS
10
9.6801930314960636
20
-3.3566758267716534
11
9.6801181102362204
21
-3.234251968503937
0
LINE
8
BLACK
6
CONTINUOUS
10
9.6801181102362204
20
-3.234251968503937
11
9.6801930314960636
21
-3.2338753149606299
0
LINE
8
BLACK
6
CONTINUOUS
10
9.6801930314960636
20
-3.2338753149606299
11
9.6807257086614165
21
-3.2333426377952756
0
LINE
8
BLACK
6
CONTINUOUS
10
9.6807257086614165
20
-3.2333426377952756
11
9.8188976377952759
21
-3.2332677165354329
0
LINE
8
BLACK
6
CONTINUOUS
10
9.8188976377952759
20
-3.2332677165354329
11
9.8192742913385818
21
-3.2333426377952756
0
LINE
8
BLACK
6
CONTINUOUS
10
9.6820125196850384
20
-3.2352357086614174
11
9.6820860236220465
21
-3.3553891338582678
0
LINE
8
BLACK
6
CONTINUOUS
10
9.6820860236220465
20
-3.3553891338582678
11
9.8179874409448811
21
-3.3553154330708659
0
LINE
8
BLACK
6
CONTINUOUS
10
9.8179874409448811
20
-3.3553154330708659
11
9.817913937007873
21
-3.2351620078740155
0
LINE
8
BLACK
6
CONTINUOUS
10
9.817913937007873
20
-3.2351620078740155
11
9.6820125196850384
21
-3.2352357086614174
0
LINE
8
BLACK
6
CONTINUOUS
10
10.5692742913385818
20
-3.2333426377952756
11
10.5698069685039364
21
-3.2338753149606299
0
LINE
8
BLACK
6
CONTINUOUS
10
10.5698069685039364
20
-3.2338753149606299
11
10.5698818897637796
21
-3.356299212598425
0
LINE
8
BLACK
6
CONTINUOUS
10
10.5698818897637796
20
-3.356299212598425
11
10.5698069685039364
21
-3.3566758267716534
0
LINE
8
BLACK
6
CONTINUOUS
10
10.5698069685039364
20
-3.3566758267716534
11
10.5698069685039364
21
-3.3566758661417322
0
LINE
8
BLACK
6
CONTINUOUS
10
10.5698069685039364
20
-3.3566758661417322
11
10.5692742913385818
21
-3.3572085433070864
0
LINE
8
BLACK
6
CONTINUOUS
10
10.5692742913385818
20
-3.3572085433070864
11
10.4311023622047241
21
-3.3572834645669292
0
LINE
8
BLACK
6
CONTINUOUS
10
10.4311023622047241
20
-3.3572834645669292
11
10.4307257086614165
21
-3.3572085433070864
0
LINE
8
BLACK
6
CONTINUOUS
10
10.4307257086614165
20
-3.3572085433070864
11
10.4301930314960636
21
-3.3566758661417322
0
LINE
8
BLACK
6
CONTINUOUS
10
10.4301930314960636
20
-3.3566758661417322
11
10.4301930314960636
21
-3.3566758267716534
0
LINE
8
BLACK
6
CONTINUOUS
10
10.4301930314960636
20
-3.3566758267716534
11
10.4301181102362204
21
-3.234251968503937
0
LINE
8
BLACK
6
CONTINUOUS
10
10.4301181102362204
20
-3.234251968503937
11
10.4301930314960636
21
-3.2338753149606299
0
LINE
8
BLACK
6
CONTINUOUS
10
10.4301930314960636
20
-3.2338753149606299
11
10.4307257086614165
21
-3.2333426377952756
0
LINE
8
BLACK
6
CONTINUOUS
10
10.4307257086614165
20
-3.2333426377952756
11
10.5688976377952759
21
-3.2332677165354329
0
LINE
8
BLACK
6
CONTINUOUS
10
10.5688976377952759
20
-3.2332677165354329
11
10.5692742913385818
21
-3.2333426377952756
0
LINE
8
BLACK
6
CONTINUOUS
10
10.4320125196850384
20
-3.2352357086614174
11
10.4320860236220465
21
-3.3553891338582678
0
LINE
8
BLACK
6
CONTINUOUS
10
10.4320860236220465
20
-3.3553891338582678
11
10.5679874409448811
21
-3.3553154330708659
0
LINE
8
BLACK
6
CONTINUOUS
10
10.5679874409448811
20
-3.3553154330708659
11
10.567913937007873
21
-3.2351620078740155
0
LINE
8
BLACK
6
CONTINUOUS
10
10.567913937007873
20
-3.2351620078740155
11
10.4320125196850384
21
-3.2352357086614174
0
LINE
8
BLACK
6
CONTINUOUS
10
11.3192742913385818
20
-3.2333426377952756
11
11.3198069685039364
21
-3.2338753149606299
0
LINE
8
BLACK
6
CONTINUOUS
10
11.3198069685039364
20
-3.2338753149606299
11
11.3198818897637796
21
-3.356299212598425
0
LINE
8
BLACK
6
CONTINUOUS
10
11.3198818897637796
20
-3.356299212598425
11
11.3198069685039364
21
-3.3566758267716534
0
LINE
8
BLACK
6
CONTINUOUS
10
11.3198069685039364
20
-3.3566758267716534
11
11.3198069685039364
21
-3.3566758661417322
0
LINE
8
BLACK
6
CONTINUOUS
10
11.3198069685039364
20
-3.3566758661417322
11
11.3192742913385818
21
-3.3572085433070864
0
LINE
8
BLACK
6
CONTINUOUS
10
11.3192742913385818
20
-3.3572085433070864
11
11.1811023622047241
21
-3.3572834645669292
0
LINE
8
BLACK
6
CONTINUOUS
10
11.1811023622047241
20
-3.3572834645669292
11
11.1807257086614165
21
-3.3572085433070864
0
LINE
8
BLACK
6
CONTINUOUS
10
11.1807257086614165
20
-3.3572085433070864
11
11.1801930314960636
21
-3.3566758661417322
0
LINE
8
BLACK
6
CONTINUOUS
10
11.1801930314960636
20
-3.3566758661417322
11
11.1801930314960636
21
-3.3566758267716534
0
LINE
8
BLACK
6
CONTINUOUS
10
11.1801930314960636
20
-3.3566758267716534
11
11.1801181102362204
21
-3.234251968503937
0
LINE
8
BLACK
6
CONTINUOUS
10
11.1801181102362204
20
-3.234251968503937
11
11.1801930314960636
21
-3.2338753149606299
0
LINE
8
BLACK
6
CONTINUOUS
10
11.1801930314960636
20
-3.2338753149606299
11
11.1807257086614165
21
-3.2333426377952756
0
LINE
8
BLACK
6
CONTINUOUS
10
11.1807257086614165
20
-3.2333426377952756
11
11.3188976377952759
21
-3.2332677165354329
0
LINE
8
BLACK
6
CONTINUOUS
10
11.3188976377952759
20
-3.2332677165354329
11
11.3192742913385818
21
-3.2333426377952756
0
LINE
8
BLACK
6
CONTINUOUS
10
11.1820125196850384
20
-3.2352357086614174
11
11.1820860236220465
21
-3.3553891338582678
0
LINE
8
BLACK
6
CONTINUOUS
10
11.1820860236220465
20
-3.3553891338582678
11
11.3179874409448811
21
-3.3553154330708659
0
LINE
8
BLACK
6
CONTINUOUS
10
11.3179874409448811
20
-3.3553154330708659
11
11.317913937007873
21
-3.2351620078740155
0
LINE
8
BLACK
6
CONTINUOUS
10
11.317913937007873
20
-3.2351620078740155
11
11.1820125196850384
21
-3.2352357086614174
0
LINE
8
BLACK
6
CONTINUOUS
10
12.0692742913385818
20
-3.2333426377952756
11
12.0698069685039364
21
-3.2338753149606299
0
LINE
8
BLACK
6
CONTINUOUS
10
12.0698069685039364
20
-3.2338753149606299
11
12.0698818897637796
21
-3.356299212598425
0
LINE
8
BLACK
6
CONTINUOUS
10
12.0698818897637796
20
-3.356299212598425
11
12.0698069685039364
21
-3.3566758267716534
0
LINE
8
BLACK
6
CONTINUOUS
10
12.0698069685039364
20
-3.3566758267716534
11
12.0698069685039364
21
-3.3566758661417322
0
LINE
8
BLACK
6
CONTINUOUS
10
12.0698069685039364
20
-3.3566758661417322
11
12.0692742913385818
21
-3.3572085433070864
0
LINE
8
BLACK
6
CONTINUOUS
10
12.0692742913385818
20
-3.3572085433070864
11
11.9311023622047241
21
-3.3572834645669292
0
LINE
8
BLACK
6
CONTINUOUS
10
11.9311023622047241
20
-3.3572834645669292
11
11.9307257086614165
21
-3.3572085433070864
0
LINE
8
BLACK
6
CONTINUOUS
10
11.9307257086614165
20
-3.3572085433070864
11
11.9301930314960636
21
-3.3566758661417322
0
LINE
8
BLACK
6
CONTINUOUS
10
11.9301930314960636
20
-3.3566758661417322
11
11.9301930314960636
21
-3.3566758267716534
0
LINE
8
BLACK
6
CONTINUOUS
10
11.9301930314960636
20
-3.3566758267716534
11
11.9301181102362204
21
-3.234251968503937
0
LINE
8
BLACK
6
CONTINUOUS
10
11.9301181102362204
20
-3.234251968503937
11
11.9301930314960636
21
-3.2338753149606299
0
LINE
8
BLACK
6
CONTINUOUS
10
11.9301930314960636
20
-3.2338753149606299
11
11.9307257086614165
21
-3.2333426377952756
0
LINE
8
BLACK
6
CONTINUOUS
10
11.9307257086614165
20
-3.2333426377952756
11
12.0688976377952759
21
-3.2332677165354329
0
LINE
8
BLACK
6
CONTINUOUS
10
12.0688976377952759
20
-3.2332677165354329
11
12.0692742913385818
21
-3.2333426377952756
0
LINE
8
BLACK
6
CONTINUOUS
10
11.9320125196850384
20
-3.2352357086614174
11
11.9320860236220465
21
-3.3553891338582678
0
LINE
8
BLACK
6
CONTINUOUS
10
11.9320860236220465
20
-3.3553891338582678
11
12.0679874409448811
21
-3.3553154330708659
0
LINE
8
BLACK
6
CONTINUOUS
10
12.0679874409448811
20
-3.3553154330708659
11
12.067913937007873
21
-3.2351620078740155
0
LINE
8
BLACK
6
CONTINUOUS
10
12.067913937007873
20
-3.2351620078740155
11
11.9320125196850384
21
-3.2352357086614174
0
LINE
8
BLACK
6
CONTINUOUS
10
13.1192742913385825
20
-3.2333426377952756
11
13.1198069685039371
21
-3.2338753149606299
0
LINE
8
BLACK
6
CONTINUOUS
10
13.1198069685039371
20
-3.2338753149606299
11
13.1198818897637786
21
-3.356299212598425
0
LINE
8
BLACK
6
CONTINUOUS
10
13.1198818897637786
20
-3.356299212598425
11
13.1198069685039371
21
-3.3566758267716534
0
LINE
8
BLACK
6
CONTINUOUS
10
13.1198069685039371
20
-3.3566758267716534
11
13.1198069685039371
21
-3.3566758661417322
0
LINE
8
BLACK
6
CONTINUOUS
10
13.1198069685039371
20
-3.3566758661417322
11
13.1192742913385825
21
-3.3572085433070864
0
LINE
8
BLACK
6
CONTINUOUS
10
13.1192742913385825
20
-3.3572085433070864
11
12.9811023622047248
21
-3.3572834645669292
0
LINE
8
BLACK
6
CONTINUOUS
10
12.9811023622047248
20
-3.3572834645669292
11
12.9807257086614172
21
-3.3572085433070864
0
LINE
8
BLACK
6
CONTINUOUS
10
12.9807257086614172
20
-3.3572085433070864
11
12.9801930314960625
21
-3.3566758661417322
0
LINE
8
BLACK
6
CONTINUOUS
10
12.9801930314960625
20
-3.3566758661417322
11
12.9801930314960625
21
-3.3566758267716534
0
LINE
8
BLACK
6
CONTINUOUS
10
12.9801930314960625
20
-3.3566758267716534
11
12.9801181102362193
21
-3.234251968503937
0
LINE
8
BLACK
6
CONTINUOUS
10
12.9801181102362193
20
-3.234251968503937
11
12.9801930314960625
21
-3.2338753149606299
0
LINE
8
BLACK
6
CONTINUOUS
10
12.9801930314960625
20
-3.2338753149606299
11
12.9807257086614172
21
-3.2333426377952756
0
LINE
8
BLACK
6
CONTINUOUS
10
12.9807257086614172
20
-3.2333426377952756
11
13.1188976377952748
21
-3.2332677165354329
0
LINE
8
BLACK
6
CONTINUOUS
10
13.1188976377952748
20
-3.2332677165354329
11
13.1192742913385825
21
-3.2333426377952756
0
LINE
8
BLACK
6
CONTINUOUS
10
12.9820125196850391
20
-3.2352357086614174
11
12.9820860236220472
21
-3.3553891338582678
0
LINE
8
BLACK
6
CONTINUOUS
10
12.9820860236220472
20
-3.3553891338582678
11
13.1179874409448818
21
-3.3553154330708659
0
LINE
8
BLACK
6
CONTINUOUS
10
13.1179874409448818
20
-3.3553154330708659
11
13.1179139370078737
21
-3.2351620078740155
0
LINE
8
BLACK
6
CONTINUOUS
10
13.1179139370078737
20
-3.2351620078740155
11
12.9820125196850391
21
-3.2352357086614174
0
LINE
8
BLACK
6
CONTINUOUS
10
13.8692742913385825
20
-3.2333426377952756
11
13.8698069685039371
21
-3.2338753149606299
0
LINE
8
BLACK
6
CONTINUOUS
10
13.8698069685039371
20
-3.2338753149606299
11
13.8698818897637786
21
-3.356299212598425
0
LINE
8
BLACK
6
CONTINUOUS
10
13.8698818897637786
20
-3.356299212598425
11
13.8698069685039371
21
-3.3566758267716534
0
LINE
8
BLACK
6
CONTINUOUS
10
13.8698069685039371
20
-3.3566758267716534
11
13.8698069685039371
21
-3.3566758661417322
0
LINE
8
BLACK
6
CONTINUOUS
10
13.8698069685039371
20
-3.3566758661417322
11
13.8692742913385825
21
-3.3572085433070864
0
LINE
8
BLACK
6
CONTINUOUS
10
13.8692742913385825
20
-3.3572085433070864
11
13.7311023622047248
21
-3.3572834645669292
0
LINE
8
BLACK
6
CONTINUOUS
10
13.7311023622047248
20
-3.3572834645669292
11
13.7307257086614172
21
-3.3572085433070864
0
LINE
8
BLACK
6
CONTINUOUS
10
13.7307257086614172
20
-3.3572085433070864
11
13.7301930314960625
21
-3.3566758661417322
0
LINE
8
BLACK
6
CONTINUOUS
10
13.7301930314960625
20
-3.3566758661417322
11
13.7301930314960625
21
-3.3566758267716534
0
LINE
8
BLACK
6
CONTINUOUS
10
13.7301930314960625
20
-3.3566758267716534
11
13.7301181102362193
21
-3.234251968503937
0
LINE
8
BLACK
6
CONTINUOUS
10
13.7301181102362193
20
-3.234251968503937
11
13.7301930314960625
21
-3.2338753149606299
0
LINE
8
BLACK
6
CONTINUOUS
10
13.7301930314960625
20
-3.2338753149606299
11
13.7307257086614172
21
-3.2333426377952756
0
LINE
8
BLACK
6
CONTINUOUS
10
13.7307257086614172
20
-3.2333426377952756
11
13.8688976377952748
21
-3.2332677165354329
0
LINE
8
BLACK
6
CONTINUOUS
10
13.8688976377952748
20
-3.2332677165354329
11
13.8692742913385825
21
-3.2333426377952756
0
LINE
8
BLACK
6
CONTINUOUS
10
13.7320125196850391
20
-3.2352357086614174
11
13.7320860236220472
21
-3.3553891338582678
0
LINE
8
BLACK
6
CONTINUOUS
10
13.7320860236220472
20
-3.3553891338582678
11
13.8679874409448818
21
-3.3553154330708659
0
LINE
8
BLACK
6
CONTINUOUS
10
13.8679874409448818
20
-3.3553154330708659
11
13.8679139370078737
21
-3.2351620078740155
0
LINE
8
BLACK
6
CONTINUOUS
10
13.8679139370078737
20
-3.2351620078740155
11
13.7320125196850391
21
-3.2352357086614174
0
LINE
8
BLACK
6
CONTINUOUS
10
14.6192742913385825
20
-3.2333426377952756
11
14.6198069685039371
21
-3.2338753149606299
0
LINE
8
BLACK
6
CONTINUOUS
10
14.6198069685039371
20
-3.2338753149606299
11
14.6198818897637786
21
-3.356299212598425
0
LINE
8
BLACK
6
CONTINUOUS
10
14.6198818897637786
20
-3.356299212598425
11
14.6198069685039371
21
-3.3566758267716534
0
LINE
8
BLACK
6
CONTINUOUS
10
14.6198069685039371
20
-3.3566758267716534
11
14.6198069685039371
21
-3.3566758661417322
0
LINE
8
BLACK
6
CONTINUOUS
10
14.6198069685039371
20
-3.3566758661417322
11
14.6192742913385825
21
-3.3572085433070864
0
LINE
8
BLACK
6
CONTINUOUS
10
14.6192742913385825
20
-3.3572085433070864
11
14.4811023622047248
21
-3.3572834645669292
0
LINE
8
BLACK
6
CONTINUOUS
10
14.4811023622047248
20
-3.3572834645669292
11
14.4807257086614172
21
-3.3572085433070864
0
LINE
8
BLACK
6
CONTINUOUS
10
14.4807257086614172
20
-3.3572085433070864
11
14.4801930314960625
21
-3.3566758661417322
0
LINE
8
BLACK
6
CONTINUOUS
10
14.4801930314960625
20
-3.3566758661417322
11
14.4801930314960625
21
-3.3566758267716534
0
LINE
8
BLACK
6
CONTINUOUS
10
14.4801930314960625
20
-3.3566758267716534
11
14.4801181102362193
21
-3.234251968503937
0
LINE
8
BLACK
6
CONTINUOUS
10
14.4801181102362193
20
-3.234251968503937
11
14.4801930314960625
21
-3.2338753149606299
0
LINE
8
BLACK
6
CONTINUOUS
10
14.4801930314960625
20
-3.2338753149606299
11
14.4807257086614172
21
-3.2333426377952756
0
LINE
8
BLACK
6
CONTINUOUS
10
14.4807257086614172
20
-3.2333426377952756
11
14.6188976377952748
21
-3.2332677165354329
0
LINE
8
BLACK
6
CONTINUOUS
10
14.6188976377952748
20
-3.2332677165354329
11
14.6192742913385825
21
-3.2333426377952756
0
LINE
8
BLACK
6
CONTINUOUS
10
14.4820125196850391
20
-3.2352357086614174
11
14.4820860236220472
21
-3.3553891338582678
0
LINE
8
BLACK
6
CONTINUOUS
10
14.4820860236220472
20
-3.3553891338582678
11
14.6179874409448818
21
-3.3553154330708659
0
LINE
8
BLACK
6
CONTINUOUS
10
14.6179874409448818
20
-3.3553154330708659
11
14.6179139370078737
21
-3.2351620078740155
0
LINE
8
BLACK
6
CONTINUOUS
10
14.6179139370078737
20
-3.2351620078740155
11
14.4820125196850391
21
-3.2352357086614174
0
LINE
8
BLACK
6
CONTINUOUS
10
3.0692742913385826
20
-3.2333425984251969
11
3.0698069685039369
21
-3.2338752755905511
0
LINE
8
BLACK
6
CONTINUOUS
10
3.0698069685039369
20
-3.2338752755905511
11
3.0698818897637796
21
-3.3562991732283463
0
LINE
8
BLACK
6
CONTINUOUS
10
3.0698818897637796
20
-3.3562991732283463
11
3.0698069685039369
21
-3.3566758267716534
0
LINE
8
BLACK
6
CONTINUOUS
10
3.0698069685039369
20
-3.3566758267716534
11
3.0692742913385826
21
-3.3572085039370076
0
LINE
8
BLACK
6
CONTINUOUS
10
3.0692742913385826
20
-3.3572085039370076
11
2.9311023622047245
21
-3.3572834251968504
0
LINE
8
BLACK
6
CONTINUOUS
10
2.9311023622047245
20
-3.3572834251968504
11
2.9307257086614174
21
-3.3572085039370076
0
LINE
8
BLACK
6
CONTINUOUS
10
2.9307257086614174
20
-3.3572085039370076
11
2.9301930314960631
21
-3.3566758267716534
0
LINE
8
BLACK
6
CONTINUOUS
10
2.9301930314960631
20
-3.3566758267716534
11
2.9301181102362204
21
-3.2342519291338583
0
LINE
8
BLACK
6
CONTINUOUS
10
2.9301181102362204
20
-3.2342519291338583
11
2.9301930314960631
21
-3.2338752755905511
0
LINE
8
BLACK
6
CONTINUOUS
10
2.9301930314960631
20
-3.2338752755905511
11
2.9307257086614174
21
-3.2333425984251969
0
LINE
8
BLACK
6
CONTINUOUS
10
2.9307257086614174
20
-3.2333425984251969
11
3.0688976377952755
21
-3.2332676771653541
0
LINE
8
BLACK
6
CONTINUOUS
10
3.0688976377952755
20
-3.2332676771653541
11
3.0692742913385826
21
-3.2333425984251969
0
LINE
8
BLACK
6
CONTINUOUS
10
2.9320125196850393
20
-3.2352356692913387
11
2.9320860236220474
21
-3.355389094488189
0
LINE
8
BLACK
6
CONTINUOUS
10
2.9320860236220474
20
-3.355389094488189
11
3.067987440944882
21
-3.3553153937007871
0
LINE
8
BLACK
6
CONTINUOUS
10
3.067987440944882
20
-3.3553153937007871
11
3.0679139370078738
21
-3.2351619685039368
0
LINE
8
BLACK
6
CONTINUOUS
10
3.0679139370078738
20
-3.2351619685039368
11
2.9320125196850393
21
-3.2352356692913387
0
LINE
8
BLACK
6
CONTINUOUS
10
14.9184247637795266
20
-3.1000225196850395
11
14.9252193307086607
21
-3.1018431102362203
0
LINE
8
BLACK
6
CONTINUOUS
10
14.9252193307086607
20
-3.1018431102362203
11
14.9315944881889759
21
-3.1048159055118107
0
LINE
8
BLACK
6
CONTINUOUS
10
14.9315944881889759
20
-3.1048159055118107
11
14.9373565748031485
21
-3.1088505511811024
0
LINE
8
BLACK
6
CONTINUOUS
10
14.9373565748031485
20
-3.1088505511811024
11
14.9423305511811026
21
-3.1138245275590553
0
LINE
8
BLACK
6
CONTINUOUS
10
14.9423305511811026
20
-3.1138245275590553
11
14.9463651968503939
21
-3.1195866141732282
0
LINE
8
BLACK
6
CONTINUOUS
10
14.9463651968503939
20
-3.1195866141732282
11
14.9493379921259848
21
-3.1259617716535431
0
LINE
8
BLACK
6
CONTINUOUS
10
14.9493379921259848
20
-3.1259617716535431
11
14.9511585826771647
21
-3.1327563385826771
0
LINE
8
BLACK
6
CONTINUOUS
10
14.9511585826771647
20
-3.1327563385826771
11
14.9517716535433074
21
-3.1397637795275588
0
LINE
8
BLACK
6
CONTINUOUS
10
14.9517716535433074
20
-3.1397637795275588
11
14.9516967322834642
21
-3.1399942913385828
0
LINE
8
BLACK
6
CONTINUOUS
10
14.9516967322834642
20
-3.1399942913385828
11
14.9517716535433074
21
-6.1122047244094491
0
LINE
8
BLACK
6
CONTINUOUS
10
14.9517716535433074
20
-6.1122047244094491
11
14.9511585826771647
21
-6.1192121653543303
0
LINE
8
BLACK
6
CONTINUOUS
10
14.9511585826771647
20
-6.1192121653543303
11
14.9493379921259848
21
-6.1260067322834644
0
LINE
8
BLACK
6
CONTINUOUS
10
14.9493379921259848
20
-6.1260067322834644
11
14.9463651968503939
21
-6.1323818897637796
0
LINE
8
BLACK
6
CONTINUOUS
10
14.9463651968503939
20
-6.1323818897637796
11
14.9423305511811026
21
-6.1381439763779531
0
LINE
8
BLACK
6
CONTINUOUS
10
14.9423305511811026
20
-6.1381439763779531
11
14.9373565748031485
21
-6.1431179527559054
0
LINE
8
BLACK
6
CONTINUOUS
10
14.9373565748031485
20
-6.1431179527559054
11
14.9315944881889759
21
-6.1471525984251967
0
LINE
8
BLACK
6
CONTINUOUS
10
14.9315944881889759
20
-6.1471525984251967
11
14.9252193307086607
21
-6.1501253937007876
0
LINE
8
BLACK
6
CONTINUOUS
10
14.9252193307086607
20
-6.1501253937007876
11
14.9184247637795266
21
-6.1519459842519684
0
LINE
8
BLACK
6
CONTINUOUS
10
14.9184247637795266
20
-6.1519459842519684
11
14.9114173228346445
21
-6.1525590551181102
0
LINE
8
BLACK
6
CONTINUOUS
10
14.9114173228346445
20
-6.1525590551181102
11
14.9111868503937011
21
-6.1524841338582679
0
LINE
8
BLACK
6
CONTINUOUS
10
14.9111868503937011
20
-6.1524841338582679
11
13.4724409448818889
21
-6.1525590551181102
0
LINE
8
BLACK
6
CONTINUOUS
10
13.4724409448818889
20
-6.1525590551181102
11
13.4669655118110239
21
-6.1519421259842515
0
LINE
8
BLACK
6
CONTINUOUS
10
13.4669655118110239
20
-6.1519421259842515
11
13.4617646850393697
21
-6.150122283464567
0
LINE
8
BLACK
6
CONTINUOUS
10
13.4617646850393697
20
-6.150122283464567
11
13.4570991732283467
21
-6.1471907480314956
0
LINE
8
BLACK
6
CONTINUOUS
10
13.4570991732283467
20
-6.1471907480314956
11
13.4532029527559054
21
-6.1432945275590551
0
LINE
8
BLACK
6
CONTINUOUS
10
13.4532029527559054
20
-6.1432945275590551
11
13.4502714173228348
21
-6.1386290157480312
0
LINE
8
BLACK
6
CONTINUOUS
10
13.4502714173228348
20
-6.1386290157480312
11
13.4484515748031495
21
-6.133428188976378
0
LINE
8
BLACK
6
CONTINUOUS
10
13.4484515748031495
20
-6.133428188976378
11
13.4478346456692908
21
-6.127952755905512
0
LINE
8
BLACK
6
CONTINUOUS
10
13.4478346456692908
20
-6.127952755905512
11
13.4479070472440938
21
-6.1277298031496059
0
LINE
8
BLACK
6
CONTINUOUS
10
13.4479070472440938
20
-6.1277298031496059
11
13.4478346456692908
21
-6.1102362204724407
0
LINE
8
BLACK
6
CONTINUOUS
10
13.4478346456692908
20
-6.1102362204724407
11
13.4478346456692908
21
-6.1076855511811026
0
LINE
8
BLACK
6
CONTINUOUS
10
13.4478346456692908
20
-6.1076855511811026
11
13.4466994881889761
21
-6.1027121259842518
0
LINE
8
BLACK
6
CONTINUOUS
10
13.4466994881889761
20
-6.1027121259842518
11
13.4444861023622035
21
-6.0981159842519688
0
LINE
8
BLACK
6
CONTINUOUS
10
13.4444861023622035
20
-6.0981159842519688
11
13.4413054724409449
21
-6.0941275984251968
0
LINE
8
BLACK
6
CONTINUOUS
10
13.4413054724409449
20
-6.0941275984251968
11
13.4373170866141738
21
-6.0909469685039372
0
LINE
8
BLACK
6
CONTINUOUS
10
13.4373170866141738
20
-6.0909469685039372
11
13.4327209448818898
21
-6.0887335826771656
0
LINE
8
BLACK
6
CONTINUOUS
10
13.4327209448818898
20
-6.0887335826771656
11
13.4277475196850382
21
-6.08759842519685
0
LINE
8
BLACK
6
CONTINUOUS
10
13.4277475196850382
20
-6.08759842519685
11
13.4251968503937
21
-6.08759842519685
0
LINE
8
BLACK
6
CONTINUOUS
10
13.4251968503937
20
-6.08759842519685
11
13.4226461811023619
21
-6.08759842519685
0
LINE
8
BLACK
6
CONTINUOUS
10
13.4226461811023619
20
-6.08759842519685
11
13.417672755905512
21
-6.0887335826771656
0
LINE
8
BLACK
6
CONTINUOUS
10
13.417672755905512
20
-6.0887335826771656
11
13.4130766141732281
21
-6.0909469685039372
0
LINE
8
BLACK
6
CONTINUOUS
10
13.4130766141732281
20
-6.0909469685039372
11
13.409088228346457
21
-6.0941275984251968
0
LINE
8
BLACK
6
CONTINUOUS
10
13.409088228346457
20
-6.0941275984251968
11
13.4059075984251965
21
-6.0981159842519688
0
LINE
8
BLACK
6
CONTINUOUS
10
13.4059075984251965
20
-6.0981159842519688
11
13.4036942125984258
21
-6.1027121259842518
0
LINE
8
BLACK
6
CONTINUOUS
10
13.4036942125984258
20
-6.1027121259842518
11
13.4025590551181093
21
-6.1076855511811026
0
LINE
8
BLACK
6
CONTINUOUS
10
13.4025590551181093
20
-6.1076855511811026
11
13.4025590551181093
21
-6.1102362204724407
0
LINE
8
BLACK
6
CONTINUOUS
10
13.4025590551181093
20
-6.1102362204724407
11
13.4024866141732275
21
-6.1104591338582672
0
LINE
8
BLACK
6
CONTINUOUS
10
13.4024866141732275
20
-6.1104591338582672
11
13.4025590551181093
21
-6.127952755905512
0
LINE
8
BLACK
6
CONTINUOUS
10
13.4025590551181093
20
-6.127952755905512
11
13.4019421259842524
21
-6.133428188976378
0
LINE
8
BLACK
6
CONTINUOUS
10
13.4019421259842524
20
-6.133428188976378
11
13.400122283464567
21
-6.1386290157480312
0
LINE
8
BLACK
6
CONTINUOUS
10
13.400122283464567
20
-6.1386290157480312
11
13.3971907480314965
21
-6.1432945275590551
0
LINE
8
BLACK
6
CONTINUOUS
10
13.3971907480314965
20
-6.1432945275590551
11
13.3932945275590551
21
-6.1471907480314956
0
LINE
8
BLACK
6
CONTINUOUS
10
13.3932945275590551
20
-6.1471907480314956
11
13.3886290157480303
21
-6.150122283464567
0
LINE
8
BLACK
6
CONTINUOUS
10
13.3886290157480303
20
-6.150122283464567
11
13.383428188976378
21
-6.1519421259842515
0
LINE
8
BLACK
6
CONTINUOUS
10
13.383428188976378
20
-6.1519421259842515
11
13.3779527559055111
21
-6.1525590551181102
0
LINE
8
BLACK
6
CONTINUOUS
10
13.3779527559055111
20
-6.1525590551181102
11
13.3777265354330712
21
-6.1524855118110233
0
LINE
8
BLACK
6
CONTINUOUS
10
13.3777265354330712
20
-6.1524855118110233
11
13.3464566929133852
21
-6.1525590551181102
0
LINE
8
BLACK
6
CONTINUOUS
10
13.3464566929133852
20
-6.1525590551181102
11
13.3430983858267709
21
-6.1525590551181102
0
LINE
8
BLACK
6
CONTINUOUS
10
13.3430983858267709
20
-6.1525590551181102
11
13.3364837795275584
21
-6.1537253937007872
0
LINE
8
BLACK
6
CONTINUOUS
10
13.3364837795275584
20
-6.1537253937007872
11
13.3301721653543304
21
-6.1560226377952754
0
LINE
8
BLACK
6
CONTINUOUS
10
13.3301721653543304
20
-6.1560226377952754
11
13.3243553937007864
21
-6.1593809448818897
0
LINE
8
BLACK
6
CONTINUOUS
10
13.3243553937007864
20
-6.1593809448818897
11
13.319210157480315
21
-6.1636983464566928
0
LINE
8
BLACK
6
CONTINUOUS
10
13.319210157480315
20
-6.1636983464566928
11
13.314892755905511
21
-6.168843582677165
0
LINE
8
BLACK
6
CONTINUOUS
10
13.314892755905511
20
-6.168843582677165
11
13.3115344488188967
21
-6.1746603543307081
0
LINE
8
BLACK
6
CONTINUOUS
10
13.3115344488188967
20
-6.1746603543307081
11
13.3092372047244094
21
-6.180971968503937
0
LINE
8
BLACK
6
CONTINUOUS
10
13.3092372047244094
20
-6.180971968503937
11
13.3080708661417315
21
-6.1875865748031496
0
LINE
8
BLACK
6
CONTINUOUS
10
13.3080708661417315
20
-6.1875865748031496
11
13.3080708661417315
21
-6.1909448818897639
0
LINE
8
BLACK
6
CONTINUOUS
10
13.3080708661417315
20
-6.1909448818897639
11
13.3079965748031501
21
-6.1911734251968502
0
LINE
8
BLACK
6
CONTINUOUS
10
13.3079965748031501
20
-6.1911734251968502
11
13.3080708661417315
21
-6.2598425196850389
0
LINE
8
BLACK
6
CONTINUOUS
10
13.3080708661417315
20
-6.2598425196850389
11
13.3074577952755906
21
-6.2668499606299211
0
LINE
8
BLACK
6
CONTINUOUS
10
13.3074577952755906
20
-6.2668499606299211
11
13.3056372047244089
21
-6.2736445275590551
0
LINE
8
BLACK
6
CONTINUOUS
10
13.3056372047244089
20
-6.2736445275590551
11
13.302664409448818
21
-6.2800196850393704
0
LINE
8
BLACK
6
CONTINUOUS
10
13.302664409448818
20
-6.2800196850393704
11
13.2986297637795268
21
-6.2857817716535429
0
LINE
8
BLACK
6
CONTINUOUS
10
13.2986297637795268
20
-6.2857817716535429
11
13.2936557874015744
21
-6.2907557480314962
0
LINE
8
BLACK
6
CONTINUOUS
10
13.2936557874015744
20
-6.2907557480314962
11
13.2878937007874018
21
-6.2947903937007874
0
LINE
8
BLACK
6
CONTINUOUS
10
13.2878937007874018
20
-6.2947903937007874
11
13.2815185433070866
21
-6.2977631889763774
0
LINE
8
BLACK
6
CONTINUOUS
10
13.2815185433070866
20
-6.2977631889763774
11
13.2747239763779525
21
-6.2995837795275591
0
LINE
8
BLACK
6
CONTINUOUS
10
13.2747239763779525
20
-6.2995837795275591
11
13.2677165354330704
21
-6.3001968503937009
0
LINE
8
BLACK
6
CONTINUOUS
10
13.2677165354330704
20
-6.3001968503937009
11
13.2674860236220464
21
-6.3001219291338577
0
LINE
8
BLACK
6
CONTINUOUS
10
13.2674860236220464
20
-6.3001219291338577
11
11.0334645669291334
21
-6.3001968503937009
0
LINE
8
BLACK
6
CONTINUOUS
10
11.0334645669291334
20
-6.3001968503937009
11
11.0264571259842512
21
-6.2995837795275591
0
LINE
8
BLACK
6
CONTINUOUS
10
11.0264571259842512
20
-6.2995837795275591
11
11.0196625590551172
21
-6.2977631889763774
0
LINE
8
BLACK
6
CONTINUOUS
10
11.0196625590551172
20
-6.2977631889763774
11
11.0132874015748037
21
-6.2947903937007874
0
LINE
8
BLACK
6
CONTINUOUS
10
11.0132874015748037
20
-6.2947903937007874
11
11.0075253149606294
21
-6.2907557480314962
0
LINE
8
BLACK
6
CONTINUOUS
10
11.0075253149606294
20
-6.2907557480314962
11
11.002551338582677
21
-6.2857817716535429
0
LINE
8
BLACK
6
CONTINUOUS
10
11.002551338582677
20
-6.2857817716535429
11
10.9985166929133857
21
-6.2800196850393704
0
LINE
8
BLACK
6
CONTINUOUS
10
10.9985166929133857
20
-6.2800196850393704
11
10.9955438976377948
21
-6.2736445275590551
0
LINE
8
BLACK
6
CONTINUOUS
10
10.9955438976377948
20
-6.2736445275590551
11
10.9937233070866132
21
-6.2668499606299211
0
LINE
8
BLACK
6
CONTINUOUS
10
10.9937233070866132
20
-6.2668499606299211
11
10.9931102362204722
21
-6.2598425196850389
0
LINE
8
BLACK
6
CONTINUOUS
10
10.9931102362204722
20
-6.2598425196850389
11
10.9931844881889766
21
-6.2596139370078738
0
LINE
8
BLACK
6
CONTINUOUS
10
10.9931844881889766
20
-6.2596139370078738
11
10.9931102362204722
21
-6.1909448818897639
0
LINE
8
BLACK
6
CONTINUOUS
10
10.9931102362204722
20
-6.1909448818897639
11
10.9931102362204722
21
-6.1875865748031496
0
LINE
8
BLACK
6
CONTINUOUS
10
10.9931102362204722
20
-6.1875865748031496
11
10.9919438976377943
21
-6.180971968503937
0
LINE
8
BLACK
6
CONTINUOUS
10
10.9919438976377943
20
-6.180971968503937
11
10.9896466535433071
21
-6.1746603543307081
0
LINE
8
BLACK
6
CONTINUOUS
10
10.9896466535433071
20
-6.1746603543307081
11
10.9862883464566927
21
-6.168843582677165
0
LINE
8
BLACK
6
CONTINUOUS
10
10.9862883464566927
20
-6.168843582677165
11
10.9819709448818887
21
-6.1636983464566928
0
LINE
8
BLACK
6
CONTINUOUS
10
10.9819709448818887
20
-6.1636983464566928
11
10.9768257086614174
21
-6.1593809448818897
0
LINE
8
BLACK
6
CONTINUOUS
10
10.9768257086614174
20
-6.1593809448818897
11
10.9710089370078734
21
-6.1560226377952754
0
LINE
8
BLACK
6
CONTINUOUS
10
10.9710089370078734
20
-6.1560226377952754
11
10.9646973228346454
21
-6.1537253937007872
0
LINE
8
BLACK
6
CONTINUOUS
10
10.9646973228346454
20
-6.1537253937007872
11
10.9580827165354329
21
-6.1525590551181102
0
LINE
8
BLACK
6
CONTINUOUS
10
10.9580827165354329
20
-6.1525590551181102
11
10.9547244094488185
21
-6.1525590551181102
0
LINE
8
BLACK
6
CONTINUOUS
10
10.9547244094488185
20
-6.1525590551181102
11
10.9544938188976371
21
-6.1524841338582679
0
LINE
8
BLACK
6
CONTINUOUS
10
10.9544938188976371
20
-6.1524841338582679
11
2.6377952755905509
21
-6.1525590551181102
0
LINE
8
BLACK
6
CONTINUOUS
10
2.6377952755905509
20
-6.1525590551181102
11
2.6307878346456692
21
-6.1519459842519684
0
LINE
8
BLACK
6
CONTINUOUS
10
2.6307878346456692
20
-6.1519459842519684
11
2.6239932677165352
21
-6.1501253937007876
0
LINE
8
BLACK
6
CONTINUOUS
10
2.6239932677165352
20
-6.1501253937007876
11
2.6176181102362204
21
-6.1471525984251967
0
LINE
8
BLACK
6
CONTINUOUS
10
2.6176181102362204
20
-6.1471525984251967
11
2.6118560236220474
21
-6.1431179527559054
0
LINE
8
BLACK
6
CONTINUOUS
10
2.6118560236220474
20
-6.1431179527559054
11
2.6068820472440946
21
-6.1381439763779531
0
LINE
8
BLACK
6
CONTINUOUS
10
2.6068820472440946
20
-6.1381439763779531
11
2.6028474015748029
21
-6.1323818897637796
0
LINE
8
BLACK
6
CONTINUOUS
10
2.6028474015748029
20
-6.1323818897637796
11
2.5998746062992124
21
-6.1260067322834644
0
LINE
8
BLACK
6
CONTINUOUS
10
2.5998746062992124
20
-6.1260067322834644
11
2.5980540157480316
21
-6.1192121653543303
0
LINE
8
BLACK
6
CONTINUOUS
10
2.5980540157480316
20
-6.1192121653543303
11
2.5974409448818898
21
-6.1122047244094491
0
LINE
8
BLACK
6
CONTINUOUS
10
2.5974409448818898
20
-6.1122047244094491
11
2.5975158267716534
21
-6.1119741732283464
0
LINE
8
BLACK
6
CONTINUOUS
10
2.5975158267716534
20
-6.1119741732283464
11
2.5974409448818898
21
-3.1397637795275588
0
LINE
8
BLACK
6
CONTINUOUS
10
2.5974409448818898
20
-3.1397637795275588
11
2.5980540157480316
21
-3.1327563385826771
0
LINE
8
BLACK
6
CONTINUOUS
10
2.5980540157480316
20
-3.1327563385826771
11
2.5998746062992124
21
-3.1259617716535431
0
LINE
8
BLACK
6
CONTINUOUS
10
2.5998746062992124
20
-3.1259617716535431
11
2.6028474015748029
21
-3.1195866141732282
0
LINE
8
BLACK
6
CONTINUOUS
10
2.6028474015748029
20
-3.1195866141732282
11
2.6068820472440946
21
-3.1138245275590553
0
LINE
8
BLACK
6
CONTINUOUS
10
2.6068820472440946
20
-3.1138245275590553
11
2.6118560236220474
21
-3.1088505511811024
0
LINE
8
BLACK
6
CONTINUOUS
10
2.6118560236220474
20
-3.1088505511811024
11
2.6176181102362204
21
-3.1048159055118107
0
LINE
8
BLACK
6
CONTINUOUS
10
2.6176181102362204
20
-3.1048159055118107
11
2.6239932677165352
21
-3.1018431102362203
0
LINE
8
BLACK
6
CONTINUOUS
10
2.6239932677165352
20
-3.1018431102362203
11
2.6307878346456692
21
-3.1000225196850395
0
LINE
8
BLACK
6
CONTINUOUS
10
2.6307878346456692
20
-3.1000225196850395
11
2.6377952755905509
21
-3.0994094488188977
0
LINE
8
BLACK
6
CONTINUOUS
10
2.6377952755905509
20
-3.0994094488188977
11
2.6380258267716536
21
-3.0994843307086613
0
LINE
8
BLACK
6
CONTINUOUS
10
2.6380258267716536
20
-3.0994843307086613
11
13.3779527559055111
21
-3.0994094488188977
0
LINE
8
BLACK
6
CONTINUOUS
10
13.3779527559055111
20
-3.0994094488188977
11
13.383428188976378
21
-3.1000263779527559
0
LINE
8
BLACK
6
CONTINUOUS
10
13.383428188976378
20
-3.1000263779527559
11
13.3886290157480303
21
-3.1018462204724409
0
LINE
8
BLACK
6
CONTINUOUS
10
13.3886290157480303
20
-3.1018462204724409
11
13.3932945275590551
21
-3.1047777559055119
0
LINE
8
BLACK
6
CONTINUOUS
10
13.3932945275590551
20
-3.1047777559055119
11
13.3971907480314965
21
-3.1086739763779527
0
LINE
8
BLACK
6
CONTINUOUS
10
13.3971907480314965
20
-3.1086739763779527
11
13.400122283464567
21
-3.1133394881889762
0
LINE
8
BLACK
6
CONTINUOUS
10
13.400122283464567
20
-3.1133394881889762
11
13.4019421259842524
21
-3.1185403149606299
0
LINE
8
BLACK
6
CONTINUOUS
10
13.4019421259842524
20
-3.1185403149606299
11
13.4025590551181093
21
-3.1240157480314958
0
LINE
8
BLACK
6
CONTINUOUS
10
13.4025590551181093
20
-3.1240157480314958
11
13.4024866141732275
21
-3.1242386614173228
0
LINE
8
BLACK
6
CONTINUOUS
10
13.4024866141732275
20
-3.1242386614173228
11
13.4025590551181093
21
-3.1417322834645667
0
LINE
8
BLACK
6
CONTINUOUS
10
13.4025590551181093
20
-3.1417322834645667
11
13.4025590551181093
21
-3.1442829527559053
0
LINE
8
BLACK
6
CONTINUOUS
10
13.4025590551181093
20
-3.1442829527559053
11
13.4036942125984258
21
-3.149256377952756
0
LINE
8
BLACK
6
CONTINUOUS
10
13.4036942125984258
20
-3.149256377952756
11
13.4059075984251965
21
-3.1538525196850391
0
LINE
8
BLACK
6
CONTINUOUS
10
13.4059075984251965
20
-3.1538525196850391
11
13.409088228346457
21
-3.1578409055118111
0
LINE
8
BLACK
6
CONTINUOUS
10
13.409088228346457
20
-3.1578409055118111
11
13.4130766141732281
21
-3.1610215354330706
0
LINE
8
BLACK
6
CONTINUOUS
10
13.4130766141732281
20
-3.1610215354330706
11
13.417672755905512
21
-3.1632349212598423
0
LINE
8
BLACK
6
CONTINUOUS
10
13.417672755905512
20
-3.1632349212598423
11
13.4226461811023619
21
-3.1643700787401574
0
LINE
8
BLACK
6
CONTINUOUS
10
13.4226461811023619
20
-3.1643700787401574
11
13.4251968503937
21
-3.1643700787401574
0
LINE
8
BLACK
6
CONTINUOUS
10
13.4251968503937
20
-3.1643700787401574
11
13.4277475196850382
21
-3.1643700787401574
0
LINE
8
BLACK
6
CONTINUOUS
10
13.4277475196850382
20
-3.1643700787401574
11
13.4327209448818898
21
-3.1632349212598423
0
LINE
8
BLACK
6
CONTINUOUS
10
13.4327209448818898
20
-3.1632349212598423
11
13.4373170866141738
21
-3.1610215354330706
0
LINE
8
BLACK
6
CONTINUOUS
10
13.4373170866141738
20
-3.1610215354330706
11
13.4413054724409449
21
-3.1578409055118111
0
LINE
8
BLACK
6
CONTINUOUS
10
13.4413054724409449
20
-3.1578409055118111
11
13.4444861023622035
21
-3.1538525196850391
0
LINE
8
BLACK
6
CONTINUOUS
10
13.4444861023622035
20
-3.1538525196850391
11
13.4466994881889761
21
-3.149256377952756
0
LINE
8
BLACK
6
CONTINUOUS
10
13.4466994881889761
20
-3.149256377952756
11
13.4478346456692908
21
-3.1442829527559053
0
LINE
8
BLACK
6
CONTINUOUS
10
13.4478346456692908
20
-3.1442829527559053
11
13.4478346456692908
21
-3.1417322834645667
0
LINE
8
BLACK
6
CONTINUOUS
10
13.4478346456692908
20
-3.1417322834645667
11
13.4479070472440938
21
-3.1415093307086615
0
LINE
8
BLACK
6
CONTINUOUS
10
13.4479070472440938
20
-3.1415093307086615
11
13.4478346456692908
21
-3.1240157480314958
0
LINE
8
BLACK
6
CONTINUOUS
10
13.4478346456692908
20
-3.1240157480314958
11
13.4484515748031495
21
-3.1185403149606299
0
LINE
8
BLACK
6
CONTINUOUS
10
13.4484515748031495
20
-3.1185403149606299
11
13.4502714173228348
21
-3.1133394881889762
0
LINE
8
BLACK
6
CONTINUOUS
10
13.4502714173228348
20
-3.1133394881889762
11
13.4532029527559054
21
-3.1086739763779527
0
LINE
8
BLACK
6
CONTINUOUS
10
13.4532029527559054
20
-3.1086739763779527
11
13.4570991732283467
21
-3.1047777559055119
0
LINE
8
BLACK
6
CONTINUOUS
10
13.4570991732283467
20
-3.1047777559055119
11
13.4617646850393697
21
-3.1018462204724409
0
LINE
8
BLACK
6
CONTINUOUS
10
13.4617646850393697
20
-3.1018462204724409
11
13.4669655118110239
21
-3.1000263779527559
0
LINE
8
BLACK
6
CONTINUOUS
10
13.4669655118110239
20
-3.1000263779527559
11
13.4724409448818889
21
-3.0994094488188977
0
LINE
8
BLACK
6
CONTINUOUS
10
13.4724409448818889
20
-3.0994094488188977
11
13.4726713779527554
21
-3.0994843307086613
0
LINE
8
BLACK
6
CONTINUOUS
10
13.4726713779527554
20
-3.0994843307086613
11
14.9114173228346445
21
-3.0994094488188977
0
LINE
8
BLACK
6
CONTINUOUS
10
14.9114173228346445
20
-3.0994094488188977
11
14.9184247637795266
21
-3.1000225196850395
0
LINE
8
BLACK
6
CONTINUOUS
10
13.4724409448818889
20
-3.1013779527559056
11
13.4698902755905507
21
-3.1013779527559056
0
LINE
8
BLACK
6
CONTINUOUS
10
13.4698902755905507
20
-3.1013779527559056
11
13.4649168503937009
21
-3.1025131102362202
0
LINE
8
BLACK
6
CONTINUOUS
10
13.4649168503937009
20
-3.1025131102362202
11
13.4603207086614169
21
-3.1047264960629919
0
LINE
8
BLACK
6
CONTINUOUS
10
13.4603207086614169
20
-3.1047264960629919
11
13.4563323228346459
21
-3.1079071259842519
0
LINE
8
BLACK
6
CONTINUOUS
10
13.4563323228346459
20
-3.1079071259842519
11
13.4531516929133854
21
-3.1118955118110234
0
LINE
8
BLACK
6
CONTINUOUS
10
13.4531516929133854
20
-3.1118955118110234
11
13.4509383070866146
21
-3.1164916535433069
0
LINE
8
BLACK
6
CONTINUOUS
10
13.4509383070866146
20
-3.1164916535433069
11
13.4498031496062982
21
-3.1214650787401572
0
LINE
8
BLACK
6
CONTINUOUS
10
13.4498031496062982
20
-3.1214650787401572
11
13.4498031496062982
21
-3.1240157480314958
0
LINE
8
BLACK
6
CONTINUOUS
10
13.4498031496062982
20
-3.1240157480314958
11
13.4497307086614164
21
-3.1242386614173228
0
LINE
8
BLACK
6
CONTINUOUS
10
13.4497307086614164
20
-3.1242386614173228
11
13.4498031496062982
21
-3.1417322834645667
0
LINE
8
BLACK
6
CONTINUOUS
10
13.4498031496062982
20
-3.1417322834645667
11
13.4491862204724413
21
-3.1472077165354331
0
LINE
8
BLACK
6
CONTINUOUS
10
13.4491862204724413
20
-3.1472077165354331
11
13.4473663779527559
21
-3.1524085433070868
0
LINE
8
BLACK
6
CONTINUOUS
10
13.4473663779527559
20
-3.1524085433070868
11
13.4444348425196853
21
-3.1570740551181102
0
LINE
8
BLACK
6
CONTINUOUS
10
13.4444348425196853
20
-3.1570740551181102
11
13.440538622047244
21
-3.1609702755905511
0
LINE
8
BLACK
6
CONTINUOUS
10
13.440538622047244
20
-3.1609702755905511
11
13.435873110236221
21
-3.1639018110236221
0
LINE
8
BLACK
6
CONTINUOUS
10
13.435873110236221
20
-3.1639018110236221
11
13.4306722834645669
21
-3.165721653543307
0
LINE
8
BLACK
6
CONTINUOUS
10
13.4306722834645669
20
-3.165721653543307
11
13.4251968503937
21
-3.1663385826771653
0
LINE
8
BLACK
6
CONTINUOUS
10
13.4251968503937
20
-3.1663385826771653
11
13.419721417322835
21
-3.165721653543307
0
LINE
8
BLACK
6
CONTINUOUS
10
13.419721417322835
20
-3.165721653543307
11
13.4145205905511808
21
-3.1639018110236221
0
LINE
8
BLACK
6
CONTINUOUS
10
13.4145205905511808
20
-3.1639018110236221
11
13.4098550787401578
21
-3.1609702755905511
0
LINE
8
BLACK
6
CONTINUOUS
10
13.4098550787401578
20
-3.1609702755905511
11
13.4059588582677165
21
-3.1570740551181102
0
LINE
8
BLACK
6
CONTINUOUS
10
13.4059588582677165
20
-3.1570740551181102
11
13.4030273228346459
21
-3.1524085433070868
0
LINE
8
BLACK
6
CONTINUOUS
10
13.4030273228346459
20
-3.1524085433070868
11
13.4012074803149606
21
-3.1472077165354331
0
LINE
8
BLACK
6
CONTINUOUS
10
13.4012074803149606
20
-3.1472077165354331
11
13.4005905511811019
21
-3.1417322834645667
0
LINE
8
BLACK
6
CONTINUOUS
10
13.4005905511811019
20
-3.1417322834645667
11
13.4006629527559049
21
-3.1415093307086615
0
LINE
8
BLACK
6
CONTINUOUS
10
13.4006629527559049
20
-3.1415093307086615
11
13.4005905511811019
21
-3.1240157480314958
0
LINE
8
BLACK
6
CONTINUOUS
10
13.4005905511811019
20
-3.1240157480314958
11
13.4005905511811019
21
-3.1214650787401572
0
LINE
8
BLACK
6
CONTINUOUS
10
13.4005905511811019
20
-3.1214650787401572
11
13.3994553937007872
21
-3.1164916535433069
0
LINE
8
BLACK
6
CONTINUOUS
10
13.3994553937007872
20
-3.1164916535433069
11
13.3972420078740146
21
-3.1118955118110234
0
LINE
8
BLACK
6
CONTINUOUS
10
13.3972420078740146
20
-3.1118955118110234
11
13.394061377952756
21
-3.1079071259842519
0
LINE
8
BLACK
6
CONTINUOUS
10
13.394061377952756
20
-3.1079071259842519
11
13.3900729921259831
21
-3.1047264960629919
0
LINE
8
BLACK
6
CONTINUOUS
10
13.3900729921259831
20
-3.1047264960629919
11
13.3854768503937009
21
-3.1025131102362202
0
LINE
8
BLACK
6
CONTINUOUS
10
13.3854768503937009
20
-3.1025131102362202
11
13.3805034251968493
21
-3.1013779527559056
0
LINE
8
BLACK
6
CONTINUOUS
10
13.3805034251968493
20
-3.1013779527559056
11
13.3779527559055111
21
-3.1013779527559056
0
LINE
8
BLACK
6
CONTINUOUS
10
13.3779527559055111
20
-3.1013779527559056
11
13.3777221653543297
21
-3.1013030314960628
0
LINE
8
BLACK
6
CONTINUOUS
10
13.3777221653543297
20
-3.1013030314960628
11
2.6377952755905509
21
-3.1013779527559056
0
LINE
8
BLACK
6
CONTINUOUS
10
2.6377952755905509
20
-3.1013779527559056
11
2.634436968503937
21
-3.1013779527559056
0
LINE
8
BLACK
6
CONTINUOUS
10
2.634436968503937
20
-3.1013779527559056
11
2.6278223622047245
21
-3.1025442913385826
0
LINE
8
BLACK
6
CONTINUOUS
10
2.6278223622047245
20
-3.1025442913385826
11
2.6215107480314961
21
-3.1048415354330707
0
LINE
8
BLACK
6
CONTINUOUS
10
2.6215107480314961
20
-3.1048415354330707
11
2.6156939763779525
21
-3.1081998425196851
0
LINE
8
BLACK
6
CONTINUOUS
10
2.6156939763779525
20
-3.1081998425196851
11
2.6105487401574803
21
-3.1125172440944882
0
LINE
8
BLACK
6
CONTINUOUS
10
2.6105487401574803
20
-3.1125172440944882
11
2.6062313385826772
21
-3.1176624803149604
0
LINE
8
BLACK
6
CONTINUOUS
10
2.6062313385826772
20
-3.1176624803149604
11
2.6028730314960629
21
-3.123479251968504
0
LINE
8
BLACK
6
CONTINUOUS
10
2.6028730314960629
20
-3.123479251968504
11
2.6005757874015747
21
-3.1297908661417324
0
LINE
8
BLACK
6
CONTINUOUS
10
2.6005757874015747
20
-3.1297908661417324
11
2.5994094488188977
21
-3.1364054724409449
0
LINE
8
BLACK
6
CONTINUOUS
10
2.5994094488188977
20
-3.1364054724409449
11
2.5994094488188977
21
-3.1397637795275588
0
LINE
8
BLACK
6
CONTINUOUS
10
2.5994094488188977
20
-3.1397637795275588
11
2.5993345275590549
21
-3.1399942913385828
0
LINE
8
BLACK
6
CONTINUOUS
10
2.5993345275590549
20
-3.1399942913385828
11
2.5994094488188977
21
-6.1122047244094491
0
LINE
8
BLACK
6
CONTINUOUS
10
2.5994094488188977
20
-6.1122047244094491
11
2.5994094488188977
21
-6.1155630314960625
0
LINE
8
BLACK
6
CONTINUOUS
10
2.5994094488188977
20
-6.1155630314960625
11
2.6005757874015747
21
-6.122177637795275
0
LINE
8
BLACK
6
CONTINUOUS
10
2.6005757874015747
20
-6.122177637795275
11
2.6028730314960629
21
-6.1284892519685039
0
LINE
8
BLACK
6
CONTINUOUS
10
2.6028730314960629
20
-6.1284892519685039
11
2.6062313385826772
21
-6.134306023622047
0
LINE
8
BLACK
6
CONTINUOUS
10
2.6062313385826772
20
-6.134306023622047
11
2.6105487401574803
21
-6.1394512598425193
0
LINE
8
BLACK
6
CONTINUOUS
10
2.6105487401574803
20
-6.1394512598425193
11
2.6156939763779525
21
-6.1437686614173224
0
LINE
8
BLACK
6
CONTINUOUS
10
2.6156939763779525
20
-6.1437686614173224
11
2.6215107480314961
21
-6.1471269685039367
0
LINE
8
BLACK
6
CONTINUOUS
10
2.6215107480314961
20
-6.1471269685039367
11
2.6278223622047245
21
-6.1494242125984249
0
LINE
8
BLACK
6
CONTINUOUS
10
2.6278223622047245
20
-6.1494242125984249
11
2.634436968503937
21
-6.1505905511811019
0
LINE
8
BLACK
6
CONTINUOUS
10
2.634436968503937
20
-6.1505905511811019
11
2.6377952755905509
21
-6.1505905511811019
0
LINE
8
BLACK
6
CONTINUOUS
10
2.6377952755905509
20
-6.1505905511811019
11
2.6380258267716536
21
-6.1506654330708663
0
LINE
8
BLACK
6
CONTINUOUS
10
2.6380258267716536
20
-6.1506654330708663
11
10.9547244094488185
21
-6.1505905511811019
0
LINE
8
BLACK
6
CONTINUOUS
10
10.9547244094488185
20
-6.1505905511811019
11
10.9617318503937007
21
-6.1512036220472437
0
LINE
8
BLACK
6
CONTINUOUS
10
10.9617318503937007
20
-6.1512036220472437
11
10.9685264173228347
21
-6.1530242125984254
0
LINE
8
BLACK
6
CONTINUOUS
10
10.9685264173228347
20
-6.1530242125984254
11
10.97490157480315
21
-6.1559970078740154
0
LINE
8
BLACK
6
CONTINUOUS
10
10.97490157480315
20
-6.1559970078740154
11
10.9806636614173225
21
-6.1600316535433066
0
LINE
8
BLACK
6
CONTINUOUS
10
10.9806636614173225
20
-6.1600316535433066
11
10.9856376377952749
21
-6.1650056299212599
0
LINE
8
BLACK
6
CONTINUOUS
10
10.9856376377952749
20
-6.1650056299212599
11
10.9896722834645661
21
-6.1707677165354333
0
LINE
8
BLACK
6
CONTINUOUS
10
10.9896722834645661
20
-6.1707677165354333
11
10.9926450787401571
21
-6.1771428740157477
0
LINE
8
BLACK
6
CONTINUOUS
10
10.9926450787401571
20
-6.1771428740157477
11
10.9944656692913387
21
-6.1839374409448817
0
LINE
8
BLACK
6
CONTINUOUS
10
10.9944656692913387
20
-6.1839374409448817
11
10.9950787401574797
21
-6.1909448818897639
0
LINE
8
BLACK
6
CONTINUOUS
10
10.9950787401574797
20
-6.1909448818897639
11
10.9950044488188983
21
-6.1911734251968502
0
LINE
8
BLACK
6
CONTINUOUS
10
10.9950044488188983
20
-6.1911734251968502
11
10.9950787401574797
21
-6.2598425196850389
0
LINE
8
BLACK
6
CONTINUOUS
10
10.9950787401574797
20
-6.2598425196850389
11
10.9950787401574797
21
-6.2632008267716532
0
LINE
8
BLACK
6
CONTINUOUS
10
10.9950787401574797
20
-6.2632008267716532
11
10.9962450787401576
21
-6.2698154330708658
0
LINE
8
BLACK
6
CONTINUOUS
10
10.9962450787401576
20
-6.2698154330708658
11
10.9985423228346448
21
-6.2761270472440946
0
LINE
8
BLACK
6
CONTINUOUS
10
10.9985423228346448
20
-6.2761270472440946
11
11.0019006299212592
21
-6.2819438188976378
0
LINE
8
BLACK
6
CONTINUOUS
10
11.0019006299212592
20
-6.2819438188976378
11
11.0062180314960631
21
-6.28708905511811
0
LINE
8
BLACK
6
CONTINUOUS
10
11.0062180314960631
20
-6.28708905511811
11
11.0113632677165345
21
-6.2914064566929131
0
LINE
8
BLACK
6
CONTINUOUS
10
11.0113632677165345
20
-6.2914064566929131
11
11.0171800393700785
21
-6.2947647637795274
0
LINE
8
BLACK
6
CONTINUOUS
10
11.0171800393700785
20
-6.2947647637795274
11
11.0234916535433065
21
-6.2970620078740156
0
LINE
8
BLACK
6
CONTINUOUS
10
11.0234916535433065
20
-6.2970620078740156
11
11.030106259842519
21
-6.2982283464566926
0
LINE
8
BLACK
6
CONTINUOUS
10
11.030106259842519
20
-6.2982283464566926
11
11.0334645669291334
21
-6.2982283464566926
0
LINE
8
BLACK
6
CONTINUOUS
10
11.0334645669291334
20
-6.2982283464566926
11
11.0336950393700786
21
-6.2983032283464562
0
LINE
8
BLACK
6
CONTINUOUS
10
11.0336950393700786
20
-6.2983032283464562
11
13.2677165354330704
21
-6.2982283464566926
0
LINE
8
BLACK
6
CONTINUOUS
10
13.2677165354330704
20
-6.2982283464566926
11
13.2710748425196847
21
-6.2982283464566926
0
LINE
8
BLACK
6
CONTINUOUS
10
13.2710748425196847
20
-6.2982283464566926
11
13.2776894488188972
21
-6.2970620078740156
0
LINE
8
BLACK
6
CONTINUOUS
10
13.2776894488188972
20
-6.2970620078740156
11
13.2840010629921252
21
-6.2947647637795274
0
LINE
8
BLACK
6
CONTINUOUS
10
13.2840010629921252
20
-6.2947647637795274
11
13.2898178346456692
21
-6.2914064566929131
0
LINE
8
BLACK
6
CONTINUOUS
10
13.2898178346456692
20
-6.2914064566929131
11
13.2949630708661406
21
-6.28708905511811
0
LINE
8
BLACK
6
CONTINUOUS
10
13.2949630708661406
20
-6.28708905511811
11
13.2992804724409446
21
-6.2819438188976378
0
LINE
8
BLACK
6
CONTINUOUS
10
13.2992804724409446
20
-6.2819438188976378
11
13.3026387795275589
21
-6.2761270472440946
0
LINE
8
BLACK
6
CONTINUOUS
10
13.3026387795275589
20
-6.2761270472440946
11
13.3049360236220462
21
-6.2698154330708658
0
LINE
8
BLACK
6
CONTINUOUS
10
13.3049360236220462
20
-6.2698154330708658
11
13.3061023622047241
21
-6.2632008267716532
0
LINE
8
BLACK
6
CONTINUOUS
10
13.3061023622047241
20
-6.2632008267716532
11
13.3061023622047241
21
-6.2598425196850389
0
LINE
8
BLACK
6
CONTINUOUS
10
13.3061023622047241
20
-6.2598425196850389
11
13.3061766141732285
21
-6.2596139370078738
0
LINE
8
BLACK
6
CONTINUOUS
10
13.3061766141732285
20
-6.2596139370078738
11
13.3061023622047241
21
-6.1909448818897639
0
LINE
8
BLACK
6
CONTINUOUS
10
13.3061023622047241
20
-6.1909448818897639
11
13.306715433070865
21
-6.1839374409448817
0
LINE
8
BLACK
6
CONTINUOUS
10
13.306715433070865
20
-6.1839374409448817
11
13.3085360236220467
21
-6.1771428740157477
0
LINE
8
BLACK
6
CONTINUOUS
10
13.3085360236220467
20
-6.1771428740157477
11
13.3115088188976376
21
-6.1707677165354333
0
LINE
8
BLACK
6
CONTINUOUS
10
13.3115088188976376
20
-6.1707677165354333
11
13.3155434645669288
21
-6.1650056299212599
0
LINE
8
BLACK
6
CONTINUOUS
10
13.3155434645669288
20
-6.1650056299212599
11
13.3205174409448812
21
-6.1600316535433066
0
LINE
8
BLACK
6
CONTINUOUS
10
13.3205174409448812
20
-6.1600316535433066
11
13.3262795275590555
21
-6.1559970078740154
0
LINE
8
BLACK
6
CONTINUOUS
10
13.3262795275590555
20
-6.1559970078740154
11
13.332654685039369
21
-6.1530242125984254
0
LINE
8
BLACK
6
CONTINUOUS
10
13.332654685039369
20
-6.1530242125984254
11
13.3394492519685031
21
-6.1512036220472437
0
LINE
8
BLACK
6
CONTINUOUS
10
13.3394492519685031
20
-6.1512036220472437
11
13.3464566929133852
21
-6.1505905511811019
0
LINE
8
BLACK
6
CONTINUOUS
10
13.3464566929133852
20
-6.1505905511811019
11
13.3466828740157482
21
-6.15066405511811
0
LINE
8
BLACK
6
CONTINUOUS
10
13.3466828740157482
20
-6.15066405511811
11
13.3779527559055111
21
-6.1505905511811019
0
LINE
8
BLACK
6
CONTINUOUS
10
13.3779527559055111
20
-6.1505905511811019
11
13.3805034251968493
21
-6.1505905511811019
0
LINE
8
BLACK
6
CONTINUOUS
10
13.3805034251968493
20
-6.1505905511811019
11
13.3854768503937009
21
-6.1494553937007872
0
LINE
8
BLACK
6
CONTINUOUS
10
13.3854768503937009
20
-6.1494553937007872
11
13.3900729921259831
21
-6.1472420078740155
0
LINE
8
BLACK
6
CONTINUOUS
10
13.3900729921259831
20
-6.1472420078740155
11
13.394061377952756
21
-6.144061377952756
0
LINE
8
BLACK
6
CONTINUOUS
10
13.394061377952756
20
-6.144061377952756
11
13.3972420078740146
21
-6.140072992125984
0
LINE
8
BLACK
6
CONTINUOUS
10
13.3972420078740146
20
-6.140072992125984
11
13.3994553937007872
21
-6.1354768503937009
0
LINE
8
BLACK
6
CONTINUOUS
10
13.3994553937007872
20
-6.1354768503937009
11
13.4005905511811019
21
-6.1305034251968502
0
LINE
8
BLACK
6
CONTINUOUS
10
13.4005905511811019
20
-6.1305034251968502
11
13.4005905511811019
21
-6.127952755905512
0
LINE
8
BLACK
6
CONTINUOUS
10
13.4005905511811019
20
-6.127952755905512
11
13.4006629527559049
21
-6.1277298031496059
0
LINE
8
BLACK
6
CONTINUOUS
10
13.4006629527559049
20
-6.1277298031496059
11
13.4005905511811019
21
-6.1102362204724407
0
LINE
8
BLACK
6
CONTINUOUS
10
13.4005905511811019
20
-6.1102362204724407
11
13.4012074803149606
21
-6.1047607874015748
0
LINE
8
BLACK
6
CONTINUOUS
10
13.4012074803149606
20
-6.1047607874015748
11
13.4030273228346459
21
-6.0995599606299216
0
LINE
8
BLACK
6
CONTINUOUS
10
13.4030273228346459
20
-6.0995599606299216
11
13.4059588582677165
21
-6.0948944488188976
0
LINE
8
BLACK
6
CONTINUOUS
10
13.4059588582677165
20
-6.0948944488188976
11
13.4098550787401578
21
-6.0909982283464563
0
LINE
8
BLACK
6
CONTINUOUS
10
13.4098550787401578
20
-6.0909982283464563
11
13.4145205905511808
21
-6.0880666929133858
0
LINE
8
BLACK
6
CONTINUOUS
10
13.4145205905511808
20
-6.0880666929133858
11
13.419721417322835
21
-6.0862468503937004
0
LINE
8
BLACK
6
CONTINUOUS
10
13.419721417322835
20
-6.0862468503937004
11
13.4251968503937
21
-6.0856299212598426
0
LINE
8
BLACK
6
CONTINUOUS
10
13.4251968503937
20
-6.0856299212598426
11
13.4306722834645669
21
-6.0862468503937004
0
LINE
8
BLACK
6
CONTINUOUS
10
13.4306722834645669
20
-6.0862468503937004
11
13.435873110236221
21
-6.0880666929133858
0
LINE
8
BLACK
6
CONTINUOUS
10
13.435873110236221
20
-6.0880666929133858
11
13.440538622047244
21
-6.0909982283464563
0
LINE
8
BLACK
6
CONTINUOUS
10
13.440538622047244
20
-6.0909982283464563
11
13.4444348425196853
21
-6.0948944488188976
0
LINE
8
BLACK
6
CONTINUOUS
10
13.4444348425196853
20
-6.0948944488188976
11
13.4473663779527559
21
-6.0995599606299216
0
LINE
8
BLACK
6
CONTINUOUS
10
13.4473663779527559
20
-6.0995599606299216
11
13.4491862204724413
21
-6.1047607874015748
0
LINE
8
BLACK
6
CONTINUOUS
10
13.4491862204724413
20
-6.1047607874015748
11
13.4498031496062982
21
-6.1102362204724407
0
LINE
8
BLACK
6
CONTINUOUS
10
13.4498031496062982
20
-6.1102362204724407
11
13.4497307086614164
21
-6.1104591338582672
0
LINE
8
BLACK
6
CONTINUOUS
10
13.4497307086614164
20
-6.1104591338582672
11
13.4498031496062982
21
-6.127952755905512
0
LINE
8
BLACK
6
CONTINUOUS
10
13.4498031496062982
20
-6.127952755905512
11
13.4498031496062982
21
-6.1305034251968502
0
LINE
8
BLACK
6
CONTINUOUS
10
13.4498031496062982
20
-6.1305034251968502
11
13.4509383070866146
21
-6.1354768503937009
0
LINE
8
BLACK
6
CONTINUOUS
10
13.4509383070866146
20
-6.1354768503937009
11
13.4531516929133854
21
-6.140072992125984
0
LINE
8
BLACK
6
CONTINUOUS
10
13.4531516929133854
20
-6.140072992125984
11
13.4563323228346459
21
-6.144061377952756
0
LINE
8
BLACK
6
CONTINUOUS
10
13.4563323228346459
20
-6.144061377952756
11
13.4603207086614169
21
-6.1472420078740155
0
LINE
8
BLACK
6
CONTINUOUS
10
13.4603207086614169
20
-6.1472420078740155
11
13.4649168503937009
21
-6.1494553937007872
0
LINE
8
BLACK
6
CONTINUOUS
10
13.4649168503937009
20
-6.1494553937007872
11
13.4698902755905507
21
-6.1505905511811019
0
LINE
8
BLACK
6
CONTINUOUS
10
13.4698902755905507
20
-6.1505905511811019
11
13.4724409448818889
21
-6.1505905511811019
0
LINE
8
BLACK
6
CONTINUOUS
10
13.4724409448818889
20
-6.1505905511811019
11
13.4726713779527554
21
-6.1506654330708663
0
LINE
8
BLACK
6
CONTINUOUS
10
13.4726713779527554
20
-6.1506654330708663
11
14.9114173228346445
21
-6.1505905511811019
0
LINE
8
BLACK
6
CONTINUOUS
10
14.9114173228346445
20
-6.1505905511811019
11
14.9147756299212588
21
-6.1505905511811019
0
LINE
8
BLACK
6
CONTINUOUS
10
14.9147756299212588
20
-6.1505905511811019
11
14.9213902362204713
21
-6.1494242125984249
0
LINE
8
BLACK
6
CONTINUOUS
10
14.9213902362204713
20
-6.1494242125984249
11
14.9277018503937011
21
-6.1471269685039367
0
LINE
8
BLACK
6
CONTINUOUS
10
14.9277018503937011
20
-6.1471269685039367
11
14.9335186220472433
21
-6.1437686614173224
0
LINE
8
BLACK
6
CONTINUOUS
10
14.9335186220472433
20
-6.1437686614173224
11
14.9386638582677165
21
-6.1394512598425193
0
LINE
8
BLACK
6
CONTINUOUS
10
14.9386638582677165
20
-6.1394512598425193
11
14.9429812598425187
21
-6.134306023622047
0
LINE
8
BLACK
6
CONTINUOUS
10
14.9429812598425187
20
-6.134306023622047
11
14.946339566929133
21
-6.1284892519685039
0
LINE
8
BLACK
6
CONTINUOUS
10
14.946339566929133
20
-6.1284892519685039
11
14.9486368110236221
21
-6.122177637795275
0
LINE
8
BLACK
6
CONTINUOUS
10
14.9486368110236221
20
-6.122177637795275
11
14.9498031496062982
21
-6.1155630314960625
0
LINE
8
BLACK
6
CONTINUOUS
10
14.9498031496062982
20
-6.1155630314960625
11
14.9498031496062982
21
-6.1122047244094491
0
LINE
8
BLACK
6
CONTINUOUS
10
14.9498031496062982
20
-6.1122047244094491
11
14.9498780314960626
21
-6.1119741732283464
0
LINE
8
BLACK
6
CONTINUOUS
10
14.9498780314960626
20
-6.1119741732283464
11
14.9498031496062982
21
-3.1397637795275588
0
LINE
8
BLACK
6
CONTINUOUS
10
14.9498031496062982
20
-3.1397637795275588
11
14.9498031496062982
21
-3.1364054724409449
0
LINE
8
BLACK
6
CONTINUOUS
10
14.9498031496062982
20
-3.1364054724409449
11
14.9486368110236221
21
-3.1297908661417324
0
LINE
8
BLACK
6
CONTINUOUS
10
14.9486368110236221
20
-3.1297908661417324
11
14.946339566929133
21
-3.123479251968504
0
LINE
8
BLACK
6
CONTINUOUS
10
14.946339566929133
20
-3.123479251968504
11
14.9429812598425187
21
-3.1176624803149604
0
LINE
8
BLACK
6
CONTINUOUS
10
14.9429812598425187
20
-3.1176624803149604
11
14.9386638582677165
21
-3.1125172440944882
0
LINE
8
BLACK
6
CONTINUOUS
10
14.9386638582677165
20
-3.1125172440944882
11
14.9335186220472433
21
-3.1081998425196851
0
LINE
8
BLACK
6
CONTINUOUS
10
14.9335186220472433
20
-3.1081998425196851
11
14.9277018503937011
21
-3.1048415354330707
0
LINE
8
BLACK
6
CONTINUOUS
10
14.9277018503937011
20
-3.1048415354330707
11
14.9213902362204713
21
-3.1025442913385826
0
LINE
8
BLACK
6
CONTINUOUS
10
14.9213902362204713
20
-3.1025442913385826
11
14.9147756299212588
21
-3.1013779527559056
0
LINE
8
BLACK
6
CONTINUOUS
10
14.9147756299212588
20
-3.1013779527559056
11
14.9114173228346445
21
-3.1013779527559056
0
LINE
8
BLACK
6
CONTINUOUS
10
14.9114173228346445
20
-3.1013779527559056
11
14.9111868503937011
21
-3.1013030314960628
0
LINE
8
BLACK
6
CONTINUOUS
10
14.9111868503937011
20
-3.1013030314960628
11
13.4724409448818889
21
-3.1013779527559056
  0
ENDSEC
  0
EOF
