G04 #@! TF.GenerationSoftware,KiCad,Pcbnew,8.0.1*
G04 #@! TF.CreationDate,2024-09-01T20:38:41+02:00*
G04 #@! TF.ProjectId,Mimic40_plate,4d696d69-6334-4305-9f70-6c6174652e6b,rev?*
G04 #@! TF.SameCoordinates,Original*
G04 #@! TF.FileFunction,Copper,L2,Bot*
G04 #@! TF.FilePolarity,Positive*
%FSLAX46Y46*%
G04 Gerber Fmt 4.6, Leading zero omitted, Abs format (unit mm)*
G04 Created by KiCad (PCBNEW 8.0.1) date 2024-09-01 20:38:41*
%MOMM*%
%LPD*%
G01*
G04 APERTURE LIST*
G04 APERTURE END LIST*
G04 #@! TA.AperFunction,NonConductor*
G36*
X339809640Y-79052027D02*
G01*
X339825080Y-79054472D01*
X339873154Y-79062086D01*
X339910046Y-79074073D01*
X339958544Y-79098783D01*
X339989929Y-79121586D01*
X340028413Y-79160070D01*
X340051217Y-79191457D01*
X340075925Y-79239950D01*
X340087913Y-79276845D01*
X340097973Y-79340358D01*
X340099500Y-79359757D01*
X340099500Y-79888695D01*
X340134103Y-80062658D01*
X340134106Y-80062667D01*
X340201983Y-80226540D01*
X340201990Y-80226553D01*
X340300535Y-80374034D01*
X340300538Y-80374038D01*
X340425961Y-80499461D01*
X340425965Y-80499464D01*
X340573446Y-80598009D01*
X340573459Y-80598016D01*
X340696363Y-80648923D01*
X340737334Y-80665894D01*
X340737336Y-80665894D01*
X340737341Y-80665896D01*
X340911304Y-80700499D01*
X340911307Y-80700500D01*
X340911309Y-80700500D01*
X341088693Y-80700500D01*
X341088694Y-80700499D01*
X341146682Y-80688964D01*
X341262658Y-80665896D01*
X341262661Y-80665894D01*
X341262666Y-80665894D01*
X341426547Y-80598013D01*
X341574035Y-80499464D01*
X341699464Y-80374035D01*
X341798013Y-80226547D01*
X341865894Y-80062666D01*
X341900500Y-79888691D01*
X341900500Y-79800000D01*
X341900500Y-79752405D01*
X341900500Y-79359757D01*
X341902027Y-79340360D01*
X341906766Y-79310438D01*
X341912087Y-79276843D01*
X341924072Y-79239955D01*
X341948785Y-79191452D01*
X341971583Y-79160073D01*
X342010073Y-79121583D01*
X342041452Y-79098785D01*
X342089955Y-79074072D01*
X342126843Y-79062087D01*
X342178320Y-79053933D01*
X342190360Y-79052027D01*
X342209757Y-79050500D01*
X342247595Y-79050500D01*
X378702405Y-79050500D01*
X378743907Y-79050500D01*
X378756061Y-79051097D01*
X378874317Y-79062744D01*
X378898145Y-79067483D01*
X379006005Y-79100202D01*
X379028453Y-79109501D01*
X379127849Y-79162629D01*
X379148059Y-79176133D01*
X379235179Y-79247630D01*
X379252369Y-79264820D01*
X379323866Y-79351940D01*
X379337370Y-79372150D01*
X379390495Y-79471538D01*
X379399798Y-79493997D01*
X379432514Y-79601848D01*
X379437256Y-79625688D01*
X379448903Y-79743937D01*
X379449500Y-79756092D01*
X379449500Y-155243907D01*
X379448903Y-155256062D01*
X379437256Y-155374311D01*
X379432514Y-155398151D01*
X379399798Y-155506002D01*
X379390495Y-155528461D01*
X379337370Y-155627849D01*
X379323866Y-155648059D01*
X379252369Y-155735179D01*
X379235179Y-155752369D01*
X379148059Y-155823866D01*
X379127849Y-155837370D01*
X379028461Y-155890495D01*
X379006002Y-155899798D01*
X378898151Y-155932514D01*
X378874311Y-155937256D01*
X378787215Y-155945834D01*
X378756060Y-155948903D01*
X378743907Y-155949500D01*
X342209757Y-155949500D01*
X342190360Y-155947973D01*
X342149549Y-155941509D01*
X342126845Y-155937913D01*
X342089950Y-155925925D01*
X342041457Y-155901217D01*
X342010070Y-155878413D01*
X341971586Y-155839929D01*
X341948782Y-155808542D01*
X341924073Y-155760046D01*
X341912086Y-155723152D01*
X341902027Y-155659639D01*
X341900500Y-155640242D01*
X341900500Y-155111306D01*
X341900499Y-155111304D01*
X341865896Y-154937341D01*
X341865893Y-154937332D01*
X341798016Y-154773459D01*
X341798009Y-154773446D01*
X341699464Y-154625965D01*
X341699461Y-154625961D01*
X341574038Y-154500538D01*
X341574034Y-154500535D01*
X341426553Y-154401990D01*
X341426540Y-154401983D01*
X341262667Y-154334106D01*
X341262658Y-154334103D01*
X341088694Y-154299500D01*
X341088691Y-154299500D01*
X341047595Y-154299500D01*
X341000000Y-154299500D01*
X340911309Y-154299500D01*
X340911306Y-154299500D01*
X340737341Y-154334103D01*
X340737332Y-154334106D01*
X340573459Y-154401983D01*
X340573446Y-154401990D01*
X340425965Y-154500535D01*
X340425961Y-154500538D01*
X340300538Y-154625961D01*
X340300535Y-154625965D01*
X340201990Y-154773446D01*
X340201983Y-154773459D01*
X340134106Y-154937332D01*
X340134103Y-154937341D01*
X340099500Y-155111304D01*
X340099500Y-155640242D01*
X340097973Y-155659641D01*
X340087913Y-155723154D01*
X340075925Y-155760049D01*
X340051217Y-155808542D01*
X340028413Y-155839929D01*
X339989929Y-155878413D01*
X339958542Y-155901217D01*
X339910049Y-155925925D01*
X339873154Y-155937913D01*
X339835734Y-155943840D01*
X339809639Y-155947973D01*
X339790243Y-155949500D01*
X339047595Y-155949500D01*
X339000000Y-155949500D01*
X338897648Y-155949500D01*
X338873329Y-155953351D01*
X338695465Y-155981522D01*
X338500776Y-156044781D01*
X338318386Y-156137715D01*
X338152786Y-156258028D01*
X338008028Y-156402786D01*
X337887715Y-156568386D01*
X337794781Y-156750776D01*
X337731522Y-156945465D01*
X337699500Y-157147648D01*
X337699500Y-158993907D01*
X337698903Y-159006062D01*
X337687256Y-159124311D01*
X337682514Y-159148151D01*
X337649798Y-159256002D01*
X337640495Y-159278461D01*
X337587370Y-159377849D01*
X337573866Y-159398059D01*
X337502369Y-159485179D01*
X337485179Y-159502369D01*
X337398059Y-159573866D01*
X337377849Y-159587370D01*
X337278461Y-159640495D01*
X337256002Y-159649798D01*
X337148151Y-159682514D01*
X337124311Y-159687256D01*
X337037215Y-159695834D01*
X337006060Y-159698903D01*
X336993907Y-159699500D01*
X280256093Y-159699500D01*
X280243939Y-159698903D01*
X280193081Y-159693893D01*
X280125688Y-159687256D01*
X280101848Y-159682514D01*
X279993997Y-159649798D01*
X279971541Y-159640496D01*
X279872150Y-159587370D01*
X279851940Y-159573866D01*
X279764820Y-159502369D01*
X279747630Y-159485179D01*
X279676133Y-159398059D01*
X279662629Y-159377849D01*
X279623441Y-159304534D01*
X279609501Y-159278453D01*
X279600201Y-159256002D01*
X279567483Y-159148145D01*
X279562744Y-159124317D01*
X279551097Y-159006061D01*
X279550500Y-158993907D01*
X279550500Y-157147648D01*
X279518477Y-156945465D01*
X279489127Y-156855137D01*
X279455220Y-156750781D01*
X279455218Y-156750778D01*
X279455218Y-156750776D01*
X279413238Y-156668387D01*
X279392490Y-156627666D01*
X282259500Y-156627666D01*
X282289608Y-156759580D01*
X282289611Y-156759588D01*
X282348323Y-156881504D01*
X282432694Y-156987305D01*
X282493289Y-157035626D01*
X282538493Y-157071675D01*
X282660412Y-157130389D01*
X282660416Y-157130389D01*
X282660419Y-157130391D01*
X282792333Y-157160499D01*
X282792338Y-157160499D01*
X282792340Y-157160500D01*
X282792342Y-157160500D01*
X296327658Y-157160500D01*
X296327660Y-157160500D01*
X296327662Y-157160499D01*
X296327666Y-157160499D01*
X296459580Y-157130391D01*
X296459581Y-157130390D01*
X296459588Y-157130389D01*
X296581507Y-157071675D01*
X296687305Y-156987305D01*
X296771675Y-156881507D01*
X296830389Y-156759588D01*
X296860499Y-156627666D01*
X301309500Y-156627666D01*
X301339608Y-156759580D01*
X301339611Y-156759588D01*
X301398323Y-156881504D01*
X301482694Y-156987305D01*
X301543289Y-157035626D01*
X301588493Y-157071675D01*
X301710412Y-157130389D01*
X301710416Y-157130389D01*
X301710419Y-157130391D01*
X301842333Y-157160499D01*
X301842338Y-157160499D01*
X301842340Y-157160500D01*
X301842342Y-157160500D01*
X315377658Y-157160500D01*
X315377660Y-157160500D01*
X315377662Y-157160499D01*
X315377666Y-157160499D01*
X315509580Y-157130391D01*
X315509581Y-157130390D01*
X315509588Y-157130389D01*
X315631507Y-157071675D01*
X315737305Y-156987305D01*
X315821675Y-156881507D01*
X315880389Y-156759588D01*
X315910499Y-156627666D01*
X320359500Y-156627666D01*
X320389608Y-156759580D01*
X320389611Y-156759588D01*
X320448323Y-156881504D01*
X320532694Y-156987305D01*
X320593289Y-157035626D01*
X320638493Y-157071675D01*
X320760412Y-157130389D01*
X320760416Y-157130389D01*
X320760419Y-157130391D01*
X320892333Y-157160499D01*
X320892338Y-157160499D01*
X320892340Y-157160500D01*
X320892342Y-157160500D01*
X334427658Y-157160500D01*
X334427660Y-157160500D01*
X334427662Y-157160499D01*
X334427666Y-157160499D01*
X334559580Y-157130391D01*
X334559581Y-157130390D01*
X334559588Y-157130389D01*
X334681507Y-157071675D01*
X334787305Y-156987305D01*
X334871675Y-156881507D01*
X334930389Y-156759588D01*
X334960500Y-156627660D01*
X334960500Y-156560000D01*
X334960500Y-156512405D01*
X334960500Y-152817666D01*
X343219500Y-152817666D01*
X343249608Y-152949580D01*
X343249611Y-152949588D01*
X343308323Y-153071504D01*
X343392694Y-153177305D01*
X343453289Y-153225626D01*
X343498493Y-153261675D01*
X343620412Y-153320389D01*
X343620416Y-153320389D01*
X343620419Y-153320391D01*
X343752333Y-153350499D01*
X343752338Y-153350499D01*
X343752340Y-153350500D01*
X343752342Y-153350500D01*
X357287658Y-153350500D01*
X357287660Y-153350500D01*
X357287662Y-153350499D01*
X357287666Y-153350499D01*
X357419580Y-153320391D01*
X357419581Y-153320390D01*
X357419588Y-153320389D01*
X357541507Y-153261675D01*
X357647305Y-153177305D01*
X357731675Y-153071507D01*
X357790389Y-152949588D01*
X357790394Y-152949565D01*
X357820499Y-152817666D01*
X362269500Y-152817666D01*
X362299608Y-152949580D01*
X362299611Y-152949588D01*
X362358323Y-153071504D01*
X362442694Y-153177305D01*
X362503289Y-153225626D01*
X362548493Y-153261675D01*
X362670412Y-153320389D01*
X362670416Y-153320389D01*
X362670419Y-153320391D01*
X362802333Y-153350499D01*
X362802338Y-153350499D01*
X362802340Y-153350500D01*
X362802342Y-153350500D01*
X376337658Y-153350500D01*
X376337660Y-153350500D01*
X376337662Y-153350499D01*
X376337666Y-153350499D01*
X376469580Y-153320391D01*
X376469581Y-153320390D01*
X376469588Y-153320389D01*
X376591507Y-153261675D01*
X376697305Y-153177305D01*
X376781675Y-153071507D01*
X376840389Y-152949588D01*
X376840394Y-152949565D01*
X376870499Y-152817666D01*
X376870500Y-152817658D01*
X376870500Y-139282341D01*
X376870499Y-139282333D01*
X376840391Y-139150419D01*
X376840389Y-139150414D01*
X376840389Y-139150412D01*
X376781675Y-139028493D01*
X376745626Y-138983289D01*
X376697305Y-138922694D01*
X376621319Y-138862099D01*
X376591507Y-138838325D01*
X376591505Y-138838324D01*
X376591504Y-138838323D01*
X376469588Y-138779611D01*
X376469580Y-138779608D01*
X376337666Y-138749500D01*
X376337660Y-138749500D01*
X376309562Y-138749500D01*
X362917595Y-138749500D01*
X362870000Y-138749500D01*
X362802340Y-138749500D01*
X362802333Y-138749500D01*
X362670419Y-138779608D01*
X362670411Y-138779611D01*
X362548495Y-138838323D01*
X362442694Y-138922694D01*
X362358323Y-139028495D01*
X362299611Y-139150411D01*
X362299608Y-139150419D01*
X362269500Y-139282333D01*
X362269500Y-152817666D01*
X357820499Y-152817666D01*
X357820500Y-152817658D01*
X357820500Y-139282341D01*
X357820499Y-139282333D01*
X357790391Y-139150419D01*
X357790389Y-139150414D01*
X357790389Y-139150412D01*
X357731675Y-139028493D01*
X357695626Y-138983289D01*
X357647305Y-138922694D01*
X357571319Y-138862099D01*
X357541507Y-138838325D01*
X357541505Y-138838324D01*
X357541504Y-138838323D01*
X357419588Y-138779611D01*
X357419580Y-138779608D01*
X357287666Y-138749500D01*
X357287660Y-138749500D01*
X357259562Y-138749500D01*
X343867595Y-138749500D01*
X343820000Y-138749500D01*
X343752340Y-138749500D01*
X343752333Y-138749500D01*
X343620419Y-138779608D01*
X343620411Y-138779611D01*
X343498495Y-138838323D01*
X343392694Y-138922694D01*
X343308323Y-139028495D01*
X343249611Y-139150411D01*
X343249608Y-139150419D01*
X343219500Y-139282333D01*
X343219500Y-152817666D01*
X334960500Y-152817666D01*
X334960500Y-150438695D01*
X340099500Y-150438695D01*
X340134103Y-150612658D01*
X340134106Y-150612667D01*
X340201983Y-150776540D01*
X340201990Y-150776553D01*
X340300535Y-150924034D01*
X340300538Y-150924038D01*
X340425961Y-151049461D01*
X340425965Y-151049464D01*
X340573446Y-151148009D01*
X340573459Y-151148016D01*
X340696363Y-151198923D01*
X340737334Y-151215894D01*
X340737336Y-151215894D01*
X340737341Y-151215896D01*
X340911304Y-151250499D01*
X340911307Y-151250500D01*
X340911309Y-151250500D01*
X341088693Y-151250500D01*
X341088694Y-151250499D01*
X341146682Y-151238964D01*
X341262658Y-151215896D01*
X341262661Y-151215894D01*
X341262666Y-151215894D01*
X341426547Y-151148013D01*
X341574035Y-151049464D01*
X341699464Y-150924035D01*
X341798013Y-150776547D01*
X341865894Y-150612666D01*
X341900500Y-150438691D01*
X341900500Y-150350000D01*
X341900500Y-150302405D01*
X341900500Y-141710438D01*
X341900500Y-141661309D01*
X341900500Y-141661306D01*
X341900499Y-141661304D01*
X341865896Y-141487341D01*
X341865893Y-141487332D01*
X341798016Y-141323459D01*
X341798009Y-141323446D01*
X341699464Y-141175965D01*
X341699461Y-141175961D01*
X341574038Y-141050538D01*
X341574034Y-141050535D01*
X341426553Y-140951990D01*
X341426540Y-140951983D01*
X341262667Y-140884106D01*
X341262658Y-140884103D01*
X341088694Y-140849500D01*
X341088691Y-140849500D01*
X341047595Y-140849500D01*
X341000000Y-140849500D01*
X340911309Y-140849500D01*
X340911306Y-140849500D01*
X340737341Y-140884103D01*
X340737332Y-140884106D01*
X340573459Y-140951983D01*
X340573446Y-140951990D01*
X340425965Y-141050535D01*
X340425961Y-141050538D01*
X340300538Y-141175961D01*
X340300535Y-141175965D01*
X340201990Y-141323446D01*
X340201983Y-141323459D01*
X340134106Y-141487332D01*
X340134103Y-141487341D01*
X340099500Y-141661304D01*
X340099500Y-150438695D01*
X334960500Y-150438695D01*
X334960500Y-143120438D01*
X334960500Y-143092340D01*
X334960499Y-143092338D01*
X334960499Y-143092333D01*
X334930391Y-142960419D01*
X334930389Y-142960416D01*
X334930389Y-142960412D01*
X334871675Y-142838493D01*
X334835626Y-142793289D01*
X334787305Y-142732694D01*
X334681504Y-142648323D01*
X334559588Y-142589611D01*
X334559580Y-142589608D01*
X334427666Y-142559500D01*
X334427660Y-142559500D01*
X334399562Y-142559500D01*
X321007595Y-142559500D01*
X320960000Y-142559500D01*
X320892340Y-142559500D01*
X320892333Y-142559500D01*
X320760419Y-142589608D01*
X320760411Y-142589611D01*
X320638495Y-142648323D01*
X320532694Y-142732694D01*
X320448323Y-142838495D01*
X320389611Y-142960411D01*
X320389608Y-142960419D01*
X320359500Y-143092333D01*
X320359500Y-156627666D01*
X315910499Y-156627666D01*
X315910500Y-156627660D01*
X315910500Y-156560000D01*
X315910500Y-156512405D01*
X315910500Y-143120438D01*
X315910500Y-143092340D01*
X315910499Y-143092338D01*
X315910499Y-143092333D01*
X315880391Y-142960419D01*
X315880389Y-142960416D01*
X315880389Y-142960412D01*
X315821675Y-142838493D01*
X315785626Y-142793289D01*
X315737305Y-142732694D01*
X315631504Y-142648323D01*
X315509588Y-142589611D01*
X315509580Y-142589608D01*
X315377666Y-142559500D01*
X315377660Y-142559500D01*
X315349562Y-142559500D01*
X301957595Y-142559500D01*
X301910000Y-142559500D01*
X301842340Y-142559500D01*
X301842333Y-142559500D01*
X301710419Y-142589608D01*
X301710411Y-142589611D01*
X301588495Y-142648323D01*
X301482694Y-142732694D01*
X301398323Y-142838495D01*
X301339611Y-142960411D01*
X301339608Y-142960419D01*
X301309500Y-143092333D01*
X301309500Y-156627666D01*
X296860499Y-156627666D01*
X296860500Y-156627660D01*
X296860500Y-156560000D01*
X296860500Y-156512405D01*
X296860500Y-143120438D01*
X296860500Y-143092340D01*
X296860499Y-143092338D01*
X296860499Y-143092333D01*
X296830391Y-142960419D01*
X296830389Y-142960416D01*
X296830389Y-142960412D01*
X296771675Y-142838493D01*
X296735626Y-142793289D01*
X296687305Y-142732694D01*
X296581504Y-142648323D01*
X296459588Y-142589611D01*
X296459580Y-142589608D01*
X296327666Y-142559500D01*
X296327660Y-142559500D01*
X296299562Y-142559500D01*
X282907595Y-142559500D01*
X282860000Y-142559500D01*
X282792340Y-142559500D01*
X282792333Y-142559500D01*
X282660419Y-142589608D01*
X282660411Y-142589611D01*
X282538495Y-142648323D01*
X282432694Y-142732694D01*
X282348323Y-142838495D01*
X282289611Y-142960411D01*
X282289608Y-142960419D01*
X282259500Y-143092333D01*
X282259500Y-156627666D01*
X279392490Y-156627666D01*
X279362287Y-156568390D01*
X279349289Y-156550500D01*
X279241971Y-156402786D01*
X279097213Y-156258028D01*
X278931613Y-156137715D01*
X278931612Y-156137714D01*
X278931610Y-156137713D01*
X278874653Y-156108691D01*
X278749223Y-156044781D01*
X278554534Y-155981522D01*
X278379995Y-155953878D01*
X278352352Y-155949500D01*
X278352351Y-155949500D01*
X67006093Y-155949500D01*
X66993939Y-155948903D01*
X66882358Y-155937913D01*
X66875688Y-155937256D01*
X66851848Y-155932514D01*
X66743997Y-155899798D01*
X66721541Y-155890496D01*
X66622150Y-155837370D01*
X66601940Y-155823866D01*
X66514820Y-155752369D01*
X66497630Y-155735179D01*
X66426133Y-155648059D01*
X66412629Y-155627849D01*
X66373441Y-155554534D01*
X66359501Y-155528453D01*
X66350201Y-155506002D01*
X66317483Y-155398145D01*
X66312744Y-155374317D01*
X66301097Y-155256061D01*
X66300500Y-155243907D01*
X66300500Y-139282343D01*
X71280749Y-139282343D01*
X71280750Y-139321062D01*
X71280750Y-152797265D01*
X71280799Y-152798016D01*
X71280799Y-152817653D01*
X71280801Y-152817660D01*
X71310903Y-152949565D01*
X71369603Y-153071474D01*
X71369604Y-153071475D01*
X71369605Y-153071477D01*
X71453960Y-153177269D01*
X71559738Y-153261641D01*
X71681638Y-153320363D01*
X71813547Y-153350490D01*
X71833393Y-153350492D01*
X71833490Y-153350500D01*
X71881200Y-153350500D01*
X71928794Y-153350508D01*
X71928795Y-153350507D01*
X71938333Y-153350509D01*
X71938462Y-153350500D01*
X85224038Y-153350500D01*
X85224166Y-153350509D01*
X85229859Y-153350508D01*
X85230029Y-153350557D01*
X85281300Y-153350549D01*
X85281300Y-153350550D01*
X85348932Y-153350539D01*
X85348961Y-153350539D01*
X85421810Y-153333900D01*
X85480879Y-153320410D01*
X85602788Y-153261683D01*
X85708576Y-153177304D01*
X85792937Y-153071503D01*
X85851643Y-152949584D01*
X85881751Y-152817659D01*
X85881750Y-152750000D01*
X85881750Y-152702405D01*
X85881750Y-139310438D01*
X85881750Y-139302616D01*
X85881700Y-139301863D01*
X85881701Y-139282347D01*
X85881700Y-139282343D01*
X95093249Y-139282343D01*
X95093250Y-139321062D01*
X95093250Y-152797265D01*
X95093299Y-152798016D01*
X95093299Y-152817653D01*
X95093301Y-152817660D01*
X95123403Y-152949565D01*
X95182103Y-153071474D01*
X95182104Y-153071475D01*
X95182105Y-153071477D01*
X95266460Y-153177269D01*
X95372238Y-153261641D01*
X95494138Y-153320363D01*
X95626047Y-153350490D01*
X95645893Y-153350492D01*
X95645990Y-153350500D01*
X95693700Y-153350500D01*
X95741294Y-153350508D01*
X95741295Y-153350507D01*
X95750833Y-153350509D01*
X95750962Y-153350500D01*
X109036538Y-153350500D01*
X109036666Y-153350509D01*
X109042359Y-153350508D01*
X109042529Y-153350557D01*
X109093800Y-153350549D01*
X109093800Y-153350550D01*
X109161432Y-153350539D01*
X109161461Y-153350539D01*
X109234310Y-153333900D01*
X109293379Y-153320410D01*
X109415288Y-153261683D01*
X109521076Y-153177304D01*
X109605437Y-153071503D01*
X109664143Y-152949584D01*
X109694251Y-152817659D01*
X109694250Y-152750000D01*
X109694250Y-152702405D01*
X109694250Y-139310438D01*
X109694250Y-139302616D01*
X109694200Y-139301863D01*
X109694201Y-139282347D01*
X109694200Y-139282343D01*
X118905749Y-139282343D01*
X118905750Y-139321062D01*
X118905750Y-152797265D01*
X118905799Y-152798016D01*
X118905799Y-152817653D01*
X118905801Y-152817660D01*
X118935903Y-152949565D01*
X118994603Y-153071474D01*
X118994604Y-153071475D01*
X118994605Y-153071477D01*
X119078960Y-153177269D01*
X119184738Y-153261641D01*
X119306638Y-153320363D01*
X119438547Y-153350490D01*
X119458393Y-153350492D01*
X119458490Y-153350500D01*
X119506200Y-153350500D01*
X119553794Y-153350508D01*
X119553795Y-153350507D01*
X119563333Y-153350509D01*
X119563462Y-153350500D01*
X132849038Y-153350500D01*
X132849166Y-153350509D01*
X132854859Y-153350508D01*
X132855029Y-153350557D01*
X132906300Y-153350549D01*
X132906300Y-153350550D01*
X132973932Y-153350539D01*
X132973961Y-153350539D01*
X133046810Y-153333900D01*
X133105879Y-153320410D01*
X133227788Y-153261683D01*
X133333576Y-153177304D01*
X133417937Y-153071503D01*
X133476643Y-152949584D01*
X133506751Y-152817659D01*
X133506750Y-152750000D01*
X133506750Y-152702405D01*
X133506750Y-139310438D01*
X133506750Y-139302616D01*
X133506700Y-139301863D01*
X133506701Y-139282347D01*
X133506700Y-139282343D01*
X142718249Y-139282343D01*
X142718250Y-139321062D01*
X142718250Y-152797265D01*
X142718299Y-152798016D01*
X142718299Y-152817653D01*
X142718301Y-152817660D01*
X142748403Y-152949565D01*
X142807103Y-153071474D01*
X142807104Y-153071475D01*
X142807105Y-153071477D01*
X142891460Y-153177269D01*
X142997238Y-153261641D01*
X143119138Y-153320363D01*
X143251047Y-153350490D01*
X143270893Y-153350492D01*
X143270990Y-153350500D01*
X143318700Y-153350500D01*
X143366294Y-153350508D01*
X143366295Y-153350507D01*
X143375833Y-153350509D01*
X143375962Y-153350500D01*
X156661538Y-153350500D01*
X156661666Y-153350509D01*
X156667359Y-153350508D01*
X156667529Y-153350557D01*
X156718800Y-153350549D01*
X156718800Y-153350550D01*
X156786432Y-153350539D01*
X156786461Y-153350539D01*
X156859310Y-153333900D01*
X156918379Y-153320410D01*
X157040288Y-153261683D01*
X157146076Y-153177304D01*
X157230437Y-153071503D01*
X157289143Y-152949584D01*
X157319251Y-152817659D01*
X157319250Y-152750000D01*
X157319250Y-152702405D01*
X157319250Y-146582562D01*
X164505100Y-146582562D01*
X164518752Y-146633513D01*
X164525579Y-146658990D01*
X164525582Y-146658995D01*
X164565135Y-146727504D01*
X164565139Y-146727509D01*
X164565140Y-146727511D01*
X164621089Y-146783460D01*
X164621091Y-146783461D01*
X164621095Y-146783464D01*
X164689604Y-146823017D01*
X164689611Y-146823021D01*
X164766038Y-146843500D01*
X165270100Y-146843500D01*
X165337139Y-146863185D01*
X165382894Y-146915989D01*
X165394100Y-146967500D01*
X165394100Y-152599438D01*
X165394100Y-152678562D01*
X165400489Y-152702405D01*
X165414579Y-152754990D01*
X165414582Y-152754995D01*
X165454135Y-152823504D01*
X165454139Y-152823509D01*
X165454140Y-152823511D01*
X165510089Y-152879460D01*
X165510091Y-152879461D01*
X165510095Y-152879464D01*
X165578604Y-152919017D01*
X165578611Y-152919021D01*
X165655038Y-152939500D01*
X166946500Y-152939500D01*
X167013539Y-152959185D01*
X167059294Y-153011989D01*
X167070500Y-153063500D01*
X167070500Y-153742438D01*
X167070500Y-153821562D01*
X167084152Y-153872513D01*
X167090979Y-153897990D01*
X167090982Y-153897995D01*
X167130535Y-153966504D01*
X167130539Y-153966509D01*
X167130540Y-153966511D01*
X167186489Y-154022460D01*
X167186491Y-154022461D01*
X167186495Y-154022464D01*
X167255004Y-154062017D01*
X167255011Y-154062021D01*
X167331438Y-154082500D01*
X170608771Y-154082500D01*
X170608775Y-154082501D01*
X170633438Y-154082501D01*
X170712560Y-154082501D01*
X170712562Y-154082501D01*
X170788989Y-154062022D01*
X170857511Y-154022461D01*
X170913460Y-153966512D01*
X170953021Y-153897990D01*
X170973500Y-153821563D01*
X170973500Y-153742439D01*
X170973500Y-153742438D01*
X170973500Y-153063500D01*
X170993185Y-152996461D01*
X171045989Y-152950706D01*
X171097500Y-152939500D01*
X172388960Y-152939500D01*
X172388962Y-152939500D01*
X172465389Y-152919021D01*
X172533911Y-152879460D01*
X172589860Y-152823511D01*
X172629421Y-152754989D01*
X172649900Y-152678562D01*
X172649900Y-152599438D01*
X172649900Y-152276100D01*
X172669585Y-152209061D01*
X172722389Y-152163306D01*
X172773900Y-152152100D01*
X173550500Y-152152100D01*
X173617539Y-152171785D01*
X173663294Y-152224589D01*
X173674500Y-152276100D01*
X173674500Y-152787666D01*
X173704608Y-152919580D01*
X173704611Y-152919588D01*
X173763323Y-153041504D01*
X173847694Y-153147305D01*
X173885313Y-153177304D01*
X173953493Y-153231675D01*
X174075412Y-153290389D01*
X174075416Y-153290389D01*
X174075419Y-153290391D01*
X174207333Y-153320499D01*
X174207338Y-153320499D01*
X174207340Y-153320500D01*
X174207342Y-153320500D01*
X187712558Y-153320500D01*
X187712560Y-153320500D01*
X187712562Y-153320499D01*
X187712566Y-153320499D01*
X187844480Y-153290391D01*
X187844481Y-153290390D01*
X187844488Y-153290389D01*
X187966407Y-153231675D01*
X188072205Y-153147305D01*
X188156575Y-153041507D01*
X188215289Y-152919588D01*
X188215291Y-152919580D01*
X188245399Y-152787666D01*
X188245400Y-152787658D01*
X188245400Y-152276100D01*
X188265085Y-152209061D01*
X188317889Y-152163306D01*
X188369400Y-152152100D01*
X189146000Y-152152100D01*
X189213039Y-152171785D01*
X189258794Y-152224589D01*
X189270000Y-152276100D01*
X189270000Y-152599438D01*
X189270000Y-152678562D01*
X189276389Y-152702405D01*
X189290479Y-152754990D01*
X189290482Y-152754995D01*
X189330035Y-152823504D01*
X189330039Y-152823509D01*
X189330040Y-152823511D01*
X189385989Y-152879460D01*
X189385991Y-152879461D01*
X189385995Y-152879464D01*
X189454504Y-152919017D01*
X189454511Y-152919021D01*
X189530938Y-152939500D01*
X190822401Y-152939500D01*
X190889440Y-152959185D01*
X190935195Y-153011989D01*
X190946401Y-153063500D01*
X190946401Y-153742438D01*
X190946401Y-153821562D01*
X190960053Y-153872513D01*
X190966880Y-153897990D01*
X190966883Y-153897995D01*
X191006436Y-153966504D01*
X191006440Y-153966509D01*
X191006441Y-153966511D01*
X191062390Y-154022460D01*
X191062392Y-154022461D01*
X191062396Y-154022464D01*
X191130905Y-154062017D01*
X191130912Y-154062021D01*
X191207339Y-154082500D01*
X191207341Y-154082500D01*
X194588460Y-154082500D01*
X194588462Y-154082500D01*
X194664889Y-154062021D01*
X194733411Y-154022460D01*
X194789360Y-153966511D01*
X194828921Y-153897989D01*
X194849400Y-153821562D01*
X194849400Y-153063500D01*
X194869085Y-152996461D01*
X194921889Y-152950706D01*
X194973400Y-152939500D01*
X196264860Y-152939500D01*
X196264862Y-152939500D01*
X196341289Y-152919021D01*
X196409811Y-152879460D01*
X196465760Y-152823511D01*
X196505321Y-152754989D01*
X196525800Y-152678562D01*
X196525800Y-146967500D01*
X196545485Y-146900461D01*
X196598289Y-146854706D01*
X196649800Y-146843500D01*
X197153860Y-146843500D01*
X197153862Y-146843500D01*
X197230289Y-146823021D01*
X197298811Y-146783460D01*
X197354760Y-146727511D01*
X197394321Y-146658989D01*
X197414800Y-146582562D01*
X197414800Y-143709438D01*
X197394321Y-143633011D01*
X197394317Y-143633004D01*
X197354764Y-143564495D01*
X197354758Y-143564487D01*
X197298812Y-143508541D01*
X197298804Y-143508535D01*
X197230295Y-143468982D01*
X197230290Y-143468979D01*
X197204813Y-143462152D01*
X197153862Y-143448500D01*
X197153860Y-143448500D01*
X196649800Y-143448500D01*
X196582761Y-143428815D01*
X196537006Y-143376011D01*
X196525800Y-143324500D01*
X196525800Y-140305839D01*
X196505320Y-140229409D01*
X196505317Y-140229404D01*
X196465764Y-140160895D01*
X196465758Y-140160887D01*
X196409812Y-140104941D01*
X196409804Y-140104935D01*
X196341295Y-140065382D01*
X196341290Y-140065379D01*
X196315813Y-140058552D01*
X196264862Y-140044900D01*
X196264860Y-140044900D01*
X194973400Y-140044900D01*
X194906361Y-140025215D01*
X194860606Y-139972411D01*
X194849400Y-139920900D01*
X194849400Y-139772439D01*
X194828920Y-139696009D01*
X194828917Y-139696004D01*
X194789364Y-139627495D01*
X194789358Y-139627487D01*
X194733412Y-139571541D01*
X194733404Y-139571535D01*
X194664895Y-139531982D01*
X194664890Y-139531979D01*
X194639413Y-139525152D01*
X194588462Y-139511500D01*
X191286462Y-139511500D01*
X191207338Y-139511500D01*
X191169124Y-139521739D01*
X191130909Y-139531979D01*
X191130904Y-139531982D01*
X191062395Y-139571535D01*
X191062387Y-139571541D01*
X191006441Y-139627487D01*
X191006435Y-139627495D01*
X190966882Y-139696004D01*
X190966879Y-139696009D01*
X190946400Y-139772439D01*
X190946400Y-139920900D01*
X190926715Y-139987939D01*
X190873911Y-140033694D01*
X190822400Y-140044900D01*
X188369400Y-140044900D01*
X188302361Y-140025215D01*
X188256606Y-139972411D01*
X188245400Y-139920900D01*
X188245400Y-139282343D01*
X204630749Y-139282343D01*
X204630750Y-139321062D01*
X204630750Y-152797265D01*
X204630799Y-152798016D01*
X204630799Y-152817653D01*
X204630801Y-152817660D01*
X204660903Y-152949565D01*
X204719603Y-153071474D01*
X204719604Y-153071475D01*
X204719605Y-153071477D01*
X204803960Y-153177269D01*
X204909738Y-153261641D01*
X205031638Y-153320363D01*
X205163547Y-153350490D01*
X205183393Y-153350492D01*
X205183490Y-153350500D01*
X205231200Y-153350500D01*
X205278794Y-153350508D01*
X205278795Y-153350507D01*
X205288333Y-153350509D01*
X205288462Y-153350500D01*
X218574038Y-153350500D01*
X218574166Y-153350509D01*
X218579859Y-153350508D01*
X218580029Y-153350557D01*
X218631300Y-153350549D01*
X218631300Y-153350550D01*
X218698932Y-153350539D01*
X218698961Y-153350539D01*
X218771810Y-153333900D01*
X218830879Y-153320410D01*
X218952788Y-153261683D01*
X219058576Y-153177304D01*
X219142937Y-153071503D01*
X219201643Y-152949584D01*
X219231751Y-152817659D01*
X219231750Y-152750000D01*
X219231750Y-152702405D01*
X219231750Y-139310438D01*
X219231750Y-139302616D01*
X219231700Y-139301863D01*
X219231701Y-139282347D01*
X219231700Y-139282343D01*
X228443249Y-139282343D01*
X228443250Y-139321062D01*
X228443250Y-152797265D01*
X228443299Y-152798016D01*
X228443299Y-152817653D01*
X228443301Y-152817660D01*
X228473403Y-152949565D01*
X228532103Y-153071474D01*
X228532104Y-153071475D01*
X228532105Y-153071477D01*
X228616460Y-153177269D01*
X228722238Y-153261641D01*
X228844138Y-153320363D01*
X228976047Y-153350490D01*
X228995893Y-153350492D01*
X228995990Y-153350500D01*
X229043700Y-153350500D01*
X229091294Y-153350508D01*
X229091295Y-153350507D01*
X229100833Y-153350509D01*
X229100962Y-153350500D01*
X242386538Y-153350500D01*
X242386666Y-153350509D01*
X242392359Y-153350508D01*
X242392529Y-153350557D01*
X242443800Y-153350549D01*
X242443800Y-153350550D01*
X242511432Y-153350539D01*
X242511461Y-153350539D01*
X242584310Y-153333900D01*
X242643379Y-153320410D01*
X242765288Y-153261683D01*
X242871076Y-153177304D01*
X242955437Y-153071503D01*
X243014143Y-152949584D01*
X243044251Y-152817659D01*
X243044250Y-152750000D01*
X243044250Y-152702405D01*
X243044250Y-139310438D01*
X243044250Y-139302616D01*
X243044200Y-139301863D01*
X243044201Y-139282347D01*
X243044200Y-139282343D01*
X252255749Y-139282343D01*
X252255750Y-139321062D01*
X252255750Y-152797265D01*
X252255799Y-152798016D01*
X252255799Y-152817653D01*
X252255801Y-152817660D01*
X252285903Y-152949565D01*
X252344603Y-153071474D01*
X252344604Y-153071475D01*
X252344605Y-153071477D01*
X252428960Y-153177269D01*
X252534738Y-153261641D01*
X252656638Y-153320363D01*
X252788547Y-153350490D01*
X252808393Y-153350492D01*
X252808490Y-153350500D01*
X252856200Y-153350500D01*
X252903794Y-153350508D01*
X252903795Y-153350507D01*
X252913333Y-153350509D01*
X252913462Y-153350500D01*
X266199038Y-153350500D01*
X266199166Y-153350509D01*
X266204859Y-153350508D01*
X266205029Y-153350557D01*
X266256300Y-153350549D01*
X266256300Y-153350550D01*
X266323932Y-153350539D01*
X266323961Y-153350539D01*
X266396810Y-153333900D01*
X266455879Y-153320410D01*
X266577788Y-153261683D01*
X266683576Y-153177304D01*
X266767937Y-153071503D01*
X266826643Y-152949584D01*
X266856751Y-152817659D01*
X266856750Y-152750000D01*
X266856750Y-152702405D01*
X266856750Y-139310438D01*
X266856750Y-139302616D01*
X266856700Y-139301863D01*
X266856701Y-139282347D01*
X266826596Y-139150433D01*
X266767895Y-139028523D01*
X266683540Y-138922731D01*
X266577762Y-138838359D01*
X266577673Y-138838316D01*
X266455861Y-138779636D01*
X266455859Y-138779635D01*
X266323949Y-138749509D01*
X266323954Y-138749509D01*
X266303097Y-138749506D01*
X266302991Y-138749500D01*
X266295812Y-138749500D01*
X266256300Y-138749500D01*
X266256274Y-138749499D01*
X266199166Y-138749490D01*
X266199038Y-138749500D01*
X252913462Y-138749500D01*
X252913333Y-138749490D01*
X252907618Y-138749491D01*
X252907451Y-138749442D01*
X252788538Y-138749460D01*
X252656626Y-138779588D01*
X252656622Y-138779589D01*
X252656621Y-138779590D01*
X252621259Y-138796624D01*
X252534712Y-138838316D01*
X252428923Y-138922696D01*
X252428922Y-138922697D01*
X252344563Y-139028496D01*
X252290043Y-139141721D01*
X252285857Y-139150416D01*
X252285853Y-139150434D01*
X252255749Y-139282341D01*
X252255749Y-139282343D01*
X243044200Y-139282343D01*
X243014096Y-139150433D01*
X242955395Y-139028523D01*
X242871040Y-138922731D01*
X242765262Y-138838359D01*
X242765173Y-138838316D01*
X242643361Y-138779636D01*
X242643359Y-138779635D01*
X242511449Y-138749509D01*
X242511454Y-138749509D01*
X242490597Y-138749506D01*
X242490491Y-138749500D01*
X242483312Y-138749500D01*
X242443800Y-138749500D01*
X242443774Y-138749499D01*
X242386666Y-138749490D01*
X242386538Y-138749500D01*
X229100962Y-138749500D01*
X229100833Y-138749490D01*
X229095118Y-138749491D01*
X229094951Y-138749442D01*
X228976038Y-138749460D01*
X228844126Y-138779588D01*
X228844122Y-138779589D01*
X228844121Y-138779590D01*
X228808759Y-138796624D01*
X228722212Y-138838316D01*
X228616423Y-138922696D01*
X228616422Y-138922697D01*
X228532063Y-139028496D01*
X228477543Y-139141721D01*
X228473357Y-139150416D01*
X228473353Y-139150434D01*
X228443249Y-139282341D01*
X228443249Y-139282343D01*
X219231700Y-139282343D01*
X219201596Y-139150433D01*
X219142895Y-139028523D01*
X219058540Y-138922731D01*
X218952762Y-138838359D01*
X218952673Y-138838316D01*
X218830861Y-138779636D01*
X218830859Y-138779635D01*
X218698949Y-138749509D01*
X218698954Y-138749509D01*
X218678097Y-138749506D01*
X218677991Y-138749500D01*
X218670812Y-138749500D01*
X218631300Y-138749500D01*
X218631274Y-138749499D01*
X218574166Y-138749490D01*
X218574038Y-138749500D01*
X205288462Y-138749500D01*
X205288333Y-138749490D01*
X205282618Y-138749491D01*
X205282451Y-138749442D01*
X205163538Y-138749460D01*
X205031626Y-138779588D01*
X205031622Y-138779589D01*
X205031621Y-138779590D01*
X204996259Y-138796624D01*
X204909712Y-138838316D01*
X204803923Y-138922696D01*
X204803922Y-138922697D01*
X204719563Y-139028496D01*
X204665043Y-139141721D01*
X204660857Y-139150416D01*
X204660853Y-139150434D01*
X204630749Y-139282341D01*
X204630749Y-139282343D01*
X188245400Y-139282343D01*
X188245400Y-139282341D01*
X188245399Y-139282333D01*
X188215291Y-139150419D01*
X188215289Y-139150414D01*
X188215289Y-139150412D01*
X188156575Y-139028493D01*
X188120526Y-138983289D01*
X188072205Y-138922694D01*
X187996219Y-138862099D01*
X187966407Y-138838325D01*
X187966405Y-138838324D01*
X187966404Y-138838323D01*
X187844488Y-138779611D01*
X187844480Y-138779608D01*
X187712566Y-138749500D01*
X187712560Y-138749500D01*
X187684462Y-138749500D01*
X174322595Y-138749500D01*
X174275000Y-138749500D01*
X174207340Y-138749500D01*
X174207333Y-138749500D01*
X174075419Y-138779608D01*
X174075411Y-138779611D01*
X173953495Y-138838323D01*
X173847694Y-138922694D01*
X173763323Y-139028495D01*
X173704611Y-139150411D01*
X173704608Y-139150419D01*
X173674500Y-139282333D01*
X173674500Y-139920900D01*
X173654815Y-139987939D01*
X173602011Y-140033694D01*
X173550500Y-140044900D01*
X171097500Y-140044900D01*
X171030461Y-140025215D01*
X170984706Y-139972411D01*
X170973500Y-139920900D01*
X170973500Y-139772439D01*
X170953020Y-139696009D01*
X170953017Y-139696004D01*
X170913464Y-139627495D01*
X170913458Y-139627487D01*
X170857512Y-139571541D01*
X170857504Y-139571535D01*
X170788995Y-139531982D01*
X170788990Y-139531979D01*
X170763513Y-139525152D01*
X170712562Y-139511500D01*
X167410562Y-139511500D01*
X167331438Y-139511500D01*
X167293224Y-139521739D01*
X167255009Y-139531979D01*
X167255004Y-139531982D01*
X167186495Y-139571535D01*
X167186487Y-139571541D01*
X167130541Y-139627487D01*
X167130535Y-139627495D01*
X167090982Y-139696004D01*
X167090979Y-139696009D01*
X167070500Y-139772439D01*
X167070500Y-139920900D01*
X167050815Y-139987939D01*
X166998011Y-140033694D01*
X166946500Y-140044900D01*
X165734162Y-140044900D01*
X165655038Y-140044900D01*
X165616824Y-140055139D01*
X165578609Y-140065379D01*
X165578604Y-140065382D01*
X165510095Y-140104935D01*
X165510087Y-140104941D01*
X165454141Y-140160887D01*
X165454135Y-140160895D01*
X165414582Y-140229404D01*
X165414579Y-140229409D01*
X165394100Y-140305839D01*
X165394100Y-143324500D01*
X165374415Y-143391539D01*
X165321611Y-143437294D01*
X165270100Y-143448500D01*
X164845162Y-143448500D01*
X164766038Y-143448500D01*
X164727824Y-143458739D01*
X164689609Y-143468979D01*
X164689604Y-143468982D01*
X164621095Y-143508535D01*
X164621087Y-143508541D01*
X164565141Y-143564487D01*
X164565135Y-143564495D01*
X164525582Y-143633004D01*
X164525579Y-143633009D01*
X164511926Y-143683962D01*
X164505100Y-143709438D01*
X164505100Y-146503438D01*
X164505100Y-146582562D01*
X157319250Y-146582562D01*
X157319250Y-139310438D01*
X157319250Y-139302616D01*
X157319200Y-139301863D01*
X157319201Y-139282347D01*
X157289096Y-139150433D01*
X157230395Y-139028523D01*
X157146040Y-138922731D01*
X157040262Y-138838359D01*
X157040173Y-138838316D01*
X156918361Y-138779636D01*
X156918359Y-138779635D01*
X156786449Y-138749509D01*
X156786454Y-138749509D01*
X156765597Y-138749506D01*
X156765491Y-138749500D01*
X156758312Y-138749500D01*
X156718800Y-138749500D01*
X156718774Y-138749499D01*
X156661666Y-138749490D01*
X156661538Y-138749500D01*
X143375962Y-138749500D01*
X143375833Y-138749490D01*
X143370118Y-138749491D01*
X143369951Y-138749442D01*
X143251038Y-138749460D01*
X143119126Y-138779588D01*
X143119122Y-138779589D01*
X143119121Y-138779590D01*
X143083759Y-138796624D01*
X142997212Y-138838316D01*
X142891423Y-138922696D01*
X142891422Y-138922697D01*
X142807063Y-139028496D01*
X142752543Y-139141721D01*
X142748357Y-139150416D01*
X142748353Y-139150434D01*
X142718249Y-139282341D01*
X142718249Y-139282343D01*
X133506700Y-139282343D01*
X133476596Y-139150433D01*
X133417895Y-139028523D01*
X133333540Y-138922731D01*
X133227762Y-138838359D01*
X133227673Y-138838316D01*
X133105861Y-138779636D01*
X133105859Y-138779635D01*
X132973949Y-138749509D01*
X132973954Y-138749509D01*
X132953097Y-138749506D01*
X132952991Y-138749500D01*
X132945812Y-138749500D01*
X132906300Y-138749500D01*
X132906274Y-138749499D01*
X132849166Y-138749490D01*
X132849038Y-138749500D01*
X119563462Y-138749500D01*
X119563333Y-138749490D01*
X119557618Y-138749491D01*
X119557451Y-138749442D01*
X119438538Y-138749460D01*
X119306626Y-138779588D01*
X119306622Y-138779589D01*
X119306621Y-138779590D01*
X119271259Y-138796624D01*
X119184712Y-138838316D01*
X119078923Y-138922696D01*
X119078922Y-138922697D01*
X118994563Y-139028496D01*
X118940043Y-139141721D01*
X118935857Y-139150416D01*
X118935853Y-139150434D01*
X118905749Y-139282341D01*
X118905749Y-139282343D01*
X109694200Y-139282343D01*
X109664096Y-139150433D01*
X109605395Y-139028523D01*
X109521040Y-138922731D01*
X109415262Y-138838359D01*
X109415173Y-138838316D01*
X109293361Y-138779636D01*
X109293359Y-138779635D01*
X109161449Y-138749509D01*
X109161454Y-138749509D01*
X109140597Y-138749506D01*
X109140491Y-138749500D01*
X109133312Y-138749500D01*
X109093800Y-138749500D01*
X109093774Y-138749499D01*
X109036666Y-138749490D01*
X109036538Y-138749500D01*
X95750962Y-138749500D01*
X95750833Y-138749490D01*
X95745118Y-138749491D01*
X95744951Y-138749442D01*
X95626038Y-138749460D01*
X95494126Y-138779588D01*
X95494122Y-138779589D01*
X95494121Y-138779590D01*
X95458759Y-138796624D01*
X95372212Y-138838316D01*
X95266423Y-138922696D01*
X95266422Y-138922697D01*
X95182063Y-139028496D01*
X95127543Y-139141721D01*
X95123357Y-139150416D01*
X95123353Y-139150434D01*
X95093249Y-139282341D01*
X95093249Y-139282343D01*
X85881700Y-139282343D01*
X85851596Y-139150433D01*
X85792895Y-139028523D01*
X85708540Y-138922731D01*
X85602762Y-138838359D01*
X85602673Y-138838316D01*
X85480861Y-138779636D01*
X85480859Y-138779635D01*
X85348949Y-138749509D01*
X85348954Y-138749509D01*
X85328097Y-138749506D01*
X85327991Y-138749500D01*
X85320812Y-138749500D01*
X85281300Y-138749500D01*
X85281274Y-138749499D01*
X85224166Y-138749490D01*
X85224038Y-138749500D01*
X71938462Y-138749500D01*
X71938333Y-138749490D01*
X71932618Y-138749491D01*
X71932451Y-138749442D01*
X71813538Y-138749460D01*
X71681626Y-138779588D01*
X71681622Y-138779589D01*
X71681621Y-138779590D01*
X71646259Y-138796624D01*
X71559712Y-138838316D01*
X71453923Y-138922696D01*
X71453922Y-138922697D01*
X71369563Y-139028496D01*
X71315043Y-139141721D01*
X71310857Y-139150416D01*
X71310853Y-139150434D01*
X71280749Y-139282341D01*
X71280749Y-139282343D01*
X66300500Y-139282343D01*
X66300500Y-136631600D01*
X85645500Y-136631600D01*
X85678853Y-136842180D01*
X85678853Y-136842183D01*
X85744734Y-137044944D01*
X85744736Y-137044947D01*
X85841528Y-137234913D01*
X85966846Y-137407397D01*
X86117603Y-137558154D01*
X86290087Y-137683472D01*
X86480053Y-137780264D01*
X86480055Y-137780265D01*
X86637754Y-137831504D01*
X86682821Y-137846147D01*
X86893399Y-137879500D01*
X86893400Y-137879500D01*
X87106600Y-137879500D01*
X87106601Y-137879500D01*
X87317179Y-137846147D01*
X87317182Y-137846146D01*
X87317183Y-137846146D01*
X87519944Y-137780265D01*
X87519944Y-137780264D01*
X87519947Y-137780264D01*
X87709913Y-137683472D01*
X87882397Y-137558154D01*
X88033154Y-137407397D01*
X88158472Y-137234913D01*
X88255264Y-137044947D01*
X88321147Y-136842179D01*
X88354500Y-136631601D01*
X88354500Y-136631600D01*
X160570500Y-136631600D01*
X160603853Y-136842180D01*
X160603853Y-136842183D01*
X160669734Y-137044944D01*
X160669736Y-137044947D01*
X160766528Y-137234913D01*
X160891846Y-137407397D01*
X161042603Y-137558154D01*
X161215087Y-137683472D01*
X161405053Y-137780264D01*
X161405055Y-137780265D01*
X161562754Y-137831504D01*
X161607821Y-137846147D01*
X161818399Y-137879500D01*
X161818400Y-137879500D01*
X162031600Y-137879500D01*
X162031601Y-137879500D01*
X162242179Y-137846147D01*
X162242182Y-137846146D01*
X162242183Y-137846146D01*
X162444944Y-137780265D01*
X162444944Y-137780264D01*
X162444947Y-137780264D01*
X162634913Y-137683472D01*
X162807397Y-137558154D01*
X162958154Y-137407397D01*
X163083472Y-137234913D01*
X163180264Y-137044947D01*
X163246147Y-136842179D01*
X163279500Y-136631601D01*
X163279500Y-136606600D01*
X293945500Y-136606600D01*
X293978853Y-136817180D01*
X293978853Y-136817183D01*
X294044734Y-137019944D01*
X294044736Y-137019947D01*
X294141528Y-137209913D01*
X294266846Y-137382397D01*
X294417603Y-137533154D01*
X294590087Y-137658472D01*
X294780053Y-137755264D01*
X294780055Y-137755265D01*
X294969182Y-137816715D01*
X294982821Y-137821147D01*
X295193399Y-137854500D01*
X295193400Y-137854500D01*
X295406600Y-137854500D01*
X295406601Y-137854500D01*
X295617179Y-137821147D01*
X295617182Y-137821146D01*
X295617183Y-137821146D01*
X295819944Y-137755265D01*
X295819944Y-137755264D01*
X295819947Y-137755264D01*
X296009913Y-137658472D01*
X296121132Y-137577666D01*
X301309500Y-137577666D01*
X301339608Y-137709580D01*
X301339611Y-137709588D01*
X301398323Y-137831504D01*
X301482694Y-137937305D01*
X301543289Y-137985626D01*
X301588493Y-138021675D01*
X301710412Y-138080389D01*
X301710416Y-138080389D01*
X301710419Y-138080391D01*
X301842333Y-138110499D01*
X301842338Y-138110499D01*
X301842340Y-138110500D01*
X301842342Y-138110500D01*
X315377658Y-138110500D01*
X315377660Y-138110500D01*
X315377662Y-138110499D01*
X315377666Y-138110499D01*
X315509580Y-138080391D01*
X315509581Y-138080390D01*
X315509588Y-138080389D01*
X315631507Y-138021675D01*
X315737305Y-137937305D01*
X315821675Y-137831507D01*
X315880389Y-137709588D01*
X315910500Y-137577660D01*
X315910500Y-137510000D01*
X315910500Y-137462405D01*
X315910500Y-136631600D01*
X358690500Y-136631600D01*
X358723853Y-136842180D01*
X358723853Y-136842183D01*
X358789734Y-137044944D01*
X358789736Y-137044947D01*
X358886528Y-137234913D01*
X359011846Y-137407397D01*
X359162603Y-137558154D01*
X359335087Y-137683472D01*
X359525053Y-137780264D01*
X359525055Y-137780265D01*
X359682754Y-137831504D01*
X359727821Y-137846147D01*
X359938399Y-137879500D01*
X359938400Y-137879500D01*
X360151600Y-137879500D01*
X360151601Y-137879500D01*
X360362179Y-137846147D01*
X360362182Y-137846146D01*
X360362183Y-137846146D01*
X360564944Y-137780265D01*
X360564944Y-137780264D01*
X360564947Y-137780264D01*
X360754913Y-137683472D01*
X360927397Y-137558154D01*
X361078154Y-137407397D01*
X361203472Y-137234913D01*
X361300264Y-137044947D01*
X361366147Y-136842179D01*
X361399500Y-136631601D01*
X361399500Y-136418399D01*
X361366147Y-136207821D01*
X361366146Y-136207817D01*
X361366146Y-136207816D01*
X361300265Y-136005055D01*
X361300263Y-136005052D01*
X361287527Y-135980055D01*
X361203472Y-135815087D01*
X361078154Y-135642603D01*
X360927397Y-135491846D01*
X360754913Y-135366528D01*
X360564947Y-135269736D01*
X360564944Y-135269734D01*
X360362181Y-135203853D01*
X360221793Y-135181617D01*
X360151601Y-135170500D01*
X359938399Y-135170500D01*
X359868206Y-135181617D01*
X359727819Y-135203853D01*
X359727816Y-135203853D01*
X359525055Y-135269734D01*
X359525052Y-135269736D01*
X359335086Y-135366528D01*
X359162601Y-135491847D01*
X359011847Y-135642601D01*
X358886528Y-135815086D01*
X358789736Y-136005052D01*
X358789734Y-136005055D01*
X358723853Y-136207816D01*
X358723853Y-136207819D01*
X358690500Y-136418399D01*
X358690500Y-136631600D01*
X315910500Y-136631600D01*
X315910500Y-133767666D01*
X324169500Y-133767666D01*
X324199608Y-133899580D01*
X324199611Y-133899588D01*
X324258323Y-134021504D01*
X324342694Y-134127305D01*
X324403289Y-134175626D01*
X324448493Y-134211675D01*
X324570412Y-134270389D01*
X324570416Y-134270389D01*
X324570419Y-134270391D01*
X324702333Y-134300499D01*
X324702338Y-134300499D01*
X324702340Y-134300500D01*
X324702342Y-134300500D01*
X338237658Y-134300500D01*
X338237660Y-134300500D01*
X338237662Y-134300499D01*
X338237666Y-134300499D01*
X338369580Y-134270391D01*
X338369581Y-134270390D01*
X338369588Y-134270389D01*
X338491507Y-134211675D01*
X338597305Y-134127305D01*
X338681675Y-134021507D01*
X338740389Y-133899588D01*
X338770499Y-133767666D01*
X343219500Y-133767666D01*
X343249608Y-133899580D01*
X343249611Y-133899588D01*
X343308323Y-134021504D01*
X343392694Y-134127305D01*
X343453289Y-134175626D01*
X343498493Y-134211675D01*
X343620412Y-134270389D01*
X343620416Y-134270389D01*
X343620419Y-134270391D01*
X343752333Y-134300499D01*
X343752338Y-134300499D01*
X343752340Y-134300500D01*
X343752342Y-134300500D01*
X357287658Y-134300500D01*
X357287660Y-134300500D01*
X357287662Y-134300499D01*
X357287666Y-134300499D01*
X357419580Y-134270391D01*
X357419581Y-134270390D01*
X357419588Y-134270389D01*
X357541507Y-134211675D01*
X357647305Y-134127305D01*
X357731675Y-134021507D01*
X357790389Y-133899588D01*
X357820499Y-133767666D01*
X362269500Y-133767666D01*
X362299608Y-133899580D01*
X362299611Y-133899588D01*
X362358323Y-134021504D01*
X362442694Y-134127305D01*
X362503289Y-134175626D01*
X362548493Y-134211675D01*
X362670412Y-134270389D01*
X362670416Y-134270389D01*
X362670419Y-134270391D01*
X362802333Y-134300499D01*
X362802338Y-134300499D01*
X362802340Y-134300500D01*
X362802342Y-134300500D01*
X376337658Y-134300500D01*
X376337660Y-134300500D01*
X376337662Y-134300499D01*
X376337666Y-134300499D01*
X376469580Y-134270391D01*
X376469581Y-134270390D01*
X376469588Y-134270389D01*
X376591507Y-134211675D01*
X376697305Y-134127305D01*
X376781675Y-134021507D01*
X376840389Y-133899588D01*
X376870500Y-133767660D01*
X376870500Y-133700000D01*
X376870500Y-133652405D01*
X376870500Y-120260438D01*
X376870500Y-120232340D01*
X376870499Y-120232338D01*
X376870499Y-120232333D01*
X376840391Y-120100419D01*
X376840389Y-120100416D01*
X376840389Y-120100412D01*
X376781675Y-119978493D01*
X376745626Y-119933289D01*
X376697305Y-119872694D01*
X376591504Y-119788323D01*
X376469588Y-119729611D01*
X376469580Y-119729608D01*
X376337666Y-119699500D01*
X376337660Y-119699500D01*
X376309562Y-119699500D01*
X362917595Y-119699500D01*
X362870000Y-119699500D01*
X362802340Y-119699500D01*
X362802333Y-119699500D01*
X362670419Y-119729608D01*
X362670411Y-119729611D01*
X362548495Y-119788323D01*
X362442694Y-119872694D01*
X362358323Y-119978495D01*
X362299611Y-120100411D01*
X362299608Y-120100419D01*
X362269500Y-120232333D01*
X362269500Y-133767666D01*
X357820499Y-133767666D01*
X357820500Y-133767660D01*
X357820500Y-133700000D01*
X357820500Y-133652405D01*
X357820500Y-120260438D01*
X357820500Y-120232340D01*
X357820499Y-120232338D01*
X357820499Y-120232333D01*
X357790391Y-120100419D01*
X357790389Y-120100416D01*
X357790389Y-120100412D01*
X357731675Y-119978493D01*
X357695626Y-119933289D01*
X357647305Y-119872694D01*
X357541504Y-119788323D01*
X357419588Y-119729611D01*
X357419580Y-119729608D01*
X357287666Y-119699500D01*
X357287660Y-119699500D01*
X357259562Y-119699500D01*
X343867595Y-119699500D01*
X343820000Y-119699500D01*
X343752340Y-119699500D01*
X343752333Y-119699500D01*
X343620419Y-119729608D01*
X343620411Y-119729611D01*
X343498495Y-119788323D01*
X343392694Y-119872694D01*
X343308323Y-119978495D01*
X343249611Y-120100411D01*
X343249608Y-120100419D01*
X343219500Y-120232333D01*
X343219500Y-133767666D01*
X338770499Y-133767666D01*
X338770500Y-133767660D01*
X338770500Y-133700000D01*
X338770500Y-133652405D01*
X338770500Y-131388695D01*
X340099500Y-131388695D01*
X340134103Y-131562658D01*
X340134106Y-131562667D01*
X340201983Y-131726540D01*
X340201990Y-131726553D01*
X340300535Y-131874034D01*
X340300538Y-131874038D01*
X340425961Y-131999461D01*
X340425965Y-131999464D01*
X340573446Y-132098009D01*
X340573459Y-132098016D01*
X340696363Y-132148923D01*
X340737334Y-132165894D01*
X340737336Y-132165894D01*
X340737341Y-132165896D01*
X340911304Y-132200499D01*
X340911307Y-132200500D01*
X340911309Y-132200500D01*
X341088693Y-132200500D01*
X341088694Y-132200499D01*
X341146682Y-132188964D01*
X341262658Y-132165896D01*
X341262661Y-132165894D01*
X341262666Y-132165894D01*
X341426547Y-132098013D01*
X341574035Y-131999464D01*
X341699464Y-131874035D01*
X341798013Y-131726547D01*
X341865894Y-131562666D01*
X341900500Y-131388691D01*
X341900500Y-131300000D01*
X341900500Y-131252405D01*
X341900500Y-122660438D01*
X341900500Y-122611309D01*
X341900500Y-122611306D01*
X341900499Y-122611304D01*
X341865896Y-122437341D01*
X341865893Y-122437332D01*
X341798016Y-122273459D01*
X341798009Y-122273446D01*
X341699464Y-122125965D01*
X341699461Y-122125961D01*
X341574038Y-122000538D01*
X341574034Y-122000535D01*
X341426553Y-121901990D01*
X341426540Y-121901983D01*
X341262667Y-121834106D01*
X341262658Y-121834103D01*
X341088694Y-121799500D01*
X341088691Y-121799500D01*
X341047595Y-121799500D01*
X341000000Y-121799500D01*
X340911309Y-121799500D01*
X340911306Y-121799500D01*
X340737341Y-121834103D01*
X340737332Y-121834106D01*
X340573459Y-121901983D01*
X340573446Y-121901990D01*
X340425965Y-122000535D01*
X340425961Y-122000538D01*
X340300538Y-122125961D01*
X340300535Y-122125965D01*
X340201990Y-122273446D01*
X340201983Y-122273459D01*
X340134106Y-122437332D01*
X340134103Y-122437341D01*
X340099500Y-122611304D01*
X340099500Y-131388695D01*
X338770500Y-131388695D01*
X338770500Y-120260438D01*
X338770500Y-120232340D01*
X338770499Y-120232338D01*
X338770499Y-120232333D01*
X338740391Y-120100419D01*
X338740389Y-120100416D01*
X338740389Y-120100412D01*
X338681675Y-119978493D01*
X338645626Y-119933289D01*
X338597305Y-119872694D01*
X338491504Y-119788323D01*
X338369588Y-119729611D01*
X338369580Y-119729608D01*
X338237666Y-119699500D01*
X338237660Y-119699500D01*
X338209562Y-119699500D01*
X324817595Y-119699500D01*
X324770000Y-119699500D01*
X324702340Y-119699500D01*
X324702333Y-119699500D01*
X324570419Y-119729608D01*
X324570411Y-119729611D01*
X324448495Y-119788323D01*
X324342694Y-119872694D01*
X324258323Y-119978495D01*
X324199611Y-120100411D01*
X324199608Y-120100419D01*
X324169500Y-120232333D01*
X324169500Y-133767666D01*
X315910500Y-133767666D01*
X315910500Y-124070438D01*
X315910500Y-124042340D01*
X315910499Y-124042338D01*
X315910499Y-124042333D01*
X315880391Y-123910419D01*
X315880389Y-123910416D01*
X315880389Y-123910412D01*
X315821675Y-123788493D01*
X315785626Y-123743289D01*
X315737305Y-123682694D01*
X315631504Y-123598323D01*
X315509588Y-123539611D01*
X315509580Y-123539608D01*
X315377666Y-123509500D01*
X315377660Y-123509500D01*
X315349562Y-123509500D01*
X301957595Y-123509500D01*
X301910000Y-123509500D01*
X301842340Y-123509500D01*
X301842333Y-123509500D01*
X301710419Y-123539608D01*
X301710411Y-123539611D01*
X301588495Y-123598323D01*
X301482694Y-123682694D01*
X301398323Y-123788495D01*
X301339611Y-123910411D01*
X301339608Y-123910419D01*
X301309500Y-124042333D01*
X301309500Y-137577666D01*
X296121132Y-137577666D01*
X296182397Y-137533154D01*
X296333154Y-137382397D01*
X296458472Y-137209913D01*
X296555264Y-137019947D01*
X296621147Y-136817179D01*
X296654500Y-136606601D01*
X296654500Y-136393399D01*
X296621147Y-136182821D01*
X296621146Y-136182817D01*
X296621146Y-136182816D01*
X296555265Y-135980055D01*
X296555263Y-135980052D01*
X296471210Y-135815086D01*
X296458472Y-135790087D01*
X296333154Y-135617603D01*
X296182397Y-135466846D01*
X296009913Y-135341528D01*
X295819947Y-135244736D01*
X295819944Y-135244734D01*
X295617181Y-135178853D01*
X295476793Y-135156617D01*
X295406601Y-135145500D01*
X295193399Y-135145500D01*
X295123206Y-135156617D01*
X294982819Y-135178853D01*
X294982816Y-135178853D01*
X294780055Y-135244734D01*
X294780052Y-135244736D01*
X294590086Y-135341528D01*
X294417601Y-135466847D01*
X294266847Y-135617601D01*
X294141528Y-135790086D01*
X294044736Y-135980052D01*
X294044734Y-135980055D01*
X293978853Y-136182816D01*
X293978853Y-136182819D01*
X293945500Y-136393399D01*
X293945500Y-136606600D01*
X163279500Y-136606600D01*
X163279500Y-136418399D01*
X163246147Y-136207821D01*
X163246146Y-136207817D01*
X163246146Y-136207816D01*
X163180265Y-136005055D01*
X163180263Y-136005052D01*
X163167527Y-135980055D01*
X163083472Y-135815087D01*
X162958154Y-135642603D01*
X162807397Y-135491846D01*
X162634913Y-135366528D01*
X162444947Y-135269736D01*
X162444944Y-135269734D01*
X162242181Y-135203853D01*
X162101793Y-135181617D01*
X162031601Y-135170500D01*
X161818399Y-135170500D01*
X161748206Y-135181617D01*
X161607819Y-135203853D01*
X161607816Y-135203853D01*
X161405055Y-135269734D01*
X161405052Y-135269736D01*
X161215086Y-135366528D01*
X161042601Y-135491847D01*
X160891847Y-135642601D01*
X160766528Y-135815086D01*
X160669736Y-136005052D01*
X160669734Y-136005055D01*
X160603853Y-136207816D01*
X160603853Y-136207819D01*
X160570500Y-136418399D01*
X160570500Y-136631600D01*
X88354500Y-136631600D01*
X88354500Y-136418399D01*
X88321147Y-136207821D01*
X88321146Y-136207817D01*
X88321146Y-136207816D01*
X88255265Y-136005055D01*
X88255263Y-136005052D01*
X88242527Y-135980055D01*
X88158472Y-135815087D01*
X88033154Y-135642603D01*
X87882397Y-135491846D01*
X87709913Y-135366528D01*
X87519947Y-135269736D01*
X87519944Y-135269734D01*
X87317181Y-135203853D01*
X87176793Y-135181617D01*
X87106601Y-135170500D01*
X86893399Y-135170500D01*
X86823206Y-135181617D01*
X86682819Y-135203853D01*
X86682816Y-135203853D01*
X86480055Y-135269734D01*
X86480052Y-135269736D01*
X86290086Y-135366528D01*
X86117601Y-135491847D01*
X85966847Y-135642601D01*
X85841528Y-135815086D01*
X85744736Y-136005052D01*
X85744734Y-136005055D01*
X85678853Y-136207816D01*
X85678853Y-136207819D01*
X85645500Y-136418399D01*
X85645500Y-136631600D01*
X66300500Y-136631600D01*
X66300500Y-133767666D01*
X68899500Y-133767666D01*
X68929608Y-133899580D01*
X68929611Y-133899588D01*
X68988323Y-134021504D01*
X69072694Y-134127305D01*
X69133289Y-134175626D01*
X69178493Y-134211675D01*
X69300412Y-134270389D01*
X69300416Y-134270389D01*
X69300419Y-134270391D01*
X69432333Y-134300499D01*
X69432338Y-134300499D01*
X69432340Y-134300500D01*
X69432342Y-134300500D01*
X82967658Y-134300500D01*
X82967660Y-134300500D01*
X82967662Y-134300499D01*
X82967666Y-134300499D01*
X83099580Y-134270391D01*
X83099581Y-134270390D01*
X83099588Y-134270389D01*
X83221507Y-134211675D01*
X83327305Y-134127305D01*
X83411675Y-134021507D01*
X83470389Y-133899588D01*
X83500499Y-133767666D01*
X87949500Y-133767666D01*
X87979608Y-133899580D01*
X87979611Y-133899588D01*
X88038323Y-134021504D01*
X88122694Y-134127305D01*
X88183289Y-134175626D01*
X88228493Y-134211675D01*
X88350412Y-134270389D01*
X88350416Y-134270389D01*
X88350419Y-134270391D01*
X88482333Y-134300499D01*
X88482338Y-134300499D01*
X88482340Y-134300500D01*
X88482342Y-134300500D01*
X102017658Y-134300500D01*
X102017660Y-134300500D01*
X102017662Y-134300499D01*
X102017666Y-134300499D01*
X102149580Y-134270391D01*
X102149581Y-134270390D01*
X102149588Y-134270389D01*
X102271507Y-134211675D01*
X102377305Y-134127305D01*
X102461675Y-134021507D01*
X102520389Y-133899588D01*
X102550499Y-133767666D01*
X106999500Y-133767666D01*
X107029608Y-133899580D01*
X107029611Y-133899588D01*
X107088323Y-134021504D01*
X107172694Y-134127305D01*
X107233289Y-134175626D01*
X107278493Y-134211675D01*
X107400412Y-134270389D01*
X107400416Y-134270389D01*
X107400419Y-134270391D01*
X107532333Y-134300499D01*
X107532338Y-134300499D01*
X107532340Y-134300500D01*
X107532342Y-134300500D01*
X121067658Y-134300500D01*
X121067660Y-134300500D01*
X121067662Y-134300499D01*
X121067666Y-134300499D01*
X121199580Y-134270391D01*
X121199581Y-134270390D01*
X121199588Y-134270389D01*
X121321507Y-134211675D01*
X121427305Y-134127305D01*
X121511675Y-134021507D01*
X121570389Y-133899588D01*
X121600499Y-133767666D01*
X126049500Y-133767666D01*
X126079608Y-133899580D01*
X126079611Y-133899588D01*
X126138323Y-134021504D01*
X126222694Y-134127305D01*
X126283289Y-134175626D01*
X126328493Y-134211675D01*
X126450412Y-134270389D01*
X126450416Y-134270389D01*
X126450419Y-134270391D01*
X126582333Y-134300499D01*
X126582338Y-134300499D01*
X126582340Y-134300500D01*
X126582342Y-134300500D01*
X140117658Y-134300500D01*
X140117660Y-134300500D01*
X140117662Y-134300499D01*
X140117666Y-134300499D01*
X140249580Y-134270391D01*
X140249581Y-134270390D01*
X140249588Y-134270389D01*
X140371507Y-134211675D01*
X140477305Y-134127305D01*
X140561675Y-134021507D01*
X140620389Y-133899588D01*
X140650499Y-133767666D01*
X145099500Y-133767666D01*
X145129608Y-133899580D01*
X145129611Y-133899588D01*
X145188323Y-134021504D01*
X145272694Y-134127305D01*
X145333289Y-134175626D01*
X145378493Y-134211675D01*
X145500412Y-134270389D01*
X145500416Y-134270389D01*
X145500419Y-134270391D01*
X145632333Y-134300499D01*
X145632338Y-134300499D01*
X145632340Y-134300500D01*
X145632342Y-134300500D01*
X159167658Y-134300500D01*
X159167660Y-134300500D01*
X159167662Y-134300499D01*
X159167666Y-134300499D01*
X159299580Y-134270391D01*
X159299581Y-134270390D01*
X159299588Y-134270389D01*
X159421507Y-134211675D01*
X159527305Y-134127305D01*
X159611675Y-134021507D01*
X159670389Y-133899588D01*
X159700499Y-133767666D01*
X164149500Y-133767666D01*
X164179608Y-133899580D01*
X164179611Y-133899588D01*
X164238323Y-134021504D01*
X164322694Y-134127305D01*
X164383289Y-134175626D01*
X164428493Y-134211675D01*
X164550412Y-134270389D01*
X164550416Y-134270389D01*
X164550419Y-134270391D01*
X164682333Y-134300499D01*
X164682338Y-134300499D01*
X164682340Y-134300500D01*
X164682342Y-134300500D01*
X178217658Y-134300500D01*
X178217660Y-134300500D01*
X178217662Y-134300499D01*
X178217666Y-134300499D01*
X178349580Y-134270391D01*
X178349581Y-134270390D01*
X178349588Y-134270389D01*
X178471507Y-134211675D01*
X178577305Y-134127305D01*
X178661675Y-134021507D01*
X178720389Y-133899588D01*
X178750499Y-133767666D01*
X183199500Y-133767666D01*
X183229608Y-133899580D01*
X183229611Y-133899588D01*
X183288323Y-134021504D01*
X183372694Y-134127305D01*
X183433289Y-134175626D01*
X183478493Y-134211675D01*
X183600412Y-134270389D01*
X183600416Y-134270389D01*
X183600419Y-134270391D01*
X183732333Y-134300499D01*
X183732338Y-134300499D01*
X183732340Y-134300500D01*
X183732342Y-134300500D01*
X197267658Y-134300500D01*
X197267660Y-134300500D01*
X197267662Y-134300499D01*
X197267666Y-134300499D01*
X197399580Y-134270391D01*
X197399581Y-134270390D01*
X197399588Y-134270389D01*
X197521507Y-134211675D01*
X197627305Y-134127305D01*
X197711675Y-134021507D01*
X197770389Y-133899588D01*
X197800499Y-133767666D01*
X202249500Y-133767666D01*
X202279608Y-133899580D01*
X202279611Y-133899588D01*
X202338323Y-134021504D01*
X202422694Y-134127305D01*
X202483289Y-134175626D01*
X202528493Y-134211675D01*
X202650412Y-134270389D01*
X202650416Y-134270389D01*
X202650419Y-134270391D01*
X202782333Y-134300499D01*
X202782338Y-134300499D01*
X202782340Y-134300500D01*
X202782342Y-134300500D01*
X216317658Y-134300500D01*
X216317660Y-134300500D01*
X216317662Y-134300499D01*
X216317666Y-134300499D01*
X216449580Y-134270391D01*
X216449581Y-134270390D01*
X216449588Y-134270389D01*
X216571507Y-134211675D01*
X216677305Y-134127305D01*
X216761675Y-134021507D01*
X216820389Y-133899588D01*
X216850499Y-133767666D01*
X221299500Y-133767666D01*
X221329608Y-133899580D01*
X221329611Y-133899588D01*
X221388323Y-134021504D01*
X221472694Y-134127305D01*
X221533289Y-134175626D01*
X221578493Y-134211675D01*
X221700412Y-134270389D01*
X221700416Y-134270389D01*
X221700419Y-134270391D01*
X221832333Y-134300499D01*
X221832338Y-134300499D01*
X221832340Y-134300500D01*
X221832342Y-134300500D01*
X235367658Y-134300500D01*
X235367660Y-134300500D01*
X235367662Y-134300499D01*
X235367666Y-134300499D01*
X235499580Y-134270391D01*
X235499581Y-134270390D01*
X235499588Y-134270389D01*
X235621507Y-134211675D01*
X235727305Y-134127305D01*
X235811675Y-134021507D01*
X235870389Y-133899588D01*
X235900499Y-133767666D01*
X240349500Y-133767666D01*
X240379608Y-133899580D01*
X240379611Y-133899588D01*
X240438323Y-134021504D01*
X240522694Y-134127305D01*
X240583289Y-134175626D01*
X240628493Y-134211675D01*
X240750412Y-134270389D01*
X240750416Y-134270389D01*
X240750419Y-134270391D01*
X240882333Y-134300499D01*
X240882338Y-134300499D01*
X240882340Y-134300500D01*
X240882342Y-134300500D01*
X254417658Y-134300500D01*
X254417660Y-134300500D01*
X254417662Y-134300499D01*
X254417666Y-134300499D01*
X254549580Y-134270391D01*
X254549581Y-134270390D01*
X254549588Y-134270389D01*
X254671507Y-134211675D01*
X254777305Y-134127305D01*
X254861675Y-134021507D01*
X254920389Y-133899588D01*
X254950499Y-133767666D01*
X259399500Y-133767666D01*
X259429608Y-133899580D01*
X259429611Y-133899588D01*
X259488323Y-134021504D01*
X259572694Y-134127305D01*
X259633289Y-134175626D01*
X259678493Y-134211675D01*
X259800412Y-134270389D01*
X259800416Y-134270389D01*
X259800419Y-134270391D01*
X259932333Y-134300499D01*
X259932338Y-134300499D01*
X259932340Y-134300500D01*
X259932342Y-134300500D01*
X273467658Y-134300500D01*
X273467660Y-134300500D01*
X273467662Y-134300499D01*
X273467666Y-134300499D01*
X273599580Y-134270391D01*
X273599581Y-134270390D01*
X273599588Y-134270389D01*
X273721507Y-134211675D01*
X273827305Y-134127305D01*
X273911675Y-134021507D01*
X273970389Y-133899588D01*
X274000499Y-133767666D01*
X278449500Y-133767666D01*
X278479608Y-133899580D01*
X278479611Y-133899588D01*
X278538323Y-134021504D01*
X278622694Y-134127305D01*
X278683289Y-134175626D01*
X278728493Y-134211675D01*
X278850412Y-134270389D01*
X278850416Y-134270389D01*
X278850419Y-134270391D01*
X278982333Y-134300499D01*
X278982338Y-134300499D01*
X278982340Y-134300500D01*
X278982342Y-134300500D01*
X292517658Y-134300500D01*
X292517660Y-134300500D01*
X292517662Y-134300499D01*
X292517666Y-134300499D01*
X292649580Y-134270391D01*
X292649581Y-134270390D01*
X292649588Y-134270389D01*
X292771507Y-134211675D01*
X292877305Y-134127305D01*
X292961675Y-134021507D01*
X293020389Y-133899588D01*
X293050500Y-133767660D01*
X293050500Y-133700000D01*
X293050500Y-133652405D01*
X293050500Y-120260438D01*
X293050500Y-120232340D01*
X293050499Y-120232338D01*
X293050499Y-120232333D01*
X293020391Y-120100419D01*
X293020389Y-120100416D01*
X293020389Y-120100412D01*
X292961675Y-119978493D01*
X292925626Y-119933289D01*
X292877305Y-119872694D01*
X292771504Y-119788323D01*
X292649588Y-119729611D01*
X292649580Y-119729608D01*
X292517666Y-119699500D01*
X292517660Y-119699500D01*
X292489562Y-119699500D01*
X279097595Y-119699500D01*
X279050000Y-119699500D01*
X278982340Y-119699500D01*
X278982333Y-119699500D01*
X278850419Y-119729608D01*
X278850411Y-119729611D01*
X278728495Y-119788323D01*
X278622694Y-119872694D01*
X278538323Y-119978495D01*
X278479611Y-120100411D01*
X278479608Y-120100419D01*
X278449500Y-120232333D01*
X278449500Y-133767666D01*
X274000499Y-133767666D01*
X274000500Y-133767660D01*
X274000500Y-133700000D01*
X274000500Y-133652405D01*
X274000500Y-120260438D01*
X274000500Y-120232340D01*
X274000499Y-120232338D01*
X274000499Y-120232333D01*
X273970391Y-120100419D01*
X273970389Y-120100416D01*
X273970389Y-120100412D01*
X273911675Y-119978493D01*
X273875626Y-119933289D01*
X273827305Y-119872694D01*
X273721504Y-119788323D01*
X273599588Y-119729611D01*
X273599580Y-119729608D01*
X273467666Y-119699500D01*
X273467660Y-119699500D01*
X273439562Y-119699500D01*
X260047595Y-119699500D01*
X260000000Y-119699500D01*
X259932340Y-119699500D01*
X259932333Y-119699500D01*
X259800419Y-119729608D01*
X259800411Y-119729611D01*
X259678495Y-119788323D01*
X259572694Y-119872694D01*
X259488323Y-119978495D01*
X259429611Y-120100411D01*
X259429608Y-120100419D01*
X259399500Y-120232333D01*
X259399500Y-133767666D01*
X254950499Y-133767666D01*
X254950500Y-133767660D01*
X254950500Y-133700000D01*
X254950500Y-133652405D01*
X254950500Y-120260438D01*
X254950500Y-120232340D01*
X254950499Y-120232338D01*
X254950499Y-120232333D01*
X254920391Y-120100419D01*
X254920389Y-120100416D01*
X254920389Y-120100412D01*
X254861675Y-119978493D01*
X254825626Y-119933289D01*
X254777305Y-119872694D01*
X254671504Y-119788323D01*
X254549588Y-119729611D01*
X254549580Y-119729608D01*
X254417666Y-119699500D01*
X254417660Y-119699500D01*
X254389562Y-119699500D01*
X240997595Y-119699500D01*
X240950000Y-119699500D01*
X240882340Y-119699500D01*
X240882333Y-119699500D01*
X240750419Y-119729608D01*
X240750411Y-119729611D01*
X240628495Y-119788323D01*
X240522694Y-119872694D01*
X240438323Y-119978495D01*
X240379611Y-120100411D01*
X240379608Y-120100419D01*
X240349500Y-120232333D01*
X240349500Y-133767666D01*
X235900499Y-133767666D01*
X235900500Y-133767660D01*
X235900500Y-133700000D01*
X235900500Y-133652405D01*
X235900500Y-120260438D01*
X235900500Y-120232340D01*
X235900499Y-120232338D01*
X235900499Y-120232333D01*
X235870391Y-120100419D01*
X235870389Y-120100416D01*
X235870389Y-120100412D01*
X235811675Y-119978493D01*
X235775626Y-119933289D01*
X235727305Y-119872694D01*
X235621504Y-119788323D01*
X235499588Y-119729611D01*
X235499580Y-119729608D01*
X235367666Y-119699500D01*
X235367660Y-119699500D01*
X235339562Y-119699500D01*
X221947595Y-119699500D01*
X221900000Y-119699500D01*
X221832340Y-119699500D01*
X221832333Y-119699500D01*
X221700419Y-119729608D01*
X221700411Y-119729611D01*
X221578495Y-119788323D01*
X221472694Y-119872694D01*
X221388323Y-119978495D01*
X221329611Y-120100411D01*
X221329608Y-120100419D01*
X221299500Y-120232333D01*
X221299500Y-133767666D01*
X216850499Y-133767666D01*
X216850500Y-133767660D01*
X216850500Y-133700000D01*
X216850500Y-133652405D01*
X216850500Y-120260438D01*
X216850500Y-120232340D01*
X216850499Y-120232338D01*
X216850499Y-120232333D01*
X216820391Y-120100419D01*
X216820389Y-120100416D01*
X216820389Y-120100412D01*
X216761675Y-119978493D01*
X216725626Y-119933289D01*
X216677305Y-119872694D01*
X216571504Y-119788323D01*
X216449588Y-119729611D01*
X216449580Y-119729608D01*
X216317666Y-119699500D01*
X216317660Y-119699500D01*
X216289562Y-119699500D01*
X202897595Y-119699500D01*
X202850000Y-119699500D01*
X202782340Y-119699500D01*
X202782333Y-119699500D01*
X202650419Y-119729608D01*
X202650411Y-119729611D01*
X202528495Y-119788323D01*
X202422694Y-119872694D01*
X202338323Y-119978495D01*
X202279611Y-120100411D01*
X202279608Y-120100419D01*
X202249500Y-120232333D01*
X202249500Y-133767666D01*
X197800499Y-133767666D01*
X197800500Y-133767660D01*
X197800500Y-133700000D01*
X197800500Y-133652405D01*
X197800500Y-120260438D01*
X197800500Y-120232340D01*
X197800499Y-120232338D01*
X197800499Y-120232333D01*
X197770391Y-120100419D01*
X197770389Y-120100416D01*
X197770389Y-120100412D01*
X197711675Y-119978493D01*
X197675626Y-119933289D01*
X197627305Y-119872694D01*
X197521504Y-119788323D01*
X197399588Y-119729611D01*
X197399580Y-119729608D01*
X197267666Y-119699500D01*
X197267660Y-119699500D01*
X197239562Y-119699500D01*
X183847595Y-119699500D01*
X183800000Y-119699500D01*
X183732340Y-119699500D01*
X183732333Y-119699500D01*
X183600419Y-119729608D01*
X183600411Y-119729611D01*
X183478495Y-119788323D01*
X183372694Y-119872694D01*
X183288323Y-119978495D01*
X183229611Y-120100411D01*
X183229608Y-120100419D01*
X183199500Y-120232333D01*
X183199500Y-133767666D01*
X178750499Y-133767666D01*
X178750500Y-133767660D01*
X178750500Y-133700000D01*
X178750500Y-133652405D01*
X178750500Y-120260438D01*
X178750500Y-120232340D01*
X178750499Y-120232338D01*
X178750499Y-120232333D01*
X178720391Y-120100419D01*
X178720389Y-120100416D01*
X178720389Y-120100412D01*
X178661675Y-119978493D01*
X178625626Y-119933289D01*
X178577305Y-119872694D01*
X178471504Y-119788323D01*
X178349588Y-119729611D01*
X178349580Y-119729608D01*
X178217666Y-119699500D01*
X178217660Y-119699500D01*
X178189562Y-119699500D01*
X164797595Y-119699500D01*
X164750000Y-119699500D01*
X164682340Y-119699500D01*
X164682333Y-119699500D01*
X164550419Y-119729608D01*
X164550411Y-119729611D01*
X164428495Y-119788323D01*
X164322694Y-119872694D01*
X164238323Y-119978495D01*
X164179611Y-120100411D01*
X164179608Y-120100419D01*
X164149500Y-120232333D01*
X164149500Y-133767666D01*
X159700499Y-133767666D01*
X159700500Y-133767660D01*
X159700500Y-133700000D01*
X159700500Y-133652405D01*
X159700500Y-120260438D01*
X159700500Y-120232340D01*
X159700499Y-120232338D01*
X159700499Y-120232333D01*
X159670391Y-120100419D01*
X159670389Y-120100416D01*
X159670389Y-120100412D01*
X159611675Y-119978493D01*
X159575626Y-119933289D01*
X159527305Y-119872694D01*
X159421504Y-119788323D01*
X159299588Y-119729611D01*
X159299580Y-119729608D01*
X159167666Y-119699500D01*
X159167660Y-119699500D01*
X159139562Y-119699500D01*
X145747595Y-119699500D01*
X145700000Y-119699500D01*
X145632340Y-119699500D01*
X145632333Y-119699500D01*
X145500419Y-119729608D01*
X145500411Y-119729611D01*
X145378495Y-119788323D01*
X145272694Y-119872694D01*
X145188323Y-119978495D01*
X145129611Y-120100411D01*
X145129608Y-120100419D01*
X145099500Y-120232333D01*
X145099500Y-133767666D01*
X140650499Y-133767666D01*
X140650500Y-133767660D01*
X140650500Y-133700000D01*
X140650500Y-133652405D01*
X140650500Y-120260438D01*
X140650500Y-120232340D01*
X140650499Y-120232338D01*
X140650499Y-120232333D01*
X140620391Y-120100419D01*
X140620389Y-120100416D01*
X140620389Y-120100412D01*
X140561675Y-119978493D01*
X140525626Y-119933289D01*
X140477305Y-119872694D01*
X140371504Y-119788323D01*
X140249588Y-119729611D01*
X140249580Y-119729608D01*
X140117666Y-119699500D01*
X140117660Y-119699500D01*
X140089562Y-119699500D01*
X126697595Y-119699500D01*
X126650000Y-119699500D01*
X126582340Y-119699500D01*
X126582333Y-119699500D01*
X126450419Y-119729608D01*
X126450411Y-119729611D01*
X126328495Y-119788323D01*
X126222694Y-119872694D01*
X126138323Y-119978495D01*
X126079611Y-120100411D01*
X126079608Y-120100419D01*
X126049500Y-120232333D01*
X126049500Y-133767666D01*
X121600499Y-133767666D01*
X121600500Y-133767660D01*
X121600500Y-133700000D01*
X121600500Y-133652405D01*
X121600500Y-120260438D01*
X121600500Y-120232340D01*
X121600499Y-120232338D01*
X121600499Y-120232333D01*
X121570391Y-120100419D01*
X121570389Y-120100416D01*
X121570389Y-120100412D01*
X121511675Y-119978493D01*
X121475626Y-119933289D01*
X121427305Y-119872694D01*
X121321504Y-119788323D01*
X121199588Y-119729611D01*
X121199580Y-119729608D01*
X121067666Y-119699500D01*
X121067660Y-119699500D01*
X121039562Y-119699500D01*
X107647595Y-119699500D01*
X107600000Y-119699500D01*
X107532340Y-119699500D01*
X107532333Y-119699500D01*
X107400419Y-119729608D01*
X107400411Y-119729611D01*
X107278495Y-119788323D01*
X107172694Y-119872694D01*
X107088323Y-119978495D01*
X107029611Y-120100411D01*
X107029608Y-120100419D01*
X106999500Y-120232333D01*
X106999500Y-133767666D01*
X102550499Y-133767666D01*
X102550500Y-133767660D01*
X102550500Y-133700000D01*
X102550500Y-133652405D01*
X102550500Y-120260438D01*
X102550500Y-120232340D01*
X102550499Y-120232338D01*
X102550499Y-120232333D01*
X102520391Y-120100419D01*
X102520389Y-120100416D01*
X102520389Y-120100412D01*
X102461675Y-119978493D01*
X102425626Y-119933289D01*
X102377305Y-119872694D01*
X102271504Y-119788323D01*
X102149588Y-119729611D01*
X102149580Y-119729608D01*
X102017666Y-119699500D01*
X102017660Y-119699500D01*
X101989562Y-119699500D01*
X88597595Y-119699500D01*
X88550000Y-119699500D01*
X88482340Y-119699500D01*
X88482333Y-119699500D01*
X88350419Y-119729608D01*
X88350411Y-119729611D01*
X88228495Y-119788323D01*
X88122694Y-119872694D01*
X88038323Y-119978495D01*
X87979611Y-120100411D01*
X87979608Y-120100419D01*
X87949500Y-120232333D01*
X87949500Y-133767666D01*
X83500499Y-133767666D01*
X83500500Y-133767660D01*
X83500500Y-133700000D01*
X83500500Y-133652405D01*
X83500500Y-120260438D01*
X83500500Y-120232340D01*
X83500499Y-120232338D01*
X83500499Y-120232333D01*
X83470391Y-120100419D01*
X83470389Y-120100416D01*
X83470389Y-120100412D01*
X83411675Y-119978493D01*
X83375626Y-119933289D01*
X83327305Y-119872694D01*
X83221504Y-119788323D01*
X83099588Y-119729611D01*
X83099580Y-119729608D01*
X82967666Y-119699500D01*
X82967660Y-119699500D01*
X82939562Y-119699500D01*
X69547595Y-119699500D01*
X69500000Y-119699500D01*
X69432340Y-119699500D01*
X69432333Y-119699500D01*
X69300419Y-119729608D01*
X69300411Y-119729611D01*
X69178495Y-119788323D01*
X69072694Y-119872694D01*
X68988323Y-119978495D01*
X68929611Y-120100411D01*
X68929608Y-120100419D01*
X68899500Y-120232333D01*
X68899500Y-133767666D01*
X66300500Y-133767666D01*
X66300500Y-114717666D01*
X68899500Y-114717666D01*
X68929608Y-114849580D01*
X68929611Y-114849588D01*
X68988323Y-114971504D01*
X69072694Y-115077305D01*
X69133289Y-115125626D01*
X69178493Y-115161675D01*
X69300412Y-115220389D01*
X69300416Y-115220389D01*
X69300419Y-115220391D01*
X69432333Y-115250499D01*
X69432338Y-115250499D01*
X69432340Y-115250500D01*
X69432342Y-115250500D01*
X82967658Y-115250500D01*
X82967660Y-115250500D01*
X82967662Y-115250499D01*
X82967666Y-115250499D01*
X83099580Y-115220391D01*
X83099581Y-115220390D01*
X83099588Y-115220389D01*
X83221507Y-115161675D01*
X83327305Y-115077305D01*
X83411675Y-114971507D01*
X83470389Y-114849588D01*
X83500499Y-114717666D01*
X87949500Y-114717666D01*
X87979608Y-114849580D01*
X87979611Y-114849588D01*
X88038323Y-114971504D01*
X88122694Y-115077305D01*
X88183289Y-115125626D01*
X88228493Y-115161675D01*
X88350412Y-115220389D01*
X88350416Y-115220389D01*
X88350419Y-115220391D01*
X88482333Y-115250499D01*
X88482338Y-115250499D01*
X88482340Y-115250500D01*
X88482342Y-115250500D01*
X102017658Y-115250500D01*
X102017660Y-115250500D01*
X102017662Y-115250499D01*
X102017666Y-115250499D01*
X102149580Y-115220391D01*
X102149581Y-115220390D01*
X102149588Y-115220389D01*
X102271507Y-115161675D01*
X102377305Y-115077305D01*
X102461675Y-114971507D01*
X102520389Y-114849588D01*
X102550499Y-114717666D01*
X106999500Y-114717666D01*
X107029608Y-114849580D01*
X107029611Y-114849588D01*
X107088323Y-114971504D01*
X107172694Y-115077305D01*
X107233289Y-115125626D01*
X107278493Y-115161675D01*
X107400412Y-115220389D01*
X107400416Y-115220389D01*
X107400419Y-115220391D01*
X107532333Y-115250499D01*
X107532338Y-115250499D01*
X107532340Y-115250500D01*
X107532342Y-115250500D01*
X121067658Y-115250500D01*
X121067660Y-115250500D01*
X121067662Y-115250499D01*
X121067666Y-115250499D01*
X121199580Y-115220391D01*
X121199581Y-115220390D01*
X121199588Y-115220389D01*
X121321507Y-115161675D01*
X121427305Y-115077305D01*
X121511675Y-114971507D01*
X121570389Y-114849588D01*
X121600499Y-114717666D01*
X126049500Y-114717666D01*
X126079608Y-114849580D01*
X126079611Y-114849588D01*
X126138323Y-114971504D01*
X126222694Y-115077305D01*
X126283289Y-115125626D01*
X126328493Y-115161675D01*
X126450412Y-115220389D01*
X126450416Y-115220389D01*
X126450419Y-115220391D01*
X126582333Y-115250499D01*
X126582338Y-115250499D01*
X126582340Y-115250500D01*
X126582342Y-115250500D01*
X140117658Y-115250500D01*
X140117660Y-115250500D01*
X140117662Y-115250499D01*
X140117666Y-115250499D01*
X140249580Y-115220391D01*
X140249581Y-115220390D01*
X140249588Y-115220389D01*
X140371507Y-115161675D01*
X140477305Y-115077305D01*
X140561675Y-114971507D01*
X140620389Y-114849588D01*
X140650499Y-114717666D01*
X145099500Y-114717666D01*
X145129608Y-114849580D01*
X145129611Y-114849588D01*
X145188323Y-114971504D01*
X145272694Y-115077305D01*
X145333289Y-115125626D01*
X145378493Y-115161675D01*
X145500412Y-115220389D01*
X145500416Y-115220389D01*
X145500419Y-115220391D01*
X145632333Y-115250499D01*
X145632338Y-115250499D01*
X145632340Y-115250500D01*
X145632342Y-115250500D01*
X159167658Y-115250500D01*
X159167660Y-115250500D01*
X159167662Y-115250499D01*
X159167666Y-115250499D01*
X159299580Y-115220391D01*
X159299581Y-115220390D01*
X159299588Y-115220389D01*
X159421507Y-115161675D01*
X159527305Y-115077305D01*
X159611675Y-114971507D01*
X159670389Y-114849588D01*
X159700499Y-114717666D01*
X164149500Y-114717666D01*
X164179608Y-114849580D01*
X164179611Y-114849588D01*
X164238323Y-114971504D01*
X164322694Y-115077305D01*
X164383289Y-115125626D01*
X164428493Y-115161675D01*
X164550412Y-115220389D01*
X164550416Y-115220389D01*
X164550419Y-115220391D01*
X164682333Y-115250499D01*
X164682338Y-115250499D01*
X164682340Y-115250500D01*
X164682342Y-115250500D01*
X178217658Y-115250500D01*
X178217660Y-115250500D01*
X178217662Y-115250499D01*
X178217666Y-115250499D01*
X178349580Y-115220391D01*
X178349581Y-115220390D01*
X178349588Y-115220389D01*
X178471507Y-115161675D01*
X178577305Y-115077305D01*
X178661675Y-114971507D01*
X178720389Y-114849588D01*
X178750499Y-114717666D01*
X183199500Y-114717666D01*
X183229608Y-114849580D01*
X183229611Y-114849588D01*
X183288323Y-114971504D01*
X183372694Y-115077305D01*
X183433289Y-115125626D01*
X183478493Y-115161675D01*
X183600412Y-115220389D01*
X183600416Y-115220389D01*
X183600419Y-115220391D01*
X183732333Y-115250499D01*
X183732338Y-115250499D01*
X183732340Y-115250500D01*
X183732342Y-115250500D01*
X197267658Y-115250500D01*
X197267660Y-115250500D01*
X197267662Y-115250499D01*
X197267666Y-115250499D01*
X197399580Y-115220391D01*
X197399581Y-115220390D01*
X197399588Y-115220389D01*
X197521507Y-115161675D01*
X197627305Y-115077305D01*
X197711675Y-114971507D01*
X197770389Y-114849588D01*
X197800499Y-114717666D01*
X202249500Y-114717666D01*
X202279608Y-114849580D01*
X202279611Y-114849588D01*
X202338323Y-114971504D01*
X202422694Y-115077305D01*
X202483289Y-115125626D01*
X202528493Y-115161675D01*
X202650412Y-115220389D01*
X202650416Y-115220389D01*
X202650419Y-115220391D01*
X202782333Y-115250499D01*
X202782338Y-115250499D01*
X202782340Y-115250500D01*
X202782342Y-115250500D01*
X216317658Y-115250500D01*
X216317660Y-115250500D01*
X216317662Y-115250499D01*
X216317666Y-115250499D01*
X216449580Y-115220391D01*
X216449581Y-115220390D01*
X216449588Y-115220389D01*
X216571507Y-115161675D01*
X216677305Y-115077305D01*
X216761675Y-114971507D01*
X216820389Y-114849588D01*
X216850499Y-114717666D01*
X221299500Y-114717666D01*
X221329608Y-114849580D01*
X221329611Y-114849588D01*
X221388323Y-114971504D01*
X221472694Y-115077305D01*
X221533289Y-115125626D01*
X221578493Y-115161675D01*
X221700412Y-115220389D01*
X221700416Y-115220389D01*
X221700419Y-115220391D01*
X221832333Y-115250499D01*
X221832338Y-115250499D01*
X221832340Y-115250500D01*
X221832342Y-115250500D01*
X235367658Y-115250500D01*
X235367660Y-115250500D01*
X235367662Y-115250499D01*
X235367666Y-115250499D01*
X235499580Y-115220391D01*
X235499581Y-115220390D01*
X235499588Y-115220389D01*
X235621507Y-115161675D01*
X235727305Y-115077305D01*
X235811675Y-114971507D01*
X235870389Y-114849588D01*
X235900499Y-114717666D01*
X240349500Y-114717666D01*
X240379608Y-114849580D01*
X240379611Y-114849588D01*
X240438323Y-114971504D01*
X240522694Y-115077305D01*
X240583289Y-115125626D01*
X240628493Y-115161675D01*
X240750412Y-115220389D01*
X240750416Y-115220389D01*
X240750419Y-115220391D01*
X240882333Y-115250499D01*
X240882338Y-115250499D01*
X240882340Y-115250500D01*
X240882342Y-115250500D01*
X254417658Y-115250500D01*
X254417660Y-115250500D01*
X254417662Y-115250499D01*
X254417666Y-115250499D01*
X254549580Y-115220391D01*
X254549581Y-115220390D01*
X254549588Y-115220389D01*
X254671507Y-115161675D01*
X254777305Y-115077305D01*
X254861675Y-114971507D01*
X254920389Y-114849588D01*
X254950499Y-114717666D01*
X259399500Y-114717666D01*
X259429608Y-114849580D01*
X259429611Y-114849588D01*
X259488323Y-114971504D01*
X259572694Y-115077305D01*
X259633289Y-115125626D01*
X259678493Y-115161675D01*
X259800412Y-115220389D01*
X259800416Y-115220389D01*
X259800419Y-115220391D01*
X259932333Y-115250499D01*
X259932338Y-115250499D01*
X259932340Y-115250500D01*
X259932342Y-115250500D01*
X273467658Y-115250500D01*
X273467660Y-115250500D01*
X273467662Y-115250499D01*
X273467666Y-115250499D01*
X273599580Y-115220391D01*
X273599581Y-115220390D01*
X273599588Y-115220389D01*
X273721507Y-115161675D01*
X273827305Y-115077305D01*
X273911675Y-114971507D01*
X273970389Y-114849588D01*
X274000499Y-114717666D01*
X278449500Y-114717666D01*
X278479608Y-114849580D01*
X278479611Y-114849588D01*
X278538323Y-114971504D01*
X278622694Y-115077305D01*
X278683289Y-115125626D01*
X278728493Y-115161675D01*
X278850412Y-115220389D01*
X278850416Y-115220389D01*
X278850419Y-115220391D01*
X278982333Y-115250499D01*
X278982338Y-115250499D01*
X278982340Y-115250500D01*
X278982342Y-115250500D01*
X292517658Y-115250500D01*
X292517660Y-115250500D01*
X292517662Y-115250499D01*
X292517666Y-115250499D01*
X292649580Y-115220391D01*
X292649581Y-115220390D01*
X292649588Y-115220389D01*
X292771507Y-115161675D01*
X292877305Y-115077305D01*
X292961675Y-114971507D01*
X293020389Y-114849588D01*
X293050499Y-114717666D01*
X297499500Y-114717666D01*
X297529608Y-114849580D01*
X297529611Y-114849588D01*
X297588323Y-114971504D01*
X297672694Y-115077305D01*
X297733289Y-115125626D01*
X297778493Y-115161675D01*
X297900412Y-115220389D01*
X297900416Y-115220389D01*
X297900419Y-115220391D01*
X298032333Y-115250499D01*
X298032338Y-115250499D01*
X298032340Y-115250500D01*
X298032342Y-115250500D01*
X311567658Y-115250500D01*
X311567660Y-115250500D01*
X311567662Y-115250499D01*
X311567666Y-115250499D01*
X311699580Y-115220391D01*
X311699581Y-115220390D01*
X311699588Y-115220389D01*
X311821507Y-115161675D01*
X311927305Y-115077305D01*
X312011675Y-114971507D01*
X312070389Y-114849588D01*
X312100499Y-114717666D01*
X324169500Y-114717666D01*
X324199608Y-114849580D01*
X324199611Y-114849588D01*
X324258323Y-114971504D01*
X324342694Y-115077305D01*
X324403289Y-115125626D01*
X324448493Y-115161675D01*
X324570412Y-115220389D01*
X324570416Y-115220389D01*
X324570419Y-115220391D01*
X324702333Y-115250499D01*
X324702338Y-115250499D01*
X324702340Y-115250500D01*
X324702342Y-115250500D01*
X338237658Y-115250500D01*
X338237660Y-115250500D01*
X338237662Y-115250499D01*
X338237666Y-115250499D01*
X338369580Y-115220391D01*
X338369581Y-115220390D01*
X338369588Y-115220389D01*
X338491507Y-115161675D01*
X338597305Y-115077305D01*
X338681675Y-114971507D01*
X338740389Y-114849588D01*
X338770499Y-114717666D01*
X343219500Y-114717666D01*
X343249608Y-114849580D01*
X343249611Y-114849588D01*
X343308323Y-114971504D01*
X343392694Y-115077305D01*
X343453289Y-115125626D01*
X343498493Y-115161675D01*
X343620412Y-115220389D01*
X343620416Y-115220389D01*
X343620419Y-115220391D01*
X343752333Y-115250499D01*
X343752338Y-115250499D01*
X343752340Y-115250500D01*
X343752342Y-115250500D01*
X357287658Y-115250500D01*
X357287660Y-115250500D01*
X357287662Y-115250499D01*
X357287666Y-115250499D01*
X357419580Y-115220391D01*
X357419581Y-115220390D01*
X357419588Y-115220389D01*
X357541507Y-115161675D01*
X357647305Y-115077305D01*
X357731675Y-114971507D01*
X357790389Y-114849588D01*
X357820499Y-114717666D01*
X362269500Y-114717666D01*
X362299608Y-114849580D01*
X362299611Y-114849588D01*
X362358323Y-114971504D01*
X362442694Y-115077305D01*
X362503289Y-115125626D01*
X362548493Y-115161675D01*
X362670412Y-115220389D01*
X362670416Y-115220389D01*
X362670419Y-115220391D01*
X362802333Y-115250499D01*
X362802338Y-115250499D01*
X362802340Y-115250500D01*
X362802342Y-115250500D01*
X376337658Y-115250500D01*
X376337660Y-115250500D01*
X376337662Y-115250499D01*
X376337666Y-115250499D01*
X376469580Y-115220391D01*
X376469581Y-115220390D01*
X376469588Y-115220389D01*
X376591507Y-115161675D01*
X376697305Y-115077305D01*
X376781675Y-114971507D01*
X376840389Y-114849588D01*
X376870500Y-114717660D01*
X376870500Y-114650000D01*
X376870500Y-114602405D01*
X376870500Y-101210438D01*
X376870500Y-101182340D01*
X376870499Y-101182338D01*
X376870499Y-101182333D01*
X376840391Y-101050419D01*
X376840389Y-101050416D01*
X376840389Y-101050412D01*
X376781675Y-100928493D01*
X376745626Y-100883289D01*
X376697305Y-100822694D01*
X376591504Y-100738323D01*
X376469588Y-100679611D01*
X376469580Y-100679608D01*
X376337666Y-100649500D01*
X376337660Y-100649500D01*
X376309562Y-100649500D01*
X362917595Y-100649500D01*
X362870000Y-100649500D01*
X362802340Y-100649500D01*
X362802333Y-100649500D01*
X362670419Y-100679608D01*
X362670411Y-100679611D01*
X362548495Y-100738323D01*
X362442694Y-100822694D01*
X362358323Y-100928495D01*
X362299611Y-101050411D01*
X362299608Y-101050419D01*
X362269500Y-101182333D01*
X362269500Y-114717666D01*
X357820499Y-114717666D01*
X357820500Y-114717660D01*
X357820500Y-114650000D01*
X357820500Y-114602405D01*
X357820500Y-101210438D01*
X357820500Y-101182340D01*
X357820499Y-101182338D01*
X357820499Y-101182333D01*
X357790391Y-101050419D01*
X357790389Y-101050416D01*
X357790389Y-101050412D01*
X357731675Y-100928493D01*
X357695626Y-100883289D01*
X357647305Y-100822694D01*
X357541504Y-100738323D01*
X357419588Y-100679611D01*
X357419580Y-100679608D01*
X357287666Y-100649500D01*
X357287660Y-100649500D01*
X357259562Y-100649500D01*
X343867595Y-100649500D01*
X343820000Y-100649500D01*
X343752340Y-100649500D01*
X343752333Y-100649500D01*
X343620419Y-100679608D01*
X343620411Y-100679611D01*
X343498495Y-100738323D01*
X343392694Y-100822694D01*
X343308323Y-100928495D01*
X343249611Y-101050411D01*
X343249608Y-101050419D01*
X343219500Y-101182333D01*
X343219500Y-114717666D01*
X338770499Y-114717666D01*
X338770500Y-114717660D01*
X338770500Y-114650000D01*
X338770500Y-114602405D01*
X338770500Y-112338695D01*
X340099500Y-112338695D01*
X340134103Y-112512658D01*
X340134106Y-112512667D01*
X340201983Y-112676540D01*
X340201990Y-112676553D01*
X340300535Y-112824034D01*
X340300538Y-112824038D01*
X340425961Y-112949461D01*
X340425965Y-112949464D01*
X340573446Y-113048009D01*
X340573459Y-113048016D01*
X340696363Y-113098923D01*
X340737334Y-113115894D01*
X340737336Y-113115894D01*
X340737341Y-113115896D01*
X340911304Y-113150499D01*
X340911307Y-113150500D01*
X340911309Y-113150500D01*
X341088693Y-113150500D01*
X341088694Y-113150499D01*
X341146682Y-113138964D01*
X341262658Y-113115896D01*
X341262661Y-113115894D01*
X341262666Y-113115894D01*
X341426547Y-113048013D01*
X341574035Y-112949464D01*
X341699464Y-112824035D01*
X341798013Y-112676547D01*
X341865894Y-112512666D01*
X341900500Y-112338691D01*
X341900500Y-112250000D01*
X341900500Y-112202405D01*
X341900500Y-103610438D01*
X341900500Y-103561309D01*
X341900500Y-103561306D01*
X341900499Y-103561304D01*
X341865896Y-103387341D01*
X341865893Y-103387332D01*
X341798016Y-103223459D01*
X341798009Y-103223446D01*
X341699464Y-103075965D01*
X341699461Y-103075961D01*
X341574038Y-102950538D01*
X341574034Y-102950535D01*
X341426553Y-102851990D01*
X341426540Y-102851983D01*
X341262667Y-102784106D01*
X341262658Y-102784103D01*
X341088694Y-102749500D01*
X341088691Y-102749500D01*
X341047595Y-102749500D01*
X341000000Y-102749500D01*
X340911309Y-102749500D01*
X340911306Y-102749500D01*
X340737341Y-102784103D01*
X340737332Y-102784106D01*
X340573459Y-102851983D01*
X340573446Y-102851990D01*
X340425965Y-102950535D01*
X340425961Y-102950538D01*
X340300538Y-103075961D01*
X340300535Y-103075965D01*
X340201990Y-103223446D01*
X340201983Y-103223459D01*
X340134106Y-103387332D01*
X340134103Y-103387341D01*
X340099500Y-103561304D01*
X340099500Y-112338695D01*
X338770500Y-112338695D01*
X338770500Y-101210438D01*
X338770500Y-101182340D01*
X338770499Y-101182338D01*
X338770499Y-101182333D01*
X338740391Y-101050419D01*
X338740389Y-101050416D01*
X338740389Y-101050412D01*
X338681675Y-100928493D01*
X338645626Y-100883289D01*
X338597305Y-100822694D01*
X338491504Y-100738323D01*
X338369588Y-100679611D01*
X338369580Y-100679608D01*
X338237666Y-100649500D01*
X338237660Y-100649500D01*
X338209562Y-100649500D01*
X324817595Y-100649500D01*
X324770000Y-100649500D01*
X324702340Y-100649500D01*
X324702333Y-100649500D01*
X324570419Y-100679608D01*
X324570411Y-100679611D01*
X324448495Y-100738323D01*
X324342694Y-100822694D01*
X324258323Y-100928495D01*
X324199611Y-101050411D01*
X324199608Y-101050419D01*
X324169500Y-101182333D01*
X324169500Y-114717666D01*
X312100499Y-114717666D01*
X312100500Y-114717660D01*
X312100500Y-114650000D01*
X312100500Y-114602405D01*
X312100500Y-101210438D01*
X312100500Y-101182340D01*
X312100499Y-101182338D01*
X312100499Y-101182333D01*
X312070391Y-101050419D01*
X312070389Y-101050416D01*
X312070389Y-101050412D01*
X312011675Y-100928493D01*
X311975626Y-100883289D01*
X311927305Y-100822694D01*
X311821504Y-100738323D01*
X311699588Y-100679611D01*
X311699580Y-100679608D01*
X311567666Y-100649500D01*
X311567660Y-100649500D01*
X311539562Y-100649500D01*
X298147595Y-100649500D01*
X298100000Y-100649500D01*
X298032340Y-100649500D01*
X298032333Y-100649500D01*
X297900419Y-100679608D01*
X297900411Y-100679611D01*
X297778495Y-100738323D01*
X297672694Y-100822694D01*
X297588323Y-100928495D01*
X297529611Y-101050411D01*
X297529608Y-101050419D01*
X297499500Y-101182333D01*
X297499500Y-114717666D01*
X293050499Y-114717666D01*
X293050500Y-114717660D01*
X293050500Y-114650000D01*
X293050500Y-114602405D01*
X293050500Y-101210438D01*
X293050500Y-101182340D01*
X293050499Y-101182338D01*
X293050499Y-101182333D01*
X293020391Y-101050419D01*
X293020389Y-101050416D01*
X293020389Y-101050412D01*
X292961675Y-100928493D01*
X292925626Y-100883289D01*
X292877305Y-100822694D01*
X292771504Y-100738323D01*
X292649588Y-100679611D01*
X292649580Y-100679608D01*
X292517666Y-100649500D01*
X292517660Y-100649500D01*
X292489562Y-100649500D01*
X279097595Y-100649500D01*
X279050000Y-100649500D01*
X278982340Y-100649500D01*
X278982333Y-100649500D01*
X278850419Y-100679608D01*
X278850411Y-100679611D01*
X278728495Y-100738323D01*
X278622694Y-100822694D01*
X278538323Y-100928495D01*
X278479611Y-101050411D01*
X278479608Y-101050419D01*
X278449500Y-101182333D01*
X278449500Y-114717666D01*
X274000499Y-114717666D01*
X274000500Y-114717660D01*
X274000500Y-114650000D01*
X274000500Y-114602405D01*
X274000500Y-101210438D01*
X274000500Y-101182340D01*
X274000499Y-101182338D01*
X274000499Y-101182333D01*
X273970391Y-101050419D01*
X273970389Y-101050416D01*
X273970389Y-101050412D01*
X273911675Y-100928493D01*
X273875626Y-100883289D01*
X273827305Y-100822694D01*
X273721504Y-100738323D01*
X273599588Y-100679611D01*
X273599580Y-100679608D01*
X273467666Y-100649500D01*
X273467660Y-100649500D01*
X273439562Y-100649500D01*
X260047595Y-100649500D01*
X260000000Y-100649500D01*
X259932340Y-100649500D01*
X259932333Y-100649500D01*
X259800419Y-100679608D01*
X259800411Y-100679611D01*
X259678495Y-100738323D01*
X259572694Y-100822694D01*
X259488323Y-100928495D01*
X259429611Y-101050411D01*
X259429608Y-101050419D01*
X259399500Y-101182333D01*
X259399500Y-114717666D01*
X254950499Y-114717666D01*
X254950500Y-114717660D01*
X254950500Y-114650000D01*
X254950500Y-114602405D01*
X254950500Y-101210438D01*
X254950500Y-101182340D01*
X254950499Y-101182338D01*
X254950499Y-101182333D01*
X254920391Y-101050419D01*
X254920389Y-101050416D01*
X254920389Y-101050412D01*
X254861675Y-100928493D01*
X254825626Y-100883289D01*
X254777305Y-100822694D01*
X254671504Y-100738323D01*
X254549588Y-100679611D01*
X254549580Y-100679608D01*
X254417666Y-100649500D01*
X254417660Y-100649500D01*
X254389562Y-100649500D01*
X240997595Y-100649500D01*
X240950000Y-100649500D01*
X240882340Y-100649500D01*
X240882333Y-100649500D01*
X240750419Y-100679608D01*
X240750411Y-100679611D01*
X240628495Y-100738323D01*
X240522694Y-100822694D01*
X240438323Y-100928495D01*
X240379611Y-101050411D01*
X240379608Y-101050419D01*
X240349500Y-101182333D01*
X240349500Y-114717666D01*
X235900499Y-114717666D01*
X235900500Y-114717660D01*
X235900500Y-114650000D01*
X235900500Y-114602405D01*
X235900500Y-101210438D01*
X235900500Y-101182340D01*
X235900499Y-101182338D01*
X235900499Y-101182333D01*
X235870391Y-101050419D01*
X235870389Y-101050416D01*
X235870389Y-101050412D01*
X235811675Y-100928493D01*
X235775626Y-100883289D01*
X235727305Y-100822694D01*
X235621504Y-100738323D01*
X235499588Y-100679611D01*
X235499580Y-100679608D01*
X235367666Y-100649500D01*
X235367660Y-100649500D01*
X235339562Y-100649500D01*
X221947595Y-100649500D01*
X221900000Y-100649500D01*
X221832340Y-100649500D01*
X221832333Y-100649500D01*
X221700419Y-100679608D01*
X221700411Y-100679611D01*
X221578495Y-100738323D01*
X221472694Y-100822694D01*
X221388323Y-100928495D01*
X221329611Y-101050411D01*
X221329608Y-101050419D01*
X221299500Y-101182333D01*
X221299500Y-114717666D01*
X216850499Y-114717666D01*
X216850500Y-114717660D01*
X216850500Y-114650000D01*
X216850500Y-114602405D01*
X216850500Y-101210438D01*
X216850500Y-101182340D01*
X216850499Y-101182338D01*
X216850499Y-101182333D01*
X216820391Y-101050419D01*
X216820389Y-101050416D01*
X216820389Y-101050412D01*
X216761675Y-100928493D01*
X216725626Y-100883289D01*
X216677305Y-100822694D01*
X216571504Y-100738323D01*
X216449588Y-100679611D01*
X216449580Y-100679608D01*
X216317666Y-100649500D01*
X216317660Y-100649500D01*
X216289562Y-100649500D01*
X202897595Y-100649500D01*
X202850000Y-100649500D01*
X202782340Y-100649500D01*
X202782333Y-100649500D01*
X202650419Y-100679608D01*
X202650411Y-100679611D01*
X202528495Y-100738323D01*
X202422694Y-100822694D01*
X202338323Y-100928495D01*
X202279611Y-101050411D01*
X202279608Y-101050419D01*
X202249500Y-101182333D01*
X202249500Y-114717666D01*
X197800499Y-114717666D01*
X197800500Y-114717660D01*
X197800500Y-114650000D01*
X197800500Y-114602405D01*
X197800500Y-101210438D01*
X197800500Y-101182340D01*
X197800499Y-101182338D01*
X197800499Y-101182333D01*
X197770391Y-101050419D01*
X197770389Y-101050416D01*
X197770389Y-101050412D01*
X197711675Y-100928493D01*
X197675626Y-100883289D01*
X197627305Y-100822694D01*
X197521504Y-100738323D01*
X197399588Y-100679611D01*
X197399580Y-100679608D01*
X197267666Y-100649500D01*
X197267660Y-100649500D01*
X197239562Y-100649500D01*
X183847595Y-100649500D01*
X183800000Y-100649500D01*
X183732340Y-100649500D01*
X183732333Y-100649500D01*
X183600419Y-100679608D01*
X183600411Y-100679611D01*
X183478495Y-100738323D01*
X183372694Y-100822694D01*
X183288323Y-100928495D01*
X183229611Y-101050411D01*
X183229608Y-101050419D01*
X183199500Y-101182333D01*
X183199500Y-114717666D01*
X178750499Y-114717666D01*
X178750500Y-114717660D01*
X178750500Y-114650000D01*
X178750500Y-114602405D01*
X178750500Y-101210438D01*
X178750500Y-101182340D01*
X178750499Y-101182338D01*
X178750499Y-101182333D01*
X178720391Y-101050419D01*
X178720389Y-101050416D01*
X178720389Y-101050412D01*
X178661675Y-100928493D01*
X178625626Y-100883289D01*
X178577305Y-100822694D01*
X178471504Y-100738323D01*
X178349588Y-100679611D01*
X178349580Y-100679608D01*
X178217666Y-100649500D01*
X178217660Y-100649500D01*
X178189562Y-100649500D01*
X164797595Y-100649500D01*
X164750000Y-100649500D01*
X164682340Y-100649500D01*
X164682333Y-100649500D01*
X164550419Y-100679608D01*
X164550411Y-100679611D01*
X164428495Y-100738323D01*
X164322694Y-100822694D01*
X164238323Y-100928495D01*
X164179611Y-101050411D01*
X164179608Y-101050419D01*
X164149500Y-101182333D01*
X164149500Y-114717666D01*
X159700499Y-114717666D01*
X159700500Y-114717660D01*
X159700500Y-114650000D01*
X159700500Y-114602405D01*
X159700500Y-101210438D01*
X159700500Y-101182340D01*
X159700499Y-101182338D01*
X159700499Y-101182333D01*
X159670391Y-101050419D01*
X159670389Y-101050416D01*
X159670389Y-101050412D01*
X159611675Y-100928493D01*
X159575626Y-100883289D01*
X159527305Y-100822694D01*
X159421504Y-100738323D01*
X159299588Y-100679611D01*
X159299580Y-100679608D01*
X159167666Y-100649500D01*
X159167660Y-100649500D01*
X159139562Y-100649500D01*
X145747595Y-100649500D01*
X145700000Y-100649500D01*
X145632340Y-100649500D01*
X145632333Y-100649500D01*
X145500419Y-100679608D01*
X145500411Y-100679611D01*
X145378495Y-100738323D01*
X145272694Y-100822694D01*
X145188323Y-100928495D01*
X145129611Y-101050411D01*
X145129608Y-101050419D01*
X145099500Y-101182333D01*
X145099500Y-114717666D01*
X140650499Y-114717666D01*
X140650500Y-114717660D01*
X140650500Y-114650000D01*
X140650500Y-114602405D01*
X140650500Y-101210438D01*
X140650500Y-101182340D01*
X140650499Y-101182338D01*
X140650499Y-101182333D01*
X140620391Y-101050419D01*
X140620389Y-101050416D01*
X140620389Y-101050412D01*
X140561675Y-100928493D01*
X140525626Y-100883289D01*
X140477305Y-100822694D01*
X140371504Y-100738323D01*
X140249588Y-100679611D01*
X140249580Y-100679608D01*
X140117666Y-100649500D01*
X140117660Y-100649500D01*
X140089562Y-100649500D01*
X126697595Y-100649500D01*
X126650000Y-100649500D01*
X126582340Y-100649500D01*
X126582333Y-100649500D01*
X126450419Y-100679608D01*
X126450411Y-100679611D01*
X126328495Y-100738323D01*
X126222694Y-100822694D01*
X126138323Y-100928495D01*
X126079611Y-101050411D01*
X126079608Y-101050419D01*
X126049500Y-101182333D01*
X126049500Y-114717666D01*
X121600499Y-114717666D01*
X121600500Y-114717660D01*
X121600500Y-114650000D01*
X121600500Y-114602405D01*
X121600500Y-101210438D01*
X121600500Y-101182340D01*
X121600499Y-101182338D01*
X121600499Y-101182333D01*
X121570391Y-101050419D01*
X121570389Y-101050416D01*
X121570389Y-101050412D01*
X121511675Y-100928493D01*
X121475626Y-100883289D01*
X121427305Y-100822694D01*
X121321504Y-100738323D01*
X121199588Y-100679611D01*
X121199580Y-100679608D01*
X121067666Y-100649500D01*
X121067660Y-100649500D01*
X121039562Y-100649500D01*
X107647595Y-100649500D01*
X107600000Y-100649500D01*
X107532340Y-100649500D01*
X107532333Y-100649500D01*
X107400419Y-100679608D01*
X107400411Y-100679611D01*
X107278495Y-100738323D01*
X107172694Y-100822694D01*
X107088323Y-100928495D01*
X107029611Y-101050411D01*
X107029608Y-101050419D01*
X106999500Y-101182333D01*
X106999500Y-114717666D01*
X102550499Y-114717666D01*
X102550500Y-114717660D01*
X102550500Y-114650000D01*
X102550500Y-114602405D01*
X102550500Y-101210438D01*
X102550500Y-101182340D01*
X102550499Y-101182338D01*
X102550499Y-101182333D01*
X102520391Y-101050419D01*
X102520389Y-101050416D01*
X102520389Y-101050412D01*
X102461675Y-100928493D01*
X102425626Y-100883289D01*
X102377305Y-100822694D01*
X102271504Y-100738323D01*
X102149588Y-100679611D01*
X102149580Y-100679608D01*
X102017666Y-100649500D01*
X102017660Y-100649500D01*
X101989562Y-100649500D01*
X88597595Y-100649500D01*
X88550000Y-100649500D01*
X88482340Y-100649500D01*
X88482333Y-100649500D01*
X88350419Y-100679608D01*
X88350411Y-100679611D01*
X88228495Y-100738323D01*
X88122694Y-100822694D01*
X88038323Y-100928495D01*
X87979611Y-101050411D01*
X87979608Y-101050419D01*
X87949500Y-101182333D01*
X87949500Y-114717666D01*
X83500499Y-114717666D01*
X83500500Y-114717660D01*
X83500500Y-114650000D01*
X83500500Y-114602405D01*
X83500500Y-101210438D01*
X83500500Y-101182340D01*
X83500499Y-101182338D01*
X83500499Y-101182333D01*
X83470391Y-101050419D01*
X83470389Y-101050416D01*
X83470389Y-101050412D01*
X83411675Y-100928493D01*
X83375626Y-100883289D01*
X83327305Y-100822694D01*
X83221504Y-100738323D01*
X83099588Y-100679611D01*
X83099580Y-100679608D01*
X82967666Y-100649500D01*
X82967660Y-100649500D01*
X82939562Y-100649500D01*
X69547595Y-100649500D01*
X69500000Y-100649500D01*
X69432340Y-100649500D01*
X69432333Y-100649500D01*
X69300419Y-100679608D01*
X69300411Y-100679611D01*
X69178495Y-100738323D01*
X69072694Y-100822694D01*
X68988323Y-100928495D01*
X68929611Y-101050411D01*
X68929608Y-101050419D01*
X68899500Y-101182333D01*
X68899500Y-114717666D01*
X66300500Y-114717666D01*
X66300500Y-98531600D01*
X84370500Y-98531600D01*
X84403853Y-98742180D01*
X84403853Y-98742183D01*
X84469734Y-98944944D01*
X84469736Y-98944947D01*
X84566528Y-99134913D01*
X84691846Y-99307397D01*
X84842603Y-99458154D01*
X85015087Y-99583472D01*
X85205053Y-99680264D01*
X85205055Y-99680265D01*
X85394182Y-99741715D01*
X85407821Y-99746147D01*
X85618399Y-99779500D01*
X85618400Y-99779500D01*
X85831600Y-99779500D01*
X85831601Y-99779500D01*
X86042179Y-99746147D01*
X86042182Y-99746146D01*
X86042183Y-99746146D01*
X86244944Y-99680265D01*
X86244944Y-99680264D01*
X86244947Y-99680264D01*
X86434913Y-99583472D01*
X86607397Y-99458154D01*
X86758154Y-99307397D01*
X86883472Y-99134913D01*
X86980264Y-98944947D01*
X87046147Y-98742179D01*
X87079500Y-98531601D01*
X87079500Y-98531600D01*
X160570500Y-98531600D01*
X160603853Y-98742180D01*
X160603853Y-98742183D01*
X160669734Y-98944944D01*
X160669736Y-98944947D01*
X160766528Y-99134913D01*
X160891846Y-99307397D01*
X161042603Y-99458154D01*
X161215087Y-99583472D01*
X161405053Y-99680264D01*
X161405055Y-99680265D01*
X161594182Y-99741715D01*
X161607821Y-99746147D01*
X161818399Y-99779500D01*
X161818400Y-99779500D01*
X162031600Y-99779500D01*
X162031601Y-99779500D01*
X162242179Y-99746147D01*
X162242182Y-99746146D01*
X162242183Y-99746146D01*
X162444944Y-99680265D01*
X162444944Y-99680264D01*
X162444947Y-99680264D01*
X162634913Y-99583472D01*
X162807397Y-99458154D01*
X162958154Y-99307397D01*
X163083472Y-99134913D01*
X163180264Y-98944947D01*
X163246147Y-98742179D01*
X163279500Y-98531601D01*
X163279500Y-98531600D01*
X236745500Y-98531600D01*
X236778853Y-98742180D01*
X236778853Y-98742183D01*
X236844734Y-98944944D01*
X236844736Y-98944947D01*
X236941528Y-99134913D01*
X237066846Y-99307397D01*
X237217603Y-99458154D01*
X237390087Y-99583472D01*
X237580053Y-99680264D01*
X237580055Y-99680265D01*
X237769182Y-99741715D01*
X237782821Y-99746147D01*
X237993399Y-99779500D01*
X237993400Y-99779500D01*
X238206600Y-99779500D01*
X238206601Y-99779500D01*
X238417179Y-99746147D01*
X238417182Y-99746146D01*
X238417183Y-99746146D01*
X238619944Y-99680265D01*
X238619944Y-99680264D01*
X238619947Y-99680264D01*
X238809913Y-99583472D01*
X238982397Y-99458154D01*
X239133154Y-99307397D01*
X239258472Y-99134913D01*
X239355264Y-98944947D01*
X239421147Y-98742179D01*
X239454500Y-98531601D01*
X239454500Y-98506600D01*
X316745500Y-98506600D01*
X316778853Y-98717180D01*
X316778853Y-98717183D01*
X316844734Y-98919944D01*
X316844736Y-98919947D01*
X316941528Y-99109913D01*
X317066846Y-99282397D01*
X317217603Y-99433154D01*
X317390087Y-99558472D01*
X317580053Y-99655264D01*
X317580055Y-99655265D01*
X317769182Y-99716715D01*
X317782821Y-99721147D01*
X317993399Y-99754500D01*
X317993400Y-99754500D01*
X318206600Y-99754500D01*
X318206601Y-99754500D01*
X318417179Y-99721147D01*
X318417182Y-99721146D01*
X318417183Y-99721146D01*
X318619944Y-99655265D01*
X318619944Y-99655264D01*
X318619947Y-99655264D01*
X318809913Y-99558472D01*
X318982397Y-99433154D01*
X319133154Y-99282397D01*
X319258472Y-99109913D01*
X319355264Y-98919947D01*
X319421147Y-98717179D01*
X319450540Y-98531600D01*
X358690500Y-98531600D01*
X358723853Y-98742180D01*
X358723853Y-98742183D01*
X358789734Y-98944944D01*
X358789736Y-98944947D01*
X358886528Y-99134913D01*
X359011846Y-99307397D01*
X359162603Y-99458154D01*
X359335087Y-99583472D01*
X359525053Y-99680264D01*
X359525055Y-99680265D01*
X359714182Y-99741715D01*
X359727821Y-99746147D01*
X359938399Y-99779500D01*
X359938400Y-99779500D01*
X360151600Y-99779500D01*
X360151601Y-99779500D01*
X360362179Y-99746147D01*
X360362182Y-99746146D01*
X360362183Y-99746146D01*
X360564944Y-99680265D01*
X360564944Y-99680264D01*
X360564947Y-99680264D01*
X360754913Y-99583472D01*
X360927397Y-99458154D01*
X361078154Y-99307397D01*
X361203472Y-99134913D01*
X361300264Y-98944947D01*
X361366147Y-98742179D01*
X361399500Y-98531601D01*
X361399500Y-98318399D01*
X361366147Y-98107821D01*
X361366146Y-98107817D01*
X361366146Y-98107816D01*
X361300265Y-97905055D01*
X361300263Y-97905052D01*
X361287527Y-97880055D01*
X361203472Y-97715087D01*
X361078154Y-97542603D01*
X360927397Y-97391846D01*
X360754913Y-97266528D01*
X360564947Y-97169736D01*
X360564944Y-97169734D01*
X360362181Y-97103853D01*
X360221793Y-97081617D01*
X360151601Y-97070500D01*
X359938399Y-97070500D01*
X359868206Y-97081617D01*
X359727819Y-97103853D01*
X359727816Y-97103853D01*
X359525055Y-97169734D01*
X359525052Y-97169736D01*
X359335086Y-97266528D01*
X359162601Y-97391847D01*
X359011847Y-97542601D01*
X358886528Y-97715086D01*
X358789736Y-97905052D01*
X358789734Y-97905055D01*
X358723853Y-98107816D01*
X358723853Y-98107819D01*
X358690500Y-98318399D01*
X358690500Y-98531600D01*
X319450540Y-98531600D01*
X319454500Y-98506601D01*
X319454500Y-98293399D01*
X319421147Y-98082821D01*
X319421146Y-98082817D01*
X319421146Y-98082816D01*
X319355265Y-97880055D01*
X319355263Y-97880052D01*
X319271210Y-97715086D01*
X319258472Y-97690087D01*
X319133154Y-97517603D01*
X318982397Y-97366846D01*
X318809913Y-97241528D01*
X318619947Y-97144736D01*
X318619944Y-97144734D01*
X318417181Y-97078853D01*
X318276793Y-97056617D01*
X318206601Y-97045500D01*
X317993399Y-97045500D01*
X317923206Y-97056617D01*
X317782819Y-97078853D01*
X317782816Y-97078853D01*
X317580055Y-97144734D01*
X317580052Y-97144736D01*
X317390086Y-97241528D01*
X317217601Y-97366847D01*
X317066847Y-97517601D01*
X316941528Y-97690086D01*
X316844736Y-97880052D01*
X316844734Y-97880055D01*
X316778853Y-98082816D01*
X316778853Y-98082819D01*
X316745500Y-98293399D01*
X316745500Y-98506600D01*
X239454500Y-98506600D01*
X239454500Y-98318399D01*
X239421147Y-98107821D01*
X239421146Y-98107817D01*
X239421146Y-98107816D01*
X239355265Y-97905055D01*
X239355263Y-97905052D01*
X239342527Y-97880055D01*
X239258472Y-97715087D01*
X239133154Y-97542603D01*
X238982397Y-97391846D01*
X238809913Y-97266528D01*
X238619947Y-97169736D01*
X238619944Y-97169734D01*
X238417181Y-97103853D01*
X238276793Y-97081617D01*
X238206601Y-97070500D01*
X237993399Y-97070500D01*
X237923206Y-97081617D01*
X237782819Y-97103853D01*
X237782816Y-97103853D01*
X237580055Y-97169734D01*
X237580052Y-97169736D01*
X237390086Y-97266528D01*
X237217601Y-97391847D01*
X237066847Y-97542601D01*
X236941528Y-97715086D01*
X236844736Y-97905052D01*
X236844734Y-97905055D01*
X236778853Y-98107816D01*
X236778853Y-98107819D01*
X236745500Y-98318399D01*
X236745500Y-98531600D01*
X163279500Y-98531600D01*
X163279500Y-98318399D01*
X163246147Y-98107821D01*
X163246146Y-98107817D01*
X163246146Y-98107816D01*
X163180265Y-97905055D01*
X163180263Y-97905052D01*
X163167527Y-97880055D01*
X163083472Y-97715087D01*
X162958154Y-97542603D01*
X162807397Y-97391846D01*
X162634913Y-97266528D01*
X162444947Y-97169736D01*
X162444944Y-97169734D01*
X162242181Y-97103853D01*
X162101793Y-97081617D01*
X162031601Y-97070500D01*
X161818399Y-97070500D01*
X161748206Y-97081617D01*
X161607819Y-97103853D01*
X161607816Y-97103853D01*
X161405055Y-97169734D01*
X161405052Y-97169736D01*
X161215086Y-97266528D01*
X161042601Y-97391847D01*
X160891847Y-97542601D01*
X160766528Y-97715086D01*
X160669736Y-97905052D01*
X160669734Y-97905055D01*
X160603853Y-98107816D01*
X160603853Y-98107819D01*
X160570500Y-98318399D01*
X160570500Y-98531600D01*
X87079500Y-98531600D01*
X87079500Y-98318399D01*
X87046147Y-98107821D01*
X87046146Y-98107817D01*
X87046146Y-98107816D01*
X86980265Y-97905055D01*
X86980263Y-97905052D01*
X86967527Y-97880055D01*
X86883472Y-97715087D01*
X86758154Y-97542603D01*
X86607397Y-97391846D01*
X86434913Y-97266528D01*
X86244947Y-97169736D01*
X86244944Y-97169734D01*
X86042181Y-97103853D01*
X85901793Y-97081617D01*
X85831601Y-97070500D01*
X85618399Y-97070500D01*
X85548206Y-97081617D01*
X85407819Y-97103853D01*
X85407816Y-97103853D01*
X85205055Y-97169734D01*
X85205052Y-97169736D01*
X85015086Y-97266528D01*
X84842601Y-97391847D01*
X84691847Y-97542601D01*
X84566528Y-97715086D01*
X84469736Y-97905052D01*
X84469734Y-97905055D01*
X84403853Y-98107816D01*
X84403853Y-98107819D01*
X84370500Y-98318399D01*
X84370500Y-98531600D01*
X66300500Y-98531600D01*
X66300500Y-95667666D01*
X68899500Y-95667666D01*
X68929608Y-95799580D01*
X68929611Y-95799588D01*
X68988323Y-95921504D01*
X69072694Y-96027305D01*
X69133289Y-96075626D01*
X69178493Y-96111675D01*
X69300412Y-96170389D01*
X69300416Y-96170389D01*
X69300419Y-96170391D01*
X69432333Y-96200499D01*
X69432338Y-96200499D01*
X69432340Y-96200500D01*
X69432342Y-96200500D01*
X82967658Y-96200500D01*
X82967660Y-96200500D01*
X82967662Y-96200499D01*
X82967666Y-96200499D01*
X83099580Y-96170391D01*
X83099581Y-96170390D01*
X83099588Y-96170389D01*
X83221507Y-96111675D01*
X83327305Y-96027305D01*
X83411675Y-95921507D01*
X83470389Y-95799588D01*
X83500499Y-95667666D01*
X87949500Y-95667666D01*
X87979608Y-95799580D01*
X87979611Y-95799588D01*
X88038323Y-95921504D01*
X88122694Y-96027305D01*
X88183289Y-96075626D01*
X88228493Y-96111675D01*
X88350412Y-96170389D01*
X88350416Y-96170389D01*
X88350419Y-96170391D01*
X88482333Y-96200499D01*
X88482338Y-96200499D01*
X88482340Y-96200500D01*
X88482342Y-96200500D01*
X102017658Y-96200500D01*
X102017660Y-96200500D01*
X102017662Y-96200499D01*
X102017666Y-96200499D01*
X102149580Y-96170391D01*
X102149581Y-96170390D01*
X102149588Y-96170389D01*
X102271507Y-96111675D01*
X102377305Y-96027305D01*
X102461675Y-95921507D01*
X102520389Y-95799588D01*
X102550499Y-95667666D01*
X106999500Y-95667666D01*
X107029608Y-95799580D01*
X107029611Y-95799588D01*
X107088323Y-95921504D01*
X107172694Y-96027305D01*
X107233289Y-96075626D01*
X107278493Y-96111675D01*
X107400412Y-96170389D01*
X107400416Y-96170389D01*
X107400419Y-96170391D01*
X107532333Y-96200499D01*
X107532338Y-96200499D01*
X107532340Y-96200500D01*
X107532342Y-96200500D01*
X121067658Y-96200500D01*
X121067660Y-96200500D01*
X121067662Y-96200499D01*
X121067666Y-96200499D01*
X121199580Y-96170391D01*
X121199581Y-96170390D01*
X121199588Y-96170389D01*
X121321507Y-96111675D01*
X121427305Y-96027305D01*
X121511675Y-95921507D01*
X121570389Y-95799588D01*
X121600499Y-95667666D01*
X126049500Y-95667666D01*
X126079608Y-95799580D01*
X126079611Y-95799588D01*
X126138323Y-95921504D01*
X126222694Y-96027305D01*
X126283289Y-96075626D01*
X126328493Y-96111675D01*
X126450412Y-96170389D01*
X126450416Y-96170389D01*
X126450419Y-96170391D01*
X126582333Y-96200499D01*
X126582338Y-96200499D01*
X126582340Y-96200500D01*
X126582342Y-96200500D01*
X140117658Y-96200500D01*
X140117660Y-96200500D01*
X140117662Y-96200499D01*
X140117666Y-96200499D01*
X140249580Y-96170391D01*
X140249581Y-96170390D01*
X140249588Y-96170389D01*
X140371507Y-96111675D01*
X140477305Y-96027305D01*
X140561675Y-95921507D01*
X140620389Y-95799588D01*
X140650499Y-95667666D01*
X145099500Y-95667666D01*
X145129608Y-95799580D01*
X145129611Y-95799588D01*
X145188323Y-95921504D01*
X145272694Y-96027305D01*
X145333289Y-96075626D01*
X145378493Y-96111675D01*
X145500412Y-96170389D01*
X145500416Y-96170389D01*
X145500419Y-96170391D01*
X145632333Y-96200499D01*
X145632338Y-96200499D01*
X145632340Y-96200500D01*
X145632342Y-96200500D01*
X159167658Y-96200500D01*
X159167660Y-96200500D01*
X159167662Y-96200499D01*
X159167666Y-96200499D01*
X159299580Y-96170391D01*
X159299581Y-96170390D01*
X159299588Y-96170389D01*
X159421507Y-96111675D01*
X159527305Y-96027305D01*
X159611675Y-95921507D01*
X159670389Y-95799588D01*
X159700499Y-95667666D01*
X164149500Y-95667666D01*
X164179608Y-95799580D01*
X164179611Y-95799588D01*
X164238323Y-95921504D01*
X164322694Y-96027305D01*
X164383289Y-96075626D01*
X164428493Y-96111675D01*
X164550412Y-96170389D01*
X164550416Y-96170389D01*
X164550419Y-96170391D01*
X164682333Y-96200499D01*
X164682338Y-96200499D01*
X164682340Y-96200500D01*
X164682342Y-96200500D01*
X178217658Y-96200500D01*
X178217660Y-96200500D01*
X178217662Y-96200499D01*
X178217666Y-96200499D01*
X178349580Y-96170391D01*
X178349581Y-96170390D01*
X178349588Y-96170389D01*
X178471507Y-96111675D01*
X178577305Y-96027305D01*
X178661675Y-95921507D01*
X178720389Y-95799588D01*
X178750499Y-95667666D01*
X183199500Y-95667666D01*
X183229608Y-95799580D01*
X183229611Y-95799588D01*
X183288323Y-95921504D01*
X183372694Y-96027305D01*
X183433289Y-96075626D01*
X183478493Y-96111675D01*
X183600412Y-96170389D01*
X183600416Y-96170389D01*
X183600419Y-96170391D01*
X183732333Y-96200499D01*
X183732338Y-96200499D01*
X183732340Y-96200500D01*
X183732342Y-96200500D01*
X197267658Y-96200500D01*
X197267660Y-96200500D01*
X197267662Y-96200499D01*
X197267666Y-96200499D01*
X197399580Y-96170391D01*
X197399581Y-96170390D01*
X197399588Y-96170389D01*
X197521507Y-96111675D01*
X197627305Y-96027305D01*
X197711675Y-95921507D01*
X197770389Y-95799588D01*
X197800499Y-95667666D01*
X202249500Y-95667666D01*
X202279608Y-95799580D01*
X202279611Y-95799588D01*
X202338323Y-95921504D01*
X202422694Y-96027305D01*
X202483289Y-96075626D01*
X202528493Y-96111675D01*
X202650412Y-96170389D01*
X202650416Y-96170389D01*
X202650419Y-96170391D01*
X202782333Y-96200499D01*
X202782338Y-96200499D01*
X202782340Y-96200500D01*
X202782342Y-96200500D01*
X216317658Y-96200500D01*
X216317660Y-96200500D01*
X216317662Y-96200499D01*
X216317666Y-96200499D01*
X216449580Y-96170391D01*
X216449581Y-96170390D01*
X216449588Y-96170389D01*
X216571507Y-96111675D01*
X216677305Y-96027305D01*
X216761675Y-95921507D01*
X216820389Y-95799588D01*
X216850499Y-95667666D01*
X221299500Y-95667666D01*
X221329608Y-95799580D01*
X221329611Y-95799588D01*
X221388323Y-95921504D01*
X221472694Y-96027305D01*
X221533289Y-96075626D01*
X221578493Y-96111675D01*
X221700412Y-96170389D01*
X221700416Y-96170389D01*
X221700419Y-96170391D01*
X221832333Y-96200499D01*
X221832338Y-96200499D01*
X221832340Y-96200500D01*
X221832342Y-96200500D01*
X235367658Y-96200500D01*
X235367660Y-96200500D01*
X235367662Y-96200499D01*
X235367666Y-96200499D01*
X235499580Y-96170391D01*
X235499581Y-96170390D01*
X235499588Y-96170389D01*
X235621507Y-96111675D01*
X235727305Y-96027305D01*
X235811675Y-95921507D01*
X235870389Y-95799588D01*
X235900499Y-95667666D01*
X240349500Y-95667666D01*
X240379608Y-95799580D01*
X240379611Y-95799588D01*
X240438323Y-95921504D01*
X240522694Y-96027305D01*
X240583289Y-96075626D01*
X240628493Y-96111675D01*
X240750412Y-96170389D01*
X240750416Y-96170389D01*
X240750419Y-96170391D01*
X240882333Y-96200499D01*
X240882338Y-96200499D01*
X240882340Y-96200500D01*
X240882342Y-96200500D01*
X254417658Y-96200500D01*
X254417660Y-96200500D01*
X254417662Y-96200499D01*
X254417666Y-96200499D01*
X254549580Y-96170391D01*
X254549581Y-96170390D01*
X254549588Y-96170389D01*
X254671507Y-96111675D01*
X254777305Y-96027305D01*
X254861675Y-95921507D01*
X254920389Y-95799588D01*
X254950499Y-95667666D01*
X259399500Y-95667666D01*
X259429608Y-95799580D01*
X259429611Y-95799588D01*
X259488323Y-95921504D01*
X259572694Y-96027305D01*
X259633289Y-96075626D01*
X259678493Y-96111675D01*
X259800412Y-96170389D01*
X259800416Y-96170389D01*
X259800419Y-96170391D01*
X259932333Y-96200499D01*
X259932338Y-96200499D01*
X259932340Y-96200500D01*
X259932342Y-96200500D01*
X273467658Y-96200500D01*
X273467660Y-96200500D01*
X273467662Y-96200499D01*
X273467666Y-96200499D01*
X273599580Y-96170391D01*
X273599581Y-96170390D01*
X273599588Y-96170389D01*
X273721507Y-96111675D01*
X273827305Y-96027305D01*
X273911675Y-95921507D01*
X273970389Y-95799588D01*
X274000499Y-95667666D01*
X278449500Y-95667666D01*
X278479608Y-95799580D01*
X278479611Y-95799588D01*
X278538323Y-95921504D01*
X278622694Y-96027305D01*
X278683289Y-96075626D01*
X278728493Y-96111675D01*
X278850412Y-96170389D01*
X278850416Y-96170389D01*
X278850419Y-96170391D01*
X278982333Y-96200499D01*
X278982338Y-96200499D01*
X278982340Y-96200500D01*
X278982342Y-96200500D01*
X292517658Y-96200500D01*
X292517660Y-96200500D01*
X292517662Y-96200499D01*
X292517666Y-96200499D01*
X292649580Y-96170391D01*
X292649581Y-96170390D01*
X292649588Y-96170389D01*
X292771507Y-96111675D01*
X292877305Y-96027305D01*
X292961675Y-95921507D01*
X293020389Y-95799588D01*
X293050499Y-95667666D01*
X297499500Y-95667666D01*
X297529608Y-95799580D01*
X297529611Y-95799588D01*
X297588323Y-95921504D01*
X297672694Y-96027305D01*
X297733289Y-96075626D01*
X297778493Y-96111675D01*
X297900412Y-96170389D01*
X297900416Y-96170389D01*
X297900419Y-96170391D01*
X298032333Y-96200499D01*
X298032338Y-96200499D01*
X298032340Y-96200500D01*
X298032342Y-96200500D01*
X311567658Y-96200500D01*
X311567660Y-96200500D01*
X311567662Y-96200499D01*
X311567666Y-96200499D01*
X311699580Y-96170391D01*
X311699581Y-96170390D01*
X311699588Y-96170389D01*
X311821507Y-96111675D01*
X311927305Y-96027305D01*
X312011675Y-95921507D01*
X312070389Y-95799588D01*
X312100499Y-95667666D01*
X324169500Y-95667666D01*
X324199608Y-95799580D01*
X324199611Y-95799588D01*
X324258323Y-95921504D01*
X324342694Y-96027305D01*
X324403289Y-96075626D01*
X324448493Y-96111675D01*
X324570412Y-96170389D01*
X324570416Y-96170389D01*
X324570419Y-96170391D01*
X324702333Y-96200499D01*
X324702338Y-96200499D01*
X324702340Y-96200500D01*
X324702342Y-96200500D01*
X338237658Y-96200500D01*
X338237660Y-96200500D01*
X338237662Y-96200499D01*
X338237666Y-96200499D01*
X338369580Y-96170391D01*
X338369581Y-96170390D01*
X338369588Y-96170389D01*
X338491507Y-96111675D01*
X338597305Y-96027305D01*
X338681675Y-95921507D01*
X338740389Y-95799588D01*
X338770499Y-95667666D01*
X343219500Y-95667666D01*
X343249608Y-95799580D01*
X343249611Y-95799588D01*
X343308323Y-95921504D01*
X343392694Y-96027305D01*
X343453289Y-96075626D01*
X343498493Y-96111675D01*
X343620412Y-96170389D01*
X343620416Y-96170389D01*
X343620419Y-96170391D01*
X343752333Y-96200499D01*
X343752338Y-96200499D01*
X343752340Y-96200500D01*
X343752342Y-96200500D01*
X357287658Y-96200500D01*
X357287660Y-96200500D01*
X357287662Y-96200499D01*
X357287666Y-96200499D01*
X357419580Y-96170391D01*
X357419581Y-96170390D01*
X357419588Y-96170389D01*
X357541507Y-96111675D01*
X357647305Y-96027305D01*
X357731675Y-95921507D01*
X357790389Y-95799588D01*
X357820499Y-95667666D01*
X362269500Y-95667666D01*
X362299608Y-95799580D01*
X362299611Y-95799588D01*
X362358323Y-95921504D01*
X362442694Y-96027305D01*
X362503289Y-96075626D01*
X362548493Y-96111675D01*
X362670412Y-96170389D01*
X362670416Y-96170389D01*
X362670419Y-96170391D01*
X362802333Y-96200499D01*
X362802338Y-96200499D01*
X362802340Y-96200500D01*
X362802342Y-96200500D01*
X376337658Y-96200500D01*
X376337660Y-96200500D01*
X376337662Y-96200499D01*
X376337666Y-96200499D01*
X376469580Y-96170391D01*
X376469581Y-96170390D01*
X376469588Y-96170389D01*
X376591507Y-96111675D01*
X376697305Y-96027305D01*
X376781675Y-95921507D01*
X376840389Y-95799588D01*
X376870500Y-95667660D01*
X376870500Y-95600000D01*
X376870500Y-95552405D01*
X376870500Y-82160438D01*
X376870500Y-82132340D01*
X376870499Y-82132338D01*
X376870499Y-82132333D01*
X376840391Y-82000419D01*
X376840389Y-82000416D01*
X376840389Y-82000412D01*
X376781675Y-81878493D01*
X376745626Y-81833289D01*
X376697305Y-81772694D01*
X376591504Y-81688323D01*
X376469588Y-81629611D01*
X376469580Y-81629608D01*
X376337666Y-81599500D01*
X376337660Y-81599500D01*
X376309562Y-81599500D01*
X362917595Y-81599500D01*
X362870000Y-81599500D01*
X362802340Y-81599500D01*
X362802333Y-81599500D01*
X362670419Y-81629608D01*
X362670411Y-81629611D01*
X362548495Y-81688323D01*
X362442694Y-81772694D01*
X362358323Y-81878495D01*
X362299611Y-82000411D01*
X362299608Y-82000419D01*
X362269500Y-82132333D01*
X362269500Y-95667666D01*
X357820499Y-95667666D01*
X357820500Y-95667660D01*
X357820500Y-95600000D01*
X357820500Y-95552405D01*
X357820500Y-82160438D01*
X357820500Y-82132340D01*
X357820499Y-82132338D01*
X357820499Y-82132333D01*
X357790391Y-82000419D01*
X357790389Y-82000416D01*
X357790389Y-82000412D01*
X357731675Y-81878493D01*
X357695626Y-81833289D01*
X357647305Y-81772694D01*
X357541504Y-81688323D01*
X357419588Y-81629611D01*
X357419580Y-81629608D01*
X357287666Y-81599500D01*
X357287660Y-81599500D01*
X357259562Y-81599500D01*
X343867595Y-81599500D01*
X343820000Y-81599500D01*
X343752340Y-81599500D01*
X343752333Y-81599500D01*
X343620419Y-81629608D01*
X343620411Y-81629611D01*
X343498495Y-81688323D01*
X343392694Y-81772694D01*
X343308323Y-81878495D01*
X343249611Y-82000411D01*
X343249608Y-82000419D01*
X343219500Y-82132333D01*
X343219500Y-95667666D01*
X338770499Y-95667666D01*
X338770500Y-95667660D01*
X338770500Y-95600000D01*
X338770500Y-95552405D01*
X338770500Y-93288695D01*
X340099500Y-93288695D01*
X340134103Y-93462658D01*
X340134106Y-93462667D01*
X340201983Y-93626540D01*
X340201990Y-93626553D01*
X340300535Y-93774034D01*
X340300538Y-93774038D01*
X340425961Y-93899461D01*
X340425965Y-93899464D01*
X340573446Y-93998009D01*
X340573459Y-93998016D01*
X340696363Y-94048923D01*
X340737334Y-94065894D01*
X340737336Y-94065894D01*
X340737341Y-94065896D01*
X340911304Y-94100499D01*
X340911307Y-94100500D01*
X340911309Y-94100500D01*
X341088693Y-94100500D01*
X341088694Y-94100499D01*
X341146682Y-94088964D01*
X341262658Y-94065896D01*
X341262661Y-94065894D01*
X341262666Y-94065894D01*
X341426547Y-93998013D01*
X341574035Y-93899464D01*
X341699464Y-93774035D01*
X341798013Y-93626547D01*
X341865894Y-93462666D01*
X341900500Y-93288691D01*
X341900500Y-93200000D01*
X341900500Y-93152405D01*
X341900500Y-84560438D01*
X341900500Y-84511309D01*
X341900500Y-84511306D01*
X341900499Y-84511304D01*
X341865896Y-84337341D01*
X341865893Y-84337332D01*
X341798016Y-84173459D01*
X341798009Y-84173446D01*
X341699464Y-84025965D01*
X341699461Y-84025961D01*
X341574038Y-83900538D01*
X341574034Y-83900535D01*
X341426553Y-83801990D01*
X341426540Y-83801983D01*
X341262667Y-83734106D01*
X341262658Y-83734103D01*
X341088694Y-83699500D01*
X341088691Y-83699500D01*
X341047595Y-83699500D01*
X341000000Y-83699500D01*
X340911309Y-83699500D01*
X340911306Y-83699500D01*
X340737341Y-83734103D01*
X340737332Y-83734106D01*
X340573459Y-83801983D01*
X340573446Y-83801990D01*
X340425965Y-83900535D01*
X340425961Y-83900538D01*
X340300538Y-84025961D01*
X340300535Y-84025965D01*
X340201990Y-84173446D01*
X340201983Y-84173459D01*
X340134106Y-84337332D01*
X340134103Y-84337341D01*
X340099500Y-84511304D01*
X340099500Y-93288695D01*
X338770500Y-93288695D01*
X338770500Y-82160438D01*
X338770500Y-82132340D01*
X338770499Y-82132338D01*
X338770499Y-82132333D01*
X338740391Y-82000419D01*
X338740389Y-82000416D01*
X338740389Y-82000412D01*
X338681675Y-81878493D01*
X338645626Y-81833289D01*
X338597305Y-81772694D01*
X338491504Y-81688323D01*
X338369588Y-81629611D01*
X338369580Y-81629608D01*
X338237666Y-81599500D01*
X338237660Y-81599500D01*
X338209562Y-81599500D01*
X324817595Y-81599500D01*
X324770000Y-81599500D01*
X324702340Y-81599500D01*
X324702333Y-81599500D01*
X324570419Y-81629608D01*
X324570411Y-81629611D01*
X324448495Y-81688323D01*
X324342694Y-81772694D01*
X324258323Y-81878495D01*
X324199611Y-82000411D01*
X324199608Y-82000419D01*
X324169500Y-82132333D01*
X324169500Y-95667666D01*
X312100499Y-95667666D01*
X312100500Y-95667660D01*
X312100500Y-95600000D01*
X312100500Y-95552405D01*
X312100500Y-82160438D01*
X312100500Y-82132340D01*
X312100499Y-82132338D01*
X312100499Y-82132333D01*
X312070391Y-82000419D01*
X312070389Y-82000416D01*
X312070389Y-82000412D01*
X312011675Y-81878493D01*
X311975626Y-81833289D01*
X311927305Y-81772694D01*
X311821504Y-81688323D01*
X311699588Y-81629611D01*
X311699580Y-81629608D01*
X311567666Y-81599500D01*
X311567660Y-81599500D01*
X311539562Y-81599500D01*
X298147595Y-81599500D01*
X298100000Y-81599500D01*
X298032340Y-81599500D01*
X298032333Y-81599500D01*
X297900419Y-81629608D01*
X297900411Y-81629611D01*
X297778495Y-81688323D01*
X297672694Y-81772694D01*
X297588323Y-81878495D01*
X297529611Y-82000411D01*
X297529608Y-82000419D01*
X297499500Y-82132333D01*
X297499500Y-95667666D01*
X293050499Y-95667666D01*
X293050500Y-95667660D01*
X293050500Y-95600000D01*
X293050500Y-95552405D01*
X293050500Y-82160438D01*
X293050500Y-82132340D01*
X293050499Y-82132338D01*
X293050499Y-82132333D01*
X293020391Y-82000419D01*
X293020389Y-82000416D01*
X293020389Y-82000412D01*
X292961675Y-81878493D01*
X292925626Y-81833289D01*
X292877305Y-81772694D01*
X292771504Y-81688323D01*
X292649588Y-81629611D01*
X292649580Y-81629608D01*
X292517666Y-81599500D01*
X292517660Y-81599500D01*
X292489562Y-81599500D01*
X279097595Y-81599500D01*
X279050000Y-81599500D01*
X278982340Y-81599500D01*
X278982333Y-81599500D01*
X278850419Y-81629608D01*
X278850411Y-81629611D01*
X278728495Y-81688323D01*
X278622694Y-81772694D01*
X278538323Y-81878495D01*
X278479611Y-82000411D01*
X278479608Y-82000419D01*
X278449500Y-82132333D01*
X278449500Y-95667666D01*
X274000499Y-95667666D01*
X274000500Y-95667660D01*
X274000500Y-95600000D01*
X274000500Y-95552405D01*
X274000500Y-82160438D01*
X274000500Y-82132340D01*
X274000499Y-82132338D01*
X274000499Y-82132333D01*
X273970391Y-82000419D01*
X273970389Y-82000416D01*
X273970389Y-82000412D01*
X273911675Y-81878493D01*
X273875626Y-81833289D01*
X273827305Y-81772694D01*
X273721504Y-81688323D01*
X273599588Y-81629611D01*
X273599580Y-81629608D01*
X273467666Y-81599500D01*
X273467660Y-81599500D01*
X273439562Y-81599500D01*
X260047595Y-81599500D01*
X260000000Y-81599500D01*
X259932340Y-81599500D01*
X259932333Y-81599500D01*
X259800419Y-81629608D01*
X259800411Y-81629611D01*
X259678495Y-81688323D01*
X259572694Y-81772694D01*
X259488323Y-81878495D01*
X259429611Y-82000411D01*
X259429608Y-82000419D01*
X259399500Y-82132333D01*
X259399500Y-95667666D01*
X254950499Y-95667666D01*
X254950500Y-95667660D01*
X254950500Y-95600000D01*
X254950500Y-95552405D01*
X254950500Y-82160438D01*
X254950500Y-82132340D01*
X254950499Y-82132338D01*
X254950499Y-82132333D01*
X254920391Y-82000419D01*
X254920389Y-82000416D01*
X254920389Y-82000412D01*
X254861675Y-81878493D01*
X254825626Y-81833289D01*
X254777305Y-81772694D01*
X254671504Y-81688323D01*
X254549588Y-81629611D01*
X254549580Y-81629608D01*
X254417666Y-81599500D01*
X254417660Y-81599500D01*
X254389562Y-81599500D01*
X240997595Y-81599500D01*
X240950000Y-81599500D01*
X240882340Y-81599500D01*
X240882333Y-81599500D01*
X240750419Y-81629608D01*
X240750411Y-81629611D01*
X240628495Y-81688323D01*
X240522694Y-81772694D01*
X240438323Y-81878495D01*
X240379611Y-82000411D01*
X240379608Y-82000419D01*
X240349500Y-82132333D01*
X240349500Y-95667666D01*
X235900499Y-95667666D01*
X235900500Y-95667660D01*
X235900500Y-95600000D01*
X235900500Y-95552405D01*
X235900500Y-82160438D01*
X235900500Y-82132340D01*
X235900499Y-82132338D01*
X235900499Y-82132333D01*
X235870391Y-82000419D01*
X235870389Y-82000416D01*
X235870389Y-82000412D01*
X235811675Y-81878493D01*
X235775626Y-81833289D01*
X235727305Y-81772694D01*
X235621504Y-81688323D01*
X235499588Y-81629611D01*
X235499580Y-81629608D01*
X235367666Y-81599500D01*
X235367660Y-81599500D01*
X235339562Y-81599500D01*
X221947595Y-81599500D01*
X221900000Y-81599500D01*
X221832340Y-81599500D01*
X221832333Y-81599500D01*
X221700419Y-81629608D01*
X221700411Y-81629611D01*
X221578495Y-81688323D01*
X221472694Y-81772694D01*
X221388323Y-81878495D01*
X221329611Y-82000411D01*
X221329608Y-82000419D01*
X221299500Y-82132333D01*
X221299500Y-95667666D01*
X216850499Y-95667666D01*
X216850500Y-95667660D01*
X216850500Y-95600000D01*
X216850500Y-95552405D01*
X216850500Y-82160438D01*
X216850500Y-82132340D01*
X216850499Y-82132338D01*
X216850499Y-82132333D01*
X216820391Y-82000419D01*
X216820389Y-82000416D01*
X216820389Y-82000412D01*
X216761675Y-81878493D01*
X216725626Y-81833289D01*
X216677305Y-81772694D01*
X216571504Y-81688323D01*
X216449588Y-81629611D01*
X216449580Y-81629608D01*
X216317666Y-81599500D01*
X216317660Y-81599500D01*
X216289562Y-81599500D01*
X202897595Y-81599500D01*
X202850000Y-81599500D01*
X202782340Y-81599500D01*
X202782333Y-81599500D01*
X202650419Y-81629608D01*
X202650411Y-81629611D01*
X202528495Y-81688323D01*
X202422694Y-81772694D01*
X202338323Y-81878495D01*
X202279611Y-82000411D01*
X202279608Y-82000419D01*
X202249500Y-82132333D01*
X202249500Y-95667666D01*
X197800499Y-95667666D01*
X197800500Y-95667660D01*
X197800500Y-95600000D01*
X197800500Y-95552405D01*
X197800500Y-82160438D01*
X197800500Y-82132340D01*
X197800499Y-82132338D01*
X197800499Y-82132333D01*
X197770391Y-82000419D01*
X197770389Y-82000416D01*
X197770389Y-82000412D01*
X197711675Y-81878493D01*
X197675626Y-81833289D01*
X197627305Y-81772694D01*
X197521504Y-81688323D01*
X197399588Y-81629611D01*
X197399580Y-81629608D01*
X197267666Y-81599500D01*
X197267660Y-81599500D01*
X197239562Y-81599500D01*
X183847595Y-81599500D01*
X183800000Y-81599500D01*
X183732340Y-81599500D01*
X183732333Y-81599500D01*
X183600419Y-81629608D01*
X183600411Y-81629611D01*
X183478495Y-81688323D01*
X183372694Y-81772694D01*
X183288323Y-81878495D01*
X183229611Y-82000411D01*
X183229608Y-82000419D01*
X183199500Y-82132333D01*
X183199500Y-95667666D01*
X178750499Y-95667666D01*
X178750500Y-95667660D01*
X178750500Y-95600000D01*
X178750500Y-95552405D01*
X178750500Y-82160438D01*
X178750500Y-82132340D01*
X178750499Y-82132338D01*
X178750499Y-82132333D01*
X178720391Y-82000419D01*
X178720389Y-82000416D01*
X178720389Y-82000412D01*
X178661675Y-81878493D01*
X178625626Y-81833289D01*
X178577305Y-81772694D01*
X178471504Y-81688323D01*
X178349588Y-81629611D01*
X178349580Y-81629608D01*
X178217666Y-81599500D01*
X178217660Y-81599500D01*
X178189562Y-81599500D01*
X164797595Y-81599500D01*
X164750000Y-81599500D01*
X164682340Y-81599500D01*
X164682333Y-81599500D01*
X164550419Y-81629608D01*
X164550411Y-81629611D01*
X164428495Y-81688323D01*
X164322694Y-81772694D01*
X164238323Y-81878495D01*
X164179611Y-82000411D01*
X164179608Y-82000419D01*
X164149500Y-82132333D01*
X164149500Y-95667666D01*
X159700499Y-95667666D01*
X159700500Y-95667660D01*
X159700500Y-95600000D01*
X159700500Y-95552405D01*
X159700500Y-82160438D01*
X159700500Y-82132340D01*
X159700499Y-82132338D01*
X159700499Y-82132333D01*
X159670391Y-82000419D01*
X159670389Y-82000416D01*
X159670389Y-82000412D01*
X159611675Y-81878493D01*
X159575626Y-81833289D01*
X159527305Y-81772694D01*
X159421504Y-81688323D01*
X159299588Y-81629611D01*
X159299580Y-81629608D01*
X159167666Y-81599500D01*
X159167660Y-81599500D01*
X159139562Y-81599500D01*
X145747595Y-81599500D01*
X145700000Y-81599500D01*
X145632340Y-81599500D01*
X145632333Y-81599500D01*
X145500419Y-81629608D01*
X145500411Y-81629611D01*
X145378495Y-81688323D01*
X145272694Y-81772694D01*
X145188323Y-81878495D01*
X145129611Y-82000411D01*
X145129608Y-82000419D01*
X145099500Y-82132333D01*
X145099500Y-95667666D01*
X140650499Y-95667666D01*
X140650500Y-95667660D01*
X140650500Y-95600000D01*
X140650500Y-95552405D01*
X140650500Y-82160438D01*
X140650500Y-82132340D01*
X140650499Y-82132338D01*
X140650499Y-82132333D01*
X140620391Y-82000419D01*
X140620389Y-82000416D01*
X140620389Y-82000412D01*
X140561675Y-81878493D01*
X140525626Y-81833289D01*
X140477305Y-81772694D01*
X140371504Y-81688323D01*
X140249588Y-81629611D01*
X140249580Y-81629608D01*
X140117666Y-81599500D01*
X140117660Y-81599500D01*
X140089562Y-81599500D01*
X126697595Y-81599500D01*
X126650000Y-81599500D01*
X126582340Y-81599500D01*
X126582333Y-81599500D01*
X126450419Y-81629608D01*
X126450411Y-81629611D01*
X126328495Y-81688323D01*
X126222694Y-81772694D01*
X126138323Y-81878495D01*
X126079611Y-82000411D01*
X126079608Y-82000419D01*
X126049500Y-82132333D01*
X126049500Y-95667666D01*
X121600499Y-95667666D01*
X121600500Y-95667660D01*
X121600500Y-95600000D01*
X121600500Y-95552405D01*
X121600500Y-82160438D01*
X121600500Y-82132340D01*
X121600499Y-82132338D01*
X121600499Y-82132333D01*
X121570391Y-82000419D01*
X121570389Y-82000416D01*
X121570389Y-82000412D01*
X121511675Y-81878493D01*
X121475626Y-81833289D01*
X121427305Y-81772694D01*
X121321504Y-81688323D01*
X121199588Y-81629611D01*
X121199580Y-81629608D01*
X121067666Y-81599500D01*
X121067660Y-81599500D01*
X121039562Y-81599500D01*
X107647595Y-81599500D01*
X107600000Y-81599500D01*
X107532340Y-81599500D01*
X107532333Y-81599500D01*
X107400419Y-81629608D01*
X107400411Y-81629611D01*
X107278495Y-81688323D01*
X107172694Y-81772694D01*
X107088323Y-81878495D01*
X107029611Y-82000411D01*
X107029608Y-82000419D01*
X106999500Y-82132333D01*
X106999500Y-95667666D01*
X102550499Y-95667666D01*
X102550500Y-95667660D01*
X102550500Y-95600000D01*
X102550500Y-95552405D01*
X102550500Y-82160438D01*
X102550500Y-82132340D01*
X102550499Y-82132338D01*
X102550499Y-82132333D01*
X102520391Y-82000419D01*
X102520389Y-82000416D01*
X102520389Y-82000412D01*
X102461675Y-81878493D01*
X102425626Y-81833289D01*
X102377305Y-81772694D01*
X102271504Y-81688323D01*
X102149588Y-81629611D01*
X102149580Y-81629608D01*
X102017666Y-81599500D01*
X102017660Y-81599500D01*
X101989562Y-81599500D01*
X88597595Y-81599500D01*
X88550000Y-81599500D01*
X88482340Y-81599500D01*
X88482333Y-81599500D01*
X88350419Y-81629608D01*
X88350411Y-81629611D01*
X88228495Y-81688323D01*
X88122694Y-81772694D01*
X88038323Y-81878495D01*
X87979611Y-82000411D01*
X87979608Y-82000419D01*
X87949500Y-82132333D01*
X87949500Y-95667666D01*
X83500499Y-95667666D01*
X83500500Y-95667660D01*
X83500500Y-95600000D01*
X83500500Y-95552405D01*
X83500500Y-82160438D01*
X83500500Y-82132340D01*
X83500499Y-82132338D01*
X83500499Y-82132333D01*
X83470391Y-82000419D01*
X83470389Y-82000416D01*
X83470389Y-82000412D01*
X83411675Y-81878493D01*
X83375626Y-81833289D01*
X83327305Y-81772694D01*
X83221504Y-81688323D01*
X83099588Y-81629611D01*
X83099580Y-81629608D01*
X82967666Y-81599500D01*
X82967660Y-81599500D01*
X82939562Y-81599500D01*
X69547595Y-81599500D01*
X69500000Y-81599500D01*
X69432340Y-81599500D01*
X69432333Y-81599500D01*
X69300419Y-81629608D01*
X69300411Y-81629611D01*
X69178495Y-81688323D01*
X69072694Y-81772694D01*
X68988323Y-81878495D01*
X68929611Y-82000411D01*
X68929608Y-82000419D01*
X68899500Y-82132333D01*
X68899500Y-95667666D01*
X66300500Y-95667666D01*
X66300500Y-79756092D01*
X66301097Y-79743938D01*
X66301097Y-79743937D01*
X66312744Y-79625680D01*
X66317483Y-79601856D01*
X66350203Y-79493990D01*
X66359499Y-79471549D01*
X66412632Y-79372144D01*
X66426133Y-79351940D01*
X66497635Y-79264814D01*
X66514814Y-79247635D01*
X66601942Y-79176131D01*
X66622144Y-79162632D01*
X66721549Y-79109499D01*
X66743990Y-79100203D01*
X66851856Y-79067483D01*
X66875682Y-79062744D01*
X66975730Y-79052890D01*
X66993940Y-79051097D01*
X67006093Y-79050500D01*
X67047595Y-79050500D01*
X339752405Y-79050500D01*
X339790243Y-79050500D01*
X339809640Y-79052027D01*
G37*
G04 #@! TD.AperFunction*
M02*
