G04 #@! TF.GenerationSoftware,KiCad,Pcbnew,8.0.1*
G04 #@! TF.CreationDate,2024-09-01T20:38:41+02:00*
G04 #@! TF.ProjectId,Mimic40_plate,4d696d69-6334-4305-9f70-6c6174652e6b,rev?*
G04 #@! TF.SameCoordinates,Original*
G04 #@! TF.FileFunction,Legend,Bot*
G04 #@! TF.FilePolarity,Positive*
%FSLAX46Y46*%
G04 Gerber Fmt 4.6, Leading zero omitted, Abs format (unit mm)*
G04 Created by KiCad (PCBNEW 8.0.1) date 2024-09-01 20:38:41*
%MOMM*%
%LPD*%
G01*
G04 APERTURE LIST*
%ADD10C,0.150000*%
G04 APERTURE END LIST*
D10*
X288728570Y-139054819D02*
X288728570Y-138388152D01*
X288728570Y-138483390D02*
X288680951Y-138435771D01*
X288680951Y-138435771D02*
X288585713Y-138388152D01*
X288585713Y-138388152D02*
X288442856Y-138388152D01*
X288442856Y-138388152D02*
X288347618Y-138435771D01*
X288347618Y-138435771D02*
X288299999Y-138531009D01*
X288299999Y-138531009D02*
X288299999Y-139054819D01*
X288299999Y-138531009D02*
X288252380Y-138435771D01*
X288252380Y-138435771D02*
X288157142Y-138388152D01*
X288157142Y-138388152D02*
X288014285Y-138388152D01*
X288014285Y-138388152D02*
X287919046Y-138435771D01*
X287919046Y-138435771D02*
X287871427Y-138531009D01*
X287871427Y-138531009D02*
X287871427Y-139054819D01*
X287395237Y-139054819D02*
X287395237Y-138388152D01*
X287395237Y-138054819D02*
X287442856Y-138102438D01*
X287442856Y-138102438D02*
X287395237Y-138150057D01*
X287395237Y-138150057D02*
X287347618Y-138102438D01*
X287347618Y-138102438D02*
X287395237Y-138054819D01*
X287395237Y-138054819D02*
X287395237Y-138150057D01*
X286919047Y-139054819D02*
X286919047Y-138388152D01*
X286919047Y-138483390D02*
X286871428Y-138435771D01*
X286871428Y-138435771D02*
X286776190Y-138388152D01*
X286776190Y-138388152D02*
X286633333Y-138388152D01*
X286633333Y-138388152D02*
X286538095Y-138435771D01*
X286538095Y-138435771D02*
X286490476Y-138531009D01*
X286490476Y-138531009D02*
X286490476Y-139054819D01*
X286490476Y-138531009D02*
X286442857Y-138435771D01*
X286442857Y-138435771D02*
X286347619Y-138388152D01*
X286347619Y-138388152D02*
X286204762Y-138388152D01*
X286204762Y-138388152D02*
X286109523Y-138435771D01*
X286109523Y-138435771D02*
X286061904Y-138531009D01*
X286061904Y-138531009D02*
X286061904Y-139054819D01*
X285585714Y-139054819D02*
X285585714Y-138388152D01*
X285585714Y-138054819D02*
X285633333Y-138102438D01*
X285633333Y-138102438D02*
X285585714Y-138150057D01*
X285585714Y-138150057D02*
X285538095Y-138102438D01*
X285538095Y-138102438D02*
X285585714Y-138054819D01*
X285585714Y-138054819D02*
X285585714Y-138150057D01*
X284680953Y-139007200D02*
X284776191Y-139054819D01*
X284776191Y-139054819D02*
X284966667Y-139054819D01*
X284966667Y-139054819D02*
X285061905Y-139007200D01*
X285061905Y-139007200D02*
X285109524Y-138959580D01*
X285109524Y-138959580D02*
X285157143Y-138864342D01*
X285157143Y-138864342D02*
X285157143Y-138578628D01*
X285157143Y-138578628D02*
X285109524Y-138483390D01*
X285109524Y-138483390D02*
X285061905Y-138435771D01*
X285061905Y-138435771D02*
X284966667Y-138388152D01*
X284966667Y-138388152D02*
X284776191Y-138388152D01*
X284776191Y-138388152D02*
X284680953Y-138435771D01*
X283823810Y-138388152D02*
X283823810Y-139054819D01*
X284061905Y-138007200D02*
X284300000Y-138721485D01*
X284300000Y-138721485D02*
X283680953Y-138721485D01*
X283109524Y-138054819D02*
X283014286Y-138054819D01*
X283014286Y-138054819D02*
X282919048Y-138102438D01*
X282919048Y-138102438D02*
X282871429Y-138150057D01*
X282871429Y-138150057D02*
X282823810Y-138245295D01*
X282823810Y-138245295D02*
X282776191Y-138435771D01*
X282776191Y-138435771D02*
X282776191Y-138673866D01*
X282776191Y-138673866D02*
X282823810Y-138864342D01*
X282823810Y-138864342D02*
X282871429Y-138959580D01*
X282871429Y-138959580D02*
X282919048Y-139007200D01*
X282919048Y-139007200D02*
X283014286Y-139054819D01*
X283014286Y-139054819D02*
X283109524Y-139054819D01*
X283109524Y-139054819D02*
X283204762Y-139007200D01*
X283204762Y-139007200D02*
X283252381Y-138959580D01*
X283252381Y-138959580D02*
X283300000Y-138864342D01*
X283300000Y-138864342D02*
X283347619Y-138673866D01*
X283347619Y-138673866D02*
X283347619Y-138435771D01*
X283347619Y-138435771D02*
X283300000Y-138245295D01*
X283300000Y-138245295D02*
X283252381Y-138150057D01*
X283252381Y-138150057D02*
X283204762Y-138102438D01*
X283204762Y-138102438D02*
X283109524Y-138054819D01*
X281680952Y-138388152D02*
X281442857Y-139054819D01*
X281442857Y-139054819D02*
X281204762Y-138388152D01*
X280633333Y-138054819D02*
X280538095Y-138054819D01*
X280538095Y-138054819D02*
X280442857Y-138102438D01*
X280442857Y-138102438D02*
X280395238Y-138150057D01*
X280395238Y-138150057D02*
X280347619Y-138245295D01*
X280347619Y-138245295D02*
X280300000Y-138435771D01*
X280300000Y-138435771D02*
X280300000Y-138673866D01*
X280300000Y-138673866D02*
X280347619Y-138864342D01*
X280347619Y-138864342D02*
X280395238Y-138959580D01*
X280395238Y-138959580D02*
X280442857Y-139007200D01*
X280442857Y-139007200D02*
X280538095Y-139054819D01*
X280538095Y-139054819D02*
X280633333Y-139054819D01*
X280633333Y-139054819D02*
X280728571Y-139007200D01*
X280728571Y-139007200D02*
X280776190Y-138959580D01*
X280776190Y-138959580D02*
X280823809Y-138864342D01*
X280823809Y-138864342D02*
X280871428Y-138673866D01*
X280871428Y-138673866D02*
X280871428Y-138435771D01*
X280871428Y-138435771D02*
X280823809Y-138245295D01*
X280823809Y-138245295D02*
X280776190Y-138150057D01*
X280776190Y-138150057D02*
X280728571Y-138102438D01*
X280728571Y-138102438D02*
X280633333Y-138054819D01*
X279871428Y-138959580D02*
X279823809Y-139007200D01*
X279823809Y-139007200D02*
X279871428Y-139054819D01*
X279871428Y-139054819D02*
X279919047Y-139007200D01*
X279919047Y-139007200D02*
X279871428Y-138959580D01*
X279871428Y-138959580D02*
X279871428Y-139054819D01*
X278871429Y-139054819D02*
X279442857Y-139054819D01*
X279157143Y-139054819D02*
X279157143Y-138054819D01*
X279157143Y-138054819D02*
X279252381Y-138197676D01*
X279252381Y-138197676D02*
X279347619Y-138292914D01*
X279347619Y-138292914D02*
X279442857Y-138340533D01*
X277252381Y-139054819D02*
X277252381Y-138531009D01*
X277252381Y-138531009D02*
X277300000Y-138435771D01*
X277300000Y-138435771D02*
X277395238Y-138388152D01*
X277395238Y-138388152D02*
X277585714Y-138388152D01*
X277585714Y-138388152D02*
X277680952Y-138435771D01*
X277252381Y-139007200D02*
X277347619Y-139054819D01*
X277347619Y-139054819D02*
X277585714Y-139054819D01*
X277585714Y-139054819D02*
X277680952Y-139007200D01*
X277680952Y-139007200D02*
X277728571Y-138911961D01*
X277728571Y-138911961D02*
X277728571Y-138816723D01*
X277728571Y-138816723D02*
X277680952Y-138721485D01*
X277680952Y-138721485D02*
X277585714Y-138673866D01*
X277585714Y-138673866D02*
X277347619Y-138673866D01*
X277347619Y-138673866D02*
X277252381Y-138626247D01*
X276347619Y-138388152D02*
X276347619Y-139054819D01*
X276776190Y-138388152D02*
X276776190Y-138911961D01*
X276776190Y-138911961D02*
X276728571Y-139007200D01*
X276728571Y-139007200D02*
X276633333Y-139054819D01*
X276633333Y-139054819D02*
X276490476Y-139054819D01*
X276490476Y-139054819D02*
X276395238Y-139007200D01*
X276395238Y-139007200D02*
X276347619Y-138959580D01*
X275442857Y-138388152D02*
X275442857Y-139197676D01*
X275442857Y-139197676D02*
X275490476Y-139292914D01*
X275490476Y-139292914D02*
X275538095Y-139340533D01*
X275538095Y-139340533D02*
X275633333Y-139388152D01*
X275633333Y-139388152D02*
X275776190Y-139388152D01*
X275776190Y-139388152D02*
X275871428Y-139340533D01*
X275442857Y-139007200D02*
X275538095Y-139054819D01*
X275538095Y-139054819D02*
X275728571Y-139054819D01*
X275728571Y-139054819D02*
X275823809Y-139007200D01*
X275823809Y-139007200D02*
X275871428Y-138959580D01*
X275871428Y-138959580D02*
X275919047Y-138864342D01*
X275919047Y-138864342D02*
X275919047Y-138578628D01*
X275919047Y-138578628D02*
X275871428Y-138483390D01*
X275871428Y-138483390D02*
X275823809Y-138435771D01*
X275823809Y-138435771D02*
X275728571Y-138388152D01*
X275728571Y-138388152D02*
X275538095Y-138388152D01*
X275538095Y-138388152D02*
X275442857Y-138435771D01*
X274252380Y-138150057D02*
X274204761Y-138102438D01*
X274204761Y-138102438D02*
X274109523Y-138054819D01*
X274109523Y-138054819D02*
X273871428Y-138054819D01*
X273871428Y-138054819D02*
X273776190Y-138102438D01*
X273776190Y-138102438D02*
X273728571Y-138150057D01*
X273728571Y-138150057D02*
X273680952Y-138245295D01*
X273680952Y-138245295D02*
X273680952Y-138340533D01*
X273680952Y-138340533D02*
X273728571Y-138483390D01*
X273728571Y-138483390D02*
X274299999Y-139054819D01*
X274299999Y-139054819D02*
X273680952Y-139054819D01*
X273061904Y-138054819D02*
X272966666Y-138054819D01*
X272966666Y-138054819D02*
X272871428Y-138102438D01*
X272871428Y-138102438D02*
X272823809Y-138150057D01*
X272823809Y-138150057D02*
X272776190Y-138245295D01*
X272776190Y-138245295D02*
X272728571Y-138435771D01*
X272728571Y-138435771D02*
X272728571Y-138673866D01*
X272728571Y-138673866D02*
X272776190Y-138864342D01*
X272776190Y-138864342D02*
X272823809Y-138959580D01*
X272823809Y-138959580D02*
X272871428Y-139007200D01*
X272871428Y-139007200D02*
X272966666Y-139054819D01*
X272966666Y-139054819D02*
X273061904Y-139054819D01*
X273061904Y-139054819D02*
X273157142Y-139007200D01*
X273157142Y-139007200D02*
X273204761Y-138959580D01*
X273204761Y-138959580D02*
X273252380Y-138864342D01*
X273252380Y-138864342D02*
X273299999Y-138673866D01*
X273299999Y-138673866D02*
X273299999Y-138435771D01*
X273299999Y-138435771D02*
X273252380Y-138245295D01*
X273252380Y-138245295D02*
X273204761Y-138150057D01*
X273204761Y-138150057D02*
X273157142Y-138102438D01*
X273157142Y-138102438D02*
X273061904Y-138054819D01*
X272347618Y-138150057D02*
X272299999Y-138102438D01*
X272299999Y-138102438D02*
X272204761Y-138054819D01*
X272204761Y-138054819D02*
X271966666Y-138054819D01*
X271966666Y-138054819D02*
X271871428Y-138102438D01*
X271871428Y-138102438D02*
X271823809Y-138150057D01*
X271823809Y-138150057D02*
X271776190Y-138245295D01*
X271776190Y-138245295D02*
X271776190Y-138340533D01*
X271776190Y-138340533D02*
X271823809Y-138483390D01*
X271823809Y-138483390D02*
X272395237Y-139054819D01*
X272395237Y-139054819D02*
X271776190Y-139054819D01*
X270919047Y-138388152D02*
X270919047Y-139054819D01*
X271157142Y-138007200D02*
X271395237Y-138721485D01*
X271395237Y-138721485D02*
X270776190Y-138721485D01*
M02*
