M48
; DRILL file {KiCad 8.0.1} date 2024-10-10T20:25:16+0200
; FORMAT={-:-/ absolute / metric / decimal}
; #@! TF.CreationDate,2024-10-10T20:25:16+02:00
; #@! TF.GenerationSoftware,Kicad,Pcbnew,8.0.1
; #@! TF.FileFunction,Plated,1,2,PTH
FMAT,2
METRIC
; #@! TA.AperFunction,Plated,PTH,ViaDrill
T1C0.300
; #@! TA.AperFunction,Plated,PTH,ViaDrill
T2C0.500
; #@! TA.AperFunction,Plated,PTH,ComponentDrill
T3C0.600
; #@! TA.AperFunction,Plated,PTH,ComponentDrill
T4C1.000
; #@! TA.AperFunction,Plated,PTH,ComponentDrill
T5C3.050
%
G90
G05
T1
X67.5Y-118.2
X68.775Y-103.625
X69.7Y-100.0
X70.3Y-124.3
X70.8Y-105.4
X71.0Y-86.55
X71.3Y-121.1
X72.0Y-82.2
X72.8Y-138.8
X79.6Y-87.5
X79.6Y-125.3
X80.0Y-80.75
X80.8Y-103.4
X81.8Y-105.4
X82.5Y-142.4
X82.7Y-124.3
X83.3Y-93.3
X83.3Y-108.4
X83.3Y-112.3
X83.3Y-127.6
X83.3Y-131.5
X84.0Y-140.0
X85.7Y-145.6
X86.3Y-89.7
X89.5Y-124.3
X89.8Y-105.4
X90.4Y-121.1
X90.6Y-84.5
X91.3Y-99.1
X96.6Y-141.55
X96.8Y-139.0
X97.0Y-143.6
X98.3Y-82.1
X98.6Y-125.2
X98.7Y-87.8
X99.8Y-105.4
X99.95Y-103.45
X101.7Y-124.3
X102.3Y-112.3
X102.3Y-127.7
X102.3Y-131.4
X102.4Y-94.7
X102.4Y-108.6
X103.1Y-121.1
X103.15Y-89.4
X107.2Y-141.6
X108.4Y-143.6
X108.7Y-101.0
X108.7Y-124.3
X109.5Y-146.6
X109.6Y-121.1
X109.75Y-122.6
X109.8Y-83.1
X110.7Y-140.0
X111.3Y-82.0
X117.3Y-88.2
X117.7Y-125.3
X118.8Y-103.45
X119.0Y-84.14
X120.1Y-124.3
X120.2Y-105.4
X120.875Y-104.75
X121.0Y-139.1
X121.1Y-141.6
X121.2Y-143.6
X121.4Y-103.1
X121.4Y-103.954
X121.4Y-112.3
X121.4Y-125.0
X121.4Y-131.5
X122.5Y-85.7
X125.036Y-100.4
X125.561Y-103.954
X125.6Y-104.75
X126.1Y-100.4
X126.4Y-103.1
X126.4Y-104.8
X126.75Y-92.0
X126.75Y-96.5
X127.127Y-80.518
X127.6Y-99.875
X127.6Y-124.3
X127.75Y-105.4
X128.4Y-121.1
X128.85Y-101.69
X130.5Y-85.6
X130.9Y-142.4
X131.8Y-143.6
X133.3Y-146.7
X133.4Y-142.0
X133.5Y-79.4
X134.4Y-140.05
X136.7Y-87.6
X136.7Y-125.3
X137.9Y-103.45
X138.25Y-94.3
X139.0Y-100.35
X139.4Y-142.0
X139.4Y-147.8
X139.7Y-124.3
X139.875Y-105.4
X140.4Y-93.6
X140.4Y-108.6
X140.4Y-127.6
X140.435Y-112.4
X141.1Y-121.0
X144.4Y-143.6
X144.8Y-139.1
X145.0Y-141.6
X146.7Y-105.4
X146.7Y-124.3
X146.9Y-100.9
X147.6Y-83.0
X147.6Y-121.1
X147.8Y-122.6
X149.9Y-86.9
X154.6Y-141.6
X154.7Y-140.1
X155.25Y-106.1
X155.4Y-104.9
X155.8Y-87.5
X155.8Y-125.3
X156.8Y-142.3
X156.9Y-102.2
X157.1Y-146.6
X157.6Y-143.6
X157.7Y-104.8
X158.6Y-124.3
X158.9Y-104.2
X159.4Y-106.8
X159.485Y-134.2
X159.5Y-127.4
X159.8Y-152.2
X160.75Y-86.3
X161.6Y-113.6
X165.6Y-105.4
X165.8Y-124.3
X166.1Y-86.3
X166.5Y-83.0
X166.9Y-135.7
X167.1Y-120.3
X167.5Y-99.2
X170.9Y-142.3
X173.4Y-152.8
X173.4Y-154.5
X174.3Y-140.1
X174.635Y-135.1
X174.8Y-87.5
X174.8Y-125.3
X176.0Y-103.4
X176.0Y-147.825
X176.4Y-141.5
X176.9Y-105.4
X177.6Y-124.3
X178.5Y-93.25
X178.5Y-108.5
X178.5Y-112.5
X178.5Y-127.5
X178.535Y-131.2
X178.85Y-86.3
X179.1Y-124.3
X179.3Y-120.9
X184.7Y-124.3
X184.9Y-86.3
X184.9Y-105.4
X185.3Y-142.5
X185.5Y-83.0
X186.0Y-122.6
X186.1Y-120.9
X186.6Y-99.2
X186.776Y-144.35
X187.0Y-137.6
X188.2Y-137.6
X188.9Y-154.0
X188.95Y-150.75
X189.4Y-136.8
X189.8Y-154.9
X189.9Y-142.4
X191.5Y-144.0
X191.55Y-142.25
X191.564Y-141.486
X192.2Y-149.0
X192.25Y-137.19
X193.25Y-138.895
X193.8Y-125.4
X193.9Y-87.6
X194.139Y-150.439
X194.56Y-153.736
X195.2Y-143.0
X195.2Y-144.8
X195.4Y-103.5
X196.0Y-124.3
X196.1Y-105.4
X196.15Y-143.86
X196.35Y-136.9
X196.35Y-141.47
X197.0Y-143.0
X197.0Y-144.8
X197.585Y-133.2
X197.6Y-93.3
X197.6Y-108.6
X197.6Y-112.2
X197.6Y-127.7
X198.4Y-146.05
X198.6Y-86.3
X199.6Y-140.4
X199.85Y-139.693
X199.906Y-150.094
X200.45Y-137.45
X200.5Y-134.4
X201.05Y-143.66
X201.25Y-118.8
X201.3Y-145.172
X201.3Y-145.95
X201.4Y-141.092
X201.527Y-144.45
X201.844Y-143.11
X201.961Y-141.642
X202.5Y-149.0
X202.5Y-153.5
X203.3Y-117.7
X203.45Y-141.0
X203.8Y-105.4
X203.9Y-86.3
X203.9Y-124.3
X204.1Y-150.2
X204.3Y-121.85
X204.5Y-140.1
X204.7Y-83.05
X204.724Y-146.685
X205.5Y-99.2
X207.25Y-148.2
X209.1Y-143.0
X209.2Y-135.4
X211.95Y-136.95
X212.9Y-87.5
X212.9Y-125.4
X214.2Y-103.4
X214.8Y-105.4
X215.3Y-124.3
X215.7Y-116.4
X216.05Y-121.3
X216.3Y-140.0
X216.4Y-141.5
X216.55Y-136.3
X216.6Y-116.4
X216.7Y-93.7
X216.7Y-108.7
X216.7Y-126.5
X217.185Y-117.1
X217.7Y-86.3
X217.75Y-117.9
X218.4Y-150.8
X218.575Y-140.0
X219.093Y-118.45
X219.2Y-144.8
X219.643Y-117.9
X220.193Y-117.1
X220.7Y-152.75
X220.743Y-116.444
X221.3Y-105.4
X221.4Y-125.8
X221.4Y-153.1
X221.4Y-154.3
X222.1Y-87.975
X222.1Y-151.85
X222.9Y-124.3
X223.2Y-105.4
X223.3Y-86.3
X223.5Y-83.0
X224.2Y-120.9
X224.7Y-99.2
X231.0Y-143.4
X231.9Y-137.3
X232.0Y-87.6
X232.0Y-125.3
X233.2Y-103.5
X233.5Y-124.3
X234.1Y-105.4
X234.9Y-122.65
X235.7Y-93.3
X235.7Y-108.6
X235.7Y-112.4
X235.7Y-127.6
X235.8Y-131.6
X236.6Y-86.3
X236.8Y-101.85
X240.5Y-141.6
X241.4Y-143.4
X242.0Y-124.3
X242.1Y-86.3
X242.3Y-105.4
X242.5Y-103.5
X242.7Y-83.0
X242.8Y-120.95
X242.8Y-122.65
X242.9Y-146.6
X243.7Y-99.2
X244.0Y-139.95
X251.0Y-87.5
X251.0Y-125.4
X252.6Y-103.4
X252.6Y-105.4
X253.5Y-124.35
X254.2Y-143.5
X254.45Y-141.55
X254.7Y-108.5
X254.7Y-112.3
X254.7Y-131.4
X254.735Y-93.2
X254.735Y-127.6
X255.6Y-137.3
X255.7Y-86.3
X255.9Y-101.85
X260.7Y-105.4
X260.85Y-124.35
X261.1Y-86.3
X261.6Y-83.0
X261.75Y-101.85
X262.25Y-121.1
X262.8Y-99.2
X264.1Y-141.6
X265.8Y-143.5
X266.7Y-146.4
X270.1Y-87.6
X270.1Y-125.3
X271.4Y-103.4
X272.2Y-105.4
X272.5Y-124.35
X273.8Y-93.5
X273.8Y-108.4
X273.8Y-112.4
X273.8Y-127.6
X273.8Y-131.3
X274.85Y-86.3
X275.25Y-101.9
X280.0Y-86.3
X280.0Y-124.3
X280.1Y-105.4
X281.0Y-83.0
X281.0Y-121.0
X281.2Y-103.6
X281.8Y-99.1
X285.3Y-147.3
X285.6Y-141.0
X289.1Y-87.5
X289.1Y-125.3
X290.3Y-103.4
X291.4Y-124.3
X291.5Y-105.4
X292.8Y-93.4
X292.8Y-108.6
X292.9Y-112.4
X292.9Y-127.7
X292.9Y-131.5
X294.0Y-86.3
X294.2Y-145.4
X294.45Y-101.9
X295.2Y-143.8
X295.4Y-147.3
X296.7Y-150.2
X299.0Y-86.3
X299.0Y-105.4
X299.775Y-101.875
X299.9Y-83.0
X300.9Y-99.1
X303.3Y-128.3
X303.3Y-145.535
X303.4Y-147.3
X303.9Y-124.3
X304.7Y-141.1
X308.2Y-87.5
X309.4Y-103.4
X309.725Y-84.525
X311.885Y-93.285
X311.885Y-103.6
X311.9Y-112.3
X312.0Y-129.3
X313.0Y-101.9
X313.1Y-145.4
X314.3Y-128.3
X314.3Y-147.3
X315.7Y-116.1
X315.7Y-131.0
X315.7Y-135.3
X315.7Y-150.5
X318.2Y-122.4
X321.8Y-86.0
X322.7Y-147.3
X323.04Y-116.79
X323.04Y-118.89
X323.7Y-141.0
X324.0Y-108.2
X325.4Y-105.4
X325.5Y-124.05
X325.6Y-86.3
X326.45Y-101.85
X326.5Y-82.9
X326.5Y-84.5
X326.9Y-121.1
X327.5Y-99.2
X332.3Y-145.4
X333.2Y-147.3
X334.7Y-150.4
X334.8Y-87.5
X334.8Y-125.3
X335.125Y-105.425
X336.1Y-103.4
X336.15Y-116.25
X337.703Y-121.103
X337.775Y-118.1
X338.5Y-93.8
X338.5Y-108.7
X338.6Y-112.3
X338.6Y-127.8
X338.925Y-116.8
X343.8Y-117.575
X344.6Y-119.4
X345.0Y-124.6
X345.1Y-86.3
X345.5Y-105.5
X345.6Y-143.5
X345.8Y-82.8
X345.8Y-120.4
X345.9Y-118.1
X346.6Y-99.1
X346.6Y-137.2
X353.9Y-87.5
X353.9Y-125.3
X355.0Y-103.5
X355.0Y-141.5
X355.263Y-84.363
X355.3Y-143.5
X356.4Y-86.3
X356.5Y-118.1
X357.075Y-105.55
X357.6Y-93.3
X357.6Y-108.6
X357.6Y-112.2
X357.6Y-123.1
X357.6Y-131.5
X357.6Y-146.6
X358.25Y-140.1
X358.45Y-121.05
X358.6Y-118.1
X358.75Y-102.0
X358.75Y-124.6
X364.4Y-82.8
X364.5Y-84.5
X364.6Y-121.0
X364.637Y-101.938
X364.75Y-140.65
X365.1Y-120.3
X365.6Y-137.2
X365.7Y-99.1
X371.05Y-118.05
X372.9Y-87.5
X372.9Y-125.4
X374.1Y-141.6
X374.2Y-103.4
X376.6Y-93.3
X376.6Y-108.6
X376.7Y-112.4
X376.7Y-127.6
X376.7Y-131.4
X376.7Y-146.5
X378.5Y-124.3
X378.5Y-137.0
X378.6Y-87.0
X378.6Y-98.6
T2
X88.8Y-80.6
X88.8Y-87.4
X89.0Y-84.0
X103.5Y-82.0
X106.5Y-81.9
X108.0Y-81.9
X315.0Y-83.8
X315.0Y-88.0
X315.1Y-92.3
X315.2Y-102.8
X315.25Y-107.05
X315.3Y-111.3
T4
X162.0Y-144.8
X163.3Y-153.0
X163.32Y-148.8
X164.54Y-144.8
X165.84Y-153.0
X165.86Y-148.8
X167.08Y-144.8
X168.38Y-153.0
X168.4Y-148.8
X169.62Y-144.8
X200.5Y-129.035
X200.5Y-131.575
T5
X73.66Y-93.98
X73.66Y-113.03
X73.66Y-132.08
X76.041Y-151.13
X80.01Y-91.44
X80.01Y-110.49
X80.01Y-129.54
X82.391Y-148.59
X92.71Y-93.98
X92.71Y-113.03
X92.71Y-132.08
X99.06Y-91.44
X99.06Y-110.49
X99.06Y-129.54
X99.854Y-151.13
X106.204Y-148.59
X111.76Y-93.98
X111.76Y-113.03
X111.76Y-132.08
X118.11Y-91.44
X118.11Y-110.49
X118.11Y-129.54
X123.666Y-151.13
X130.016Y-148.59
X130.81Y-93.98
X130.81Y-113.03
X130.81Y-132.08
X137.16Y-91.44
X137.16Y-110.49
X137.16Y-129.54
X147.479Y-151.13
X149.86Y-93.98
X149.86Y-113.03
X149.86Y-132.08
X153.829Y-148.59
X156.21Y-91.44
X156.21Y-110.49
X156.21Y-129.54
X168.91Y-93.98
X168.91Y-113.03
X168.91Y-132.08
X175.26Y-91.44
X175.26Y-110.49
X175.26Y-129.54
X178.435Y-151.13
X184.785Y-148.59
X187.96Y-93.98
X187.96Y-113.03
X187.96Y-132.08
X194.31Y-91.44
X194.31Y-110.49
X194.31Y-129.54
X207.01Y-93.98
X207.01Y-113.03
X207.01Y-132.08
X209.391Y-151.13
X213.36Y-91.44
X213.36Y-110.49
X213.36Y-129.54
X215.741Y-148.59
X226.06Y-93.98
X226.06Y-113.03
X226.06Y-132.08
X232.41Y-91.44
X232.41Y-110.49
X232.41Y-129.54
X233.204Y-151.13
X239.554Y-148.59
X245.11Y-93.98
X245.11Y-113.03
X245.11Y-132.08
X251.46Y-91.44
X251.46Y-110.49
X251.46Y-129.54
X257.016Y-151.13
X263.366Y-148.59
X264.16Y-93.98
X264.16Y-113.03
X264.16Y-132.08
X270.51Y-91.44
X270.51Y-110.49
X270.51Y-129.54
X283.21Y-93.98
X283.21Y-113.03
X283.21Y-132.08
X287.02Y-154.94
X289.56Y-91.44
X289.56Y-110.49
X289.56Y-129.54
X293.37Y-152.4
X302.26Y-93.98
X302.26Y-113.03
X306.07Y-135.89
X306.07Y-154.94
X308.61Y-91.44
X308.61Y-110.49
X312.42Y-133.35
X312.42Y-152.4
X325.12Y-154.94
X328.93Y-93.98
X328.93Y-113.03
X328.93Y-132.08
X331.47Y-152.4
X335.28Y-91.44
X335.28Y-110.49
X335.28Y-129.54
X347.98Y-93.98
X347.98Y-113.03
X347.98Y-132.08
X347.98Y-151.13
X354.33Y-91.44
X354.33Y-110.49
X354.33Y-129.54
X354.33Y-148.59
X367.03Y-93.98
X367.03Y-113.03
X367.03Y-132.08
X367.03Y-151.13
X373.38Y-91.44
X373.38Y-110.49
X373.38Y-129.54
X373.38Y-148.59
T3
G00X100.43Y-80.09
M15
G01X100.43Y-80.69
M16
G05
G00X100.43Y-84.02
M15
G01X100.43Y-85.12
M16
G05
G00X109.07Y-80.09
M15
G01X109.07Y-80.69
M16
G05
G00X109.07Y-84.02
M15
G01X109.07Y-85.12
M16
G05
M30
