G04 #@! TF.GenerationSoftware,KiCad,Pcbnew,8.0.1*
G04 #@! TF.CreationDate,2024-09-30T21:17:22+02:00*
G04 #@! TF.ProjectId,Mimic40,4d696d69-6334-4302-9e6b-696361645f70,0*
G04 #@! TF.SameCoordinates,Original*
G04 #@! TF.FileFunction,Soldermask,Bot*
G04 #@! TF.FilePolarity,Negative*
%FSLAX46Y46*%
G04 Gerber Fmt 4.6, Leading zero omitted, Abs format (unit mm)*
G04 Created by KiCad (PCBNEW 8.0.1) date 2024-09-30 21:17:22*
%MOMM*%
%LPD*%
G01*
G04 APERTURE LIST*
G04 Aperture macros list*
%AMRoundRect*
0 Rectangle with rounded corners*
0 $1 Rounding radius*
0 $2 $3 $4 $5 $6 $7 $8 $9 X,Y pos of 4 corners*
0 Add a 4 corners polygon primitive as box body*
4,1,4,$2,$3,$4,$5,$6,$7,$8,$9,$2,$3,0*
0 Add four circle primitives for the rounded corners*
1,1,$1+$1,$2,$3*
1,1,$1+$1,$4,$5*
1,1,$1+$1,$6,$7*
1,1,$1+$1,$8,$9*
0 Add four rect primitives between the rounded corners*
20,1,$1+$1,$2,$3,$4,$5,0*
20,1,$1+$1,$4,$5,$6,$7,0*
20,1,$1+$1,$6,$7,$8,$9,0*
20,1,$1+$1,$8,$9,$2,$3,0*%
%AMFreePoly0*
4,1,19,0.500000,-0.750000,0.000000,-0.750000,0.000000,-0.744911,-0.071157,-0.744911,-0.207708,-0.704816,-0.327430,-0.627875,-0.420627,-0.520320,-0.479746,-0.390866,-0.500000,-0.250000,-0.500000,0.250000,-0.479746,0.390866,-0.420627,0.520320,-0.327430,0.627875,-0.207708,0.704816,-0.071157,0.744911,0.000000,0.744911,0.000000,0.750000,0.500000,0.750000,0.500000,-0.750000,0.500000,-0.750000,
$1*%
%AMFreePoly1*
4,1,19,0.000000,0.744911,0.071157,0.744911,0.207708,0.704816,0.327430,0.627875,0.420627,0.520320,0.479746,0.390866,0.500000,0.250000,0.500000,-0.250000,0.479746,-0.390866,0.420627,-0.520320,0.327430,-0.627875,0.207708,-0.704816,0.071157,-0.744911,0.000000,-0.744911,0.000000,-0.750000,-0.500000,-0.750000,-0.500000,0.750000,0.000000,0.750000,0.000000,0.744911,0.000000,0.744911,
$1*%
G04 Aperture macros list end*
%ADD10C,0.100000*%
%ADD11RoundRect,0.250000X1.025000X1.000000X-1.025000X1.000000X-1.025000X-1.000000X1.025000X-1.000000X0*%
%ADD12C,1.750000*%
%ADD13C,4.000000*%
%ADD14RoundRect,0.125000X1.125000X1.125000X-1.125000X1.125000X-1.125000X-1.125000X1.125000X-1.125000X0*%
%ADD15C,2.200000*%
%ADD16R,1.700000X1.700000*%
%ADD17O,1.700000X1.700000*%
%ADD18RoundRect,0.225000X-0.225000X-0.375000X0.225000X-0.375000X0.225000X0.375000X-0.225000X0.375000X0*%
%ADD19R,1.800000X0.820000*%
%ADD20RoundRect,0.140000X0.170000X-0.140000X0.170000X0.140000X-0.170000X0.140000X-0.170000X-0.140000X0*%
%ADD21RoundRect,0.250000X-0.475000X0.250000X-0.475000X-0.250000X0.475000X-0.250000X0.475000X0.250000X0*%
%ADD22RoundRect,0.140000X-0.170000X0.140000X-0.170000X-0.140000X0.170000X-0.140000X0.170000X0.140000X0*%
%ADD23RoundRect,0.225000X0.225000X0.375000X-0.225000X0.375000X-0.225000X-0.375000X0.225000X-0.375000X0*%
%ADD24RoundRect,0.225000X-0.375000X0.225000X-0.375000X-0.225000X0.375000X-0.225000X0.375000X0.225000X0*%
%ADD25RoundRect,0.140000X0.140000X0.170000X-0.140000X0.170000X-0.140000X-0.170000X0.140000X-0.170000X0*%
%ADD26RoundRect,0.135000X0.185000X-0.135000X0.185000X0.135000X-0.185000X0.135000X-0.185000X-0.135000X0*%
%ADD27FreePoly0,180.000000*%
%ADD28FreePoly1,180.000000*%
%ADD29RoundRect,0.135000X0.135000X0.185000X-0.135000X0.185000X-0.135000X-0.185000X0.135000X-0.185000X0*%
%ADD30RoundRect,0.140000X-0.140000X-0.170000X0.140000X-0.170000X0.140000X0.170000X-0.140000X0.170000X0*%
%ADD31RoundRect,0.150000X-0.150000X0.512500X-0.150000X-0.512500X0.150000X-0.512500X0.150000X0.512500X0*%
%ADD32RoundRect,0.135000X-0.185000X0.135000X-0.185000X-0.135000X0.185000X-0.135000X0.185000X0.135000X0*%
%ADD33C,0.650000*%
%ADD34R,0.600000X1.450000*%
%ADD35R,0.300000X1.450000*%
%ADD36O,1.000000X1.600000*%
%ADD37O,1.000000X2.100000*%
%ADD38FreePoly0,0.000000*%
%ADD39FreePoly1,0.000000*%
%ADD40RoundRect,0.135000X-0.135000X-0.185000X0.135000X-0.185000X0.135000X0.185000X-0.135000X0.185000X0*%
%ADD41RoundRect,0.250000X0.250000X0.475000X-0.250000X0.475000X-0.250000X-0.475000X0.250000X-0.475000X0*%
%ADD42R,1.700000X0.820000*%
%ADD43R,1.400000X1.200000*%
%ADD44RoundRect,0.250000X-0.250000X-0.475000X0.250000X-0.475000X0.250000X0.475000X-0.250000X0.475000X0*%
%ADD45RoundRect,0.150000X0.150000X-0.650000X0.150000X0.650000X-0.150000X0.650000X-0.150000X-0.650000X0*%
%ADD46RoundRect,0.375000X-0.625000X-0.375000X0.625000X-0.375000X0.625000X0.375000X-0.625000X0.375000X0*%
%ADD47RoundRect,0.500000X-0.500000X-1.400000X0.500000X-1.400000X0.500000X1.400000X-0.500000X1.400000X0*%
%ADD48RoundRect,0.050000X0.387500X0.050000X-0.387500X0.050000X-0.387500X-0.050000X0.387500X-0.050000X0*%
%ADD49RoundRect,0.050000X0.050000X0.387500X-0.050000X0.387500X-0.050000X-0.387500X0.050000X-0.387500X0*%
%ADD50R,3.200000X3.200000*%
G04 APERTURE END LIST*
D10*
X198800000Y-140810000D02*
X193494999Y-140810000D01*
X193495000Y-140035000D01*
X198800000Y-140035000D01*
X198800000Y-140810000D01*
G36*
X198800000Y-140810000D02*
G01*
X193494999Y-140810000D01*
X193495000Y-140035000D01*
X198800000Y-140035000D01*
X198800000Y-140810000D01*
G37*
X198800000Y-147685000D02*
X193495000Y-147685000D01*
X193494999Y-146910000D01*
X198800000Y-146910000D01*
X198800000Y-147685000D01*
G36*
X198800000Y-147685000D02*
G01*
X193495000Y-147685000D01*
X193494999Y-146910000D01*
X198800000Y-146910000D01*
X198800000Y-147685000D01*
G37*
X108265000Y-86175000D02*
X101219998Y-86175000D01*
X101220000Y-84790000D01*
X108265000Y-84790000D01*
X108265000Y-86175000D01*
G36*
X108265000Y-86175000D02*
G01*
X101219998Y-86175000D01*
X101220000Y-84790000D01*
X108265000Y-84790000D01*
X108265000Y-86175000D01*
G37*
X199975000Y-146525000D02*
X199200000Y-146525000D01*
X199200000Y-141200000D01*
X199975000Y-141200000D01*
X199975000Y-146525000D01*
G36*
X199975000Y-146525000D02*
G01*
X199200000Y-146525000D01*
X199200000Y-141200000D01*
X199975000Y-141200000D01*
X199975000Y-146525000D01*
G37*
X193100000Y-146515000D02*
X192325000Y-146515000D01*
X192325000Y-141200000D01*
X193100000Y-141200000D01*
X193100000Y-146515000D01*
G36*
X193100000Y-146515000D02*
G01*
X192325000Y-146515000D01*
X192325000Y-141200000D01*
X193100000Y-141200000D01*
X193100000Y-146515000D01*
G37*
D11*
X197585000Y-91440000D03*
D12*
X195580000Y-88900000D03*
D13*
X190500000Y-88900000D03*
D12*
X185420000Y-88900000D03*
D11*
X184658000Y-93980000D03*
D14*
X194310000Y-91440000D03*
X187960000Y-93980000D03*
D11*
X376655000Y-129540000D03*
D12*
X374650000Y-127000000D03*
D13*
X369570000Y-127000000D03*
D12*
X364490000Y-127000000D03*
D11*
X363728000Y-132080000D03*
D14*
X373380000Y-129540000D03*
X367030000Y-132080000D03*
D11*
X140435000Y-110490000D03*
D12*
X138430000Y-107950000D03*
D13*
X133350000Y-107950000D03*
D12*
X128270000Y-107950000D03*
D11*
X127508000Y-113030000D03*
D14*
X137160000Y-110490000D03*
X130810000Y-113030000D03*
D11*
X334745000Y-152400000D03*
D12*
X332740000Y-149860000D03*
D13*
X327660000Y-149860000D03*
D12*
X322580000Y-149860000D03*
D11*
X321818000Y-154940000D03*
D14*
X331470000Y-152400000D03*
X325120000Y-154940000D03*
D11*
X140435000Y-129540000D03*
D12*
X138430000Y-127000000D03*
D13*
X133350000Y-127000000D03*
D12*
X128270000Y-127000000D03*
D11*
X127508000Y-132080000D03*
D14*
X137160000Y-129540000D03*
X130810000Y-132080000D03*
D11*
X357605000Y-148590000D03*
D12*
X355600000Y-146050000D03*
D13*
X350520000Y-146050000D03*
D12*
X345440000Y-146050000D03*
D11*
X344678000Y-151130000D03*
D14*
X354330000Y-148590000D03*
X347980000Y-151130000D03*
D11*
X133291250Y-148590000D03*
D12*
X131286250Y-146050000D03*
D13*
X126206250Y-146050000D03*
D12*
X121126250Y-146050000D03*
D11*
X120364250Y-151130000D03*
D14*
X130016250Y-148590000D03*
X123666250Y-151130000D03*
D11*
X109478750Y-148590000D03*
D12*
X107473750Y-146050000D03*
D13*
X102393750Y-146050000D03*
D12*
X97313750Y-146050000D03*
D11*
X96551750Y-151130000D03*
D14*
X106203750Y-148590000D03*
X99853750Y-151130000D03*
D15*
X87000000Y-136525000D03*
X295300000Y-136500000D03*
D11*
X121385000Y-110490000D03*
D12*
X119380000Y-107950000D03*
D13*
X114300000Y-107950000D03*
D12*
X109220000Y-107950000D03*
D11*
X108458000Y-113030000D03*
D14*
X118110000Y-110490000D03*
X111760000Y-113030000D03*
D16*
X200500000Y-131575000D03*
D17*
X200500000Y-129035000D03*
D11*
X235685000Y-129540000D03*
D12*
X233680000Y-127000000D03*
D13*
X228600000Y-127000000D03*
D12*
X223520000Y-127000000D03*
D11*
X222758000Y-132080000D03*
D14*
X232410000Y-129540000D03*
X226060000Y-132080000D03*
D11*
X197585000Y-129540000D03*
D12*
X195580000Y-127000000D03*
D13*
X190500000Y-127000000D03*
D12*
X185420000Y-127000000D03*
D11*
X184658000Y-132080000D03*
D14*
X194310000Y-129540000D03*
X187960000Y-132080000D03*
D11*
X292835000Y-91440000D03*
D12*
X290830000Y-88900000D03*
D13*
X285750000Y-88900000D03*
D12*
X280670000Y-88900000D03*
D11*
X279908000Y-93980000D03*
D14*
X289560000Y-91440000D03*
X283210000Y-93980000D03*
D11*
X188060000Y-148590000D03*
D12*
X186055000Y-146050000D03*
D13*
X180975000Y-146050000D03*
D12*
X175895000Y-146050000D03*
D11*
X175133000Y-151130000D03*
D14*
X184785000Y-148590000D03*
X178435000Y-151130000D03*
D11*
X273785000Y-129540000D03*
D12*
X271780000Y-127000000D03*
D13*
X266700000Y-127000000D03*
D12*
X261620000Y-127000000D03*
D11*
X260858000Y-132080000D03*
D14*
X270510000Y-129540000D03*
X264160000Y-132080000D03*
D11*
X292835000Y-110490000D03*
D12*
X290830000Y-107950000D03*
D13*
X285750000Y-107950000D03*
D12*
X280670000Y-107950000D03*
D11*
X279908000Y-113030000D03*
D14*
X289560000Y-110490000D03*
X283210000Y-113030000D03*
D11*
X266641250Y-148590000D03*
D12*
X264636250Y-146050000D03*
D13*
X259556250Y-146050000D03*
D12*
X254476250Y-146050000D03*
D11*
X253714250Y-151130000D03*
D14*
X263366250Y-148590000D03*
X257016250Y-151130000D03*
D11*
X159485000Y-129540000D03*
D12*
X157480000Y-127000000D03*
D13*
X152400000Y-127000000D03*
D12*
X147320000Y-127000000D03*
D11*
X146558000Y-132080000D03*
D14*
X156210000Y-129540000D03*
X149860000Y-132080000D03*
D15*
X161925000Y-98425000D03*
D11*
X338555000Y-110490000D03*
D12*
X336550000Y-107950000D03*
D13*
X331470000Y-107950000D03*
D12*
X326390000Y-107950000D03*
D11*
X325628000Y-113030000D03*
D14*
X335280000Y-110490000D03*
X328930000Y-113030000D03*
D11*
X273785000Y-110490000D03*
D12*
X271780000Y-107950000D03*
D13*
X266700000Y-107950000D03*
D12*
X261620000Y-107950000D03*
D11*
X260858000Y-113030000D03*
D14*
X270510000Y-110490000D03*
X264160000Y-113030000D03*
D11*
X357605000Y-129540000D03*
D12*
X355600000Y-127000000D03*
D13*
X350520000Y-127000000D03*
D12*
X345440000Y-127000000D03*
D11*
X344678000Y-132080000D03*
D14*
X354330000Y-129540000D03*
X347980000Y-132080000D03*
D11*
X121385000Y-91440000D03*
D12*
X119380000Y-88900000D03*
D13*
X114300000Y-88900000D03*
D12*
X109220000Y-88900000D03*
D11*
X108458000Y-93980000D03*
D14*
X118110000Y-91440000D03*
X111760000Y-93980000D03*
D11*
X157103750Y-148590000D03*
D12*
X155098750Y-146050000D03*
D13*
X150018750Y-146050000D03*
D12*
X144938750Y-146050000D03*
D11*
X144176750Y-151130000D03*
D14*
X153828750Y-148590000D03*
X147478750Y-151130000D03*
D11*
X338555000Y-91440000D03*
D12*
X336550000Y-88900000D03*
D13*
X331470000Y-88900000D03*
D12*
X326390000Y-88900000D03*
D11*
X325628000Y-93980000D03*
D14*
X335280000Y-91440000D03*
X328930000Y-93980000D03*
D11*
X315695000Y-133350000D03*
D12*
X313690000Y-130810000D03*
D13*
X308610000Y-130810000D03*
D12*
X303530000Y-130810000D03*
D11*
X302768000Y-135890000D03*
D14*
X312420000Y-133350000D03*
X306070000Y-135890000D03*
D11*
X338555000Y-129540000D03*
D12*
X336550000Y-127000000D03*
D13*
X331470000Y-127000000D03*
D12*
X326390000Y-127000000D03*
D11*
X325628000Y-132080000D03*
D14*
X335280000Y-129540000D03*
X328930000Y-132080000D03*
D11*
X357605000Y-91440000D03*
D12*
X355600000Y-88900000D03*
D13*
X350520000Y-88900000D03*
D12*
X345440000Y-88900000D03*
D11*
X344678000Y-93980000D03*
D14*
X354330000Y-91440000D03*
X347980000Y-93980000D03*
D15*
X238100000Y-98425000D03*
D11*
X102335000Y-110490000D03*
D12*
X100330000Y-107950000D03*
D13*
X95250000Y-107950000D03*
D12*
X90170000Y-107950000D03*
D11*
X89408000Y-113030000D03*
D14*
X99060000Y-110490000D03*
X92710000Y-113030000D03*
D11*
X254735000Y-129540000D03*
D12*
X252730000Y-127000000D03*
D13*
X247650000Y-127000000D03*
D12*
X242570000Y-127000000D03*
D11*
X241808000Y-132080000D03*
D14*
X251460000Y-129540000D03*
X245110000Y-132080000D03*
D11*
X83285000Y-129540000D03*
D12*
X81280000Y-127000000D03*
D13*
X76200000Y-127000000D03*
D12*
X71120000Y-127000000D03*
D11*
X70358000Y-132080000D03*
D14*
X80010000Y-129540000D03*
X73660000Y-132080000D03*
D11*
X254735000Y-110490000D03*
D12*
X252730000Y-107950000D03*
D13*
X247650000Y-107950000D03*
D12*
X242570000Y-107950000D03*
D11*
X241808000Y-113030000D03*
D14*
X251460000Y-110490000D03*
X245110000Y-113030000D03*
D11*
X216635000Y-129540000D03*
D12*
X214630000Y-127000000D03*
D13*
X209550000Y-127000000D03*
D12*
X204470000Y-127000000D03*
D11*
X203708000Y-132080000D03*
D14*
X213360000Y-129540000D03*
X207010000Y-132080000D03*
D11*
X102335000Y-129540000D03*
D12*
X100330000Y-127000000D03*
D13*
X95250000Y-127000000D03*
D12*
X90170000Y-127000000D03*
D11*
X89408000Y-132080000D03*
D14*
X99060000Y-129540000D03*
X92710000Y-132080000D03*
D11*
X102335000Y-91440000D03*
D12*
X100330000Y-88900000D03*
D13*
X95250000Y-88900000D03*
D12*
X90170000Y-88900000D03*
D11*
X89408000Y-93980000D03*
D14*
X99060000Y-91440000D03*
X92710000Y-93980000D03*
D11*
X140435000Y-91440000D03*
D12*
X138430000Y-88900000D03*
D13*
X133350000Y-88900000D03*
D12*
X128270000Y-88900000D03*
D11*
X127508000Y-93980000D03*
D14*
X137160000Y-91440000D03*
X130810000Y-93980000D03*
D11*
X235685000Y-91440000D03*
D12*
X233680000Y-88900000D03*
D13*
X228600000Y-88900000D03*
D12*
X223520000Y-88900000D03*
D11*
X222758000Y-93980000D03*
D14*
X232410000Y-91440000D03*
X226060000Y-93980000D03*
D11*
X235685000Y-110490000D03*
D12*
X233680000Y-107950000D03*
D13*
X228600000Y-107950000D03*
D12*
X223520000Y-107950000D03*
D11*
X222758000Y-113030000D03*
D14*
X232410000Y-110490000D03*
X226060000Y-113030000D03*
D11*
X83285000Y-91440000D03*
D12*
X81280000Y-88900000D03*
D13*
X76200000Y-88900000D03*
D12*
X71120000Y-88900000D03*
D11*
X70358000Y-93980000D03*
D14*
X80010000Y-91440000D03*
X73660000Y-93980000D03*
D11*
X376655000Y-91440000D03*
D12*
X374650000Y-88900000D03*
D13*
X369570000Y-88900000D03*
D12*
X364490000Y-88900000D03*
D11*
X363728000Y-93980000D03*
D14*
X373380000Y-91440000D03*
X367030000Y-93980000D03*
D11*
X254735000Y-91440000D03*
D12*
X252730000Y-88900000D03*
D13*
X247650000Y-88900000D03*
D12*
X242570000Y-88900000D03*
D11*
X241808000Y-93980000D03*
D14*
X251460000Y-91440000D03*
X245110000Y-93980000D03*
D11*
X178535000Y-110490000D03*
D12*
X176530000Y-107950000D03*
D13*
X171450000Y-107950000D03*
D12*
X166370000Y-107950000D03*
D11*
X165608000Y-113030000D03*
D14*
X175260000Y-110490000D03*
X168910000Y-113030000D03*
D11*
X178535000Y-129540000D03*
D12*
X176530000Y-127000000D03*
D13*
X171450000Y-127000000D03*
D12*
X166370000Y-127000000D03*
D11*
X165608000Y-132080000D03*
D14*
X175260000Y-129540000D03*
X168910000Y-132080000D03*
D11*
X216635000Y-110490000D03*
D12*
X214630000Y-107950000D03*
D13*
X209550000Y-107950000D03*
D12*
X204470000Y-107950000D03*
D11*
X203708000Y-113030000D03*
D14*
X213360000Y-110490000D03*
X207010000Y-113030000D03*
D11*
X159485000Y-110490000D03*
D12*
X157480000Y-107950000D03*
D13*
X152400000Y-107950000D03*
D12*
X147320000Y-107950000D03*
D11*
X146558000Y-113030000D03*
D14*
X156210000Y-110490000D03*
X149860000Y-113030000D03*
D11*
X159485000Y-91440000D03*
D12*
X157480000Y-88900000D03*
D13*
X152400000Y-88900000D03*
D12*
X147320000Y-88900000D03*
D11*
X146558000Y-93980000D03*
D14*
X156210000Y-91440000D03*
X149860000Y-93980000D03*
D11*
X273785000Y-91440000D03*
D12*
X271780000Y-88900000D03*
D13*
X266700000Y-88900000D03*
D12*
X261620000Y-88900000D03*
D11*
X260858000Y-93980000D03*
D14*
X270510000Y-91440000D03*
X264160000Y-93980000D03*
D11*
X216635000Y-91440000D03*
D12*
X214630000Y-88900000D03*
D13*
X209550000Y-88900000D03*
D12*
X204470000Y-88900000D03*
D11*
X203708000Y-93980000D03*
D14*
X213360000Y-91440000D03*
X207010000Y-93980000D03*
D11*
X83285000Y-110490000D03*
D12*
X81280000Y-107950000D03*
D13*
X76200000Y-107950000D03*
D12*
X71120000Y-107950000D03*
D11*
X70358000Y-113030000D03*
D14*
X80010000Y-110490000D03*
X73660000Y-113030000D03*
D11*
X357605000Y-110490000D03*
D12*
X355600000Y-107950000D03*
D13*
X350520000Y-107950000D03*
D12*
X345440000Y-107950000D03*
D11*
X344678000Y-113030000D03*
D14*
X354330000Y-110490000D03*
X347980000Y-113030000D03*
D11*
X242828750Y-148590000D03*
D12*
X240823750Y-146050000D03*
D13*
X235743750Y-146050000D03*
D12*
X230663750Y-146050000D03*
D11*
X229901750Y-151130000D03*
D14*
X239553750Y-148590000D03*
X233203750Y-151130000D03*
D15*
X161925000Y-136525000D03*
D11*
X85666250Y-148590000D03*
D12*
X83661250Y-146050000D03*
D13*
X78581250Y-146050000D03*
D12*
X73501250Y-146050000D03*
D11*
X72739250Y-151130000D03*
D14*
X82391250Y-148590000D03*
X76041250Y-151130000D03*
D11*
X292835000Y-129540000D03*
D12*
X290830000Y-127000000D03*
D13*
X285750000Y-127000000D03*
D12*
X280670000Y-127000000D03*
D11*
X279908000Y-132080000D03*
D14*
X289560000Y-129540000D03*
X283210000Y-132080000D03*
D11*
X315695000Y-152400000D03*
D12*
X313690000Y-149860000D03*
D13*
X308610000Y-149860000D03*
D12*
X303530000Y-149860000D03*
D11*
X302768000Y-154940000D03*
D14*
X312420000Y-152400000D03*
X306070000Y-154940000D03*
D11*
X197585000Y-110490000D03*
D12*
X195580000Y-107950000D03*
D13*
X190500000Y-107950000D03*
D12*
X185420000Y-107950000D03*
D11*
X184658000Y-113030000D03*
D14*
X194310000Y-110490000D03*
X187960000Y-113030000D03*
D11*
X178535000Y-91440000D03*
D12*
X176530000Y-88900000D03*
D13*
X171450000Y-88900000D03*
D12*
X166370000Y-88900000D03*
D11*
X165608000Y-93980000D03*
D14*
X175260000Y-91440000D03*
X168910000Y-93980000D03*
D11*
X311885000Y-91440000D03*
D12*
X309880000Y-88900000D03*
D13*
X304800000Y-88900000D03*
D12*
X299720000Y-88900000D03*
D11*
X298958000Y-93980000D03*
D14*
X308610000Y-91440000D03*
X302260000Y-93980000D03*
D15*
X360045000Y-136525000D03*
D11*
X121385000Y-129540000D03*
D12*
X119380000Y-127000000D03*
D13*
X114300000Y-127000000D03*
D12*
X109220000Y-127000000D03*
D11*
X108458000Y-132080000D03*
D14*
X118110000Y-129540000D03*
X111760000Y-132080000D03*
D15*
X360045000Y-98425000D03*
D11*
X376655000Y-148590000D03*
D12*
X374650000Y-146050000D03*
D13*
X369570000Y-146050000D03*
D12*
X364490000Y-146050000D03*
D11*
X363728000Y-151130000D03*
D14*
X373380000Y-148590000D03*
X367030000Y-151130000D03*
D11*
X296645000Y-152400000D03*
D12*
X294640000Y-149860000D03*
D13*
X289560000Y-149860000D03*
D12*
X284480000Y-149860000D03*
D11*
X283718000Y-154940000D03*
D14*
X293370000Y-152400000D03*
X287020000Y-154940000D03*
D15*
X85725000Y-98425000D03*
D11*
X311885000Y-110490000D03*
D12*
X309880000Y-107950000D03*
D13*
X304800000Y-107950000D03*
D12*
X299720000Y-107950000D03*
D11*
X298958000Y-113030000D03*
D14*
X308610000Y-110490000D03*
X302260000Y-113030000D03*
D11*
X219016250Y-148590000D03*
D12*
X217011250Y-146050000D03*
D13*
X211931250Y-146050000D03*
D12*
X206851250Y-146050000D03*
D11*
X206089250Y-151130000D03*
D14*
X215741250Y-148590000D03*
X209391250Y-151130000D03*
D11*
X376655000Y-110490000D03*
D12*
X374650000Y-107950000D03*
D13*
X369570000Y-107950000D03*
D12*
X364490000Y-107950000D03*
D11*
X363728000Y-113030000D03*
D14*
X373380000Y-110490000D03*
X367030000Y-113030000D03*
D15*
X318100000Y-98400000D03*
D18*
X70750000Y-135600000D03*
X74050000Y-135600000D03*
D19*
X305610000Y-143860000D03*
X305610000Y-145360000D03*
X311610000Y-145360000D03*
X311610000Y-143860000D03*
D20*
X243700000Y-100980000D03*
X243700000Y-100020000D03*
D21*
X193350000Y-151850001D03*
X193350000Y-153749999D03*
D22*
X232000000Y-123520000D03*
X232000000Y-124480000D03*
D19*
X353520000Y-122600000D03*
X353520000Y-121100000D03*
X347520000Y-121100000D03*
X347520000Y-122600000D03*
X193500000Y-84500000D03*
X193500000Y-83000000D03*
X187500000Y-83000000D03*
X187500000Y-84500000D03*
D22*
X155800000Y-123520000D03*
X155800000Y-124480000D03*
D23*
X137650000Y-98500000D03*
X134350000Y-98500000D03*
D24*
X343100000Y-105550000D03*
X343100000Y-108850000D03*
D25*
X128580000Y-102600000D03*
X127620000Y-102600000D03*
D24*
X223600000Y-143450000D03*
X223600000Y-146750000D03*
X124500000Y-90850000D03*
X124500000Y-94150000D03*
D19*
X250650000Y-84500000D03*
X250650000Y-83000000D03*
X244650000Y-83000000D03*
X244650000Y-84500000D03*
X98250000Y-122600000D03*
X98250000Y-121100000D03*
X92250000Y-121100000D03*
X92250000Y-122600000D03*
D24*
X226800000Y-143450000D03*
X226800000Y-146750000D03*
X277000000Y-86350000D03*
X277000000Y-89650000D03*
X323000000Y-105450000D03*
X323000000Y-108750000D03*
X124350000Y-124350000D03*
X124350000Y-127650000D03*
D19*
X75581250Y-140050000D03*
X75581250Y-141550000D03*
X81581250Y-141550000D03*
X81581250Y-140050000D03*
D22*
X353900000Y-123520000D03*
X353900000Y-124480000D03*
D24*
X162450000Y-124350000D03*
X162450000Y-127650000D03*
D25*
X110680000Y-101000000D03*
X109720000Y-101000000D03*
D26*
X72800000Y-142609999D03*
X72800000Y-141590001D03*
D25*
X191229999Y-137800000D03*
X190269999Y-137800000D03*
D20*
X196349999Y-138680000D03*
X196349999Y-137720000D03*
D22*
X270100000Y-123520000D03*
X270100000Y-124480000D03*
D24*
X200550000Y-105450000D03*
X200550000Y-108750000D03*
D19*
X92250000Y-101950000D03*
X92250000Y-103450000D03*
X98250000Y-103450000D03*
X98250000Y-101950000D03*
D20*
X365700000Y-100980000D03*
X365700000Y-100020000D03*
D22*
X270080000Y-85720000D03*
X270080000Y-86680000D03*
D19*
X311610000Y-126410000D03*
X311610000Y-124910000D03*
X305610000Y-124910000D03*
X305610000Y-126410000D03*
D24*
X257700000Y-105450000D03*
X257700000Y-108750000D03*
D27*
X341650000Y-97400000D03*
D28*
X340350000Y-97400000D03*
D19*
X136350000Y-122600000D03*
X136350000Y-121100000D03*
X130350000Y-121100000D03*
X130350000Y-122600000D03*
D22*
X195350000Y-149120000D03*
X195350000Y-150080000D03*
D26*
X194349999Y-139069998D03*
X194349999Y-138050000D03*
D22*
X174800000Y-123520000D03*
X174800000Y-124480000D03*
D20*
X281800000Y-100980000D03*
X281800000Y-100020000D03*
D24*
X299650000Y-147450000D03*
X299650000Y-150750000D03*
D22*
X334800000Y-123520000D03*
X334800000Y-124480000D03*
D20*
X255600000Y-139080000D03*
X255600000Y-138120000D03*
D19*
X250650000Y-122600000D03*
X250650000Y-121100000D03*
X244650000Y-121100000D03*
X244650000Y-122600000D03*
X117300000Y-122600000D03*
X117300000Y-121100000D03*
X111300000Y-121100000D03*
X111300000Y-122600000D03*
D24*
X181500000Y-105450000D03*
X181500000Y-108750000D03*
D19*
X334470000Y-84500000D03*
X334470000Y-83000000D03*
X328470000Y-83000000D03*
X328470000Y-84500000D03*
D22*
X98620000Y-123520000D03*
X98620000Y-124480000D03*
D19*
X79200000Y-84499999D03*
X79200000Y-82999999D03*
X73200000Y-82999999D03*
X73200000Y-84499999D03*
D25*
X74680000Y-138800000D03*
X73720000Y-138800000D03*
D19*
X206550000Y-101950000D03*
X206550000Y-103450000D03*
X212550000Y-103450000D03*
X212550000Y-101950000D03*
D24*
X360500000Y-124600000D03*
X360500000Y-127900000D03*
D25*
X191229998Y-136800000D03*
X190269998Y-136800000D03*
D19*
X328470000Y-101950000D03*
X328470000Y-103450000D03*
X334470000Y-103450000D03*
X334470000Y-101950000D03*
D16*
X162000000Y-149250000D03*
D17*
X164540000Y-149250000D03*
X167079999Y-149250000D03*
X169620000Y-149250000D03*
D19*
X212550000Y-84500000D03*
X212550000Y-83000000D03*
X206550000Y-83000000D03*
X206550000Y-84500000D03*
X231600000Y-122600000D03*
X231600000Y-121100000D03*
X225600000Y-121100000D03*
X225600000Y-122600000D03*
D29*
X197309999Y-149050000D03*
X196290001Y-149050000D03*
D30*
X198220000Y-150053838D03*
X199180000Y-150053838D03*
D31*
X104450001Y-89062500D03*
X105400000Y-89062500D03*
X106349999Y-89062500D03*
X106349999Y-91337500D03*
X105400000Y-91337500D03*
X104450001Y-91337500D03*
D24*
X280600000Y-147450000D03*
X280600000Y-150750000D03*
X92600000Y-143650000D03*
X92600000Y-146950000D03*
D32*
X195350000Y-138050000D03*
X195350000Y-139069998D03*
D30*
X81020000Y-84500000D03*
X81980000Y-84500000D03*
D24*
X181600000Y-86350000D03*
X181600000Y-89650000D03*
D25*
X122880000Y-139100000D03*
X121920000Y-139100000D03*
D19*
X288750000Y-122600000D03*
X288750000Y-121100000D03*
X282750000Y-121100000D03*
X282750000Y-122600000D03*
D20*
X193249999Y-138280000D03*
X193249999Y-137320000D03*
D16*
X162000000Y-145500000D03*
D17*
X164540000Y-145500000D03*
X167080000Y-145500000D03*
X169620000Y-145500000D03*
D24*
X200500000Y-122150000D03*
X200500000Y-125450000D03*
D20*
X262800000Y-100980000D03*
X262800000Y-100020000D03*
X205500000Y-101080000D03*
X205500000Y-100120000D03*
X186600000Y-100980000D03*
X186600000Y-100020000D03*
D33*
X101860000Y-84040000D03*
X107640000Y-84040000D03*
D34*
X101500000Y-85485000D03*
X102300000Y-85485000D03*
D35*
X103500000Y-85485000D03*
X104500000Y-85485000D03*
X105000000Y-85485000D03*
X106000000Y-85485000D03*
D34*
X107200000Y-85485000D03*
X108000000Y-85485000D03*
X108000000Y-85485000D03*
X107200000Y-85485000D03*
D35*
X106500000Y-85485000D03*
X105500000Y-85485000D03*
X104000000Y-85485000D03*
X103000000Y-85485000D03*
D34*
X102300000Y-85485000D03*
X101500000Y-85485000D03*
D36*
X100430000Y-80390000D03*
D37*
X100430000Y-84570000D03*
D36*
X109070000Y-80390000D03*
D37*
X109070000Y-84570000D03*
D24*
X343100000Y-143650000D03*
X343100000Y-146950000D03*
D19*
X347520000Y-101950000D03*
X347520000Y-103450000D03*
X353520000Y-103450000D03*
X353520000Y-101950000D03*
X334470000Y-122600000D03*
X334470000Y-121100000D03*
X328470000Y-121100000D03*
X328470000Y-122600000D03*
X155400000Y-122600000D03*
X155400000Y-121100000D03*
X149400000Y-121100000D03*
X149400000Y-122600000D03*
D29*
X103509999Y-87250000D03*
X102490001Y-87250000D03*
D19*
X212550000Y-122600000D03*
X212550000Y-121100000D03*
X206550000Y-121100000D03*
X206550000Y-122600000D03*
D22*
X212900000Y-85720000D03*
X212900000Y-86680000D03*
D24*
X276750000Y-124350000D03*
X276750000Y-127650000D03*
X258000000Y-86350000D03*
X258000000Y-89650000D03*
D22*
X136700000Y-85720000D03*
X136700000Y-86680000D03*
D24*
X162600000Y-86350000D03*
X162600000Y-89650000D03*
D22*
X136700000Y-123520000D03*
X136700000Y-124480000D03*
D19*
X136350000Y-84500000D03*
X136350000Y-83000000D03*
X130350000Y-83000000D03*
X130350000Y-84500000D03*
X263700000Y-101950000D03*
X263700000Y-103450000D03*
X269700000Y-103450000D03*
X269700000Y-101950000D03*
D22*
X98700000Y-85820000D03*
X98700000Y-86780000D03*
D24*
X343100000Y-86950000D03*
X343100000Y-90250000D03*
D18*
X184750000Y-117500000D03*
X188050000Y-117500000D03*
D22*
X289100000Y-85720000D03*
X289100000Y-86680000D03*
X117300000Y-86320000D03*
X117300000Y-87280000D03*
D29*
X201809999Y-139300000D03*
X200790001Y-139300000D03*
D38*
X340350001Y-116800000D03*
D39*
X341649999Y-116800000D03*
D19*
X130350000Y-101950000D03*
X130350000Y-103450000D03*
X136350000Y-103450000D03*
X136350000Y-101950000D03*
D22*
X251000000Y-123520000D03*
X251000000Y-124480000D03*
D25*
X216180000Y-142600000D03*
X215220000Y-142600000D03*
D22*
X251000000Y-85720000D03*
X251000000Y-86680000D03*
X289100000Y-123520000D03*
X289100000Y-124480000D03*
D19*
X98250000Y-84500000D03*
X98250000Y-83000000D03*
X92250000Y-83000000D03*
X92250000Y-84500000D03*
D20*
X365600000Y-139080000D03*
X365600000Y-138120000D03*
D19*
X168450000Y-101950000D03*
X168450000Y-103450000D03*
X174450000Y-103450000D03*
X174450000Y-101950000D03*
X353520000Y-84500000D03*
X353520000Y-83000000D03*
X347520000Y-83000000D03*
X347520000Y-84500000D03*
D22*
X372900000Y-85720000D03*
X372900000Y-86680000D03*
D24*
X105300000Y-105450000D03*
X105300000Y-108750000D03*
X360500000Y-86350000D03*
X360500000Y-89650000D03*
X343100000Y-124700000D03*
X343100000Y-128000000D03*
X295800000Y-105450000D03*
X295800000Y-108750000D03*
X219600000Y-124350000D03*
X219600000Y-127650000D03*
X238650000Y-105450000D03*
X238650000Y-108750000D03*
D19*
X111300000Y-101950000D03*
X111300000Y-103450000D03*
X117300000Y-103450000D03*
X117300000Y-101950000D03*
D24*
X323000000Y-86350000D03*
X323000000Y-89650000D03*
X318700000Y-147450000D03*
X318700000Y-150750000D03*
X257700000Y-124350000D03*
X257700000Y-127650000D03*
D40*
X73190001Y-86500000D03*
X74209999Y-86500000D03*
D22*
X334800000Y-85720000D03*
X334800000Y-86680000D03*
D18*
X127600000Y-98500000D03*
X130900000Y-98500000D03*
D19*
X269700000Y-84500000D03*
X269700000Y-83000000D03*
X263700000Y-83000000D03*
X263700000Y-84500000D03*
D41*
X124349999Y-88250000D03*
X122450001Y-88250000D03*
D24*
X105300000Y-124350000D03*
X105300000Y-127650000D03*
D20*
X231900000Y-139080000D03*
X231900000Y-138120000D03*
X304700000Y-142980000D03*
X304700000Y-142020000D03*
D22*
X193820000Y-123520000D03*
X193820000Y-124480000D03*
D25*
X98680000Y-139000000D03*
X97720000Y-139000000D03*
D24*
X117200000Y-143650000D03*
X117200000Y-146950000D03*
D19*
X347520000Y-140050000D03*
X347520000Y-141550000D03*
X353520000Y-141550000D03*
X353520000Y-140050000D03*
D24*
X299500000Y-128250000D03*
X299500000Y-131550000D03*
X323000000Y-124100000D03*
X323000000Y-127400000D03*
D20*
X346600000Y-100980000D03*
X346600000Y-100020000D03*
D27*
X341650000Y-100000000D03*
D28*
X340350000Y-100000000D03*
D24*
X360500000Y-143600000D03*
X360500000Y-146900000D03*
D29*
X201809999Y-140300000D03*
X200790001Y-140300000D03*
D25*
X146680000Y-139100000D03*
X145720000Y-139100000D03*
X176180000Y-140100000D03*
X175220000Y-140100000D03*
D19*
X208931250Y-140050000D03*
D42*
X209031250Y-141550000D03*
D19*
X214931250Y-141550000D03*
X214931250Y-140050000D03*
X231600000Y-84500000D03*
X231600000Y-83000000D03*
X225600000Y-83000000D03*
X225600000Y-84500000D03*
D24*
X276750000Y-105450000D03*
X276750000Y-108750000D03*
X143600000Y-86850000D03*
X143600000Y-90150000D03*
D25*
X191229999Y-138800000D03*
X190269999Y-138800000D03*
D19*
X174450000Y-122600000D03*
X174450000Y-121100000D03*
X168450000Y-121100000D03*
X168450000Y-122600000D03*
D25*
X197280000Y-150053838D03*
X196320000Y-150053838D03*
D24*
X219600000Y-105450000D03*
X219600000Y-108750000D03*
D19*
X366570000Y-140050000D03*
X366570000Y-141550000D03*
X372570000Y-141550000D03*
X372570000Y-140050000D03*
D25*
X148780000Y-100900000D03*
X147820000Y-100900000D03*
D20*
X327500000Y-100980000D03*
X327500000Y-100020000D03*
D24*
X238800000Y-86350000D03*
X238800000Y-89650000D03*
D40*
X106990001Y-87250000D03*
X108009999Y-87250000D03*
D19*
X286560000Y-143860000D03*
X286560000Y-145360000D03*
X292560000Y-145360000D03*
X292560000Y-143860000D03*
D18*
X70750000Y-97600000D03*
X74050000Y-97600000D03*
D19*
X244650000Y-101950000D03*
X244650000Y-103450000D03*
X250650000Y-103450000D03*
X250650000Y-101950000D03*
D22*
X174800000Y-85720000D03*
X174800000Y-86680000D03*
D19*
X155400000Y-84500000D03*
X155400000Y-83000000D03*
X149400000Y-83000000D03*
X149400000Y-84500000D03*
D22*
X212900000Y-123520000D03*
X212900000Y-124480000D03*
D24*
X162450000Y-105450000D03*
X162450000Y-108750000D03*
D19*
X73200000Y-101950000D03*
X73200000Y-103450000D03*
X79200000Y-103450000D03*
X79200000Y-101950000D03*
X147018750Y-140050000D03*
X147018750Y-141550000D03*
X153018750Y-141550000D03*
X153018750Y-140050000D03*
X307800000Y-84500000D03*
X307800000Y-83000000D03*
X301800000Y-83000000D03*
X301800000Y-84500000D03*
D22*
X79600000Y-123520000D03*
X79600000Y-124480000D03*
D43*
X198758001Y-153658000D03*
X196558001Y-153658000D03*
X196558001Y-151958000D03*
X198758001Y-151958000D03*
D22*
X155800000Y-85720000D03*
X155800000Y-86680000D03*
X232000000Y-85720000D03*
X232000000Y-86680000D03*
D24*
X86250000Y-86850000D03*
X86250000Y-90150000D03*
X200600000Y-86350000D03*
X200600000Y-89650000D03*
D19*
X193500000Y-122600000D03*
X193500000Y-121100000D03*
X187500000Y-121100000D03*
X187500000Y-122600000D03*
X177975000Y-140050000D03*
X177975000Y-141550000D03*
X183975000Y-141550000D03*
X183975000Y-140050000D03*
X366570000Y-101950000D03*
X366570000Y-103450000D03*
X372570000Y-103450000D03*
X372570000Y-101950000D03*
D30*
X202870000Y-144300000D03*
X203830000Y-144300000D03*
D19*
X282750000Y-101950000D03*
X282750000Y-103450000D03*
X288750000Y-103450000D03*
X288750000Y-101950000D03*
X372570000Y-122600000D03*
X372570000Y-121100000D03*
X366570000Y-121100000D03*
X366570000Y-122600000D03*
D22*
X117700000Y-123520000D03*
X117700000Y-124480000D03*
D20*
X300900000Y-100980000D03*
X300900000Y-100020000D03*
D30*
X202870000Y-145300000D03*
X203830000Y-145300000D03*
D19*
X79200000Y-122600000D03*
X79200000Y-121100000D03*
X73200000Y-121100000D03*
X73200000Y-122600000D03*
D24*
X86250000Y-124350000D03*
X86250000Y-127650000D03*
X143400000Y-105450000D03*
X143400000Y-108750000D03*
D16*
X163300000Y-153000000D03*
D17*
X165840000Y-153000000D03*
X168379999Y-153000000D03*
D44*
X129300001Y-80500000D03*
X131199999Y-80500000D03*
D20*
X224700000Y-100980000D03*
X224700000Y-100020000D03*
D22*
X372900000Y-123520000D03*
X372900000Y-124480000D03*
D24*
X143400000Y-124350000D03*
X143400000Y-127650000D03*
X173100000Y-143950000D03*
X173100000Y-147250000D03*
D20*
X91300000Y-100980000D03*
X91300000Y-100020000D03*
D22*
X353900000Y-85720000D03*
X353900000Y-86680000D03*
D24*
X238650000Y-124350000D03*
X238650000Y-127650000D03*
D20*
X323700000Y-142880000D03*
X323700000Y-141920000D03*
D19*
X123206250Y-140050000D03*
X123206250Y-141550000D03*
X129206250Y-141550000D03*
X129206250Y-140050000D03*
D27*
X341650000Y-136000000D03*
D28*
X340350000Y-136000000D03*
D19*
X232743750Y-140050000D03*
X232743750Y-141550000D03*
X238743750Y-141550000D03*
X238743750Y-140050000D03*
D20*
X167500000Y-100980000D03*
X167500000Y-100020000D03*
X346600000Y-139080000D03*
X346600000Y-138120000D03*
D19*
X99393750Y-140050000D03*
X99393750Y-141550000D03*
X105393750Y-141550000D03*
X105393750Y-140050000D03*
X256556250Y-140050000D03*
X256556250Y-141550000D03*
X262556250Y-141550000D03*
X262556250Y-140050000D03*
X149400000Y-101950000D03*
X149400000Y-103450000D03*
X155400000Y-103450000D03*
X155400000Y-101950000D03*
D45*
X207055000Y-142600000D03*
X205785000Y-142600000D03*
X204515000Y-142600000D03*
X203245000Y-142600000D03*
X203245000Y-135400000D03*
X204515000Y-135400000D03*
X205785000Y-135400000D03*
X207055000Y-135400000D03*
D46*
X120850000Y-85800000D03*
X120850001Y-83500000D03*
D47*
X127149999Y-83500000D03*
D46*
X120850000Y-81200000D03*
D19*
X372570000Y-84500000D03*
X372570000Y-83000000D03*
X366570000Y-83000000D03*
X366570000Y-84500000D03*
D24*
X296000000Y-86350000D03*
X296000000Y-89650000D03*
D19*
X288750000Y-84500000D03*
X288750000Y-83000000D03*
X282750000Y-83000000D03*
X282750000Y-84500000D03*
D30*
X202870000Y-147300000D03*
X203830000Y-147300000D03*
D27*
X341649999Y-138600000D03*
D28*
X340350001Y-138600000D03*
D48*
X199587499Y-141259999D03*
X199587499Y-141660000D03*
X199587499Y-142059999D03*
X199587499Y-142459999D03*
X199587499Y-142859999D03*
X199587499Y-143259998D03*
X199587499Y-143659999D03*
X199587499Y-144059999D03*
X199587499Y-144460000D03*
X199587499Y-144859999D03*
X199587499Y-145259999D03*
X199587499Y-145659999D03*
X199587499Y-146059998D03*
X199587499Y-146459999D03*
D49*
X198749999Y-147297499D03*
X198349998Y-147297499D03*
X197949999Y-147297499D03*
X197549999Y-147297499D03*
X197149999Y-147297499D03*
X196750000Y-147297499D03*
X196349999Y-147297499D03*
X195949999Y-147297499D03*
X195549998Y-147297499D03*
X195149999Y-147297499D03*
X194749999Y-147297499D03*
X194349999Y-147297499D03*
X193950000Y-147297499D03*
X193549999Y-147297499D03*
D48*
X192712499Y-146459999D03*
X192712499Y-146059998D03*
X192712499Y-145659999D03*
X192712499Y-145259999D03*
X192712499Y-144859999D03*
X192712499Y-144460000D03*
X192712499Y-144059999D03*
X192712499Y-143659999D03*
X192712499Y-143259998D03*
X192712499Y-142859999D03*
X192712499Y-142459999D03*
X192712499Y-142059999D03*
X192712499Y-141660000D03*
X192712499Y-141259999D03*
D49*
X193549999Y-140422499D03*
X193950000Y-140422499D03*
X194349999Y-140422499D03*
X194749999Y-140422499D03*
X195149999Y-140422499D03*
X195549998Y-140422499D03*
X195949999Y-140422499D03*
X196349999Y-140422499D03*
X196750000Y-140422499D03*
X197149999Y-140422499D03*
X197549999Y-140422499D03*
X197949999Y-140422499D03*
X198349998Y-140422499D03*
X198749999Y-140422499D03*
D50*
X196149999Y-143859999D03*
D24*
X141100000Y-143650000D03*
X141100000Y-146950000D03*
X250600000Y-143450000D03*
X250600000Y-146750000D03*
D19*
X301800000Y-101950000D03*
X301800000Y-103450000D03*
X307800000Y-103450000D03*
X307800000Y-101950000D03*
X269700000Y-122600000D03*
X269700000Y-121100000D03*
X263700000Y-121100000D03*
X263700000Y-122600000D03*
D20*
X285600000Y-142880000D03*
X285600000Y-141920000D03*
D24*
X89200000Y-143650000D03*
X89200000Y-146950000D03*
D22*
X193900000Y-85720000D03*
X193900000Y-86680000D03*
D24*
X219600000Y-86350000D03*
X219600000Y-89650000D03*
D19*
X225600000Y-101950000D03*
X225600000Y-103450000D03*
X231600000Y-103450000D03*
X231600000Y-101950000D03*
D24*
X360500000Y-105450000D03*
X360500000Y-108750000D03*
D19*
X117300000Y-84500000D03*
X117300000Y-83000000D03*
X111300000Y-83000000D03*
X111300000Y-84500000D03*
X324660000Y-143860000D03*
X324660000Y-145360000D03*
X330660000Y-145360000D03*
X330660000Y-143860000D03*
X187500000Y-101950000D03*
X187500000Y-103450000D03*
X193500000Y-103450000D03*
X193500000Y-101950000D03*
D18*
X70750000Y-116600000D03*
X74050000Y-116600000D03*
D27*
X341650000Y-119400000D03*
D28*
X340350000Y-119400000D03*
D19*
X174450000Y-84500000D03*
X174450000Y-83000000D03*
X168450000Y-83000000D03*
X168450000Y-84500000D03*
D20*
X192249999Y-139180000D03*
X192249999Y-138220000D03*
D24*
X86250000Y-105450000D03*
X86250000Y-108750000D03*
D20*
X72300000Y-100980000D03*
X72300000Y-100020000D03*
D22*
X312000000Y-127420000D03*
X312000000Y-128380000D03*
X308200000Y-85720000D03*
X308200000Y-86680000D03*
D25*
X191230000Y-139800000D03*
X190270000Y-139800000D03*
D30*
X202870000Y-146300000D03*
X203830000Y-146300000D03*
D38*
X340350001Y-82300000D03*
D39*
X341649999Y-82300000D03*
M02*
