M48
; DRILL file {KiCad 8.0.1} date 2024-09-30T21:17:25+0200
; FORMAT={-:-/ absolute / metric / decimal}
; #@! TF.CreationDate,2024-09-30T21:17:25+02:00
; #@! TF.GenerationSoftware,Kicad,Pcbnew,8.0.1
; #@! TF.FileFunction,NonPlated,1,2,NPTH
FMAT,2
METRIC
; #@! TA.AperFunction,NonPlated,NPTH,ComponentDrill
T1C0.650
; #@! TA.AperFunction,NonPlated,NPTH,ComponentDrill
T2C1.750
; #@! TA.AperFunction,NonPlated,NPTH,ComponentDrill
T3C2.200
; #@! TA.AperFunction,NonPlated,NPTH,ComponentDrill
T4C4.000
%
G90
G05
T1
X101.86Y-84.04
X107.64Y-84.04
T2
X71.12Y-88.9
X71.12Y-107.95
X71.12Y-127.0
X73.501Y-146.05
X81.28Y-88.9
X81.28Y-107.95
X81.28Y-127.0
X83.661Y-146.05
X90.17Y-88.9
X90.17Y-107.95
X90.17Y-127.0
X97.314Y-146.05
X100.33Y-88.9
X100.33Y-107.95
X100.33Y-127.0
X107.474Y-146.05
X109.22Y-88.9
X109.22Y-107.95
X109.22Y-127.0
X119.38Y-88.9
X119.38Y-107.95
X119.38Y-127.0
X121.126Y-146.05
X128.27Y-88.9
X128.27Y-107.95
X128.27Y-127.0
X131.286Y-146.05
X138.43Y-88.9
X138.43Y-107.95
X138.43Y-127.0
X144.939Y-146.05
X147.32Y-88.9
X147.32Y-107.95
X147.32Y-127.0
X155.099Y-146.05
X157.48Y-88.9
X157.48Y-107.95
X157.48Y-127.0
X166.37Y-88.9
X166.37Y-107.95
X166.37Y-127.0
X175.895Y-146.05
X176.53Y-88.9
X176.53Y-107.95
X176.53Y-127.0
X185.42Y-88.9
X185.42Y-107.95
X185.42Y-127.0
X186.055Y-146.05
X195.58Y-88.9
X195.58Y-107.95
X195.58Y-127.0
X204.47Y-88.9
X204.47Y-107.95
X204.47Y-127.0
X206.851Y-146.05
X214.63Y-88.9
X214.63Y-107.95
X214.63Y-127.0
X217.011Y-146.05
X223.52Y-88.9
X223.52Y-107.95
X223.52Y-127.0
X230.664Y-146.05
X233.68Y-88.9
X233.68Y-107.95
X233.68Y-127.0
X240.824Y-146.05
X242.57Y-88.9
X242.57Y-107.95
X242.57Y-127.0
X252.73Y-88.9
X252.73Y-107.95
X252.73Y-127.0
X254.476Y-146.05
X261.62Y-88.9
X261.62Y-107.95
X261.62Y-127.0
X264.636Y-146.05
X271.78Y-88.9
X271.78Y-107.95
X271.78Y-127.0
X280.67Y-88.9
X280.67Y-107.95
X280.67Y-127.0
X284.48Y-149.86
X290.83Y-88.9
X290.83Y-107.95
X290.83Y-127.0
X294.64Y-149.86
X299.72Y-88.9
X299.72Y-107.95
X303.53Y-130.81
X303.53Y-149.86
X309.88Y-88.9
X309.88Y-107.95
X313.69Y-130.81
X313.69Y-149.86
X322.58Y-149.86
X326.39Y-88.9
X326.39Y-107.95
X326.39Y-127.0
X332.74Y-149.86
X336.55Y-88.9
X336.55Y-107.95
X336.55Y-127.0
X345.44Y-88.9
X345.44Y-107.95
X345.44Y-127.0
X345.44Y-146.05
X355.6Y-88.9
X355.6Y-107.95
X355.6Y-127.0
X355.6Y-146.05
X364.49Y-88.9
X364.49Y-107.95
X364.49Y-127.0
X364.49Y-146.05
X374.65Y-88.9
X374.65Y-107.95
X374.65Y-127.0
X374.65Y-146.05
T3
X85.725Y-98.425
X87.0Y-136.525
X161.925Y-98.425
X161.925Y-136.525
X238.1Y-98.425
X295.3Y-136.5
X318.1Y-98.4
X360.045Y-98.425
X360.045Y-136.525
T4
X76.2Y-88.9
X76.2Y-107.95
X76.2Y-127.0
X78.581Y-146.05
X95.25Y-88.9
X95.25Y-107.95
X95.25Y-127.0
X102.394Y-146.05
X114.3Y-88.9
X114.3Y-107.95
X114.3Y-127.0
X126.206Y-146.05
X133.35Y-88.9
X133.35Y-107.95
X133.35Y-127.0
X150.019Y-146.05
X152.4Y-88.9
X152.4Y-107.95
X152.4Y-127.0
X171.45Y-88.9
X171.45Y-107.95
X171.45Y-127.0
X180.975Y-146.05
X190.5Y-88.9
X190.5Y-107.95
X190.5Y-127.0
X209.55Y-88.9
X209.55Y-107.95
X209.55Y-127.0
X211.931Y-146.05
X228.6Y-88.9
X228.6Y-107.95
X228.6Y-127.0
X235.744Y-146.05
X247.65Y-88.9
X247.65Y-107.95
X247.65Y-127.0
X259.556Y-146.05
X266.7Y-88.9
X266.7Y-107.95
X266.7Y-127.0
X285.75Y-88.9
X285.75Y-107.95
X285.75Y-127.0
X289.56Y-149.86
X304.8Y-88.9
X304.8Y-107.95
X308.61Y-130.81
X308.61Y-149.86
X327.66Y-149.86
X331.47Y-88.9
X331.47Y-107.95
X331.47Y-127.0
X350.52Y-88.9
X350.52Y-107.95
X350.52Y-127.0
X350.52Y-146.05
X369.57Y-88.9
X369.57Y-107.95
X369.57Y-127.0
X369.57Y-146.05
M30
