G04 #@! TF.GenerationSoftware,KiCad,Pcbnew,8.0.1*
G04 #@! TF.CreationDate,2024-09-05T19:41:52+02:00*
G04 #@! TF.ProjectId,Mimic40,4d696d69-6334-4302-9e6b-696361645f70,rev?*
G04 #@! TF.SameCoordinates,Original*
G04 #@! TF.FileFunction,Legend,Top*
G04 #@! TF.FilePolarity,Positive*
%FSLAX46Y46*%
G04 Gerber Fmt 4.6, Leading zero omitted, Abs format (unit mm)*
G04 Created by KiCad (PCBNEW 8.0.1) date 2024-09-05 19:41:52*
%MOMM*%
%LPD*%
G01*
G04 APERTURE LIST*
%ADD10C,0.150000*%
%ADD11C,0.120000*%
G04 APERTURE END LIST*
D10*
X200166666Y-133359819D02*
X200166666Y-134074104D01*
X200166666Y-134074104D02*
X200119047Y-134216961D01*
X200119047Y-134216961D02*
X200023809Y-134312200D01*
X200023809Y-134312200D02*
X199880952Y-134359819D01*
X199880952Y-134359819D02*
X199785714Y-134359819D01*
X201166666Y-134359819D02*
X200595238Y-134359819D01*
X200880952Y-134359819D02*
X200880952Y-133359819D01*
X200880952Y-133359819D02*
X200785714Y-133502676D01*
X200785714Y-133502676D02*
X200690476Y-133597914D01*
X200690476Y-133597914D02*
X200595238Y-133645533D01*
X343140476Y-116254819D02*
X343140476Y-116969104D01*
X343140476Y-116969104D02*
X343092857Y-117111961D01*
X343092857Y-117111961D02*
X342997619Y-117207200D01*
X342997619Y-117207200D02*
X342854762Y-117254819D01*
X342854762Y-117254819D02*
X342759524Y-117254819D01*
X343616667Y-117254819D02*
X343616667Y-116254819D01*
X343616667Y-116254819D02*
X343997619Y-116254819D01*
X343997619Y-116254819D02*
X344092857Y-116302438D01*
X344092857Y-116302438D02*
X344140476Y-116350057D01*
X344140476Y-116350057D02*
X344188095Y-116445295D01*
X344188095Y-116445295D02*
X344188095Y-116588152D01*
X344188095Y-116588152D02*
X344140476Y-116683390D01*
X344140476Y-116683390D02*
X344092857Y-116731009D01*
X344092857Y-116731009D02*
X343997619Y-116778628D01*
X343997619Y-116778628D02*
X343616667Y-116778628D01*
X345140476Y-117254819D02*
X344569048Y-117254819D01*
X344854762Y-117254819D02*
X344854762Y-116254819D01*
X344854762Y-116254819D02*
X344759524Y-116397676D01*
X344759524Y-116397676D02*
X344664286Y-116492914D01*
X344664286Y-116492914D02*
X344569048Y-116540533D01*
X345759524Y-116254819D02*
X345854762Y-116254819D01*
X345854762Y-116254819D02*
X345950000Y-116302438D01*
X345950000Y-116302438D02*
X345997619Y-116350057D01*
X345997619Y-116350057D02*
X346045238Y-116445295D01*
X346045238Y-116445295D02*
X346092857Y-116635771D01*
X346092857Y-116635771D02*
X346092857Y-116873866D01*
X346092857Y-116873866D02*
X346045238Y-117064342D01*
X346045238Y-117064342D02*
X345997619Y-117159580D01*
X345997619Y-117159580D02*
X345950000Y-117207200D01*
X345950000Y-117207200D02*
X345854762Y-117254819D01*
X345854762Y-117254819D02*
X345759524Y-117254819D01*
X345759524Y-117254819D02*
X345664286Y-117207200D01*
X345664286Y-117207200D02*
X345616667Y-117159580D01*
X345616667Y-117159580D02*
X345569048Y-117064342D01*
X345569048Y-117064342D02*
X345521429Y-116873866D01*
X345521429Y-116873866D02*
X345521429Y-116635771D01*
X345521429Y-116635771D02*
X345569048Y-116445295D01*
X345569048Y-116445295D02*
X345616667Y-116350057D01*
X345616667Y-116350057D02*
X345664286Y-116302438D01*
X345664286Y-116302438D02*
X345759524Y-116254819D01*
X343566666Y-118604819D02*
X343566666Y-119319104D01*
X343566666Y-119319104D02*
X343519047Y-119461961D01*
X343519047Y-119461961D02*
X343423809Y-119557200D01*
X343423809Y-119557200D02*
X343280952Y-119604819D01*
X343280952Y-119604819D02*
X343185714Y-119604819D01*
X344042857Y-119604819D02*
X344042857Y-118604819D01*
X344042857Y-118604819D02*
X344423809Y-118604819D01*
X344423809Y-118604819D02*
X344519047Y-118652438D01*
X344519047Y-118652438D02*
X344566666Y-118700057D01*
X344566666Y-118700057D02*
X344614285Y-118795295D01*
X344614285Y-118795295D02*
X344614285Y-118938152D01*
X344614285Y-118938152D02*
X344566666Y-119033390D01*
X344566666Y-119033390D02*
X344519047Y-119081009D01*
X344519047Y-119081009D02*
X344423809Y-119128628D01*
X344423809Y-119128628D02*
X344042857Y-119128628D01*
X345090476Y-119604819D02*
X345280952Y-119604819D01*
X345280952Y-119604819D02*
X345376190Y-119557200D01*
X345376190Y-119557200D02*
X345423809Y-119509580D01*
X345423809Y-119509580D02*
X345519047Y-119366723D01*
X345519047Y-119366723D02*
X345566666Y-119176247D01*
X345566666Y-119176247D02*
X345566666Y-118795295D01*
X345566666Y-118795295D02*
X345519047Y-118700057D01*
X345519047Y-118700057D02*
X345471428Y-118652438D01*
X345471428Y-118652438D02*
X345376190Y-118604819D01*
X345376190Y-118604819D02*
X345185714Y-118604819D01*
X345185714Y-118604819D02*
X345090476Y-118652438D01*
X345090476Y-118652438D02*
X345042857Y-118700057D01*
X345042857Y-118700057D02*
X344995238Y-118795295D01*
X344995238Y-118795295D02*
X344995238Y-119033390D01*
X344995238Y-119033390D02*
X345042857Y-119128628D01*
X345042857Y-119128628D02*
X345090476Y-119176247D01*
X345090476Y-119176247D02*
X345185714Y-119223866D01*
X345185714Y-119223866D02*
X345376190Y-119223866D01*
X345376190Y-119223866D02*
X345471428Y-119176247D01*
X345471428Y-119176247D02*
X345519047Y-119128628D01*
X345519047Y-119128628D02*
X345566666Y-119033390D01*
X344833333Y-97945180D02*
X344833333Y-97230895D01*
X344833333Y-97230895D02*
X344880952Y-97088038D01*
X344880952Y-97088038D02*
X344976190Y-96992800D01*
X344976190Y-96992800D02*
X345119047Y-96945180D01*
X345119047Y-96945180D02*
X345214285Y-96945180D01*
X344357142Y-96945180D02*
X344357142Y-97945180D01*
X344357142Y-97945180D02*
X343976190Y-97945180D01*
X343976190Y-97945180D02*
X343880952Y-97897561D01*
X343880952Y-97897561D02*
X343833333Y-97849942D01*
X343833333Y-97849942D02*
X343785714Y-97754704D01*
X343785714Y-97754704D02*
X343785714Y-97611847D01*
X343785714Y-97611847D02*
X343833333Y-97516609D01*
X343833333Y-97516609D02*
X343880952Y-97468990D01*
X343880952Y-97468990D02*
X343976190Y-97421371D01*
X343976190Y-97421371D02*
X344357142Y-97421371D01*
X343404761Y-97849942D02*
X343357142Y-97897561D01*
X343357142Y-97897561D02*
X343261904Y-97945180D01*
X343261904Y-97945180D02*
X343023809Y-97945180D01*
X343023809Y-97945180D02*
X342928571Y-97897561D01*
X342928571Y-97897561D02*
X342880952Y-97849942D01*
X342880952Y-97849942D02*
X342833333Y-97754704D01*
X342833333Y-97754704D02*
X342833333Y-97659466D01*
X342833333Y-97659466D02*
X342880952Y-97516609D01*
X342880952Y-97516609D02*
X343452380Y-96945180D01*
X343452380Y-96945180D02*
X342833333Y-96945180D01*
D11*
X183400000Y-81800000D02*
X183400000Y-96000000D01*
X183400000Y-96000000D02*
X197600000Y-96000000D01*
X197600000Y-81800000D02*
X183400000Y-81800000D01*
X197600000Y-96000000D02*
X197600000Y-81800000D01*
X362470000Y-119900000D02*
X362470000Y-134100000D01*
X362470000Y-134100000D02*
X376670000Y-134100000D01*
X376670000Y-119900000D02*
X362470000Y-119900000D01*
X376670000Y-134100000D02*
X376670000Y-119900000D01*
X126250000Y-100850000D02*
X126250000Y-115050000D01*
X126250000Y-115050000D02*
X140450000Y-115050000D01*
X140450000Y-100850000D02*
X126250000Y-100850000D01*
X140450000Y-115050000D02*
X140450000Y-100850000D01*
X320560000Y-142760000D02*
X320560000Y-156960000D01*
X320560000Y-156960000D02*
X334760000Y-156960000D01*
X334760000Y-142760000D02*
X320560000Y-142760000D01*
X334760000Y-156960000D02*
X334760000Y-142760000D01*
X126250000Y-119900000D02*
X126250000Y-134100000D01*
X126250000Y-134100000D02*
X140450000Y-134100000D01*
X140450000Y-119900000D02*
X126250000Y-119900000D01*
X140450000Y-134100000D02*
X140450000Y-119900000D01*
X343420000Y-138950000D02*
X343420000Y-153150000D01*
X343420000Y-153150000D02*
X357620000Y-153150000D01*
X357620000Y-138950000D02*
X343420000Y-138950000D01*
X357620000Y-153150000D02*
X357620000Y-138950000D01*
X119106250Y-138950000D02*
X119106250Y-153150000D01*
X119106250Y-153150000D02*
X133306250Y-153150000D01*
X133306250Y-138950000D02*
X119106250Y-138950000D01*
X133306250Y-153150000D02*
X133306250Y-138950000D01*
X95293750Y-138950000D02*
X95293750Y-153150000D01*
X95293750Y-153150000D02*
X109493750Y-153150000D01*
X109493750Y-138950000D02*
X95293750Y-138950000D01*
X109493750Y-153150000D02*
X109493750Y-138950000D01*
X107200000Y-100850000D02*
X107200000Y-115050000D01*
X107200000Y-115050000D02*
X121400000Y-115050000D01*
X121400000Y-100850000D02*
X107200000Y-100850000D01*
X121400000Y-115050000D02*
X121400000Y-100850000D01*
X199170000Y-130304999D02*
X199170000Y-127705000D01*
X201830000Y-127705000D02*
X199170000Y-127705000D01*
X201830000Y-130304999D02*
X199170000Y-130304999D01*
X201830000Y-130304999D02*
X201830000Y-127705000D01*
X201830000Y-131575000D02*
X201830000Y-132905000D01*
X201830000Y-132905000D02*
X200500000Y-132905000D01*
X221500000Y-119900000D02*
X221500000Y-134100000D01*
X221500000Y-134100000D02*
X235700000Y-134100000D01*
X235700000Y-119900000D02*
X221500000Y-119900000D01*
X235700000Y-134100000D02*
X235700000Y-119900000D01*
X183400000Y-119900000D02*
X183400000Y-134100000D01*
X183400000Y-134100000D02*
X197600000Y-134100000D01*
X197600000Y-119900000D02*
X183400000Y-119900000D01*
X197600000Y-134100000D02*
X197600000Y-119900000D01*
X278650000Y-81800000D02*
X278650000Y-96000000D01*
X278650000Y-96000000D02*
X292850000Y-96000000D01*
X292850000Y-81800000D02*
X278650000Y-81800000D01*
X292850000Y-96000000D02*
X292850000Y-81800000D01*
X173875000Y-138950000D02*
X173875000Y-153150000D01*
X173875000Y-153150000D02*
X188075000Y-153150000D01*
X188075000Y-138950000D02*
X173875000Y-138950000D01*
X188075000Y-153150000D02*
X188075000Y-138950000D01*
X259600000Y-119900000D02*
X259600000Y-134100000D01*
X259600000Y-134100000D02*
X273800000Y-134100000D01*
X273800000Y-119900000D02*
X259600000Y-119900000D01*
X273800000Y-134100000D02*
X273800000Y-119900000D01*
X278650000Y-100850000D02*
X278650000Y-115050000D01*
X278650000Y-115050000D02*
X292850000Y-115050000D01*
X292850000Y-100850000D02*
X278650000Y-100850000D01*
X292850000Y-115050000D02*
X292850000Y-100850000D01*
X252456250Y-138950000D02*
X252456250Y-153150000D01*
X252456250Y-153150000D02*
X266656250Y-153150000D01*
X266656250Y-138950000D02*
X252456250Y-138950000D01*
X266656250Y-153150000D02*
X266656250Y-138950000D01*
X145300000Y-119900000D02*
X145300000Y-134100000D01*
X145300000Y-134100000D02*
X159500000Y-134100000D01*
X159500000Y-119900000D02*
X145300000Y-119900000D01*
X159500000Y-134100000D02*
X159500000Y-119900000D01*
X324370000Y-100850000D02*
X324370000Y-115050000D01*
X324370000Y-115050000D02*
X338570000Y-115050000D01*
X338570000Y-100850000D02*
X324370000Y-100850000D01*
X338570000Y-115050000D02*
X338570000Y-100850000D01*
X259600000Y-100850000D02*
X259600000Y-115050000D01*
X259600000Y-115050000D02*
X273800000Y-115050000D01*
X273800000Y-100850000D02*
X259600000Y-100850000D01*
X273800000Y-115050000D02*
X273800000Y-100850000D01*
X343420000Y-119900000D02*
X343420000Y-134100000D01*
X343420000Y-134100000D02*
X357620000Y-134100000D01*
X357620000Y-119900000D02*
X343420000Y-119900000D01*
X357620000Y-134100000D02*
X357620000Y-119900000D01*
X107200000Y-81800000D02*
X107200000Y-96000000D01*
X107200000Y-96000000D02*
X121400000Y-96000000D01*
X121400000Y-81800000D02*
X107200000Y-81800000D01*
X121400000Y-96000000D02*
X121400000Y-81800000D01*
X142918750Y-138950000D02*
X142918750Y-153150000D01*
X142918750Y-153150000D02*
X157118750Y-153150000D01*
X157118750Y-138950000D02*
X142918750Y-138950000D01*
X157118750Y-153150000D02*
X157118750Y-138950000D01*
X324370000Y-81800000D02*
X324370000Y-96000000D01*
X324370000Y-96000000D02*
X338570000Y-96000000D01*
X338570000Y-81800000D02*
X324370000Y-81800000D01*
X338570000Y-96000000D02*
X338570000Y-81800000D01*
X301510000Y-123710000D02*
X301510000Y-137910000D01*
X301510000Y-137910000D02*
X315710000Y-137910000D01*
X315710000Y-123710000D02*
X301510000Y-123710000D01*
X315710000Y-137910000D02*
X315710000Y-123710000D01*
X324370000Y-119900000D02*
X324370000Y-134100000D01*
X324370000Y-134100000D02*
X338570000Y-134100000D01*
X338570000Y-119900000D02*
X324370000Y-119900000D01*
X338570000Y-134100000D02*
X338570000Y-119900000D01*
X343420000Y-81800000D02*
X343420000Y-96000000D01*
X343420000Y-96000000D02*
X357620000Y-96000000D01*
X357620000Y-81800000D02*
X343420000Y-81800000D01*
X357620000Y-96000000D02*
X357620000Y-81800000D01*
X88150000Y-100850000D02*
X88150000Y-115050000D01*
X88150000Y-115050000D02*
X102350000Y-115050000D01*
X102350000Y-100850000D02*
X88150000Y-100850000D01*
X102350000Y-115050000D02*
X102350000Y-100850000D01*
X240550000Y-119900000D02*
X240550000Y-134100000D01*
X240550000Y-134100000D02*
X254750000Y-134100000D01*
X254750000Y-119900000D02*
X240550000Y-119900000D01*
X254750000Y-134100000D02*
X254750000Y-119900000D01*
X69100000Y-119900000D02*
X69100000Y-134100000D01*
X69100000Y-134100000D02*
X83300000Y-134100000D01*
X83300000Y-119900000D02*
X69100000Y-119900000D01*
X83300000Y-134100000D02*
X83300000Y-119900000D01*
X240550000Y-100850000D02*
X240550000Y-115050000D01*
X240550000Y-115050000D02*
X254750000Y-115050000D01*
X254750000Y-100850000D02*
X240550000Y-100850000D01*
X254750000Y-115050000D02*
X254750000Y-100850000D01*
X339600000Y-117100001D02*
X339600000Y-116499999D01*
X340300000Y-115800000D02*
X341700000Y-115800000D01*
X341700000Y-117800000D02*
X340300000Y-117800000D01*
X342400000Y-116499999D02*
X342400000Y-117100001D01*
X339600000Y-116499999D02*
G75*
G02*
X340300000Y-115800000I700000J-1D01*
G01*
X340300000Y-117800000D02*
G75*
G02*
X339600000Y-117100001I0J700000D01*
G01*
X341700000Y-115800000D02*
G75*
G02*
X342400000Y-116499999I1J-699999D01*
G01*
X342400000Y-117100001D02*
G75*
G02*
X341700000Y-117800000I-699999J0D01*
G01*
X202450000Y-119900000D02*
X202450000Y-134100000D01*
X202450000Y-134100000D02*
X216650000Y-134100000D01*
X216650000Y-119900000D02*
X202450000Y-119900000D01*
X216650000Y-134100000D02*
X216650000Y-119900000D01*
X88150000Y-119900000D02*
X88150000Y-134100000D01*
X88150000Y-134100000D02*
X102350000Y-134100000D01*
X102350000Y-119900000D02*
X88150000Y-119900000D01*
X102350000Y-134100000D02*
X102350000Y-119900000D01*
X88150000Y-81800000D02*
X88150000Y-96000000D01*
X88150000Y-96000000D02*
X102350000Y-96000000D01*
X102350000Y-81800000D02*
X88150000Y-81800000D01*
X102350000Y-96000000D02*
X102350000Y-81800000D01*
X126250000Y-81800000D02*
X126250000Y-96000000D01*
X126250000Y-96000000D02*
X140450000Y-96000000D01*
X140450000Y-81800000D02*
X126250000Y-81800000D01*
X140450000Y-96000000D02*
X140450000Y-81800000D01*
X221500000Y-81800000D02*
X221500000Y-96000000D01*
X221500000Y-96000000D02*
X235700000Y-96000000D01*
X235700000Y-81800000D02*
X221500000Y-81800000D01*
X235700000Y-96000000D02*
X235700000Y-81800000D01*
X221500000Y-100850000D02*
X221500000Y-115050000D01*
X221500000Y-115050000D02*
X235700000Y-115050000D01*
X235700000Y-100850000D02*
X221500000Y-100850000D01*
X235700000Y-115050000D02*
X235700000Y-100850000D01*
X69100000Y-81800000D02*
X69100000Y-96000000D01*
X69100000Y-96000000D02*
X83300000Y-96000000D01*
X83300000Y-81800000D02*
X69100000Y-81800000D01*
X83300000Y-96000000D02*
X83300000Y-81800000D01*
X362470000Y-81800000D02*
X362470000Y-96000000D01*
X362470000Y-96000000D02*
X376670000Y-96000000D01*
X376670000Y-81800000D02*
X362470000Y-81800000D01*
X376670000Y-96000000D02*
X376670000Y-81800000D01*
X240550000Y-81800000D02*
X240550000Y-96000000D01*
X240550000Y-96000000D02*
X254750000Y-96000000D01*
X254750000Y-81800000D02*
X240550000Y-81800000D01*
X254750000Y-96000000D02*
X254750000Y-81800000D01*
X164350000Y-100850000D02*
X164350000Y-115050000D01*
X164350000Y-115050000D02*
X178550000Y-115050000D01*
X178550000Y-100850000D02*
X164350000Y-100850000D01*
X178550000Y-115050000D02*
X178550000Y-100850000D01*
X164350000Y-119900000D02*
X164350000Y-134100000D01*
X164350000Y-134100000D02*
X178550000Y-134100000D01*
X178550000Y-119900000D02*
X164350000Y-119900000D01*
X178550000Y-134100000D02*
X178550000Y-119900000D01*
X202450000Y-100850000D02*
X202450000Y-115050000D01*
X202450000Y-115050000D02*
X216650000Y-115050000D01*
X216650000Y-100850000D02*
X202450000Y-100850000D01*
X216650000Y-115050000D02*
X216650000Y-100850000D01*
X339600000Y-119700001D02*
X339600000Y-119099999D01*
X340300000Y-118400000D02*
X341700000Y-118400000D01*
X341700000Y-120400000D02*
X340300000Y-120400000D01*
X342400000Y-119099999D02*
X342400000Y-119700001D01*
X339600000Y-119099999D02*
G75*
G02*
X340300000Y-118400000I700000J-1D01*
G01*
X340300000Y-120400000D02*
G75*
G02*
X339600000Y-119700001I0J700000D01*
G01*
X341700000Y-118400000D02*
G75*
G02*
X342400000Y-119099999I1J-699999D01*
G01*
X342400000Y-119700001D02*
G75*
G02*
X341700000Y-120400000I-699999J0D01*
G01*
X145300000Y-100850000D02*
X145300000Y-115050000D01*
X145300000Y-115050000D02*
X159500000Y-115050000D01*
X159500000Y-100850000D02*
X145300000Y-100850000D01*
X159500000Y-115050000D02*
X159500000Y-100850000D01*
X145300000Y-81800000D02*
X145300000Y-96000000D01*
X145300000Y-96000000D02*
X159500000Y-96000000D01*
X159500000Y-81800000D02*
X145300000Y-81800000D01*
X159500000Y-96000000D02*
X159500000Y-81800000D01*
X259600000Y-81800000D02*
X259600000Y-96000000D01*
X259600000Y-96000000D02*
X273800000Y-96000000D01*
X273800000Y-81800000D02*
X259600000Y-81800000D01*
X273800000Y-96000000D02*
X273800000Y-81800000D01*
X339600000Y-97700001D02*
X339600000Y-97099999D01*
X340300000Y-96400000D02*
X341700000Y-96400000D01*
X341700000Y-98400000D02*
X340300000Y-98400000D01*
X342400000Y-97099999D02*
X342400000Y-97700001D01*
X339600000Y-97099999D02*
G75*
G02*
X340300000Y-96400000I700000J-1D01*
G01*
X340300000Y-98400000D02*
G75*
G02*
X339600000Y-97700001I0J700000D01*
G01*
X341700000Y-96400000D02*
G75*
G02*
X342400000Y-97099999I1J-699999D01*
G01*
X342400000Y-97700001D02*
G75*
G02*
X341700000Y-98400000I-699999J0D01*
G01*
X202450000Y-81800000D02*
X202450000Y-96000000D01*
X202450000Y-96000000D02*
X216650000Y-96000000D01*
X216650000Y-81800000D02*
X202450000Y-81800000D01*
X216650000Y-96000000D02*
X216650000Y-81800000D01*
X69100000Y-100850000D02*
X69100000Y-115050000D01*
X69100000Y-115050000D02*
X83300000Y-115050000D01*
X83300000Y-100850000D02*
X69100000Y-100850000D01*
X83300000Y-115050000D02*
X83300000Y-100850000D01*
X343420000Y-100850000D02*
X343420000Y-115050000D01*
X343420000Y-115050000D02*
X357620000Y-115050000D01*
X357620000Y-100850000D02*
X343420000Y-100850000D01*
X357620000Y-115050000D02*
X357620000Y-100850000D01*
X228643750Y-138950000D02*
X228643750Y-153150000D01*
X228643750Y-153150000D02*
X242843750Y-153150000D01*
X242843750Y-138950000D02*
X228643750Y-138950000D01*
X242843750Y-153150000D02*
X242843750Y-138950000D01*
X71481250Y-138950000D02*
X71481250Y-153150000D01*
X71481250Y-153150000D02*
X85681250Y-153150000D01*
X85681250Y-138950000D02*
X71481250Y-138950000D01*
X85681250Y-153150000D02*
X85681250Y-138950000D01*
X278650000Y-119900000D02*
X278650000Y-134100000D01*
X278650000Y-134100000D02*
X292850000Y-134100000D01*
X292850000Y-119900000D02*
X278650000Y-119900000D01*
X292850000Y-134100000D02*
X292850000Y-119900000D01*
X301510000Y-142760000D02*
X301510000Y-156960000D01*
X301510000Y-156960000D02*
X315710000Y-156960000D01*
X315710000Y-142760000D02*
X301510000Y-142760000D01*
X315710000Y-156960000D02*
X315710000Y-142760000D01*
X183400000Y-100850000D02*
X183400000Y-115050000D01*
X183400000Y-115050000D02*
X197600000Y-115050000D01*
X197600000Y-100850000D02*
X183400000Y-100850000D01*
X197600000Y-115050000D02*
X197600000Y-100850000D01*
X164350000Y-81800000D02*
X164350000Y-96000000D01*
X164350000Y-96000000D02*
X178550000Y-96000000D01*
X178550000Y-81800000D02*
X164350000Y-81800000D01*
X178550000Y-96000000D02*
X178550000Y-81800000D01*
X297700000Y-81800000D02*
X297700000Y-96000000D01*
X297700000Y-96000000D02*
X311900000Y-96000000D01*
X311900000Y-81800000D02*
X297700000Y-81800000D01*
X311900000Y-96000000D02*
X311900000Y-81800000D01*
X107200000Y-119900000D02*
X107200000Y-134100000D01*
X107200000Y-134100000D02*
X121400000Y-134100000D01*
X121400000Y-119900000D02*
X107200000Y-119900000D01*
X121400000Y-134100000D02*
X121400000Y-119900000D01*
X362470000Y-138950000D02*
X362470000Y-153150000D01*
X362470000Y-153150000D02*
X376670000Y-153150000D01*
X376670000Y-138950000D02*
X362470000Y-138950000D01*
X376670000Y-153150000D02*
X376670000Y-138950000D01*
X282460000Y-142760000D02*
X282460000Y-156960000D01*
X282460000Y-156960000D02*
X296660000Y-156960000D01*
X296660000Y-142760000D02*
X282460000Y-142760000D01*
X296660000Y-156960000D02*
X296660000Y-142760000D01*
X297700000Y-100850000D02*
X297700000Y-115050000D01*
X297700000Y-115050000D02*
X311900000Y-115050000D01*
X311900000Y-100850000D02*
X297700000Y-100850000D01*
X311900000Y-115050000D02*
X311900000Y-100850000D01*
X204831250Y-138950000D02*
X204831250Y-153150000D01*
X204831250Y-153150000D02*
X219031250Y-153150000D01*
X219031250Y-138950000D02*
X204831250Y-138950000D01*
X219031250Y-153150000D02*
X219031250Y-138950000D01*
X362470000Y-100850000D02*
X362470000Y-115050000D01*
X362470000Y-115050000D02*
X376670000Y-115050000D01*
X376670000Y-100850000D02*
X362470000Y-100850000D01*
X376670000Y-115050000D02*
X376670000Y-100850000D01*
M02*
