G04 #@! TF.GenerationSoftware,KiCad,Pcbnew,8.0.1*
G04 #@! TF.CreationDate,2024-10-10T20:25:18+02:00*
G04 #@! TF.ProjectId,Mimic40,4d696d69-6334-4302-9e6b-696361645f70,0*
G04 #@! TF.SameCoordinates,Original*
G04 #@! TF.FileFunction,Paste,Bot*
G04 #@! TF.FilePolarity,Positive*
%FSLAX46Y46*%
G04 Gerber Fmt 4.6, Leading zero omitted, Abs format (unit mm)*
G04 Created by KiCad (PCBNEW 8.0.1) date 2024-10-10 20:25:18*
%MOMM*%
%LPD*%
G01*
G04 APERTURE LIST*
G04 Aperture macros list*
%AMRoundRect*
0 Rectangle with rounded corners*
0 $1 Rounding radius*
0 $2 $3 $4 $5 $6 $7 $8 $9 X,Y pos of 4 corners*
0 Add a 4 corners polygon primitive as box body*
4,1,4,$2,$3,$4,$5,$6,$7,$8,$9,$2,$3,0*
0 Add four circle primitives for the rounded corners*
1,1,$1+$1,$2,$3*
1,1,$1+$1,$4,$5*
1,1,$1+$1,$6,$7*
1,1,$1+$1,$8,$9*
0 Add four rect primitives between the rounded corners*
20,1,$1+$1,$2,$3,$4,$5,0*
20,1,$1+$1,$4,$5,$6,$7,0*
20,1,$1+$1,$6,$7,$8,$9,0*
20,1,$1+$1,$8,$9,$2,$3,0*%
G04 Aperture macros list end*
%ADD10RoundRect,0.250000X-0.325000X-1.100000X0.325000X-1.100000X0.325000X1.100000X-0.325000X1.100000X0*%
%ADD11RoundRect,0.250000X0.325000X1.100000X-0.325000X1.100000X-0.325000X-1.100000X0.325000X-1.100000X0*%
%ADD12RoundRect,0.250000X1.025000X1.000000X-1.025000X1.000000X-1.025000X-1.000000X1.025000X-1.000000X0*%
%ADD13RoundRect,0.225000X-0.225000X-0.375000X0.225000X-0.375000X0.225000X0.375000X-0.225000X0.375000X0*%
%ADD14R,1.800000X0.820000*%
%ADD15RoundRect,0.140000X0.170000X-0.140000X0.170000X0.140000X-0.170000X0.140000X-0.170000X-0.140000X0*%
%ADD16RoundRect,0.250000X-0.475000X0.250000X-0.475000X-0.250000X0.475000X-0.250000X0.475000X0.250000X0*%
%ADD17RoundRect,0.140000X-0.170000X0.140000X-0.170000X-0.140000X0.170000X-0.140000X0.170000X0.140000X0*%
%ADD18RoundRect,0.225000X0.225000X0.375000X-0.225000X0.375000X-0.225000X-0.375000X0.225000X-0.375000X0*%
%ADD19RoundRect,0.225000X-0.375000X0.225000X-0.375000X-0.225000X0.375000X-0.225000X0.375000X0.225000X0*%
%ADD20RoundRect,0.140000X0.140000X0.170000X-0.140000X0.170000X-0.140000X-0.170000X0.140000X-0.170000X0*%
%ADD21RoundRect,0.135000X0.185000X-0.135000X0.185000X0.135000X-0.185000X0.135000X-0.185000X-0.135000X0*%
%ADD22RoundRect,0.135000X0.135000X0.185000X-0.135000X0.185000X-0.135000X-0.185000X0.135000X-0.185000X0*%
%ADD23RoundRect,0.140000X-0.140000X-0.170000X0.140000X-0.170000X0.140000X0.170000X-0.140000X0.170000X0*%
%ADD24RoundRect,0.150000X-0.150000X0.512500X-0.150000X-0.512500X0.150000X-0.512500X0.150000X0.512500X0*%
%ADD25RoundRect,0.135000X-0.185000X0.135000X-0.185000X-0.135000X0.185000X-0.135000X0.185000X0.135000X0*%
%ADD26R,0.600000X1.450000*%
%ADD27R,0.300000X1.450000*%
%ADD28RoundRect,0.250000X0.250000X0.475000X-0.250000X0.475000X-0.250000X-0.475000X0.250000X-0.475000X0*%
%ADD29R,1.700000X0.820000*%
%ADD30RoundRect,0.135000X-0.135000X-0.185000X0.135000X-0.185000X0.135000X0.185000X-0.135000X0.185000X0*%
%ADD31R,1.400000X1.200000*%
%ADD32RoundRect,0.250000X-0.250000X-0.475000X0.250000X-0.475000X0.250000X0.475000X-0.250000X0.475000X0*%
%ADD33RoundRect,0.150000X0.150000X-0.587500X0.150000X0.587500X-0.150000X0.587500X-0.150000X-0.587500X0*%
%ADD34RoundRect,0.150000X0.150000X-0.650000X0.150000X0.650000X-0.150000X0.650000X-0.150000X-0.650000X0*%
%ADD35RoundRect,0.375000X-0.625000X-0.375000X0.625000X-0.375000X0.625000X0.375000X-0.625000X0.375000X0*%
%ADD36RoundRect,0.500000X-0.500000X-1.400000X0.500000X-1.400000X0.500000X1.400000X-0.500000X1.400000X0*%
%ADD37RoundRect,0.249999X0.395001X0.395001X-0.395001X0.395001X-0.395001X-0.395001X0.395001X-0.395001X0*%
%ADD38RoundRect,0.050000X0.387500X0.050000X-0.387500X0.050000X-0.387500X-0.050000X0.387500X-0.050000X0*%
%ADD39RoundRect,0.050000X0.050000X0.387500X-0.050000X0.387500X-0.050000X-0.387500X0.050000X-0.387500X0*%
G04 APERTURE END LIST*
D10*
X84324999Y-84000000D03*
X87275001Y-84000000D03*
X84324999Y-87400000D03*
X87275001Y-87400000D03*
D11*
X319675000Y-111300000D03*
X316725000Y-111300000D03*
X319675000Y-107050000D03*
X316725000Y-107050000D03*
X319675000Y-102800000D03*
X316725000Y-102800000D03*
X319675000Y-92300000D03*
X316725000Y-92300000D03*
X319675000Y-88050000D03*
X316725000Y-88050000D03*
X316725000Y-83800000D03*
X319675000Y-83800000D03*
D10*
X84325000Y-80600000D03*
X87275000Y-80600000D03*
D12*
X197585000Y-91440000D03*
X184658000Y-93980000D03*
X376655000Y-129540000D03*
X363728000Y-132080000D03*
X140435000Y-110490000D03*
X127508000Y-113030000D03*
X334745000Y-152400000D03*
X321818000Y-154940000D03*
X140435000Y-129540000D03*
X127508000Y-132080000D03*
X357605000Y-148590000D03*
X344678000Y-151130000D03*
X133291250Y-148590000D03*
X120364250Y-151130000D03*
X109478750Y-148590000D03*
X96551750Y-151130000D03*
X121385000Y-110490000D03*
X108458000Y-113030000D03*
X235685000Y-129540000D03*
X222758000Y-132080000D03*
X197585000Y-129540000D03*
X184658000Y-132080000D03*
X292835000Y-91440000D03*
X279908000Y-93980000D03*
X188060000Y-148590000D03*
X175133000Y-151130000D03*
X273785000Y-129540000D03*
X260858000Y-132080000D03*
X292835000Y-110490000D03*
X279908000Y-113030000D03*
X266641250Y-148590000D03*
X253714250Y-151130000D03*
X159485000Y-129540000D03*
X146558000Y-132080000D03*
X338555000Y-110490000D03*
X325628000Y-113030000D03*
X273785000Y-110490000D03*
X260858000Y-113030000D03*
X357605000Y-129540000D03*
X344678000Y-132080000D03*
X121385000Y-91440000D03*
X108458000Y-93980000D03*
X157103750Y-148590000D03*
X144176750Y-151130000D03*
X338555000Y-91440000D03*
X325628000Y-93980000D03*
X315695000Y-133350000D03*
X302768000Y-135890000D03*
X338555000Y-129540000D03*
X325628000Y-132080000D03*
X357605000Y-91440000D03*
X344678000Y-93980000D03*
X102335000Y-110490000D03*
X89408000Y-113030000D03*
X254735000Y-129540000D03*
X241808000Y-132080000D03*
X83285000Y-129540000D03*
X70358000Y-132080000D03*
X254735000Y-110490000D03*
X241808000Y-113030000D03*
X216635000Y-129540000D03*
X203708000Y-132080000D03*
X102335000Y-129540000D03*
X89408000Y-132080000D03*
X102335000Y-91440000D03*
X89408000Y-93980000D03*
X140435000Y-91440000D03*
X127508000Y-93980000D03*
X235685000Y-91440000D03*
X222758000Y-93980000D03*
X235685000Y-110490000D03*
X222758000Y-113030000D03*
X83285000Y-91440000D03*
X70358000Y-93980000D03*
X376655000Y-91440000D03*
X363728000Y-93980000D03*
X254735000Y-91440000D03*
X241808000Y-93980000D03*
X178535000Y-110490000D03*
X165608000Y-113030000D03*
X178535000Y-129540000D03*
X165608000Y-132080000D03*
X216635000Y-110490000D03*
X203708000Y-113030000D03*
X159485000Y-110490000D03*
X146558000Y-113030000D03*
X159485000Y-91440000D03*
X146558000Y-93980000D03*
X273785000Y-91440000D03*
X260858000Y-93980000D03*
X216635000Y-91440000D03*
X203708000Y-93980000D03*
X83285000Y-110490000D03*
X70358000Y-113030000D03*
X357605000Y-110490000D03*
X344678000Y-113030000D03*
X242828750Y-148590000D03*
X229901750Y-151130000D03*
X85666250Y-148590000D03*
X72739250Y-151130000D03*
X292835000Y-129540000D03*
X279908000Y-132080000D03*
X315695000Y-152400000D03*
X302768000Y-154940000D03*
X197585000Y-110490000D03*
X184658000Y-113030000D03*
X178535000Y-91440000D03*
X165608000Y-93980000D03*
X311885000Y-91440000D03*
X298958000Y-93980000D03*
X121385000Y-129540000D03*
X108458000Y-132080000D03*
X376655000Y-148590000D03*
X363728000Y-151130000D03*
X296645000Y-152400000D03*
X283718000Y-154940000D03*
X311885000Y-110490000D03*
X298958000Y-113030000D03*
X219016250Y-148590000D03*
X206089250Y-151130000D03*
X376655000Y-110490000D03*
X363728000Y-113030000D03*
D13*
X70750000Y-135600000D03*
X74050000Y-135600000D03*
D14*
X305610000Y-143860000D03*
X305610000Y-145360000D03*
X311610000Y-145360000D03*
X311610000Y-143860000D03*
D15*
X243700000Y-100980000D03*
X243700000Y-100020000D03*
D16*
X193350000Y-151850001D03*
X193350000Y-153749999D03*
D17*
X232000000Y-123520000D03*
X232000000Y-124480000D03*
D14*
X353520000Y-122600000D03*
X353520000Y-121100000D03*
X347520000Y-121100000D03*
X347520000Y-122600000D03*
X193500000Y-84500000D03*
X193500000Y-83000000D03*
X187500000Y-83000000D03*
X187500000Y-84500000D03*
D17*
X155800000Y-123520000D03*
X155800000Y-124480000D03*
D18*
X137650000Y-98500000D03*
X134350000Y-98500000D03*
D19*
X343100000Y-105550000D03*
X343100000Y-108850000D03*
D20*
X128580000Y-102600000D03*
X127620000Y-102600000D03*
D19*
X223600000Y-143450000D03*
X223600000Y-146750000D03*
X124500000Y-90850000D03*
X124500000Y-94150000D03*
D14*
X250650000Y-84500000D03*
X250650000Y-83000000D03*
X244650000Y-83000000D03*
X244650000Y-84500000D03*
X98250000Y-122600000D03*
X98250000Y-121100000D03*
X92250000Y-121100000D03*
X92250000Y-122600000D03*
D19*
X226800000Y-143450000D03*
X226800000Y-146750000D03*
X277000000Y-86350000D03*
X277000000Y-89650000D03*
X324000000Y-106550000D03*
X324000000Y-109850000D03*
X124350000Y-124350000D03*
X124350000Y-127650000D03*
D14*
X75581250Y-140050000D03*
X75581250Y-141550000D03*
X81581250Y-141550000D03*
X81581250Y-140050000D03*
D17*
X353900000Y-123520000D03*
X353900000Y-124480000D03*
D19*
X162450000Y-124350000D03*
X162450000Y-127650000D03*
D20*
X110680000Y-101000000D03*
X109720000Y-101000000D03*
D21*
X72800000Y-142609999D03*
X72800000Y-141590001D03*
D20*
X191229999Y-137800000D03*
X190269999Y-137800000D03*
D15*
X196349999Y-138680000D03*
X196349999Y-137720000D03*
D17*
X270100000Y-123520000D03*
X270100000Y-124480000D03*
D19*
X200550000Y-105450000D03*
X200550000Y-108750000D03*
D14*
X92250000Y-101950000D03*
X92250000Y-103450000D03*
X98250000Y-103450000D03*
X98250000Y-101950000D03*
D15*
X365700000Y-100980000D03*
X365700000Y-100020000D03*
D17*
X270080000Y-85720000D03*
X270080000Y-86680000D03*
D14*
X311610000Y-126410000D03*
X311610000Y-124910000D03*
X305610000Y-124910000D03*
X305610000Y-126410000D03*
D19*
X257700000Y-105450000D03*
X257700000Y-108750000D03*
D14*
X136350000Y-122600000D03*
X136350000Y-121100000D03*
X130350000Y-121100000D03*
X130350000Y-122600000D03*
D17*
X195350000Y-149120000D03*
X195350000Y-150080000D03*
D21*
X194349999Y-139069998D03*
X194349999Y-138050000D03*
D17*
X174800000Y-123520000D03*
X174800000Y-124480000D03*
D15*
X281800000Y-100980000D03*
X281800000Y-100020000D03*
D19*
X299650000Y-147450000D03*
X299650000Y-150750000D03*
D17*
X334800000Y-123520000D03*
X334800000Y-124480000D03*
D15*
X255600000Y-139080000D03*
X255600000Y-138120000D03*
D14*
X250650000Y-122600000D03*
X250650000Y-121100000D03*
X244650000Y-121100000D03*
X244650000Y-122600000D03*
X117300000Y-122600000D03*
X117300000Y-121100000D03*
X111300000Y-121100000D03*
X111300000Y-122600000D03*
D19*
X181500000Y-105450000D03*
X181500000Y-108750000D03*
D14*
X334470000Y-84500000D03*
X334470000Y-83000000D03*
X328470000Y-83000000D03*
X328470000Y-84500000D03*
D17*
X98620000Y-123520000D03*
X98620000Y-124480000D03*
D14*
X79200000Y-84499999D03*
X79200000Y-82999999D03*
X73200000Y-82999999D03*
X73200000Y-84499999D03*
D20*
X74680000Y-138800000D03*
X73720000Y-138800000D03*
D14*
X206550000Y-101950000D03*
X206550000Y-103450000D03*
X212550000Y-103450000D03*
X212550000Y-101950000D03*
D19*
X360500000Y-124600000D03*
X360500000Y-127900000D03*
D20*
X191229998Y-136800000D03*
X190269998Y-136800000D03*
D14*
X328470000Y-101950000D03*
X328470000Y-103450000D03*
X334470000Y-103450000D03*
X334470000Y-101950000D03*
X212550000Y-84500000D03*
X212550000Y-83000000D03*
X206550000Y-83000000D03*
X206550000Y-84500000D03*
X231600000Y-122600000D03*
X231600000Y-121100000D03*
X225600000Y-121100000D03*
X225600000Y-122600000D03*
D22*
X197309999Y-149050000D03*
X196290001Y-149050000D03*
D23*
X198220000Y-150053838D03*
X199180000Y-150053838D03*
D24*
X104450001Y-89062500D03*
X105400000Y-89062500D03*
X106349999Y-89062500D03*
X106349999Y-91337500D03*
X105400000Y-91337500D03*
X104450001Y-91337500D03*
D19*
X280600000Y-147450000D03*
X280600000Y-150750000D03*
X92600000Y-143650000D03*
X92600000Y-146950000D03*
D25*
X195350000Y-138050000D03*
X195350000Y-139069998D03*
D17*
X79600000Y-85520000D03*
X79600000Y-86480000D03*
D19*
X181600000Y-86350000D03*
X181600000Y-89650000D03*
D20*
X122880000Y-139100000D03*
X121920000Y-139100000D03*
D14*
X288750000Y-122600000D03*
X288750000Y-121100000D03*
X282750000Y-121100000D03*
X282750000Y-122600000D03*
D15*
X193249999Y-138280000D03*
X193249999Y-137320000D03*
D19*
X200500000Y-122150000D03*
X200500000Y-125450000D03*
D15*
X262800000Y-100980000D03*
X262800000Y-100020000D03*
X205500000Y-101080000D03*
X205500000Y-100120000D03*
X186600000Y-100980000D03*
X186600000Y-100020000D03*
D26*
X101500000Y-85485000D03*
X102300000Y-85485000D03*
D27*
X103500000Y-85485000D03*
X104500000Y-85485000D03*
X105000000Y-85485000D03*
X106000000Y-85485000D03*
D26*
X107200000Y-85485000D03*
X108000000Y-85485000D03*
X108000000Y-85485000D03*
X107200000Y-85485000D03*
D27*
X106500000Y-85485000D03*
X105500000Y-85485000D03*
X104000000Y-85485000D03*
X103000000Y-85485000D03*
D26*
X102300000Y-85485000D03*
X101500000Y-85485000D03*
D19*
X343100000Y-143650000D03*
X343100000Y-146950000D03*
D14*
X347520000Y-101950000D03*
X347520000Y-103450000D03*
X353520000Y-103450000D03*
X353520000Y-101950000D03*
X334470000Y-122600000D03*
X334470000Y-121100000D03*
X328470000Y-121100000D03*
X328470000Y-122600000D03*
X155400000Y-122600000D03*
X155400000Y-121100000D03*
X149400000Y-121100000D03*
X149400000Y-122600000D03*
D22*
X103509999Y-87250000D03*
X102490001Y-87250000D03*
D14*
X212550000Y-122600000D03*
X212550000Y-121100000D03*
X206550000Y-121100000D03*
X206550000Y-122600000D03*
D17*
X212900000Y-85720000D03*
X212900000Y-86680000D03*
D19*
X276750000Y-124350000D03*
X276750000Y-127650000D03*
X258000000Y-86350000D03*
X258000000Y-89650000D03*
D17*
X136700000Y-85720000D03*
X136700000Y-86680000D03*
D19*
X162600000Y-86350000D03*
X162600000Y-89650000D03*
D17*
X136700000Y-123520000D03*
X136700000Y-124480000D03*
D14*
X136350000Y-84500000D03*
X136350000Y-83000000D03*
X130350000Y-83000000D03*
X130350000Y-84500000D03*
X263700000Y-101950000D03*
X263700000Y-103450000D03*
X269700000Y-103450000D03*
X269700000Y-101950000D03*
D17*
X98700000Y-85820000D03*
X98700000Y-86780000D03*
D19*
X343100000Y-86950000D03*
X343100000Y-90250000D03*
D13*
X184750000Y-117500000D03*
X188050000Y-117500000D03*
D17*
X289100000Y-85720000D03*
X289100000Y-86680000D03*
X117300000Y-86320000D03*
X117300000Y-87280000D03*
D22*
X201809999Y-139300000D03*
X200790001Y-139300000D03*
D14*
X130350000Y-101950000D03*
X130350000Y-103450000D03*
X136350000Y-103450000D03*
X136350000Y-101950000D03*
D17*
X251000000Y-123520000D03*
X251000000Y-124480000D03*
D20*
X216180000Y-142600000D03*
X215220000Y-142600000D03*
D17*
X251000000Y-85720000D03*
X251000000Y-86680000D03*
X289100000Y-123520000D03*
X289100000Y-124480000D03*
D14*
X98250000Y-84500000D03*
X98250000Y-83000000D03*
X92250000Y-83000000D03*
X92250000Y-84500000D03*
D15*
X365600000Y-139080000D03*
X365600000Y-138120000D03*
D14*
X168450000Y-101950000D03*
X168450000Y-103450000D03*
X174450000Y-103450000D03*
X174450000Y-101950000D03*
X353520000Y-84500000D03*
X353520000Y-83000000D03*
X347520000Y-83000000D03*
X347520000Y-84500000D03*
D17*
X372900000Y-85720000D03*
X372900000Y-86680000D03*
D19*
X105300000Y-105450000D03*
X105300000Y-108750000D03*
X360500000Y-86350000D03*
X360500000Y-89650000D03*
X343100000Y-124700000D03*
X343100000Y-128000000D03*
X295800000Y-105450000D03*
X295800000Y-108750000D03*
X219600000Y-124350000D03*
X219600000Y-127650000D03*
X238650000Y-105450000D03*
X238650000Y-108750000D03*
D14*
X111300000Y-101950000D03*
X111300000Y-103450000D03*
X117300000Y-103450000D03*
X117300000Y-101950000D03*
D19*
X323750000Y-86350000D03*
X323750000Y-89650000D03*
X318700000Y-147450000D03*
X318700000Y-150750000D03*
X257700000Y-124350000D03*
X257700000Y-127650000D03*
D22*
X70909999Y-84600000D03*
X69890001Y-84600000D03*
D17*
X334800000Y-85720000D03*
X334800000Y-86680000D03*
D13*
X127600000Y-98500000D03*
X130900000Y-98500000D03*
D14*
X269700000Y-84500000D03*
X269700000Y-83000000D03*
X263700000Y-83000000D03*
X263700000Y-84500000D03*
D28*
X124349999Y-88250000D03*
X122450001Y-88250000D03*
D19*
X105300000Y-124350000D03*
X105300000Y-127650000D03*
D15*
X231900000Y-139080000D03*
X231900000Y-138120000D03*
X304700000Y-142980000D03*
X304700000Y-142020000D03*
D17*
X193820000Y-123520000D03*
X193820000Y-124480000D03*
D21*
X134400000Y-144509999D03*
X134400000Y-143490001D03*
D20*
X98680000Y-139000000D03*
X97720000Y-139000000D03*
D19*
X117200000Y-143650000D03*
X117200000Y-146950000D03*
D14*
X347520000Y-140050000D03*
X347520000Y-141550000D03*
X353520000Y-141550000D03*
X353520000Y-140050000D03*
D19*
X299500000Y-128250000D03*
X299500000Y-131550000D03*
X323750000Y-125350000D03*
X323750000Y-128650000D03*
D15*
X346600000Y-100980000D03*
X346600000Y-100020000D03*
D19*
X360500000Y-143600000D03*
X360500000Y-146900000D03*
D22*
X201809999Y-140300000D03*
X200790001Y-140300000D03*
D20*
X146680000Y-139100000D03*
X145720000Y-139100000D03*
X176180000Y-140100000D03*
X175220000Y-140100000D03*
D14*
X208931250Y-140050000D03*
D29*
X209031250Y-141550000D03*
D14*
X214931250Y-141550000D03*
X214931250Y-140050000D03*
X231600000Y-84500000D03*
X231600000Y-83000000D03*
X225600000Y-83000000D03*
X225600000Y-84500000D03*
D19*
X276750000Y-105450000D03*
X276750000Y-108750000D03*
X143600000Y-86850000D03*
X143600000Y-90150000D03*
D20*
X191229999Y-138800000D03*
X190269999Y-138800000D03*
D14*
X174450000Y-122600000D03*
X174450000Y-121100000D03*
X168450000Y-121100000D03*
X168450000Y-122600000D03*
D20*
X197280000Y-150053838D03*
X196320000Y-150053838D03*
D19*
X219600000Y-105450000D03*
X219600000Y-108750000D03*
D14*
X366570000Y-140050000D03*
X366570000Y-141550000D03*
X372570000Y-141550000D03*
X372570000Y-140050000D03*
D20*
X148780000Y-100900000D03*
X147820000Y-100900000D03*
D15*
X327500000Y-100980000D03*
X327500000Y-100020000D03*
D19*
X238800000Y-86350000D03*
X238800000Y-89650000D03*
D30*
X106990001Y-87250000D03*
X108009999Y-87250000D03*
D14*
X286560000Y-143860000D03*
X286560000Y-145360000D03*
X292560000Y-145360000D03*
X292560000Y-143860000D03*
D13*
X70750000Y-97600000D03*
X74050000Y-97600000D03*
D14*
X244650000Y-101950000D03*
X244650000Y-103450000D03*
X250650000Y-103450000D03*
X250650000Y-101950000D03*
D17*
X174800000Y-85720000D03*
X174800000Y-86680000D03*
D14*
X155400000Y-84500000D03*
X155400000Y-83000000D03*
X149400000Y-83000000D03*
X149400000Y-84500000D03*
D17*
X212900000Y-123520000D03*
X212900000Y-124480000D03*
D19*
X162450000Y-105450000D03*
X162450000Y-108750000D03*
D14*
X73200000Y-101950000D03*
X73200000Y-103450000D03*
X79200000Y-103450000D03*
X79200000Y-101950000D03*
X147018750Y-140050000D03*
X147018750Y-141550000D03*
X153018750Y-141550000D03*
X153018750Y-140050000D03*
X307800000Y-84500000D03*
X307800000Y-83000000D03*
X301800000Y-83000000D03*
X301800000Y-84500000D03*
D21*
X136800000Y-141309999D03*
X136800000Y-140290001D03*
D17*
X79600000Y-123520000D03*
X79600000Y-124480000D03*
D31*
X198758001Y-153658000D03*
X196558001Y-153658000D03*
X196558001Y-151958000D03*
X198758001Y-151958000D03*
D17*
X155800000Y-85720000D03*
X155800000Y-86680000D03*
X232000000Y-85720000D03*
X232000000Y-86680000D03*
D19*
X86300000Y-90850000D03*
X86300000Y-94150000D03*
X200600000Y-86350000D03*
X200600000Y-89650000D03*
D14*
X193500000Y-122600000D03*
X193500000Y-121100000D03*
X187500000Y-121100000D03*
X187500000Y-122600000D03*
X177975000Y-140050000D03*
X177975000Y-141550000D03*
X183975000Y-141550000D03*
X183975000Y-140050000D03*
X366570000Y-101950000D03*
X366570000Y-103450000D03*
X372570000Y-103450000D03*
X372570000Y-101950000D03*
D23*
X202870000Y-144300000D03*
X203830000Y-144300000D03*
D14*
X282750000Y-101950000D03*
X282750000Y-103450000D03*
X288750000Y-103450000D03*
X288750000Y-101950000D03*
X372570000Y-122600000D03*
X372570000Y-121100000D03*
X366570000Y-121100000D03*
X366570000Y-122600000D03*
D17*
X117700000Y-123520000D03*
X117700000Y-124480000D03*
D15*
X300900000Y-100980000D03*
X300900000Y-100020000D03*
D23*
X202870000Y-145300000D03*
X203830000Y-145300000D03*
D14*
X79200000Y-122600000D03*
X79200000Y-121100000D03*
X73200000Y-121100000D03*
X73200000Y-122600000D03*
D19*
X86250000Y-124350000D03*
X86250000Y-127650000D03*
X143400000Y-105450000D03*
X143400000Y-108750000D03*
D32*
X129300001Y-80500000D03*
X131199999Y-80500000D03*
D15*
X224700000Y-100980000D03*
X224700000Y-100020000D03*
D17*
X372900000Y-123520000D03*
X372900000Y-124480000D03*
D19*
X143400000Y-124350000D03*
X143400000Y-127650000D03*
X173100000Y-143950000D03*
X173100000Y-147250000D03*
D15*
X91300000Y-100980000D03*
X91300000Y-100020000D03*
D17*
X353900000Y-85720000D03*
X353900000Y-86680000D03*
D19*
X238650000Y-124350000D03*
X238650000Y-127650000D03*
D15*
X323700000Y-142880000D03*
X323700000Y-141920000D03*
D14*
X123206250Y-140050000D03*
X123206250Y-141550000D03*
X129206250Y-141550000D03*
X129206250Y-140050000D03*
X232743750Y-140050000D03*
X232743750Y-141550000D03*
X238743750Y-141550000D03*
X238743750Y-140050000D03*
D15*
X167500000Y-100980000D03*
X167500000Y-100020000D03*
X346600000Y-139080000D03*
X346600000Y-138120000D03*
D33*
X137750000Y-145337500D03*
X135850000Y-145337500D03*
X136800000Y-143462499D03*
D14*
X99393750Y-140050000D03*
X99393750Y-141550000D03*
X105393750Y-141550000D03*
X105393750Y-140050000D03*
X256556250Y-140050000D03*
X256556250Y-141550000D03*
X262556250Y-141550000D03*
X262556250Y-140050000D03*
X149400000Y-101950000D03*
X149400000Y-103450000D03*
X155400000Y-103450000D03*
X155400000Y-101950000D03*
D34*
X207055000Y-142600000D03*
X205785000Y-142600000D03*
X204515000Y-142600000D03*
X203245000Y-142600000D03*
X203245000Y-135400000D03*
X204515000Y-135400000D03*
X205785000Y-135400000D03*
X207055000Y-135400000D03*
D35*
X120850000Y-85600000D03*
X120850001Y-83300000D03*
D36*
X127149999Y-83300000D03*
D35*
X120850000Y-81000000D03*
D14*
X372570000Y-84500000D03*
X372570000Y-83000000D03*
X366570000Y-83000000D03*
X366570000Y-84500000D03*
D19*
X296000000Y-86350000D03*
X296000000Y-89650000D03*
D14*
X288750000Y-84500000D03*
X288750000Y-83000000D03*
X282750000Y-83000000D03*
X282750000Y-84500000D03*
D25*
X137799999Y-146890001D03*
X137799999Y-147909999D03*
D23*
X202870000Y-147300000D03*
X203830000Y-147300000D03*
D37*
X196949999Y-144659999D03*
X196949999Y-143059999D03*
X195349999Y-144659999D03*
X195349999Y-143059999D03*
D38*
X199587499Y-141259999D03*
X199587499Y-141660000D03*
X199587499Y-142059999D03*
X199587499Y-142459999D03*
X199587499Y-142859999D03*
X199587499Y-143259998D03*
X199587499Y-143659999D03*
X199587499Y-144059999D03*
X199587499Y-144460000D03*
X199587499Y-144859999D03*
X199587499Y-145259999D03*
X199587499Y-145659999D03*
X199587499Y-146059998D03*
X199587499Y-146459999D03*
D39*
X198749999Y-147297499D03*
X198349998Y-147297499D03*
X197949999Y-147297499D03*
X197549999Y-147297499D03*
X197149999Y-147297499D03*
X196750000Y-147297499D03*
X196349999Y-147297499D03*
X195949999Y-147297499D03*
X195549998Y-147297499D03*
X195149999Y-147297499D03*
X194749999Y-147297499D03*
X194349999Y-147297499D03*
X193950000Y-147297499D03*
X193549999Y-147297499D03*
D38*
X192712499Y-146459999D03*
X192712499Y-146059998D03*
X192712499Y-145659999D03*
X192712499Y-145259999D03*
X192712499Y-144859999D03*
X192712499Y-144460000D03*
X192712499Y-144059999D03*
X192712499Y-143659999D03*
X192712499Y-143259998D03*
X192712499Y-142859999D03*
X192712499Y-142459999D03*
X192712499Y-142059999D03*
X192712499Y-141660000D03*
X192712499Y-141259999D03*
D39*
X193549999Y-140422499D03*
X193950000Y-140422499D03*
X194349999Y-140422499D03*
X194749999Y-140422499D03*
X195149999Y-140422499D03*
X195549998Y-140422499D03*
X195949999Y-140422499D03*
X196349999Y-140422499D03*
X196750000Y-140422499D03*
X197149999Y-140422499D03*
X197549999Y-140422499D03*
X197949999Y-140422499D03*
X198349998Y-140422499D03*
X198749999Y-140422499D03*
D19*
X141100000Y-143650000D03*
X141100000Y-146950000D03*
X250600000Y-143450000D03*
X250600000Y-146750000D03*
D14*
X301800000Y-101950000D03*
X301800000Y-103450000D03*
X307800000Y-103450000D03*
X307800000Y-101950000D03*
X269700000Y-122600000D03*
X269700000Y-121100000D03*
X263700000Y-121100000D03*
X263700000Y-122600000D03*
D15*
X285600000Y-142880000D03*
X285600000Y-141920000D03*
D19*
X89200000Y-143650000D03*
X89200000Y-146950000D03*
D17*
X193900000Y-85720000D03*
X193900000Y-86680000D03*
D19*
X219600000Y-86350000D03*
X219600000Y-89650000D03*
D14*
X225600000Y-101950000D03*
X225600000Y-103450000D03*
X231600000Y-103450000D03*
X231600000Y-101950000D03*
D19*
X360500000Y-105450000D03*
X360500000Y-108750000D03*
D14*
X117300000Y-84500000D03*
X117300000Y-83000000D03*
X111300000Y-83000000D03*
X111300000Y-84500000D03*
X324660000Y-143860000D03*
X324660000Y-145360000D03*
X330660000Y-145360000D03*
X330660000Y-143860000D03*
X187500000Y-101950000D03*
X187500000Y-103450000D03*
X193500000Y-103450000D03*
X193500000Y-101950000D03*
D13*
X70750000Y-116600000D03*
X74050000Y-116600000D03*
D14*
X174450000Y-84500000D03*
X174450000Y-83000000D03*
X168450000Y-83000000D03*
X168450000Y-84500000D03*
D15*
X192249999Y-139180000D03*
X192249999Y-138220000D03*
D19*
X86250000Y-105450000D03*
X86250000Y-108750000D03*
D15*
X72300000Y-100980000D03*
X72300000Y-100020000D03*
D21*
X135799999Y-147909999D03*
X135799999Y-146890001D03*
D17*
X312000000Y-127420000D03*
X312000000Y-128380000D03*
X308200000Y-85720000D03*
X308200000Y-86680000D03*
D20*
X191230000Y-139800000D03*
X190270000Y-139800000D03*
D23*
X202870000Y-146300000D03*
X203830000Y-146300000D03*
M02*
