<?xml version="1.0" standalone="no"?>
 <!DOCTYPE svg PUBLIC "-//W3C//DTD SVG 1.1//EN" 
 "http://www.w3.org/Graphics/SVG/1.1/DTD/svg11.dtd"> 
<svg
  xmlns:svg="http://www.w3.org/2000/svg"
  xmlns="http://www.w3.org/2000/svg"
  xmlns:xlink="http://www.w3.org/1999/xlink"
  version="1.1"
  width="419.989000mm" height="297.002200mm" viewBox="0.000000 0.000000 419.989000 297.002200">
<title>SVG Image created as not-so-fullsize-ortho-Edge_Cuts.svg date 2024/08/18 17:06:21 </title>
  <desc>Image generated by PCBNEW </desc>
<g style="fill:#000000; fill-opacity:1.000000;stroke:#000000; stroke-opacity:1.000000;
stroke-linecap:round; stroke-linejoin:round;"
 transform="translate(0 0) scale(1 1)">
</g>
<g style="fill:none; 
stroke:#000000; stroke-width:0.050000; stroke-opacity:1; 
stroke-linecap:round; stroke-linejoin:round;">
<path d="M341.000000 80.250000 A0.250000 0.250000 0.0 0 0 341.250000 80.000000" />
<path d="M340.750000 80.000000 A0.250000 0.250000 0.0 0 0 341.000000 80.250000" />
<path d="M341.250000 78.750000
L341.250000 80.000000
" />
<path d="M340.750000 78.750000
L340.750000 80.000000
" />
<path d="M341.250000 156.000000 A0.250000 0.250000 0.0 0 0 341.500000 156.250000" />
<path d="M340.500000 156.250000 A0.250000 0.250000 0.0 0 0 340.750000 156.000000" />
<path d="M341.250000 155.000000 A0.250000 0.250000 0.0 0 0 341.000000 154.750000" />
<path d="M341.000000 154.750000 A0.250000 0.250000 0.0 0 0 340.750000 155.000000" />
<path d="M341.250000 156.000000
L341.250000 155.000000
" />
<path d="M340.750000 156.000000
L340.750000 155.000000
" />
<path d="M339.000000 156.250000
L340.500000 156.250000
" />
<path d="M341.250000 78.750000
L378.750000 78.750000
" />
<path d="M341.000000 149.750000 A0.249999 0.249999 0.0 0 0 341.250000 149.500000" />
<path d="M341.250000 140.000000
L341.250000 149.500000
" />
<path d="M340.750000 149.500000 A0.249999 0.249999 0.0 0 0 341.000000 149.750000" />
<path d="M341.250000 140.000000 A0.250000 0.250000 0.0 0 0 341.000000 139.750000" />
<path d="M340.750000 149.500000
L340.750000 140.000000
" />
<path d="M341.000000 139.750000 A0.249999 0.249999 0.0 0 0 340.750000 140.000000" />
<path d="M341.000000 134.750000 A0.249999 0.249999 0.0 0 0 341.250000 134.500000" />
<path d="M341.250000 120.800000
L341.250000 134.500000
" />
<path d="M340.750000 134.500000 A0.249999 0.249999 0.0 0 0 341.000000 134.750000" />
<path d="M341.250000 120.800000 A0.250000 0.250000 0.0 0 0 341.000000 120.550000" />
<path d="M340.750000 134.500000
L340.750000 120.800000
" />
<path d="M341.000000 120.550000 A0.249999 0.249999 0.0 0 0 340.750000 120.800000" />
<path d="M279.250000 159.000000
L279.250000 157.250000
" />
<path d="M341.250000 85.500000
L341.250000 95.750000
" />
<path d="M279.250000 159.000000 A1.000000 1.000000 0.0 0 0 280.250000 160.000000" />
<path d="M340.750000 95.750000 A0.250000 0.250000 0.0 0 0 341.000000 96.000000" />
<path d="M337.000000 160.000000 A1.000000 1.000000 0.0 0 0 338.000000 159.000000" />
<path d="M341.500000 156.250000
L378.750000 156.250000
" />
<path d="M341.250000 85.499777 A0.250000 0.250000 0.0 0 0 341.000000 85.249777" />
<path d="M67.000000 78.750000 A1.000000 1.000000 0.0 0 0 66.000000 79.750000" />
<path d="M339.000000 156.250000 A1.000000 1.000000 0.0 0 0 338.000000 157.250000" />
<path d="M341.000000 101.350000 A0.250000 0.250000 0.0 0 0 340.750000 101.600000" />
<path d="M340.750000 115.300000
L340.750000 101.600000
" />
<path d="M341.000000 96.000000 A0.250000 0.250000 0.0 0 0 341.250000 95.750000" />
<path d="M341.250000 101.600000 A0.250000 0.250000 0.0 0 0 341.000000 101.350000" />
<path d="M338.000000 157.250000
L338.000000 159.000000
" />
<path d="M340.750000 95.750000
L340.750000 85.500000
" />
<path d="M341.000000 85.249777 A0.250000 0.250000 0.0 0 0 340.750000 85.499777" />
<path d="M278.250000 156.250000
L67.000000 156.250000
" />
<path d="M66.000000 79.750000
L66.000000 155.250000
" />
<path d="M378.750000 156.250000 A1.000000 1.000000 0.0 0 0 379.750000 155.250000" />
<path d="M279.250000 157.250000 A1.000000 1.000000 0.0 0 0 278.250000 156.250000" />
<path d="M340.750000 78.750000
L67.000000 78.750000
" />
<path d="M337.000000 160.000000
L280.250000 160.000000
" />
<path d="M379.750000 79.750000 A1.000000 1.000000 0.0 0 0 378.750000 78.750000" />
<path d="M66.000000 155.250000 A1.000000 1.000000 0.0 0 0 67.000000 156.250000" />
<path d="M341.250000 101.600000
L341.250000 115.300000
" />
<path d="M340.750000 115.300000 A0.250000 0.250000 0.0 0 0 341.000000 115.550000" />
<path d="M379.750000 155.250000
L379.750000 79.750000
" />
<path d="M341.000000 115.550000 A0.250000 0.250000 0.0 0 0 341.250000 115.300000" />
<path style="fill:none; 
stroke:#000000; stroke-width:0.050000; stroke-opacity:1; 
stroke-linecap:round; stroke-linejoin:round;fill:none"
d="M 306.860000,146.210000
310.360000,146.210000
310.360000,143.110000
306.860000,143.110000
Z" /> 
<path style="fill:none; 
stroke:#000000; stroke-width:0.050000; stroke-opacity:1; 
stroke-linecap:round; stroke-linejoin:round;fill:none"
d="M 352.270000,120.250000
348.770000,120.250000
348.770000,123.350000
352.270000,123.350000
Z" /> 
<path style="fill:none; 
stroke:#000000; stroke-width:0.050000; stroke-opacity:1; 
stroke-linecap:round; stroke-linejoin:round;fill:none"
d="M 192.250000,82.150000
188.750000,82.150000
188.750000,85.250000
192.250000,85.250000
Z" /> 
<path style="fill:none; 
stroke:#000000; stroke-width:0.050000; stroke-opacity:1; 
stroke-linecap:round; stroke-linejoin:round;fill:none"
d="M 249.400000,82.150000
245.900000,82.150000
245.900000,85.250000
249.400000,85.250000
Z" /> 
<path style="fill:none; 
stroke:#000000; stroke-width:0.050000; stroke-opacity:1; 
stroke-linecap:round; stroke-linejoin:round;fill:none"
d="M 97.000000,120.250000
93.500000,120.250000
93.500000,123.350000
97.000000,123.350000
Z" /> 
<path style="fill:none; 
stroke:#000000; stroke-width:0.050000; stroke-opacity:1; 
stroke-linecap:round; stroke-linejoin:round;fill:none"
d="M 76.831250,142.400000
80.331250,142.400000
80.331250,139.300000
76.831250,139.300000
Z" /> 
<path style="fill:none; 
stroke:#000000; stroke-width:0.050000; stroke-opacity:1; 
stroke-linecap:round; stroke-linejoin:round;fill:none"
d="M 93.500000,104.300000
97.000000,104.300000
97.000000,101.200000
93.500000,101.200000
Z" /> 
<path style="fill:none; 
stroke:#000000; stroke-width:0.050000; stroke-opacity:1; 
stroke-linecap:round; stroke-linejoin:round;fill:none"
d="M 310.360000,124.060000
306.860000,124.060000
306.860000,127.160000
310.360000,127.160000
Z" /> 
<path style="fill:none; 
stroke:#000000; stroke-width:0.050000; stroke-opacity:1; 
stroke-linecap:round; stroke-linejoin:round;fill:none"
d="M 135.100000,120.250000
131.600000,120.250000
131.600000,123.350000
135.100000,123.350000
Z" /> 
<path style="fill:none; 
stroke:#000000; stroke-width:0.050000; stroke-opacity:1; 
stroke-linecap:round; stroke-linejoin:round;fill:none"
d="M 249.400000,120.250000
245.900000,120.250000
245.900000,123.350000
249.400000,123.350000
Z" /> 
<path style="fill:none; 
stroke:#000000; stroke-width:0.050000; stroke-opacity:1; 
stroke-linecap:round; stroke-linejoin:round;fill:none"
d="M 116.050000,120.250000
112.550000,120.250000
112.550000,123.350000
116.050000,123.350000
Z" /> 
<path style="fill:none; 
stroke:#000000; stroke-width:0.050000; stroke-opacity:1; 
stroke-linecap:round; stroke-linejoin:round;fill:none"
d="M 333.220000,82.150000
329.720000,82.150000
329.720000,85.250000
333.220000,85.250000
Z" /> 
<path style="fill:none; 
stroke:#000000; stroke-width:0.050000; stroke-opacity:1; 
stroke-linecap:round; stroke-linejoin:round;fill:none"
d="M 77.950000,82.149999
74.450000,82.149999
74.450000,85.249999
77.950000,85.249999
Z" /> 
<path style="fill:none; 
stroke:#000000; stroke-width:0.050000; stroke-opacity:1; 
stroke-linecap:round; stroke-linejoin:round;fill:none"
d="M 207.800000,104.300000
211.300000,104.300000
211.300000,101.200000
207.800000,101.200000
Z" /> 
<path style="fill:none; 
stroke:#000000; stroke-width:0.050000; stroke-opacity:1; 
stroke-linecap:round; stroke-linejoin:round;fill:none"
d="M 329.720000,104.300000
333.220000,104.300000
333.220000,101.200000
329.720000,101.200000
Z" /> 
<path style="fill:none; 
stroke:#000000; stroke-width:0.050000; stroke-opacity:1; 
stroke-linecap:round; stroke-linejoin:round;fill:none"
d="M 211.300000,82.150000
207.800000,82.150000
207.800000,85.250000
211.300000,85.250000
Z" /> 
<path style="fill:none; 
stroke:#000000; stroke-width:0.050000; stroke-opacity:1; 
stroke-linecap:round; stroke-linejoin:round;fill:none"
d="M 230.350000,120.250000
226.850000,120.250000
226.850000,123.350000
230.350000,123.350000
Z" /> 
<path style="fill:none; 
stroke:#000000; stroke-width:0.050000; stroke-opacity:1; 
stroke-linecap:round; stroke-linejoin:round;fill:none"
d="M 287.500000,120.250000
284.000000,120.250000
284.000000,123.350000
287.500000,123.350000
Z" /> 
<path style="fill:none; 
stroke:#000000; stroke-width:0.050000; stroke-opacity:1; 
stroke-linecap:round; stroke-linejoin:round;fill:none"
d="M 348.770000,104.300000
352.270000,104.300000
352.270000,101.200000
348.770000,101.200000
Z" /> 
<path style="fill:none; 
stroke:#000000; stroke-width:0.050000; stroke-opacity:1; 
stroke-linecap:round; stroke-linejoin:round;fill:none"
d="M 333.220000,120.250000
329.720000,120.250000
329.720000,123.350000
333.220000,123.350000
Z" /> 
<path style="fill:none; 
stroke:#000000; stroke-width:0.050000; stroke-opacity:1; 
stroke-linecap:round; stroke-linejoin:round;fill:none"
d="M 154.150000,120.250000
150.650000,120.250000
150.650000,123.350000
154.150000,123.350000
Z" /> 
<path style="fill:none; 
stroke:#000000; stroke-width:0.050000; stroke-opacity:1; 
stroke-linecap:round; stroke-linejoin:round;fill:none"
d="M 211.300000,120.250000
207.800000,120.250000
207.800000,123.350000
211.300000,123.350000
Z" /> 
<path style="fill:none; 
stroke:#000000; stroke-width:0.050000; stroke-opacity:1; 
stroke-linecap:round; stroke-linejoin:round;fill:none"
d="M 135.100000,82.150000
131.600000,82.150000
131.600000,85.250000
135.100000,85.250000
Z" /> 
<path style="fill:none; 
stroke:#000000; stroke-width:0.050000; stroke-opacity:1; 
stroke-linecap:round; stroke-linejoin:round;fill:none"
d="M 264.950000,104.300000
268.450000,104.300000
268.450000,101.200000
264.950000,101.200000
Z" /> 
<path style="fill:none; 
stroke:#000000; stroke-width:0.050000; stroke-opacity:1; 
stroke-linecap:round; stroke-linejoin:round;fill:none"
d="M 131.600000,104.300000
135.100000,104.300000
135.100000,101.200000
131.600000,101.200000
Z" /> 
<path style="fill:none; 
stroke:#000000; stroke-width:0.050000; stroke-opacity:1; 
stroke-linecap:round; stroke-linejoin:round;fill:none"
d="M 97.000000,82.150000
93.500000,82.150000
93.500000,85.250000
97.000000,85.250000
Z" /> 
<path style="fill:none; 
stroke:#000000; stroke-width:0.050000; stroke-opacity:1; 
stroke-linecap:round; stroke-linejoin:round;fill:none"
d="M 169.700000,104.300000
173.200000,104.300000
173.200000,101.200000
169.700000,101.200000
Z" /> 
<path style="fill:none; 
stroke:#000000; stroke-width:0.050000; stroke-opacity:1; 
stroke-linecap:round; stroke-linejoin:round;fill:none"
d="M 352.270000,82.150000
348.770000,82.150000
348.770000,85.250000
352.270000,85.250000
Z" /> 
<path style="fill:none; 
stroke:#000000; stroke-width:0.050000; stroke-opacity:1; 
stroke-linecap:round; stroke-linejoin:round;fill:none"
d="M 112.550000,104.300000
116.050000,104.300000
116.050000,101.200000
112.550000,101.200000
Z" /> 
<path style="fill:none; 
stroke:#000000; stroke-width:0.050000; stroke-opacity:1; 
stroke-linecap:round; stroke-linejoin:round;fill:none"
d="M 268.450000,82.150000
264.950000,82.150000
264.950000,85.250000
268.450000,85.250000
Z" /> 
<path style="fill:none; 
stroke:#000000; stroke-width:0.050000; stroke-opacity:1; 
stroke-linecap:round; stroke-linejoin:round;fill:none"
d="M 348.770000,142.400000
352.270000,142.400000
352.270000,139.300000
348.770000,139.300000
Z" /> 
<path style="fill:none; 
stroke:#000000; stroke-width:0.050000; stroke-opacity:1; 
stroke-linecap:round; stroke-linejoin:round;fill:none"
d="M 210.181250,142.400000
213.681250,142.400000
213.681250,139.300000
210.181250,139.300000
Z" /> 
<path style="fill:none; 
stroke:#000000; stroke-width:0.050000; stroke-opacity:1; 
stroke-linecap:round; stroke-linejoin:round;fill:none"
d="M 230.350000,82.150000
226.850000,82.150000
226.850000,85.250000
230.350000,85.250000
Z" /> 
<path style="fill:none; 
stroke:#000000; stroke-width:0.050000; stroke-opacity:1; 
stroke-linecap:round; stroke-linejoin:round;fill:none"
d="M 173.200000,120.250000
169.700000,120.250000
169.700000,123.350000
173.200000,123.350000
Z" /> 
<path style="fill:none; 
stroke:#000000; stroke-width:0.050000; stroke-opacity:1; 
stroke-linecap:round; stroke-linejoin:round;fill:none"
d="M 367.820000,142.400000
371.320000,142.400000
371.320000,139.300000
367.820000,139.300000
Z" /> 
<path style="fill:none; 
stroke:#000000; stroke-width:0.050000; stroke-opacity:1; 
stroke-linecap:round; stroke-linejoin:round;fill:none"
d="M 287.810000,146.210000
291.310000,146.210000
291.310000,143.110000
287.810000,143.110000
Z" /> 
<path style="fill:none; 
stroke:#000000; stroke-width:0.050000; stroke-opacity:1; 
stroke-linecap:round; stroke-linejoin:round;fill:none"
d="M 245.900000,104.300000
249.400000,104.300000
249.400000,101.200000
245.900000,101.200000
Z" /> 
<path style="fill:none; 
stroke:#000000; stroke-width:0.050000; stroke-opacity:1; 
stroke-linecap:round; stroke-linejoin:round;fill:none"
d="M 154.150000,82.150000
150.650000,82.150000
150.650000,85.250000
154.150000,85.250000
Z" /> 
<path style="fill:none; 
stroke:#000000; stroke-width:0.050000; stroke-opacity:1; 
stroke-linecap:round; stroke-linejoin:round;fill:none"
d="M 74.450000,104.300000
77.950000,104.300000
77.950000,101.200000
74.450000,101.200000
Z" /> 
<path style="fill:none; 
stroke:#000000; stroke-width:0.050000; stroke-opacity:1; 
stroke-linecap:round; stroke-linejoin:round;fill:none"
d="M 148.268750,142.400000
151.768750,142.400000
151.768750,139.300000
148.268750,139.300000
Z" /> 
<path style="fill:none; 
stroke:#000000; stroke-width:0.050000; stroke-opacity:1; 
stroke-linecap:round; stroke-linejoin:round;fill:none"
d="M 306.550000,82.150000
303.050000,82.150000
303.050000,85.250000
306.550000,85.250000
Z" /> 
<path style="fill:none; 
stroke:#000000; stroke-width:0.050000; stroke-opacity:1; 
stroke-linecap:round; stroke-linejoin:round;fill:none"
d="M 192.250000,120.250000
188.750000,120.250000
188.750000,123.350000
192.250000,123.350000
Z" /> 
<path style="fill:none; 
stroke:#000000; stroke-width:0.050000; stroke-opacity:1; 
stroke-linecap:round; stroke-linejoin:round;fill:none"
d="M 179.225000,142.400000
182.725000,142.400000
182.725000,139.300000
179.225000,139.300000
Z" /> 
<path style="fill:none; 
stroke:#000000; stroke-width:0.050000; stroke-opacity:1; 
stroke-linecap:round; stroke-linejoin:round;fill:none"
d="M 367.820000,104.300000
371.320000,104.300000
371.320000,101.200000
367.820000,101.200000
Z" /> 
<path style="fill:none; 
stroke:#000000; stroke-width:0.050000; stroke-opacity:1; 
stroke-linecap:round; stroke-linejoin:round;fill:none"
d="M 284.000000,104.300000
287.500000,104.300000
287.500000,101.200000
284.000000,101.200000
Z" /> 
<path style="fill:none; 
stroke:#000000; stroke-width:0.050000; stroke-opacity:1; 
stroke-linecap:round; stroke-linejoin:round;fill:none"
d="M 371.320000,120.250000
367.820000,120.250000
367.820000,123.350000
371.320000,123.350000
Z" /> 
<path style="fill:none; 
stroke:#000000; stroke-width:0.050000; stroke-opacity:1; 
stroke-linecap:round; stroke-linejoin:round;fill:none"
d="M 77.950000,120.250000
74.450000,120.250000
74.450000,123.350000
77.950000,123.350000
Z" /> 
<path style="fill:none; 
stroke:#000000; stroke-width:0.050000; stroke-opacity:1; 
stroke-linecap:round; stroke-linejoin:round;fill:none"
d="M 124.456250,142.400000
127.956250,142.400000
127.956250,139.300000
124.456250,139.300000
Z" /> 
<path style="fill:none; 
stroke:#000000; stroke-width:0.050000; stroke-opacity:1; 
stroke-linecap:round; stroke-linejoin:round;fill:none"
d="M 233.993750,142.400000
237.493750,142.400000
237.493750,139.300000
233.993750,139.300000
Z" /> 
<path style="fill:none; 
stroke:#000000; stroke-width:0.050000; stroke-opacity:1; 
stroke-linecap:round; stroke-linejoin:round;fill:none"
d="M 100.643750,142.400000
104.143750,142.400000
104.143750,139.300000
100.643750,139.300000
Z" /> 
<path style="fill:none; 
stroke:#000000; stroke-width:0.050000; stroke-opacity:1; 
stroke-linecap:round; stroke-linejoin:round;fill:none"
d="M 257.806250,142.400000
261.306250,142.400000
261.306250,139.300000
257.806250,139.300000
Z" /> 
<path style="fill:none; 
stroke:#000000; stroke-width:0.050000; stroke-opacity:1; 
stroke-linecap:round; stroke-linejoin:round;fill:none"
d="M 150.650000,104.300000
154.150000,104.300000
154.150000,101.200000
150.650000,101.200000
Z" /> 
<path style="fill:none; 
stroke:#000000; stroke-width:0.050000; stroke-opacity:1; 
stroke-linecap:round; stroke-linejoin:round;fill:none"
d="M 371.320000,82.150000
367.820000,82.150000
367.820000,85.250000
371.320000,85.250000
Z" /> 
<path style="fill:none; 
stroke:#000000; stroke-width:0.050000; stroke-opacity:1; 
stroke-linecap:round; stroke-linejoin:round;fill:none"
d="M 287.500000,82.150000
284.000000,82.150000
284.000000,85.250000
287.500000,85.250000
Z" /> 
<path style="fill:none; 
stroke:#000000; stroke-width:0.050000; stroke-opacity:1; 
stroke-linecap:round; stroke-linejoin:round;fill:none"
d="M 303.050000,104.300000
306.550000,104.300000
306.550000,101.200000
303.050000,101.200000
Z" /> 
<path style="fill:none; 
stroke:#000000; stroke-width:0.050000; stroke-opacity:1; 
stroke-linecap:round; stroke-linejoin:round;fill:none"
d="M 268.450000,120.250000
264.950000,120.250000
264.950000,123.350000
268.450000,123.350000
Z" /> 
<path style="fill:none; 
stroke:#000000; stroke-width:0.050000; stroke-opacity:1; 
stroke-linecap:round; stroke-linejoin:round;fill:none"
d="M 226.850000,104.300000
230.350000,104.300000
230.350000,101.200000
226.850000,101.200000
Z" /> 
<path style="fill:none; 
stroke:#000000; stroke-width:0.050000; stroke-opacity:1; 
stroke-linecap:round; stroke-linejoin:round;fill:none"
d="M 116.050000,82.150000
112.550000,82.150000
112.550000,85.250000
116.050000,85.250000
Z" /> 
<path style="fill:none; 
stroke:#000000; stroke-width:0.050000; stroke-opacity:1; 
stroke-linecap:round; stroke-linejoin:round;fill:none"
d="M 325.910000,146.210000
329.410000,146.210000
329.410000,143.110000
325.910000,143.110000
Z" /> 
<path style="fill:none; 
stroke:#000000; stroke-width:0.050000; stroke-opacity:1; 
stroke-linecap:round; stroke-linejoin:round;fill:none"
d="M 188.750000,104.300000
192.250000,104.300000
192.250000,101.200000
188.750000,101.200000
Z" /> 
<path style="fill:none; 
stroke:#000000; stroke-width:0.050000; stroke-opacity:1; 
stroke-linecap:round; stroke-linejoin:round;fill:none"
d="M 173.200000,82.150000
169.700000,82.150000
169.700000,85.250000
173.200000,85.250000
Z" /> 
</g> 
</svg>
