G04 #@! TF.GenerationSoftware,KiCad,Pcbnew,8.0.4*
G04 #@! TF.CreationDate,2024-08-22T22:47:04+02:00*
G04 #@! TF.ProjectId,Mimic40,4d696d69-6334-4302-9e6b-696361645f70,rev?*
G04 #@! TF.SameCoordinates,Original*
G04 #@! TF.FileFunction,Legend,Top*
G04 #@! TF.FilePolarity,Positive*
%FSLAX46Y46*%
G04 Gerber Fmt 4.6, Leading zero omitted, Abs format (unit mm)*
G04 Created by KiCad (PCBNEW 8.0.4) date 2024-08-22 22:47:04*
%MOMM*%
%LPD*%
G01*
G04 APERTURE LIST*
%ADD10C,0.150000*%
%ADD11C,0.120000*%
G04 APERTURE END LIST*
D10*
X191238094Y-96445180D02*
X191238094Y-97445180D01*
X190666666Y-96445180D02*
X191095237Y-97016609D01*
X190666666Y-97445180D02*
X191238094Y-96873752D01*
X190333332Y-97445180D02*
X189666666Y-97445180D01*
X189666666Y-97445180D02*
X190095237Y-96445180D01*
X370784285Y-134545180D02*
X370784285Y-135545180D01*
X370212857Y-134545180D02*
X370641428Y-135116609D01*
X370212857Y-135545180D02*
X370784285Y-134973752D01*
X369355714Y-135211847D02*
X369355714Y-134545180D01*
X369593809Y-135592800D02*
X369831904Y-134878514D01*
X369831904Y-134878514D02*
X369212857Y-134878514D01*
X368784285Y-134545180D02*
X368593809Y-134545180D01*
X368593809Y-134545180D02*
X368498571Y-134592800D01*
X368498571Y-134592800D02*
X368450952Y-134640419D01*
X368450952Y-134640419D02*
X368355714Y-134783276D01*
X368355714Y-134783276D02*
X368308095Y-134973752D01*
X368308095Y-134973752D02*
X368308095Y-135354704D01*
X368308095Y-135354704D02*
X368355714Y-135449942D01*
X368355714Y-135449942D02*
X368403333Y-135497561D01*
X368403333Y-135497561D02*
X368498571Y-135545180D01*
X368498571Y-135545180D02*
X368689047Y-135545180D01*
X368689047Y-135545180D02*
X368784285Y-135497561D01*
X368784285Y-135497561D02*
X368831904Y-135449942D01*
X368831904Y-135449942D02*
X368879523Y-135354704D01*
X368879523Y-135354704D02*
X368879523Y-135116609D01*
X368879523Y-135116609D02*
X368831904Y-135021371D01*
X368831904Y-135021371D02*
X368784285Y-134973752D01*
X368784285Y-134973752D02*
X368689047Y-134926133D01*
X368689047Y-134926133D02*
X368498571Y-134926133D01*
X368498571Y-134926133D02*
X368403333Y-134973752D01*
X368403333Y-134973752D02*
X368355714Y-135021371D01*
X368355714Y-135021371D02*
X368308095Y-135116609D01*
X134564285Y-115495180D02*
X134564285Y-116495180D01*
X133992857Y-115495180D02*
X134421428Y-116066609D01*
X133992857Y-116495180D02*
X134564285Y-115923752D01*
X133611904Y-116399942D02*
X133564285Y-116447561D01*
X133564285Y-116447561D02*
X133469047Y-116495180D01*
X133469047Y-116495180D02*
X133230952Y-116495180D01*
X133230952Y-116495180D02*
X133135714Y-116447561D01*
X133135714Y-116447561D02*
X133088095Y-116399942D01*
X133088095Y-116399942D02*
X133040476Y-116304704D01*
X133040476Y-116304704D02*
X133040476Y-116209466D01*
X133040476Y-116209466D02*
X133088095Y-116066609D01*
X133088095Y-116066609D02*
X133659523Y-115495180D01*
X133659523Y-115495180D02*
X133040476Y-115495180D01*
X132088095Y-115495180D02*
X132659523Y-115495180D01*
X132373809Y-115495180D02*
X132373809Y-116495180D01*
X132373809Y-116495180D02*
X132469047Y-116352323D01*
X132469047Y-116352323D02*
X132564285Y-116257085D01*
X132564285Y-116257085D02*
X132659523Y-116209466D01*
X328874285Y-157405180D02*
X328874285Y-158405180D01*
X328302857Y-157405180D02*
X328731428Y-157976609D01*
X328302857Y-158405180D02*
X328874285Y-157833752D01*
X327445714Y-158405180D02*
X327636190Y-158405180D01*
X327636190Y-158405180D02*
X327731428Y-158357561D01*
X327731428Y-158357561D02*
X327779047Y-158309942D01*
X327779047Y-158309942D02*
X327874285Y-158167085D01*
X327874285Y-158167085D02*
X327921904Y-157976609D01*
X327921904Y-157976609D02*
X327921904Y-157595657D01*
X327921904Y-157595657D02*
X327874285Y-157500419D01*
X327874285Y-157500419D02*
X327826666Y-157452800D01*
X327826666Y-157452800D02*
X327731428Y-157405180D01*
X327731428Y-157405180D02*
X327540952Y-157405180D01*
X327540952Y-157405180D02*
X327445714Y-157452800D01*
X327445714Y-157452800D02*
X327398095Y-157500419D01*
X327398095Y-157500419D02*
X327350476Y-157595657D01*
X327350476Y-157595657D02*
X327350476Y-157833752D01*
X327350476Y-157833752D02*
X327398095Y-157928990D01*
X327398095Y-157928990D02*
X327445714Y-157976609D01*
X327445714Y-157976609D02*
X327540952Y-158024228D01*
X327540952Y-158024228D02*
X327731428Y-158024228D01*
X327731428Y-158024228D02*
X327826666Y-157976609D01*
X327826666Y-157976609D02*
X327874285Y-157928990D01*
X327874285Y-157928990D02*
X327921904Y-157833752D01*
X326493333Y-158071847D02*
X326493333Y-157405180D01*
X326731428Y-158452800D02*
X326969523Y-157738514D01*
X326969523Y-157738514D02*
X326350476Y-157738514D01*
X134564285Y-134545180D02*
X134564285Y-135545180D01*
X133992857Y-134545180D02*
X134421428Y-135116609D01*
X133992857Y-135545180D02*
X134564285Y-134973752D01*
X133659523Y-135545180D02*
X133040476Y-135545180D01*
X133040476Y-135545180D02*
X133373809Y-135164228D01*
X133373809Y-135164228D02*
X133230952Y-135164228D01*
X133230952Y-135164228D02*
X133135714Y-135116609D01*
X133135714Y-135116609D02*
X133088095Y-135068990D01*
X133088095Y-135068990D02*
X133040476Y-134973752D01*
X133040476Y-134973752D02*
X133040476Y-134735657D01*
X133040476Y-134735657D02*
X133088095Y-134640419D01*
X133088095Y-134640419D02*
X133135714Y-134592800D01*
X133135714Y-134592800D02*
X133230952Y-134545180D01*
X133230952Y-134545180D02*
X133516666Y-134545180D01*
X133516666Y-134545180D02*
X133611904Y-134592800D01*
X133611904Y-134592800D02*
X133659523Y-134640419D01*
X132469047Y-135116609D02*
X132564285Y-135164228D01*
X132564285Y-135164228D02*
X132611904Y-135211847D01*
X132611904Y-135211847D02*
X132659523Y-135307085D01*
X132659523Y-135307085D02*
X132659523Y-135354704D01*
X132659523Y-135354704D02*
X132611904Y-135449942D01*
X132611904Y-135449942D02*
X132564285Y-135497561D01*
X132564285Y-135497561D02*
X132469047Y-135545180D01*
X132469047Y-135545180D02*
X132278571Y-135545180D01*
X132278571Y-135545180D02*
X132183333Y-135497561D01*
X132183333Y-135497561D02*
X132135714Y-135449942D01*
X132135714Y-135449942D02*
X132088095Y-135354704D01*
X132088095Y-135354704D02*
X132088095Y-135307085D01*
X132088095Y-135307085D02*
X132135714Y-135211847D01*
X132135714Y-135211847D02*
X132183333Y-135164228D01*
X132183333Y-135164228D02*
X132278571Y-135116609D01*
X132278571Y-135116609D02*
X132469047Y-135116609D01*
X132469047Y-135116609D02*
X132564285Y-135068990D01*
X132564285Y-135068990D02*
X132611904Y-135021371D01*
X132611904Y-135021371D02*
X132659523Y-134926133D01*
X132659523Y-134926133D02*
X132659523Y-134735657D01*
X132659523Y-134735657D02*
X132611904Y-134640419D01*
X132611904Y-134640419D02*
X132564285Y-134592800D01*
X132564285Y-134592800D02*
X132469047Y-134545180D01*
X132469047Y-134545180D02*
X132278571Y-134545180D01*
X132278571Y-134545180D02*
X132183333Y-134592800D01*
X132183333Y-134592800D02*
X132135714Y-134640419D01*
X132135714Y-134640419D02*
X132088095Y-134735657D01*
X132088095Y-134735657D02*
X132088095Y-134926133D01*
X132088095Y-134926133D02*
X132135714Y-135021371D01*
X132135714Y-135021371D02*
X132183333Y-135068990D01*
X132183333Y-135068990D02*
X132278571Y-135116609D01*
X351734285Y-153595180D02*
X351734285Y-154595180D01*
X351162857Y-153595180D02*
X351591428Y-154166609D01*
X351162857Y-154595180D02*
X351734285Y-154023752D01*
X350305714Y-154595180D02*
X350496190Y-154595180D01*
X350496190Y-154595180D02*
X350591428Y-154547561D01*
X350591428Y-154547561D02*
X350639047Y-154499942D01*
X350639047Y-154499942D02*
X350734285Y-154357085D01*
X350734285Y-154357085D02*
X350781904Y-154166609D01*
X350781904Y-154166609D02*
X350781904Y-153785657D01*
X350781904Y-153785657D02*
X350734285Y-153690419D01*
X350734285Y-153690419D02*
X350686666Y-153642800D01*
X350686666Y-153642800D02*
X350591428Y-153595180D01*
X350591428Y-153595180D02*
X350400952Y-153595180D01*
X350400952Y-153595180D02*
X350305714Y-153642800D01*
X350305714Y-153642800D02*
X350258095Y-153690419D01*
X350258095Y-153690419D02*
X350210476Y-153785657D01*
X350210476Y-153785657D02*
X350210476Y-154023752D01*
X350210476Y-154023752D02*
X350258095Y-154118990D01*
X350258095Y-154118990D02*
X350305714Y-154166609D01*
X350305714Y-154166609D02*
X350400952Y-154214228D01*
X350400952Y-154214228D02*
X350591428Y-154214228D01*
X350591428Y-154214228D02*
X350686666Y-154166609D01*
X350686666Y-154166609D02*
X350734285Y-154118990D01*
X350734285Y-154118990D02*
X350781904Y-154023752D01*
X349591428Y-154595180D02*
X349496190Y-154595180D01*
X349496190Y-154595180D02*
X349400952Y-154547561D01*
X349400952Y-154547561D02*
X349353333Y-154499942D01*
X349353333Y-154499942D02*
X349305714Y-154404704D01*
X349305714Y-154404704D02*
X349258095Y-154214228D01*
X349258095Y-154214228D02*
X349258095Y-153976133D01*
X349258095Y-153976133D02*
X349305714Y-153785657D01*
X349305714Y-153785657D02*
X349353333Y-153690419D01*
X349353333Y-153690419D02*
X349400952Y-153642800D01*
X349400952Y-153642800D02*
X349496190Y-153595180D01*
X349496190Y-153595180D02*
X349591428Y-153595180D01*
X349591428Y-153595180D02*
X349686666Y-153642800D01*
X349686666Y-153642800D02*
X349734285Y-153690419D01*
X349734285Y-153690419D02*
X349781904Y-153785657D01*
X349781904Y-153785657D02*
X349829523Y-153976133D01*
X349829523Y-153976133D02*
X349829523Y-154214228D01*
X349829523Y-154214228D02*
X349781904Y-154404704D01*
X349781904Y-154404704D02*
X349734285Y-154499942D01*
X349734285Y-154499942D02*
X349686666Y-154547561D01*
X349686666Y-154547561D02*
X349591428Y-154595180D01*
X127420535Y-153595180D02*
X127420535Y-154595180D01*
X126849107Y-153595180D02*
X127277678Y-154166609D01*
X126849107Y-154595180D02*
X127420535Y-154023752D01*
X125944345Y-154595180D02*
X126420535Y-154595180D01*
X126420535Y-154595180D02*
X126468154Y-154118990D01*
X126468154Y-154118990D02*
X126420535Y-154166609D01*
X126420535Y-154166609D02*
X126325297Y-154214228D01*
X126325297Y-154214228D02*
X126087202Y-154214228D01*
X126087202Y-154214228D02*
X125991964Y-154166609D01*
X125991964Y-154166609D02*
X125944345Y-154118990D01*
X125944345Y-154118990D02*
X125896726Y-154023752D01*
X125896726Y-154023752D02*
X125896726Y-153785657D01*
X125896726Y-153785657D02*
X125944345Y-153690419D01*
X125944345Y-153690419D02*
X125991964Y-153642800D01*
X125991964Y-153642800D02*
X126087202Y-153595180D01*
X126087202Y-153595180D02*
X126325297Y-153595180D01*
X126325297Y-153595180D02*
X126420535Y-153642800D01*
X126420535Y-153642800D02*
X126468154Y-153690419D01*
X125039583Y-154261847D02*
X125039583Y-153595180D01*
X125277678Y-154642800D02*
X125515773Y-153928514D01*
X125515773Y-153928514D02*
X124896726Y-153928514D01*
X103608035Y-153595180D02*
X103608035Y-154595180D01*
X103036607Y-153595180D02*
X103465178Y-154166609D01*
X103036607Y-154595180D02*
X103608035Y-154023752D01*
X102131845Y-154595180D02*
X102608035Y-154595180D01*
X102608035Y-154595180D02*
X102655654Y-154118990D01*
X102655654Y-154118990D02*
X102608035Y-154166609D01*
X102608035Y-154166609D02*
X102512797Y-154214228D01*
X102512797Y-154214228D02*
X102274702Y-154214228D01*
X102274702Y-154214228D02*
X102179464Y-154166609D01*
X102179464Y-154166609D02*
X102131845Y-154118990D01*
X102131845Y-154118990D02*
X102084226Y-154023752D01*
X102084226Y-154023752D02*
X102084226Y-153785657D01*
X102084226Y-153785657D02*
X102131845Y-153690419D01*
X102131845Y-153690419D02*
X102179464Y-153642800D01*
X102179464Y-153642800D02*
X102274702Y-153595180D01*
X102274702Y-153595180D02*
X102512797Y-153595180D01*
X102512797Y-153595180D02*
X102608035Y-153642800D01*
X102608035Y-153642800D02*
X102655654Y-153690419D01*
X101750892Y-154595180D02*
X101131845Y-154595180D01*
X101131845Y-154595180D02*
X101465178Y-154214228D01*
X101465178Y-154214228D02*
X101322321Y-154214228D01*
X101322321Y-154214228D02*
X101227083Y-154166609D01*
X101227083Y-154166609D02*
X101179464Y-154118990D01*
X101179464Y-154118990D02*
X101131845Y-154023752D01*
X101131845Y-154023752D02*
X101131845Y-153785657D01*
X101131845Y-153785657D02*
X101179464Y-153690419D01*
X101179464Y-153690419D02*
X101227083Y-153642800D01*
X101227083Y-153642800D02*
X101322321Y-153595180D01*
X101322321Y-153595180D02*
X101608035Y-153595180D01*
X101608035Y-153595180D02*
X101703273Y-153642800D01*
X101703273Y-153642800D02*
X101750892Y-153690419D01*
X115514285Y-115495180D02*
X115514285Y-116495180D01*
X114942857Y-115495180D02*
X115371428Y-116066609D01*
X114942857Y-116495180D02*
X115514285Y-115923752D01*
X114561904Y-116399942D02*
X114514285Y-116447561D01*
X114514285Y-116447561D02*
X114419047Y-116495180D01*
X114419047Y-116495180D02*
X114180952Y-116495180D01*
X114180952Y-116495180D02*
X114085714Y-116447561D01*
X114085714Y-116447561D02*
X114038095Y-116399942D01*
X114038095Y-116399942D02*
X113990476Y-116304704D01*
X113990476Y-116304704D02*
X113990476Y-116209466D01*
X113990476Y-116209466D02*
X114038095Y-116066609D01*
X114038095Y-116066609D02*
X114609523Y-115495180D01*
X114609523Y-115495180D02*
X113990476Y-115495180D01*
X113371428Y-116495180D02*
X113276190Y-116495180D01*
X113276190Y-116495180D02*
X113180952Y-116447561D01*
X113180952Y-116447561D02*
X113133333Y-116399942D01*
X113133333Y-116399942D02*
X113085714Y-116304704D01*
X113085714Y-116304704D02*
X113038095Y-116114228D01*
X113038095Y-116114228D02*
X113038095Y-115876133D01*
X113038095Y-115876133D02*
X113085714Y-115685657D01*
X113085714Y-115685657D02*
X113133333Y-115590419D01*
X113133333Y-115590419D02*
X113180952Y-115542800D01*
X113180952Y-115542800D02*
X113276190Y-115495180D01*
X113276190Y-115495180D02*
X113371428Y-115495180D01*
X113371428Y-115495180D02*
X113466666Y-115542800D01*
X113466666Y-115542800D02*
X113514285Y-115590419D01*
X113514285Y-115590419D02*
X113561904Y-115685657D01*
X113561904Y-115685657D02*
X113609523Y-115876133D01*
X113609523Y-115876133D02*
X113609523Y-116114228D01*
X113609523Y-116114228D02*
X113561904Y-116304704D01*
X113561904Y-116304704D02*
X113514285Y-116399942D01*
X113514285Y-116399942D02*
X113466666Y-116447561D01*
X113466666Y-116447561D02*
X113371428Y-116495180D01*
X200166666Y-133359819D02*
X200166666Y-134074104D01*
X200166666Y-134074104D02*
X200119047Y-134216961D01*
X200119047Y-134216961D02*
X200023809Y-134312200D01*
X200023809Y-134312200D02*
X199880952Y-134359819D01*
X199880952Y-134359819D02*
X199785714Y-134359819D01*
X201166666Y-134359819D02*
X200595238Y-134359819D01*
X200880952Y-134359819D02*
X200880952Y-133359819D01*
X200880952Y-133359819D02*
X200785714Y-133502676D01*
X200785714Y-133502676D02*
X200690476Y-133597914D01*
X200690476Y-133597914D02*
X200595238Y-133645533D01*
X229814285Y-134545180D02*
X229814285Y-135545180D01*
X229242857Y-134545180D02*
X229671428Y-135116609D01*
X229242857Y-135545180D02*
X229814285Y-134973752D01*
X228385714Y-135211847D02*
X228385714Y-134545180D01*
X228623809Y-135592800D02*
X228861904Y-134878514D01*
X228861904Y-134878514D02*
X228242857Y-134878514D01*
X227957142Y-135545180D02*
X227338095Y-135545180D01*
X227338095Y-135545180D02*
X227671428Y-135164228D01*
X227671428Y-135164228D02*
X227528571Y-135164228D01*
X227528571Y-135164228D02*
X227433333Y-135116609D01*
X227433333Y-135116609D02*
X227385714Y-135068990D01*
X227385714Y-135068990D02*
X227338095Y-134973752D01*
X227338095Y-134973752D02*
X227338095Y-134735657D01*
X227338095Y-134735657D02*
X227385714Y-134640419D01*
X227385714Y-134640419D02*
X227433333Y-134592800D01*
X227433333Y-134592800D02*
X227528571Y-134545180D01*
X227528571Y-134545180D02*
X227814285Y-134545180D01*
X227814285Y-134545180D02*
X227909523Y-134592800D01*
X227909523Y-134592800D02*
X227957142Y-134640419D01*
X191714285Y-134545180D02*
X191714285Y-135545180D01*
X191142857Y-134545180D02*
X191571428Y-135116609D01*
X191142857Y-135545180D02*
X191714285Y-134973752D01*
X190285714Y-135211847D02*
X190285714Y-134545180D01*
X190523809Y-135592800D02*
X190761904Y-134878514D01*
X190761904Y-134878514D02*
X190142857Y-134878514D01*
X189238095Y-134545180D02*
X189809523Y-134545180D01*
X189523809Y-134545180D02*
X189523809Y-135545180D01*
X189523809Y-135545180D02*
X189619047Y-135402323D01*
X189619047Y-135402323D02*
X189714285Y-135307085D01*
X189714285Y-135307085D02*
X189809523Y-135259466D01*
X286964285Y-96445180D02*
X286964285Y-97445180D01*
X286392857Y-96445180D02*
X286821428Y-97016609D01*
X286392857Y-97445180D02*
X286964285Y-96873752D01*
X285440476Y-96445180D02*
X286011904Y-96445180D01*
X285726190Y-96445180D02*
X285726190Y-97445180D01*
X285726190Y-97445180D02*
X285821428Y-97302323D01*
X285821428Y-97302323D02*
X285916666Y-97207085D01*
X285916666Y-97207085D02*
X286011904Y-97159466D01*
X285059523Y-97349942D02*
X285011904Y-97397561D01*
X285011904Y-97397561D02*
X284916666Y-97445180D01*
X284916666Y-97445180D02*
X284678571Y-97445180D01*
X284678571Y-97445180D02*
X284583333Y-97397561D01*
X284583333Y-97397561D02*
X284535714Y-97349942D01*
X284535714Y-97349942D02*
X284488095Y-97254704D01*
X284488095Y-97254704D02*
X284488095Y-97159466D01*
X284488095Y-97159466D02*
X284535714Y-97016609D01*
X284535714Y-97016609D02*
X285107142Y-96445180D01*
X285107142Y-96445180D02*
X284488095Y-96445180D01*
X182189285Y-153595180D02*
X182189285Y-154595180D01*
X181617857Y-153595180D02*
X182046428Y-154166609D01*
X181617857Y-154595180D02*
X182189285Y-154023752D01*
X180713095Y-154595180D02*
X181189285Y-154595180D01*
X181189285Y-154595180D02*
X181236904Y-154118990D01*
X181236904Y-154118990D02*
X181189285Y-154166609D01*
X181189285Y-154166609D02*
X181094047Y-154214228D01*
X181094047Y-154214228D02*
X180855952Y-154214228D01*
X180855952Y-154214228D02*
X180760714Y-154166609D01*
X180760714Y-154166609D02*
X180713095Y-154118990D01*
X180713095Y-154118990D02*
X180665476Y-154023752D01*
X180665476Y-154023752D02*
X180665476Y-153785657D01*
X180665476Y-153785657D02*
X180713095Y-153690419D01*
X180713095Y-153690419D02*
X180760714Y-153642800D01*
X180760714Y-153642800D02*
X180855952Y-153595180D01*
X180855952Y-153595180D02*
X181094047Y-153595180D01*
X181094047Y-153595180D02*
X181189285Y-153642800D01*
X181189285Y-153642800D02*
X181236904Y-153690419D01*
X179808333Y-154595180D02*
X179998809Y-154595180D01*
X179998809Y-154595180D02*
X180094047Y-154547561D01*
X180094047Y-154547561D02*
X180141666Y-154499942D01*
X180141666Y-154499942D02*
X180236904Y-154357085D01*
X180236904Y-154357085D02*
X180284523Y-154166609D01*
X180284523Y-154166609D02*
X180284523Y-153785657D01*
X180284523Y-153785657D02*
X180236904Y-153690419D01*
X180236904Y-153690419D02*
X180189285Y-153642800D01*
X180189285Y-153642800D02*
X180094047Y-153595180D01*
X180094047Y-153595180D02*
X179903571Y-153595180D01*
X179903571Y-153595180D02*
X179808333Y-153642800D01*
X179808333Y-153642800D02*
X179760714Y-153690419D01*
X179760714Y-153690419D02*
X179713095Y-153785657D01*
X179713095Y-153785657D02*
X179713095Y-154023752D01*
X179713095Y-154023752D02*
X179760714Y-154118990D01*
X179760714Y-154118990D02*
X179808333Y-154166609D01*
X179808333Y-154166609D02*
X179903571Y-154214228D01*
X179903571Y-154214228D02*
X180094047Y-154214228D01*
X180094047Y-154214228D02*
X180189285Y-154166609D01*
X180189285Y-154166609D02*
X180236904Y-154118990D01*
X180236904Y-154118990D02*
X180284523Y-154023752D01*
X267914285Y-134545180D02*
X267914285Y-135545180D01*
X267342857Y-134545180D02*
X267771428Y-135116609D01*
X267342857Y-135545180D02*
X267914285Y-134973752D01*
X266485714Y-135211847D02*
X266485714Y-134545180D01*
X266723809Y-135592800D02*
X266961904Y-134878514D01*
X266961904Y-134878514D02*
X266342857Y-134878514D01*
X265485714Y-135545180D02*
X265961904Y-135545180D01*
X265961904Y-135545180D02*
X266009523Y-135068990D01*
X266009523Y-135068990D02*
X265961904Y-135116609D01*
X265961904Y-135116609D02*
X265866666Y-135164228D01*
X265866666Y-135164228D02*
X265628571Y-135164228D01*
X265628571Y-135164228D02*
X265533333Y-135116609D01*
X265533333Y-135116609D02*
X265485714Y-135068990D01*
X265485714Y-135068990D02*
X265438095Y-134973752D01*
X265438095Y-134973752D02*
X265438095Y-134735657D01*
X265438095Y-134735657D02*
X265485714Y-134640419D01*
X265485714Y-134640419D02*
X265533333Y-134592800D01*
X265533333Y-134592800D02*
X265628571Y-134545180D01*
X265628571Y-134545180D02*
X265866666Y-134545180D01*
X265866666Y-134545180D02*
X265961904Y-134592800D01*
X265961904Y-134592800D02*
X266009523Y-134640419D01*
X286964285Y-115495180D02*
X286964285Y-116495180D01*
X286392857Y-115495180D02*
X286821428Y-116066609D01*
X286392857Y-116495180D02*
X286964285Y-115923752D01*
X286011904Y-116399942D02*
X285964285Y-116447561D01*
X285964285Y-116447561D02*
X285869047Y-116495180D01*
X285869047Y-116495180D02*
X285630952Y-116495180D01*
X285630952Y-116495180D02*
X285535714Y-116447561D01*
X285535714Y-116447561D02*
X285488095Y-116399942D01*
X285488095Y-116399942D02*
X285440476Y-116304704D01*
X285440476Y-116304704D02*
X285440476Y-116209466D01*
X285440476Y-116209466D02*
X285488095Y-116066609D01*
X285488095Y-116066609D02*
X286059523Y-115495180D01*
X286059523Y-115495180D02*
X285440476Y-115495180D01*
X284964285Y-115495180D02*
X284773809Y-115495180D01*
X284773809Y-115495180D02*
X284678571Y-115542800D01*
X284678571Y-115542800D02*
X284630952Y-115590419D01*
X284630952Y-115590419D02*
X284535714Y-115733276D01*
X284535714Y-115733276D02*
X284488095Y-115923752D01*
X284488095Y-115923752D02*
X284488095Y-116304704D01*
X284488095Y-116304704D02*
X284535714Y-116399942D01*
X284535714Y-116399942D02*
X284583333Y-116447561D01*
X284583333Y-116447561D02*
X284678571Y-116495180D01*
X284678571Y-116495180D02*
X284869047Y-116495180D01*
X284869047Y-116495180D02*
X284964285Y-116447561D01*
X284964285Y-116447561D02*
X285011904Y-116399942D01*
X285011904Y-116399942D02*
X285059523Y-116304704D01*
X285059523Y-116304704D02*
X285059523Y-116066609D01*
X285059523Y-116066609D02*
X285011904Y-115971371D01*
X285011904Y-115971371D02*
X284964285Y-115923752D01*
X284964285Y-115923752D02*
X284869047Y-115876133D01*
X284869047Y-115876133D02*
X284678571Y-115876133D01*
X284678571Y-115876133D02*
X284583333Y-115923752D01*
X284583333Y-115923752D02*
X284535714Y-115971371D01*
X284535714Y-115971371D02*
X284488095Y-116066609D01*
X260770535Y-153595180D02*
X260770535Y-154595180D01*
X260199107Y-153595180D02*
X260627678Y-154166609D01*
X260199107Y-154595180D02*
X260770535Y-154023752D01*
X259294345Y-154595180D02*
X259770535Y-154595180D01*
X259770535Y-154595180D02*
X259818154Y-154118990D01*
X259818154Y-154118990D02*
X259770535Y-154166609D01*
X259770535Y-154166609D02*
X259675297Y-154214228D01*
X259675297Y-154214228D02*
X259437202Y-154214228D01*
X259437202Y-154214228D02*
X259341964Y-154166609D01*
X259341964Y-154166609D02*
X259294345Y-154118990D01*
X259294345Y-154118990D02*
X259246726Y-154023752D01*
X259246726Y-154023752D02*
X259246726Y-153785657D01*
X259246726Y-153785657D02*
X259294345Y-153690419D01*
X259294345Y-153690419D02*
X259341964Y-153642800D01*
X259341964Y-153642800D02*
X259437202Y-153595180D01*
X259437202Y-153595180D02*
X259675297Y-153595180D01*
X259675297Y-153595180D02*
X259770535Y-153642800D01*
X259770535Y-153642800D02*
X259818154Y-153690419D01*
X258770535Y-153595180D02*
X258580059Y-153595180D01*
X258580059Y-153595180D02*
X258484821Y-153642800D01*
X258484821Y-153642800D02*
X258437202Y-153690419D01*
X258437202Y-153690419D02*
X258341964Y-153833276D01*
X258341964Y-153833276D02*
X258294345Y-154023752D01*
X258294345Y-154023752D02*
X258294345Y-154404704D01*
X258294345Y-154404704D02*
X258341964Y-154499942D01*
X258341964Y-154499942D02*
X258389583Y-154547561D01*
X258389583Y-154547561D02*
X258484821Y-154595180D01*
X258484821Y-154595180D02*
X258675297Y-154595180D01*
X258675297Y-154595180D02*
X258770535Y-154547561D01*
X258770535Y-154547561D02*
X258818154Y-154499942D01*
X258818154Y-154499942D02*
X258865773Y-154404704D01*
X258865773Y-154404704D02*
X258865773Y-154166609D01*
X258865773Y-154166609D02*
X258818154Y-154071371D01*
X258818154Y-154071371D02*
X258770535Y-154023752D01*
X258770535Y-154023752D02*
X258675297Y-153976133D01*
X258675297Y-153976133D02*
X258484821Y-153976133D01*
X258484821Y-153976133D02*
X258389583Y-154023752D01*
X258389583Y-154023752D02*
X258341964Y-154071371D01*
X258341964Y-154071371D02*
X258294345Y-154166609D01*
X153614285Y-134545180D02*
X153614285Y-135545180D01*
X153042857Y-134545180D02*
X153471428Y-135116609D01*
X153042857Y-135545180D02*
X153614285Y-134973752D01*
X152709523Y-135545180D02*
X152090476Y-135545180D01*
X152090476Y-135545180D02*
X152423809Y-135164228D01*
X152423809Y-135164228D02*
X152280952Y-135164228D01*
X152280952Y-135164228D02*
X152185714Y-135116609D01*
X152185714Y-135116609D02*
X152138095Y-135068990D01*
X152138095Y-135068990D02*
X152090476Y-134973752D01*
X152090476Y-134973752D02*
X152090476Y-134735657D01*
X152090476Y-134735657D02*
X152138095Y-134640419D01*
X152138095Y-134640419D02*
X152185714Y-134592800D01*
X152185714Y-134592800D02*
X152280952Y-134545180D01*
X152280952Y-134545180D02*
X152566666Y-134545180D01*
X152566666Y-134545180D02*
X152661904Y-134592800D01*
X152661904Y-134592800D02*
X152709523Y-134640419D01*
X151614285Y-134545180D02*
X151423809Y-134545180D01*
X151423809Y-134545180D02*
X151328571Y-134592800D01*
X151328571Y-134592800D02*
X151280952Y-134640419D01*
X151280952Y-134640419D02*
X151185714Y-134783276D01*
X151185714Y-134783276D02*
X151138095Y-134973752D01*
X151138095Y-134973752D02*
X151138095Y-135354704D01*
X151138095Y-135354704D02*
X151185714Y-135449942D01*
X151185714Y-135449942D02*
X151233333Y-135497561D01*
X151233333Y-135497561D02*
X151328571Y-135545180D01*
X151328571Y-135545180D02*
X151519047Y-135545180D01*
X151519047Y-135545180D02*
X151614285Y-135497561D01*
X151614285Y-135497561D02*
X151661904Y-135449942D01*
X151661904Y-135449942D02*
X151709523Y-135354704D01*
X151709523Y-135354704D02*
X151709523Y-135116609D01*
X151709523Y-135116609D02*
X151661904Y-135021371D01*
X151661904Y-135021371D02*
X151614285Y-134973752D01*
X151614285Y-134973752D02*
X151519047Y-134926133D01*
X151519047Y-134926133D02*
X151328571Y-134926133D01*
X151328571Y-134926133D02*
X151233333Y-134973752D01*
X151233333Y-134973752D02*
X151185714Y-135021371D01*
X151185714Y-135021371D02*
X151138095Y-135116609D01*
X332684285Y-115495180D02*
X332684285Y-116495180D01*
X332112857Y-115495180D02*
X332541428Y-116066609D01*
X332112857Y-116495180D02*
X332684285Y-115923752D01*
X331779523Y-116495180D02*
X331160476Y-116495180D01*
X331160476Y-116495180D02*
X331493809Y-116114228D01*
X331493809Y-116114228D02*
X331350952Y-116114228D01*
X331350952Y-116114228D02*
X331255714Y-116066609D01*
X331255714Y-116066609D02*
X331208095Y-116018990D01*
X331208095Y-116018990D02*
X331160476Y-115923752D01*
X331160476Y-115923752D02*
X331160476Y-115685657D01*
X331160476Y-115685657D02*
X331208095Y-115590419D01*
X331208095Y-115590419D02*
X331255714Y-115542800D01*
X331255714Y-115542800D02*
X331350952Y-115495180D01*
X331350952Y-115495180D02*
X331636666Y-115495180D01*
X331636666Y-115495180D02*
X331731904Y-115542800D01*
X331731904Y-115542800D02*
X331779523Y-115590419D01*
X330208095Y-115495180D02*
X330779523Y-115495180D01*
X330493809Y-115495180D02*
X330493809Y-116495180D01*
X330493809Y-116495180D02*
X330589047Y-116352323D01*
X330589047Y-116352323D02*
X330684285Y-116257085D01*
X330684285Y-116257085D02*
X330779523Y-116209466D01*
X267914285Y-115495180D02*
X267914285Y-116495180D01*
X267342857Y-115495180D02*
X267771428Y-116066609D01*
X267342857Y-116495180D02*
X267914285Y-115923752D01*
X266961904Y-116399942D02*
X266914285Y-116447561D01*
X266914285Y-116447561D02*
X266819047Y-116495180D01*
X266819047Y-116495180D02*
X266580952Y-116495180D01*
X266580952Y-116495180D02*
X266485714Y-116447561D01*
X266485714Y-116447561D02*
X266438095Y-116399942D01*
X266438095Y-116399942D02*
X266390476Y-116304704D01*
X266390476Y-116304704D02*
X266390476Y-116209466D01*
X266390476Y-116209466D02*
X266438095Y-116066609D01*
X266438095Y-116066609D02*
X267009523Y-115495180D01*
X267009523Y-115495180D02*
X266390476Y-115495180D01*
X265819047Y-116066609D02*
X265914285Y-116114228D01*
X265914285Y-116114228D02*
X265961904Y-116161847D01*
X265961904Y-116161847D02*
X266009523Y-116257085D01*
X266009523Y-116257085D02*
X266009523Y-116304704D01*
X266009523Y-116304704D02*
X265961904Y-116399942D01*
X265961904Y-116399942D02*
X265914285Y-116447561D01*
X265914285Y-116447561D02*
X265819047Y-116495180D01*
X265819047Y-116495180D02*
X265628571Y-116495180D01*
X265628571Y-116495180D02*
X265533333Y-116447561D01*
X265533333Y-116447561D02*
X265485714Y-116399942D01*
X265485714Y-116399942D02*
X265438095Y-116304704D01*
X265438095Y-116304704D02*
X265438095Y-116257085D01*
X265438095Y-116257085D02*
X265485714Y-116161847D01*
X265485714Y-116161847D02*
X265533333Y-116114228D01*
X265533333Y-116114228D02*
X265628571Y-116066609D01*
X265628571Y-116066609D02*
X265819047Y-116066609D01*
X265819047Y-116066609D02*
X265914285Y-116018990D01*
X265914285Y-116018990D02*
X265961904Y-115971371D01*
X265961904Y-115971371D02*
X266009523Y-115876133D01*
X266009523Y-115876133D02*
X266009523Y-115685657D01*
X266009523Y-115685657D02*
X265961904Y-115590419D01*
X265961904Y-115590419D02*
X265914285Y-115542800D01*
X265914285Y-115542800D02*
X265819047Y-115495180D01*
X265819047Y-115495180D02*
X265628571Y-115495180D01*
X265628571Y-115495180D02*
X265533333Y-115542800D01*
X265533333Y-115542800D02*
X265485714Y-115590419D01*
X265485714Y-115590419D02*
X265438095Y-115685657D01*
X265438095Y-115685657D02*
X265438095Y-115876133D01*
X265438095Y-115876133D02*
X265485714Y-115971371D01*
X265485714Y-115971371D02*
X265533333Y-116018990D01*
X265533333Y-116018990D02*
X265628571Y-116066609D01*
X351734285Y-134545180D02*
X351734285Y-135545180D01*
X351162857Y-134545180D02*
X351591428Y-135116609D01*
X351162857Y-135545180D02*
X351734285Y-134973752D01*
X350305714Y-135211847D02*
X350305714Y-134545180D01*
X350543809Y-135592800D02*
X350781904Y-134878514D01*
X350781904Y-134878514D02*
X350162857Y-134878514D01*
X349639047Y-135116609D02*
X349734285Y-135164228D01*
X349734285Y-135164228D02*
X349781904Y-135211847D01*
X349781904Y-135211847D02*
X349829523Y-135307085D01*
X349829523Y-135307085D02*
X349829523Y-135354704D01*
X349829523Y-135354704D02*
X349781904Y-135449942D01*
X349781904Y-135449942D02*
X349734285Y-135497561D01*
X349734285Y-135497561D02*
X349639047Y-135545180D01*
X349639047Y-135545180D02*
X349448571Y-135545180D01*
X349448571Y-135545180D02*
X349353333Y-135497561D01*
X349353333Y-135497561D02*
X349305714Y-135449942D01*
X349305714Y-135449942D02*
X349258095Y-135354704D01*
X349258095Y-135354704D02*
X349258095Y-135307085D01*
X349258095Y-135307085D02*
X349305714Y-135211847D01*
X349305714Y-135211847D02*
X349353333Y-135164228D01*
X349353333Y-135164228D02*
X349448571Y-135116609D01*
X349448571Y-135116609D02*
X349639047Y-135116609D01*
X349639047Y-135116609D02*
X349734285Y-135068990D01*
X349734285Y-135068990D02*
X349781904Y-135021371D01*
X349781904Y-135021371D02*
X349829523Y-134926133D01*
X349829523Y-134926133D02*
X349829523Y-134735657D01*
X349829523Y-134735657D02*
X349781904Y-134640419D01*
X349781904Y-134640419D02*
X349734285Y-134592800D01*
X349734285Y-134592800D02*
X349639047Y-134545180D01*
X349639047Y-134545180D02*
X349448571Y-134545180D01*
X349448571Y-134545180D02*
X349353333Y-134592800D01*
X349353333Y-134592800D02*
X349305714Y-134640419D01*
X349305714Y-134640419D02*
X349258095Y-134735657D01*
X349258095Y-134735657D02*
X349258095Y-134926133D01*
X349258095Y-134926133D02*
X349305714Y-135021371D01*
X349305714Y-135021371D02*
X349353333Y-135068990D01*
X349353333Y-135068990D02*
X349448571Y-135116609D01*
X115038094Y-96445180D02*
X115038094Y-97445180D01*
X114466666Y-96445180D02*
X114895237Y-97016609D01*
X114466666Y-97445180D02*
X115038094Y-96873752D01*
X114133332Y-97445180D02*
X113514285Y-97445180D01*
X113514285Y-97445180D02*
X113847618Y-97064228D01*
X113847618Y-97064228D02*
X113704761Y-97064228D01*
X113704761Y-97064228D02*
X113609523Y-97016609D01*
X113609523Y-97016609D02*
X113561904Y-96968990D01*
X113561904Y-96968990D02*
X113514285Y-96873752D01*
X113514285Y-96873752D02*
X113514285Y-96635657D01*
X113514285Y-96635657D02*
X113561904Y-96540419D01*
X113561904Y-96540419D02*
X113609523Y-96492800D01*
X113609523Y-96492800D02*
X113704761Y-96445180D01*
X113704761Y-96445180D02*
X113990475Y-96445180D01*
X113990475Y-96445180D02*
X114085713Y-96492800D01*
X114085713Y-96492800D02*
X114133332Y-96540419D01*
X151233035Y-153595180D02*
X151233035Y-154595180D01*
X150661607Y-153595180D02*
X151090178Y-154166609D01*
X150661607Y-154595180D02*
X151233035Y-154023752D01*
X149756845Y-154595180D02*
X150233035Y-154595180D01*
X150233035Y-154595180D02*
X150280654Y-154118990D01*
X150280654Y-154118990D02*
X150233035Y-154166609D01*
X150233035Y-154166609D02*
X150137797Y-154214228D01*
X150137797Y-154214228D02*
X149899702Y-154214228D01*
X149899702Y-154214228D02*
X149804464Y-154166609D01*
X149804464Y-154166609D02*
X149756845Y-154118990D01*
X149756845Y-154118990D02*
X149709226Y-154023752D01*
X149709226Y-154023752D02*
X149709226Y-153785657D01*
X149709226Y-153785657D02*
X149756845Y-153690419D01*
X149756845Y-153690419D02*
X149804464Y-153642800D01*
X149804464Y-153642800D02*
X149899702Y-153595180D01*
X149899702Y-153595180D02*
X150137797Y-153595180D01*
X150137797Y-153595180D02*
X150233035Y-153642800D01*
X150233035Y-153642800D02*
X150280654Y-153690419D01*
X148804464Y-154595180D02*
X149280654Y-154595180D01*
X149280654Y-154595180D02*
X149328273Y-154118990D01*
X149328273Y-154118990D02*
X149280654Y-154166609D01*
X149280654Y-154166609D02*
X149185416Y-154214228D01*
X149185416Y-154214228D02*
X148947321Y-154214228D01*
X148947321Y-154214228D02*
X148852083Y-154166609D01*
X148852083Y-154166609D02*
X148804464Y-154118990D01*
X148804464Y-154118990D02*
X148756845Y-154023752D01*
X148756845Y-154023752D02*
X148756845Y-153785657D01*
X148756845Y-153785657D02*
X148804464Y-153690419D01*
X148804464Y-153690419D02*
X148852083Y-153642800D01*
X148852083Y-153642800D02*
X148947321Y-153595180D01*
X148947321Y-153595180D02*
X149185416Y-153595180D01*
X149185416Y-153595180D02*
X149280654Y-153642800D01*
X149280654Y-153642800D02*
X149328273Y-153690419D01*
X332684285Y-96445180D02*
X332684285Y-97445180D01*
X332112857Y-96445180D02*
X332541428Y-97016609D01*
X332112857Y-97445180D02*
X332684285Y-96873752D01*
X331160476Y-96445180D02*
X331731904Y-96445180D01*
X331446190Y-96445180D02*
X331446190Y-97445180D01*
X331446190Y-97445180D02*
X331541428Y-97302323D01*
X331541428Y-97302323D02*
X331636666Y-97207085D01*
X331636666Y-97207085D02*
X331731904Y-97159466D01*
X330303333Y-97111847D02*
X330303333Y-96445180D01*
X330541428Y-97492800D02*
X330779523Y-96778514D01*
X330779523Y-96778514D02*
X330160476Y-96778514D01*
X309824285Y-138355180D02*
X309824285Y-139355180D01*
X309252857Y-138355180D02*
X309681428Y-138926609D01*
X309252857Y-139355180D02*
X309824285Y-138783752D01*
X308348095Y-139355180D02*
X308824285Y-139355180D01*
X308824285Y-139355180D02*
X308871904Y-138878990D01*
X308871904Y-138878990D02*
X308824285Y-138926609D01*
X308824285Y-138926609D02*
X308729047Y-138974228D01*
X308729047Y-138974228D02*
X308490952Y-138974228D01*
X308490952Y-138974228D02*
X308395714Y-138926609D01*
X308395714Y-138926609D02*
X308348095Y-138878990D01*
X308348095Y-138878990D02*
X308300476Y-138783752D01*
X308300476Y-138783752D02*
X308300476Y-138545657D01*
X308300476Y-138545657D02*
X308348095Y-138450419D01*
X308348095Y-138450419D02*
X308395714Y-138402800D01*
X308395714Y-138402800D02*
X308490952Y-138355180D01*
X308490952Y-138355180D02*
X308729047Y-138355180D01*
X308729047Y-138355180D02*
X308824285Y-138402800D01*
X308824285Y-138402800D02*
X308871904Y-138450419D01*
X307681428Y-139355180D02*
X307586190Y-139355180D01*
X307586190Y-139355180D02*
X307490952Y-139307561D01*
X307490952Y-139307561D02*
X307443333Y-139259942D01*
X307443333Y-139259942D02*
X307395714Y-139164704D01*
X307395714Y-139164704D02*
X307348095Y-138974228D01*
X307348095Y-138974228D02*
X307348095Y-138736133D01*
X307348095Y-138736133D02*
X307395714Y-138545657D01*
X307395714Y-138545657D02*
X307443333Y-138450419D01*
X307443333Y-138450419D02*
X307490952Y-138402800D01*
X307490952Y-138402800D02*
X307586190Y-138355180D01*
X307586190Y-138355180D02*
X307681428Y-138355180D01*
X307681428Y-138355180D02*
X307776666Y-138402800D01*
X307776666Y-138402800D02*
X307824285Y-138450419D01*
X307824285Y-138450419D02*
X307871904Y-138545657D01*
X307871904Y-138545657D02*
X307919523Y-138736133D01*
X307919523Y-138736133D02*
X307919523Y-138974228D01*
X307919523Y-138974228D02*
X307871904Y-139164704D01*
X307871904Y-139164704D02*
X307824285Y-139259942D01*
X307824285Y-139259942D02*
X307776666Y-139307561D01*
X307776666Y-139307561D02*
X307681428Y-139355180D01*
X332684285Y-134545180D02*
X332684285Y-135545180D01*
X332112857Y-134545180D02*
X332541428Y-135116609D01*
X332112857Y-135545180D02*
X332684285Y-134973752D01*
X331255714Y-135211847D02*
X331255714Y-134545180D01*
X331493809Y-135592800D02*
X331731904Y-134878514D01*
X331731904Y-134878514D02*
X331112857Y-134878514D01*
X330827142Y-135545180D02*
X330160476Y-135545180D01*
X330160476Y-135545180D02*
X330589047Y-134545180D01*
X351734285Y-96445180D02*
X351734285Y-97445180D01*
X351162857Y-96445180D02*
X351591428Y-97016609D01*
X351162857Y-97445180D02*
X351734285Y-96873752D01*
X350210476Y-96445180D02*
X350781904Y-96445180D01*
X350496190Y-96445180D02*
X350496190Y-97445180D01*
X350496190Y-97445180D02*
X350591428Y-97302323D01*
X350591428Y-97302323D02*
X350686666Y-97207085D01*
X350686666Y-97207085D02*
X350781904Y-97159466D01*
X349305714Y-97445180D02*
X349781904Y-97445180D01*
X349781904Y-97445180D02*
X349829523Y-96968990D01*
X349829523Y-96968990D02*
X349781904Y-97016609D01*
X349781904Y-97016609D02*
X349686666Y-97064228D01*
X349686666Y-97064228D02*
X349448571Y-97064228D01*
X349448571Y-97064228D02*
X349353333Y-97016609D01*
X349353333Y-97016609D02*
X349305714Y-96968990D01*
X349305714Y-96968990D02*
X349258095Y-96873752D01*
X349258095Y-96873752D02*
X349258095Y-96635657D01*
X349258095Y-96635657D02*
X349305714Y-96540419D01*
X349305714Y-96540419D02*
X349353333Y-96492800D01*
X349353333Y-96492800D02*
X349448571Y-96445180D01*
X349448571Y-96445180D02*
X349686666Y-96445180D01*
X349686666Y-96445180D02*
X349781904Y-96492800D01*
X349781904Y-96492800D02*
X349829523Y-96540419D01*
X96464285Y-115495180D02*
X96464285Y-116495180D01*
X95892857Y-115495180D02*
X96321428Y-116066609D01*
X95892857Y-116495180D02*
X96464285Y-115923752D01*
X94940476Y-115495180D02*
X95511904Y-115495180D01*
X95226190Y-115495180D02*
X95226190Y-116495180D01*
X95226190Y-116495180D02*
X95321428Y-116352323D01*
X95321428Y-116352323D02*
X95416666Y-116257085D01*
X95416666Y-116257085D02*
X95511904Y-116209466D01*
X94464285Y-115495180D02*
X94273809Y-115495180D01*
X94273809Y-115495180D02*
X94178571Y-115542800D01*
X94178571Y-115542800D02*
X94130952Y-115590419D01*
X94130952Y-115590419D02*
X94035714Y-115733276D01*
X94035714Y-115733276D02*
X93988095Y-115923752D01*
X93988095Y-115923752D02*
X93988095Y-116304704D01*
X93988095Y-116304704D02*
X94035714Y-116399942D01*
X94035714Y-116399942D02*
X94083333Y-116447561D01*
X94083333Y-116447561D02*
X94178571Y-116495180D01*
X94178571Y-116495180D02*
X94369047Y-116495180D01*
X94369047Y-116495180D02*
X94464285Y-116447561D01*
X94464285Y-116447561D02*
X94511904Y-116399942D01*
X94511904Y-116399942D02*
X94559523Y-116304704D01*
X94559523Y-116304704D02*
X94559523Y-116066609D01*
X94559523Y-116066609D02*
X94511904Y-115971371D01*
X94511904Y-115971371D02*
X94464285Y-115923752D01*
X94464285Y-115923752D02*
X94369047Y-115876133D01*
X94369047Y-115876133D02*
X94178571Y-115876133D01*
X94178571Y-115876133D02*
X94083333Y-115923752D01*
X94083333Y-115923752D02*
X94035714Y-115971371D01*
X94035714Y-115971371D02*
X93988095Y-116066609D01*
X248864285Y-134545180D02*
X248864285Y-135545180D01*
X248292857Y-134545180D02*
X248721428Y-135116609D01*
X248292857Y-135545180D02*
X248864285Y-134973752D01*
X247435714Y-135211847D02*
X247435714Y-134545180D01*
X247673809Y-135592800D02*
X247911904Y-134878514D01*
X247911904Y-134878514D02*
X247292857Y-134878514D01*
X246483333Y-135211847D02*
X246483333Y-134545180D01*
X246721428Y-135592800D02*
X246959523Y-134878514D01*
X246959523Y-134878514D02*
X246340476Y-134878514D01*
X77414285Y-134545180D02*
X77414285Y-135545180D01*
X76842857Y-134545180D02*
X77271428Y-135116609D01*
X76842857Y-135545180D02*
X77414285Y-134973752D01*
X76509523Y-135545180D02*
X75890476Y-135545180D01*
X75890476Y-135545180D02*
X76223809Y-135164228D01*
X76223809Y-135164228D02*
X76080952Y-135164228D01*
X76080952Y-135164228D02*
X75985714Y-135116609D01*
X75985714Y-135116609D02*
X75938095Y-135068990D01*
X75938095Y-135068990D02*
X75890476Y-134973752D01*
X75890476Y-134973752D02*
X75890476Y-134735657D01*
X75890476Y-134735657D02*
X75938095Y-134640419D01*
X75938095Y-134640419D02*
X75985714Y-134592800D01*
X75985714Y-134592800D02*
X76080952Y-134545180D01*
X76080952Y-134545180D02*
X76366666Y-134545180D01*
X76366666Y-134545180D02*
X76461904Y-134592800D01*
X76461904Y-134592800D02*
X76509523Y-134640419D01*
X74985714Y-135545180D02*
X75461904Y-135545180D01*
X75461904Y-135545180D02*
X75509523Y-135068990D01*
X75509523Y-135068990D02*
X75461904Y-135116609D01*
X75461904Y-135116609D02*
X75366666Y-135164228D01*
X75366666Y-135164228D02*
X75128571Y-135164228D01*
X75128571Y-135164228D02*
X75033333Y-135116609D01*
X75033333Y-135116609D02*
X74985714Y-135068990D01*
X74985714Y-135068990D02*
X74938095Y-134973752D01*
X74938095Y-134973752D02*
X74938095Y-134735657D01*
X74938095Y-134735657D02*
X74985714Y-134640419D01*
X74985714Y-134640419D02*
X75033333Y-134592800D01*
X75033333Y-134592800D02*
X75128571Y-134545180D01*
X75128571Y-134545180D02*
X75366666Y-134545180D01*
X75366666Y-134545180D02*
X75461904Y-134592800D01*
X75461904Y-134592800D02*
X75509523Y-134640419D01*
X248864285Y-115495180D02*
X248864285Y-116495180D01*
X248292857Y-115495180D02*
X248721428Y-116066609D01*
X248292857Y-116495180D02*
X248864285Y-115923752D01*
X247911904Y-116399942D02*
X247864285Y-116447561D01*
X247864285Y-116447561D02*
X247769047Y-116495180D01*
X247769047Y-116495180D02*
X247530952Y-116495180D01*
X247530952Y-116495180D02*
X247435714Y-116447561D01*
X247435714Y-116447561D02*
X247388095Y-116399942D01*
X247388095Y-116399942D02*
X247340476Y-116304704D01*
X247340476Y-116304704D02*
X247340476Y-116209466D01*
X247340476Y-116209466D02*
X247388095Y-116066609D01*
X247388095Y-116066609D02*
X247959523Y-115495180D01*
X247959523Y-115495180D02*
X247340476Y-115495180D01*
X247007142Y-116495180D02*
X246340476Y-116495180D01*
X246340476Y-116495180D02*
X246769047Y-115495180D01*
X343140476Y-116254819D02*
X343140476Y-116969104D01*
X343140476Y-116969104D02*
X343092857Y-117111961D01*
X343092857Y-117111961D02*
X342997619Y-117207200D01*
X342997619Y-117207200D02*
X342854762Y-117254819D01*
X342854762Y-117254819D02*
X342759524Y-117254819D01*
X343616667Y-117254819D02*
X343616667Y-116254819D01*
X343616667Y-116254819D02*
X343997619Y-116254819D01*
X343997619Y-116254819D02*
X344092857Y-116302438D01*
X344092857Y-116302438D02*
X344140476Y-116350057D01*
X344140476Y-116350057D02*
X344188095Y-116445295D01*
X344188095Y-116445295D02*
X344188095Y-116588152D01*
X344188095Y-116588152D02*
X344140476Y-116683390D01*
X344140476Y-116683390D02*
X344092857Y-116731009D01*
X344092857Y-116731009D02*
X343997619Y-116778628D01*
X343997619Y-116778628D02*
X343616667Y-116778628D01*
X345140476Y-117254819D02*
X344569048Y-117254819D01*
X344854762Y-117254819D02*
X344854762Y-116254819D01*
X344854762Y-116254819D02*
X344759524Y-116397676D01*
X344759524Y-116397676D02*
X344664286Y-116492914D01*
X344664286Y-116492914D02*
X344569048Y-116540533D01*
X345759524Y-116254819D02*
X345854762Y-116254819D01*
X345854762Y-116254819D02*
X345950000Y-116302438D01*
X345950000Y-116302438D02*
X345997619Y-116350057D01*
X345997619Y-116350057D02*
X346045238Y-116445295D01*
X346045238Y-116445295D02*
X346092857Y-116635771D01*
X346092857Y-116635771D02*
X346092857Y-116873866D01*
X346092857Y-116873866D02*
X346045238Y-117064342D01*
X346045238Y-117064342D02*
X345997619Y-117159580D01*
X345997619Y-117159580D02*
X345950000Y-117207200D01*
X345950000Y-117207200D02*
X345854762Y-117254819D01*
X345854762Y-117254819D02*
X345759524Y-117254819D01*
X345759524Y-117254819D02*
X345664286Y-117207200D01*
X345664286Y-117207200D02*
X345616667Y-117159580D01*
X345616667Y-117159580D02*
X345569048Y-117064342D01*
X345569048Y-117064342D02*
X345521429Y-116873866D01*
X345521429Y-116873866D02*
X345521429Y-116635771D01*
X345521429Y-116635771D02*
X345569048Y-116445295D01*
X345569048Y-116445295D02*
X345616667Y-116350057D01*
X345616667Y-116350057D02*
X345664286Y-116302438D01*
X345664286Y-116302438D02*
X345759524Y-116254819D01*
X210764285Y-134545180D02*
X210764285Y-135545180D01*
X210192857Y-134545180D02*
X210621428Y-135116609D01*
X210192857Y-135545180D02*
X210764285Y-134973752D01*
X209335714Y-135211847D02*
X209335714Y-134545180D01*
X209573809Y-135592800D02*
X209811904Y-134878514D01*
X209811904Y-134878514D02*
X209192857Y-134878514D01*
X208859523Y-135449942D02*
X208811904Y-135497561D01*
X208811904Y-135497561D02*
X208716666Y-135545180D01*
X208716666Y-135545180D02*
X208478571Y-135545180D01*
X208478571Y-135545180D02*
X208383333Y-135497561D01*
X208383333Y-135497561D02*
X208335714Y-135449942D01*
X208335714Y-135449942D02*
X208288095Y-135354704D01*
X208288095Y-135354704D02*
X208288095Y-135259466D01*
X208288095Y-135259466D02*
X208335714Y-135116609D01*
X208335714Y-135116609D02*
X208907142Y-134545180D01*
X208907142Y-134545180D02*
X208288095Y-134545180D01*
X96464285Y-134545180D02*
X96464285Y-135545180D01*
X95892857Y-134545180D02*
X96321428Y-135116609D01*
X95892857Y-135545180D02*
X96464285Y-134973752D01*
X95559523Y-135545180D02*
X94940476Y-135545180D01*
X94940476Y-135545180D02*
X95273809Y-135164228D01*
X95273809Y-135164228D02*
X95130952Y-135164228D01*
X95130952Y-135164228D02*
X95035714Y-135116609D01*
X95035714Y-135116609D02*
X94988095Y-135068990D01*
X94988095Y-135068990D02*
X94940476Y-134973752D01*
X94940476Y-134973752D02*
X94940476Y-134735657D01*
X94940476Y-134735657D02*
X94988095Y-134640419D01*
X94988095Y-134640419D02*
X95035714Y-134592800D01*
X95035714Y-134592800D02*
X95130952Y-134545180D01*
X95130952Y-134545180D02*
X95416666Y-134545180D01*
X95416666Y-134545180D02*
X95511904Y-134592800D01*
X95511904Y-134592800D02*
X95559523Y-134640419D01*
X94083333Y-135545180D02*
X94273809Y-135545180D01*
X94273809Y-135545180D02*
X94369047Y-135497561D01*
X94369047Y-135497561D02*
X94416666Y-135449942D01*
X94416666Y-135449942D02*
X94511904Y-135307085D01*
X94511904Y-135307085D02*
X94559523Y-135116609D01*
X94559523Y-135116609D02*
X94559523Y-134735657D01*
X94559523Y-134735657D02*
X94511904Y-134640419D01*
X94511904Y-134640419D02*
X94464285Y-134592800D01*
X94464285Y-134592800D02*
X94369047Y-134545180D01*
X94369047Y-134545180D02*
X94178571Y-134545180D01*
X94178571Y-134545180D02*
X94083333Y-134592800D01*
X94083333Y-134592800D02*
X94035714Y-134640419D01*
X94035714Y-134640419D02*
X93988095Y-134735657D01*
X93988095Y-134735657D02*
X93988095Y-134973752D01*
X93988095Y-134973752D02*
X94035714Y-135068990D01*
X94035714Y-135068990D02*
X94083333Y-135116609D01*
X94083333Y-135116609D02*
X94178571Y-135164228D01*
X94178571Y-135164228D02*
X94369047Y-135164228D01*
X94369047Y-135164228D02*
X94464285Y-135116609D01*
X94464285Y-135116609D02*
X94511904Y-135068990D01*
X94511904Y-135068990D02*
X94559523Y-134973752D01*
X95988094Y-96445180D02*
X95988094Y-97445180D01*
X95416666Y-96445180D02*
X95845237Y-97016609D01*
X95416666Y-97445180D02*
X95988094Y-96873752D01*
X95035713Y-97349942D02*
X94988094Y-97397561D01*
X94988094Y-97397561D02*
X94892856Y-97445180D01*
X94892856Y-97445180D02*
X94654761Y-97445180D01*
X94654761Y-97445180D02*
X94559523Y-97397561D01*
X94559523Y-97397561D02*
X94511904Y-97349942D01*
X94511904Y-97349942D02*
X94464285Y-97254704D01*
X94464285Y-97254704D02*
X94464285Y-97159466D01*
X94464285Y-97159466D02*
X94511904Y-97016609D01*
X94511904Y-97016609D02*
X95083332Y-96445180D01*
X95083332Y-96445180D02*
X94464285Y-96445180D01*
X134088094Y-96445180D02*
X134088094Y-97445180D01*
X133516666Y-96445180D02*
X133945237Y-97016609D01*
X133516666Y-97445180D02*
X134088094Y-96873752D01*
X132659523Y-97111847D02*
X132659523Y-96445180D01*
X132897618Y-97492800D02*
X133135713Y-96778514D01*
X133135713Y-96778514D02*
X132516666Y-96778514D01*
X229338094Y-96445180D02*
X229338094Y-97445180D01*
X228766666Y-96445180D02*
X229195237Y-97016609D01*
X228766666Y-97445180D02*
X229338094Y-96873752D01*
X228290475Y-96445180D02*
X228099999Y-96445180D01*
X228099999Y-96445180D02*
X228004761Y-96492800D01*
X228004761Y-96492800D02*
X227957142Y-96540419D01*
X227957142Y-96540419D02*
X227861904Y-96683276D01*
X227861904Y-96683276D02*
X227814285Y-96873752D01*
X227814285Y-96873752D02*
X227814285Y-97254704D01*
X227814285Y-97254704D02*
X227861904Y-97349942D01*
X227861904Y-97349942D02*
X227909523Y-97397561D01*
X227909523Y-97397561D02*
X228004761Y-97445180D01*
X228004761Y-97445180D02*
X228195237Y-97445180D01*
X228195237Y-97445180D02*
X228290475Y-97397561D01*
X228290475Y-97397561D02*
X228338094Y-97349942D01*
X228338094Y-97349942D02*
X228385713Y-97254704D01*
X228385713Y-97254704D02*
X228385713Y-97016609D01*
X228385713Y-97016609D02*
X228338094Y-96921371D01*
X228338094Y-96921371D02*
X228290475Y-96873752D01*
X228290475Y-96873752D02*
X228195237Y-96826133D01*
X228195237Y-96826133D02*
X228004761Y-96826133D01*
X228004761Y-96826133D02*
X227909523Y-96873752D01*
X227909523Y-96873752D02*
X227861904Y-96921371D01*
X227861904Y-96921371D02*
X227814285Y-97016609D01*
X229814285Y-115495180D02*
X229814285Y-116495180D01*
X229242857Y-115495180D02*
X229671428Y-116066609D01*
X229242857Y-116495180D02*
X229814285Y-115923752D01*
X228861904Y-116399942D02*
X228814285Y-116447561D01*
X228814285Y-116447561D02*
X228719047Y-116495180D01*
X228719047Y-116495180D02*
X228480952Y-116495180D01*
X228480952Y-116495180D02*
X228385714Y-116447561D01*
X228385714Y-116447561D02*
X228338095Y-116399942D01*
X228338095Y-116399942D02*
X228290476Y-116304704D01*
X228290476Y-116304704D02*
X228290476Y-116209466D01*
X228290476Y-116209466D02*
X228338095Y-116066609D01*
X228338095Y-116066609D02*
X228909523Y-115495180D01*
X228909523Y-115495180D02*
X228290476Y-115495180D01*
X227433333Y-116495180D02*
X227623809Y-116495180D01*
X227623809Y-116495180D02*
X227719047Y-116447561D01*
X227719047Y-116447561D02*
X227766666Y-116399942D01*
X227766666Y-116399942D02*
X227861904Y-116257085D01*
X227861904Y-116257085D02*
X227909523Y-116066609D01*
X227909523Y-116066609D02*
X227909523Y-115685657D01*
X227909523Y-115685657D02*
X227861904Y-115590419D01*
X227861904Y-115590419D02*
X227814285Y-115542800D01*
X227814285Y-115542800D02*
X227719047Y-115495180D01*
X227719047Y-115495180D02*
X227528571Y-115495180D01*
X227528571Y-115495180D02*
X227433333Y-115542800D01*
X227433333Y-115542800D02*
X227385714Y-115590419D01*
X227385714Y-115590419D02*
X227338095Y-115685657D01*
X227338095Y-115685657D02*
X227338095Y-115923752D01*
X227338095Y-115923752D02*
X227385714Y-116018990D01*
X227385714Y-116018990D02*
X227433333Y-116066609D01*
X227433333Y-116066609D02*
X227528571Y-116114228D01*
X227528571Y-116114228D02*
X227719047Y-116114228D01*
X227719047Y-116114228D02*
X227814285Y-116066609D01*
X227814285Y-116066609D02*
X227861904Y-116018990D01*
X227861904Y-116018990D02*
X227909523Y-115923752D01*
X76938094Y-96445180D02*
X76938094Y-97445180D01*
X76366666Y-96445180D02*
X76795237Y-97016609D01*
X76366666Y-97445180D02*
X76938094Y-96873752D01*
X75414285Y-96445180D02*
X75985713Y-96445180D01*
X75699999Y-96445180D02*
X75699999Y-97445180D01*
X75699999Y-97445180D02*
X75795237Y-97302323D01*
X75795237Y-97302323D02*
X75890475Y-97207085D01*
X75890475Y-97207085D02*
X75985713Y-97159466D01*
X370784285Y-96445180D02*
X370784285Y-97445180D01*
X370212857Y-96445180D02*
X370641428Y-97016609D01*
X370212857Y-97445180D02*
X370784285Y-96873752D01*
X369260476Y-96445180D02*
X369831904Y-96445180D01*
X369546190Y-96445180D02*
X369546190Y-97445180D01*
X369546190Y-97445180D02*
X369641428Y-97302323D01*
X369641428Y-97302323D02*
X369736666Y-97207085D01*
X369736666Y-97207085D02*
X369831904Y-97159466D01*
X368403333Y-97445180D02*
X368593809Y-97445180D01*
X368593809Y-97445180D02*
X368689047Y-97397561D01*
X368689047Y-97397561D02*
X368736666Y-97349942D01*
X368736666Y-97349942D02*
X368831904Y-97207085D01*
X368831904Y-97207085D02*
X368879523Y-97016609D01*
X368879523Y-97016609D02*
X368879523Y-96635657D01*
X368879523Y-96635657D02*
X368831904Y-96540419D01*
X368831904Y-96540419D02*
X368784285Y-96492800D01*
X368784285Y-96492800D02*
X368689047Y-96445180D01*
X368689047Y-96445180D02*
X368498571Y-96445180D01*
X368498571Y-96445180D02*
X368403333Y-96492800D01*
X368403333Y-96492800D02*
X368355714Y-96540419D01*
X368355714Y-96540419D02*
X368308095Y-96635657D01*
X368308095Y-96635657D02*
X368308095Y-96873752D01*
X368308095Y-96873752D02*
X368355714Y-96968990D01*
X368355714Y-96968990D02*
X368403333Y-97016609D01*
X368403333Y-97016609D02*
X368498571Y-97064228D01*
X368498571Y-97064228D02*
X368689047Y-97064228D01*
X368689047Y-97064228D02*
X368784285Y-97016609D01*
X368784285Y-97016609D02*
X368831904Y-96968990D01*
X368831904Y-96968990D02*
X368879523Y-96873752D01*
X248864285Y-96445180D02*
X248864285Y-97445180D01*
X248292857Y-96445180D02*
X248721428Y-97016609D01*
X248292857Y-97445180D02*
X248864285Y-96873752D01*
X247340476Y-96445180D02*
X247911904Y-96445180D01*
X247626190Y-96445180D02*
X247626190Y-97445180D01*
X247626190Y-97445180D02*
X247721428Y-97302323D01*
X247721428Y-97302323D02*
X247816666Y-97207085D01*
X247816666Y-97207085D02*
X247911904Y-97159466D01*
X246721428Y-97445180D02*
X246626190Y-97445180D01*
X246626190Y-97445180D02*
X246530952Y-97397561D01*
X246530952Y-97397561D02*
X246483333Y-97349942D01*
X246483333Y-97349942D02*
X246435714Y-97254704D01*
X246435714Y-97254704D02*
X246388095Y-97064228D01*
X246388095Y-97064228D02*
X246388095Y-96826133D01*
X246388095Y-96826133D02*
X246435714Y-96635657D01*
X246435714Y-96635657D02*
X246483333Y-96540419D01*
X246483333Y-96540419D02*
X246530952Y-96492800D01*
X246530952Y-96492800D02*
X246626190Y-96445180D01*
X246626190Y-96445180D02*
X246721428Y-96445180D01*
X246721428Y-96445180D02*
X246816666Y-96492800D01*
X246816666Y-96492800D02*
X246864285Y-96540419D01*
X246864285Y-96540419D02*
X246911904Y-96635657D01*
X246911904Y-96635657D02*
X246959523Y-96826133D01*
X246959523Y-96826133D02*
X246959523Y-97064228D01*
X246959523Y-97064228D02*
X246911904Y-97254704D01*
X246911904Y-97254704D02*
X246864285Y-97349942D01*
X246864285Y-97349942D02*
X246816666Y-97397561D01*
X246816666Y-97397561D02*
X246721428Y-97445180D01*
X172664285Y-115495180D02*
X172664285Y-116495180D01*
X172092857Y-115495180D02*
X172521428Y-116066609D01*
X172092857Y-116495180D02*
X172664285Y-115923752D01*
X171711904Y-116399942D02*
X171664285Y-116447561D01*
X171664285Y-116447561D02*
X171569047Y-116495180D01*
X171569047Y-116495180D02*
X171330952Y-116495180D01*
X171330952Y-116495180D02*
X171235714Y-116447561D01*
X171235714Y-116447561D02*
X171188095Y-116399942D01*
X171188095Y-116399942D02*
X171140476Y-116304704D01*
X171140476Y-116304704D02*
X171140476Y-116209466D01*
X171140476Y-116209466D02*
X171188095Y-116066609D01*
X171188095Y-116066609D02*
X171759523Y-115495180D01*
X171759523Y-115495180D02*
X171140476Y-115495180D01*
X170807142Y-116495180D02*
X170188095Y-116495180D01*
X170188095Y-116495180D02*
X170521428Y-116114228D01*
X170521428Y-116114228D02*
X170378571Y-116114228D01*
X170378571Y-116114228D02*
X170283333Y-116066609D01*
X170283333Y-116066609D02*
X170235714Y-116018990D01*
X170235714Y-116018990D02*
X170188095Y-115923752D01*
X170188095Y-115923752D02*
X170188095Y-115685657D01*
X170188095Y-115685657D02*
X170235714Y-115590419D01*
X170235714Y-115590419D02*
X170283333Y-115542800D01*
X170283333Y-115542800D02*
X170378571Y-115495180D01*
X170378571Y-115495180D02*
X170664285Y-115495180D01*
X170664285Y-115495180D02*
X170759523Y-115542800D01*
X170759523Y-115542800D02*
X170807142Y-115590419D01*
X172664285Y-134545180D02*
X172664285Y-135545180D01*
X172092857Y-134545180D02*
X172521428Y-135116609D01*
X172092857Y-135545180D02*
X172664285Y-134973752D01*
X171235714Y-135211847D02*
X171235714Y-134545180D01*
X171473809Y-135592800D02*
X171711904Y-134878514D01*
X171711904Y-134878514D02*
X171092857Y-134878514D01*
X170521428Y-135545180D02*
X170426190Y-135545180D01*
X170426190Y-135545180D02*
X170330952Y-135497561D01*
X170330952Y-135497561D02*
X170283333Y-135449942D01*
X170283333Y-135449942D02*
X170235714Y-135354704D01*
X170235714Y-135354704D02*
X170188095Y-135164228D01*
X170188095Y-135164228D02*
X170188095Y-134926133D01*
X170188095Y-134926133D02*
X170235714Y-134735657D01*
X170235714Y-134735657D02*
X170283333Y-134640419D01*
X170283333Y-134640419D02*
X170330952Y-134592800D01*
X170330952Y-134592800D02*
X170426190Y-134545180D01*
X170426190Y-134545180D02*
X170521428Y-134545180D01*
X170521428Y-134545180D02*
X170616666Y-134592800D01*
X170616666Y-134592800D02*
X170664285Y-134640419D01*
X170664285Y-134640419D02*
X170711904Y-134735657D01*
X170711904Y-134735657D02*
X170759523Y-134926133D01*
X170759523Y-134926133D02*
X170759523Y-135164228D01*
X170759523Y-135164228D02*
X170711904Y-135354704D01*
X170711904Y-135354704D02*
X170664285Y-135449942D01*
X170664285Y-135449942D02*
X170616666Y-135497561D01*
X170616666Y-135497561D02*
X170521428Y-135545180D01*
X210764285Y-115495180D02*
X210764285Y-116495180D01*
X210192857Y-115495180D02*
X210621428Y-116066609D01*
X210192857Y-116495180D02*
X210764285Y-115923752D01*
X209811904Y-116399942D02*
X209764285Y-116447561D01*
X209764285Y-116447561D02*
X209669047Y-116495180D01*
X209669047Y-116495180D02*
X209430952Y-116495180D01*
X209430952Y-116495180D02*
X209335714Y-116447561D01*
X209335714Y-116447561D02*
X209288095Y-116399942D01*
X209288095Y-116399942D02*
X209240476Y-116304704D01*
X209240476Y-116304704D02*
X209240476Y-116209466D01*
X209240476Y-116209466D02*
X209288095Y-116066609D01*
X209288095Y-116066609D02*
X209859523Y-115495180D01*
X209859523Y-115495180D02*
X209240476Y-115495180D01*
X208335714Y-116495180D02*
X208811904Y-116495180D01*
X208811904Y-116495180D02*
X208859523Y-116018990D01*
X208859523Y-116018990D02*
X208811904Y-116066609D01*
X208811904Y-116066609D02*
X208716666Y-116114228D01*
X208716666Y-116114228D02*
X208478571Y-116114228D01*
X208478571Y-116114228D02*
X208383333Y-116066609D01*
X208383333Y-116066609D02*
X208335714Y-116018990D01*
X208335714Y-116018990D02*
X208288095Y-115923752D01*
X208288095Y-115923752D02*
X208288095Y-115685657D01*
X208288095Y-115685657D02*
X208335714Y-115590419D01*
X208335714Y-115590419D02*
X208383333Y-115542800D01*
X208383333Y-115542800D02*
X208478571Y-115495180D01*
X208478571Y-115495180D02*
X208716666Y-115495180D01*
X208716666Y-115495180D02*
X208811904Y-115542800D01*
X208811904Y-115542800D02*
X208859523Y-115590419D01*
X343566666Y-118604819D02*
X343566666Y-119319104D01*
X343566666Y-119319104D02*
X343519047Y-119461961D01*
X343519047Y-119461961D02*
X343423809Y-119557200D01*
X343423809Y-119557200D02*
X343280952Y-119604819D01*
X343280952Y-119604819D02*
X343185714Y-119604819D01*
X344042857Y-119604819D02*
X344042857Y-118604819D01*
X344042857Y-118604819D02*
X344423809Y-118604819D01*
X344423809Y-118604819D02*
X344519047Y-118652438D01*
X344519047Y-118652438D02*
X344566666Y-118700057D01*
X344566666Y-118700057D02*
X344614285Y-118795295D01*
X344614285Y-118795295D02*
X344614285Y-118938152D01*
X344614285Y-118938152D02*
X344566666Y-119033390D01*
X344566666Y-119033390D02*
X344519047Y-119081009D01*
X344519047Y-119081009D02*
X344423809Y-119128628D01*
X344423809Y-119128628D02*
X344042857Y-119128628D01*
X345090476Y-119604819D02*
X345280952Y-119604819D01*
X345280952Y-119604819D02*
X345376190Y-119557200D01*
X345376190Y-119557200D02*
X345423809Y-119509580D01*
X345423809Y-119509580D02*
X345519047Y-119366723D01*
X345519047Y-119366723D02*
X345566666Y-119176247D01*
X345566666Y-119176247D02*
X345566666Y-118795295D01*
X345566666Y-118795295D02*
X345519047Y-118700057D01*
X345519047Y-118700057D02*
X345471428Y-118652438D01*
X345471428Y-118652438D02*
X345376190Y-118604819D01*
X345376190Y-118604819D02*
X345185714Y-118604819D01*
X345185714Y-118604819D02*
X345090476Y-118652438D01*
X345090476Y-118652438D02*
X345042857Y-118700057D01*
X345042857Y-118700057D02*
X344995238Y-118795295D01*
X344995238Y-118795295D02*
X344995238Y-119033390D01*
X344995238Y-119033390D02*
X345042857Y-119128628D01*
X345042857Y-119128628D02*
X345090476Y-119176247D01*
X345090476Y-119176247D02*
X345185714Y-119223866D01*
X345185714Y-119223866D02*
X345376190Y-119223866D01*
X345376190Y-119223866D02*
X345471428Y-119176247D01*
X345471428Y-119176247D02*
X345519047Y-119128628D01*
X345519047Y-119128628D02*
X345566666Y-119033390D01*
X153614285Y-115495180D02*
X153614285Y-116495180D01*
X153042857Y-115495180D02*
X153471428Y-116066609D01*
X153042857Y-116495180D02*
X153614285Y-115923752D01*
X152661904Y-116399942D02*
X152614285Y-116447561D01*
X152614285Y-116447561D02*
X152519047Y-116495180D01*
X152519047Y-116495180D02*
X152280952Y-116495180D01*
X152280952Y-116495180D02*
X152185714Y-116447561D01*
X152185714Y-116447561D02*
X152138095Y-116399942D01*
X152138095Y-116399942D02*
X152090476Y-116304704D01*
X152090476Y-116304704D02*
X152090476Y-116209466D01*
X152090476Y-116209466D02*
X152138095Y-116066609D01*
X152138095Y-116066609D02*
X152709523Y-115495180D01*
X152709523Y-115495180D02*
X152090476Y-115495180D01*
X151709523Y-116399942D02*
X151661904Y-116447561D01*
X151661904Y-116447561D02*
X151566666Y-116495180D01*
X151566666Y-116495180D02*
X151328571Y-116495180D01*
X151328571Y-116495180D02*
X151233333Y-116447561D01*
X151233333Y-116447561D02*
X151185714Y-116399942D01*
X151185714Y-116399942D02*
X151138095Y-116304704D01*
X151138095Y-116304704D02*
X151138095Y-116209466D01*
X151138095Y-116209466D02*
X151185714Y-116066609D01*
X151185714Y-116066609D02*
X151757142Y-115495180D01*
X151757142Y-115495180D02*
X151138095Y-115495180D01*
X153138094Y-96445180D02*
X153138094Y-97445180D01*
X152566666Y-96445180D02*
X152995237Y-97016609D01*
X152566666Y-97445180D02*
X153138094Y-96873752D01*
X151661904Y-97445180D02*
X152138094Y-97445180D01*
X152138094Y-97445180D02*
X152185713Y-96968990D01*
X152185713Y-96968990D02*
X152138094Y-97016609D01*
X152138094Y-97016609D02*
X152042856Y-97064228D01*
X152042856Y-97064228D02*
X151804761Y-97064228D01*
X151804761Y-97064228D02*
X151709523Y-97016609D01*
X151709523Y-97016609D02*
X151661904Y-96968990D01*
X151661904Y-96968990D02*
X151614285Y-96873752D01*
X151614285Y-96873752D02*
X151614285Y-96635657D01*
X151614285Y-96635657D02*
X151661904Y-96540419D01*
X151661904Y-96540419D02*
X151709523Y-96492800D01*
X151709523Y-96492800D02*
X151804761Y-96445180D01*
X151804761Y-96445180D02*
X152042856Y-96445180D01*
X152042856Y-96445180D02*
X152138094Y-96492800D01*
X152138094Y-96492800D02*
X152185713Y-96540419D01*
X267914285Y-96445180D02*
X267914285Y-97445180D01*
X267342857Y-96445180D02*
X267771428Y-97016609D01*
X267342857Y-97445180D02*
X267914285Y-96873752D01*
X266390476Y-96445180D02*
X266961904Y-96445180D01*
X266676190Y-96445180D02*
X266676190Y-97445180D01*
X266676190Y-97445180D02*
X266771428Y-97302323D01*
X266771428Y-97302323D02*
X266866666Y-97207085D01*
X266866666Y-97207085D02*
X266961904Y-97159466D01*
X265438095Y-96445180D02*
X266009523Y-96445180D01*
X265723809Y-96445180D02*
X265723809Y-97445180D01*
X265723809Y-97445180D02*
X265819047Y-97302323D01*
X265819047Y-97302323D02*
X265914285Y-97207085D01*
X265914285Y-97207085D02*
X266009523Y-97159466D01*
X210288094Y-96445180D02*
X210288094Y-97445180D01*
X209716666Y-96445180D02*
X210145237Y-97016609D01*
X209716666Y-97445180D02*
X210288094Y-96873752D01*
X209145237Y-97016609D02*
X209240475Y-97064228D01*
X209240475Y-97064228D02*
X209288094Y-97111847D01*
X209288094Y-97111847D02*
X209335713Y-97207085D01*
X209335713Y-97207085D02*
X209335713Y-97254704D01*
X209335713Y-97254704D02*
X209288094Y-97349942D01*
X209288094Y-97349942D02*
X209240475Y-97397561D01*
X209240475Y-97397561D02*
X209145237Y-97445180D01*
X209145237Y-97445180D02*
X208954761Y-97445180D01*
X208954761Y-97445180D02*
X208859523Y-97397561D01*
X208859523Y-97397561D02*
X208811904Y-97349942D01*
X208811904Y-97349942D02*
X208764285Y-97254704D01*
X208764285Y-97254704D02*
X208764285Y-97207085D01*
X208764285Y-97207085D02*
X208811904Y-97111847D01*
X208811904Y-97111847D02*
X208859523Y-97064228D01*
X208859523Y-97064228D02*
X208954761Y-97016609D01*
X208954761Y-97016609D02*
X209145237Y-97016609D01*
X209145237Y-97016609D02*
X209240475Y-96968990D01*
X209240475Y-96968990D02*
X209288094Y-96921371D01*
X209288094Y-96921371D02*
X209335713Y-96826133D01*
X209335713Y-96826133D02*
X209335713Y-96635657D01*
X209335713Y-96635657D02*
X209288094Y-96540419D01*
X209288094Y-96540419D02*
X209240475Y-96492800D01*
X209240475Y-96492800D02*
X209145237Y-96445180D01*
X209145237Y-96445180D02*
X208954761Y-96445180D01*
X208954761Y-96445180D02*
X208859523Y-96492800D01*
X208859523Y-96492800D02*
X208811904Y-96540419D01*
X208811904Y-96540419D02*
X208764285Y-96635657D01*
X208764285Y-96635657D02*
X208764285Y-96826133D01*
X208764285Y-96826133D02*
X208811904Y-96921371D01*
X208811904Y-96921371D02*
X208859523Y-96968990D01*
X208859523Y-96968990D02*
X208954761Y-97016609D01*
X77414285Y-115495180D02*
X77414285Y-116495180D01*
X76842857Y-115495180D02*
X77271428Y-116066609D01*
X76842857Y-116495180D02*
X77414285Y-115923752D01*
X75890476Y-115495180D02*
X76461904Y-115495180D01*
X76176190Y-115495180D02*
X76176190Y-116495180D01*
X76176190Y-116495180D02*
X76271428Y-116352323D01*
X76271428Y-116352323D02*
X76366666Y-116257085D01*
X76366666Y-116257085D02*
X76461904Y-116209466D01*
X75319047Y-116066609D02*
X75414285Y-116114228D01*
X75414285Y-116114228D02*
X75461904Y-116161847D01*
X75461904Y-116161847D02*
X75509523Y-116257085D01*
X75509523Y-116257085D02*
X75509523Y-116304704D01*
X75509523Y-116304704D02*
X75461904Y-116399942D01*
X75461904Y-116399942D02*
X75414285Y-116447561D01*
X75414285Y-116447561D02*
X75319047Y-116495180D01*
X75319047Y-116495180D02*
X75128571Y-116495180D01*
X75128571Y-116495180D02*
X75033333Y-116447561D01*
X75033333Y-116447561D02*
X74985714Y-116399942D01*
X74985714Y-116399942D02*
X74938095Y-116304704D01*
X74938095Y-116304704D02*
X74938095Y-116257085D01*
X74938095Y-116257085D02*
X74985714Y-116161847D01*
X74985714Y-116161847D02*
X75033333Y-116114228D01*
X75033333Y-116114228D02*
X75128571Y-116066609D01*
X75128571Y-116066609D02*
X75319047Y-116066609D01*
X75319047Y-116066609D02*
X75414285Y-116018990D01*
X75414285Y-116018990D02*
X75461904Y-115971371D01*
X75461904Y-115971371D02*
X75509523Y-115876133D01*
X75509523Y-115876133D02*
X75509523Y-115685657D01*
X75509523Y-115685657D02*
X75461904Y-115590419D01*
X75461904Y-115590419D02*
X75414285Y-115542800D01*
X75414285Y-115542800D02*
X75319047Y-115495180D01*
X75319047Y-115495180D02*
X75128571Y-115495180D01*
X75128571Y-115495180D02*
X75033333Y-115542800D01*
X75033333Y-115542800D02*
X74985714Y-115590419D01*
X74985714Y-115590419D02*
X74938095Y-115685657D01*
X74938095Y-115685657D02*
X74938095Y-115876133D01*
X74938095Y-115876133D02*
X74985714Y-115971371D01*
X74985714Y-115971371D02*
X75033333Y-116018990D01*
X75033333Y-116018990D02*
X75128571Y-116066609D01*
X351734285Y-115495180D02*
X351734285Y-116495180D01*
X351162857Y-115495180D02*
X351591428Y-116066609D01*
X351162857Y-116495180D02*
X351734285Y-115923752D01*
X350829523Y-116495180D02*
X350210476Y-116495180D01*
X350210476Y-116495180D02*
X350543809Y-116114228D01*
X350543809Y-116114228D02*
X350400952Y-116114228D01*
X350400952Y-116114228D02*
X350305714Y-116066609D01*
X350305714Y-116066609D02*
X350258095Y-116018990D01*
X350258095Y-116018990D02*
X350210476Y-115923752D01*
X350210476Y-115923752D02*
X350210476Y-115685657D01*
X350210476Y-115685657D02*
X350258095Y-115590419D01*
X350258095Y-115590419D02*
X350305714Y-115542800D01*
X350305714Y-115542800D02*
X350400952Y-115495180D01*
X350400952Y-115495180D02*
X350686666Y-115495180D01*
X350686666Y-115495180D02*
X350781904Y-115542800D01*
X350781904Y-115542800D02*
X350829523Y-115590419D01*
X349829523Y-116399942D02*
X349781904Y-116447561D01*
X349781904Y-116447561D02*
X349686666Y-116495180D01*
X349686666Y-116495180D02*
X349448571Y-116495180D01*
X349448571Y-116495180D02*
X349353333Y-116447561D01*
X349353333Y-116447561D02*
X349305714Y-116399942D01*
X349305714Y-116399942D02*
X349258095Y-116304704D01*
X349258095Y-116304704D02*
X349258095Y-116209466D01*
X349258095Y-116209466D02*
X349305714Y-116066609D01*
X349305714Y-116066609D02*
X349877142Y-115495180D01*
X349877142Y-115495180D02*
X349258095Y-115495180D01*
X236958035Y-153595180D02*
X236958035Y-154595180D01*
X236386607Y-153595180D02*
X236815178Y-154166609D01*
X236386607Y-154595180D02*
X236958035Y-154023752D01*
X235481845Y-154595180D02*
X235958035Y-154595180D01*
X235958035Y-154595180D02*
X236005654Y-154118990D01*
X236005654Y-154118990D02*
X235958035Y-154166609D01*
X235958035Y-154166609D02*
X235862797Y-154214228D01*
X235862797Y-154214228D02*
X235624702Y-154214228D01*
X235624702Y-154214228D02*
X235529464Y-154166609D01*
X235529464Y-154166609D02*
X235481845Y-154118990D01*
X235481845Y-154118990D02*
X235434226Y-154023752D01*
X235434226Y-154023752D02*
X235434226Y-153785657D01*
X235434226Y-153785657D02*
X235481845Y-153690419D01*
X235481845Y-153690419D02*
X235529464Y-153642800D01*
X235529464Y-153642800D02*
X235624702Y-153595180D01*
X235624702Y-153595180D02*
X235862797Y-153595180D01*
X235862797Y-153595180D02*
X235958035Y-153642800D01*
X235958035Y-153642800D02*
X236005654Y-153690419D01*
X234862797Y-154166609D02*
X234958035Y-154214228D01*
X234958035Y-154214228D02*
X235005654Y-154261847D01*
X235005654Y-154261847D02*
X235053273Y-154357085D01*
X235053273Y-154357085D02*
X235053273Y-154404704D01*
X235053273Y-154404704D02*
X235005654Y-154499942D01*
X235005654Y-154499942D02*
X234958035Y-154547561D01*
X234958035Y-154547561D02*
X234862797Y-154595180D01*
X234862797Y-154595180D02*
X234672321Y-154595180D01*
X234672321Y-154595180D02*
X234577083Y-154547561D01*
X234577083Y-154547561D02*
X234529464Y-154499942D01*
X234529464Y-154499942D02*
X234481845Y-154404704D01*
X234481845Y-154404704D02*
X234481845Y-154357085D01*
X234481845Y-154357085D02*
X234529464Y-154261847D01*
X234529464Y-154261847D02*
X234577083Y-154214228D01*
X234577083Y-154214228D02*
X234672321Y-154166609D01*
X234672321Y-154166609D02*
X234862797Y-154166609D01*
X234862797Y-154166609D02*
X234958035Y-154118990D01*
X234958035Y-154118990D02*
X235005654Y-154071371D01*
X235005654Y-154071371D02*
X235053273Y-153976133D01*
X235053273Y-153976133D02*
X235053273Y-153785657D01*
X235053273Y-153785657D02*
X235005654Y-153690419D01*
X235005654Y-153690419D02*
X234958035Y-153642800D01*
X234958035Y-153642800D02*
X234862797Y-153595180D01*
X234862797Y-153595180D02*
X234672321Y-153595180D01*
X234672321Y-153595180D02*
X234577083Y-153642800D01*
X234577083Y-153642800D02*
X234529464Y-153690419D01*
X234529464Y-153690419D02*
X234481845Y-153785657D01*
X234481845Y-153785657D02*
X234481845Y-153976133D01*
X234481845Y-153976133D02*
X234529464Y-154071371D01*
X234529464Y-154071371D02*
X234577083Y-154118990D01*
X234577083Y-154118990D02*
X234672321Y-154166609D01*
X79795535Y-153595180D02*
X79795535Y-154595180D01*
X79224107Y-153595180D02*
X79652678Y-154166609D01*
X79224107Y-154595180D02*
X79795535Y-154023752D01*
X78319345Y-154595180D02*
X78795535Y-154595180D01*
X78795535Y-154595180D02*
X78843154Y-154118990D01*
X78843154Y-154118990D02*
X78795535Y-154166609D01*
X78795535Y-154166609D02*
X78700297Y-154214228D01*
X78700297Y-154214228D02*
X78462202Y-154214228D01*
X78462202Y-154214228D02*
X78366964Y-154166609D01*
X78366964Y-154166609D02*
X78319345Y-154118990D01*
X78319345Y-154118990D02*
X78271726Y-154023752D01*
X78271726Y-154023752D02*
X78271726Y-153785657D01*
X78271726Y-153785657D02*
X78319345Y-153690419D01*
X78319345Y-153690419D02*
X78366964Y-153642800D01*
X78366964Y-153642800D02*
X78462202Y-153595180D01*
X78462202Y-153595180D02*
X78700297Y-153595180D01*
X78700297Y-153595180D02*
X78795535Y-153642800D01*
X78795535Y-153642800D02*
X78843154Y-153690419D01*
X77890773Y-154499942D02*
X77843154Y-154547561D01*
X77843154Y-154547561D02*
X77747916Y-154595180D01*
X77747916Y-154595180D02*
X77509821Y-154595180D01*
X77509821Y-154595180D02*
X77414583Y-154547561D01*
X77414583Y-154547561D02*
X77366964Y-154499942D01*
X77366964Y-154499942D02*
X77319345Y-154404704D01*
X77319345Y-154404704D02*
X77319345Y-154309466D01*
X77319345Y-154309466D02*
X77366964Y-154166609D01*
X77366964Y-154166609D02*
X77938392Y-153595180D01*
X77938392Y-153595180D02*
X77319345Y-153595180D01*
X286964285Y-134545180D02*
X286964285Y-135545180D01*
X286392857Y-134545180D02*
X286821428Y-135116609D01*
X286392857Y-135545180D02*
X286964285Y-134973752D01*
X285535714Y-135211847D02*
X285535714Y-134545180D01*
X285773809Y-135592800D02*
X286011904Y-134878514D01*
X286011904Y-134878514D02*
X285392857Y-134878514D01*
X284583333Y-135545180D02*
X284773809Y-135545180D01*
X284773809Y-135545180D02*
X284869047Y-135497561D01*
X284869047Y-135497561D02*
X284916666Y-135449942D01*
X284916666Y-135449942D02*
X285011904Y-135307085D01*
X285011904Y-135307085D02*
X285059523Y-135116609D01*
X285059523Y-135116609D02*
X285059523Y-134735657D01*
X285059523Y-134735657D02*
X285011904Y-134640419D01*
X285011904Y-134640419D02*
X284964285Y-134592800D01*
X284964285Y-134592800D02*
X284869047Y-134545180D01*
X284869047Y-134545180D02*
X284678571Y-134545180D01*
X284678571Y-134545180D02*
X284583333Y-134592800D01*
X284583333Y-134592800D02*
X284535714Y-134640419D01*
X284535714Y-134640419D02*
X284488095Y-134735657D01*
X284488095Y-134735657D02*
X284488095Y-134973752D01*
X284488095Y-134973752D02*
X284535714Y-135068990D01*
X284535714Y-135068990D02*
X284583333Y-135116609D01*
X284583333Y-135116609D02*
X284678571Y-135164228D01*
X284678571Y-135164228D02*
X284869047Y-135164228D01*
X284869047Y-135164228D02*
X284964285Y-135116609D01*
X284964285Y-135116609D02*
X285011904Y-135068990D01*
X285011904Y-135068990D02*
X285059523Y-134973752D01*
X309824285Y-157405180D02*
X309824285Y-158405180D01*
X309252857Y-157405180D02*
X309681428Y-157976609D01*
X309252857Y-158405180D02*
X309824285Y-157833752D01*
X308395714Y-158405180D02*
X308586190Y-158405180D01*
X308586190Y-158405180D02*
X308681428Y-158357561D01*
X308681428Y-158357561D02*
X308729047Y-158309942D01*
X308729047Y-158309942D02*
X308824285Y-158167085D01*
X308824285Y-158167085D02*
X308871904Y-157976609D01*
X308871904Y-157976609D02*
X308871904Y-157595657D01*
X308871904Y-157595657D02*
X308824285Y-157500419D01*
X308824285Y-157500419D02*
X308776666Y-157452800D01*
X308776666Y-157452800D02*
X308681428Y-157405180D01*
X308681428Y-157405180D02*
X308490952Y-157405180D01*
X308490952Y-157405180D02*
X308395714Y-157452800D01*
X308395714Y-157452800D02*
X308348095Y-157500419D01*
X308348095Y-157500419D02*
X308300476Y-157595657D01*
X308300476Y-157595657D02*
X308300476Y-157833752D01*
X308300476Y-157833752D02*
X308348095Y-157928990D01*
X308348095Y-157928990D02*
X308395714Y-157976609D01*
X308395714Y-157976609D02*
X308490952Y-158024228D01*
X308490952Y-158024228D02*
X308681428Y-158024228D01*
X308681428Y-158024228D02*
X308776666Y-157976609D01*
X308776666Y-157976609D02*
X308824285Y-157928990D01*
X308824285Y-157928990D02*
X308871904Y-157833752D01*
X307967142Y-158405180D02*
X307348095Y-158405180D01*
X307348095Y-158405180D02*
X307681428Y-158024228D01*
X307681428Y-158024228D02*
X307538571Y-158024228D01*
X307538571Y-158024228D02*
X307443333Y-157976609D01*
X307443333Y-157976609D02*
X307395714Y-157928990D01*
X307395714Y-157928990D02*
X307348095Y-157833752D01*
X307348095Y-157833752D02*
X307348095Y-157595657D01*
X307348095Y-157595657D02*
X307395714Y-157500419D01*
X307395714Y-157500419D02*
X307443333Y-157452800D01*
X307443333Y-157452800D02*
X307538571Y-157405180D01*
X307538571Y-157405180D02*
X307824285Y-157405180D01*
X307824285Y-157405180D02*
X307919523Y-157452800D01*
X307919523Y-157452800D02*
X307967142Y-157500419D01*
X191714285Y-115495180D02*
X191714285Y-116495180D01*
X191142857Y-115495180D02*
X191571428Y-116066609D01*
X191142857Y-116495180D02*
X191714285Y-115923752D01*
X190761904Y-116399942D02*
X190714285Y-116447561D01*
X190714285Y-116447561D02*
X190619047Y-116495180D01*
X190619047Y-116495180D02*
X190380952Y-116495180D01*
X190380952Y-116495180D02*
X190285714Y-116447561D01*
X190285714Y-116447561D02*
X190238095Y-116399942D01*
X190238095Y-116399942D02*
X190190476Y-116304704D01*
X190190476Y-116304704D02*
X190190476Y-116209466D01*
X190190476Y-116209466D02*
X190238095Y-116066609D01*
X190238095Y-116066609D02*
X190809523Y-115495180D01*
X190809523Y-115495180D02*
X190190476Y-115495180D01*
X189333333Y-116161847D02*
X189333333Y-115495180D01*
X189571428Y-116542800D02*
X189809523Y-115828514D01*
X189809523Y-115828514D02*
X189190476Y-115828514D01*
X172188094Y-96445180D02*
X172188094Y-97445180D01*
X171616666Y-96445180D02*
X172045237Y-97016609D01*
X171616666Y-97445180D02*
X172188094Y-96873752D01*
X170759523Y-97445180D02*
X170949999Y-97445180D01*
X170949999Y-97445180D02*
X171045237Y-97397561D01*
X171045237Y-97397561D02*
X171092856Y-97349942D01*
X171092856Y-97349942D02*
X171188094Y-97207085D01*
X171188094Y-97207085D02*
X171235713Y-97016609D01*
X171235713Y-97016609D02*
X171235713Y-96635657D01*
X171235713Y-96635657D02*
X171188094Y-96540419D01*
X171188094Y-96540419D02*
X171140475Y-96492800D01*
X171140475Y-96492800D02*
X171045237Y-96445180D01*
X171045237Y-96445180D02*
X170854761Y-96445180D01*
X170854761Y-96445180D02*
X170759523Y-96492800D01*
X170759523Y-96492800D02*
X170711904Y-96540419D01*
X170711904Y-96540419D02*
X170664285Y-96635657D01*
X170664285Y-96635657D02*
X170664285Y-96873752D01*
X170664285Y-96873752D02*
X170711904Y-96968990D01*
X170711904Y-96968990D02*
X170759523Y-97016609D01*
X170759523Y-97016609D02*
X170854761Y-97064228D01*
X170854761Y-97064228D02*
X171045237Y-97064228D01*
X171045237Y-97064228D02*
X171140475Y-97016609D01*
X171140475Y-97016609D02*
X171188094Y-96968990D01*
X171188094Y-96968990D02*
X171235713Y-96873752D01*
X306064285Y-96595180D02*
X306064285Y-97595180D01*
X305492857Y-96595180D02*
X305921428Y-97166609D01*
X305492857Y-97595180D02*
X306064285Y-97023752D01*
X304540476Y-96595180D02*
X305111904Y-96595180D01*
X304826190Y-96595180D02*
X304826190Y-97595180D01*
X304826190Y-97595180D02*
X304921428Y-97452323D01*
X304921428Y-97452323D02*
X305016666Y-97357085D01*
X305016666Y-97357085D02*
X305111904Y-97309466D01*
X304207142Y-97595180D02*
X303588095Y-97595180D01*
X303588095Y-97595180D02*
X303921428Y-97214228D01*
X303921428Y-97214228D02*
X303778571Y-97214228D01*
X303778571Y-97214228D02*
X303683333Y-97166609D01*
X303683333Y-97166609D02*
X303635714Y-97118990D01*
X303635714Y-97118990D02*
X303588095Y-97023752D01*
X303588095Y-97023752D02*
X303588095Y-96785657D01*
X303588095Y-96785657D02*
X303635714Y-96690419D01*
X303635714Y-96690419D02*
X303683333Y-96642800D01*
X303683333Y-96642800D02*
X303778571Y-96595180D01*
X303778571Y-96595180D02*
X304064285Y-96595180D01*
X304064285Y-96595180D02*
X304159523Y-96642800D01*
X304159523Y-96642800D02*
X304207142Y-96690419D01*
X115514285Y-134545180D02*
X115514285Y-135545180D01*
X114942857Y-134545180D02*
X115371428Y-135116609D01*
X114942857Y-135545180D02*
X115514285Y-134973752D01*
X114609523Y-135545180D02*
X113990476Y-135545180D01*
X113990476Y-135545180D02*
X114323809Y-135164228D01*
X114323809Y-135164228D02*
X114180952Y-135164228D01*
X114180952Y-135164228D02*
X114085714Y-135116609D01*
X114085714Y-135116609D02*
X114038095Y-135068990D01*
X114038095Y-135068990D02*
X113990476Y-134973752D01*
X113990476Y-134973752D02*
X113990476Y-134735657D01*
X113990476Y-134735657D02*
X114038095Y-134640419D01*
X114038095Y-134640419D02*
X114085714Y-134592800D01*
X114085714Y-134592800D02*
X114180952Y-134545180D01*
X114180952Y-134545180D02*
X114466666Y-134545180D01*
X114466666Y-134545180D02*
X114561904Y-134592800D01*
X114561904Y-134592800D02*
X114609523Y-134640419D01*
X113657142Y-135545180D02*
X112990476Y-135545180D01*
X112990476Y-135545180D02*
X113419047Y-134545180D01*
X370784285Y-153595180D02*
X370784285Y-154595180D01*
X370212857Y-153595180D02*
X370641428Y-154166609D01*
X370212857Y-154595180D02*
X370784285Y-154023752D01*
X369355714Y-154595180D02*
X369546190Y-154595180D01*
X369546190Y-154595180D02*
X369641428Y-154547561D01*
X369641428Y-154547561D02*
X369689047Y-154499942D01*
X369689047Y-154499942D02*
X369784285Y-154357085D01*
X369784285Y-154357085D02*
X369831904Y-154166609D01*
X369831904Y-154166609D02*
X369831904Y-153785657D01*
X369831904Y-153785657D02*
X369784285Y-153690419D01*
X369784285Y-153690419D02*
X369736666Y-153642800D01*
X369736666Y-153642800D02*
X369641428Y-153595180D01*
X369641428Y-153595180D02*
X369450952Y-153595180D01*
X369450952Y-153595180D02*
X369355714Y-153642800D01*
X369355714Y-153642800D02*
X369308095Y-153690419D01*
X369308095Y-153690419D02*
X369260476Y-153785657D01*
X369260476Y-153785657D02*
X369260476Y-154023752D01*
X369260476Y-154023752D02*
X369308095Y-154118990D01*
X369308095Y-154118990D02*
X369355714Y-154166609D01*
X369355714Y-154166609D02*
X369450952Y-154214228D01*
X369450952Y-154214228D02*
X369641428Y-154214228D01*
X369641428Y-154214228D02*
X369736666Y-154166609D01*
X369736666Y-154166609D02*
X369784285Y-154118990D01*
X369784285Y-154118990D02*
X369831904Y-154023752D01*
X368308095Y-153595180D02*
X368879523Y-153595180D01*
X368593809Y-153595180D02*
X368593809Y-154595180D01*
X368593809Y-154595180D02*
X368689047Y-154452323D01*
X368689047Y-154452323D02*
X368784285Y-154357085D01*
X368784285Y-154357085D02*
X368879523Y-154309466D01*
X290774285Y-157405180D02*
X290774285Y-158405180D01*
X290202857Y-157405180D02*
X290631428Y-157976609D01*
X290202857Y-158405180D02*
X290774285Y-157833752D01*
X289345714Y-158405180D02*
X289536190Y-158405180D01*
X289536190Y-158405180D02*
X289631428Y-158357561D01*
X289631428Y-158357561D02*
X289679047Y-158309942D01*
X289679047Y-158309942D02*
X289774285Y-158167085D01*
X289774285Y-158167085D02*
X289821904Y-157976609D01*
X289821904Y-157976609D02*
X289821904Y-157595657D01*
X289821904Y-157595657D02*
X289774285Y-157500419D01*
X289774285Y-157500419D02*
X289726666Y-157452800D01*
X289726666Y-157452800D02*
X289631428Y-157405180D01*
X289631428Y-157405180D02*
X289440952Y-157405180D01*
X289440952Y-157405180D02*
X289345714Y-157452800D01*
X289345714Y-157452800D02*
X289298095Y-157500419D01*
X289298095Y-157500419D02*
X289250476Y-157595657D01*
X289250476Y-157595657D02*
X289250476Y-157833752D01*
X289250476Y-157833752D02*
X289298095Y-157928990D01*
X289298095Y-157928990D02*
X289345714Y-157976609D01*
X289345714Y-157976609D02*
X289440952Y-158024228D01*
X289440952Y-158024228D02*
X289631428Y-158024228D01*
X289631428Y-158024228D02*
X289726666Y-157976609D01*
X289726666Y-157976609D02*
X289774285Y-157928990D01*
X289774285Y-157928990D02*
X289821904Y-157833752D01*
X288869523Y-158309942D02*
X288821904Y-158357561D01*
X288821904Y-158357561D02*
X288726666Y-158405180D01*
X288726666Y-158405180D02*
X288488571Y-158405180D01*
X288488571Y-158405180D02*
X288393333Y-158357561D01*
X288393333Y-158357561D02*
X288345714Y-158309942D01*
X288345714Y-158309942D02*
X288298095Y-158214704D01*
X288298095Y-158214704D02*
X288298095Y-158119466D01*
X288298095Y-158119466D02*
X288345714Y-157976609D01*
X288345714Y-157976609D02*
X288917142Y-157405180D01*
X288917142Y-157405180D02*
X288298095Y-157405180D01*
X305814286Y-115445180D02*
X305814286Y-116445180D01*
X305242858Y-115445180D02*
X305671429Y-116016609D01*
X305242858Y-116445180D02*
X305814286Y-115873752D01*
X304909524Y-116445180D02*
X304290477Y-116445180D01*
X304290477Y-116445180D02*
X304623810Y-116064228D01*
X304623810Y-116064228D02*
X304480953Y-116064228D01*
X304480953Y-116064228D02*
X304385715Y-116016609D01*
X304385715Y-116016609D02*
X304338096Y-115968990D01*
X304338096Y-115968990D02*
X304290477Y-115873752D01*
X304290477Y-115873752D02*
X304290477Y-115635657D01*
X304290477Y-115635657D02*
X304338096Y-115540419D01*
X304338096Y-115540419D02*
X304385715Y-115492800D01*
X304385715Y-115492800D02*
X304480953Y-115445180D01*
X304480953Y-115445180D02*
X304766667Y-115445180D01*
X304766667Y-115445180D02*
X304861905Y-115492800D01*
X304861905Y-115492800D02*
X304909524Y-115540419D01*
X303671429Y-116445180D02*
X303576191Y-116445180D01*
X303576191Y-116445180D02*
X303480953Y-116397561D01*
X303480953Y-116397561D02*
X303433334Y-116349942D01*
X303433334Y-116349942D02*
X303385715Y-116254704D01*
X303385715Y-116254704D02*
X303338096Y-116064228D01*
X303338096Y-116064228D02*
X303338096Y-115826133D01*
X303338096Y-115826133D02*
X303385715Y-115635657D01*
X303385715Y-115635657D02*
X303433334Y-115540419D01*
X303433334Y-115540419D02*
X303480953Y-115492800D01*
X303480953Y-115492800D02*
X303576191Y-115445180D01*
X303576191Y-115445180D02*
X303671429Y-115445180D01*
X303671429Y-115445180D02*
X303766667Y-115492800D01*
X303766667Y-115492800D02*
X303814286Y-115540419D01*
X303814286Y-115540419D02*
X303861905Y-115635657D01*
X303861905Y-115635657D02*
X303909524Y-115826133D01*
X303909524Y-115826133D02*
X303909524Y-116064228D01*
X303909524Y-116064228D02*
X303861905Y-116254704D01*
X303861905Y-116254704D02*
X303814286Y-116349942D01*
X303814286Y-116349942D02*
X303766667Y-116397561D01*
X303766667Y-116397561D02*
X303671429Y-116445180D01*
X213145535Y-153595180D02*
X213145535Y-154595180D01*
X212574107Y-153595180D02*
X213002678Y-154166609D01*
X212574107Y-154595180D02*
X213145535Y-154023752D01*
X211669345Y-154595180D02*
X212145535Y-154595180D01*
X212145535Y-154595180D02*
X212193154Y-154118990D01*
X212193154Y-154118990D02*
X212145535Y-154166609D01*
X212145535Y-154166609D02*
X212050297Y-154214228D01*
X212050297Y-154214228D02*
X211812202Y-154214228D01*
X211812202Y-154214228D02*
X211716964Y-154166609D01*
X211716964Y-154166609D02*
X211669345Y-154118990D01*
X211669345Y-154118990D02*
X211621726Y-154023752D01*
X211621726Y-154023752D02*
X211621726Y-153785657D01*
X211621726Y-153785657D02*
X211669345Y-153690419D01*
X211669345Y-153690419D02*
X211716964Y-153642800D01*
X211716964Y-153642800D02*
X211812202Y-153595180D01*
X211812202Y-153595180D02*
X212050297Y-153595180D01*
X212050297Y-153595180D02*
X212145535Y-153642800D01*
X212145535Y-153642800D02*
X212193154Y-153690419D01*
X211288392Y-154595180D02*
X210621726Y-154595180D01*
X210621726Y-154595180D02*
X211050297Y-153595180D01*
X370784285Y-115495180D02*
X370784285Y-116495180D01*
X370212857Y-115495180D02*
X370641428Y-116066609D01*
X370212857Y-116495180D02*
X370784285Y-115923752D01*
X369879523Y-116495180D02*
X369260476Y-116495180D01*
X369260476Y-116495180D02*
X369593809Y-116114228D01*
X369593809Y-116114228D02*
X369450952Y-116114228D01*
X369450952Y-116114228D02*
X369355714Y-116066609D01*
X369355714Y-116066609D02*
X369308095Y-116018990D01*
X369308095Y-116018990D02*
X369260476Y-115923752D01*
X369260476Y-115923752D02*
X369260476Y-115685657D01*
X369260476Y-115685657D02*
X369308095Y-115590419D01*
X369308095Y-115590419D02*
X369355714Y-115542800D01*
X369355714Y-115542800D02*
X369450952Y-115495180D01*
X369450952Y-115495180D02*
X369736666Y-115495180D01*
X369736666Y-115495180D02*
X369831904Y-115542800D01*
X369831904Y-115542800D02*
X369879523Y-115590419D01*
X368927142Y-116495180D02*
X368308095Y-116495180D01*
X368308095Y-116495180D02*
X368641428Y-116114228D01*
X368641428Y-116114228D02*
X368498571Y-116114228D01*
X368498571Y-116114228D02*
X368403333Y-116066609D01*
X368403333Y-116066609D02*
X368355714Y-116018990D01*
X368355714Y-116018990D02*
X368308095Y-115923752D01*
X368308095Y-115923752D02*
X368308095Y-115685657D01*
X368308095Y-115685657D02*
X368355714Y-115590419D01*
X368355714Y-115590419D02*
X368403333Y-115542800D01*
X368403333Y-115542800D02*
X368498571Y-115495180D01*
X368498571Y-115495180D02*
X368784285Y-115495180D01*
X368784285Y-115495180D02*
X368879523Y-115542800D01*
X368879523Y-115542800D02*
X368927142Y-115590419D01*
D11*
X183400000Y-81800000D02*
X183400000Y-96000000D01*
X183400000Y-96000000D02*
X197600000Y-96000000D01*
X197600000Y-81800000D02*
X183400000Y-81800000D01*
X197600000Y-96000000D02*
X197600000Y-81800000D01*
X362470000Y-119900000D02*
X362470000Y-134100000D01*
X362470000Y-134100000D02*
X376670000Y-134100000D01*
X376670000Y-119900000D02*
X362470000Y-119900000D01*
X376670000Y-134100000D02*
X376670000Y-119900000D01*
X126250000Y-100850000D02*
X126250000Y-115050000D01*
X126250000Y-115050000D02*
X140450000Y-115050000D01*
X140450000Y-100850000D02*
X126250000Y-100850000D01*
X140450000Y-115050000D02*
X140450000Y-100850000D01*
X320560000Y-142760000D02*
X320560000Y-156960000D01*
X320560000Y-156960000D02*
X334760000Y-156960000D01*
X334760000Y-142760000D02*
X320560000Y-142760000D01*
X334760000Y-156960000D02*
X334760000Y-142760000D01*
X126250000Y-119900000D02*
X126250000Y-134100000D01*
X126250000Y-134100000D02*
X140450000Y-134100000D01*
X140450000Y-119900000D02*
X126250000Y-119900000D01*
X140450000Y-134100000D02*
X140450000Y-119900000D01*
X343420000Y-138950000D02*
X343420000Y-153150000D01*
X343420000Y-153150000D02*
X357620000Y-153150000D01*
X357620000Y-138950000D02*
X343420000Y-138950000D01*
X357620000Y-153150000D02*
X357620000Y-138950000D01*
X119106250Y-138950000D02*
X119106250Y-153150000D01*
X119106250Y-153150000D02*
X133306250Y-153150000D01*
X133306250Y-138950000D02*
X119106250Y-138950000D01*
X133306250Y-153150000D02*
X133306250Y-138950000D01*
X95293750Y-138950000D02*
X95293750Y-153150000D01*
X95293750Y-153150000D02*
X109493750Y-153150000D01*
X109493750Y-138950000D02*
X95293750Y-138950000D01*
X109493750Y-153150000D02*
X109493750Y-138950000D01*
X107200000Y-100850000D02*
X107200000Y-115050000D01*
X107200000Y-115050000D02*
X121400000Y-115050000D01*
X121400000Y-100850000D02*
X107200000Y-100850000D01*
X121400000Y-115050000D02*
X121400000Y-100850000D01*
X199170000Y-130304999D02*
X199170000Y-127705000D01*
X201830000Y-127705000D02*
X199170000Y-127705000D01*
X201830000Y-130304999D02*
X199170000Y-130304999D01*
X201830000Y-130304999D02*
X201830000Y-127705000D01*
X201830000Y-131575000D02*
X201830000Y-132905000D01*
X201830000Y-132905000D02*
X200500000Y-132905000D01*
X221500000Y-119900000D02*
X221500000Y-134100000D01*
X221500000Y-134100000D02*
X235700000Y-134100000D01*
X235700000Y-119900000D02*
X221500000Y-119900000D01*
X235700000Y-134100000D02*
X235700000Y-119900000D01*
X183400000Y-119900000D02*
X183400000Y-134100000D01*
X183400000Y-134100000D02*
X197600000Y-134100000D01*
X197600000Y-119900000D02*
X183400000Y-119900000D01*
X197600000Y-134100000D02*
X197600000Y-119900000D01*
X278650000Y-81800000D02*
X278650000Y-96000000D01*
X278650000Y-96000000D02*
X292850000Y-96000000D01*
X292850000Y-81800000D02*
X278650000Y-81800000D01*
X292850000Y-96000000D02*
X292850000Y-81800000D01*
X173875000Y-138950000D02*
X173875000Y-153150000D01*
X173875000Y-153150000D02*
X188075000Y-153150000D01*
X188075000Y-138950000D02*
X173875000Y-138950000D01*
X188075000Y-153150000D02*
X188075000Y-138950000D01*
X259600000Y-119900000D02*
X259600000Y-134100000D01*
X259600000Y-134100000D02*
X273800000Y-134100000D01*
X273800000Y-119900000D02*
X259600000Y-119900000D01*
X273800000Y-134100000D02*
X273800000Y-119900000D01*
X278650000Y-100850000D02*
X278650000Y-115050000D01*
X278650000Y-115050000D02*
X292850000Y-115050000D01*
X292850000Y-100850000D02*
X278650000Y-100850000D01*
X292850000Y-115050000D02*
X292850000Y-100850000D01*
X252456250Y-138950000D02*
X252456250Y-153150000D01*
X252456250Y-153150000D02*
X266656250Y-153150000D01*
X266656250Y-138950000D02*
X252456250Y-138950000D01*
X266656250Y-153150000D02*
X266656250Y-138950000D01*
X145300000Y-119900000D02*
X145300000Y-134100000D01*
X145300000Y-134100000D02*
X159500000Y-134100000D01*
X159500000Y-119900000D02*
X145300000Y-119900000D01*
X159500000Y-134100000D02*
X159500000Y-119900000D01*
X324370000Y-100850000D02*
X324370000Y-115050000D01*
X324370000Y-115050000D02*
X338570000Y-115050000D01*
X338570000Y-100850000D02*
X324370000Y-100850000D01*
X338570000Y-115050000D02*
X338570000Y-100850000D01*
X259600000Y-100850000D02*
X259600000Y-115050000D01*
X259600000Y-115050000D02*
X273800000Y-115050000D01*
X273800000Y-100850000D02*
X259600000Y-100850000D01*
X273800000Y-115050000D02*
X273800000Y-100850000D01*
X343420000Y-119900000D02*
X343420000Y-134100000D01*
X343420000Y-134100000D02*
X357620000Y-134100000D01*
X357620000Y-119900000D02*
X343420000Y-119900000D01*
X357620000Y-134100000D02*
X357620000Y-119900000D01*
X107200000Y-81800000D02*
X107200000Y-96000000D01*
X107200000Y-96000000D02*
X121400000Y-96000000D01*
X121400000Y-81800000D02*
X107200000Y-81800000D01*
X121400000Y-96000000D02*
X121400000Y-81800000D01*
X142918750Y-138950000D02*
X142918750Y-153150000D01*
X142918750Y-153150000D02*
X157118750Y-153150000D01*
X157118750Y-138950000D02*
X142918750Y-138950000D01*
X157118750Y-153150000D02*
X157118750Y-138950000D01*
X324370000Y-81800000D02*
X324370000Y-96000000D01*
X324370000Y-96000000D02*
X338570000Y-96000000D01*
X338570000Y-81800000D02*
X324370000Y-81800000D01*
X338570000Y-96000000D02*
X338570000Y-81800000D01*
X301510000Y-123710000D02*
X301510000Y-137910000D01*
X301510000Y-137910000D02*
X315710000Y-137910000D01*
X315710000Y-123710000D02*
X301510000Y-123710000D01*
X315710000Y-137910000D02*
X315710000Y-123710000D01*
X324370000Y-119900000D02*
X324370000Y-134100000D01*
X324370000Y-134100000D02*
X338570000Y-134100000D01*
X338570000Y-119900000D02*
X324370000Y-119900000D01*
X338570000Y-134100000D02*
X338570000Y-119900000D01*
X343420000Y-81800000D02*
X343420000Y-96000000D01*
X343420000Y-96000000D02*
X357620000Y-96000000D01*
X357620000Y-81800000D02*
X343420000Y-81800000D01*
X357620000Y-96000000D02*
X357620000Y-81800000D01*
X88150000Y-100850000D02*
X88150000Y-115050000D01*
X88150000Y-115050000D02*
X102350000Y-115050000D01*
X102350000Y-100850000D02*
X88150000Y-100850000D01*
X102350000Y-115050000D02*
X102350000Y-100850000D01*
X240550000Y-119900000D02*
X240550000Y-134100000D01*
X240550000Y-134100000D02*
X254750000Y-134100000D01*
X254750000Y-119900000D02*
X240550000Y-119900000D01*
X254750000Y-134100000D02*
X254750000Y-119900000D01*
X69100000Y-119900000D02*
X69100000Y-134100000D01*
X69100000Y-134100000D02*
X83300000Y-134100000D01*
X83300000Y-119900000D02*
X69100000Y-119900000D01*
X83300000Y-134100000D02*
X83300000Y-119900000D01*
X240550000Y-100850000D02*
X240550000Y-115050000D01*
X240550000Y-115050000D02*
X254750000Y-115050000D01*
X254750000Y-100850000D02*
X240550000Y-100850000D01*
X254750000Y-115050000D02*
X254750000Y-100850000D01*
X339600000Y-117100001D02*
X339600000Y-116499999D01*
X340300000Y-115800000D02*
X341700000Y-115800000D01*
X341700000Y-117800000D02*
X340300000Y-117800000D01*
X342400000Y-116499999D02*
X342400000Y-117100001D01*
X339600000Y-116499999D02*
G75*
G02*
X340300000Y-115800000I700000J-1D01*
G01*
X340300000Y-117800000D02*
G75*
G02*
X339600000Y-117100001I0J700000D01*
G01*
X341700000Y-115800000D02*
G75*
G02*
X342400000Y-116499999I1J-699999D01*
G01*
X342400000Y-117100001D02*
G75*
G02*
X341700000Y-117800000I-699999J0D01*
G01*
X202450000Y-119900000D02*
X202450000Y-134100000D01*
X202450000Y-134100000D02*
X216650000Y-134100000D01*
X216650000Y-119900000D02*
X202450000Y-119900000D01*
X216650000Y-134100000D02*
X216650000Y-119900000D01*
X88150000Y-119900000D02*
X88150000Y-134100000D01*
X88150000Y-134100000D02*
X102350000Y-134100000D01*
X102350000Y-119900000D02*
X88150000Y-119900000D01*
X102350000Y-134100000D02*
X102350000Y-119900000D01*
X88150000Y-81800000D02*
X88150000Y-96000000D01*
X88150000Y-96000000D02*
X102350000Y-96000000D01*
X102350000Y-81800000D02*
X88150000Y-81800000D01*
X102350000Y-96000000D02*
X102350000Y-81800000D01*
X126250000Y-81800000D02*
X126250000Y-96000000D01*
X126250000Y-96000000D02*
X140450000Y-96000000D01*
X140450000Y-81800000D02*
X126250000Y-81800000D01*
X140450000Y-96000000D02*
X140450000Y-81800000D01*
X221500000Y-81800000D02*
X221500000Y-96000000D01*
X221500000Y-96000000D02*
X235700000Y-96000000D01*
X235700000Y-81800000D02*
X221500000Y-81800000D01*
X235700000Y-96000000D02*
X235700000Y-81800000D01*
X221500000Y-100850000D02*
X221500000Y-115050000D01*
X221500000Y-115050000D02*
X235700000Y-115050000D01*
X235700000Y-100850000D02*
X221500000Y-100850000D01*
X235700000Y-115050000D02*
X235700000Y-100850000D01*
X69100000Y-81800000D02*
X69100000Y-96000000D01*
X69100000Y-96000000D02*
X83300000Y-96000000D01*
X83300000Y-81800000D02*
X69100000Y-81800000D01*
X83300000Y-96000000D02*
X83300000Y-81800000D01*
X362470000Y-81800000D02*
X362470000Y-96000000D01*
X362470000Y-96000000D02*
X376670000Y-96000000D01*
X376670000Y-81800000D02*
X362470000Y-81800000D01*
X376670000Y-96000000D02*
X376670000Y-81800000D01*
X240550000Y-81800000D02*
X240550000Y-96000000D01*
X240550000Y-96000000D02*
X254750000Y-96000000D01*
X254750000Y-81800000D02*
X240550000Y-81800000D01*
X254750000Y-96000000D02*
X254750000Y-81800000D01*
X164350000Y-100850000D02*
X164350000Y-115050000D01*
X164350000Y-115050000D02*
X178550000Y-115050000D01*
X178550000Y-100850000D02*
X164350000Y-100850000D01*
X178550000Y-115050000D02*
X178550000Y-100850000D01*
X164350000Y-119900000D02*
X164350000Y-134100000D01*
X164350000Y-134100000D02*
X178550000Y-134100000D01*
X178550000Y-119900000D02*
X164350000Y-119900000D01*
X178550000Y-134100000D02*
X178550000Y-119900000D01*
X202450000Y-100850000D02*
X202450000Y-115050000D01*
X202450000Y-115050000D02*
X216650000Y-115050000D01*
X216650000Y-100850000D02*
X202450000Y-100850000D01*
X216650000Y-115050000D02*
X216650000Y-100850000D01*
X339600000Y-119700001D02*
X339600000Y-119099999D01*
X340300000Y-118400000D02*
X341700000Y-118400000D01*
X341700000Y-120400000D02*
X340300000Y-120400000D01*
X342400000Y-119099999D02*
X342400000Y-119700001D01*
X339600000Y-119099999D02*
G75*
G02*
X340300000Y-118400000I700000J-1D01*
G01*
X340300000Y-120400000D02*
G75*
G02*
X339600000Y-119700001I0J700000D01*
G01*
X341700000Y-118400000D02*
G75*
G02*
X342400000Y-119099999I1J-699999D01*
G01*
X342400000Y-119700001D02*
G75*
G02*
X341700000Y-120400000I-699999J0D01*
G01*
X145300000Y-100850000D02*
X145300000Y-115050000D01*
X145300000Y-115050000D02*
X159500000Y-115050000D01*
X159500000Y-100850000D02*
X145300000Y-100850000D01*
X159500000Y-115050000D02*
X159500000Y-100850000D01*
X145300000Y-81800000D02*
X145300000Y-96000000D01*
X145300000Y-96000000D02*
X159500000Y-96000000D01*
X159500000Y-81800000D02*
X145300000Y-81800000D01*
X159500000Y-96000000D02*
X159500000Y-81800000D01*
X259600000Y-81800000D02*
X259600000Y-96000000D01*
X259600000Y-96000000D02*
X273800000Y-96000000D01*
X273800000Y-81800000D02*
X259600000Y-81800000D01*
X273800000Y-96000000D02*
X273800000Y-81800000D01*
X202450000Y-81800000D02*
X202450000Y-96000000D01*
X202450000Y-96000000D02*
X216650000Y-96000000D01*
X216650000Y-81800000D02*
X202450000Y-81800000D01*
X216650000Y-96000000D02*
X216650000Y-81800000D01*
X69100000Y-100850000D02*
X69100000Y-115050000D01*
X69100000Y-115050000D02*
X83300000Y-115050000D01*
X83300000Y-100850000D02*
X69100000Y-100850000D01*
X83300000Y-115050000D02*
X83300000Y-100850000D01*
X343420000Y-100850000D02*
X343420000Y-115050000D01*
X343420000Y-115050000D02*
X357620000Y-115050000D01*
X357620000Y-100850000D02*
X343420000Y-100850000D01*
X357620000Y-115050000D02*
X357620000Y-100850000D01*
X228643750Y-138950000D02*
X228643750Y-153150000D01*
X228643750Y-153150000D02*
X242843750Y-153150000D01*
X242843750Y-138950000D02*
X228643750Y-138950000D01*
X242843750Y-153150000D02*
X242843750Y-138950000D01*
X71481250Y-138950000D02*
X71481250Y-153150000D01*
X71481250Y-153150000D02*
X85681250Y-153150000D01*
X85681250Y-138950000D02*
X71481250Y-138950000D01*
X85681250Y-153150000D02*
X85681250Y-138950000D01*
X278650000Y-119900000D02*
X278650000Y-134100000D01*
X278650000Y-134100000D02*
X292850000Y-134100000D01*
X292850000Y-119900000D02*
X278650000Y-119900000D01*
X292850000Y-134100000D02*
X292850000Y-119900000D01*
X301510000Y-142760000D02*
X301510000Y-156960000D01*
X301510000Y-156960000D02*
X315710000Y-156960000D01*
X315710000Y-142760000D02*
X301510000Y-142760000D01*
X315710000Y-156960000D02*
X315710000Y-142760000D01*
X183400000Y-100850000D02*
X183400000Y-115050000D01*
X183400000Y-115050000D02*
X197600000Y-115050000D01*
X197600000Y-100850000D02*
X183400000Y-100850000D01*
X197600000Y-115050000D02*
X197600000Y-100850000D01*
X164350000Y-81800000D02*
X164350000Y-96000000D01*
X164350000Y-96000000D02*
X178550000Y-96000000D01*
X178550000Y-81800000D02*
X164350000Y-81800000D01*
X178550000Y-96000000D02*
X178550000Y-81800000D01*
X297700000Y-81800000D02*
X297700000Y-96000000D01*
X297700000Y-96000000D02*
X311900000Y-96000000D01*
X311900000Y-81800000D02*
X297700000Y-81800000D01*
X311900000Y-96000000D02*
X311900000Y-81800000D01*
X107200000Y-119900000D02*
X107200000Y-134100000D01*
X107200000Y-134100000D02*
X121400000Y-134100000D01*
X121400000Y-119900000D02*
X107200000Y-119900000D01*
X121400000Y-134100000D02*
X121400000Y-119900000D01*
X362470000Y-138950000D02*
X362470000Y-153150000D01*
X362470000Y-153150000D02*
X376670000Y-153150000D01*
X376670000Y-138950000D02*
X362470000Y-138950000D01*
X376670000Y-153150000D02*
X376670000Y-138950000D01*
X282460000Y-142760000D02*
X282460000Y-156960000D01*
X282460000Y-156960000D02*
X296660000Y-156960000D01*
X296660000Y-142760000D02*
X282460000Y-142760000D01*
X296660000Y-156960000D02*
X296660000Y-142760000D01*
X297700000Y-100850000D02*
X297700000Y-115050000D01*
X297700000Y-115050000D02*
X311900000Y-115050000D01*
X311900000Y-100850000D02*
X297700000Y-100850000D01*
X311900000Y-115050000D02*
X311900000Y-100850000D01*
X204831250Y-138950000D02*
X204831250Y-153150000D01*
X204831250Y-153150000D02*
X219031250Y-153150000D01*
X219031250Y-138950000D02*
X204831250Y-138950000D01*
X219031250Y-153150000D02*
X219031250Y-138950000D01*
X362470000Y-100850000D02*
X362470000Y-115050000D01*
X362470000Y-115050000D02*
X376670000Y-115050000D01*
X376670000Y-100850000D02*
X362470000Y-100850000D01*
X376670000Y-115050000D02*
X376670000Y-100850000D01*
M02*
