G04 #@! TF.GenerationSoftware,KiCad,Pcbnew,8.0.4*
G04 #@! TF.CreationDate,2024-08-22T22:34:04+02:00*
G04 #@! TF.ProjectId,Mimic40,4d696d69-6334-4302-9e6b-696361645f70,rev?*
G04 #@! TF.SameCoordinates,Original*
G04 #@! TF.FileFunction,Profile,NP*
%FSLAX46Y46*%
G04 Gerber Fmt 4.6, Leading zero omitted, Abs format (unit mm)*
G04 Created by KiCad (PCBNEW 8.0.4) date 2024-08-22 22:34:04*
%MOMM*%
%LPD*%
G01*
G04 APERTURE LIST*
G04 #@! TA.AperFunction,Profile*
%ADD10C,0.050000*%
G04 #@! TD*
G04 APERTURE END LIST*
D10*
X279250000Y-159000000D02*
X279250000Y-157250000D01*
X341250000Y-156000000D02*
X341250000Y-155000000D01*
X341250000Y-79000000D02*
X341250000Y-80000000D01*
X341000000Y-149750000D02*
G75*
G02*
X340750000Y-149500000I0J250000D01*
G01*
X341250000Y-85800000D02*
X341250000Y-95750000D01*
X340750000Y-79000000D02*
X340750000Y-80000000D01*
X280250000Y-160000000D02*
G75*
G02*
X279250000Y-159000000I0J1000000D01*
G01*
X340750000Y-156000000D02*
X340750000Y-155000000D01*
X341000000Y-96000000D02*
G75*
G02*
X340750000Y-95750000I0J250000D01*
G01*
X338000000Y-159000000D02*
G75*
G02*
X337000000Y-160000000I-1000000J0D01*
G01*
X341500000Y-156250000D02*
X378750000Y-156250000D01*
X339000000Y-156250000D02*
X340500000Y-156250000D01*
X341000000Y-85550000D02*
G75*
G02*
X341250000Y-85800000I0J-250000D01*
G01*
X341250000Y-140200000D02*
X341250000Y-149500000D01*
X66000000Y-79750000D02*
G75*
G02*
X67000000Y-78750000I1000000J0D01*
G01*
X338000000Y-157250000D02*
G75*
G02*
X339000000Y-156250000I1000000J0D01*
G01*
X340750000Y-101600000D02*
G75*
G02*
X341000000Y-101350000I250000J0D01*
G01*
X341250000Y-121000000D02*
X341250000Y-134500000D01*
X341000000Y-120750000D02*
G75*
G02*
X341250000Y-121000000I0J-250000D01*
G01*
X340750000Y-115300000D02*
X340750000Y-101600000D01*
X341250000Y-95750000D02*
G75*
G02*
X341000000Y-96000000I-250000J0D01*
G01*
X341000000Y-101350000D02*
G75*
G02*
X341250000Y-101600000I0J-250000D01*
G01*
X341250000Y-79000000D02*
G75*
G02*
X341500000Y-78750000I250000J0D01*
G01*
X340750000Y-155000000D02*
G75*
G02*
X341000000Y-154750000I250000J0D01*
G01*
X340500000Y-78750000D02*
G75*
G02*
X340750000Y-79000000I0J-250000D01*
G01*
X340750000Y-156000000D02*
G75*
G02*
X340500000Y-156250000I-250000J0D01*
G01*
X338000000Y-157250000D02*
X338000000Y-159000000D01*
X340750000Y-95750000D02*
X340750000Y-85800000D01*
X340750000Y-85800000D02*
G75*
G02*
X341000000Y-85550000I250000J0D01*
G01*
X278250000Y-156250000D02*
X67000000Y-156250000D01*
X341000000Y-134750000D02*
G75*
G02*
X340750000Y-134500000I0J250000D01*
G01*
X66000000Y-79750000D02*
X66000000Y-155250000D01*
X379750000Y-155250000D02*
G75*
G02*
X378750000Y-156250000I-1000000J0D01*
G01*
X278250000Y-156250000D02*
G75*
G02*
X279250000Y-157250000I0J-1000000D01*
G01*
X340500000Y-78750000D02*
X67000000Y-78750000D01*
X340750000Y-140200000D02*
G75*
G02*
X341000000Y-139950000I250000J0D01*
G01*
X341250000Y-134500000D02*
G75*
G02*
X341000000Y-134750000I-250000J0D01*
G01*
X340750000Y-134500000D02*
X340750000Y-121000000D01*
X341000000Y-154750000D02*
G75*
G02*
X341250000Y-155000000I0J-250000D01*
G01*
X337000000Y-160000000D02*
X280250000Y-160000000D01*
X378750000Y-78750000D02*
G75*
G02*
X379750000Y-79750000I0J-1000000D01*
G01*
X341000000Y-80250000D02*
G75*
G02*
X340750000Y-80000000I0J250000D01*
G01*
X67000000Y-156250000D02*
G75*
G02*
X66000000Y-155250000I0J1000000D01*
G01*
X341250000Y-101600000D02*
X341250000Y-115300000D01*
X340750000Y-121000000D02*
G75*
G02*
X341000000Y-120750000I250000J0D01*
G01*
X341500000Y-156250000D02*
G75*
G02*
X341250000Y-156000000I0J250000D01*
G01*
X340750000Y-149500000D02*
X340750000Y-140200000D01*
X341000000Y-115550000D02*
G75*
G02*
X340750000Y-115300000I0J250000D01*
G01*
X379750000Y-155250000D02*
X379750000Y-79750000D01*
X341250000Y-149500000D02*
G75*
G02*
X341000000Y-149750000I-250000J0D01*
G01*
X341000000Y-139950000D02*
G75*
G02*
X341250000Y-140200000I0J-250000D01*
G01*
X341500000Y-78750000D02*
X378750000Y-78750000D01*
X341250000Y-115300000D02*
G75*
G02*
X341000000Y-115550000I-250000J0D01*
G01*
X341250000Y-80000000D02*
G75*
G02*
X341000000Y-80250000I-250000J0D01*
G01*
X306860000Y-146210000D02*
X310360000Y-146210000D01*
X310360000Y-143110000D01*
X306860000Y-143110000D01*
X306860000Y-146210000D01*
X352270000Y-120250000D02*
X348770000Y-120250000D01*
X348770000Y-123350000D01*
X352270000Y-123350000D01*
X352270000Y-120250000D01*
X192250000Y-82150000D02*
X188750000Y-82150000D01*
X188750000Y-85250000D01*
X192250000Y-85250000D01*
X192250000Y-82150000D01*
X249400000Y-82150000D02*
X245900000Y-82150000D01*
X245900000Y-85250000D01*
X249400000Y-85250000D01*
X249400000Y-82150000D01*
X97000000Y-120250000D02*
X93500000Y-120250000D01*
X93500000Y-123350000D01*
X97000000Y-123350000D01*
X97000000Y-120250000D01*
X76831250Y-142400000D02*
X80331250Y-142400000D01*
X80331250Y-139300000D01*
X76831250Y-139300000D01*
X76831250Y-142400000D01*
X93500000Y-104300000D02*
X97000000Y-104300000D01*
X97000000Y-101200000D01*
X93500000Y-101200000D01*
X93500000Y-104300000D01*
X310360000Y-124060000D02*
X306860000Y-124060000D01*
X306860000Y-127160000D01*
X310360000Y-127160000D01*
X310360000Y-124060000D01*
X135100000Y-120250000D02*
X131600000Y-120250000D01*
X131600000Y-123350000D01*
X135100000Y-123350000D01*
X135100000Y-120250000D01*
X249400000Y-120250000D02*
X245900000Y-120250000D01*
X245900000Y-123350000D01*
X249400000Y-123350000D01*
X249400000Y-120250000D01*
X116050000Y-120250000D02*
X112550000Y-120250000D01*
X112550000Y-123350000D01*
X116050000Y-123350000D01*
X116050000Y-120250000D01*
X333220000Y-82150000D02*
X329720000Y-82150000D01*
X329720000Y-85250000D01*
X333220000Y-85250000D01*
X333220000Y-82150000D01*
X77950000Y-82149999D02*
X74450000Y-82149999D01*
X74450000Y-85249999D01*
X77950000Y-85249999D01*
X77950000Y-82149999D01*
X207800000Y-104300000D02*
X211300000Y-104300000D01*
X211300000Y-101200000D01*
X207800000Y-101200000D01*
X207800000Y-104300000D01*
X329720000Y-104300000D02*
X333220000Y-104300000D01*
X333220000Y-101200000D01*
X329720000Y-101200000D01*
X329720000Y-104300000D01*
X211300000Y-82150000D02*
X207800000Y-82150000D01*
X207800000Y-85250000D01*
X211300000Y-85250000D01*
X211300000Y-82150000D01*
X230350000Y-120250000D02*
X226850000Y-120250000D01*
X226850000Y-123350000D01*
X230350000Y-123350000D01*
X230350000Y-120250000D01*
X287500000Y-120250000D02*
X284000000Y-120250000D01*
X284000000Y-123350000D01*
X287500000Y-123350000D01*
X287500000Y-120250000D01*
X348770000Y-104300000D02*
X352270000Y-104300000D01*
X352270000Y-101200000D01*
X348770000Y-101200000D01*
X348770000Y-104300000D01*
X333220000Y-120250000D02*
X329720000Y-120250000D01*
X329720000Y-123350000D01*
X333220000Y-123350000D01*
X333220000Y-120250000D01*
X154150000Y-120250000D02*
X150650000Y-120250000D01*
X150650000Y-123350000D01*
X154150000Y-123350000D01*
X154150000Y-120250000D01*
X211300000Y-120250000D02*
X207800000Y-120250000D01*
X207800000Y-123350000D01*
X211300000Y-123350000D01*
X211300000Y-120250000D01*
X135100000Y-82150000D02*
X131600000Y-82150000D01*
X131600000Y-85250000D01*
X135100000Y-85250000D01*
X135100000Y-82150000D01*
X264950000Y-104300000D02*
X268450000Y-104300000D01*
X268450000Y-101200000D01*
X264950000Y-101200000D01*
X264950000Y-104300000D01*
X131600000Y-104300000D02*
X135100000Y-104300000D01*
X135100000Y-101200000D01*
X131600000Y-101200000D01*
X131600000Y-104300000D01*
X97000000Y-82150000D02*
X93500000Y-82150000D01*
X93500000Y-85250000D01*
X97000000Y-85250000D01*
X97000000Y-82150000D01*
X169700000Y-104300000D02*
X173200000Y-104300000D01*
X173200000Y-101200000D01*
X169700000Y-101200000D01*
X169700000Y-104300000D01*
X352270000Y-82150000D02*
X348770000Y-82150000D01*
X348770000Y-85250000D01*
X352270000Y-85250000D01*
X352270000Y-82150000D01*
X112550000Y-104300000D02*
X116050000Y-104300000D01*
X116050000Y-101200000D01*
X112550000Y-101200000D01*
X112550000Y-104300000D01*
X268450000Y-82150000D02*
X264950000Y-82150000D01*
X264950000Y-85250000D01*
X268450000Y-85250000D01*
X268450000Y-82150000D01*
X348770000Y-142400000D02*
X352270000Y-142400000D01*
X352270000Y-139300000D01*
X348770000Y-139300000D01*
X348770000Y-142400000D01*
X210181250Y-142400000D02*
X213681250Y-142400000D01*
X213681250Y-139300000D01*
X210181250Y-139300000D01*
X210181250Y-142400000D01*
X230350000Y-82150000D02*
X226850000Y-82150000D01*
X226850000Y-85250000D01*
X230350000Y-85250000D01*
X230350000Y-82150000D01*
X173200000Y-120250000D02*
X169700000Y-120250000D01*
X169700000Y-123350000D01*
X173200000Y-123350000D01*
X173200000Y-120250000D01*
X367820000Y-142400000D02*
X371320000Y-142400000D01*
X371320000Y-139300000D01*
X367820000Y-139300000D01*
X367820000Y-142400000D01*
X287810000Y-146210000D02*
X291310000Y-146210000D01*
X291310000Y-143110000D01*
X287810000Y-143110000D01*
X287810000Y-146210000D01*
X245900000Y-104300000D02*
X249400000Y-104300000D01*
X249400000Y-101200000D01*
X245900000Y-101200000D01*
X245900000Y-104300000D01*
X154150000Y-82150000D02*
X150650000Y-82150000D01*
X150650000Y-85250000D01*
X154150000Y-85250000D01*
X154150000Y-82150000D01*
X74450000Y-104300000D02*
X77950000Y-104300000D01*
X77950000Y-101200000D01*
X74450000Y-101200000D01*
X74450000Y-104300000D01*
X148268750Y-142400000D02*
X151768750Y-142400000D01*
X151768750Y-139300000D01*
X148268750Y-139300000D01*
X148268750Y-142400000D01*
X306550000Y-82150000D02*
X303050000Y-82150000D01*
X303050000Y-85250000D01*
X306550000Y-85250000D01*
X306550000Y-82150000D01*
X192250000Y-120250000D02*
X188750000Y-120250000D01*
X188750000Y-123350000D01*
X192250000Y-123350000D01*
X192250000Y-120250000D01*
X179225000Y-142400000D02*
X182725000Y-142400000D01*
X182725000Y-139300000D01*
X179225000Y-139300000D01*
X179225000Y-142400000D01*
X367820000Y-104300000D02*
X371320000Y-104300000D01*
X371320000Y-101200000D01*
X367820000Y-101200000D01*
X367820000Y-104300000D01*
X284000000Y-104300000D02*
X287500000Y-104300000D01*
X287500000Y-101200000D01*
X284000000Y-101200000D01*
X284000000Y-104300000D01*
X371320000Y-120250000D02*
X367820000Y-120250000D01*
X367820000Y-123350000D01*
X371320000Y-123350000D01*
X371320000Y-120250000D01*
X77950000Y-120250000D02*
X74450000Y-120250000D01*
X74450000Y-123350000D01*
X77950000Y-123350000D01*
X77950000Y-120250000D01*
X124456250Y-142400000D02*
X127956250Y-142400000D01*
X127956250Y-139300000D01*
X124456250Y-139300000D01*
X124456250Y-142400000D01*
X233993750Y-142400000D02*
X237493750Y-142400000D01*
X237493750Y-139300000D01*
X233993750Y-139300000D01*
X233993750Y-142400000D01*
X100643750Y-142400000D02*
X104143750Y-142400000D01*
X104143750Y-139300000D01*
X100643750Y-139300000D01*
X100643750Y-142400000D01*
X257806250Y-142400000D02*
X261306250Y-142400000D01*
X261306250Y-139300000D01*
X257806250Y-139300000D01*
X257806250Y-142400000D01*
X150650000Y-104300000D02*
X154150000Y-104300000D01*
X154150000Y-101200000D01*
X150650000Y-101200000D01*
X150650000Y-104300000D01*
X371320000Y-82150000D02*
X367820000Y-82150000D01*
X367820000Y-85250000D01*
X371320000Y-85250000D01*
X371320000Y-82150000D01*
X287500000Y-82150000D02*
X284000000Y-82150000D01*
X284000000Y-85250000D01*
X287500000Y-85250000D01*
X287500000Y-82150000D01*
X303050000Y-104300000D02*
X306550000Y-104300000D01*
X306550000Y-101200000D01*
X303050000Y-101200000D01*
X303050000Y-104300000D01*
X268450000Y-120250000D02*
X264950000Y-120250000D01*
X264950000Y-123350000D01*
X268450000Y-123350000D01*
X268450000Y-120250000D01*
X226850000Y-104300000D02*
X230350000Y-104300000D01*
X230350000Y-101200000D01*
X226850000Y-101200000D01*
X226850000Y-104300000D01*
X116050000Y-82150000D02*
X112550000Y-82150000D01*
X112550000Y-85250000D01*
X116050000Y-85250000D01*
X116050000Y-82150000D01*
X325910000Y-146210000D02*
X329410000Y-146210000D01*
X329410000Y-143110000D01*
X325910000Y-143110000D01*
X325910000Y-146210000D01*
X188750000Y-104300000D02*
X192250000Y-104300000D01*
X192250000Y-101200000D01*
X188750000Y-101200000D01*
X188750000Y-104300000D01*
X173200000Y-82150000D02*
X169700000Y-82150000D01*
X169700000Y-85250000D01*
X173200000Y-85250000D01*
X173200000Y-82150000D01*
M02*
