G04 #@! TF.GenerationSoftware,KiCad,Pcbnew,8.0.4*
G04 #@! TF.CreationDate,2024-08-22T22:47:04+02:00*
G04 #@! TF.ProjectId,Mimic40,4d696d69-6334-4302-9e6b-696361645f70,rev?*
G04 #@! TF.SameCoordinates,Original*
G04 #@! TF.FileFunction,Soldermask,Bot*
G04 #@! TF.FilePolarity,Negative*
%FSLAX46Y46*%
G04 Gerber Fmt 4.6, Leading zero omitted, Abs format (unit mm)*
G04 Created by KiCad (PCBNEW 8.0.4) date 2024-08-22 22:47:04*
%MOMM*%
%LPD*%
G01*
G04 APERTURE LIST*
G04 Aperture macros list*
%AMRoundRect*
0 Rectangle with rounded corners*
0 $1 Rounding radius*
0 $2 $3 $4 $5 $6 $7 $8 $9 X,Y pos of 4 corners*
0 Add a 4 corners polygon primitive as box body*
4,1,4,$2,$3,$4,$5,$6,$7,$8,$9,$2,$3,0*
0 Add four circle primitives for the rounded corners*
1,1,$1+$1,$2,$3*
1,1,$1+$1,$4,$5*
1,1,$1+$1,$6,$7*
1,1,$1+$1,$8,$9*
0 Add four rect primitives between the rounded corners*
20,1,$1+$1,$2,$3,$4,$5,0*
20,1,$1+$1,$4,$5,$6,$7,0*
20,1,$1+$1,$6,$7,$8,$9,0*
20,1,$1+$1,$8,$9,$2,$3,0*%
%AMFreePoly0*
4,1,19,0.500000,-0.750000,0.000000,-0.750000,0.000000,-0.744911,-0.071157,-0.744911,-0.207708,-0.704816,-0.327430,-0.627875,-0.420627,-0.520320,-0.479746,-0.390866,-0.500000,-0.250000,-0.500000,0.250000,-0.479746,0.390866,-0.420627,0.520320,-0.327430,0.627875,-0.207708,0.704816,-0.071157,0.744911,0.000000,0.744911,0.000000,0.750000,0.500000,0.750000,0.500000,-0.750000,0.500000,-0.750000,
$1*%
%AMFreePoly1*
4,1,19,0.000000,0.744911,0.071157,0.744911,0.207708,0.704816,0.327430,0.627875,0.420627,0.520320,0.479746,0.390866,0.500000,0.250000,0.500000,-0.250000,0.479746,-0.390866,0.420627,-0.520320,0.327430,-0.627875,0.207708,-0.704816,0.071157,-0.744911,0.000000,-0.744911,0.000000,-0.750000,-0.500000,-0.750000,-0.500000,0.750000,0.000000,0.750000,0.000000,0.744911,0.000000,0.744911,
$1*%
G04 Aperture macros list end*
%ADD10C,1.750000*%
%ADD11C,3.050000*%
%ADD12C,4.000000*%
%ADD13RoundRect,0.250000X1.025000X1.000000X-1.025000X1.000000X-1.025000X-1.000000X1.025000X-1.000000X0*%
%ADD14C,2.200000*%
%ADD15R,1.700000X1.700000*%
%ADD16O,1.700000X1.700000*%
%ADD17RoundRect,0.225000X-0.225000X-0.375000X0.225000X-0.375000X0.225000X0.375000X-0.225000X0.375000X0*%
%ADD18R,1.800000X0.820000*%
%ADD19RoundRect,0.250000X-0.475000X0.250000X-0.475000X-0.250000X0.475000X-0.250000X0.475000X0.250000X0*%
%ADD20RoundRect,0.225000X0.225000X0.375000X-0.225000X0.375000X-0.225000X-0.375000X0.225000X-0.375000X0*%
%ADD21RoundRect,0.225000X-0.375000X0.225000X-0.375000X-0.225000X0.375000X-0.225000X0.375000X0.225000X0*%
%ADD22RoundRect,0.140000X0.140000X0.170000X-0.140000X0.170000X-0.140000X-0.170000X0.140000X-0.170000X0*%
%ADD23RoundRect,0.140000X0.170000X-0.140000X0.170000X0.140000X-0.170000X0.140000X-0.170000X-0.140000X0*%
%ADD24FreePoly0,180.000000*%
%ADD25FreePoly1,180.000000*%
%ADD26RoundRect,0.140000X-0.170000X0.140000X-0.170000X-0.140000X0.170000X-0.140000X0.170000X0.140000X0*%
%ADD27RoundRect,0.135000X0.185000X-0.135000X0.185000X0.135000X-0.185000X0.135000X-0.185000X-0.135000X0*%
%ADD28RoundRect,0.135000X0.135000X0.185000X-0.135000X0.185000X-0.135000X-0.185000X0.135000X-0.185000X0*%
%ADD29RoundRect,0.140000X-0.140000X-0.170000X0.140000X-0.170000X0.140000X0.170000X-0.140000X0.170000X0*%
%ADD30RoundRect,0.150000X-0.150000X0.512500X-0.150000X-0.512500X0.150000X-0.512500X0.150000X0.512500X0*%
%ADD31RoundRect,0.135000X-0.185000X0.135000X-0.185000X-0.135000X0.185000X-0.135000X0.185000X0.135000X0*%
%ADD32C,0.650000*%
%ADD33R,0.600000X1.450000*%
%ADD34R,0.300000X1.450000*%
%ADD35O,1.000000X1.600000*%
%ADD36O,1.000000X2.100000*%
%ADD37FreePoly0,0.000000*%
%ADD38FreePoly1,0.000000*%
%ADD39RoundRect,0.250000X0.250000X0.475000X-0.250000X0.475000X-0.250000X-0.475000X0.250000X-0.475000X0*%
%ADD40R,1.700000X0.820000*%
%ADD41RoundRect,0.135000X-0.135000X-0.185000X0.135000X-0.185000X0.135000X0.185000X-0.135000X0.185000X0*%
%ADD42R,1.400000X1.200000*%
%ADD43RoundRect,0.250000X-0.250000X-0.475000X0.250000X-0.475000X0.250000X0.475000X-0.250000X0.475000X0*%
%ADD44RoundRect,0.150000X0.150000X-0.650000X0.150000X0.650000X-0.150000X0.650000X-0.150000X-0.650000X0*%
%ADD45RoundRect,0.375000X-0.625000X-0.375000X0.625000X-0.375000X0.625000X0.375000X-0.625000X0.375000X0*%
%ADD46RoundRect,0.500000X-0.500000X-1.400000X0.500000X-1.400000X0.500000X1.400000X-0.500000X1.400000X0*%
%ADD47RoundRect,0.050000X0.387500X0.050000X-0.387500X0.050000X-0.387500X-0.050000X0.387500X-0.050000X0*%
%ADD48RoundRect,0.050000X0.050000X0.387500X-0.050000X0.387500X-0.050000X-0.387500X0.050000X-0.387500X0*%
%ADD49R,3.200000X3.200000*%
G04 APERTURE END LIST*
D10*
X195579999Y-88900000D03*
D11*
X194310000Y-91440000D03*
D12*
X190500000Y-88900000D03*
D11*
X187960000Y-93980000D03*
D10*
X185420001Y-88900000D03*
D13*
X197585000Y-91440000D03*
X184658000Y-93980000D03*
D10*
X374649999Y-127000000D03*
D11*
X373380000Y-129540000D03*
D12*
X369570000Y-127000000D03*
D11*
X367030000Y-132080000D03*
D10*
X364490001Y-127000000D03*
D13*
X376655000Y-129540000D03*
X363728000Y-132080000D03*
D10*
X138429999Y-107950000D03*
D11*
X137160000Y-110490000D03*
D12*
X133350000Y-107950000D03*
D11*
X130810000Y-113030000D03*
D10*
X128270001Y-107950000D03*
D13*
X140435000Y-110490000D03*
X127508000Y-113030000D03*
D10*
X332739999Y-149860000D03*
D11*
X331470000Y-152400000D03*
D12*
X327660000Y-149860000D03*
D11*
X325120000Y-154940000D03*
D10*
X322580001Y-149860000D03*
D13*
X334745000Y-152400000D03*
X321818000Y-154940000D03*
D10*
X138429999Y-127000000D03*
D11*
X137160000Y-129540000D03*
D12*
X133350000Y-127000000D03*
D11*
X130810000Y-132080000D03*
D10*
X128270001Y-127000000D03*
D13*
X140435000Y-129540000D03*
X127508000Y-132080000D03*
D10*
X355599999Y-146050000D03*
D11*
X354330000Y-148590000D03*
D12*
X350520000Y-146050000D03*
D11*
X347980000Y-151130000D03*
D10*
X345440001Y-146050000D03*
D13*
X357605000Y-148590000D03*
X344678000Y-151130000D03*
D10*
X131286250Y-146050000D03*
D11*
X130016250Y-148590000D03*
D12*
X126206250Y-146050000D03*
D11*
X123666250Y-151130000D03*
D10*
X121126250Y-146050000D03*
D13*
X133291250Y-148590000D03*
X120364250Y-151130000D03*
D10*
X107473750Y-146050000D03*
D11*
X106203750Y-148590000D03*
D12*
X102393750Y-146050000D03*
D11*
X99853750Y-151130000D03*
D10*
X97313750Y-146050000D03*
D13*
X109478750Y-148590000D03*
X96551750Y-151130000D03*
D14*
X87000000Y-136525000D03*
X295300000Y-136500000D03*
D10*
X119379999Y-107950000D03*
D11*
X118110000Y-110490000D03*
D12*
X114300000Y-107950000D03*
D11*
X111760000Y-113030000D03*
D10*
X109220001Y-107950000D03*
D13*
X121385000Y-110490000D03*
X108458000Y-113030000D03*
D15*
X200500000Y-131575000D03*
D16*
X200500000Y-129035000D03*
D10*
X233679999Y-127000000D03*
D11*
X232410000Y-129540000D03*
D12*
X228600000Y-127000000D03*
D11*
X226060000Y-132080000D03*
D10*
X223520001Y-127000000D03*
D13*
X235685000Y-129540000D03*
X222758000Y-132080000D03*
D10*
X195579999Y-127000000D03*
D11*
X194310000Y-129540000D03*
D12*
X190500000Y-127000000D03*
D11*
X187960000Y-132080000D03*
D10*
X185420001Y-127000000D03*
D13*
X197585000Y-129540000D03*
X184658000Y-132080000D03*
D10*
X290829999Y-88900000D03*
D11*
X289560000Y-91440000D03*
D12*
X285750000Y-88900000D03*
D11*
X283210000Y-93980000D03*
D10*
X280670001Y-88900000D03*
D13*
X292835000Y-91440000D03*
X279908000Y-93980000D03*
D10*
X186055000Y-146050000D03*
D11*
X184785000Y-148590000D03*
D12*
X180975000Y-146050000D03*
D11*
X178435000Y-151130000D03*
D10*
X175895000Y-146050000D03*
D13*
X188060000Y-148590000D03*
X175133000Y-151130000D03*
D10*
X271779999Y-127000000D03*
D11*
X270510000Y-129540000D03*
D12*
X266700000Y-127000000D03*
D11*
X264160000Y-132080000D03*
D10*
X261620001Y-127000000D03*
D13*
X273785000Y-129540000D03*
X260858000Y-132080000D03*
D10*
X290829999Y-107950000D03*
D11*
X289560000Y-110490000D03*
D12*
X285750000Y-107950000D03*
D11*
X283210000Y-113030000D03*
D10*
X280670001Y-107950000D03*
D13*
X292835000Y-110490000D03*
X279908000Y-113030000D03*
D10*
X264636250Y-146050000D03*
D11*
X263366250Y-148590000D03*
D12*
X259556250Y-146050000D03*
D11*
X257016250Y-151130000D03*
D10*
X254476250Y-146050000D03*
D13*
X266641250Y-148590000D03*
X253714250Y-151130000D03*
D10*
X157479999Y-127000000D03*
D11*
X156210000Y-129540000D03*
D12*
X152400000Y-127000000D03*
D11*
X149860000Y-132080000D03*
D10*
X147320001Y-127000000D03*
D13*
X159485000Y-129540000D03*
X146558000Y-132080000D03*
D14*
X161925000Y-98425000D03*
D10*
X336549999Y-107950000D03*
D11*
X335280000Y-110490000D03*
D12*
X331470000Y-107950000D03*
D11*
X328930000Y-113030000D03*
D10*
X326390001Y-107950000D03*
D13*
X338555000Y-110490000D03*
X325628000Y-113030000D03*
D10*
X271779999Y-107950000D03*
D11*
X270510000Y-110490000D03*
D12*
X266700000Y-107950000D03*
D11*
X264160000Y-113030000D03*
D10*
X261620001Y-107950000D03*
D13*
X273785000Y-110490000D03*
X260858000Y-113030000D03*
D10*
X355599999Y-127000000D03*
D11*
X354330000Y-129540000D03*
D12*
X350520000Y-127000000D03*
D11*
X347980000Y-132080000D03*
D10*
X345440001Y-127000000D03*
D13*
X357605000Y-129540000D03*
X344678000Y-132080000D03*
D10*
X119379999Y-88900000D03*
D11*
X118110000Y-91440000D03*
D12*
X114300000Y-88900000D03*
D11*
X111760000Y-93980000D03*
D10*
X109220001Y-88900000D03*
D13*
X121385000Y-91440000D03*
X108458000Y-93980000D03*
D10*
X155098750Y-146050000D03*
D11*
X153828750Y-148590000D03*
D12*
X150018750Y-146050000D03*
D11*
X147478750Y-151130000D03*
D10*
X144938750Y-146050000D03*
D13*
X157103750Y-148590000D03*
X144176750Y-151130000D03*
D10*
X336549999Y-88900000D03*
D11*
X335280000Y-91440000D03*
D12*
X331470000Y-88900000D03*
D11*
X328930000Y-93980000D03*
D10*
X326390001Y-88900000D03*
D13*
X338555000Y-91440000D03*
X325628000Y-93980000D03*
D10*
X313689999Y-130810000D03*
D11*
X312420000Y-133350000D03*
D12*
X308610000Y-130810000D03*
D11*
X306070000Y-135890000D03*
D10*
X303530001Y-130810000D03*
D13*
X315695000Y-133350000D03*
X302768000Y-135890000D03*
D10*
X336549999Y-127000000D03*
D11*
X335280000Y-129540000D03*
D12*
X331470000Y-127000000D03*
D11*
X328930000Y-132080000D03*
D10*
X326390001Y-127000000D03*
D13*
X338555000Y-129540000D03*
X325628000Y-132080000D03*
D10*
X355599999Y-88900000D03*
D11*
X354330000Y-91440000D03*
D12*
X350520000Y-88900000D03*
D11*
X347980000Y-93980000D03*
D10*
X345440001Y-88900000D03*
D13*
X357605000Y-91440000D03*
X344678000Y-93980000D03*
D14*
X238100000Y-98425000D03*
D10*
X100329999Y-107950000D03*
D11*
X99060000Y-110490000D03*
D12*
X95250000Y-107950000D03*
D11*
X92710000Y-113030000D03*
D10*
X90170001Y-107950000D03*
D13*
X102335000Y-110490000D03*
X89408000Y-113030000D03*
D10*
X252729999Y-127000000D03*
D11*
X251460000Y-129540000D03*
D12*
X247650000Y-127000000D03*
D11*
X245110000Y-132080000D03*
D10*
X242570001Y-127000000D03*
D13*
X254735000Y-129540000D03*
X241808000Y-132080000D03*
D10*
X81279999Y-127000000D03*
D11*
X80010000Y-129540000D03*
D12*
X76200000Y-127000000D03*
D11*
X73660000Y-132080000D03*
D10*
X71120001Y-127000000D03*
D13*
X83285000Y-129540000D03*
X70358000Y-132080000D03*
D10*
X252729999Y-107950000D03*
D11*
X251460000Y-110490000D03*
D12*
X247650000Y-107950000D03*
D11*
X245110000Y-113030000D03*
D10*
X242570001Y-107950000D03*
D13*
X254735000Y-110490000D03*
X241808000Y-113030000D03*
D10*
X214629999Y-127000000D03*
D11*
X213360000Y-129540000D03*
D12*
X209550000Y-127000000D03*
D11*
X207010000Y-132080000D03*
D10*
X204470001Y-127000000D03*
D13*
X216635000Y-129540000D03*
X203708000Y-132080000D03*
D10*
X100329999Y-127000000D03*
D11*
X99060000Y-129540000D03*
D12*
X95250000Y-127000000D03*
D11*
X92710000Y-132080000D03*
D10*
X90170001Y-127000000D03*
D13*
X102335000Y-129540000D03*
X89408000Y-132080000D03*
D10*
X100329999Y-88900000D03*
D11*
X99060000Y-91440000D03*
D12*
X95250000Y-88900000D03*
D11*
X92710000Y-93980000D03*
D10*
X90170001Y-88900000D03*
D13*
X102335000Y-91440000D03*
X89408000Y-93980000D03*
D10*
X138429999Y-88900000D03*
D11*
X137160000Y-91440000D03*
D12*
X133350000Y-88900000D03*
D11*
X130810000Y-93980000D03*
D10*
X128270001Y-88900000D03*
D13*
X140435000Y-91440000D03*
X127508000Y-93980000D03*
D10*
X233679999Y-88900000D03*
D11*
X232410000Y-91440000D03*
D12*
X228600000Y-88900000D03*
D11*
X226060000Y-93980000D03*
D10*
X223520001Y-88900000D03*
D13*
X235685000Y-91440000D03*
X222758000Y-93980000D03*
D10*
X233679999Y-107950000D03*
D11*
X232410000Y-110490000D03*
D12*
X228600000Y-107950000D03*
D11*
X226060000Y-113030000D03*
D10*
X223520001Y-107950000D03*
D13*
X235685000Y-110490000D03*
X222758000Y-113030000D03*
D10*
X81279999Y-88900000D03*
D11*
X80010000Y-91440000D03*
D12*
X76200000Y-88900000D03*
D11*
X73660000Y-93980000D03*
D10*
X71120001Y-88900000D03*
D13*
X83285000Y-91440000D03*
X70358000Y-93980000D03*
D10*
X374649999Y-88900000D03*
D11*
X373380000Y-91440000D03*
D12*
X369570000Y-88900000D03*
D11*
X367030000Y-93980000D03*
D10*
X364490001Y-88900000D03*
D13*
X376655000Y-91440000D03*
X363728000Y-93980000D03*
D10*
X252729999Y-88900000D03*
D11*
X251460000Y-91440000D03*
D12*
X247650000Y-88900000D03*
D11*
X245110000Y-93980000D03*
D10*
X242570001Y-88900000D03*
D13*
X254735000Y-91440000D03*
X241808000Y-93980000D03*
D10*
X176529999Y-107950000D03*
D11*
X175260000Y-110490000D03*
D12*
X171450000Y-107950000D03*
D11*
X168910000Y-113030000D03*
D10*
X166370001Y-107950000D03*
D13*
X178535000Y-110490000D03*
X165608000Y-113030000D03*
D10*
X176529999Y-127000000D03*
D11*
X175260000Y-129540000D03*
D12*
X171450000Y-127000000D03*
D11*
X168910000Y-132080000D03*
D10*
X166370001Y-127000000D03*
D13*
X178535000Y-129540000D03*
X165608000Y-132080000D03*
D10*
X214629999Y-107950000D03*
D11*
X213360000Y-110490000D03*
D12*
X209550000Y-107950000D03*
D11*
X207010000Y-113030000D03*
D10*
X204470001Y-107950000D03*
D13*
X216635000Y-110490000D03*
X203708000Y-113030000D03*
D10*
X157479999Y-107950000D03*
D11*
X156210000Y-110490000D03*
D12*
X152400000Y-107950000D03*
D11*
X149860000Y-113030000D03*
D10*
X147320001Y-107950000D03*
D13*
X159485000Y-110490000D03*
X146558000Y-113030000D03*
D10*
X157479999Y-88900000D03*
D11*
X156210000Y-91440000D03*
D12*
X152400000Y-88900000D03*
D11*
X149860000Y-93980000D03*
D10*
X147320001Y-88900000D03*
D13*
X159485000Y-91440000D03*
X146558000Y-93980000D03*
D10*
X271779999Y-88900000D03*
D11*
X270510000Y-91440000D03*
D12*
X266700000Y-88900000D03*
D11*
X264160000Y-93980000D03*
D10*
X261620001Y-88900000D03*
D13*
X273785000Y-91440000D03*
X260858000Y-93980000D03*
D10*
X214629999Y-88900000D03*
D11*
X213360000Y-91440000D03*
D12*
X209550000Y-88900000D03*
D11*
X207010000Y-93980000D03*
D10*
X204470001Y-88900000D03*
D13*
X216635000Y-91440000D03*
X203708000Y-93980000D03*
D10*
X81279999Y-107950000D03*
D11*
X80010000Y-110490000D03*
D12*
X76200000Y-107950000D03*
D11*
X73660000Y-113030000D03*
D10*
X71120001Y-107950000D03*
D13*
X83285000Y-110490000D03*
X70358000Y-113030000D03*
D10*
X355599999Y-107950000D03*
D11*
X354330000Y-110490000D03*
D12*
X350520000Y-107950000D03*
D11*
X347980000Y-113030000D03*
D10*
X345440001Y-107950000D03*
D13*
X357605000Y-110490000D03*
X344678000Y-113030000D03*
D10*
X240823750Y-146050000D03*
D11*
X239553750Y-148590000D03*
D12*
X235743750Y-146050000D03*
D11*
X233203750Y-151130000D03*
D10*
X230663750Y-146050000D03*
D13*
X242828750Y-148590000D03*
X229901750Y-151130000D03*
D14*
X161925000Y-136525000D03*
D10*
X83661250Y-146050000D03*
D11*
X82391250Y-148590000D03*
D12*
X78581250Y-146050000D03*
D11*
X76041250Y-151130000D03*
D10*
X73501250Y-146050000D03*
D13*
X85666250Y-148590000D03*
X72739250Y-151130000D03*
D10*
X290829999Y-127000000D03*
D11*
X289560000Y-129540000D03*
D12*
X285750000Y-127000000D03*
D11*
X283210000Y-132080000D03*
D10*
X280670001Y-127000000D03*
D13*
X292835000Y-129540000D03*
X279908000Y-132080000D03*
D10*
X313689999Y-149860000D03*
D11*
X312420000Y-152400000D03*
D12*
X308610000Y-149860000D03*
D11*
X306070000Y-154940000D03*
D10*
X303530001Y-149860000D03*
D13*
X315695000Y-152400000D03*
X302768000Y-154940000D03*
D10*
X195579999Y-107950000D03*
D11*
X194310000Y-110490000D03*
D12*
X190500000Y-107950000D03*
D11*
X187960000Y-113030000D03*
D10*
X185420001Y-107950000D03*
D13*
X197585000Y-110490000D03*
X184658000Y-113030000D03*
D10*
X176529999Y-88900000D03*
D11*
X175260000Y-91440000D03*
D12*
X171450000Y-88900000D03*
D11*
X168910000Y-93980000D03*
D10*
X166370001Y-88900000D03*
D13*
X178535000Y-91440000D03*
X165608000Y-93980000D03*
D10*
X309879999Y-88900000D03*
D11*
X308610000Y-91440000D03*
D12*
X304800000Y-88900000D03*
D11*
X302260000Y-93980000D03*
D10*
X299720001Y-88900000D03*
D13*
X311885000Y-91440000D03*
X298958000Y-93980000D03*
D14*
X360045000Y-136525000D03*
D10*
X119379999Y-127000000D03*
D11*
X118110000Y-129540000D03*
D12*
X114300000Y-127000000D03*
D11*
X111760000Y-132080000D03*
D10*
X109220001Y-127000000D03*
D13*
X121385000Y-129540000D03*
X108458000Y-132080000D03*
D14*
X360045000Y-98425000D03*
D10*
X374649999Y-146050000D03*
D11*
X373380000Y-148590000D03*
D12*
X369570000Y-146050000D03*
D11*
X367030000Y-151130000D03*
D10*
X364490001Y-146050000D03*
D13*
X376655000Y-148590000D03*
X363728000Y-151130000D03*
D10*
X294639999Y-149860000D03*
D11*
X293370000Y-152400000D03*
D12*
X289560000Y-149860000D03*
D11*
X287020000Y-154940000D03*
D10*
X284480001Y-149860000D03*
D13*
X296645000Y-152400000D03*
X283718000Y-154940000D03*
D14*
X85725000Y-98425000D03*
D10*
X309879999Y-107950000D03*
D11*
X308610000Y-110490000D03*
D12*
X304800000Y-107950000D03*
D11*
X302260000Y-113030000D03*
D10*
X299720001Y-107950000D03*
D13*
X311885000Y-110490000D03*
X298958000Y-113030000D03*
D10*
X217011250Y-146050000D03*
D11*
X215741250Y-148590000D03*
D12*
X211931250Y-146050000D03*
D11*
X209391250Y-151130000D03*
D10*
X206851250Y-146050000D03*
D13*
X219016250Y-148590000D03*
X206089250Y-151130000D03*
D10*
X374649999Y-107950000D03*
D11*
X373380000Y-110490000D03*
D12*
X369570000Y-107950000D03*
D11*
X367030000Y-113030000D03*
D10*
X364490001Y-107950000D03*
D13*
X376655000Y-110490000D03*
X363728000Y-113030000D03*
D14*
X318100000Y-98400000D03*
D17*
X70750000Y-135600000D03*
X74050000Y-135600000D03*
D18*
X305610000Y-143860000D03*
X305610000Y-145360000D03*
X311610000Y-145360000D03*
X311610000Y-143860000D03*
D19*
X193350000Y-151850001D03*
X193350000Y-153749999D03*
D18*
X353520000Y-122600000D03*
X353520000Y-121100000D03*
X347520000Y-121100000D03*
X347520000Y-122600000D03*
X193500000Y-84500000D03*
X193500000Y-83000000D03*
X187500000Y-83000000D03*
X187500000Y-84500000D03*
D20*
X137650000Y-98500000D03*
X134350000Y-98500000D03*
D21*
X342750000Y-105450000D03*
X342750000Y-108750000D03*
X223600000Y-143450000D03*
X223600000Y-146750000D03*
X124500000Y-90850000D03*
X124500000Y-94150000D03*
D18*
X250650000Y-84500000D03*
X250650000Y-83000000D03*
X244650000Y-83000000D03*
X244650000Y-84500000D03*
X98250000Y-122600000D03*
X98250000Y-121100000D03*
X92250000Y-121100000D03*
X92250000Y-122600000D03*
D21*
X226800000Y-143450000D03*
X226800000Y-146750000D03*
X277000000Y-86350000D03*
X277000000Y-89650000D03*
X323000000Y-105450000D03*
X323000000Y-108750000D03*
X124350000Y-124350000D03*
X124350000Y-127650000D03*
D18*
X75581250Y-140050000D03*
X75581250Y-141550000D03*
X81581250Y-141550000D03*
X81581250Y-140050000D03*
D21*
X162450000Y-124350000D03*
X162450000Y-127650000D03*
D22*
X191229999Y-137800000D03*
X190269999Y-137800000D03*
D23*
X196349999Y-138680000D03*
X196349999Y-137720000D03*
D21*
X200550000Y-105450000D03*
X200550000Y-108750000D03*
D18*
X92250000Y-101950000D03*
X92250000Y-103450000D03*
X98250000Y-103450000D03*
X98250000Y-101950000D03*
X311610000Y-126410000D03*
X311610000Y-124910000D03*
X305610000Y-124910000D03*
X305610000Y-126410000D03*
D21*
X257700000Y-105450000D03*
X257700000Y-108750000D03*
D24*
X341650000Y-97400000D03*
D25*
X340350000Y-97400000D03*
D18*
X136350000Y-122600000D03*
X136350000Y-121100000D03*
X130350000Y-121100000D03*
X130350000Y-122600000D03*
D26*
X195350000Y-149120000D03*
X195350000Y-150080000D03*
D27*
X194349999Y-139069998D03*
X194349999Y-138050000D03*
D21*
X299650000Y-147450000D03*
X299650000Y-150750000D03*
D18*
X250650000Y-122600000D03*
X250650000Y-121100000D03*
X244650000Y-121100000D03*
X244650000Y-122600000D03*
X117300000Y-122600000D03*
X117300000Y-121100000D03*
X111300000Y-121100000D03*
X111300000Y-122600000D03*
D21*
X181500000Y-105450000D03*
X181500000Y-108750000D03*
D18*
X334470000Y-84500000D03*
X334470000Y-83000000D03*
X328470000Y-83000000D03*
X328470000Y-84500000D03*
X79200000Y-84499999D03*
X79200000Y-82999999D03*
X73200000Y-82999999D03*
X73200000Y-84499999D03*
X206550000Y-101950000D03*
X206550000Y-103450000D03*
X212550000Y-103450000D03*
X212550000Y-101950000D03*
D21*
X360500000Y-124600000D03*
X360500000Y-127900000D03*
D22*
X191229998Y-136800000D03*
X190269998Y-136800000D03*
D18*
X328470000Y-101950000D03*
X328470000Y-103450000D03*
X334470000Y-103450000D03*
X334470000Y-101950000D03*
D15*
X162000000Y-149250000D03*
D16*
X164540000Y-149250000D03*
X167079999Y-149250000D03*
X169620000Y-149250000D03*
D18*
X212550000Y-84500000D03*
X212550000Y-83000000D03*
X206550000Y-83000000D03*
X206550000Y-84500000D03*
X231600000Y-122600000D03*
X231600000Y-121100000D03*
X225600000Y-121100000D03*
X225600000Y-122600000D03*
D28*
X197309999Y-149050000D03*
X196290001Y-149050000D03*
D29*
X198220000Y-150053838D03*
X199180000Y-150053838D03*
D30*
X103800001Y-94362500D03*
X104750000Y-94362500D03*
X105699999Y-94362500D03*
X105699999Y-96637500D03*
X104750000Y-96637500D03*
X103800001Y-96637500D03*
D21*
X280600000Y-147450000D03*
X280600000Y-150750000D03*
X92600000Y-143650000D03*
X92600000Y-146950000D03*
D31*
X195350000Y-138050000D03*
X195350000Y-139069998D03*
D21*
X181600000Y-86350000D03*
X181600000Y-89650000D03*
D18*
X288750000Y-122600000D03*
X288750000Y-121100000D03*
X282750000Y-121100000D03*
X282750000Y-122600000D03*
D23*
X193249999Y-138280000D03*
X193249999Y-137320000D03*
D15*
X162000000Y-145500000D03*
D16*
X164540000Y-145500000D03*
X167080000Y-145500000D03*
X169620000Y-145500000D03*
D21*
X200500000Y-122150000D03*
X200500000Y-125450000D03*
D32*
X101860000Y-84040000D03*
X107640000Y-84040000D03*
D33*
X101500000Y-85485000D03*
X102299999Y-85485000D03*
D34*
X103500000Y-85484999D03*
X104500000Y-85485000D03*
X105000000Y-85485000D03*
X106000000Y-85484999D03*
D33*
X107200001Y-85485000D03*
X108000000Y-85485000D03*
X108000000Y-85485000D03*
X107200001Y-85485000D03*
D34*
X106500000Y-85485000D03*
X105500000Y-85485000D03*
X104000000Y-85485000D03*
X103000000Y-85485000D03*
D33*
X102299999Y-85485000D03*
X101500000Y-85485000D03*
D35*
X100430000Y-80390000D03*
D36*
X100430000Y-84570000D03*
D35*
X109070000Y-80390000D03*
D36*
X109070000Y-84570000D03*
D21*
X343000000Y-143600000D03*
X343000000Y-146900000D03*
D18*
X347520000Y-101950000D03*
X347520000Y-103450000D03*
X353520000Y-103450000D03*
X353520000Y-101950000D03*
X334470000Y-122600000D03*
X334470000Y-121100000D03*
X328470000Y-121100000D03*
X328470000Y-122600000D03*
X155400000Y-122600000D03*
X155400000Y-121100000D03*
X149400000Y-121100000D03*
X149400000Y-122600000D03*
D28*
X102859999Y-87250000D03*
X101840001Y-87250000D03*
D18*
X212550000Y-122600000D03*
X212550000Y-121100000D03*
X206550000Y-121100000D03*
X206550000Y-122600000D03*
D21*
X276750000Y-124350000D03*
X276750000Y-127650000D03*
X258000000Y-86350000D03*
X258000000Y-89650000D03*
X162600000Y-86350000D03*
X162600000Y-89650000D03*
D18*
X136350000Y-84500000D03*
X136350000Y-83000000D03*
X130350000Y-83000000D03*
X130350000Y-84500000D03*
X263700000Y-101950000D03*
X263700000Y-103450000D03*
X269700000Y-103450000D03*
X269700000Y-101950000D03*
D21*
X342750000Y-86850000D03*
X342750000Y-90150000D03*
D17*
X184750000Y-117500000D03*
X188050000Y-117500000D03*
D28*
X201809999Y-139300000D03*
X200790001Y-139300000D03*
D37*
X340350001Y-116800000D03*
D38*
X341649999Y-116800000D03*
D18*
X130350000Y-101950000D03*
X130350000Y-103450000D03*
X136350000Y-103450000D03*
X136350000Y-101950000D03*
X98250000Y-84500000D03*
X98250000Y-83000000D03*
X92250000Y-83000000D03*
X92250000Y-84500000D03*
X168450000Y-101950000D03*
X168450000Y-103450000D03*
X174450000Y-103450000D03*
X174450000Y-101950000D03*
X353520000Y-84500000D03*
X353520000Y-83000000D03*
X347520000Y-83000000D03*
X347520000Y-84500000D03*
D21*
X105300000Y-105450000D03*
X105300000Y-108750000D03*
X360500000Y-86350000D03*
X360500000Y-89650000D03*
X342750000Y-124600000D03*
X342750000Y-127900000D03*
X295800000Y-105450000D03*
X295800000Y-108750000D03*
X219600000Y-124350000D03*
X219600000Y-127650000D03*
X238650000Y-105450000D03*
X238650000Y-108750000D03*
D18*
X111300000Y-101950000D03*
X111300000Y-103450000D03*
X117300000Y-103450000D03*
X117300000Y-101950000D03*
D21*
X323000000Y-86350000D03*
X323000000Y-89650000D03*
X318700000Y-147450000D03*
X318700000Y-150750000D03*
X257700000Y-124350000D03*
X257700000Y-127650000D03*
D17*
X127600000Y-98500000D03*
X130900000Y-98500000D03*
D18*
X269700000Y-84500000D03*
X269700000Y-83000000D03*
X263700000Y-83000000D03*
X263700000Y-84500000D03*
D39*
X124349999Y-88250000D03*
X122450001Y-88250000D03*
D21*
X105300000Y-124350000D03*
X105300000Y-127650000D03*
X117200000Y-143650000D03*
X117200000Y-146950000D03*
D18*
X347520000Y-140050000D03*
X347520000Y-141550000D03*
X353520000Y-141550000D03*
X353520000Y-140050000D03*
D21*
X299500000Y-128250000D03*
X299500000Y-131550000D03*
X323000000Y-124100000D03*
X323000000Y-127400000D03*
D24*
X341650000Y-100000000D03*
D25*
X340350000Y-100000000D03*
D21*
X360500000Y-143600000D03*
X360500000Y-146900000D03*
D28*
X201809999Y-140300000D03*
X200790001Y-140300000D03*
D18*
X208931250Y-140050000D03*
D40*
X209031250Y-141550000D03*
D18*
X214931250Y-141550000D03*
X214931250Y-140050000D03*
X231600000Y-84500000D03*
X231600000Y-83000000D03*
X225600000Y-83000000D03*
X225600000Y-84500000D03*
D21*
X276750000Y-105450000D03*
X276750000Y-108750000D03*
X143600000Y-86850000D03*
X143600000Y-90150000D03*
D22*
X191229999Y-138800000D03*
X190269999Y-138800000D03*
D18*
X174450000Y-122600000D03*
X174450000Y-121100000D03*
X168450000Y-121100000D03*
X168450000Y-122600000D03*
D22*
X197280000Y-150053838D03*
X196320000Y-150053838D03*
D21*
X219600000Y-105450000D03*
X219600000Y-108750000D03*
D18*
X366570000Y-140050000D03*
X366570000Y-141550000D03*
X372570000Y-141550000D03*
X372570000Y-140050000D03*
D21*
X238800000Y-86350000D03*
X238800000Y-89650000D03*
D41*
X106740001Y-87250000D03*
X107759999Y-87250000D03*
D18*
X286560000Y-143860000D03*
X286560000Y-145360000D03*
X292560000Y-145360000D03*
X292560000Y-143860000D03*
D17*
X70750000Y-97600000D03*
X74050000Y-97600000D03*
D18*
X244650000Y-101950000D03*
X244650000Y-103450000D03*
X250650000Y-103450000D03*
X250650000Y-101950000D03*
X155400000Y-84500000D03*
X155400000Y-83000000D03*
X149400000Y-83000000D03*
X149400000Y-84500000D03*
D21*
X162450000Y-105450000D03*
X162450000Y-108750000D03*
D18*
X73200000Y-101950000D03*
X73200000Y-103450000D03*
X79200000Y-103450000D03*
X79200000Y-101950000D03*
X147018750Y-140050000D03*
X147018750Y-141550000D03*
X153018750Y-141550000D03*
X153018750Y-140050000D03*
X307800000Y-84500000D03*
X307800000Y-83000000D03*
X301800000Y-83000000D03*
X301800000Y-84500000D03*
D42*
X198758001Y-153658000D03*
X196558001Y-153658000D03*
X196558001Y-151958000D03*
X198758001Y-151958000D03*
D21*
X86250000Y-86850000D03*
X86250000Y-90150000D03*
X200600000Y-86350000D03*
X200600000Y-89650000D03*
D18*
X193500000Y-122600000D03*
X193500000Y-121100000D03*
X187500000Y-121100000D03*
X187500000Y-122600000D03*
X177975000Y-140050000D03*
X177975000Y-141550000D03*
X183975000Y-141550000D03*
X183975000Y-140050000D03*
D24*
X341650000Y-84200000D03*
D25*
X340350000Y-84200000D03*
D18*
X366570000Y-101950000D03*
X366570000Y-103450000D03*
X372570000Y-103450000D03*
X372570000Y-101950000D03*
D29*
X202870000Y-144300000D03*
X203830000Y-144300000D03*
D18*
X282750000Y-101950000D03*
X282750000Y-103450000D03*
X288750000Y-103450000D03*
X288750000Y-101950000D03*
X372570000Y-122600000D03*
X372570000Y-121100000D03*
X366570000Y-121100000D03*
X366570000Y-122600000D03*
D29*
X202870000Y-145300000D03*
X203830000Y-145300000D03*
D18*
X79200000Y-122600000D03*
X79200000Y-121100000D03*
X73200000Y-121100000D03*
X73200000Y-122600000D03*
D21*
X86250000Y-124350000D03*
X86250000Y-127650000D03*
X143400000Y-105450000D03*
X143400000Y-108750000D03*
D15*
X163300000Y-153000000D03*
D16*
X165840000Y-153000000D03*
X168379999Y-153000000D03*
D43*
X129300001Y-80500000D03*
X131199999Y-80500000D03*
D21*
X143400000Y-124350000D03*
X143400000Y-127650000D03*
X173100000Y-143950000D03*
X173100000Y-147250000D03*
X238650000Y-124350000D03*
X238650000Y-127650000D03*
D18*
X123206250Y-140050000D03*
X123206250Y-141550000D03*
X129206250Y-141550000D03*
X129206250Y-140050000D03*
D24*
X341650000Y-136000000D03*
D25*
X340350000Y-136000000D03*
D18*
X232743750Y-140050000D03*
X232743750Y-141550000D03*
X238743750Y-141550000D03*
X238743750Y-140050000D03*
X99393750Y-140050000D03*
X99393750Y-141550000D03*
X105393750Y-141550000D03*
X105393750Y-140050000D03*
X256556250Y-140050000D03*
X256556250Y-141550000D03*
X262556250Y-141550000D03*
X262556250Y-140050000D03*
X149400000Y-101950000D03*
X149400000Y-103450000D03*
X155400000Y-103450000D03*
X155400000Y-101950000D03*
D44*
X207055000Y-142600000D03*
X205785000Y-142600000D03*
X204515000Y-142600000D03*
X203245000Y-142600000D03*
X203245000Y-135400000D03*
X204515000Y-135400000D03*
X205785000Y-135400000D03*
X207055000Y-135400000D03*
D45*
X120850000Y-85800000D03*
X120850001Y-83500000D03*
D46*
X127149999Y-83500000D03*
D45*
X120850000Y-81200000D03*
D18*
X372570000Y-84500000D03*
X372570000Y-83000000D03*
X366570000Y-83000000D03*
X366570000Y-84500000D03*
D21*
X296000000Y-86350000D03*
X296000000Y-89650000D03*
D18*
X288750000Y-84500000D03*
X288750000Y-83000000D03*
X282750000Y-83000000D03*
X282750000Y-84500000D03*
D29*
X202870000Y-147300000D03*
X203830000Y-147300000D03*
D24*
X341649999Y-138600000D03*
D25*
X340350001Y-138600000D03*
D47*
X199587499Y-141259999D03*
X199587499Y-141660000D03*
X199587499Y-142059999D03*
X199587499Y-142459999D03*
X199587499Y-142859999D03*
X199587499Y-143259998D03*
X199587499Y-143659999D03*
X199587499Y-144059999D03*
X199587499Y-144460000D03*
X199587499Y-144859999D03*
X199587499Y-145259999D03*
X199587499Y-145659999D03*
X199587499Y-146059998D03*
X199587499Y-146459999D03*
D48*
X198749999Y-147297499D03*
X198349998Y-147297499D03*
X197949999Y-147297499D03*
X197549999Y-147297499D03*
X197149999Y-147297499D03*
X196750000Y-147297499D03*
X196349999Y-147297499D03*
X195949999Y-147297499D03*
X195549998Y-147297499D03*
X195149999Y-147297499D03*
X194749999Y-147297499D03*
X194349999Y-147297499D03*
X193950000Y-147297499D03*
X193549999Y-147297499D03*
D47*
X192712499Y-146459999D03*
X192712499Y-146059998D03*
X192712499Y-145659999D03*
X192712499Y-145259999D03*
X192712499Y-144859999D03*
X192712499Y-144460000D03*
X192712499Y-144059999D03*
X192712499Y-143659999D03*
X192712499Y-143259998D03*
X192712499Y-142859999D03*
X192712499Y-142459999D03*
X192712499Y-142059999D03*
X192712499Y-141660000D03*
X192712499Y-141259999D03*
D48*
X193549999Y-140422499D03*
X193950000Y-140422499D03*
X194349999Y-140422499D03*
X194749999Y-140422499D03*
X195149999Y-140422499D03*
X195549998Y-140422499D03*
X195949999Y-140422499D03*
X196349999Y-140422499D03*
X196750000Y-140422499D03*
X197149999Y-140422499D03*
X197549999Y-140422499D03*
X197949999Y-140422499D03*
X198349998Y-140422499D03*
X198749999Y-140422499D03*
D49*
X196149999Y-143859999D03*
D21*
X141100000Y-143650000D03*
X141100000Y-146950000D03*
X250600000Y-143450000D03*
X250600000Y-146750000D03*
D18*
X301800000Y-101950000D03*
X301800000Y-103450000D03*
X307800000Y-103450000D03*
X307800000Y-101950000D03*
X269700000Y-122600000D03*
X269700000Y-121100000D03*
X263700000Y-121100000D03*
X263700000Y-122600000D03*
D21*
X89200000Y-143650000D03*
X89200000Y-146950000D03*
X219600000Y-86350000D03*
X219600000Y-89650000D03*
D18*
X225600000Y-101950000D03*
X225600000Y-103450000D03*
X231600000Y-103450000D03*
X231600000Y-101950000D03*
D21*
X360500000Y-105450000D03*
X360500000Y-108750000D03*
D18*
X117300000Y-84500000D03*
X117300000Y-83000000D03*
X111300000Y-83000000D03*
X111300000Y-84500000D03*
X324660000Y-143860000D03*
X324660000Y-145360000D03*
X330660000Y-145360000D03*
X330660000Y-143860000D03*
X187500000Y-101950000D03*
X187500000Y-103450000D03*
X193500000Y-103450000D03*
X193500000Y-101950000D03*
D17*
X70750000Y-116600000D03*
X74050000Y-116600000D03*
D24*
X341650000Y-119400000D03*
D25*
X340350000Y-119400000D03*
D18*
X174450000Y-84500000D03*
X174450000Y-83000000D03*
X168450000Y-83000000D03*
X168450000Y-84500000D03*
D23*
X192249999Y-139180000D03*
X192249999Y-138220000D03*
D21*
X86250000Y-105450000D03*
X86250000Y-108750000D03*
D22*
X191230000Y-139800000D03*
X190270000Y-139800000D03*
D29*
X202870000Y-146300000D03*
X203830000Y-146300000D03*
D37*
X340350001Y-81600000D03*
D38*
X341649999Y-81600000D03*
M02*
