M48
; DRILL file {KiCad 8.0.4} date 2024-08-22T22:34:41+0200
; FORMAT={-:-/ absolute / metric / decimal}
; #@! TF.CreationDate,2024-08-22T22:34:41+02:00
; #@! TF.GenerationSoftware,Kicad,Pcbnew,8.0.4
; #@! TF.FileFunction,NonPlated,1,2,NPTH
FMAT,2
METRIC
; #@! TA.AperFunction,NonPlated,NPTH,ComponentDrill
T1C0.650
; #@! TA.AperFunction,NonPlated,NPTH,ComponentDrill
T2C1.750
; #@! TA.AperFunction,NonPlated,NPTH,ComponentDrill
T3C2.200
; #@! TA.AperFunction,NonPlated,NPTH,ComponentDrill
T4C3.050
; #@! TA.AperFunction,NonPlated,NPTH,ComponentDrill
T5C4.000
%
G90
G05
T1
X101.86Y-84.04
X107.64Y-84.04
T2
X71.12Y-88.9
X71.12Y-107.95
X71.12Y-127.0
X73.501Y-146.05
X81.28Y-88.9
X81.28Y-107.95
X81.28Y-127.0
X83.661Y-146.05
X90.17Y-88.9
X90.17Y-107.95
X90.17Y-127.0
X97.314Y-146.05
X100.33Y-88.9
X100.33Y-107.95
X100.33Y-127.0
X107.474Y-146.05
X109.22Y-88.9
X109.22Y-107.95
X109.22Y-127.0
X119.38Y-88.9
X119.38Y-107.95
X119.38Y-127.0
X121.126Y-146.05
X128.27Y-88.9
X128.27Y-107.95
X128.27Y-127.0
X131.286Y-146.05
X138.43Y-88.9
X138.43Y-107.95
X138.43Y-127.0
X144.939Y-146.05
X147.32Y-88.9
X147.32Y-107.95
X147.32Y-127.0
X155.099Y-146.05
X157.48Y-88.9
X157.48Y-107.95
X157.48Y-127.0
X166.37Y-88.9
X166.37Y-107.95
X166.37Y-127.0
X175.895Y-146.05
X176.53Y-88.9
X176.53Y-107.95
X176.53Y-127.0
X185.42Y-88.9
X185.42Y-107.95
X185.42Y-127.0
X186.055Y-146.05
X195.58Y-88.9
X195.58Y-107.95
X195.58Y-127.0
X204.47Y-88.9
X204.47Y-107.95
X204.47Y-127.0
X206.851Y-146.05
X214.63Y-88.9
X214.63Y-107.95
X214.63Y-127.0
X217.011Y-146.05
X223.52Y-88.9
X223.52Y-107.95
X223.52Y-127.0
X230.664Y-146.05
X233.68Y-88.9
X233.68Y-107.95
X233.68Y-127.0
X240.824Y-146.05
X242.57Y-88.9
X242.57Y-107.95
X242.57Y-127.0
X252.73Y-88.9
X252.73Y-107.95
X252.73Y-127.0
X254.476Y-146.05
X261.62Y-88.9
X261.62Y-107.95
X261.62Y-127.0
X264.636Y-146.05
X271.78Y-88.9
X271.78Y-107.95
X271.78Y-127.0
X280.67Y-88.9
X280.67Y-107.95
X280.67Y-127.0
X284.48Y-149.86
X290.83Y-88.9
X290.83Y-107.95
X290.83Y-127.0
X294.64Y-149.86
X299.72Y-88.9
X299.72Y-107.95
X303.53Y-130.81
X303.53Y-149.86
X309.88Y-88.9
X309.88Y-107.95
X313.69Y-130.81
X313.69Y-149.86
X322.58Y-149.86
X326.39Y-88.9
X326.39Y-107.95
X326.39Y-127.0
X332.74Y-149.86
X336.55Y-88.9
X336.55Y-107.95
X336.55Y-127.0
X345.44Y-88.9
X345.44Y-107.95
X345.44Y-127.0
X345.44Y-146.05
X355.6Y-88.9
X355.6Y-107.95
X355.6Y-127.0
X355.6Y-146.05
X364.49Y-88.9
X364.49Y-107.95
X364.49Y-127.0
X364.49Y-146.05
X374.65Y-88.9
X374.65Y-107.95
X374.65Y-127.0
X374.65Y-146.05
T3
X85.725Y-98.425
X87.0Y-136.525
X161.925Y-98.425
X161.925Y-136.525
X238.1Y-98.425
X295.3Y-136.5
X318.1Y-98.4
X360.045Y-98.425
X360.045Y-136.525
T4
X73.66Y-93.98
X73.66Y-113.03
X73.66Y-132.08
X76.041Y-151.13
X80.01Y-91.44
X80.01Y-110.49
X80.01Y-129.54
X82.391Y-148.59
X92.71Y-93.98
X92.71Y-113.03
X92.71Y-132.08
X99.06Y-91.44
X99.06Y-110.49
X99.06Y-129.54
X99.854Y-151.13
X106.204Y-148.59
X111.76Y-93.98
X111.76Y-113.03
X111.76Y-132.08
X118.11Y-91.44
X118.11Y-110.49
X118.11Y-129.54
X123.666Y-151.13
X130.016Y-148.59
X130.81Y-93.98
X130.81Y-113.03
X130.81Y-132.08
X137.16Y-91.44
X137.16Y-110.49
X137.16Y-129.54
X147.479Y-151.13
X149.86Y-93.98
X149.86Y-113.03
X149.86Y-132.08
X153.829Y-148.59
X156.21Y-91.44
X156.21Y-110.49
X156.21Y-129.54
X168.91Y-93.98
X168.91Y-113.03
X168.91Y-132.08
X175.26Y-91.44
X175.26Y-110.49
X175.26Y-129.54
X178.435Y-151.13
X184.785Y-148.59
X187.96Y-93.98
X187.96Y-113.03
X187.96Y-132.08
X194.31Y-91.44
X194.31Y-110.49
X194.31Y-129.54
X207.01Y-93.98
X207.01Y-113.03
X207.01Y-132.08
X209.391Y-151.13
X213.36Y-91.44
X213.36Y-110.49
X213.36Y-129.54
X215.741Y-148.59
X226.06Y-93.98
X226.06Y-113.03
X226.06Y-132.08
X232.41Y-91.44
X232.41Y-110.49
X232.41Y-129.54
X233.204Y-151.13
X239.554Y-148.59
X245.11Y-93.98
X245.11Y-113.03
X245.11Y-132.08
X251.46Y-91.44
X251.46Y-110.49
X251.46Y-129.54
X257.016Y-151.13
X263.366Y-148.59
X264.16Y-93.98
X264.16Y-113.03
X264.16Y-132.08
X270.51Y-91.44
X270.51Y-110.49
X270.51Y-129.54
X283.21Y-93.98
X283.21Y-113.03
X283.21Y-132.08
X287.02Y-154.94
X289.56Y-91.44
X289.56Y-110.49
X289.56Y-129.54
X293.37Y-152.4
X302.26Y-93.98
X302.26Y-113.03
X306.07Y-135.89
X306.07Y-154.94
X308.61Y-91.44
X308.61Y-110.49
X312.42Y-133.35
X312.42Y-152.4
X325.12Y-154.94
X328.93Y-93.98
X328.93Y-113.03
X328.93Y-132.08
X331.47Y-152.4
X335.28Y-91.44
X335.28Y-110.49
X335.28Y-129.54
X347.98Y-93.98
X347.98Y-113.03
X347.98Y-132.08
X347.98Y-151.13
X354.33Y-91.44
X354.33Y-110.49
X354.33Y-129.54
X354.33Y-148.59
X367.03Y-93.98
X367.03Y-113.03
X367.03Y-132.08
X367.03Y-151.13
X373.38Y-91.44
X373.38Y-110.49
X373.38Y-129.54
X373.38Y-148.59
T5
X76.2Y-88.9
X76.2Y-107.95
X76.2Y-127.0
X78.581Y-146.05
X95.25Y-88.9
X95.25Y-107.95
X95.25Y-127.0
X102.394Y-146.05
X114.3Y-88.9
X114.3Y-107.95
X114.3Y-127.0
X126.206Y-146.05
X133.35Y-88.9
X133.35Y-107.95
X133.35Y-127.0
X150.019Y-146.05
X152.4Y-88.9
X152.4Y-107.95
X152.4Y-127.0
X171.45Y-88.9
X171.45Y-107.95
X171.45Y-127.0
X180.975Y-146.05
X190.5Y-88.9
X190.5Y-107.95
X190.5Y-127.0
X209.55Y-88.9
X209.55Y-107.95
X209.55Y-127.0
X211.931Y-146.05
X228.6Y-88.9
X228.6Y-107.95
X228.6Y-127.0
X235.744Y-146.05
X247.65Y-88.9
X247.65Y-107.95
X247.65Y-127.0
X259.556Y-146.05
X266.7Y-88.9
X266.7Y-107.95
X266.7Y-127.0
X285.75Y-88.9
X285.75Y-107.95
X285.75Y-127.0
X289.56Y-149.86
X304.8Y-88.9
X304.8Y-107.95
X308.61Y-130.81
X308.61Y-149.86
X327.66Y-149.86
X331.47Y-88.9
X331.47Y-107.95
X331.47Y-127.0
X350.52Y-88.9
X350.52Y-107.95
X350.52Y-127.0
X350.52Y-146.05
X369.57Y-88.9
X369.57Y-107.95
X369.57Y-127.0
X369.57Y-146.05
M30
