G04 #@! TF.GenerationSoftware,KiCad,Pcbnew,8.0.4*
G04 #@! TF.CreationDate,2024-08-22T22:47:04+02:00*
G04 #@! TF.ProjectId,Mimic40,4d696d69-6334-4302-9e6b-696361645f70,rev?*
G04 #@! TF.SameCoordinates,Original*
G04 #@! TF.FileFunction,Soldermask,Top*
G04 #@! TF.FilePolarity,Negative*
%FSLAX46Y46*%
G04 Gerber Fmt 4.6, Leading zero omitted, Abs format (unit mm)*
G04 Created by KiCad (PCBNEW 8.0.4) date 2024-08-22 22:47:04*
%MOMM*%
%LPD*%
G01*
G04 APERTURE LIST*
G04 Aperture macros list*
%AMFreePoly0*
4,1,19,0.500000,-0.750000,0.000000,-0.750000,0.000000,-0.744911,-0.071157,-0.744911,-0.207708,-0.704816,-0.327430,-0.627875,-0.420627,-0.520320,-0.479746,-0.390866,-0.500000,-0.250000,-0.500000,0.250000,-0.479746,0.390866,-0.420627,0.520320,-0.327430,0.627875,-0.207708,0.704816,-0.071157,0.744911,0.000000,0.744911,0.000000,0.750000,0.500000,0.750000,0.500000,-0.750000,0.500000,-0.750000,
$1*%
%AMFreePoly1*
4,1,19,0.000000,0.744911,0.071157,0.744911,0.207708,0.704816,0.327430,0.627875,0.420627,0.520320,0.479746,0.390866,0.500000,0.250000,0.500000,-0.250000,0.479746,-0.390866,0.420627,-0.520320,0.327430,-0.627875,0.207708,-0.704816,0.071157,-0.744911,0.000000,-0.744911,0.000000,-0.750000,-0.500000,-0.750000,-0.500000,0.750000,0.000000,0.750000,0.000000,0.744911,0.000000,0.744911,
$1*%
G04 Aperture macros list end*
%ADD10C,0.100000*%
%ADD11C,1.750000*%
%ADD12C,3.050000*%
%ADD13C,4.000000*%
%ADD14C,2.200000*%
%ADD15R,1.700000X1.700000*%
%ADD16O,1.700000X1.700000*%
%ADD17FreePoly0,180.000000*%
%ADD18FreePoly1,180.000000*%
%ADD19C,0.650000*%
%ADD20O,1.000000X1.600000*%
%ADD21O,1.000000X2.100000*%
G04 APERTURE END LIST*
D10*
X312352388Y-117572751D02*
X312592217Y-117591314D01*
X312824449Y-117605258D01*
X313048908Y-117615012D01*
X313307750Y-117621786D01*
X313554841Y-117623879D01*
X313803160Y-117621720D01*
X314031885Y-117615881D01*
X314307969Y-117604023D01*
X314553051Y-117589589D01*
X314819142Y-117571377D01*
X315085046Y-117555119D01*
X315330975Y-117553538D01*
X315488145Y-117566727D01*
X315441197Y-117715720D01*
X315391279Y-117954702D01*
X315351541Y-118185896D01*
X315313903Y-118432199D01*
X315280141Y-118674729D01*
X315252034Y-118894602D01*
X315224363Y-119140628D01*
X315179300Y-119159312D01*
X315152147Y-119138520D01*
X314972387Y-118964135D01*
X314848422Y-118767917D01*
X314765004Y-118539255D01*
X314713285Y-118304218D01*
X314600376Y-118245124D01*
X314383498Y-118203779D01*
X314159342Y-118196507D01*
X314056605Y-118197372D01*
X313826021Y-118203719D01*
X313604300Y-118209696D01*
X313596205Y-118255836D01*
X313560086Y-118514602D01*
X313536278Y-118750909D01*
X313516822Y-119008192D01*
X313501566Y-119281774D01*
X313490354Y-119566981D01*
X313483032Y-119859136D01*
X313480000Y-120080000D01*
X313479003Y-120300170D01*
X313479329Y-120448845D01*
X313481391Y-120691293D01*
X313485505Y-120924684D01*
X313493400Y-121188939D01*
X313504810Y-121431466D01*
X313522967Y-121680631D01*
X314587988Y-121788342D01*
X314612839Y-121691501D01*
X314694449Y-121462879D01*
X314800431Y-121250860D01*
X314926457Y-121052124D01*
X315068200Y-120863349D01*
X315221335Y-120681216D01*
X315381533Y-120502404D01*
X315418902Y-120515593D01*
X315406675Y-120625016D01*
X315391807Y-120856881D01*
X315388128Y-121079427D01*
X315388274Y-121120165D01*
X315394914Y-121356187D01*
X315413386Y-121607603D01*
X315445174Y-121852037D01*
X315494740Y-122073007D01*
X315340820Y-122096732D01*
X315122475Y-122159020D01*
X314908696Y-122260010D01*
X314700828Y-122394294D01*
X314505556Y-122547815D01*
X314309973Y-122491754D01*
X314047871Y-122425357D01*
X313786558Y-122368575D01*
X313528546Y-122321485D01*
X313276345Y-122284164D01*
X313032469Y-122256690D01*
X312799427Y-122239140D01*
X312527189Y-122231277D01*
X312378755Y-122241367D01*
X312155696Y-122295024D01*
X312149101Y-122275240D01*
X312298567Y-122093272D01*
X312385249Y-121887932D01*
X312454202Y-121642685D01*
X312504544Y-121377730D01*
X312535394Y-121113269D01*
X312545874Y-120869501D01*
X312545636Y-120833652D01*
X312530898Y-120586003D01*
X312494072Y-120353186D01*
X312426353Y-120121563D01*
X312319461Y-119927578D01*
X312344788Y-119900768D01*
X312471370Y-119696921D01*
X312546895Y-119483025D01*
X312599157Y-119243973D01*
X312631877Y-118993701D01*
X312648778Y-118746145D01*
X312653585Y-118515244D01*
X312649122Y-118319184D01*
X312634900Y-118096489D01*
X312563315Y-118061340D01*
X312373731Y-117920215D01*
X312217175Y-117746366D01*
X312105137Y-117549141D01*
X312352388Y-117572751D01*
G36*
X312352388Y-117572751D02*
G01*
X312592217Y-117591314D01*
X312824449Y-117605258D01*
X313048908Y-117615012D01*
X313307750Y-117621786D01*
X313554841Y-117623879D01*
X313803160Y-117621720D01*
X314031885Y-117615881D01*
X314307969Y-117604023D01*
X314553051Y-117589589D01*
X314819142Y-117571377D01*
X315085046Y-117555119D01*
X315330975Y-117553538D01*
X315488145Y-117566727D01*
X315441197Y-117715720D01*
X315391279Y-117954702D01*
X315351541Y-118185896D01*
X315313903Y-118432199D01*
X315280141Y-118674729D01*
X315252034Y-118894602D01*
X315224363Y-119140628D01*
X315179300Y-119159312D01*
X315152147Y-119138520D01*
X314972387Y-118964135D01*
X314848422Y-118767917D01*
X314765004Y-118539255D01*
X314713285Y-118304218D01*
X314600376Y-118245124D01*
X314383498Y-118203779D01*
X314159342Y-118196507D01*
X314056605Y-118197372D01*
X313826021Y-118203719D01*
X313604300Y-118209696D01*
X313596205Y-118255836D01*
X313560086Y-118514602D01*
X313536278Y-118750909D01*
X313516822Y-119008192D01*
X313501566Y-119281774D01*
X313490354Y-119566981D01*
X313483032Y-119859136D01*
X313480000Y-120080000D01*
X313479003Y-120300170D01*
X313479329Y-120448845D01*
X313481391Y-120691293D01*
X313485505Y-120924684D01*
X313493400Y-121188939D01*
X313504810Y-121431466D01*
X313522967Y-121680631D01*
X314587988Y-121788342D01*
X314612839Y-121691501D01*
X314694449Y-121462879D01*
X314800431Y-121250860D01*
X314926457Y-121052124D01*
X315068200Y-120863349D01*
X315221335Y-120681216D01*
X315381533Y-120502404D01*
X315418902Y-120515593D01*
X315406675Y-120625016D01*
X315391807Y-120856881D01*
X315388128Y-121079427D01*
X315388274Y-121120165D01*
X315394914Y-121356187D01*
X315413386Y-121607603D01*
X315445174Y-121852037D01*
X315494740Y-122073007D01*
X315340820Y-122096732D01*
X315122475Y-122159020D01*
X314908696Y-122260010D01*
X314700828Y-122394294D01*
X314505556Y-122547815D01*
X314309973Y-122491754D01*
X314047871Y-122425357D01*
X313786558Y-122368575D01*
X313528546Y-122321485D01*
X313276345Y-122284164D01*
X313032469Y-122256690D01*
X312799427Y-122239140D01*
X312527189Y-122231277D01*
X312378755Y-122241367D01*
X312155696Y-122295024D01*
X312149101Y-122275240D01*
X312298567Y-122093272D01*
X312385249Y-121887932D01*
X312454202Y-121642685D01*
X312504544Y-121377730D01*
X312535394Y-121113269D01*
X312545874Y-120869501D01*
X312545636Y-120833652D01*
X312530898Y-120586003D01*
X312494072Y-120353186D01*
X312426353Y-120121563D01*
X312319461Y-119927578D01*
X312344788Y-119900768D01*
X312471370Y-119696921D01*
X312546895Y-119483025D01*
X312599157Y-119243973D01*
X312631877Y-118993701D01*
X312648778Y-118746145D01*
X312653585Y-118515244D01*
X312649122Y-118319184D01*
X312634900Y-118096489D01*
X312563315Y-118061340D01*
X312373731Y-117920215D01*
X312217175Y-117746366D01*
X312105137Y-117549141D01*
X312352388Y-117572751D01*
G37*
X301576767Y-117567451D02*
X301798141Y-117617740D01*
X302025694Y-117651312D01*
X302256167Y-117663447D01*
X302397102Y-117660856D01*
X302630853Y-117645699D01*
X302854654Y-117620868D01*
X303076029Y-117590850D01*
X303302503Y-117560132D01*
X303127877Y-117726905D01*
X302997923Y-117953043D01*
X302920524Y-118171128D01*
X302868446Y-118402711D01*
X302839100Y-118635191D01*
X302829893Y-118855963D01*
X302832053Y-118981450D01*
X302847532Y-119220741D01*
X302880623Y-119470476D01*
X302934501Y-119713603D01*
X303012343Y-119933073D01*
X302930082Y-120125707D01*
X302877704Y-120348943D01*
X302850055Y-120590108D01*
X302841983Y-120836528D01*
X302844673Y-120988374D01*
X302863450Y-121235241D01*
X302904847Y-121475064D01*
X302974349Y-121708673D01*
X303077440Y-121936899D01*
X303219603Y-122160572D01*
X303365151Y-122336789D01*
X303281503Y-122326507D01*
X303047222Y-122300657D01*
X302802325Y-122279240D01*
X302554104Y-122264939D01*
X302306725Y-122259853D01*
X302111279Y-122263149D01*
X301875839Y-122276486D01*
X301633293Y-122300752D01*
X301399973Y-122331294D01*
X301433267Y-122309845D01*
X301619096Y-122144994D01*
X301752525Y-121968155D01*
X301862608Y-121764993D01*
X301945725Y-121544463D01*
X301998251Y-121315520D01*
X302016564Y-121087121D01*
X302016271Y-121046783D01*
X302002057Y-120804420D01*
X301966086Y-120566940D01*
X301907794Y-120341907D01*
X301826614Y-120136884D01*
X301702224Y-119933073D01*
X301815425Y-119693189D01*
X301896081Y-119468099D01*
X301948974Y-119252196D01*
X301981973Y-119004438D01*
X301991285Y-118752648D01*
X301987946Y-118589184D01*
X301972601Y-118367965D01*
X301942591Y-118354814D01*
X301749023Y-118211539D01*
X301625947Y-118013074D01*
X301556155Y-117777038D01*
X301525270Y-117553538D01*
X301576767Y-117567451D01*
G36*
X301576767Y-117567451D02*
G01*
X301798141Y-117617740D01*
X302025694Y-117651312D01*
X302256167Y-117663447D01*
X302397102Y-117660856D01*
X302630853Y-117645699D01*
X302854654Y-117620868D01*
X303076029Y-117590850D01*
X303302503Y-117560132D01*
X303127877Y-117726905D01*
X302997923Y-117953043D01*
X302920524Y-118171128D01*
X302868446Y-118402711D01*
X302839100Y-118635191D01*
X302829893Y-118855963D01*
X302832053Y-118981450D01*
X302847532Y-119220741D01*
X302880623Y-119470476D01*
X302934501Y-119713603D01*
X303012343Y-119933073D01*
X302930082Y-120125707D01*
X302877704Y-120348943D01*
X302850055Y-120590108D01*
X302841983Y-120836528D01*
X302844673Y-120988374D01*
X302863450Y-121235241D01*
X302904847Y-121475064D01*
X302974349Y-121708673D01*
X303077440Y-121936899D01*
X303219603Y-122160572D01*
X303365151Y-122336789D01*
X303281503Y-122326507D01*
X303047222Y-122300657D01*
X302802325Y-122279240D01*
X302554104Y-122264939D01*
X302306725Y-122259853D01*
X302111279Y-122263149D01*
X301875839Y-122276486D01*
X301633293Y-122300752D01*
X301399973Y-122331294D01*
X301433267Y-122309845D01*
X301619096Y-122144994D01*
X301752525Y-121968155D01*
X301862608Y-121764993D01*
X301945725Y-121544463D01*
X301998251Y-121315520D01*
X302016564Y-121087121D01*
X302016271Y-121046783D01*
X302002057Y-120804420D01*
X301966086Y-120566940D01*
X301907794Y-120341907D01*
X301826614Y-120136884D01*
X301702224Y-119933073D01*
X301815425Y-119693189D01*
X301896081Y-119468099D01*
X301948974Y-119252196D01*
X301981973Y-119004438D01*
X301991285Y-118752648D01*
X301987946Y-118589184D01*
X301972601Y-118367965D01*
X301942591Y-118354814D01*
X301749023Y-118211539D01*
X301625947Y-118013074D01*
X301556155Y-117777038D01*
X301525270Y-117553538D01*
X301576767Y-117567451D01*
G37*
X309802378Y-117567451D02*
X310023751Y-117617740D01*
X310251304Y-117651312D01*
X310481777Y-117663447D01*
X310622712Y-117660856D01*
X310856464Y-117645699D01*
X311080265Y-117620868D01*
X311301640Y-117590850D01*
X311528114Y-117560132D01*
X311353488Y-117726905D01*
X311223534Y-117953043D01*
X311146134Y-118171128D01*
X311094057Y-118402711D01*
X311064710Y-118635191D01*
X311055504Y-118855963D01*
X311057663Y-118981450D01*
X311073142Y-119220741D01*
X311106233Y-119470476D01*
X311160112Y-119713603D01*
X311237953Y-119933073D01*
X311155693Y-120125707D01*
X311103314Y-120348943D01*
X311075665Y-120590108D01*
X311067594Y-120836528D01*
X311070284Y-120988374D01*
X311089060Y-121235241D01*
X311130458Y-121475064D01*
X311199960Y-121708673D01*
X311303050Y-121936899D01*
X311445214Y-122160572D01*
X311590762Y-122336789D01*
X311507114Y-122326507D01*
X311272832Y-122300657D01*
X311027936Y-122279240D01*
X310779715Y-122264939D01*
X310532336Y-122259853D01*
X310336890Y-122263149D01*
X310101450Y-122276486D01*
X309858904Y-122300752D01*
X309625584Y-122331294D01*
X309658877Y-122309845D01*
X309844707Y-122144994D01*
X309978135Y-121968155D01*
X310088219Y-121764993D01*
X310171335Y-121544463D01*
X310223861Y-121315520D01*
X310242175Y-121087121D01*
X310241882Y-121046783D01*
X310227668Y-120804420D01*
X310191697Y-120566940D01*
X310133404Y-120341907D01*
X310052225Y-120136884D01*
X309927835Y-119933073D01*
X310041035Y-119693189D01*
X310121691Y-119468099D01*
X310174585Y-119252196D01*
X310207584Y-119004438D01*
X310216896Y-118752648D01*
X310213556Y-118589184D01*
X310198211Y-118367965D01*
X310168202Y-118354814D01*
X309974634Y-118211539D01*
X309851557Y-118013074D01*
X309781766Y-117777038D01*
X309750881Y-117553538D01*
X309802378Y-117567451D01*
G36*
X309802378Y-117567451D02*
G01*
X310023751Y-117617740D01*
X310251304Y-117651312D01*
X310481777Y-117663447D01*
X310622712Y-117660856D01*
X310856464Y-117645699D01*
X311080265Y-117620868D01*
X311301640Y-117590850D01*
X311528114Y-117560132D01*
X311353488Y-117726905D01*
X311223534Y-117953043D01*
X311146134Y-118171128D01*
X311094057Y-118402711D01*
X311064710Y-118635191D01*
X311055504Y-118855963D01*
X311057663Y-118981450D01*
X311073142Y-119220741D01*
X311106233Y-119470476D01*
X311160112Y-119713603D01*
X311237953Y-119933073D01*
X311155693Y-120125707D01*
X311103314Y-120348943D01*
X311075665Y-120590108D01*
X311067594Y-120836528D01*
X311070284Y-120988374D01*
X311089060Y-121235241D01*
X311130458Y-121475064D01*
X311199960Y-121708673D01*
X311303050Y-121936899D01*
X311445214Y-122160572D01*
X311590762Y-122336789D01*
X311507114Y-122326507D01*
X311272832Y-122300657D01*
X311027936Y-122279240D01*
X310779715Y-122264939D01*
X310532336Y-122259853D01*
X310336890Y-122263149D01*
X310101450Y-122276486D01*
X309858904Y-122300752D01*
X309625584Y-122331294D01*
X309658877Y-122309845D01*
X309844707Y-122144994D01*
X309978135Y-121968155D01*
X310088219Y-121764993D01*
X310171335Y-121544463D01*
X310223861Y-121315520D01*
X310242175Y-121087121D01*
X310241882Y-121046783D01*
X310227668Y-120804420D01*
X310191697Y-120566940D01*
X310133404Y-120341907D01*
X310052225Y-120136884D01*
X309927835Y-119933073D01*
X310041035Y-119693189D01*
X310121691Y-119468099D01*
X310174585Y-119252196D01*
X310207584Y-119004438D01*
X310216896Y-118752648D01*
X310213556Y-118589184D01*
X310198211Y-118367965D01*
X310168202Y-118354814D01*
X309974634Y-118211539D01*
X309851557Y-118013074D01*
X309781766Y-117777038D01*
X309750881Y-117553538D01*
X309802378Y-117567451D01*
G37*
X309044574Y-117621472D02*
X308860389Y-117801256D01*
X308727237Y-117994671D01*
X308637292Y-118200985D01*
X308582733Y-118419471D01*
X308555734Y-118649397D01*
X308548473Y-118890034D01*
X308560290Y-119069092D01*
X308603271Y-119287418D01*
X308676575Y-119516947D01*
X308762653Y-119723439D01*
X308869408Y-119939668D01*
X308775044Y-120136371D01*
X308688904Y-120367084D01*
X308629046Y-120583485D01*
X308588604Y-120809710D01*
X308573752Y-121038761D01*
X308590771Y-121277742D01*
X308640812Y-121504392D01*
X308722354Y-121710321D01*
X308855271Y-121913191D01*
X309026578Y-122063115D01*
X308859436Y-122157783D01*
X308666197Y-122292212D01*
X308489701Y-122441478D01*
X308317303Y-122623241D01*
X308182475Y-122824787D01*
X308092512Y-122644224D01*
X307935029Y-122453012D01*
X307762577Y-122296964D01*
X307569809Y-122162478D01*
X307370246Y-122063115D01*
X307482072Y-121932408D01*
X307574044Y-121723739D01*
X307628907Y-121471390D01*
X307653115Y-121237549D01*
X307663619Y-120990697D01*
X307665902Y-120738708D01*
X307665902Y-119558283D01*
X306443710Y-121876270D01*
X306337098Y-121852090D01*
X305145682Y-119769309D01*
X305145682Y-120728817D01*
X305146055Y-120822745D01*
X305151776Y-121081606D01*
X305170738Y-121378432D01*
X305203584Y-121628143D01*
X305265717Y-121887506D01*
X305353122Y-122104361D01*
X305467786Y-122295988D01*
X305611697Y-122479672D01*
X305512811Y-122451974D01*
X305290463Y-122374966D01*
X305094647Y-122274865D01*
X304911701Y-122149944D01*
X304723630Y-122002665D01*
X304701574Y-122039464D01*
X304557810Y-122247948D01*
X304386356Y-122435712D01*
X304214234Y-122576730D01*
X304008604Y-122704022D01*
X303762976Y-122817892D01*
X303533313Y-122899525D01*
X303718694Y-122705662D01*
X303890140Y-122488447D01*
X304044326Y-122251629D01*
X304177931Y-121998956D01*
X304287629Y-121734175D01*
X304370100Y-121461036D01*
X304422019Y-121183285D01*
X304440064Y-120904672D01*
X304436174Y-120775859D01*
X304409625Y-120553861D01*
X304355819Y-120337287D01*
X304272272Y-120127379D01*
X304156498Y-119925380D01*
X304229410Y-119779696D01*
X304320177Y-119569386D01*
X304398123Y-119335602D01*
X304446298Y-119113167D01*
X304465343Y-118871350D01*
X304457919Y-118726192D01*
X304413171Y-118496662D01*
X304329219Y-118281542D01*
X304207523Y-118079573D01*
X304049541Y-117889498D01*
X303856734Y-117710060D01*
X303678393Y-117573321D01*
X303822374Y-117553538D01*
X303854687Y-117554043D01*
X304103192Y-117581393D01*
X304351087Y-117627089D01*
X304585722Y-117670966D01*
X304848652Y-117712116D01*
X305081127Y-117738035D01*
X305334726Y-117753572D01*
X305357883Y-117753567D01*
X305580922Y-117746978D01*
X305445236Y-117911621D01*
X305351412Y-118113364D01*
X305309447Y-118340488D01*
X306563511Y-120482620D01*
X307609848Y-118377857D01*
X307580859Y-118299714D01*
X307484558Y-118092346D01*
X307352300Y-117898607D01*
X307181202Y-117728293D01*
X307231269Y-117734408D01*
X307451578Y-117741482D01*
X307663360Y-117737013D01*
X307935283Y-117720242D01*
X308155063Y-117699479D01*
X308373710Y-117673608D01*
X308641029Y-117636090D01*
X308896434Y-117595211D01*
X309134290Y-117553538D01*
X309044574Y-117621472D01*
G36*
X309044574Y-117621472D02*
G01*
X308860389Y-117801256D01*
X308727237Y-117994671D01*
X308637292Y-118200985D01*
X308582733Y-118419471D01*
X308555734Y-118649397D01*
X308548473Y-118890034D01*
X308560290Y-119069092D01*
X308603271Y-119287418D01*
X308676575Y-119516947D01*
X308762653Y-119723439D01*
X308869408Y-119939668D01*
X308775044Y-120136371D01*
X308688904Y-120367084D01*
X308629046Y-120583485D01*
X308588604Y-120809710D01*
X308573752Y-121038761D01*
X308590771Y-121277742D01*
X308640812Y-121504392D01*
X308722354Y-121710321D01*
X308855271Y-121913191D01*
X309026578Y-122063115D01*
X308859436Y-122157783D01*
X308666197Y-122292212D01*
X308489701Y-122441478D01*
X308317303Y-122623241D01*
X308182475Y-122824787D01*
X308092512Y-122644224D01*
X307935029Y-122453012D01*
X307762577Y-122296964D01*
X307569809Y-122162478D01*
X307370246Y-122063115D01*
X307482072Y-121932408D01*
X307574044Y-121723739D01*
X307628907Y-121471390D01*
X307653115Y-121237549D01*
X307663619Y-120990697D01*
X307665902Y-120738708D01*
X307665902Y-119558283D01*
X306443710Y-121876270D01*
X306337098Y-121852090D01*
X305145682Y-119769309D01*
X305145682Y-120728817D01*
X305146055Y-120822745D01*
X305151776Y-121081606D01*
X305170738Y-121378432D01*
X305203584Y-121628143D01*
X305265717Y-121887506D01*
X305353122Y-122104361D01*
X305467786Y-122295988D01*
X305611697Y-122479672D01*
X305512811Y-122451974D01*
X305290463Y-122374966D01*
X305094647Y-122274865D01*
X304911701Y-122149944D01*
X304723630Y-122002665D01*
X304701574Y-122039464D01*
X304557810Y-122247948D01*
X304386356Y-122435712D01*
X304214234Y-122576730D01*
X304008604Y-122704022D01*
X303762976Y-122817892D01*
X303533313Y-122899525D01*
X303718694Y-122705662D01*
X303890140Y-122488447D01*
X304044326Y-122251629D01*
X304177931Y-121998956D01*
X304287629Y-121734175D01*
X304370100Y-121461036D01*
X304422019Y-121183285D01*
X304440064Y-120904672D01*
X304436174Y-120775859D01*
X304409625Y-120553861D01*
X304355819Y-120337287D01*
X304272272Y-120127379D01*
X304156498Y-119925380D01*
X304229410Y-119779696D01*
X304320177Y-119569386D01*
X304398123Y-119335602D01*
X304446298Y-119113167D01*
X304465343Y-118871350D01*
X304457919Y-118726192D01*
X304413171Y-118496662D01*
X304329219Y-118281542D01*
X304207523Y-118079573D01*
X304049541Y-117889498D01*
X303856734Y-117710060D01*
X303678393Y-117573321D01*
X303822374Y-117553538D01*
X303854687Y-117554043D01*
X304103192Y-117581393D01*
X304351087Y-117627089D01*
X304585722Y-117670966D01*
X304848652Y-117712116D01*
X305081127Y-117738035D01*
X305334726Y-117753572D01*
X305357883Y-117753567D01*
X305580922Y-117746978D01*
X305445236Y-117911621D01*
X305351412Y-118113364D01*
X305309447Y-118340488D01*
X306563511Y-120482620D01*
X307609848Y-118377857D01*
X307580859Y-118299714D01*
X307484558Y-118092346D01*
X307352300Y-117898607D01*
X307181202Y-117728293D01*
X307231269Y-117734408D01*
X307451578Y-117741482D01*
X307663360Y-117737013D01*
X307935283Y-117720242D01*
X308155063Y-117699479D01*
X308373710Y-117673608D01*
X308641029Y-117636090D01*
X308896434Y-117595211D01*
X309134290Y-117553538D01*
X309044574Y-117621472D01*
G37*
X321245062Y-117655889D02*
X321416511Y-117794390D01*
X321601276Y-117918258D01*
X321811593Y-118014895D01*
X322044602Y-118072531D01*
X322284935Y-118100886D01*
X322284935Y-121609190D01*
X322155138Y-121643888D01*
X321917440Y-121733210D01*
X321707691Y-121842895D01*
X321524398Y-121965498D01*
X321330209Y-122125578D01*
X321144556Y-122308491D01*
X320986906Y-122477473D01*
X320888531Y-122386527D01*
X320688537Y-122217624D01*
X320507268Y-122075444D01*
X320317834Y-121935208D01*
X320130151Y-121804504D01*
X319913119Y-121666085D01*
X319676788Y-121545443D01*
X319725888Y-121333786D01*
X319751247Y-121100155D01*
X319754181Y-121056346D01*
X320622008Y-121056346D01*
X320769842Y-121147864D01*
X320965037Y-121265620D01*
X321179196Y-121397615D01*
X321383679Y-121532254D01*
X321396868Y-118607568D01*
X321226217Y-118534856D01*
X321020188Y-118447092D01*
X320821715Y-118346216D01*
X320634098Y-118227281D01*
X320634735Y-118254845D01*
X320639971Y-118488505D01*
X320644883Y-118739155D01*
X320648678Y-118977804D01*
X320651717Y-119238876D01*
X320653302Y-119460955D01*
X320653881Y-119692372D01*
X320653801Y-119775986D01*
X320652456Y-120030378D01*
X320649082Y-120288130D01*
X320643202Y-120546724D01*
X320634336Y-120803636D01*
X320622008Y-121056346D01*
X319754181Y-121056346D01*
X319766364Y-120874446D01*
X319777359Y-120621947D01*
X319784671Y-120349767D01*
X319788736Y-120065016D01*
X319789994Y-119774804D01*
X319789690Y-119612326D01*
X319788443Y-119387014D01*
X319786423Y-119158000D01*
X319783836Y-118932057D01*
X319780120Y-118664270D01*
X319776242Y-118425100D01*
X319771310Y-118163534D01*
X319815402Y-118160754D01*
X320073150Y-118126435D01*
X320326261Y-118060593D01*
X320540670Y-117980359D01*
X320764256Y-117875965D01*
X321002654Y-117746379D01*
X321207824Y-117623879D01*
X321245062Y-117655889D01*
G36*
X321245062Y-117655889D02*
G01*
X321416511Y-117794390D01*
X321601276Y-117918258D01*
X321811593Y-118014895D01*
X322044602Y-118072531D01*
X322284935Y-118100886D01*
X322284935Y-121609190D01*
X322155138Y-121643888D01*
X321917440Y-121733210D01*
X321707691Y-121842895D01*
X321524398Y-121965498D01*
X321330209Y-122125578D01*
X321144556Y-122308491D01*
X320986906Y-122477473D01*
X320888531Y-122386527D01*
X320688537Y-122217624D01*
X320507268Y-122075444D01*
X320317834Y-121935208D01*
X320130151Y-121804504D01*
X319913119Y-121666085D01*
X319676788Y-121545443D01*
X319725888Y-121333786D01*
X319751247Y-121100155D01*
X319754181Y-121056346D01*
X320622008Y-121056346D01*
X320769842Y-121147864D01*
X320965037Y-121265620D01*
X321179196Y-121397615D01*
X321383679Y-121532254D01*
X321396868Y-118607568D01*
X321226217Y-118534856D01*
X321020188Y-118447092D01*
X320821715Y-118346216D01*
X320634098Y-118227281D01*
X320634735Y-118254845D01*
X320639971Y-118488505D01*
X320644883Y-118739155D01*
X320648678Y-118977804D01*
X320651717Y-119238876D01*
X320653302Y-119460955D01*
X320653881Y-119692372D01*
X320653801Y-119775986D01*
X320652456Y-120030378D01*
X320649082Y-120288130D01*
X320643202Y-120546724D01*
X320634336Y-120803636D01*
X320622008Y-121056346D01*
X319754181Y-121056346D01*
X319766364Y-120874446D01*
X319777359Y-120621947D01*
X319784671Y-120349767D01*
X319788736Y-120065016D01*
X319789994Y-119774804D01*
X319789690Y-119612326D01*
X319788443Y-119387014D01*
X319786423Y-119158000D01*
X319783836Y-118932057D01*
X319780120Y-118664270D01*
X319776242Y-118425100D01*
X319771310Y-118163534D01*
X319815402Y-118160754D01*
X320073150Y-118126435D01*
X320326261Y-118060593D01*
X320540670Y-117980359D01*
X320764256Y-117875965D01*
X321002654Y-117746379D01*
X321207824Y-117623879D01*
X321245062Y-117655889D01*
G37*
X317394616Y-117655686D02*
X317601020Y-117816558D01*
X317800134Y-117915206D01*
X318048497Y-117997598D01*
X318281936Y-118047837D01*
X318523839Y-118077805D01*
X318523839Y-120332044D01*
X318971170Y-120332044D01*
X318975894Y-120412538D01*
X318996353Y-120632617D01*
X319033766Y-120855307D01*
X319116250Y-121081625D01*
X318949992Y-120961112D01*
X318726073Y-120929951D01*
X318523839Y-120929951D01*
X318523839Y-121182742D01*
X318540807Y-121346373D01*
X318658553Y-121544963D01*
X318883243Y-121611388D01*
X319060197Y-121586109D01*
X318951787Y-121693538D01*
X318763306Y-121848479D01*
X318577335Y-121991352D01*
X318395349Y-122129387D01*
X318221589Y-122266448D01*
X318071097Y-122182395D01*
X317874749Y-122063097D01*
X317673142Y-121951008D01*
X317686331Y-120929951D01*
X316867507Y-120929951D01*
X316650422Y-120930806D01*
X316417418Y-120934837D01*
X316188158Y-120945305D01*
X315959656Y-120973914D01*
X315971048Y-120911720D01*
X315991530Y-120691448D01*
X315991364Y-120669735D01*
X315967948Y-120436016D01*
X315929667Y-120332044D01*
X316697147Y-120332044D01*
X317730294Y-120332044D01*
X317730294Y-118449298D01*
X317661719Y-118600475D01*
X317565712Y-118805958D01*
X317441362Y-119063273D01*
X317334071Y-119277327D01*
X317218319Y-119499351D01*
X317097310Y-119720265D01*
X316974251Y-119930988D01*
X316852347Y-120122442D01*
X316697147Y-120332044D01*
X315929667Y-120332044D01*
X315890413Y-120225432D01*
X316032943Y-120060320D01*
X316171575Y-119865771D01*
X316337158Y-119617682D01*
X316457314Y-119429845D01*
X316581640Y-119229165D01*
X316707013Y-119020022D01*
X316830308Y-118806797D01*
X316948404Y-118593870D01*
X317058175Y-118385623D01*
X317156500Y-118186436D01*
X317275691Y-117914227D01*
X317365396Y-117623879D01*
X317394616Y-117655686D01*
G36*
X317394616Y-117655686D02*
G01*
X317601020Y-117816558D01*
X317800134Y-117915206D01*
X318048497Y-117997598D01*
X318281936Y-118047837D01*
X318523839Y-118077805D01*
X318523839Y-120332044D01*
X318971170Y-120332044D01*
X318975894Y-120412538D01*
X318996353Y-120632617D01*
X319033766Y-120855307D01*
X319116250Y-121081625D01*
X318949992Y-120961112D01*
X318726073Y-120929951D01*
X318523839Y-120929951D01*
X318523839Y-121182742D01*
X318540807Y-121346373D01*
X318658553Y-121544963D01*
X318883243Y-121611388D01*
X319060197Y-121586109D01*
X318951787Y-121693538D01*
X318763306Y-121848479D01*
X318577335Y-121991352D01*
X318395349Y-122129387D01*
X318221589Y-122266448D01*
X318071097Y-122182395D01*
X317874749Y-122063097D01*
X317673142Y-121951008D01*
X317686331Y-120929951D01*
X316867507Y-120929951D01*
X316650422Y-120930806D01*
X316417418Y-120934837D01*
X316188158Y-120945305D01*
X315959656Y-120973914D01*
X315971048Y-120911720D01*
X315991530Y-120691448D01*
X315991364Y-120669735D01*
X315967948Y-120436016D01*
X315929667Y-120332044D01*
X316697147Y-120332044D01*
X317730294Y-120332044D01*
X317730294Y-118449298D01*
X317661719Y-118600475D01*
X317565712Y-118805958D01*
X317441362Y-119063273D01*
X317334071Y-119277327D01*
X317218319Y-119499351D01*
X317097310Y-119720265D01*
X316974251Y-119930988D01*
X316852347Y-120122442D01*
X316697147Y-120332044D01*
X315929667Y-120332044D01*
X315890413Y-120225432D01*
X316032943Y-120060320D01*
X316171575Y-119865771D01*
X316337158Y-119617682D01*
X316457314Y-119429845D01*
X316581640Y-119229165D01*
X316707013Y-119020022D01*
X316830308Y-118806797D01*
X316948404Y-118593870D01*
X317058175Y-118385623D01*
X317156500Y-118186436D01*
X317275691Y-117914227D01*
X317365396Y-117623879D01*
X317394616Y-117655686D01*
G37*
X300818964Y-117621472D02*
X300634779Y-117801256D01*
X300501626Y-117994671D01*
X300411682Y-118200985D01*
X300357122Y-118419471D01*
X300330123Y-118649397D01*
X300322862Y-118890034D01*
X300334679Y-119069092D01*
X300377660Y-119287418D01*
X300450965Y-119516947D01*
X300537043Y-119723439D01*
X300643798Y-119939668D01*
X300549433Y-120136371D01*
X300463294Y-120367084D01*
X300403435Y-120583485D01*
X300362994Y-120809710D01*
X300348142Y-121038761D01*
X300365160Y-121277742D01*
X300415201Y-121504392D01*
X300496744Y-121710321D01*
X300629661Y-121913191D01*
X300800968Y-122063115D01*
X300633825Y-122157783D01*
X300440586Y-122292212D01*
X300264090Y-122441478D01*
X300091692Y-122623241D01*
X299956865Y-122824787D01*
X299866902Y-122644224D01*
X299709419Y-122453012D01*
X299536966Y-122296964D01*
X299344198Y-122162478D01*
X299144635Y-122063115D01*
X299256462Y-121932408D01*
X299348433Y-121723739D01*
X299403296Y-121471390D01*
X299427505Y-121237549D01*
X299438008Y-120990697D01*
X299440291Y-120738708D01*
X299440291Y-119558283D01*
X298218100Y-121876270D01*
X298111488Y-121852090D01*
X296920071Y-119769309D01*
X296920071Y-120728817D01*
X296920444Y-120822745D01*
X296926166Y-121081606D01*
X296945127Y-121378432D01*
X296977973Y-121628143D01*
X297040106Y-121887506D01*
X297127511Y-122104361D01*
X297242176Y-122295988D01*
X297386086Y-122479672D01*
X297287201Y-122451974D01*
X297064852Y-122374966D01*
X296869037Y-122274865D01*
X296686090Y-122149944D01*
X296498019Y-122002665D01*
X296475963Y-122039464D01*
X296332200Y-122247948D01*
X296160746Y-122435712D01*
X295988624Y-122576730D01*
X295782994Y-122704022D01*
X295537365Y-122817892D01*
X295307702Y-122899525D01*
X295493084Y-122705662D01*
X295664529Y-122488447D01*
X295818716Y-122251629D01*
X295952320Y-121998956D01*
X296062019Y-121734175D01*
X296144489Y-121461036D01*
X296196409Y-121183285D01*
X296214454Y-120904672D01*
X296210564Y-120775859D01*
X296184014Y-120553861D01*
X296130209Y-120337287D01*
X296046661Y-120127379D01*
X295930888Y-119925380D01*
X296003799Y-119779696D01*
X296094567Y-119569386D01*
X296172513Y-119335602D01*
X296220687Y-119113167D01*
X296239733Y-118871350D01*
X296232308Y-118726192D01*
X296187560Y-118496662D01*
X296103608Y-118281542D01*
X295981912Y-118079573D01*
X295823931Y-117889498D01*
X295631123Y-117710060D01*
X295452782Y-117573321D01*
X295596763Y-117553538D01*
X295629076Y-117554043D01*
X295877582Y-117581393D01*
X296125476Y-117627089D01*
X296360111Y-117670966D01*
X296623041Y-117712116D01*
X296855517Y-117738035D01*
X297109115Y-117753572D01*
X297132272Y-117753567D01*
X297355312Y-117746978D01*
X297219625Y-117911621D01*
X297125801Y-118113364D01*
X297083836Y-118340488D01*
X298337901Y-120482620D01*
X299384237Y-118377857D01*
X299355248Y-118299714D01*
X299258947Y-118092346D01*
X299126690Y-117898607D01*
X298955591Y-117728293D01*
X299005659Y-117734408D01*
X299225968Y-117741482D01*
X299437749Y-117737013D01*
X299709673Y-117720242D01*
X299929453Y-117699479D01*
X300148099Y-117673608D01*
X300415418Y-117636090D01*
X300670823Y-117595211D01*
X300908679Y-117553538D01*
X300818964Y-117621472D01*
G36*
X300818964Y-117621472D02*
G01*
X300634779Y-117801256D01*
X300501626Y-117994671D01*
X300411682Y-118200985D01*
X300357122Y-118419471D01*
X300330123Y-118649397D01*
X300322862Y-118890034D01*
X300334679Y-119069092D01*
X300377660Y-119287418D01*
X300450965Y-119516947D01*
X300537043Y-119723439D01*
X300643798Y-119939668D01*
X300549433Y-120136371D01*
X300463294Y-120367084D01*
X300403435Y-120583485D01*
X300362994Y-120809710D01*
X300348142Y-121038761D01*
X300365160Y-121277742D01*
X300415201Y-121504392D01*
X300496744Y-121710321D01*
X300629661Y-121913191D01*
X300800968Y-122063115D01*
X300633825Y-122157783D01*
X300440586Y-122292212D01*
X300264090Y-122441478D01*
X300091692Y-122623241D01*
X299956865Y-122824787D01*
X299866902Y-122644224D01*
X299709419Y-122453012D01*
X299536966Y-122296964D01*
X299344198Y-122162478D01*
X299144635Y-122063115D01*
X299256462Y-121932408D01*
X299348433Y-121723739D01*
X299403296Y-121471390D01*
X299427505Y-121237549D01*
X299438008Y-120990697D01*
X299440291Y-120738708D01*
X299440291Y-119558283D01*
X298218100Y-121876270D01*
X298111488Y-121852090D01*
X296920071Y-119769309D01*
X296920071Y-120728817D01*
X296920444Y-120822745D01*
X296926166Y-121081606D01*
X296945127Y-121378432D01*
X296977973Y-121628143D01*
X297040106Y-121887506D01*
X297127511Y-122104361D01*
X297242176Y-122295988D01*
X297386086Y-122479672D01*
X297287201Y-122451974D01*
X297064852Y-122374966D01*
X296869037Y-122274865D01*
X296686090Y-122149944D01*
X296498019Y-122002665D01*
X296475963Y-122039464D01*
X296332200Y-122247948D01*
X296160746Y-122435712D01*
X295988624Y-122576730D01*
X295782994Y-122704022D01*
X295537365Y-122817892D01*
X295307702Y-122899525D01*
X295493084Y-122705662D01*
X295664529Y-122488447D01*
X295818716Y-122251629D01*
X295952320Y-121998956D01*
X296062019Y-121734175D01*
X296144489Y-121461036D01*
X296196409Y-121183285D01*
X296214454Y-120904672D01*
X296210564Y-120775859D01*
X296184014Y-120553861D01*
X296130209Y-120337287D01*
X296046661Y-120127379D01*
X295930888Y-119925380D01*
X296003799Y-119779696D01*
X296094567Y-119569386D01*
X296172513Y-119335602D01*
X296220687Y-119113167D01*
X296239733Y-118871350D01*
X296232308Y-118726192D01*
X296187560Y-118496662D01*
X296103608Y-118281542D01*
X295981912Y-118079573D01*
X295823931Y-117889498D01*
X295631123Y-117710060D01*
X295452782Y-117573321D01*
X295596763Y-117553538D01*
X295629076Y-117554043D01*
X295877582Y-117581393D01*
X296125476Y-117627089D01*
X296360111Y-117670966D01*
X296623041Y-117712116D01*
X296855517Y-117738035D01*
X297109115Y-117753572D01*
X297132272Y-117753567D01*
X297355312Y-117746978D01*
X297219625Y-117911621D01*
X297125801Y-118113364D01*
X297083836Y-118340488D01*
X298337901Y-120482620D01*
X299384237Y-118377857D01*
X299355248Y-118299714D01*
X299258947Y-118092346D01*
X299126690Y-117898607D01*
X298955591Y-117728293D01*
X299005659Y-117734408D01*
X299225968Y-117741482D01*
X299437749Y-117737013D01*
X299709673Y-117720242D01*
X299929453Y-117699479D01*
X300148099Y-117673608D01*
X300415418Y-117636090D01*
X300670823Y-117595211D01*
X300908679Y-117553538D01*
X300818964Y-117621472D01*
G37*
D11*
X195579999Y-88900000D03*
D12*
X194310000Y-91440000D03*
D13*
X190500000Y-88900000D03*
D12*
X187960000Y-93980000D03*
D11*
X185420001Y-88900000D03*
X374649999Y-127000000D03*
D12*
X373380000Y-129540000D03*
D13*
X369570000Y-127000000D03*
D12*
X367030000Y-132080000D03*
D11*
X364490001Y-127000000D03*
X138429999Y-107950000D03*
D12*
X137160000Y-110490000D03*
D13*
X133350000Y-107950000D03*
D12*
X130810000Y-113030000D03*
D11*
X128270001Y-107950000D03*
X332739999Y-149860000D03*
D12*
X331470000Y-152400000D03*
D13*
X327660000Y-149860000D03*
D12*
X325120000Y-154940000D03*
D11*
X322580001Y-149860000D03*
X138429999Y-127000000D03*
D12*
X137160000Y-129540000D03*
D13*
X133350000Y-127000000D03*
D12*
X130810000Y-132080000D03*
D11*
X128270001Y-127000000D03*
X355599999Y-146050000D03*
D12*
X354330000Y-148590000D03*
D13*
X350520000Y-146050000D03*
D12*
X347980000Y-151130000D03*
D11*
X345440001Y-146050000D03*
X131286250Y-146050000D03*
D12*
X130016250Y-148590000D03*
D13*
X126206250Y-146050000D03*
D12*
X123666250Y-151130000D03*
D11*
X121126250Y-146050000D03*
X107473750Y-146050000D03*
D12*
X106203750Y-148590000D03*
D13*
X102393750Y-146050000D03*
D12*
X99853750Y-151130000D03*
D11*
X97313750Y-146050000D03*
D14*
X87000000Y-136525000D03*
X295300000Y-136500000D03*
D11*
X119379999Y-107950000D03*
D12*
X118110000Y-110490000D03*
D13*
X114300000Y-107950000D03*
D12*
X111760000Y-113030000D03*
D11*
X109220001Y-107950000D03*
D15*
X200500000Y-131575000D03*
D16*
X200500000Y-129035000D03*
D11*
X233679999Y-127000000D03*
D12*
X232410000Y-129540000D03*
D13*
X228600000Y-127000000D03*
D12*
X226060000Y-132080000D03*
D11*
X223520001Y-127000000D03*
X195579999Y-127000000D03*
D12*
X194310000Y-129540000D03*
D13*
X190500000Y-127000000D03*
D12*
X187960000Y-132080000D03*
D11*
X185420001Y-127000000D03*
X290829999Y-88900000D03*
D12*
X289560000Y-91440000D03*
D13*
X285750000Y-88900000D03*
D12*
X283210000Y-93980000D03*
D11*
X280670001Y-88900000D03*
X186055000Y-146050000D03*
D12*
X184785000Y-148590000D03*
D13*
X180975000Y-146050000D03*
D12*
X178435000Y-151130000D03*
D11*
X175895000Y-146050000D03*
X271779999Y-127000000D03*
D12*
X270510000Y-129540000D03*
D13*
X266700000Y-127000000D03*
D12*
X264160000Y-132080000D03*
D11*
X261620001Y-127000000D03*
X290829999Y-107950000D03*
D12*
X289560000Y-110490000D03*
D13*
X285750000Y-107950000D03*
D12*
X283210000Y-113030000D03*
D11*
X280670001Y-107950000D03*
X264636250Y-146050000D03*
D12*
X263366250Y-148590000D03*
D13*
X259556250Y-146050000D03*
D12*
X257016250Y-151130000D03*
D11*
X254476250Y-146050000D03*
X157479999Y-127000000D03*
D12*
X156210000Y-129540000D03*
D13*
X152400000Y-127000000D03*
D12*
X149860000Y-132080000D03*
D11*
X147320001Y-127000000D03*
D14*
X161925000Y-98425000D03*
D11*
X336549999Y-107950000D03*
D12*
X335280000Y-110490000D03*
D13*
X331470000Y-107950000D03*
D12*
X328930000Y-113030000D03*
D11*
X326390001Y-107950000D03*
X271779999Y-107950000D03*
D12*
X270510000Y-110490000D03*
D13*
X266700000Y-107950000D03*
D12*
X264160000Y-113030000D03*
D11*
X261620001Y-107950000D03*
X355599999Y-127000000D03*
D12*
X354330000Y-129540000D03*
D13*
X350520000Y-127000000D03*
D12*
X347980000Y-132080000D03*
D11*
X345440001Y-127000000D03*
X119379999Y-88900000D03*
D12*
X118110000Y-91440000D03*
D13*
X114300000Y-88900000D03*
D12*
X111760000Y-93980000D03*
D11*
X109220001Y-88900000D03*
X155098750Y-146050000D03*
D12*
X153828750Y-148590000D03*
D13*
X150018750Y-146050000D03*
D12*
X147478750Y-151130000D03*
D11*
X144938750Y-146050000D03*
X336549999Y-88900000D03*
D12*
X335280000Y-91440000D03*
D13*
X331470000Y-88900000D03*
D12*
X328930000Y-93980000D03*
D11*
X326390001Y-88900000D03*
X313689999Y-130810000D03*
D12*
X312420000Y-133350000D03*
D13*
X308610000Y-130810000D03*
D12*
X306070000Y-135890000D03*
D11*
X303530001Y-130810000D03*
X336549999Y-127000000D03*
D12*
X335280000Y-129540000D03*
D13*
X331470000Y-127000000D03*
D12*
X328930000Y-132080000D03*
D11*
X326390001Y-127000000D03*
X355599999Y-88900000D03*
D12*
X354330000Y-91440000D03*
D13*
X350520000Y-88900000D03*
D12*
X347980000Y-93980000D03*
D11*
X345440001Y-88900000D03*
D14*
X238100000Y-98425000D03*
D11*
X100329999Y-107950000D03*
D12*
X99060000Y-110490000D03*
D13*
X95250000Y-107950000D03*
D12*
X92710000Y-113030000D03*
D11*
X90170001Y-107950000D03*
X252729999Y-127000000D03*
D12*
X251460000Y-129540000D03*
D13*
X247650000Y-127000000D03*
D12*
X245110000Y-132080000D03*
D11*
X242570001Y-127000000D03*
X81279999Y-127000000D03*
D12*
X80010000Y-129540000D03*
D13*
X76200000Y-127000000D03*
D12*
X73660000Y-132080000D03*
D11*
X71120001Y-127000000D03*
X252729999Y-107950000D03*
D12*
X251460000Y-110490000D03*
D13*
X247650000Y-107950000D03*
D12*
X245110000Y-113030000D03*
D11*
X242570001Y-107950000D03*
D17*
X341649999Y-116800000D03*
D18*
X340350001Y-116800000D03*
D11*
X214629999Y-127000000D03*
D12*
X213360000Y-129540000D03*
D13*
X209550000Y-127000000D03*
D12*
X207010000Y-132080000D03*
D11*
X204470001Y-127000000D03*
X100329999Y-127000000D03*
D12*
X99060000Y-129540000D03*
D13*
X95250000Y-127000000D03*
D12*
X92710000Y-132080000D03*
D11*
X90170001Y-127000000D03*
X100329999Y-88900000D03*
D12*
X99060000Y-91440000D03*
D13*
X95250000Y-88900000D03*
D12*
X92710000Y-93980000D03*
D11*
X90170001Y-88900000D03*
X138429999Y-88900000D03*
D12*
X137160000Y-91440000D03*
D13*
X133350000Y-88900000D03*
D12*
X130810000Y-93980000D03*
D11*
X128270001Y-88900000D03*
X233679999Y-88900000D03*
D12*
X232410000Y-91440000D03*
D13*
X228600000Y-88900000D03*
D12*
X226060000Y-93980000D03*
D11*
X223520001Y-88900000D03*
X233679999Y-107950000D03*
D12*
X232410000Y-110490000D03*
D13*
X228600000Y-107950000D03*
D12*
X226060000Y-113030000D03*
D11*
X223520001Y-107950000D03*
X81279999Y-88900000D03*
D12*
X80010000Y-91440000D03*
D13*
X76200000Y-88900000D03*
D12*
X73660000Y-93980000D03*
D11*
X71120001Y-88900000D03*
X374649999Y-88900000D03*
D12*
X373380000Y-91440000D03*
D13*
X369570000Y-88900000D03*
D12*
X367030000Y-93980000D03*
D11*
X364490001Y-88900000D03*
X252729999Y-88900000D03*
D12*
X251460000Y-91440000D03*
D13*
X247650000Y-88900000D03*
D12*
X245110000Y-93980000D03*
D11*
X242570001Y-88900000D03*
X176529999Y-107950000D03*
D12*
X175260000Y-110490000D03*
D13*
X171450000Y-107950000D03*
D12*
X168910000Y-113030000D03*
D11*
X166370001Y-107950000D03*
X176529999Y-127000000D03*
D12*
X175260000Y-129540000D03*
D13*
X171450000Y-127000000D03*
D12*
X168910000Y-132080000D03*
D11*
X166370001Y-127000000D03*
X214629999Y-107950000D03*
D12*
X213360000Y-110490000D03*
D13*
X209550000Y-107950000D03*
D12*
X207010000Y-113030000D03*
D11*
X204470001Y-107950000D03*
D17*
X341649999Y-119400000D03*
D18*
X340350001Y-119400000D03*
D11*
X157479999Y-107950000D03*
D12*
X156210000Y-110490000D03*
D13*
X152400000Y-107950000D03*
D12*
X149860000Y-113030000D03*
D11*
X147320001Y-107950000D03*
X157479999Y-88900000D03*
D12*
X156210000Y-91440000D03*
D13*
X152400000Y-88900000D03*
D12*
X149860000Y-93980000D03*
D11*
X147320001Y-88900000D03*
X271779999Y-88900000D03*
D12*
X270510000Y-91440000D03*
D13*
X266700000Y-88900000D03*
D12*
X264160000Y-93980000D03*
D11*
X261620001Y-88900000D03*
X214629999Y-88900000D03*
D12*
X213360000Y-91440000D03*
D13*
X209550000Y-88900000D03*
D12*
X207010000Y-93980000D03*
D11*
X204470001Y-88900000D03*
X81279999Y-107950000D03*
D12*
X80010000Y-110490000D03*
D13*
X76200000Y-107950000D03*
D12*
X73660000Y-113030000D03*
D11*
X71120001Y-107950000D03*
X355599999Y-107950000D03*
D12*
X354330000Y-110490000D03*
D13*
X350520000Y-107950000D03*
D12*
X347980000Y-113030000D03*
D11*
X345440001Y-107950000D03*
X240823750Y-146050000D03*
D12*
X239553750Y-148590000D03*
D13*
X235743750Y-146050000D03*
D12*
X233203750Y-151130000D03*
D11*
X230663750Y-146050000D03*
D14*
X161925000Y-136525000D03*
D11*
X83661250Y-146050000D03*
D12*
X82391250Y-148590000D03*
D13*
X78581250Y-146050000D03*
D12*
X76041250Y-151130000D03*
D11*
X73501250Y-146050000D03*
X290829999Y-127000000D03*
D12*
X289560000Y-129540000D03*
D13*
X285750000Y-127000000D03*
D12*
X283210000Y-132080000D03*
D11*
X280670001Y-127000000D03*
X313689999Y-149860000D03*
D12*
X312420000Y-152400000D03*
D13*
X308610000Y-149860000D03*
D12*
X306070000Y-154940000D03*
D11*
X303530001Y-149860000D03*
X195579999Y-107950000D03*
D12*
X194310000Y-110490000D03*
D13*
X190500000Y-107950000D03*
D12*
X187960000Y-113030000D03*
D11*
X185420001Y-107950000D03*
X176529999Y-88900000D03*
D12*
X175260000Y-91440000D03*
D13*
X171450000Y-88900000D03*
D12*
X168910000Y-93980000D03*
D11*
X166370001Y-88900000D03*
X309879999Y-88900000D03*
D12*
X308610000Y-91440000D03*
D13*
X304800000Y-88900000D03*
D12*
X302260000Y-93980000D03*
D11*
X299720001Y-88900000D03*
D14*
X360045000Y-136525000D03*
D11*
X119379999Y-127000000D03*
D12*
X118110000Y-129540000D03*
D13*
X114300000Y-127000000D03*
D12*
X111760000Y-132080000D03*
D11*
X109220001Y-127000000D03*
D14*
X360045000Y-98425000D03*
D11*
X374649999Y-146050000D03*
D12*
X373380000Y-148590000D03*
D13*
X369570000Y-146050000D03*
D12*
X367030000Y-151130000D03*
D11*
X364490001Y-146050000D03*
X294639999Y-149860000D03*
D12*
X293370000Y-152400000D03*
D13*
X289560000Y-149860000D03*
D12*
X287020000Y-154940000D03*
D11*
X284480001Y-149860000D03*
D14*
X85725000Y-98425000D03*
D11*
X309879999Y-107950000D03*
D12*
X308610000Y-110490000D03*
D13*
X304800000Y-107950000D03*
D12*
X302260000Y-113030000D03*
D11*
X299720001Y-107950000D03*
X217011250Y-146050000D03*
D12*
X215741250Y-148590000D03*
D13*
X211931250Y-146050000D03*
D12*
X209391250Y-151130000D03*
D11*
X206851250Y-146050000D03*
X374649999Y-107950000D03*
D12*
X373380000Y-110490000D03*
D13*
X369570000Y-107950000D03*
D12*
X367030000Y-113030000D03*
D11*
X364490001Y-107950000D03*
D14*
X318100000Y-98400000D03*
D15*
X162000000Y-149250000D03*
D16*
X164540000Y-149250000D03*
X167079999Y-149250000D03*
X169620000Y-149250000D03*
D15*
X162000000Y-145500000D03*
D16*
X164540000Y-145500000D03*
X167080000Y-145500000D03*
X169620000Y-145500000D03*
D19*
X101860000Y-84040000D03*
X107640000Y-84040000D03*
D20*
X100430000Y-80390000D03*
D21*
X100430000Y-84570000D03*
D20*
X109070000Y-80390000D03*
D21*
X109070000Y-84570000D03*
D15*
X163300000Y-153000000D03*
D16*
X165840000Y-153000000D03*
X168379999Y-153000000D03*
M02*
