M48
; DRILL file {KiCad 8.0.4} date 2024-08-26T20:22:04+0200
; FORMAT={-:-/ absolute / metric / decimal}
; #@! TF.CreationDate,2024-08-26T20:22:04+02:00
; #@! TF.GenerationSoftware,Kicad,Pcbnew,8.0.4
; #@! TF.FileFunction,Plated,1,2,PTH
FMAT,2
METRIC
; #@! TA.AperFunction,Plated,PTH,ViaDrill
T1C0.300
; #@! TA.AperFunction,Plated,PTH,ComponentDrill
T2C0.600
; #@! TA.AperFunction,Plated,PTH,ComponentDrill
T3C1.000
%
G90
G05
T1
X67.5Y-118.2
X68.775Y-103.625
X70.3Y-124.3
X70.8Y-105.4
X71.0Y-86.55
X71.3Y-121.1
X71.6Y-83.0
X73.3Y-85.975
X80.3Y-103.6
X81.8Y-105.4
X82.3Y-86.53
X82.5Y-142.4
X82.7Y-124.3
X83.3Y-93.3
X83.3Y-108.4
X83.3Y-112.3
X83.3Y-127.6
X83.3Y-131.5
X84.0Y-140.0
X85.7Y-145.6
X89.5Y-83.1
X89.5Y-124.3
X89.8Y-105.4
X90.4Y-121.1
X90.5Y-84.1
X90.886Y-83.457
X97.0Y-143.6
X97.475Y-139.975
X99.5Y-103.6
X99.8Y-105.4
X101.7Y-124.3
X102.3Y-112.3
X102.3Y-127.7
X102.3Y-131.4
X102.4Y-94.7
X102.4Y-108.6
X103.1Y-121.1
X104.75Y-93.116
X107.2Y-141.6
X108.4Y-143.6
X108.7Y-124.3
X108.8Y-105.4
X109.5Y-146.6
X109.6Y-121.1
X109.75Y-122.6
X110.7Y-140.0
X111.0Y-81.9
X115.2Y-79.7
X117.6Y-81.9
X118.5Y-103.6
X118.6Y-101.9
X119.2Y-82.1
X119.4Y-100.4
X119.8Y-124.3
X121.1Y-140.0
X121.2Y-143.6
X121.385Y-94.015
X121.4Y-112.3
X121.4Y-127.7
X121.4Y-131.5
X122.5Y-85.7
X125.9Y-101.9
X126.75Y-92.0
X126.75Y-96.5
X127.0Y-104.0
X127.127Y-80.518
X127.6Y-124.3
X128.4Y-121.1
X128.675Y-100.825
X130.4Y-143.6
X130.5Y-85.6
X130.9Y-142.4
X133.3Y-146.7
X133.5Y-79.4
X135.2Y-140.0
X137.5Y-103.6
X138.25Y-94.3
X139.0Y-100.35
X139.05Y-105.4
X139.7Y-124.3
X140.4Y-93.6
X140.4Y-108.6
X140.4Y-127.6
X140.435Y-112.4
X141.1Y-121.0
X144.4Y-143.6
X144.975Y-139.975
X146.7Y-105.4
X146.7Y-124.3
X147.1Y-86.3
X147.6Y-83.0
X147.6Y-121.1
X147.8Y-122.6
X154.2Y-141.7
X154.7Y-140.1
X155.25Y-106.1
X155.4Y-104.9
X156.8Y-142.3
X156.9Y-102.2
X157.1Y-146.6
X157.6Y-143.6
X157.7Y-104.8
X158.6Y-124.3
X158.9Y-104.2
X159.4Y-106.8
X159.485Y-134.2
X159.5Y-112.7
X159.5Y-127.4
X160.75Y-86.3
X165.6Y-105.4
X165.8Y-124.3
X166.1Y-86.3
X166.5Y-83.0
X166.9Y-135.7
X167.1Y-120.3
X168.6Y-151.4
X170.9Y-142.3
X172.9Y-152.9
X172.9Y-154.5
X174.635Y-135.1
X175.6Y-103.6
X176.0Y-147.825
X176.4Y-141.5
X176.9Y-105.4
X177.6Y-124.3
X178.5Y-93.25
X178.5Y-108.5
X178.5Y-112.5
X178.5Y-127.5
X178.535Y-131.2
X178.85Y-86.3
X179.1Y-124.3
X179.3Y-120.9
X184.7Y-124.3
X184.9Y-86.3
X184.9Y-105.4
X185.3Y-142.5
X185.5Y-83.0
X186.0Y-122.6
X186.1Y-120.9
X186.776Y-144.35
X187.5Y-136.9
X188.2Y-137.6
X188.9Y-154.0
X188.95Y-150.75
X189.4Y-136.8
X189.8Y-154.9
X189.9Y-142.4
X191.5Y-144.0
X191.55Y-142.25
X191.564Y-141.486
X192.2Y-149.0
X192.25Y-137.19
X193.25Y-138.895
X194.139Y-150.439
X194.56Y-153.736
X195.2Y-143.0
X195.2Y-144.8
X195.4Y-103.5
X196.0Y-124.3
X196.1Y-105.4
X196.15Y-143.86
X196.35Y-136.9
X196.35Y-141.47
X197.0Y-143.0
X197.0Y-144.8
X197.55Y-133.95
X197.6Y-93.3
X197.6Y-108.6
X197.6Y-112.2
X197.6Y-127.7
X198.4Y-146.05
X198.6Y-86.3
X199.6Y-140.4
X199.85Y-139.693
X199.906Y-150.094
X200.45Y-137.45
X200.5Y-134.4
X201.05Y-143.66
X201.25Y-118.8
X201.3Y-145.172
X201.3Y-145.95
X201.4Y-141.092
X201.527Y-144.45
X201.844Y-143.11
X201.961Y-141.642
X202.5Y-149.0
X202.5Y-153.5
X203.3Y-117.7
X203.45Y-141.0
X203.8Y-105.4
X203.9Y-86.3
X203.9Y-124.3
X204.1Y-150.2
X204.3Y-121.85
X204.6Y-140.05
X204.724Y-146.685
X205.5Y-82.8
X206.05Y-137.45
X207.25Y-148.2
X209.1Y-143.0
X211.95Y-136.95
X214.2Y-103.4
X214.8Y-105.4
X215.0Y-124.3
X215.7Y-116.4
X216.05Y-121.3
X216.4Y-141.5
X216.55Y-136.3
X216.6Y-116.4
X216.7Y-93.7
X216.7Y-108.7
X216.7Y-126.5
X217.185Y-117.1
X217.7Y-86.3
X217.75Y-117.9
X218.4Y-150.8
X219.093Y-118.45
X219.2Y-144.8
X219.643Y-117.9
X219.8Y-141.5
X220.193Y-117.1
X220.7Y-152.75
X220.743Y-116.444
X221.3Y-105.4
X221.4Y-125.8
X221.4Y-153.1
X221.4Y-154.3
X222.1Y-87.975
X222.1Y-151.85
X222.9Y-124.3
X223.2Y-105.4
X223.3Y-86.3
X223.5Y-83.0
X224.2Y-120.9
X231.0Y-143.4
X233.2Y-103.5
X233.25Y-124.3
X234.1Y-105.4
X234.9Y-122.65
X235.7Y-93.3
X235.7Y-108.6
X235.7Y-112.4
X235.7Y-127.6
X235.8Y-131.6
X236.6Y-86.3
X236.8Y-101.85
X240.1Y-141.7
X241.4Y-143.4
X242.0Y-124.3
X242.1Y-86.3
X242.3Y-105.4
X242.7Y-83.0
X242.75Y-101.85
X242.8Y-122.65
X242.9Y-146.6
X243.5Y-120.9
X244.0Y-139.95
X252.6Y-103.4
X252.6Y-105.4
X253.0Y-124.3
X254.2Y-143.5
X254.656Y-139.922
X254.7Y-108.5
X254.7Y-112.3
X254.7Y-131.4
X254.735Y-93.2
X254.735Y-127.6
X255.7Y-86.3
X255.9Y-101.85
X260.7Y-105.4
X260.9Y-124.3
X261.1Y-86.3
X261.6Y-83.0
X261.75Y-101.85
X262.4Y-120.9
X263.7Y-141.7
X265.8Y-143.5
X266.7Y-146.4
X271.4Y-103.4
X271.9Y-124.3
X272.2Y-105.4
X273.8Y-93.5
X273.8Y-108.4
X273.8Y-112.4
X273.8Y-127.6
X273.8Y-131.3
X274.85Y-86.3
X275.25Y-101.9
X280.0Y-86.3
X280.0Y-124.3
X280.1Y-105.4
X281.0Y-83.0
X281.2Y-103.6
X281.5Y-120.9
X285.3Y-147.3
X290.3Y-103.4
X291.1Y-124.3
X291.5Y-105.4
X292.8Y-93.4
X292.8Y-108.6
X292.9Y-112.4
X292.9Y-127.7
X292.9Y-131.5
X294.0Y-86.3
X294.2Y-145.4
X294.45Y-101.9
X295.2Y-143.8
X295.4Y-147.3
X296.7Y-150.2
X299.0Y-86.3
X299.0Y-105.4
X299.775Y-101.875
X299.9Y-83.0
X303.3Y-128.3
X303.4Y-147.3
X303.785Y-143.785
X304.4Y-124.7
X309.4Y-103.4
X309.725Y-84.525
X311.885Y-93.285
X311.885Y-103.6
X311.9Y-112.3
X313.0Y-101.9
X313.1Y-145.4
X313.7Y-128.3
X314.3Y-147.3
X315.7Y-116.1
X315.7Y-131.0
X315.7Y-135.3
X315.7Y-150.5
X316.63Y-121.99
X320.2Y-86.3
X320.2Y-105.4
X322.7Y-147.3
X323.04Y-116.79
X323.04Y-118.89
X325.4Y-105.4
X325.5Y-124.05
X325.6Y-86.3
X326.45Y-101.85
X326.5Y-82.9
X326.5Y-84.5
X327.2Y-120.9
X332.3Y-145.4
X333.2Y-147.3
X334.3Y-86.3
X334.7Y-150.4
X335.125Y-105.425
X336.1Y-103.4
X336.15Y-116.25
X337.703Y-121.103
X337.775Y-118.1
X338.5Y-93.8
X338.5Y-108.7
X338.6Y-112.3
X338.6Y-127.8
X338.925Y-116.8
X343.8Y-117.575
X344.6Y-119.4
X345.0Y-124.6
X345.1Y-86.3
X345.5Y-105.5
X345.6Y-143.5
X345.8Y-82.8
X345.9Y-118.1
X346.4Y-120.9
X354.8Y-141.7
X355.0Y-103.5
X355.263Y-84.363
X355.3Y-143.5
X356.4Y-86.3
X356.5Y-118.1
X357.075Y-105.55
X357.6Y-93.3
X357.6Y-108.6
X357.6Y-112.2
X357.6Y-123.1
X357.6Y-131.5
X357.6Y-146.6
X358.25Y-140.1
X358.45Y-121.05
X358.6Y-118.1
X358.75Y-102.0
X358.75Y-124.6
X364.175Y-140.075
X364.4Y-82.8
X364.5Y-84.5
X364.6Y-121.0
X364.637Y-101.938
X365.4Y-120.9
X371.05Y-118.05
X373.8Y-141.7
X374.2Y-103.4
X376.6Y-93.3
X376.6Y-108.6
X376.7Y-112.4
X376.7Y-127.6
X376.7Y-131.4
X376.7Y-146.5
X378.5Y-124.3
X378.5Y-137.0
X378.6Y-87.0
X378.6Y-98.6
T3
X162.0Y-145.5
X162.0Y-149.25
X163.3Y-153.0
X164.54Y-145.5
X164.54Y-149.25
X165.84Y-153.0
X167.08Y-149.25
X167.08Y-145.5
X168.38Y-153.0
X169.62Y-145.5
X169.62Y-149.25
X200.5Y-129.035
X200.5Y-131.575
T2
G00X100.43Y-80.09
M15
G01X100.43Y-80.69
M16
G05
G00X100.43Y-84.02
M15
G01X100.43Y-85.12
M16
G05
G00X109.07Y-80.09
M15
G01X109.07Y-80.69
M16
G05
G00X109.07Y-84.02
M15
G01X109.07Y-85.12
M16
G05
M30
